<svg xmlns="http://www.w3.org/2000/svg" xmlns:xlink="http://www.w3.org/1999/xlink" width="2340" height="1404" viewBox="0 0 2340 1404">
  <defs>
    <pattern id="hatch" patternUnits="userSpaceOnUse" width="9" height="9" patternTransform="rotate(45)">
      <line x1="0" y1="0" x2="0" y2="9" stroke="#000" stroke-width="0.9" stroke-opacity="0.4"/>
    </pattern>
    <g id="mapart">
      
      
      <path d="M 5796.0 -18379.0 L 5863.1 -18347.4 L 5904.0 -18344.3 L 5954.4 -18339.6 L 6039.3 -18327.0 L 6106.9 -18294.1 L 6177.7 -18218.8 L 6210.7 -18121.5 L 6283.0 -17302.6 L 6308.2 -17203.7 L 6334.9 -17152.0 L 6401.0 -17098.6 L 6721.6 -16915.2 L 7038.9 -16746.3 L 7815.9 -16325.9 L 7855.6 -16300.1 L 7901.2 -16260.7 L 7967.2 -16144.6 L 8030.1 -15851.2 L 8084.1 -15606.8 L 8079.6 -15597.3 L 8084.5 -15560.7 L 8100.2 -15123.4 L 8118.6 -14817.4 L 8125.2 -14718.1 L 8118.2 -14573.7 L 8080.4 -14463.9 L 7386.9 -12682.3 L 7132.2 -12024.5 L 7091.3 -11936.6 L 7070.9 -11836.1 L 7078.7 -10967.9 L 7108.6 -10847.0 L 7258.0 -10518.8 L 7720.3 -9724.2 L 7756.5 -9600.1 L 7762.8 -9253.0 L 7787.9 -9127.4 L 7954.6 -8819.5 L 8143.3 -8411.2 L 8538.0 -7759.3 L 8674.8 -7080.7 L 8866.2 -6124.7 L 8867.6 -6091.0 L 8864.5 -6070.1 L 8851.6 -6039.8 L 8658.6 -5736.2 L 8449.6 -5402.4 L 8432.7 -5380.5 L 8414.8 -5362.3 L 8399.4 -5348.2 L 8379.7 -5332.7 L 7428.4 -4469.0 L 7196.7 -4244.9 L 7150.0 -4199.8 L 7083.6 -4137.6 L 7062.3 -4116.8 L 7042.6 -4089.4 L 7009.4 -4031.3 L 6920.2 -3889.8 L 6780.1 -3659.1 L 6670.1 -3482.3 L 6655.6 -3458.9 L 6642.1 -3444.9 L 6630.2 -3433.0 L 6608.4 -3424.2 L 6541.0 -3406.1 L 6451.2 -3376.5 L 6394.7 -3355.8 L 6365.1 -3344.9 L 6333.5 -3324.1 L 6311.7 -3306.0 L 6295.1 -3285.8 L 6271.2 -3250.5 L 6191.9 -3131.8 L 6064.8 -2950.3 L 6034.2 -2909.3 L 6015.5 -2891.2 L 5990.6 -2875.6 L 5963.6 -2860.6 L 5936.1 -2850.2 L 5902.9 -2839.9 L 5869.7 -2835.2 L 5800.7 -2826.9 L 5732.8 -2816.0 L 5639.4 -2804.6 L 5480.1 -2782.8 L 5315.2 -2760.0 L 5217.1 -2742.9 L 5169.4 -2737.7 L 5111.3 -2736.7 L 4978.0 -2738.8 L 4768.9 -2737.2 L 4413.6 -2736.2 L 4048.9 -2735.1 L 3663.5 -2733.0 L 3410.9 -2733.6 L 3374.0 -2731.0 L 3336.7 -2723.7 L 3287.9 -2704.5 L 3243.8 -2672.4 L 3131.8 -2600.3 L 2878.6 -2440.1 L 2838.7 -2409.0 L 2817.9 -2390.3 L 2805.0 -2363.8 L 2754.6 -2239.4 L 2663.3 -2024.7 L 2570.0 -1806.4 L 2559.1 -1792.4 L 2547.1 -1775.8 L 2526.4 -1752.0 L 2483.9 -1717.7 L 2285.2 -1534.1 L 2013.4 -1289.9 L 1686.5 -990.1 L 1372.2 -703.3 L 1342.8 -676.7 L 1083.3 -440.9 L 1025.7 -389.5 L 996.1 -357.4 L 956.7 -287.9 L 791.7 5.7 L 629.9 304.0 L 536.5 474.1 L 504.9 530.1 L 481.5 568.0 L 458.7 589.8 L 421.8 615.2 L 362.7 645.3 L 233.6 716.4 L 220.3 727.0 L 208.1 741.5 L 197.8 765.1 L 194.5 793.2 L 184.7 898.4 L 166.0 1099.5 L 164.0 1117.0 L 141.6 1309.2 L 138.3 1343.8 L 134.6 1382.0 L 125.5 1407.5 L 82.7 1494.4 L -7.4 1689.1 L -117.4 1908.1 L -237.7 2122.3 L -346.6 2342.2 L -369.3 2389.7 L -384.4 2421.6 L -403.3 2442.8 L -428.8 2460.5 L -448.9 2471.5 L -468.1 2478.2 L -489.7 2478.6 L -617.5 2478.6 L -784.6 2479.8 L -1029.1 2480.2 L -1053.9 2477.0 L -1097.5 2466.0 L -1353.9 2395.2 L -1631.3 2316.1 L -1674.6 2304.4 L -1705.3 2304.4 L -1731.3 2307.9 L -1758.4 2320.1 L -1789.8 2347.7 L -1804.0 2365.0 L -1924.7 2503.8 L -2079.6 2667.0 L -2092.6 2680.7 L -2107.5 2689.0 L -2140.9 2706.3 L -2185.7 2717.7 L -2258.1 2720.4 L -2295.4 2720.4 L -2330.0 2723.6 L -2363.4 2729.1 L -2399.2 2744.8 L -2431.4 2764.5 L -2456.2 2781.4 L -2499.8 2824.3 L -2598.9 2915.9 L -2631.9 2944.6 L -2652.8 2974.5 L -2752.2 3154.6 L -2878.8 3382.3 L -2945.3 3505.4 L -3009.0 3616.7 L -3098.2 3788.1 L -3156.0 3883.3 L -3176.8 3908.1 L -3202.4 3927.0 L -3239.3 3949.8 L -3369.9 4026.9 L -3649.8 4186.6 L -3976.1 4373.8 L -4311.0 4567.7 L -4656.6 4765.5 L -4975.0 4950.0 L -5185.7 5071.2 L -5218.4 5096.3 L -5242.4 5125.5 L -5273.4 5175.4 L -5467.9 5521.0 L -5595.9 5750.6 L -5611.4 5799.9 L -5776.1 6280.2 L -5807.1 6377.3 L -5945.0 6780.2 L -6022.4 6994.3 L -6039.3 7023.9 L -6281.4 7302.8 L -6980.9 8095.9 L -7733.9 8870.8 L -7890.1 9031.4 L -7919.7 9048.3 L -8979.5 9665.4 L -9261.0 9828.9 L -9290.5 9838.7 L -10606.5 9850.0 L -10948.5 9852.8 L -10980.9 9862.7 L -11013.3 9892.3 L -11453.8 10289.7 L -11484.8 10326.3 L -11514.3 10381.3 L -11688.8 10777.3 L -11877.4 11219.8 L -11977.4 11446.7 L -12021.0 11500.3 L -12073.1 11536.9 L -12510.8 11739.9 L -12562.9 11745.5 L -13573.4 11751.5 L -13745.2 11752.5 L -14039.3 11755.4 L -14091.4 11765.2 L -14119.5 11783.5 L -14406.1 12046.5 L -14463.0 12095.0 L -14481.3 12135.9 L -14475.6 12471.4 L -14474.9 12662.9 L -14470.3 12699.8 L -14463.0 12715.3 L -14352.8 12933.3 L -14328.0 12979.1 L -14229.1 13164.3 L -14185.3 13257.0 L -14178.7 13281.9 L -14230.7 13686.5 L -14275.8 14075.7 L -14309.5 14287.1 L -14332.1 14332.2 L -14363.0 14374.6 L -14851.4 14822.9 L -14897.9 14841.2 L -15555.1 15010.4 L -16655.8 15303.7 L -16899.3 15364.4 L -16933.1 15389.8 L -16957.0 15429.2 L -16978.1 15515.3 L -17010.0 15616.8 L -17025.7 15673.5 L -17060.3 15840.5 L -17115.4 16105.2 L -17190.9 16470.7 L -17212.9 16499.1 L -17277.3 16559.0 L -17601.3 16853.6 L -17722.4 16965.5 L -17746.0 16990.7 L -17761.7 17023.8 L -17988.1 17443.0 L -18046.3 17493.4 L -18158.0 17597.5 L -18225.6 17669.9 L -18242.9 17726.7 L -18238.2 18439.0 L -18236.6 18822.0 L -18238.2 19094.7 L -18246.0 19127.8 L -18271.2 19170.4 L -18546.4 19696.9 L -18654.9 19898.6 L -18722.5 20026.3 L -18768.1 20061.0 L -18912.8 20125.6 L -19678.6 20485.1 L -20052.9 20667.9 L -20071.8 20683.7 L -20211.7 20857.1 L -20505.8 21218.2 L -20527.8 21232.4" stroke="#6e6e6e" stroke-width="4.5" fill="none" stroke-linecap="round" stroke-linejoin="round" />
<path d="M 2721.3 337.8 L 2714.2 349.3 L 2531.0 646.9 L 2194.1 1291.4 L 2056.9 1492.5 L 2002.3 1628.3 L 1758.7 2086.5 L 1681.4 2194.3 L 1624.2 2245.0 L 1553.6 2266.3 L 1488.4 2266.3 L 1399.1 2246.3 L 1283.8 2217.1 L 1272.7 2214.3 L 1183.4 2225.0 L 1111.5 2262.3 L 977.0 2384.8 L 918.5 2472.7 L 902.5 2552.6 L 902.5 2628.5 L 951.7 2836.3 L 959.7 2926.9 L 975.7 3009.4 L 977.0 3084.0 L 961.1 3178.6 L 965.1 3261.2 L 999.7 3350.4 L 1051.6 3419.7 L 1158.1 3471.6 L 1391.2 3563.5 L 1556.3 3696.8 L 1618.9 3788.7 L 1680.1 3885.9 L 1726.7 3948.5 L 1741.4 4009.8 L 1728.0 4060.4 L 1674.8 4157.7 L 1625.5 4301.5 L 1630.8 4377.5 L 1668.1 4553.3 L 1676.1 4682.5 L 1749.3 4982.3 L 1772.0 5036.9 L 1785.3 5212.8 L 1830.6 5342.0 L 1839.9 5447.3 L 1915.8 5775.0 L 1921.1 5816.3 L 1913.1 5847.0 L 1867.8 5900.3 L 1855.9 5953.6 L 1847.9 6061.5 L 1855.9 6194.7 L 1881.2 6278.7 L 1918.4 6336.0 L 1983.7 6418.6 L 2013.0 6499.9 L 2011.7 6594.5 L 1991.7 6649.1 L 1983.5 6656.0 L 1782.6 6825.0 L 1729.4 6862.3 L 1669.5 6877.0 L 1592.2 6955.6 L 1456.4 7035.6 L 1287.3 7163.5 L 1194.1 7214.2 L 1120.9 7286.1 L 938.4 7419.4 L 850.5 7504.7 L 733.4 7669.9 L 664.1 7761.9 L 569.6 7828.5 L 428.5 7881.8 L 279.3 7960.5 L 95.6 8021.8 L 30.3 8031.1 L -56.2 8029.8 L -403.8 8007.1 L -499.6 8017.8 L -591.5 8048.4 L -676.7 8104.4 L -736.6 8161.7 L -783.3 8221.7 L -1315.9 8423.0 L -1406.4 8425.6 L -1497.0 8416.3 L -1590.2 8383.0 L -1700.7 8317.7 L -1828.5 8192.4 L -1895.1 8148.4 L -2040.2 8108.4 L -2186.7 8096.4 L -2301.2 8121.7 L -2386.4 8184.4 L -2455.7 8261.7 L -2606.1 8493.6 L -2676.7 8580.2 L -2757.9 8652.2 L -2937.7 8749.5 L -3158.7 8836.2 L -3712.6 9081.4 L -3856.4 9157.4 L -4290.5 9476.0 L -4499.6 9661.3 L -4598.1 9779.9 L -4624.7 9869.2 L -4603.4 9965.2 L -4540.9 10058.5 L -4446.3 10175.9 L -4373.1 10313.2 L -4350.5 10455.8 L -4402.4 10671.8 L -4398.4 10754.5 L -4331.8 11058.5 L -4271.9 11146.5 L -4141.4 11233.1 L -4082.8 11298.4 L -4057.5 11382.4 L -4044.2 11627.8 L -3953.7 11787.8 L -3929.7 11883.8 L -3956.3 12129.2 L -3969.6 12519.9 L -3961.6 12793.3 L -4022.9 13157.3 L -4084.1 13365.4 L -4200.0 13506.8 L -4353.1 13569.5 L -4478.3 13568.1 L -4602.1 13597.5 L -4668.7 13570.8 L -4703.3 13521.4 L -4756.6 13461.4 L -4872.4 13430.8 L -4964.3 13457.4 L -5196.0 13604.1 L -5390.4 13789.5 L -5479.6 13836.2 L -5538.2 13833.5 L -5582.1 13782.9 L -5656.7 13716.2 L -5741.9 13420.1 L -5759.2 13294.7 L -5848.4 13224.0 L -5932.3 13180.0 L -6101.4 13244.0 L -6211.9 13354.7 L -6355.8 13476.1 L -6351.8 13684.2 L -6204.0 13989.6 L -6077.5 14152.3 L -5869.7 14293.7 L -5817.8 14453.8 L -5844.4 14760.6 L -5904.4 14792.6 L -6125.4 14882.0 L -6429.0 14911.3 L -6532.8 14950.0 L -6659.3 14906.0 L -6757.9 14851.3 L -6828.4 14888.6 L -7040.2 15010.0 L -7313.1 15178.1 L -7405.0 15259.5 L -7414.3 15368.9 L -7347.7 15436.9 L -7386.4 15585.0 L -7387.7 15747.7 L -7265.2 15901.2 L -7209.3 16010.6 L -7261.2 16134.6 L -7433.0 16470.8 L -7476.2 16558.2 L -7608.7 16712.3 L -7651.6 16817.4 L -7738.9 16998.6 L -7787.6 17105.7" stroke="#6e6e6e" stroke-width="4.5" fill="none" stroke-linecap="round" stroke-linejoin="round" />
<path d="M 438.7 -1136.3 L 701.5 -921.5 L 805.1 -840.3 L 910.5 -803.3 L 1113.2 -759.5 L 1281.5 -708.9 L 1342.8 -676.7 L 1373.3 -619.9 L 1422.5 -535.1 L 1523.8 -303.7 L 1603.2 -121.7 L 1634.7 -42.3 L 1623.8 45.3 L 1567.6 176.7 L 1536.2 254.7 L 1473.2 338.2 L 1344.5 495.7 L 1203.5 672.3 L 1162.7 726.6 L 1158.3 732.5 L 1039.2 872.1 L 995.4 926.9 L 1003.6 959.8 L 1078.9 1148.7 L 1135.1 1307.5 L 1184.3 1471.8 L 1243.2 1677.2 L 1270.6 1760.7 L 1281.5 1916.8 L 1291.1 2015.3 L 1288.4 2081.1 L 1291.1 2141.3 L 1283.8 2217.1" stroke="#6e6e6e" stroke-width="4.5" fill="none" stroke-linecap="round" stroke-linejoin="round" />
      
      <path d="M 1816.9 867.9 L 1818.2 880.4 L 1817.5 886.8 L 1811.5 926.2" stroke="#000" stroke-width="1.1" fill="none" stroke-linecap="round" stroke-linejoin="round" stroke-opacity="0.75"/>
<path d="M 1750.6 873.7 L 1816.9 867.9 L 1853.8 864.7" stroke="#000" stroke-width="1.1" fill="none" stroke-linecap="round" stroke-linejoin="round" stroke-opacity="0.75"/>
<path d="M 1853.0 846.4 L 1853.6 858.6 L 1853.8 864.7 L 1854.1 874.4 L 1848.9 911.8" stroke="#000" stroke-width="1.1" fill="none" stroke-linecap="round" stroke-linejoin="round" stroke-opacity="0.75"/>
<path d="M 2058.4 791.6 L 2087.3 788.6 L 2107.7 786.8" stroke="#000" stroke-width="1.1" fill="none" stroke-linecap="round" stroke-linejoin="round" stroke-opacity="0.75"/>
<path d="M 2058.3 779.7 L 2086.9 776.2 L 2107.9 774.4" stroke="#000" stroke-width="1.1" fill="none" stroke-linecap="round" stroke-linejoin="round" stroke-opacity="0.75"/>
<path d="M 2086.4 761.7 L 2086.9 776.2 L 2087.3 788.6 L 2087.7 802.5 L 2087.4 813.9 L 2088.1 822.1" stroke="#000" stroke-width="1.1" fill="none" stroke-linecap="round" stroke-linejoin="round" stroke-opacity="0.75"/>
<path d="M 1954.1 797.8 L 1955.9 816.8" stroke="#000" stroke-width="1.1" fill="none" stroke-linecap="round" stroke-linejoin="round" stroke-opacity="0.75"/>
<path d="M 2108.1 761.4 L 2086.4 761.7 L 2061.2 764.7 L 2058.9 766.3 L 2058.1 768.9 L 2058.3 779.7 L 2058.4 791.6 L 2058.7 806.1 L 2059.2 816.7" stroke="#000" stroke-width="1.1" fill="none" stroke-linecap="round" stroke-linejoin="round" stroke-opacity="0.75"/>
<path d="M 1974.3 805.6 L 1973.1 803.8 L 1971.2 802.6 L 1954.1 797.8 L 1943.5 794.7 L 1940.5 795.6 L 1939.1 797.9 L 1940.3 814.2 L 1941.8 816.7 L 1945.3 817.4 L 1955.9 816.8 L 1976.0 815.5 L 2058.7 806.1 L 2087.7 802.5 L 2107.5 800.4" stroke="#000" stroke-width="1.1" fill="none" stroke-linecap="round" stroke-linejoin="round" stroke-opacity="0.75"/>
<path d="M 1977.0 827.3 L 1976.0 815.5 L 1974.3 805.6" stroke="#000" stroke-width="1.1" fill="none" stroke-linecap="round" stroke-linejoin="round" stroke-opacity="0.75"/>
      
      <path d="M 629.6 1014.3 L 693.1 998.4 L 863.2 959.7 L 867.5 958.4 L 942.4 946.3 L 988.9 941.9 L 1008.5 938.8 L 1085.3 926.5 L 1229.2 911.8 L 1338.4 897.9 L 1380.3 892.9 L 1393.4 891.3 L 1517.9 875.8 L 1556.2 865.9" stroke="#000" stroke-width="2" fill="none" stroke-linecap="round" stroke-linejoin="round" />
<path d="M 70.7 440.8 L 52.6 442.1" stroke="#000" stroke-width="2" fill="none" stroke-linecap="round" stroke-linejoin="round" />
<path d="M 357.6 859.0 L 371.2 858.5 L 439.8 855.9 L 469.3 853.6 L 556.3 851.1 L 559.4 851.0 L 660.7 846.7 L 753.3 842.0" stroke="#000" stroke-width="2" fill="none" stroke-linecap="round" stroke-linejoin="round" />
<path d="M -36.5 1883.0 L 88.9 1897.2 L 211.8 1903.6 L 227.2 1902.3 L 288.0 1871.0 L 300.8 1868.0 L 416.2 1868.7 L 511.4 1871.5 L 583.1 1870.6 L 716.5 1870.8 L 822.3 1864.8 L 959.1 1859.7 L 972.8 1858.0 L 985.4 1853.9 L 1035.6 1838.7 L 1078.5 1820.5 L 1124.5 1799.0 L 1202.3 1751.5 L 1242.0 1726.2 L 1246.4 1721.5 L 1249.9 1717.1" stroke="#000" stroke-width="2" fill="none" stroke-linecap="round" stroke-linejoin="round" />
<path d="M 362.9 1025.1 L 323.5 1113.9 L 302.4 1158.5 L 264.7 1238.5 L 220.4 1332.3 L -36.5 1883.0 L -59.5 1933.1 L -155.3 2141.3 L -186.7 2209.5 L -243.8 2328.4 L -262.8 2358.6 L -281.4 2384.8 L -331.0 2433.6" stroke="#000" stroke-width="2" fill="none" stroke-linecap="round" stroke-linejoin="round" />
<path d="M 1877.8 843.7 L 1877.5 854.4 L 1873.9 882.7 L 1859.8 968.4 L 1851.9 1023.1 L 1842.9 1098.2 L 1839.0 1126.9 L 1810.7 1205.9 L 1806.8 1219.3 L 1804.0 1254.3 L 1801.7 1299.1 L 1799.1 1331.7 L 1794.6 1375.2" stroke="#000" stroke-width="2" fill="none" stroke-linecap="round" stroke-linejoin="round" />
<path d="M -18.9 343.8 L -24.5 348.0 L -32.1 349.2 L -34.0 349.5 L -50.0 350.1 L -82.3 350.6 L -113.0 350.8 L -144.2 350.6 L -184.4 352.3 L -250.3 352.5 L -311.1 353.0 L -373.2 353.6 L -443.6 354.8 L -531.3 355.9 L -600.4 355.8 L -701.7 358.2 L -725.4 359.1 L -750.9 358.5 L -767.1 357.5 L -854.0 358.8 L -871.4 358.4 L -987.3 357.8 L -1022.4 358.9 L -1056.7 360.3 L -1073.0 360.1" stroke="#000" stroke-width="2" fill="none" stroke-linecap="round" stroke-linejoin="round" />
<path d="M 598.3 1113.4 L 579.5 1035.7" stroke="#000" stroke-width="2" fill="none" stroke-linecap="round" stroke-linejoin="round" />
<path d="M 323.5 1113.9 L 339.7 1120.8 L 370.4 1125.3 L 402.7 1125.9 L 453.1 1128.3 L 503.4 1129.6 L 528.7 1131.5 L 550.9 1130.5 L 578.7 1123.6 L 598.3 1113.4" stroke="#000" stroke-width="2" fill="none" stroke-linecap="round" stroke-linejoin="round" />
<path d="M 1249.9 1717.1 L 1259.7 1708.5" stroke="#000" stroke-width="2" fill="none" stroke-linecap="round" stroke-linejoin="round" />
<path d="M 1259.7 1708.5 L 1262.5 1704.6 L 1290.4 1665.6 L 1327.9 1602.8 L 1356.0 1555.6 L 1358.8 1551.1 L 1404.1 1479.0 L 1410.6 1468.4 L 1429.0 1438.4 L 1447.2 1408.9 L 1453.7 1398.2 L 1459.2 1373.7 L 1473.9 1283.9" stroke="#000" stroke-width="2" fill="none" stroke-linecap="round" stroke-linejoin="round" />
<path d="M 506.6 1694.5 L 497.5 1690.5 L 463.5 1690.2 L 456.8 1686.6" stroke="#000" stroke-width="2" fill="none" stroke-linecap="round" stroke-linejoin="round" />
<path d="M 456.8 1686.6 L 453.9 1675.4 L 454.2 1614.8 L 454.3 1605.4 L 455.6 1535.8 L 452.3 1472.3 L 448.6 1392.3" stroke="#000" stroke-width="2" fill="none" stroke-linecap="round" stroke-linejoin="round" />
<path d="M 448.6 1392.3 L 436.2 1391.9 L 419.3 1393.9 L 405.7 1394.5" stroke="#000" stroke-width="2" fill="none" stroke-linecap="round" stroke-linejoin="round" />
<path d="M 405.7 1394.5 L 401.6 1392.9 L 401.0 1378.4 L 401.0 1371.2 L 401.0 1347.7 L 404.9 1343.8" stroke="#000" stroke-width="2" fill="none" stroke-linecap="round" stroke-linejoin="round" />
<path d="M 404.9 1343.8 L 408.9 1343.0 L 438.3 1341.2 L 442.1 1338.7" stroke="#000" stroke-width="2" fill="none" stroke-linecap="round" stroke-linejoin="round" />
<path d="M 442.1 1338.7 L 441.1 1325.3 L 440.9 1290.3" stroke="#000" stroke-width="2" fill="none" stroke-linecap="round" stroke-linejoin="round" />
<path d="M 440.9 1290.3 L 436.0 1287.2 L 429.3 1286.4 L 418.7 1286.2 L 410.4 1282.8 L 404.5 1278.5 L 401.8 1274.4" stroke="#000" stroke-width="2" fill="none" stroke-linecap="round" stroke-linejoin="round" />
<path d="M 401.8 1274.4 L 401.0 1240.8 L 402.0 1159.6 L 402.7 1125.9" stroke="#000" stroke-width="2" fill="none" stroke-linecap="round" stroke-linejoin="round" />
<path d="M 511.4 1871.5 L 507.2 1802.7 L 508.1 1710.6 L 506.6 1694.5" stroke="#000" stroke-width="2" fill="none" stroke-linecap="round" stroke-linejoin="round" />
<path d="M 453.1 1128.3 L 452.9 1171.4 L 453.1 1222.9 L 452.6 1278.1 L 452.6 1300.4" stroke="#000" stroke-width="2" fill="none" stroke-linecap="round" stroke-linejoin="round" />
<path d="M 658.9 1045.8 L 653.8 1069.7 L 656.6 1106.2 L 659.1 1143.0 L 659.6 1177.2 L 661.6 1216.4 L 661.0 1236.0 L 660.4 1255.7 L 660.7 1289.1 L 661.3 1330.9 L 661.9 1401.4 L 660.7 1431.6" stroke="#000" stroke-width="2" fill="none" stroke-linecap="round" stroke-linejoin="round" />
<path d="M 584.0 1431.8 L 660.7 1431.6" stroke="#000" stroke-width="2" fill="none" stroke-linecap="round" stroke-linejoin="round" />
<path d="M 578.7 1123.6 L 582.6 1149.2 L 584.0 1180.6 L 583.0 1205.6 L 582.6 1258.1 L 582.6 1328.6 L 583.8 1381.3 L 584.0 1431.8" stroke="#000" stroke-width="2" fill="none" stroke-linecap="round" stroke-linejoin="round" />
<path d="M 503.4 1129.6 L 504.8 1208.8 L 504.0 1248.6 L 504.9 1308.6 L 505.6 1368.8 L 505.1 1427.7 L 505.8 1446.7" stroke="#000" stroke-width="2" fill="none" stroke-linecap="round" stroke-linejoin="round" />
<path d="M 2435.1 -3924.7 L 2431.1 -3903.2 L 2418.7 -3869.5 L 2410.2 -3852.8 L 2405.8 -3844.2 L 2391.7 -3829.0 L 2372.6 -3810.5 L 2348.4 -3789.1 L 2328.2 -3768.9 L 2310.2 -3745.3 L 2296.7 -3723.4 L 2292.2 -3710.5 L 2290.0 -3696.4 L 2287.2 -3675.1 L 2282.7 -3658.8 L 2272.5 -3643.1 L 2252.3 -3624.0 L 2215.8 -3587.4 L 2183.7 -3554.9 L 2152.8 -3521.1 L 2132.0 -3491.9 L 2109.0 -3454.3 L 2048.3 -3367.8 L 1979.7 -3272.3 L 1941.5 -3208.2 L 1905.5 -3145.3 L 1855.4 -3046.4 L 1808.8 -2954.8 L 1789.1 -2914.9 L 1764.9 -2863.2 L 1752.0 -2805.9 L 1745.3 -2757.6 L 1728.4 -2713.2 L 1708.2 -2658.1 L 1654.2 -2532.8 L 1617.7 -2472.7 L 1586.2 -2428.3 L 1508.1 -2309.2 L 1418.1 -2160.8 L 1371.5 -2083.9 L 1340.0 -2023.7 L 1318.1 -1970.3 L 1261.3 -1846.2 L 1229.8 -1777.6 L 1166.8 -1631.5 L 1119.6 -1510.7 L 1059.5 -1369.1 L 1026.9 -1287.0 L 969.5 -1160.6 L 910.5 -1033.0 L 847.0 -882.9 L 829.0 -841.9 L 821.6 -824.1 L 804.8 -749.7 L 788.5 -696.6 L 741.8 -539.5 L 739.9 -516.5 L 720.5 -444.0 L 687.3 -367.0 L 684.5 -355.8 L 651.4 -287.2 L 632.3 -248.9 L 617.1 -188.8 L 586.7 -76.4 L 542.9 78.2 L 525.3 147.7 L 501.3 236.7 L 491.9 287.2 L 490.6 294.0 L 477.9 370.4 L 463.1 447.5 L 457.1 493.6" stroke="#000" stroke-width="2" fill="none" stroke-linecap="round" stroke-linejoin="round" />
<path d="M 2486.2 785.9 L 2395.9 967.7 L 2326.9 1089.6 L 2243.7 1223.4 L 2188.9 1318.2 L 2154.8 1379.7 L 2126.6 1418.7 L 2103.3 1447.8 L 2090.5 1463.7 L 2072.5 1527.6 L 2044.3 1580.0 L 1997.7 1673.9 L 1946.2 1765.3 L 1874.7 1891.7 L 1814.1 2003.1 L 1765.0 2093.7 L 1726.0 2164.3 L 1700.2 2203.4 L 1684.4 2216.7 L 1655.3 2238.3 L 1618.8 2257.4 L 1568.1 2275.7 L 1529.0 2283.2 L 1455.9 2277.4 L 1368.6 2252.5 L 1288.8 2234.2 L 1222.3 2235.0 L 1170.0 2252.5 L 1104.3 2292.4 L 1052.8 2338.9 L 1001.2 2383.0 L 953.0 2444.5 L 929.8 2503.5 L 920.6 2564.2 L 924.0 2624.9 L 944.7 2727.1 L 960.5 2786.2 L 977.1 2895.1 L 988.8 2979.9 L 994.6 3066.3 L 983.8 3137.8 L 982.1 3195.2 L 982.1 3228.4 L 985.5 3282.5 L 1024.5 3367.3 L 1076.0 3418.0 L 1131.7 3443.8 L 1199.9 3464.5 L 1279.7 3491.1 L 1371.9 3532.7 L 1418.5 3558.5 L 1480.0 3600.1 L 1536.5 3644.1 L 1587.2 3703.2 L 1620.4 3758.9 L 1654.5 3817.9 L 1680.3 3863.6 L 1710.2 3896.0 L 1739.3 3936.8 L 1751.7 3975.0 L 1752.6 4018.3 L 1743.4 4070.6 L 1726.8 4103.9 L 1703.5 4139.7 L 1686.9 4174.6 L 1670.3 4221.1 L 1652.0 4266.9 L 1647.0 4292.7 L 1643.7 4316.8 L 1647.8 4345.0 L 1658.6 4406.6 L 1671.1 4465.6 L 1677.8 4521.3 L 1682.7 4573.7 L 1688.8 4638.7" stroke="#000" stroke-width="2" fill="none" stroke-linecap="round" stroke-linejoin="round" />
<path d="M 739.9 -516.5 L 877.6 -509.1 L 966.2 -504.4 L 984.3 -504.1 L 995.8 -503.2 L 1000.2 -501.6 L 1004.9 -497.9 L 1005.8 -491.3 L 1004.2 -431.7 L 1005.4 -427.8 L 1011.1 -423.5 L 1028.8 -413.7 L 1035.7 -409.8" stroke="#000" stroke-width="2" fill="none" stroke-linecap="round" stroke-linejoin="round" />
<path d="M 18.2 -794.9 L 21.2 -765.7 L 21.0 -760.2 L 19.3 -758.8 L 14.4 -754.9 L 14.2 -750.4 L 14.9 -746.0 L 16.5 -738.6 L 15.9 -728.9 L 14.7 -722.4 L 9.6 -715.2 L 4.5 -707.5 L 0.2 -695.1 L -3.1 -684.1 L -2.2 -675.7 L 3.7 -669.6 L 7.3 -664.5 L 6.8 -624.9 L 5.9 -551.3 L 5.5 -400.3 L 3.9 -297.3 L 5.4 -284.6 L 5.6 -272.7 L 12.3 -253.1 L 12.5 -236.0 L 12.6 -215.2 L 16.9 -0.9 L 16.7 25.1 L 16.3 73.2 L 16.1 97.7" stroke="#000" stroke-width="2" fill="none" stroke-linecap="round" stroke-linejoin="round" />
<path d="M 741.8 -539.5 L 692.3 -557.2 L 682.9 -564.2 L 664.8 -569.7 L 651.8 -576.0 L 601.1 -591.6 L 590.7 -595.3 L 524.1 -631.8 L 506.0 -640.5 L 471.0 -651.9 L 348.7 -694.7 L 287.0 -716.0 L 237.9 -734.4 L 219.8 -740.3 L 195.0 -754.5 L 168.3 -771.0 L 136.0 -782.0 L 112.0 -789.5 L 85.3 -793.8 L 37.0 -796.5 L 18.2 -794.9 L 2.0 -793.4 L -38.1 -791.4 L -42.1 -791.4 L -43.4 -794.8 L -44.2 -799.5 L -45.9 -966.8 L -46.0 -977.1" stroke="#000" stroke-width="2" fill="none" stroke-linecap="round" stroke-linejoin="round" />
<path d="M 1578.9 996.5 L 1614.6 1001.1 L 1664.6 1007.3" stroke="#000" stroke-width="2" fill="none" stroke-linecap="round" stroke-linejoin="round" />
<path d="M 1609.0 1030.7 L 1610.5 1028.2 L 1614.6 1001.1 L 1619.5 968.5" stroke="#000" stroke-width="2" fill="none" stroke-linecap="round" stroke-linejoin="round" />
<path d="M 1575.1 1024.6 L 1576.5 1026.3 L 1606.3 1031.0 L 1609.0 1030.7" stroke="#000" stroke-width="2" fill="none" stroke-linecap="round" stroke-linejoin="round" />
<path d="M 1586.2 964.6 L 1583.4 967.8 L 1578.9 996.5 L 1574.9 1021.2 L 1575.1 1024.6" stroke="#000" stroke-width="2" fill="none" stroke-linecap="round" stroke-linejoin="round" />
<path d="M 1669.0 974.9 L 1619.5 968.5 L 1591.4 964.8 L 1586.2 964.6" stroke="#000" stroke-width="2" fill="none" stroke-linecap="round" stroke-linejoin="round" />
<path d="M 1683.9 862.6 L 1669.0 974.9 L 1664.6 1007.3 L 1645.9 1148.6" stroke="#000" stroke-width="2" fill="none" stroke-linecap="round" stroke-linejoin="round" />
<path d="M 1338.4 897.9 L 1332.3 955.2 L 1331.2 964.3" stroke="#000" stroke-width="2" fill="none" stroke-linecap="round" stroke-linejoin="round" />
<path d="M 1377.5 972.0 L 1378.7 975.8 L 1374.4 1012.3 L 1371.0 1041.8 L 1358.4 1135.9" stroke="#000" stroke-width="2" fill="none" stroke-linecap="round" stroke-linejoin="round" />
<path d="M 1331.2 964.3 L 1335.8 964.9 L 1374.8 969.9 L 1377.5 972.0" stroke="#000" stroke-width="2" fill="none" stroke-linecap="round" stroke-linejoin="round" />
<path d="M 1430.9 978.4 L 1427.7 977.0 L 1410.3 974.5 L 1406.9 972.2" stroke="#000" stroke-width="2" fill="none" stroke-linecap="round" stroke-linejoin="round" />
<path d="M 1406.9 972.2 L 1406.1 967.7 L 1407.8 950.7 L 1406.6 948.0" stroke="#000" stroke-width="2" fill="none" stroke-linecap="round" stroke-linejoin="round" />
<path d="M 1406.6 948.0 L 1403.3 946.1 L 1391.0 944.4 L 1388.8 942.4" stroke="#000" stroke-width="2" fill="none" stroke-linecap="round" stroke-linejoin="round" />
<path d="M 1388.8 942.4 L 1388.2 939.3 L 1393.4 891.3" stroke="#000" stroke-width="2" fill="none" stroke-linecap="round" stroke-linejoin="round" />
<path d="M 1508.1 1156.4 L 1434.9 1145.4 L 1413.6 1142.6 L 1409.2 1141.8 L 1410.6 1130.5 L 1423.0 1044.1 L 1431.9 981.4 L 1430.9 978.4" stroke="#000" stroke-width="2" fill="none" stroke-linecap="round" stroke-linejoin="round" />
<path d="M 1417.0 1267.3 L 1424.5 1216.2 L 1434.9 1145.4" stroke="#000" stroke-width="2" fill="none" stroke-linecap="round" stroke-linejoin="round" />
<path d="M 1134.7 1272.2 L 1180.8 1277.9 L 1311.4 1294.5" stroke="#000" stroke-width="2" fill="none" stroke-linecap="round" stroke-linejoin="round" />
<path d="M 1169.6 1375.5 L 1173.9 1338.1 L 1177.0 1310.2 L 1180.8 1277.9 L 1189.3 1200.9" stroke="#000" stroke-width="2" fill="none" stroke-linecap="round" stroke-linejoin="round" />
<path d="M 1447.2 1408.9 L 1297.0 1391.1 L 1169.6 1375.5 L 1164.9 1375.0" stroke="#000" stroke-width="2" fill="none" stroke-linecap="round" stroke-linejoin="round" />
<path d="M 1414.2 1313.0 L 1311.4 1294.5" stroke="#000" stroke-width="2" fill="none" stroke-linecap="round" stroke-linejoin="round" />
<path d="M 1306.6 1326.8 L 1386.8 1338.1 L 1405.5 1341.0 L 1408.0 1340.4 L 1410.0 1337.9 L 1414.2 1313.0 L 1421.7 1268.7" stroke="#000" stroke-width="2" fill="none" stroke-linecap="round" stroke-linejoin="round" />
<path d="M 1429.0 1438.4 L 1294.7 1422.2 L 1173.5 1408.2" stroke="#000" stroke-width="2" fill="none" stroke-linecap="round" stroke-linejoin="round" />
<path d="M 1292.5 1452.8 L 1410.6 1468.4" stroke="#000" stroke-width="2" fill="none" stroke-linecap="round" stroke-linejoin="round" />
<path d="M 1291.4 1542.1 L 1358.8 1551.1" stroke="#000" stroke-width="2" fill="none" stroke-linecap="round" stroke-linejoin="round" />
<path d="M 1319.7 1238.9 L 1311.4 1294.5 L 1306.6 1326.8 L 1302.5 1353.8 L 1297.0 1391.1 L 1294.7 1422.2 L 1292.5 1452.8 L 1288.7 1505.2 L 1291.8 1539.8 L 1291.4 1542.1 L 1271.8 1644.4 L 1269.6 1647.5 L 1265.5 1648.5 L 1243.1 1645.1" stroke="#000" stroke-width="2" fill="none" stroke-linecap="round" stroke-linejoin="round" />
<path d="M 1642.6 1919.2 L 1754.8 1927.8" stroke="#000" stroke-width="2" fill="none" stroke-linecap="round" stroke-linejoin="round" />
<path d="M 1618.3 1843.3 L 1694.2 1853.7 L 1696.0 1853.1 L 1697.2 1851.9 L 1699.4 1824.7" stroke="#000" stroke-width="2" fill="none" stroke-linecap="round" stroke-linejoin="round" />
<path d="M 1605.9 1811.6 L 1699.4 1824.7 L 1717.0 1827.2" stroke="#000" stroke-width="2" fill="none" stroke-linecap="round" stroke-linejoin="round" />
<path d="M 1584.0 1747.5 L 1631.7 1753.3" stroke="#000" stroke-width="2" fill="none" stroke-linecap="round" stroke-linejoin="round" />
<path d="M 1571.3 1715.2 L 1636.4 1722.4" stroke="#000" stroke-width="2" fill="none" stroke-linecap="round" stroke-linejoin="round" />
<path d="M 1451.6 1459.1 L 1499.7 1465.1" stroke="#000" stroke-width="2" fill="none" stroke-linecap="round" stroke-linejoin="round" />
<path d="M 1453.7 1398.2 L 1457.6 1405.7 L 1451.6 1459.1 L 1447.8 1492.5 L 1446.2 1506.2 L 1446.7 1509.2 L 1449.7 1513.9 L 1498.6 1583.6 L 1538.1 1655.6 L 1553.1 1682.6 L 1571.3 1715.2 L 1573.8 1719.7 L 1584.0 1747.5 L 1588.9 1760.9 L 1604.1 1806.9 L 1605.9 1811.6 L 1618.3 1843.3 L 1621.0 1850.3 L 1642.6 1919.2 L 1643.6 1922.4 L 1656.1 1974.1 L 1665.7 2026.3 L 1666.5 2086.3 L 1672.7 2139.1 L 1675.1 2144.8 L 1679.6 2165.3" stroke="#000" stroke-width="2" fill="none" stroke-linecap="round" stroke-linejoin="round" />
<path d="M 1589.1 1590.9 L 1586.3 1591.9 L 1571.7 1589.8 L 1514.9 1581.6 L 1511.0 1581.4 L 1498.6 1583.6" stroke="#000" stroke-width="2" fill="none" stroke-linecap="round" stroke-linejoin="round" />
<path d="M 1611.2 1433.9 L 1654.9 1439.3" stroke="#000" stroke-width="2" fill="none" stroke-linecap="round" stroke-linejoin="round" />
<path d="M 1675.4 1341.3 L 1668.5 1385.2 L 1670.2 1395.7 L 1663.0 1457.4" stroke="#000" stroke-width="2" fill="none" stroke-linecap="round" stroke-linejoin="round" />
<path d="M 1625.6 1327.1 L 1613.6 1430.4 L 1611.2 1433.9 L 1609.9 1435.7 L 1598.7 1518.7 L 1590.0 1587.9 L 1589.1 1590.9" stroke="#000" stroke-width="2" fill="none" stroke-linecap="round" stroke-linejoin="round" />
<path d="M 166.6 1010.4 L 178.5 886.3 L 188.9 772.6 L 193.4 756.0 L 200.6 741.6 L 210.9 727.7 L 224.8 714.7 L 240.9 698.7 L 315.0 662.7 L 401.4 617.8 L 428.0 601.7 L 452.2 589.1 L 468.8 573.2 L 483.6 556.4 L 500.0 526.9 L 511.5 503.1 L 516.4 494.1" stroke="#000" stroke-width="2" fill="none" stroke-linecap="round" stroke-linejoin="round" />
<path d="M 779.3 804.6 L 867.5 958.4" stroke="#000" stroke-width="2" fill="none" stroke-linecap="round" stroke-linejoin="round" />
<path d="M 1174.9 697.9 L 1170.3 704.6 L 1079.0 815.3 L 1011.3 895.3 L 992.5 920.3 L 988.1 931.8 L 988.9 941.9 L 1004.1 979.7 L 1015.6 1008.3 L 1074.5 1167.5 L 1108.9 1260.9 L 1116.0 1281.8 L 1122.9 1303.9 L 1129.6 1325.5 L 1137.8 1351.9 L 1173.7 1478.6 L 1228.1 1661.9 L 1234.4 1683.5 L 1246.4 1721.5 L 1250.4 1741.7 L 1258.9 1784.3 L 1269.0 1869.1 L 1276.5 1945.7 L 1280.1 2010.0 L 1278.5 2096.7" stroke="#000" stroke-width="2" fill="none" stroke-linecap="round" stroke-linejoin="round" />
<path d="M 1679.6 2165.3 L 1670.9 2177.3 L 1634.0 2213.5 L 1602.4 2226.4 L 1586.2 2235.6 L 1555.2 2245.4 L 1525.8 2247.6 L 1505.4 2247.9 L 1479.7 2243.1 L 1442.4 2232.2 L 1416.4 2228.9 L 1354.1 2215.4 L 1302.3 2198.5 L 1299.1 2194.0 L 1296.8 2187.0 L 1298.1 2156.9 L 1299.8 2146.4 L 1302.3 2134.4 L 1303.0 2104.3 L 1300.8 2012.0 L 1295.8 1939.8 L 1275.6 1760.3 L 1266.2 1723.4 L 1262.5 1704.6 L 1243.1 1645.1 L 1203.8 1507.5 L 1197.9 1486.9 L 1173.5 1408.2 L 1164.9 1375.0 L 1153.3 1335.5 L 1144.6 1305.9 L 1134.7 1272.2 L 1097.2 1174.1 L 1059.5 1073.6 L 1046.5 1038.4 L 1026.9 985.3 L 1008.5 938.8 L 1005.6 929.8 L 1005.6 925.9 L 1076.8 843.0 L 1184.3 711.7" stroke="#000" stroke-width="2" fill="none" stroke-linecap="round" stroke-linejoin="round" />
<path d="M 716.5 1870.8 L 721.1 2101.2 L 723.4 2173.8" stroke="#000" stroke-width="2" fill="none" stroke-linecap="round" stroke-linejoin="round" />
<path d="M 822.3 1864.8 L 821.1 1786.3 L 821.8 1784.1 L 823.4 1781.4 L 827.6 1779.6 L 840.6 1776.8 L 842.8 1774.8 L 844.0 1772.3 L 845.3 1767.9 L 846.3 1720.0" stroke="#000" stroke-width="2" fill="none" stroke-linecap="round" stroke-linejoin="round" />
<path d="M 546.4 2104.5 L 542.8 2072.2 L 541.7 2063.0 L 540.9 2059.7 L 538.9 2058.1 L 536.5 2057.3 L 514.7 2057.1 L 512.6 2055.9 L 511.8 2054.5 L 510.6 2050.8 L 511.4 1871.5" stroke="#000" stroke-width="2" fill="none" stroke-linecap="round" stroke-linejoin="round" />
<path d="M 417.0 1799.0 L 416.2 1868.7" stroke="#000" stroke-width="2" fill="none" stroke-linecap="round" stroke-linejoin="round" />
<path d="M 6.2 164.6 L 69.2 163.9 L 165.1 162.7" stroke="#000" stroke-width="2" fill="none" stroke-linecap="round" stroke-linejoin="round" />
<path d="M 16.1 97.7 L -58.5 95.3 L -105.0 93.8 L -133.3 93.6" stroke="#000" stroke-width="2" fill="none" stroke-linecap="round" stroke-linejoin="round" />
<path d="M 16.1 97.7 L 16.5 113.5 L 12.2 122.9 L 7.5 127.2 L 5.5 136.2 L 6.2 164.6 L 8.6 263.6 L 13.4 298.2 L 13.6 301.7 L 14.9 322.6 L 12.7 372.6" stroke="#000" stroke-width="2" fill="none" stroke-linecap="round" stroke-linejoin="round" />
<path d="M 614.2 94.1 L 542.9 78.2" stroke="#000" stroke-width="2" fill="none" stroke-linecap="round" stroke-linejoin="round" />
<path d="M 525.3 147.7 L 611.4 148.5 L 614.1 146.8 L 614.6 144.3 L 614.2 94.1 L 614.1 79.9" stroke="#000" stroke-width="2" fill="none" stroke-linecap="round" stroke-linejoin="round" />
<path d="M 566.3 398.7 L 483.8 372.7 L 477.9 370.4" stroke="#000" stroke-width="2" fill="none" stroke-linecap="round" stroke-linejoin="round" />
<path d="M 821.6 -824.1 L 838.2 -818.7 L 892.0 -802.3 L 939.8 -791.0 L 1002.4 -778.3 L 1059.4 -766.9 L 1101.0 -755.3 L 1154.0 -739.7 L 1221.6 -720.1 L 1287.0 -699.3 L 1317.0 -685.5 L 1319.4 -679.5 L 1318.4 -672.6 L 1264.0 -620.1 L 1195.4 -553.0 L 1035.7 -409.8 L 1017.1 -393.6 L 1008.1 -383.6 L 989.6 -358.6 L 970.0 -331.1 L 949.8 -293.1 L 935.9 -267.4 L 916.7 -229.8 L 788.2 3.4 L 743.7 80.2 L 650.4 250.3 L 566.3 398.7 L 516.4 494.1" stroke="#000" stroke-width="2" fill="none" stroke-linecap="round" stroke-linejoin="round" />
<path d="M 970.0 -331.1 L 934.0 -348.6 L 906.6 -356.3 L 866.7 -356.3 L 684.5 -355.8 L 523.8 -355.6 L 358.0 -351.7 L 228.7 -352.9 L 209.4 -349.7 L 191.6 -340.5 L 12.6 -215.2 L -46.6 -176.1 L -66.7 -164.0 L -131.1 -119.2 L -252.0 -35.9 L -272.2 -24.6" stroke="#000" stroke-width="2" fill="none" stroke-linecap="round" stroke-linejoin="round" />
<path d="M 699.9 498.6 L 698.9 507.1" stroke="#000" stroke-width="2" fill="none" stroke-linecap="round" stroke-linejoin="round" />
<path d="M 606.2 496.2 L 606.4 503.8" stroke="#000" stroke-width="2" fill="none" stroke-linecap="round" stroke-linejoin="round" />
<path d="M 266.2 487.9 L 265.6 495.6" stroke="#000" stroke-width="2" fill="none" stroke-linecap="round" stroke-linejoin="round" />
<path d="M 1036.9 -407.0 L 1039.8 -394.2" stroke="#000" stroke-width="2" fill="none" stroke-linecap="round" stroke-linejoin="round" />
<path d="M 1035.7 -409.8 L 1036.9 -407.0" stroke="#000" stroke-width="2" fill="none" stroke-linecap="round" stroke-linejoin="round" />
<path d="M 1039.8 -394.2 L 1040.7 -389.7 L 1040.5 -388.0 L 1038.6 -385.6 L 1010.6 -360.3 L 997.4 -341.1 L 980.2 -310.3 L 936.6 -230.5 L 852.8 -79.8 L 674.4 242.7 L 536.8 488.3 L 533.2 494.6" stroke="#000" stroke-width="2" fill="none" stroke-linecap="round" stroke-linejoin="round" />
<path d="M 893.7 565.4 L 811.7 654.4 L 796.4 671.5 L 843.1 714.5" stroke="#000" stroke-width="2" fill="none" stroke-linecap="round" stroke-linejoin="round" />
<path d="M 518.4 723.3 L 499.8 727.8 L 498.7 728.6 L 498.2 729.6 L 494.6 748.2 L 492.7 762.4 L 492.3 768.8 L 491.5 771.7 L 470.0 840.2 L 468.9 846.1 L 469.3 853.6" stroke="#000" stroke-width="2" fill="none" stroke-linecap="round" stroke-linejoin="round" />
<path d="M 562.5 790.8 L 557.3 785.8 L 551.2 771.1 L 545.7 747.7 L 538.7 738.9 L 518.4 723.3 L 528.1 710.2 L 528.6 708.2" stroke="#000" stroke-width="2" fill="none" stroke-linecap="round" stroke-linejoin="round" />
<path d="M 770.9 505.2 L 766.0 513.4 L 722.0 579.4 L 676.8 651.0 L 626.6 712.5 L 562.5 790.8 L 561.4 796.9 L 560.8 807.4 L 559.4 851.0" stroke="#000" stroke-width="2" fill="none" stroke-linecap="round" stroke-linejoin="round" />
<path d="M 425.6 626.6 L 419.0 660.4 L 391.6 773.9 L 376.6 815.2 L 372.7 846.2 L 371.2 858.5" stroke="#000" stroke-width="2" fill="none" stroke-linecap="round" stroke-linejoin="round" />
<path d="M 505.7 553.8 L 508.0 556.9 L 509.9 560.9 L 512.9 574.0 L 516.8 610.6 L 528.6 708.2" stroke="#000" stroke-width="2" fill="none" stroke-linecap="round" stroke-linejoin="round" />
<path d="M -32.1 349.2 L -32.5 533.6 L -33.0 536.6 L -34.7 537.4 L -129.9 540.7 L -130.4 540.8 L -130.7 541.2 L -130.5 565.6 L -130.1 633.9" stroke="#000" stroke-width="2" fill="none" stroke-linecap="round" stroke-linejoin="round" />
<path d="M 209.2 649.0 L 202.9 653.2 L 57.5 658.8" stroke="#000" stroke-width="2" fill="none" stroke-linecap="round" stroke-linejoin="round" />
<path d="M 1284.8 93.2 L 1423.1 110.2" stroke="#000" stroke-width="2" fill="none" stroke-linecap="round" stroke-linejoin="round" />
<path d="M 809.8 519.0 L 807.3 386.7 L 808.0 385.6 L 809.2 385.2 L 829.9 385.1 L 911.9 385.0 L 916.2 383.4 L 917.4 380.1 L 916.0 198.1 L 917.0 195.1 L 919.2 193.8 L 1177.3 198.2 L 1182.1 199.0 L 1187.1 203.1 L 1196.7 215.0" stroke="#000" stroke-width="2" fill="none" stroke-linecap="round" stroke-linejoin="round" />
<path d="M 2055.2 1449.3 L 2045.7 1465.0 L 2028.8 1489.1 L 2018.5 1506.3 L 2011.8 1524.0 L 2008.6 1543.7 L 2005.3 1572.1 L 2001.6 1581.1 L 1974.9 1636.9 L 1868.8 1821.4 L 1804.5 1942.8 L 1766.3 2013.8 L 1736.4 2063.4 L 1731.0 2072.9 L 1723.2 2092.8 L 1712.8 2115.0 L 1696.4 2138.1 L 1686.3 2152.9 L 1675.1 2144.8" stroke="#000" stroke-width="2" fill="none" stroke-linecap="round" stroke-linejoin="round" />
<path d="M 1363.7 793.7 L 1374.6 728.9 L 1412.8 734.2 L 1401.6 812.7" stroke="#000" stroke-width="2" fill="none" stroke-linecap="round" stroke-linejoin="round" />
<path d="M 2490.7 777.0 L 2514.0 731.0 L 2548.6 665.3 L 2610.7 557.2 L 2739.3 355.2 L 2741.3 352.0 L 2745.2 346.0 L 2800.2 259.9 L 2852.8 174.8 L 2863.3 167.9 L 2871.8 156.6 L 2893.4 122.8 L 2905.9 99.1 L 2918.1 76.7 L 2937.3 39.3 L 2970.1 -6.0 L 2973.7 -24.9 L 2977.3 -31.5 L 2987.8 -41.6 L 2994.1 -47.7 L 2998.0 -57.0 L 3003.6 -69.4 L 3055.6 -152.9 L 3177.4 -351.9 L 3258.3 -483.6 L 3282.3 -519.4 L 3292.4 -536.4 L 3306.2 -563.7 L 3319.9 -590.6 L 3340.0 -651.5 L 3375.8 -780.8 L 3392.9 -844.1 L 3396.0 -859.4 L 3394.6 -875.0 L 3394.4 -888.2 L 3394.8 -910.0 L 3405.7 -960.4 L 3423.9 -1068.0 L 3443.9 -1191.3 L 3458.0 -1276.0 L 3458.0 -1285.5 L 3457.4 -1301.1 L 3455.2 -1334.4 L 3446.4 -1383.7 L 3437.0 -1416.0 L 3413.8 -1472.2 L 3406.3 -1492.2 L 3397.6 -1536.9 L 3381.2 -1627.6 L 3382.0 -1635.1 L 3382.4 -1647.2 L 3387.1 -1676.5 L 3405.1 -1738.2 L 3437.6 -1840.8 L 3446.5 -1869.1 L 3459.9 -1895.8 L 3478.5 -1927.8 L 3518.5 -1983.6 L 3550.7 -2015.4 L 3608.7 -2064.6 L 3624.7 -2075.1 L 3635.4 -2079.7 L 3643.9 -2087.4 L 3667.2 -2098.6 L 3738.0 -2115.1 L 3787.3 -2128.9 L 3826.6 -2137.8 L 3848.4 -2140.4 L 3885.6 -2137.8 L 3943.1 -2125.5 L 4054.3 -2101.6 L 4163.7 -2074.9 L 4255.7 -2052.6 L 4269.9 -2047.6 L 4279.6 -2045.3 L 4295.6 -2041.3 L 4304.9 -2041.7 L 4366.0 -2036.8 L 4383.4 -2034.1 L 4386.4 -2023.1 L 4388.4 -2011.9 L 4396.9 -2003.5 L 4410.1 -1999.0 L 4423.5 -2001.0 L 4436.3 -2001.2 L 4455.4 -1995.7 L 4476.1 -1988.3 L 4488.1 -1975.3 L 4513.0 -1941.9 L 4514.1 -1927.5 L 4513.1 -1898.0 L 4501.7 -1793.3 L 4548.7 -1790.0" stroke="#000" stroke-width="2" fill="none" stroke-linecap="round" stroke-linejoin="round" />
<path d="M 318.2 1239.5 L 319.6 1315.3" stroke="#000" stroke-width="2" fill="none" stroke-linecap="round" stroke-linejoin="round" />
<path d="M 264.7 1238.5 L 286.2 1240.0 L 318.2 1239.5" stroke="#000" stroke-width="2" fill="none" stroke-linecap="round" stroke-linejoin="round" />
<path d="M 317.4 1357.9 L 321.1 1359.6 L 326.1 1361.1 L 363.5 1366.0 L 401.0 1371.2" stroke="#000" stroke-width="2" fill="none" stroke-linecap="round" stroke-linejoin="round" />
<path d="M 363.5 1366.0 L 363.2 1343.5 L 363.0 1318.7" stroke="#000" stroke-width="2" fill="none" stroke-linecap="round" stroke-linejoin="round" />
<path d="M 346.6 1317.0 L 354.6 1327.4 L 358.8 1339.8 L 363.2 1343.5" stroke="#000" stroke-width="2" fill="none" stroke-linecap="round" stroke-linejoin="round" />
<path d="M 363.0 1318.7 L 360.5 1316.8 L 356.0 1317.0 L 346.6 1317.0 L 336.2 1317.0 L 324.1 1317.0 L 319.6 1315.3" stroke="#000" stroke-width="2" fill="none" stroke-linecap="round" stroke-linejoin="round" />
<path d="M 319.6 1315.3 L 317.7 1317.7 L 316.7 1322.9 L 316.9 1354.9 L 317.4 1357.9" stroke="#000" stroke-width="2" fill="none" stroke-linecap="round" stroke-linejoin="round" />
<path d="M 1283.4 333.0 L 1293.4 243.1 L 1298.3 199.0" stroke="#000" stroke-width="2" fill="none" stroke-linecap="round" stroke-linejoin="round" />
<path d="M 1293.4 243.1 L 1188.6 226.2" stroke="#000" stroke-width="2" fill="none" stroke-linecap="round" stroke-linejoin="round" />
<path d="M 661.0 1236.0 L 720.4 1236.3" stroke="#000" stroke-width="2" fill="none" stroke-linecap="round" stroke-linejoin="round" />
<path d="M 528.7 1131.5 L 531.4 1225.6" stroke="#000" stroke-width="2" fill="none" stroke-linecap="round" stroke-linejoin="round" />
<path d="M 584.0 1180.6 L 659.6 1177.2" stroke="#000" stroke-width="2" fill="none" stroke-linecap="round" stroke-linejoin="round" />
<path d="M 521.2 1032.9 L 520.9 1074.8" stroke="#000" stroke-width="2" fill="none" stroke-linecap="round" stroke-linejoin="round" />
<path d="M 520.9 1074.8 L 503.8 1074.8 L 501.6 1075.8" stroke="#000" stroke-width="2" fill="none" stroke-linecap="round" stroke-linejoin="round" />
<path d="M 520.9 1074.8 L 541.3 1076.0 L 544.9 1074.7 L 546.1 1071.6 L 546.5 1057.1" stroke="#000" stroke-width="2" fill="none" stroke-linecap="round" stroke-linejoin="round" />
<path d="M 501.6 1075.8 L 500.7 1077.7 L 500.4 1103.2 L 501.1 1105.7 L 502.6 1106.8 L 541.3 1110.3" stroke="#000" stroke-width="2" fill="none" stroke-linecap="round" stroke-linejoin="round" />
<path d="M 377.2 1059.9 L 399.1 1061.1" stroke="#000" stroke-width="2" fill="none" stroke-linecap="round" stroke-linejoin="round" />
<path d="M 400.5 1028.7 L 399.1 1061.1 L 397.9 1089.6" stroke="#000" stroke-width="2" fill="none" stroke-linecap="round" stroke-linejoin="round" />
<path d="M 599.0 902.2 L 611.4 933.1 L 635.9 973.2 L 649.5 987.9" stroke="#000" stroke-width="2" fill="none" stroke-linecap="round" stroke-linejoin="round" />
<path d="M 314.1 614.3 L 315.0 662.7" stroke="#000" stroke-width="2" fill="none" stroke-linecap="round" stroke-linejoin="round" />
<path d="M 393.2 501.2 L 393.6 592.6 L 401.4 617.8" stroke="#000" stroke-width="2" fill="none" stroke-linecap="round" stroke-linejoin="round" />
<path d="M 261.1 495.6 L 265.0 582.1" stroke="#000" stroke-width="2" fill="none" stroke-linecap="round" stroke-linejoin="round" />
<path d="M 392.0 421.7 L 244.6 422.9" stroke="#000" stroke-width="2" fill="none" stroke-linecap="round" stroke-linejoin="round" />
<path d="M 391.7 378.6 L 392.0 421.7 L 392.4 491.5" stroke="#000" stroke-width="2" fill="none" stroke-linecap="round" stroke-linejoin="round" />
<path d="M 428.0 601.7 L 453.0 502.5" stroke="#000" stroke-width="2" fill="none" stroke-linecap="round" stroke-linejoin="round" />
<path d="M 1851.9 1023.1 L 1947.2 1033.4" stroke="#000" stroke-width="2" fill="none" stroke-linecap="round" stroke-linejoin="round" />
<path d="M 2580.0 985.0 L 2395.9 967.7" stroke="#000" stroke-width="2" fill="none" stroke-linecap="round" stroke-linejoin="round" />
<path d="M 2225.3 802.5 L 2226.1 810.7" stroke="#000" stroke-width="2" fill="none" stroke-linecap="round" stroke-linejoin="round" />
<path d="M 1011.3 895.3 L 968.5 852.9" stroke="#000" stroke-width="2" fill="none" stroke-linecap="round" stroke-linejoin="round" />
<path d="M 942.4 946.3 L 928.7 912.4 L 825.3 739.3" stroke="#000" stroke-width="2" fill="none" stroke-linecap="round" stroke-linejoin="round" />
<path d="M 974.0 1287.9 L 909.5 1290.7" stroke="#000" stroke-width="2" fill="none" stroke-linecap="round" stroke-linejoin="round" />
<path d="M 880.1 1112.0 L 878.8 1136.5 L 880.1 1139.6 L 883.5 1141.8 L 942.8 1173.0 L 968.0 1193.1 L 971.3 1197.0 L 973.0 1203.1 L 973.9 1279.4 L 974.0 1287.9 L 975.0 1340.0 L 973.8 1403.9 L 976.5 1435.8 L 979.3 1470.0" stroke="#000" stroke-width="2" fill="none" stroke-linecap="round" stroke-linejoin="round" />
<path d="M 1548.7 -276.8 L 1541.8 -282.5 L 1529.7 -304.6 L 1516.1 -335.3 L 1512.0 -345.9" stroke="#000" stroke-width="2" fill="none" stroke-linecap="round" stroke-linejoin="round" />
<path d="M 13.6 301.7 L 88.6 299.1 L 89.5 348.9 L 91.6 351.7 L 89.7 372.8 L 84.1 403.7 L 80.0 414.3 L 77.4 418.3 L 75.2 422.1" stroke="#000" stroke-width="2" fill="none" stroke-linecap="round" stroke-linejoin="round" />
<path d="M 1430.6 593.7 L 1291.9 573.3" stroke="#000" stroke-width="2" fill="none" stroke-linecap="round" stroke-linejoin="round" />
<path d="M 1642.9 628.0 L 1632.9 702.5 L 1592.4 697.0" stroke="#000" stroke-width="2" fill="none" stroke-linecap="round" stroke-linejoin="round" />
<path d="M 1564.1 693.1 L 1574.1 622.9" stroke="#000" stroke-width="2" fill="none" stroke-linecap="round" stroke-linejoin="round" />
<path d="M 1520.0 686.9 L 1564.1 693.1 L 1592.4 697.0 L 1604.1 604.3 L 1608.0 574.6" stroke="#000" stroke-width="2" fill="none" stroke-linecap="round" stroke-linejoin="round" />
<path d="M 1417.6 697.5 L 1390.9 693.9" stroke="#000" stroke-width="2" fill="none" stroke-linecap="round" stroke-linejoin="round" />
<path d="M 1528.9 624.7 L 1428.0 610.6" stroke="#000" stroke-width="2" fill="none" stroke-linecap="round" stroke-linejoin="round" />
<path d="M 1431.0 591.2 L 1531.6 606.2" stroke="#000" stroke-width="2" fill="none" stroke-linecap="round" stroke-linejoin="round" />
<path d="M 1535.0 576.7 L 1533.2 594.6" stroke="#000" stroke-width="2" fill="none" stroke-linecap="round" stroke-linejoin="round" />
<path d="M 1423.0 648.2 L 1523.6 661.8" stroke="#000" stroke-width="2" fill="none" stroke-linecap="round" stroke-linejoin="round" />
<path d="M 1517.0 707.7 L 1418.0 694.2" stroke="#000" stroke-width="2" fill="none" stroke-linecap="round" stroke-linejoin="round" />
<path d="M 1419.0 686.9 L 1518.1 700.1" stroke="#000" stroke-width="2" fill="none" stroke-linecap="round" stroke-linejoin="round" />
<path d="M 1424.3 634.7 L 1423.0 648.2 L 1419.0 686.9 L 1418.0 694.2 L 1417.6 697.5 L 1412.8 734.2" stroke="#000" stroke-width="2" fill="none" stroke-linecap="round" stroke-linejoin="round" />
<path d="M 1291.5 657.5 L 1297.2 618.4 L 1424.3 634.7 L 1428.0 610.6 L 1430.6 593.7 L 1431.0 591.2 L 1435.3 563.0 L 1535.0 576.7 L 1536.4 572.4 L 1539.9 568.7 L 1547.2 566.9 L 1608.0 574.6 L 1678.1 583.4 L 1674.2 613.9 L 1604.1 604.3 L 1533.2 594.6 L 1531.6 606.2 L 1528.9 624.7 L 1523.6 661.8 L 1520.0 686.9 L 1518.1 700.1 L 1517.0 707.7 L 1507.3 775.3 L 1501.1 843.2 L 1500.7 848.7" stroke="#000" stroke-width="2" fill="none" stroke-linecap="round" stroke-linejoin="round" />
<path d="M 1235.0 645.8 L 1291.5 657.5 L 1355.1 665.6" stroke="#000" stroke-width="2" fill="none" stroke-linecap="round" stroke-linejoin="round" />
<path d="M 1184.3 711.7 L 1187.4 704.2 L 1235.0 645.8 L 1291.9 573.3 L 1316.9 541.5 L 1333.6 520.3 L 1362.6 525.7" stroke="#000" stroke-width="2" fill="none" stroke-linecap="round" stroke-linejoin="round" />
<path d="M 123.8 454.4 L 125.2 398.5" stroke="#000" stroke-width="2" fill="none" stroke-linecap="round" stroke-linejoin="round" />
<path d="M 1146.7 437.1 L 1159.3 355.3" stroke="#000" stroke-width="2" fill="none" stroke-linecap="round" stroke-linejoin="round" />
<path d="M 1173.0 441.1 L 1191.6 328.9" stroke="#000" stroke-width="2" fill="none" stroke-linecap="round" stroke-linejoin="round" />
<path d="M 1201.0 445.6 L 1219.4 332.3" stroke="#000" stroke-width="2" fill="none" stroke-linecap="round" stroke-linejoin="round" />
<path d="M 1230.4 450.4 L 1248.7 335.0" stroke="#000" stroke-width="2" fill="none" stroke-linecap="round" stroke-linejoin="round" />
<path d="M 1050.5 423.0 L 1146.7 437.1 L 1160.2 439.1 L 1173.0 441.1 L 1201.0 445.6 L 1230.4 450.4 L 1258.6 454.3 L 1326.4 463.7 L 1355.3 468.0" stroke="#000" stroke-width="2" fill="none" stroke-linecap="round" stroke-linejoin="round" />
<path d="M 88.6 299.1 L 130.0 303.3 L 218.3 300.9 L 218.5 256.9 L 244.8 253.3 L 333.2 252.3 L 375.6 253.5 L 429.0 253.7 L 429.8 282.8 L 491.9 287.2" stroke="#000" stroke-width="2" fill="none" stroke-linecap="round" stroke-linejoin="round" />
<path d="M 1205.0 721.8 L 1198.5 728.5 L 1197.3 732.4 L 1197.3 737.3 L 1199.1 743.2 L 1199.5 748.7 L 1199.5 754.8 L 1197.3 761.3 L 1194.5 771.3 L 1193.0 781.6 L 1185.3 844.3" stroke="#000" stroke-width="2" fill="none" stroke-linecap="round" stroke-linejoin="round" />
<path d="M 1238.6 834.8 L 1229.2 911.8" stroke="#000" stroke-width="2" fill="none" stroke-linecap="round" stroke-linejoin="round" />
<path d="M 329.8 1176.9 L 331.5 1161.6 L 331.7 1156.3 L 333.3 1154.0 L 336.1 1153.0 L 361.0 1155.0 L 363.1 1156.6 L 363.8 1159.2 L 363.0 1179.2 L 361.3 1181.9 L 358.3 1182.7 L 333.3 1180.8 L 330.5 1179.9 L 329.8 1176.9" stroke="#000" stroke-width="2" fill="none" stroke-linecap="round" stroke-linejoin="round" />
<path d="M 331.5 1161.6 L 302.4 1158.5" stroke="#000" stroke-width="2" fill="none" stroke-linecap="round" stroke-linejoin="round" />
<path d="M 259.2 1081.2 L 274.6 1126.2 L 274.4 1129.5 L 272.6 1131.7 L 241.2 1150.1" stroke="#000" stroke-width="2" fill="none" stroke-linecap="round" stroke-linejoin="round" />
<path d="M 235.3 1015.3 L 242.3 1082.6 L 245.4 1084.8 L 249.5 1085.0 L 259.2 1081.2 L 284.0 1069.2" stroke="#000" stroke-width="2" fill="none" stroke-linecap="round" stroke-linejoin="round" />
<path d="M 29.5 1144.2 L 29.0 1002.5" stroke="#000" stroke-width="2" fill="none" stroke-linecap="round" stroke-linejoin="round" />
<path d="M 1895.8 835.3 L 1896.4 842.0" stroke="#000" stroke-width="2" fill="none" stroke-linecap="round" stroke-linejoin="round" />
<path d="M 1409.2 1141.8 L 1358.4 1135.9 L 1336.2 1133.3" stroke="#000" stroke-width="2" fill="none" stroke-linecap="round" stroke-linejoin="round" />
<path d="M 1175.3 1028.9 L 1172.9 1027.6 L 1094.1 1014.5" stroke="#000" stroke-width="2" fill="none" stroke-linecap="round" stroke-linejoin="round" />
<path d="M 1168.4 1087.3 L 1175.9 1031.3 L 1175.3 1028.9" stroke="#000" stroke-width="2" fill="none" stroke-linecap="round" stroke-linejoin="round" />
<path d="M 1322.2 1036.2 L 1325.8 1006.9 L 1331.2 964.3" stroke="#000" stroke-width="2" fill="none" stroke-linecap="round" stroke-linejoin="round" />
<path d="M 1374.4 1012.3 L 1325.8 1006.9" stroke="#000" stroke-width="2" fill="none" stroke-linecap="round" stroke-linejoin="round" />
<path d="M 1371.0 1041.8 L 1322.2 1036.2 L 1296.7 1033.3" stroke="#000" stroke-width="2" fill="none" stroke-linecap="round" stroke-linejoin="round" />
<path d="M 1153.3 1335.5 L 1173.9 1338.1 L 1302.5 1353.8" stroke="#000" stroke-width="2" fill="none" stroke-linecap="round" stroke-linejoin="round" />
<path d="M 1459.2 1373.7 L 1302.5 1353.8" stroke="#000" stroke-width="2" fill="none" stroke-linecap="round" stroke-linejoin="round" />
<path d="M 1144.6 1305.9 L 1177.0 1310.2 L 1306.6 1326.8" stroke="#000" stroke-width="2" fill="none" stroke-linecap="round" stroke-linejoin="round" />
<path d="M 1122.9 1303.9 L 1030.9 1303.4" stroke="#000" stroke-width="2" fill="none" stroke-linecap="round" stroke-linejoin="round" />
<path d="M 1129.6 1325.5 L 1029.1 1327.9" stroke="#000" stroke-width="2" fill="none" stroke-linecap="round" stroke-linejoin="round" />
<path d="M 1137.8 1351.9 L 1031.5 1353.2" stroke="#000" stroke-width="2" fill="none" stroke-linecap="round" stroke-linejoin="round" />
<path d="M 975.0 1340.0 L 907.2 1341.4" stroke="#000" stroke-width="2" fill="none" stroke-linecap="round" stroke-linejoin="round" />
<path d="M 973.9 1279.4 L 1022.7 1279.1" stroke="#000" stroke-width="2" fill="none" stroke-linecap="round" stroke-linejoin="round" />
<path d="M 1116.0 1281.8 L 1033.9 1278.4" stroke="#000" stroke-width="2" fill="none" stroke-linecap="round" stroke-linejoin="round" />
<path d="M 1108.9 1260.9 L 1041.2 1256.2 L 998.8 1255.3" stroke="#000" stroke-width="2" fill="none" stroke-linecap="round" stroke-linejoin="round" />
<path d="M 1199.5 1091.6 L 1168.4 1087.3 L 1064.1 1072.8 L 1059.5 1073.6" stroke="#000" stroke-width="2" fill="none" stroke-linecap="round" stroke-linejoin="round" />
<path d="M 1112.2 1041.9 L 1079.0 1038.0 L 1052.8 1037.2 L 1046.5 1038.4" stroke="#000" stroke-width="2" fill="none" stroke-linecap="round" stroke-linejoin="round" />
<path d="M 890.7 995.8 L 1004.1 979.7" stroke="#000" stroke-width="2" fill="none" stroke-linecap="round" stroke-linejoin="round" />
<path d="M 1227.8 1174.0 L 1282.5 1181.6" stroke="#000" stroke-width="2" fill="none" stroke-linecap="round" stroke-linejoin="round" />
<path d="M 1334.5 1195.5 L 1299.5 1191.9 L 1283.0 1190.1 L 1281.8 1189.3 L 1281.7 1187.7 L 1282.5 1181.6 L 1285.1 1162.8" stroke="#000" stroke-width="2" fill="none" stroke-linecap="round" stroke-linejoin="round" />
<path d="M 1292.8 1231.1 L 1299.5 1191.9" stroke="#000" stroke-width="2" fill="none" stroke-linecap="round" stroke-linejoin="round" />
<path d="M 1424.5 1216.2 L 1362.8 1207.5" stroke="#000" stroke-width="2" fill="none" stroke-linecap="round" stroke-linejoin="round" />
<path d="M 1268.4 1510.4 L 1203.8 1507.5" stroke="#000" stroke-width="2" fill="none" stroke-linecap="round" stroke-linejoin="round" />
<path d="M 1082.0 1588.2 L 1039.5 1587.6" stroke="#000" stroke-width="2" fill="none" stroke-linecap="round" stroke-linejoin="round" />
<path d="M 1081.9 1611.5 L 1033.4 1611.3" stroke="#000" stroke-width="2" fill="none" stroke-linecap="round" stroke-linejoin="round" />
<path d="M 1081.6 1659.7 L 1112.5 1659.4" stroke="#000" stroke-width="2" fill="none" stroke-linecap="round" stroke-linejoin="round" />
<path d="M 1084.9 1740.5 L 1081.4 1682.1 L 1081.6 1659.7 L 1081.9 1611.5 L 1082.0 1588.2 L 1082.7 1479.7 L 1081.6 1472.3 L 1079.6 1469.3" stroke="#000" stroke-width="2" fill="none" stroke-linecap="round" stroke-linejoin="round" />
<path d="M 1030.0 1436.8 L 1028.6 1436.3 L 976.5 1435.8" stroke="#000" stroke-width="2" fill="none" stroke-linecap="round" stroke-linejoin="round" />
<path d="M 1079.6 1469.3 L 1076.3 1468.3 L 1034.4 1467.4 L 1031.8 1467.0 L 1030.9 1464.4 L 1030.6 1437.9 L 1030.0 1436.8" stroke="#000" stroke-width="2" fill="none" stroke-linecap="round" stroke-linejoin="round" />
<path d="M 1173.7 1478.6 L 1082.7 1479.7" stroke="#000" stroke-width="2" fill="none" stroke-linecap="round" stroke-linejoin="round" />
<path d="M 1649.1 858.6 L 1649.7 865.4" stroke="#000" stroke-width="2" fill="none" stroke-linecap="round" stroke-linejoin="round" />
      <path d="M 2088.1 822.1 L 2059.2 824.6 L 2003.1 832.0 L 1896.4 842.0 L 1877.8 843.7 L 1853.0 846.4 L 1683.9 862.6 L 1649.7 865.4 L 1621.3 867.8 L 1576.6 868.6 L 1556.2 865.9 L 1528.0 862.3 L 1496.1 854.8 L 1467.0 846.6 L 1441.0 838.1 L 1380.2 809.7 L 1205.0 721.8 L 1184.3 711.7 L 1170.3 704.6 L 1159.7 699.1 L 1015.8 626.8 L 936.8 587.1 L 893.7 565.4 L 845.7 541.3 L 816.5 528.7 L 788.0 519.5 L 766.0 513.4 L 763.1 512.6 L 741.1 508.9 L 698.9 507.1 L 630.2 504.2 L 606.4 503.8 L 528.8 502.6" stroke="#000" stroke-width="7" fill="none" stroke-linecap="round" stroke-linejoin="round" />
<path d="M 9472.0 -309.1 L 9456.7 -303.9 L 9415.8 -290.7 L 9393.1 -284.3 L 9259.9 -244.5 L 9193.8 -224.1 L 9168.1 -215.6 L 9126.0 -201.8 L 8994.8 -154.3 L 8849.4 -110.6 L 8627.4 -39.5 L 8376.5 42.3 L 8229.1 89.8 L 8093.8 132.3 L 8038.1 148.3 L 7998.5 153.8 L 7836.1 175.0 L 7673.2 193.2 L 7645.2 196.9 L 7536.4 211.4 L 7324.7 240.0 L 6961.1 289.2 L 6851.5 302.5 L 6678.1 326.6 L 6531.5 347.4 L 6467.7 356.4 L 6331.0 375.7 L 6152.8 396.7 L 5938.6 428.6 L 5886.4 434.8 L 5771.2 448.4 L 5611.0 470.5 L 5569.4 476.3 L 5389.5 500.7 L 5216.6 523.0 L 5110.9 536.8 L 4785.4 579.1 L 4702.7 590.1 L 4570.7 607.9 L 4347.5 638.7 L 4248.5 649.0 L 3974.9 670.1 L 3704.4 690.5 L 3610.3 697.6 L 3329.7 719.9 L 3076.6 740.2 L 3019.3 744.4 L 2969.1 747.6 L 2899.3 752.7 L 2863.6 754.4 L 2825.7 757.7 L 2728.9 767.0 L 2597.7 777.5 L 2486.2 785.9 L 2421.8 789.3 L 2226.1 810.7 L 2088.1 822.1" stroke="#000" stroke-width="7" fill="none" stroke-linecap="round" stroke-linejoin="round" />
<path d="M 533.2 494.6 L 547.8 494.8 L 606.2 496.2 L 672.6 497.7 L 699.9 498.6 L 737.4 499.7 L 763.2 502.9 L 770.9 505.2 L 783.6 509.1 L 809.8 519.0 L 812.7 520.1 L 844.7 533.0 L 892.6 556.0 L 941.6 580.8" stroke="#000" stroke-width="7" fill="none" stroke-linecap="round" stroke-linejoin="round" />
<path d="M 265.6 495.6 L 261.1 495.6 L 215.3 490.2 L 186.8 485.6 L 174.2 483.1 L 160.8 479.2 L 148.8 474.7 L 132.4 466.7 L 118.0 458.2 L 76.2 430.4 L 42.8 408.6 L 23.8 395.3 L 13.9 386.1 L 5.9 377.9" stroke="#000" stroke-width="7" fill="none" stroke-linecap="round" stroke-linejoin="round" />
<path d="M 941.6 580.8 L 1011.7 616.5 L 1160.7 690.8 L 1174.9 697.9 L 1187.4 704.2 L 1363.7 793.7 L 1396.9 810.6 L 1401.6 812.7 L 1443.5 831.9 L 1484.3 845.2 L 1500.7 848.7 L 1535.7 856.2 L 1576.5 861.0 L 1611.7 862.0 L 1649.1 858.6 L 1781.6 846.5 L 1895.8 835.3 L 1977.0 827.3 L 2059.2 816.7 L 2087.4 813.9" stroke="#000" stroke-width="7" fill="none" stroke-linecap="round" stroke-linejoin="round" />
<path d="M 5.9 377.9 L -18.9 343.8 L -259.5 9.1 L -281.1 -21.6 L -438.5 -245.3 L -519.9 -358.3 L -559.4 -416.0 L -612.9 -490.6 L -647.2 -538.5 L -649.7 -542.1" stroke="#000" stroke-width="7" fill="none" stroke-linecap="round" stroke-linejoin="round" />
<path d="M -642.0 -547.0 L -640.2 -544.5 L -605.1 -494.6 L -590.2 -473.3 L -551.5 -421.2 L -511.9 -363.3 L -430.6 -250.4 L -272.2 -24.6 L -252.3 2.9 L -13.0 338.3 L 1.2 358.5 L 12.7 372.6 L 20.1 380.2 L 32.2 391.0 L 51.3 405.7 L 75.2 422.1 L 79.2 424.8 L 120.1 452.1 L 123.8 454.4 L 133.9 460.5 L 149.6 467.9 L 161.5 472.4 L 174.0 476.2 L 187.4 479.2 L 220.4 484.0 L 243.4 486.5 L 266.2 487.9" stroke="#000" stroke-width="7" fill="none" stroke-linecap="round" stroke-linejoin="round" />
<path d="M 266.2 487.9 L 392.4 491.5 L 457.1 493.6 L 516.4 494.1 L 533.2 494.6" stroke="#000" stroke-width="7" fill="none" stroke-linecap="round" stroke-linejoin="round" />
<path d="M 528.8 502.6 L 511.5 503.1 L 453.0 502.5 L 393.2 501.2 L 265.6 495.6" stroke="#000" stroke-width="7" fill="none" stroke-linecap="round" stroke-linejoin="round" />
<path d="M 2087.4 813.9 L 2225.3 802.5 L 2421.1 781.1 L 2490.7 777.0 L 2597.0 769.3 L 2728.0 760.6 L 2828.1 750.1 L 2864.4 746.8 L 2969.6 740.8 L 2984.1 739.7 L 3018.8 737.3 L 3076.4 732.9 L 3327.0 712.6 L 3575.2 693.6 L 3602.8 691.6 L 3703.7 682.3 L 3974.2 661.9 L 4247.8 640.9 L 4346.5 630.5 L 4569.6 599.8 L 4661.7 586.7 L 4784.4 571.0 L 5109.4 528.7 L 5215.6 514.9 L 5388.4 492.6 L 5568.3 468.2 L 5574.9 467.2 L 5770.2 440.3 L 5885.5 426.6 L 5937.5 420.5 L 6151.7 388.6 L 6330.0 367.6 L 6466.2 348.7 L 6481.3 346.8 L 6496.2 344.9 L 6530.6 340.6 L 6676.9 318.5 L 6855.1 293.6 L 6960.0 281.0 L 7323.6 231.9 L 7535.3 203.3 L 7672.2 185.1 L 7835.1 166.9 L 7997.4 145.7 L 8036.4 140.3 L 8091.6 124.4 L 8226.6 82.0 L 8374.0 34.5 L 8580.7 -32.9 L 8624.8 -47.3 L 8847.0 -118.4 L 8985.6 -161.8 L 9134.2 -212.1 L 9165.8 -222.5 L 9201.5 -234.2 L 9257.2 -251.5 L 9391.7 -291.4 L 9447.8 -307.8 L 9475.8 -317.1" stroke="#000" stroke-width="7" fill="none" stroke-linecap="round" stroke-linejoin="round" />
<path d="M 2088.1 822.1 L 2059.2 824.6 L 2003.1 832.0 L 1896.4 842.0 L 1877.8 843.7 L 1853.0 846.4 L 1683.9 862.6 L 1649.7 865.4 L 1621.3 867.8 L 1576.6 868.6 L 1556.2 865.9 L 1528.0 862.3 L 1496.1 854.8 L 1467.0 846.6 L 1441.0 838.1 L 1380.2 809.7 L 1205.0 721.8 L 1184.3 711.7 L 1170.3 704.6 L 1159.7 699.1 L 1015.8 626.8 L 936.8 587.1 L 893.7 565.4 L 845.7 541.3 L 816.5 528.7 L 788.0 519.5 L 766.0 513.4 L 763.1 512.6 L 741.1 508.9 L 698.9 507.1 L 630.2 504.2 L 606.4 503.8 L 528.8 502.6" stroke="#fff" stroke-width="3.2" fill="none" stroke-linecap="round" stroke-linejoin="round"/>
<path d="M 9472.0 -309.1 L 9456.7 -303.9 L 9415.8 -290.7 L 9393.1 -284.3 L 9259.9 -244.5 L 9193.8 -224.1 L 9168.1 -215.6 L 9126.0 -201.8 L 8994.8 -154.3 L 8849.4 -110.6 L 8627.4 -39.5 L 8376.5 42.3 L 8229.1 89.8 L 8093.8 132.3 L 8038.1 148.3 L 7998.5 153.8 L 7836.1 175.0 L 7673.2 193.2 L 7645.2 196.9 L 7536.4 211.4 L 7324.7 240.0 L 6961.1 289.2 L 6851.5 302.5 L 6678.1 326.6 L 6531.5 347.4 L 6467.7 356.4 L 6331.0 375.7 L 6152.8 396.7 L 5938.6 428.6 L 5886.4 434.8 L 5771.2 448.4 L 5611.0 470.5 L 5569.4 476.3 L 5389.5 500.7 L 5216.6 523.0 L 5110.9 536.8 L 4785.4 579.1 L 4702.7 590.1 L 4570.7 607.9 L 4347.5 638.7 L 4248.5 649.0 L 3974.9 670.1 L 3704.4 690.5 L 3610.3 697.6 L 3329.7 719.9 L 3076.6 740.2 L 3019.3 744.4 L 2969.1 747.6 L 2899.3 752.7 L 2863.6 754.4 L 2825.7 757.7 L 2728.9 767.0 L 2597.7 777.5 L 2486.2 785.9 L 2421.8 789.3 L 2226.1 810.7 L 2088.1 822.1" stroke="#fff" stroke-width="3.2" fill="none" stroke-linecap="round" stroke-linejoin="round"/>
<path d="M 533.2 494.6 L 547.8 494.8 L 606.2 496.2 L 672.6 497.7 L 699.9 498.6 L 737.4 499.7 L 763.2 502.9 L 770.9 505.2 L 783.6 509.1 L 809.8 519.0 L 812.7 520.1 L 844.7 533.0 L 892.6 556.0 L 941.6 580.8" stroke="#fff" stroke-width="3.2" fill="none" stroke-linecap="round" stroke-linejoin="round"/>
<path d="M 265.6 495.6 L 261.1 495.6 L 215.3 490.2 L 186.8 485.6 L 174.2 483.1 L 160.8 479.2 L 148.8 474.7 L 132.4 466.7 L 118.0 458.2 L 76.2 430.4 L 42.8 408.6 L 23.8 395.3 L 13.9 386.1 L 5.9 377.9" stroke="#fff" stroke-width="3.2" fill="none" stroke-linecap="round" stroke-linejoin="round"/>
<path d="M 941.6 580.8 L 1011.7 616.5 L 1160.7 690.8 L 1174.9 697.9 L 1187.4 704.2 L 1363.7 793.7 L 1396.9 810.6 L 1401.6 812.7 L 1443.5 831.9 L 1484.3 845.2 L 1500.7 848.7 L 1535.7 856.2 L 1576.5 861.0 L 1611.7 862.0 L 1649.1 858.6 L 1781.6 846.5 L 1895.8 835.3 L 1977.0 827.3 L 2059.2 816.7 L 2087.4 813.9" stroke="#fff" stroke-width="3.2" fill="none" stroke-linecap="round" stroke-linejoin="round"/>
<path d="M 5.9 377.9 L -18.9 343.8 L -259.5 9.1 L -281.1 -21.6 L -438.5 -245.3 L -519.9 -358.3 L -559.4 -416.0 L -612.9 -490.6 L -647.2 -538.5 L -649.7 -542.1" stroke="#fff" stroke-width="3.2" fill="none" stroke-linecap="round" stroke-linejoin="round"/>
<path d="M -642.0 -547.0 L -640.2 -544.5 L -605.1 -494.6 L -590.2 -473.3 L -551.5 -421.2 L -511.9 -363.3 L -430.6 -250.4 L -272.2 -24.6 L -252.3 2.9 L -13.0 338.3 L 1.2 358.5 L 12.7 372.6 L 20.1 380.2 L 32.2 391.0 L 51.3 405.7 L 75.2 422.1 L 79.2 424.8 L 120.1 452.1 L 123.8 454.4 L 133.9 460.5 L 149.6 467.9 L 161.5 472.4 L 174.0 476.2 L 187.4 479.2 L 220.4 484.0 L 243.4 486.5 L 266.2 487.9" stroke="#fff" stroke-width="3.2" fill="none" stroke-linecap="round" stroke-linejoin="round"/>
<path d="M 266.2 487.9 L 392.4 491.5 L 457.1 493.6 L 516.4 494.1 L 533.2 494.6" stroke="#fff" stroke-width="3.2" fill="none" stroke-linecap="round" stroke-linejoin="round"/>
<path d="M 528.8 502.6 L 511.5 503.1 L 453.0 502.5 L 393.2 501.2 L 265.6 495.6" stroke="#fff" stroke-width="3.2" fill="none" stroke-linecap="round" stroke-linejoin="round"/>
<path d="M 2087.4 813.9 L 2225.3 802.5 L 2421.1 781.1 L 2490.7 777.0 L 2597.0 769.3 L 2728.0 760.6 L 2828.1 750.1 L 2864.4 746.8 L 2969.6 740.8 L 2984.1 739.7 L 3018.8 737.3 L 3076.4 732.9 L 3327.0 712.6 L 3575.2 693.6 L 3602.8 691.6 L 3703.7 682.3 L 3974.2 661.9 L 4247.8 640.9 L 4346.5 630.5 L 4569.6 599.8 L 4661.7 586.7 L 4784.4 571.0 L 5109.4 528.7 L 5215.6 514.9 L 5388.4 492.6 L 5568.3 468.2 L 5574.9 467.2 L 5770.2 440.3 L 5885.5 426.6 L 5937.5 420.5 L 6151.7 388.6 L 6330.0 367.6 L 6466.2 348.7 L 6481.3 346.8 L 6496.2 344.9 L 6530.6 340.6 L 6676.9 318.5 L 6855.1 293.6 L 6960.0 281.0 L 7323.6 231.9 L 7535.3 203.3 L 7672.2 185.1 L 7835.1 166.9 L 7997.4 145.7 L 8036.4 140.3 L 8091.6 124.4 L 8226.6 82.0 L 8374.0 34.5 L 8580.7 -32.9 L 8624.8 -47.3 L 8847.0 -118.4 L 8985.6 -161.8 L 9134.2 -212.1 L 9165.8 -222.5 L 9201.5 -234.2 L 9257.2 -251.5 L 9391.7 -291.4 L 9447.8 -307.8 L 9475.8 -317.1" stroke="#fff" stroke-width="3.2" fill="none" stroke-linecap="round" stroke-linejoin="round"/>
      <path d="M 941.6 580.8 L 936.8 587.1 L 908.7 624.3 L 843.1 714.5 L 825.3 739.3 L 779.3 804.6 L 753.3 842.0 L 701.3 913.5 L 649.5 987.9 L 629.6 1014.3" stroke="#000" stroke-width="5" fill="none" stroke-linecap="round" stroke-linejoin="round" />
<path d="M 1533.6 -256.8 L 1428.0 -110.2 L 1306.1 63.7 L 1284.8 93.2 L 1247.6 144.6 L 1196.7 215.0 L 1188.6 226.2 L 1162.2 262.6 L 1061.2 408.1 L 1050.5 423.0 L 972.0 531.9 L 941.6 580.8" stroke="#000" stroke-width="5" fill="none" stroke-linecap="round" stroke-linejoin="round" />
<path d="M 1548.7 -276.8 L 1533.6 -256.8" stroke="#000" stroke-width="5" fill="none" stroke-linecap="round" stroke-linejoin="round" />
<path d="M 3989.1 -2729.1 L 3985.3 -2726.7 L 3877.7 -2658.4 L 3714.7 -2554.6 L 3567.5 -2458.4 L 3353.9 -2319.8 L 3190.9 -2213.8 L 3056.7 -2127.5 L 2868.0 -2003.8 L 2805.2 -1964.1 L 2770.0 -1931.6 L 2749.4 -1905.8 L 2712.2 -1856.2 L 2589.4 -1686.9 L 2451.2 -1501.8 L 2304.9 -1308.1 L 2169.4 -1124.4 L 2040.7 -951.5 L 1909.3 -775.8 L 1834.3 -672.0 L 1727.7 -531.1 L 1678.0 -458.9 L 1620.2 -378.9 L 1548.7 -276.8" stroke="#000" stroke-width="5" fill="none" stroke-linecap="round" stroke-linejoin="round" />
<path d="M 533.2 494.6 L 528.8 502.6 L 517.9 527.7 L 510.6 544.3 L 509.4 547.6 L 505.7 553.8 L 504.5 555.7 L 497.0 566.8 L 485.4 581.5 L 472.6 594.3 L 455.4 608.9 L 438.4 620.0 L 425.6 626.6 L 409.8 634.6 L 337.5 670.6 L 260.5 710.8 L 252.6 714.3" stroke="#000" stroke-width="5" fill="none" stroke-linecap="round" stroke-linejoin="round" />
<path d="M 240.9 698.7 L 233.1 693.9 L 204.6 655.6 L 202.9 653.2 L 166.6 603.6 L 52.6 442.1 L 23.8 395.3" stroke="#000" stroke-width="5" fill="none" stroke-linecap="round" stroke-linejoin="round" />
<path d="M 357.6 859.0 L 324.2 895.5 L 310.4 908.2 L 305.8 916.0 L 287.9 1018.9" stroke="#000" stroke-width="5" fill="none" stroke-linecap="round" stroke-linejoin="round" />
<path d="M 184.0 1011.9 L 173.0 1118.1 L 161.5 1236.9 L 149.2 1357.7 L 145.8 1384.8 L 134.8 1412.2 L 107.8 1469.7 L 27.0 1638.4 L -53.1 1811.6 L -150.3 1992.7 L -247.8 2164.8 L -281.3 2234.1 L -295.7 2263.8 L -361.8 2395.2 L -364.5 2403.1 L -361.4 2408.2 L -345.7 2417.8 L -334.1 2428.4 L -331.0 2433.6" stroke="#000" stroke-width="5" fill="none" stroke-linecap="round" stroke-linejoin="round" />
<path d="M 252.6 714.3 L 357.6 859.0" stroke="#000" stroke-width="5" fill="none" stroke-linecap="round" stroke-linejoin="round" />
<path d="M 362.9 1025.1 L 287.9 1018.9 L 235.3 1015.3 L 184.0 1011.9" stroke="#000" stroke-width="5" fill="none" stroke-linecap="round" stroke-linejoin="round" />
<path d="M 242.8 701.0 L 250.0 710.3" stroke="#000" stroke-width="5" fill="none" stroke-linecap="round" stroke-linejoin="round" />
<path d="M 184.0 1011.9 L 166.6 1010.4 L 55.9 1006.5 L 29.0 1002.5 L -314.3 980.2 L -839.9 947.6 L -893.5 944.3 L -923.1 942.3 L -1668.6 895.7 L -1914.8 876.4 L -2085.7 865.2 L -2124.4 862.9 L -2233.0 856.3 L -2497.5 837.3 L -2645.2 828.1 L -2652.7 827.6 L -2964.4 805.7 L -3383.8 781.7 L -3615.4 768.4 L -3757.9 758.6 L -4452.2 714.5 L -4455.2 714.3" stroke="#000" stroke-width="5" fill="none" stroke-linecap="round" stroke-linejoin="round" />
<path d="M 252.6 714.3 L 243.9 718.6 L 226.5 733.3 L 216.4 744.5 L 210.9 759.3 L 207.0 769.7 L 204.6 780.1 L 202.8 793.2 L 199.9 825.1 L 191.7 923.3 L 184.0 1011.9" stroke="#000" stroke-width="5" fill="none" stroke-linecap="round" stroke-linejoin="round" />
<path d="M 79.2 424.8 L 76.2 430.4 L 70.7 440.8 L 69.9 444.8 L 69.9 448.7 L 70.9 453.8 L 73.4 459.1 L 95.4 488.8 L 143.6 555.5 L 189.7 621.1 L 209.2 649.0 L 227.8 675.7 L 237.7 690.1 L 240.9 698.7" stroke="#000" stroke-width="5" fill="none" stroke-linecap="round" stroke-linejoin="round" />
<path d="M 5050.9 2311.2 L 4879.0 2260.4 L 3814.8 1957.3 L 2889.7 1693.0 L 2847.8 1681.0 L 2840.0 1678.8 L 2737.9 1649.6 L 2706.9 1640.7 L 2687.0 1635.0 L 2529.5 1590.0 L 2097.6 1466.6 L 2090.5 1463.7 L 2055.2 1449.3 L 1794.6 1375.2 L 1675.4 1341.3 L 1625.6 1327.1 L 1473.9 1283.9 L 1421.7 1268.7 L 1417.0 1267.3 L 1319.7 1238.9 L 1292.8 1231.1 L 1189.3 1200.9 L 1097.2 1174.1 L 1074.5 1167.5 L 880.1 1112.0 L 658.9 1045.8 L 579.5 1035.7 L 563.4 1035.6" stroke="#000" stroke-width="5" fill="none" stroke-linecap="round" stroke-linejoin="round" />
<path d="M 250.0 710.3 L 252.6 714.3" stroke="#000" stroke-width="5" fill="none" stroke-linecap="round" stroke-linejoin="round" />
<path d="M 242.8 701.0 L 240.9 698.7" stroke="#000" stroke-width="5" fill="none" stroke-linecap="round" stroke-linejoin="round" />
<path d="M 563.4 1035.6 L 629.6 1014.3" stroke="#000" stroke-width="5" fill="none" stroke-linecap="round" stroke-linejoin="round" />
<path d="M 563.4 1035.6 L 521.2 1032.9 L 400.5 1028.7 L 362.9 1025.1" stroke="#000" stroke-width="5" fill="none" stroke-linecap="round" stroke-linejoin="round" />
<path d="M 941.6 580.8 L 936.8 587.1 L 908.7 624.3 L 843.1 714.5 L 825.3 739.3 L 779.3 804.6 L 753.3 842.0 L 701.3 913.5 L 649.5 987.9 L 629.6 1014.3" stroke="#fff" stroke-width="2.2" fill="none" stroke-linecap="round" stroke-linejoin="round"/>
<path d="M 1533.6 -256.8 L 1428.0 -110.2 L 1306.1 63.7 L 1284.8 93.2 L 1247.6 144.6 L 1196.7 215.0 L 1188.6 226.2 L 1162.2 262.6 L 1061.2 408.1 L 1050.5 423.0 L 972.0 531.9 L 941.6 580.8" stroke="#fff" stroke-width="2.2" fill="none" stroke-linecap="round" stroke-linejoin="round"/>
<path d="M 1548.7 -276.8 L 1533.6 -256.8" stroke="#fff" stroke-width="2.2" fill="none" stroke-linecap="round" stroke-linejoin="round"/>
<path d="M 3989.1 -2729.1 L 3985.3 -2726.7 L 3877.7 -2658.4 L 3714.7 -2554.6 L 3567.5 -2458.4 L 3353.9 -2319.8 L 3190.9 -2213.8 L 3056.7 -2127.5 L 2868.0 -2003.8 L 2805.2 -1964.1 L 2770.0 -1931.6 L 2749.4 -1905.8 L 2712.2 -1856.2 L 2589.4 -1686.9 L 2451.2 -1501.8 L 2304.9 -1308.1 L 2169.4 -1124.4 L 2040.7 -951.5 L 1909.3 -775.8 L 1834.3 -672.0 L 1727.7 -531.1 L 1678.0 -458.9 L 1620.2 -378.9 L 1548.7 -276.8" stroke="#fff" stroke-width="2.2" fill="none" stroke-linecap="round" stroke-linejoin="round"/>
<path d="M 533.2 494.6 L 528.8 502.6 L 517.9 527.7 L 510.6 544.3 L 509.4 547.6 L 505.7 553.8 L 504.5 555.7 L 497.0 566.8 L 485.4 581.5 L 472.6 594.3 L 455.4 608.9 L 438.4 620.0 L 425.6 626.6 L 409.8 634.6 L 337.5 670.6 L 260.5 710.8 L 252.6 714.3" stroke="#fff" stroke-width="2.2" fill="none" stroke-linecap="round" stroke-linejoin="round"/>
<path d="M 240.9 698.7 L 233.1 693.9 L 204.6 655.6 L 202.9 653.2 L 166.6 603.6 L 52.6 442.1 L 23.8 395.3" stroke="#fff" stroke-width="2.2" fill="none" stroke-linecap="round" stroke-linejoin="round"/>
<path d="M 357.6 859.0 L 324.2 895.5 L 310.4 908.2 L 305.8 916.0 L 287.9 1018.9" stroke="#fff" stroke-width="2.2" fill="none" stroke-linecap="round" stroke-linejoin="round"/>
<path d="M 184.0 1011.9 L 173.0 1118.1 L 161.5 1236.9 L 149.2 1357.7 L 145.8 1384.8 L 134.8 1412.2 L 107.8 1469.7 L 27.0 1638.4 L -53.1 1811.6 L -150.3 1992.7 L -247.8 2164.8 L -281.3 2234.1 L -295.7 2263.8 L -361.8 2395.2 L -364.5 2403.1 L -361.4 2408.2 L -345.7 2417.8 L -334.1 2428.4 L -331.0 2433.6" stroke="#fff" stroke-width="2.2" fill="none" stroke-linecap="round" stroke-linejoin="round"/>
<path d="M 252.6 714.3 L 357.6 859.0" stroke="#fff" stroke-width="2.2" fill="none" stroke-linecap="round" stroke-linejoin="round"/>
<path d="M 362.9 1025.1 L 287.9 1018.9 L 235.3 1015.3 L 184.0 1011.9" stroke="#fff" stroke-width="2.2" fill="none" stroke-linecap="round" stroke-linejoin="round"/>
<path d="M 242.8 701.0 L 250.0 710.3" stroke="#fff" stroke-width="2.2" fill="none" stroke-linecap="round" stroke-linejoin="round"/>
<path d="M 184.0 1011.9 L 166.6 1010.4 L 55.9 1006.5 L 29.0 1002.5 L -314.3 980.2 L -839.9 947.6 L -893.5 944.3 L -923.1 942.3 L -1668.6 895.7 L -1914.8 876.4 L -2085.7 865.2 L -2124.4 862.9 L -2233.0 856.3 L -2497.5 837.3 L -2645.2 828.1 L -2652.7 827.6 L -2964.4 805.7 L -3383.8 781.7 L -3615.4 768.4 L -3757.9 758.6 L -4452.2 714.5 L -4455.2 714.3" stroke="#fff" stroke-width="2.2" fill="none" stroke-linecap="round" stroke-linejoin="round"/>
<path d="M 252.6 714.3 L 243.9 718.6 L 226.5 733.3 L 216.4 744.5 L 210.9 759.3 L 207.0 769.7 L 204.6 780.1 L 202.8 793.2 L 199.9 825.1 L 191.7 923.3 L 184.0 1011.9" stroke="#fff" stroke-width="2.2" fill="none" stroke-linecap="round" stroke-linejoin="round"/>
<path d="M 79.2 424.8 L 76.2 430.4 L 70.7 440.8 L 69.9 444.8 L 69.9 448.7 L 70.9 453.8 L 73.4 459.1 L 95.4 488.8 L 143.6 555.5 L 189.7 621.1 L 209.2 649.0 L 227.8 675.7 L 237.7 690.1 L 240.9 698.7" stroke="#fff" stroke-width="2.2" fill="none" stroke-linecap="round" stroke-linejoin="round"/>
<path d="M 5050.9 2311.2 L 4879.0 2260.4 L 3814.8 1957.3 L 2889.7 1693.0 L 2847.8 1681.0 L 2840.0 1678.8 L 2737.9 1649.6 L 2706.9 1640.7 L 2687.0 1635.0 L 2529.5 1590.0 L 2097.6 1466.6 L 2090.5 1463.7 L 2055.2 1449.3 L 1794.6 1375.2 L 1675.4 1341.3 L 1625.6 1327.1 L 1473.9 1283.9 L 1421.7 1268.7 L 1417.0 1267.3 L 1319.7 1238.9 L 1292.8 1231.1 L 1189.3 1200.9 L 1097.2 1174.1 L 1074.5 1167.5 L 880.1 1112.0 L 658.9 1045.8 L 579.5 1035.7 L 563.4 1035.6" stroke="#fff" stroke-width="2.2" fill="none" stroke-linecap="round" stroke-linejoin="round"/>
<path d="M 250.0 710.3 L 252.6 714.3" stroke="#fff" stroke-width="2.2" fill="none" stroke-linecap="round" stroke-linejoin="round"/>
<path d="M 242.8 701.0 L 240.9 698.7" stroke="#fff" stroke-width="2.2" fill="none" stroke-linecap="round" stroke-linejoin="round"/>
<path d="M 563.4 1035.6 L 629.6 1014.3" stroke="#fff" stroke-width="2.2" fill="none" stroke-linecap="round" stroke-linejoin="round"/>
<path d="M 563.4 1035.6 L 521.2 1032.9 L 400.5 1028.7 L 362.9 1025.1" stroke="#fff" stroke-width="2.2" fill="none" stroke-linecap="round" stroke-linejoin="round"/>
    </g>
    <clipPath id="frame-clip">
      <rect x="94" y="94" width="2152" height="1216"/>
    </clipPath>
    
    <linearGradient id="fadeL" x1="0" y1="0" x2="1" y2="0">
      <stop offset="0" stop-color="#000"/><stop offset="1" stop-color="#000" stop-opacity="0"/>
    </linearGradient>
    <linearGradient id="fadeR" x1="1" y1="0" x2="0" y2="0">
      <stop offset="0" stop-color="#000"/><stop offset="1" stop-color="#000" stop-opacity="0"/>
    </linearGradient>
    <linearGradient id="fadeT" x1="0" y1="0" x2="0" y2="1">
      <stop offset="0" stop-color="#000"/><stop offset="1" stop-color="#000" stop-opacity="0"/>
    </linearGradient>
    <linearGradient id="fadeB" x1="0" y1="1" x2="0" y2="0">
      <stop offset="0" stop-color="#000"/><stop offset="1" stop-color="#000" stop-opacity="0"/>
    </linearGradient>
    <mask id="edge-fade" maskUnits="userSpaceOnUse" x="0" y="0" width="2340" height="1404">
      <rect width="2340" height="1404" fill="#fff"/>
      <rect x="0" y="0" width="94" height="1404" fill="url(#fadeL)"/>
      <rect x="2246" y="0" width="94" height="1404" fill="url(#fadeR)"/>
      <rect x="0" y="0" width="2340" height="94" fill="url(#fadeT)"/>
      <rect x="0" y="1310" width="2340" height="94" fill="url(#fadeB)"/>
      <rect x="94" y="94" width="2152" height="1216" fill="#000"/>
    </mask>
  </defs>
  <rect width="100%" height="100%" fill="#fff"/>
  <g mask="url(#edge-fade)">
    <use xlink:href="#mapart" href="#mapart"/>
  </g>
  <g clip-path="url(#frame-clip)">
    <use xlink:href="#mapart" href="#mapart"/>
    
    <g stroke="#000" fill="none" stroke-width="2.9952">
      <circle cx="1170" cy="702" r="16.848" fill="#fff" fill-opacity="0.7"/>
      <circle cx="1170" cy="702" r="3.744" fill="#000" stroke="none"/>
    </g>
  </g>
  
    <g transform="translate(2206, 154)" stroke="#000" stroke-width="2.2464" fill="#000">
      <line x1="0" y1="37.44" x2="0" y2="-37.44"/>
      <path d="M 0 -37.44 L 13.104 -13.104 L 0 -22.464 L -13.104 -13.104 Z"/>
      <text x="0" y="59.44" text-anchor="middle" font-family="Georgia, serif" font-size="22.464000000000002">N</text>
    </g>
  
    <g stroke="#000" stroke-width="2.2464" fill="#000" font-family="Georgia, serif">
      <line x1="134" y1="1270" x2="329" y2="1270"/>
      <line x1="134" y1="1263" x2="134" y2="1277"/>
      <line x1="231.5" y1="1266" x2="231.5" y2="1274"/>
      <line x1="329" y1="1263" x2="329" y2="1277"/>
      <text x="231.5" y="1256" text-anchor="middle" font-size="20.592" stroke="none">250 m</text>
    </g>
  <rect x="94" y="94" width="2152" height="1216" fill="none" stroke="#000" stroke-width="2" stroke-opacity="0.7"/>
  <rect x="102" y="102" width="2136" height="1200" fill="none" stroke="#000" stroke-width="1" stroke-opacity="0.4"/>
  
</svg>