<svg xmlns="http://www.w3.org/2000/svg" width="1872" height="1404" viewBox="0 0 1872 1404">
  <defs>
    <radialGradient id="vignette" cx="50%" cy="50%" r="954.72" gradientUnits="userSpaceOnUse">
      <stop offset="55%" stop-color="#fff" stop-opacity="0"/>
      <stop offset="100%" stop-color="#fff" stop-opacity="1"/>
    </radialGradient>
  </defs>
  <rect width="100%" height="100%" fill="#fff"/>
  <path d="M -1627.9 -982.1 L -1534.9 -892.7 L -1038.1 -637.8 L -1022.7 -629.1 L -1010.0 -621.3 L -997.2 -611.9 L -984.8 -600.2 L -965.1 -576.3 L -916.5 -499.0 L -873.4 -430.6 L -854.2 -400.2 L -785.6 -290.3 L -779.9 -281.5 L -779.9 -252.5 L -790.3 -221.1 L -797.2 -200.4 L -826.9 -110.6 L -834.3 -88.3 L -819.8 -42.4 L -764.3 13.1 L -761.8 15.6 L -752.3 20.6 L -676.7 60.1 L -599.9 100.2 L -562.4 128.4 L -376.5 246.3 L -224.6 334.4 L -186.1 363.2 L -75.4 454.5 L -19.1 497.8 L 128.1 563.5 L 147.8 567.8 L 179.8 563.0 L 201.5 555.5 L 226.0 550.4 L 245.3 552.7 L 293.5 570.4 L 352.8 594.9" stroke="#000" stroke-width="1.3" stroke-opacity="0.8" fill="none" stroke-linecap="round" stroke-linejoin="round"/>
<path d="M 396.6 659.7 L 447.8 637.4 L 461.1 634.0 L 493.3 631.6 L 503.3 629.0 L 555.5 612.9 L 565.2 610.5 L 619.8 593.4 L 664.7 579.4 L 710.1 561.7 L 718.1 556.2 L 738.9 542.4 L 749.2 538.6 L 765.9 537.9 L 776.4 535.3 L 807.4 523.5 L 842.7 510.6 L 852.9 506.0 L 894.3 480.0 L 905.4 494.4 L 926.2 502.9 L 954.0 515.0" stroke="#000" stroke-width="1.3" stroke-opacity="0.8" fill="none" stroke-linecap="round" stroke-linejoin="round"/>
<path d="M 508.8 746.2 L 546.6 726.8 L 584.0 705.3 L 682.8 648.7 L 693.9 642.3 L 809.0 576.3 L 844.1 558.8 L 905.4 494.4" stroke="#000" stroke-width="1.3" stroke-opacity="0.8" fill="none" stroke-linecap="round" stroke-linejoin="round"/>
<path d="M 493.8 661.8 L 511.4 656.9 L 558.8 643.6 L 575.4 637.8 L 629.9 622.5 L 679.4 608.7" stroke="#000" stroke-width="1.3" stroke-opacity="0.8" fill="none" stroke-linecap="round" stroke-linejoin="round"/>
<path d="M 664.7 579.4 L 679.4 608.7 L 683.8 618.8 L 693.9 642.3" stroke="#000" stroke-width="1.3" stroke-opacity="0.8" fill="none" stroke-linecap="round" stroke-linejoin="round"/>
<path d="M 683.8 618.8 L 731.8 593.4 L 805.1 549.6 L 842.7 510.6" stroke="#000" stroke-width="1.3" stroke-opacity="0.8" fill="none" stroke-linecap="round" stroke-linejoin="round"/>
<path d="M 558.8 643.6 L 569.4 669.5 L 584.0 705.3" stroke="#000" stroke-width="1.3" stroke-opacity="0.8" fill="none" stroke-linecap="round" stroke-linejoin="round"/>
<path d="M 569.4 669.5 L 484.8 703.3" stroke="#000" stroke-width="1.3" stroke-opacity="0.8" fill="none" stroke-linecap="round" stroke-linejoin="round"/>
<path d="M 508.8 746.2 L 484.8 703.3 L 479.8 695.2 L 477.1 691.1 L 473.6 685.7 L 469.0 683.3 L 465.0 684.6 L 459.1 686.8 L 452.8 686.9 L 444.5 685.0 L 429.4 682.7 L 409.9 678.5" stroke="#000" stroke-width="1.3" stroke-opacity="0.8" fill="none" stroke-linecap="round" stroke-linejoin="round"/>
<path d="M 485.0 757.7 L 472.0 761.0 L 441.3 770.5 L 413.4 781.3 L 382.4 792.3 L 330.5 811.8 L 323.0 814.6 L 309.4 824.9" stroke="#000" stroke-width="1.3" stroke-opacity="0.8" fill="none" stroke-linecap="round" stroke-linejoin="round"/>
<path d="M 382.4 792.3 L 371.6 763.6 L 374.6 752.5 L 405.9 726.2 L 432.2 742.4 L 441.3 770.5" stroke="#000" stroke-width="1.3" stroke-opacity="0.8" fill="none" stroke-linecap="round" stroke-linejoin="round"/>
<path d="M 405.9 726.2 L 404.2 721.7 L 398.3 672.5 L 396.6 659.7" stroke="#000" stroke-width="1.3" stroke-opacity="0.8" fill="none" stroke-linecap="round" stroke-linejoin="round"/>
<path d="M 330.5 811.8 L 348.9 745.8 L 355.4 732.5 L 382.4 709.2 L 389.1 709.8 L 404.2 721.7" stroke="#000" stroke-width="1.3" stroke-opacity="0.8" fill="none" stroke-linecap="round" stroke-linejoin="round"/>
<path d="M 309.4 824.9 L 307.4 831.4 L 298.0 860.2 L 291.9 879.0 L 218.0 917.5 L 183.6 935.8" stroke="#000" stroke-width="1.3" stroke-opacity="0.8" fill="none" stroke-linecap="round" stroke-linejoin="round"/>
<path d="M 183.6 935.8 L 155.2 896.9 L 150.0 895.9 L 144.7 894.8 L 134.3 879.6 L 131.0 874.8 L 115.2 858.0 L 117.3 831.7 L 118.6 827.1 L 123.4 819.9 L 131.4 815.7 L 159.4 804.4 L 173.6 799.6 L 184.0 797.2 L 195.4 795.2 L 204.1 794.2 L 223.6 789.7 L 232.6 785.5 L 237.0 781.4 L 240.3 776.3 L 268.5 717.1 L 272.7 712.6 L 277.2 710.2 L 285.4 708.3 L 293.0 708.7 L 309.8 715.0 L 313.5 715.0 L 318.5 712.2 L 319.9 690.1 L 321.5 685.4 L 327.0 680.2 L 344.5 671.2 L 389.7 647.8" stroke="#000" stroke-width="1.3" stroke-opacity="0.8" fill="none" stroke-linecap="round" stroke-linejoin="round"/>
<path d="M 313.5 715.0 L 308.4 730.9 L 279.3 823.2 L 272.3 845.4" stroke="#000" stroke-width="1.3" stroke-opacity="0.8" fill="none" stroke-linecap="round" stroke-linejoin="round"/>
<path d="M 272.3 845.4 L 247.6 841.7 L 200.2 854.8 L 131.0 874.8" stroke="#000" stroke-width="1.3" stroke-opacity="0.8" fill="none" stroke-linecap="round" stroke-linejoin="round"/>
<path d="M 150.0 895.9 L 208.6 878.2 L 244.6 867.6 L 253.1 865.1 L 298.0 860.2" stroke="#000" stroke-width="1.3" stroke-opacity="0.8" fill="none" stroke-linecap="round" stroke-linejoin="round"/>
<path d="M 291.9 879.0 L 346.9 873.3 L 399.1 897.1" stroke="#000" stroke-width="1.3" stroke-opacity="0.8" fill="none" stroke-linecap="round" stroke-linejoin="round"/>
<path d="M 308.4 730.9 L 334.9 740.5 L 348.9 745.8" stroke="#000" stroke-width="1.3" stroke-opacity="0.8" fill="none" stroke-linecap="round" stroke-linejoin="round"/>
<path d="M 318.5 712.2 L 335.0 713.4 L 337.3 715.6 L 339.5 717.7 L 339.8 724.1 L 334.9 740.5 L 309.4 824.9" stroke="#000" stroke-width="1.3" stroke-opacity="0.8" fill="none" stroke-linecap="round" stroke-linejoin="round"/>
<path d="M 517.4 844.5 L 399.1 897.1 L 348.0 919.6 L 214.8 997.9 L 175.4 1018.9 L 164.4 1021.1" stroke="#000" stroke-width="1.3" stroke-opacity="0.8" fill="none" stroke-linecap="round" stroke-linejoin="round"/>
<path d="M 191.5 1279.4 L 220.8 1265.6 L 270.2 1192.8 L 322.4 1153.0 L 341.6 1133.3 L 381.9 1110.5 L 414.0 1071.1 L 423.6 1070.2 L 444.4 1075.4 L 521.1 1094.9" stroke="#000" stroke-width="1.3" stroke-opacity="0.8" fill="none" stroke-linecap="round" stroke-linejoin="round"/>
<path d="M 485.0 757.7 L 490.5 762.9 L 492.8 767.3 L 505.7 803.1 L 517.4 844.5 L 518.9 949.6 L 519.3 975.4 L 520.2 1038.4 L 521.1 1094.9 L 493.1 1303.2" stroke="#000" stroke-width="1.3" stroke-opacity="0.8" fill="none" stroke-linecap="round" stroke-linejoin="round"/>
<path d="M 519.3 975.4 L 564.4 978.5 L 570.7 979.0 L 639.6 983.7 L 660.2 963.1 L 679.7 922.9 L 682.6 915.7 L 689.7 900.2 L 701.9 882.5 L 726.0 865.4 L 742.6 853.7 L 772.1 826.9 L 818.6 786.6 L 862.7 768.7 L 872.3 766.3 L 873.7 760.0 L 877.4 740.1 L 883.3 693.0 L 887.9 668.1 L 892.9 650.8 L 899.4 636.1 L 914.2 609.3 L 938.5 547.8 L 954.0 515.0" stroke="#000" stroke-width="1.3" stroke-opacity="0.8" fill="none" stroke-linecap="round" stroke-linejoin="round"/>
<path d="M 682.8 648.7 L 696.9 678.5 L 666.1 694.5 L 658.4 711.2 L 626.2 728.5 L 603.3 748.3 L 589.4 743.1 L 561.3 754.2 L 546.6 726.8" stroke="#000" stroke-width="1.3" stroke-opacity="0.8" fill="none" stroke-linecap="round" stroke-linejoin="round"/>
<path d="M 561.3 754.2 L 530.4 774.3" stroke="#000" stroke-width="1.3" stroke-opacity="0.8" fill="none" stroke-linecap="round" stroke-linejoin="round"/>
<path d="M 508.8 746.2 L 530.4 774.3 L 541.5 793.0 L 575.2 772.6 L 603.3 748.3" stroke="#000" stroke-width="1.3" stroke-opacity="0.8" fill="none" stroke-linecap="round" stroke-linejoin="round"/>
<path d="M 899.4 636.1 L 962.2 608.1 L 1013.4 588.2 L 1036.6 579.2 L 1051.9 572.3" stroke="#000" stroke-width="1.3" stroke-opacity="0.8" fill="none" stroke-linecap="round" stroke-linejoin="round"/>
<path d="M 954.0 515.0 L 961.7 510.3 L 972.1 498.7 L 978.4 493.2 L 983.0 490.5 L 988.6 489.5 L 994.5 489.7 L 1000.4 491.2 L 1027.0 492.2 L 1041.3 491.4 L 1049.2 491.8 L 1053.6 494.0 L 1056.6 497.7 L 1058.4 504.9 L 1058.2 513.2 L 1059.0 522.6 L 1060.9 532.5 L 1063.5 543.4 L 1063.7 545.7 L 1063.5 549.0 L 1062.6 554.0 L 1060.8 558.0 L 1058.2 563.4 L 1055.7 567.6 L 1051.9 572.3" stroke="#000" stroke-width="1.3" stroke-opacity="0.8" fill="none" stroke-linecap="round" stroke-linejoin="round"/>
<path d="M 1027.0 492.2 L 1017.4 569.0 L 1013.4 588.2" stroke="#000" stroke-width="1.3" stroke-opacity="0.8" fill="none" stroke-linecap="round" stroke-linejoin="round"/>
<path d="M 1000.4 491.2 L 990.2 563.0 L 989.3 566.9 L 988.8 568.8 L 987.8 571.0 L 986.4 572.4 L 984.1 573.8 L 978.8 576.3 L 974.2 578.2 L 971.7 578.8 L 969.1 579.2 L 966.7 579.2 L 964.3 579.1 L 959.4 578.0" stroke="#000" stroke-width="1.3" stroke-opacity="0.8" fill="none" stroke-linecap="round" stroke-linejoin="round"/>
<path d="M 938.5 547.8 L 965.7 555.2" stroke="#000" stroke-width="1.3" stroke-opacity="0.8" fill="none" stroke-linecap="round" stroke-linejoin="round"/>
<path d="M 959.4 578.0 L 957.6 585.5 L 957.4 591.0 L 958.4 598.9 L 962.2 608.1" stroke="#000" stroke-width="1.3" stroke-opacity="0.8" fill="none" stroke-linecap="round" stroke-linejoin="round"/>
<path d="M 887.9 668.1 L 900.3 672.5 L 912.1 674.4 L 919.8 675.5 L 923.6 675.7 L 927.5 674.8 L 935.0 671.5 L 959.8 657.6 L 985.9 643.7 L 999.7 639.8 L 1078.6 614.2 L 1087.6 612.1 L 1102.5 609.3 L 1109.2 608.8 L 1116.1 610.2" stroke="#000" stroke-width="1.3" stroke-opacity="0.8" fill="none" stroke-linecap="round" stroke-linejoin="round"/>
<path d="M 1087.6 612.1 L 1099.1 653.7 L 1099.6 658.0 L 1099.2 660.1 L 1097.9 662.5 L 1095.2 665.1 L 1041.2 681.4 L 1029.2 680.9 L 1022.1 679.5 L 1018.3 675.8 L 1011.5 663.6 L 999.7 639.8" stroke="#000" stroke-width="1.3" stroke-opacity="0.8" fill="none" stroke-linecap="round" stroke-linejoin="round"/>
<path d="M 1011.5 663.6 L 980.9 678.6" stroke="#000" stroke-width="1.3" stroke-opacity="0.8" fill="none" stroke-linecap="round" stroke-linejoin="round"/>
<path d="M 564.4 978.5 L 569.2 947.8 L 577.4 947.8 L 623.0 948.1 L 640.0 924.1 L 647.9 919.7 L 679.7 922.9" stroke="#000" stroke-width="1.3" stroke-opacity="0.8" fill="none" stroke-linecap="round" stroke-linejoin="round"/>
<path d="M 639.6 983.7 L 664.7 984.6 L 681.6 991.8 L 697.9 992.7 L 737.1 997.6" stroke="#000" stroke-width="1.3" stroke-opacity="0.8" fill="none" stroke-linecap="round" stroke-linejoin="round"/>
<path d="M 577.4 947.8 L 578.0 921.8 L 608.2 917.6 L 635.4 906.4 L 642.6 905.2 L 647.9 919.7" stroke="#000" stroke-width="1.3" stroke-opacity="0.8" fill="none" stroke-linecap="round" stroke-linejoin="round"/>
<path d="M 518.9 949.6 L 488.5 946.6 L 451.7 945.4 L 405.9 959.4 L 387.3 957.1 L 373.4 958.7 L 362.9 965.8" stroke="#000" stroke-width="1.3" stroke-opacity="0.8" fill="none" stroke-linecap="round" stroke-linejoin="round"/>
<path d="M 520.2 1038.4 L 571.4 1035.3 L 673.0 1029.2 L 703.2 1036.5 L 716.0 1051.2 L 719.7 1059.6 L 726.1 1074.1 L 740.1 1100.4 L 757.2 1132.7 L 789.7 1172.7 L 804.8 1186.7 L 841.4 1202.2 L 914.7 1212.3 L 969.6 1216.9 L 1105.1 1203.2 L 1290.9 1182.1 L 1499.6 1144.6 L 1673.6 1109.8 L 1698.3 1108.0 L 1723.0 1116.2 L 1746.8 1135.4 L 1759.6 1158.3 L 1761.4 1191.3 L 1768.8 1224.2 L 1786.2 1256.3 L 1817.3 1271.8 L 1862.1 1274.6 L 1910.7 1276.4 L 1943.6 1277.3 L 1972.9 1284.6 L 2013.2 1300.2 L 2054.4 1314.8 L 2083.7 1318.5 L 2118.5 1318.5 L 2219.2 1302.9 L 2327.2 1270.9 L 2425.1 1236.1 L 2489.2 1214.1 L 2513.0 1203.2 L 2527.7 1185.8 L 2565.2 1134.5 L 2600.9 1094.2 L 2638.4 1065.8 L 2681.5 1032.9 L 2790.4 903.8 L 2870.0 805.9 L 2887.4 773.8 L 2925.9 662.1 L 2941.5 637.4 L 2964.3 621.9 L 3015.6 600.8 L 3038.5 589.8 L 3055.9 572.4 L 3110.8 495.5 L 3167.6 432.4 L 3226.1 371.0 L 3250.9 360.0 L 3275.6 355.5 L 3305.8 364.6 L 3321.4 382.9 L 3496.2 566.9 L 3520.9 616.4 L 3544.7 663.0 L 3580.4 708.8 L 3621.6 727.1 L 3655.5 729.0 L 3713.2 718.0 L 3737.0 697.8 L 3774.5 642.0 L 3819.4 537.6" stroke="#000" stroke-width="1.3" stroke-opacity="0.8" fill="none" stroke-linecap="round" stroke-linejoin="round"/>
<path d="M 398.3 672.5 L 356.9 702.0 L 337.3 715.6" stroke="#000" stroke-width="1.3" stroke-opacity="0.8" fill="none" stroke-linecap="round" stroke-linejoin="round"/>
<path d="M 511.4 656.9 L 503.3 629.0" stroke="#000" stroke-width="0.7" stroke-opacity="0.55" fill="none" stroke-linecap="round" stroke-linejoin="round"/>
<path d="M 575.4 637.8 L 565.2 610.5" stroke="#000" stroke-width="1.3" stroke-opacity="0.8" fill="none" stroke-linecap="round" stroke-linejoin="round"/>
<path d="M 477.1 691.1 L 484.1 686.1 L 487.4 683.4 L 489.0 680.9 L 489.3 677.9 L 488.1 674.5 L 487.0 670.4 L 486.9 667.3 L 487.5 664.9 L 488.9 663.4 L 493.8 661.8" stroke="#000" stroke-width="1.3" stroke-opacity="0.8" fill="none" stroke-linecap="round" stroke-linejoin="round"/>
<path d="M 719.7 1059.6 L 728.9 1048.8 L 736.4 1032.8 L 740.0 1013.0 L 737.1 997.6" stroke="#000" stroke-width="0.5" stroke-opacity="0.35" fill="none" stroke-linecap="round" stroke-linejoin="round"/>
<path d="M 740.1 1100.4 L 730.7 1124.9 L 727.0 1180.3 L 723.6 1185.1 L 715.3 1193.1 L 706.0 1199.7 L 691.5 1205.2 L 650.3 1210.7 L 635.5 1211.9 L 626.3 1213.9 L 619.9 1219.9 L 615.8 1230.6 L 614.2 1240.7 L 616.0 1247.8 L 620.6 1253.5 L 629.0 1260.4 L 638.2 1267.5 L 666.1 1302.9 L 692.2 1336.4 L 710.3 1355.4 L 719.5 1362.5 L 730.4 1382.4 L 732.7 1392.9 L 735.5 1400.0 L 742.3 1413.3 L 746.7 1429.1 L 746.2 1439.1 L 740.0 1454.0" stroke="#000" stroke-width="1.3" stroke-opacity="0.8" fill="none" stroke-linecap="round" stroke-linejoin="round"/>
<path d="M 689.7 900.2 L 677.1 880.7 L 661.4 858.7 L 656.7 855.5 L 651.1 856.6 L 565.9 889.8" stroke="#000" stroke-width="1.3" stroke-opacity="0.8" fill="none" stroke-linecap="round" stroke-linejoin="round"/>
<path d="M 444.4 1075.4 L 439.8 1154.2" stroke="#000" stroke-width="1.3" stroke-opacity="0.8" fill="none" stroke-linecap="round" stroke-linejoin="round"/>
<path d="M 570.7 979.0 L 571.4 1035.3" stroke="#000" stroke-width="1.3" stroke-opacity="0.8" fill="none" stroke-linecap="round" stroke-linejoin="round"/>
<path d="M 726.0 865.4 L 711.4 825.5 L 701.1 793.7 L 714.9 800.8 L 730.2 802.4 L 755.8 790.5 L 778.3 781.1 L 802.5 782.1 L 818.6 786.6" stroke="#000" stroke-width="1.3" stroke-opacity="0.8" fill="none" stroke-linecap="round" stroke-linejoin="round"/>
<path d="M 472.0 761.0 L 486.7 809.2 L 505.7 803.1" stroke="#000" stroke-width="0.7" stroke-opacity="0.55" fill="none" stroke-linecap="round" stroke-linejoin="round"/>
<path d="M 872.3 766.3 L 871.8 773.7 L 864.5 818.0 L 860.2 853.7 L 858.4 874.3 L 861.1 881.8 L 869.4 891.2 L 881.7 896.9 L 892.2 899.5 L 898.7 896.9 L 900.5 891.0 L 900.9 875.0 L 903.5 870.2 L 907.1 865.8 L 912.6 862.6 L 919.5 861.9" stroke="#000" stroke-width="1.3" stroke-opacity="0.8" fill="none" stroke-linecap="round" stroke-linejoin="round"/>
<path d="M 926.2 502.9 L 890.6 561.7" stroke="#000" stroke-width="1.3" stroke-opacity="0.8" fill="none" stroke-linecap="round" stroke-linejoin="round"/>
<path d="M 986.2 412.6 L 969.4 429.6 L 948.3 450.2 L 936.6 460.7 L 913.8 464.4" stroke="#000" stroke-width="1.3" stroke-opacity="0.8" fill="none" stroke-linecap="round" stroke-linejoin="round"/>
<path d="M 894.3 480.0 L 913.8 464.4 L 916.4 452.9 L 924.1 436.9 L 931.4 430.1 L 954.0 413.4 L 966.0 405.0 L 971.9 404.7 L 976.7 406.0 L 986.2 412.6 L 989.8 407.6 L 993.1 402.8 L 997.5 391.6 L 1008.7 361.9 L 1021.3 333.0 L 1043.5 293.4 L 1052.7 280.2 L 1047.2 258.9 L 1039.6 252.9 L 1033.7 248.6 L 1028.6 241.3 L 1014.0 195.3 L 1012.2 181.8 L 1014.7 172.4 L 1021.1 165.1 L 1028.6 133.5 L 1029.1 82.2 L 1030.9 63.9 L 1043.3 40.6 L 1065.3 20.9 L 1086.3 2.6 L 1102.8 -18.5 L 1106.0 -33.1 L 1107.8 -64.7 L 1111.9 -100.4 L 1122.5 -121.5 L 1164.1 -244.1 L 1178.8 -289.4" stroke="#000" stroke-width="1.3" stroke-opacity="0.8" fill="none" stroke-linecap="round" stroke-linejoin="round"/>
<path d="M 371.5 619.4 L 395.4 615.7 L 413.0 613.6 L 421.2 612.0 L 427.4 609.0" stroke="#000" stroke-width="1.3" stroke-opacity="0.8" fill="none" stroke-linecap="round" stroke-linejoin="round"/>
<path d="M 466.8 483.2 L 486.2 523.7 L 494.3 538.8 L 505.2 557.8 L 512.1 562.4" stroke="#000" stroke-width="1.3" stroke-opacity="0.8" fill="none" stroke-linecap="round" stroke-linejoin="round"/>
<path d="M 354.9 574.2 L 364.0 574.5 L 377.3 576.5 L 391.3 582.3 L 402.5 584.8 L 420.3 583.4 L 436.8 578.6 L 451.7 570.6 L 462.4 560.7 L 474.1 539.2 L 486.2 523.7 L 516.7 506.5 L 533.6 497.8 L 554.9 494.4 L 565.2 492.3 L 588.5 479.7 L 616.2 461.2 L 642.8 453.0 L 664.3 442.4 L 677.3 437.4 L 685.4 436.5 L 693.4 432.6 L 700.9 426.6 L 710.1 417.3 L 736.2 401.7" stroke="#000" stroke-width="1.3" stroke-opacity="0.8" fill="none" stroke-linecap="round" stroke-linejoin="round"/>
<path d="M 479.1 339.3 L 466.6 334.4 L 454.4 329.6 L 440.0 304.9 L 425.8 302.4" stroke="#000" stroke-width="1.3" stroke-opacity="0.8" fill="none" stroke-linecap="round" stroke-linejoin="round"/>
<path d="M 352.8 594.9 L 354.9 574.2 L 356.9 545.0 L 360.6 499.0 L 373.2 450.4 L 389.0 415.2 L 398.1 403.1 L 414.8 392.8 L 427.9 386.6 L 438.6 378.4 L 467.5 356.6 L 479.1 339.3 L 489.0 324.6 L 500.2 298.3 L 509.4 288.2 L 547.4 278.1" stroke="#000" stroke-width="1.3" stroke-opacity="0.8" fill="none" stroke-linecap="round" stroke-linejoin="round"/>
<path d="M 307.4 831.4 L 279.3 823.2" stroke="#000" stroke-width="1.3" stroke-opacity="0.8" fill="none" stroke-linecap="round" stroke-linejoin="round"/>
<path d="M 321.5 685.4 L 293.5 688.2" stroke="#000" stroke-width="1.3" stroke-opacity="0.8" fill="none" stroke-linecap="round" stroke-linejoin="round"/>
<path d="M 1051.9 572.3 L 1057.7 577.1 L 1060.5 579.6 L 1063.5 581.9 L 1068.0 584.8 L 1070.5 585.7 L 1073.2 586.3 L 1076.7 586.7 L 1080.2 586.6 L 1083.0 586.0 L 1085.8 585.1 L 1091.1 581.6 L 1092.7 580.7 L 1094.4 579.6 L 1095.6 578.2 L 1096.5 576.8 L 1097.1 575.2 L 1097.6 571.9 L 1097.6 568.8 L 1097.2 565.7 L 1096.7 562.6 L 1095.6 559.4 L 1093.8 556.5 L 1092.4 555.0 L 1090.9 553.6 L 1089.6 552.8 L 1088.1 552.2 L 1085.8 551.8 L 1083.3 552.1 L 1073.9 555.3 L 1070.5 556.4 L 1067.0 557.2 L 1063.6 557.8 L 1060.8 558.0" stroke="#000" stroke-width="1.3" stroke-opacity="0.8" fill="none" stroke-linecap="round" stroke-linejoin="round"/>
<path d="M 959.4 578.0 L 960.8 573.4 L 962.7 566.9 L 965.7 555.2 L 971.0 527.0 L 971.1 519.8 L 970.3 515.8 L 966.8 512.9 L 961.7 510.3" stroke="#000" stroke-width="1.3" stroke-opacity="0.8" fill="none" stroke-linecap="round" stroke-linejoin="round"/>
<path d="M 1213.9 526.4 L 1219.9 523.9 L 1224.6 522.6 L 1228.6 521.8 L 1232.9 520.3 L 1234.6 519.5 L 1236.0 518.3 L 1236.9 517.0 L 1237.5 515.6 L 1237.6 513.7 L 1237.3 512.5 L 1236.7 511.4 L 1232.8 508.8 L 1229.7 507.5 L 1226.8 506.1 L 1224.9 505.1 L 1223.2 503.9 L 1221.4 501.8 L 1220.2 499.3 L 1219.4 497.1 L 1219.0 494.7" stroke="#000" stroke-width="0.7" stroke-opacity="0.55" fill="none" stroke-linecap="round" stroke-linejoin="round"/>
<path d="M 1204.4 491.0 L 1216.6 494.4 L 1219.0 494.7 L 1221.6 495.0 L 1226.5 495.4 L 1232.4 495.4 L 1238.3 495.1 L 1242.3 494.4 L 1246.2 493.3 L 1250.0 491.9 L 1266.7 485.1 L 1288.2 471.7 L 1302.4 464.2" stroke="#000" stroke-width="1.3" stroke-opacity="0.8" fill="none" stroke-linecap="round" stroke-linejoin="round"/>
<path d="M 1111.8 333.6 L 1109.0 338.7 L 1107.4 343.8 L 1106.3 349.3 L 1105.8 354.8 L 1105.1 366.8 L 1104.5 370.3 L 1103.3 373.7 L 1101.4 376.9 L 1099.1 379.8 L 1090.6 391.0 L 1083.8 400.8 L 1081.7 404.8 L 1080.1 409.0 L 1078.9 414.0 L 1078.2 419.1 L 1074.9 442.0 L 1075.0 446.3 L 1075.9 451.7 L 1081.2 464.3 L 1086.8 477.6" stroke="#000" stroke-width="1.3" stroke-opacity="0.8" fill="none" stroke-linecap="round" stroke-linejoin="round"/>
<path d="M 1127.6 507.0 L 1154.2 493.4 L 1156.0 492.2 L 1157.5 490.6 L 1158.2 489.4 L 1158.7 488.0 L 1159.0 485.3 L 1158.8 483.3 L 1158.3 481.3 L 1155.5 473.3 L 1155.1 471.7 L 1154.9 470.0 L 1155.0 468.5 L 1155.3 467.0" stroke="#000" stroke-width="1.3" stroke-opacity="0.8" fill="none" stroke-linecap="round" stroke-linejoin="round"/>
<path d="M 1058.4 504.9 L 1062.9 503.2 L 1067.2 500.9 L 1070.3 498.7 L 1073.2 496.2 L 1074.8 494.2 L 1076.2 491.9 L 1077.2 489.5 L 1078.4 486.3 L 1080.2 483.4 L 1082.4 480.8 L 1084.5 479.1 L 1086.8 477.6 L 1089.3 476.5 L 1107.7 469.0 L 1113.4 467.2 L 1119.2 465.8 L 1124.7 465.0 L 1130.3 464.5 L 1135.2 464.1 L 1140.2 464.1 L 1145.1 464.6 L 1150.4 465.5 L 1155.3 467.0 L 1160.1 468.9 L 1164.8 471.3 L 1169.2 474.1 L 1172.8 477.7 L 1176.9 480.9 L 1181.5 483.5 L 1186.4 485.6 L 1195.2 488.7 L 1204.4 491.0" stroke="#000" stroke-width="1.3" stroke-opacity="0.8" fill="none" stroke-linecap="round" stroke-linejoin="round"/>
<path d="M 789.7 1172.7 L 787.7 1177.1 L 789.5 1185.1 L 795.9 1200.0 L 801.4 1211.4 L 805.3 1222.6 L 807.6 1234.7 L 809.6 1253.7 L 811.0 1262.9 L 812.4 1269.5 L 820.6 1278.2 L 846.0 1305.7 L 860.9 1325.6 L 881.5 1345.7" stroke="#000" stroke-width="1.3" stroke-opacity="0.8" fill="none" stroke-linecap="round" stroke-linejoin="round"/>
<path d="M 344.5 671.2 L 335.3 658.0 L 329.9 653.9 L 322.8 650.9 L 315.4 649.2 L 309.1 649.7 L 302.5 652.4 L 292.2 659.3 L 287.3 666.0 L 285.9 669.8" stroke="#000" stroke-width="1.3" stroke-opacity="0.8" fill="none" stroke-linecap="round" stroke-linejoin="round"/>
<path d="M 629.9 622.5 L 619.8 593.4" stroke="#000" stroke-width="1.3" stroke-opacity="0.8" fill="none" stroke-linecap="round" stroke-linejoin="round"/>
<path d="M 461.1 634.0 L 462.2 630.8 L 465.9 627.7 L 475.8 617.2 L 485.7 604.9 L 489.1 599.8 L 491.4 597.7 L 494.1 597.2" stroke="#000" stroke-width="0.7" stroke-opacity="0.55" fill="none" stroke-linecap="round" stroke-linejoin="round"/>
<path d="M 546.7 577.5 L 548.4 587.9 L 550.9 600.4 L 555.5 612.9" stroke="#000" stroke-width="0.7" stroke-opacity="0.55" fill="none" stroke-linecap="round" stroke-linejoin="round"/>
<path d="M 969.4 429.6 L 954.0 413.4" stroke="#000" stroke-width="1.3" stroke-opacity="0.8" fill="none" stroke-linecap="round" stroke-linejoin="round"/>
<path d="M 671.6 546.7 L 660.3 552.4 L 657.1 554.1 L 655.6 556.4 L 655.4 558.6 L 660.5 571.4 L 664.7 579.4" stroke="#000" stroke-width="1.3" stroke-opacity="0.8" fill="none" stroke-linecap="round" stroke-linejoin="round"/>
<path d="M 1111.8 333.6 L 1116.5 327.7 L 1121.0 319.9 L 1122.9 315.3 L 1125.6 305.1 L 1131.2 269.4 L 1132.5 262.1 L 1130.7 258.2 L 1128.4 256.6 L 1122.5 256.4 L 1112.6 259.1 L 1096.8 264.2 L 1085.9 266.7 L 1068.0 273.5 L 1052.7 280.2" stroke="#000" stroke-width="1.3" stroke-opacity="0.8" fill="none" stroke-linecap="round" stroke-linejoin="round"/>
<path d="M 971.9 381.1 L 997.5 391.6" stroke="#000" stroke-width="0.7" stroke-opacity="0.55" fill="none" stroke-linecap="round" stroke-linejoin="round"/>
<path d="M 931.4 430.1 L 948.3 450.2" stroke="#000" stroke-width="1.3" stroke-opacity="0.8" fill="none" stroke-linecap="round" stroke-linejoin="round"/>
<path d="M 842.1 479.3 L 852.9 506.0" stroke="#000" stroke-width="0.7" stroke-opacity="0.55" fill="none" stroke-linecap="round" stroke-linejoin="round"/>
<path d="M 799.3 508.7 L 807.4 523.5" stroke="#000" stroke-width="0.7" stroke-opacity="0.55" fill="none" stroke-linecap="round" stroke-linejoin="round"/>
<path d="M 494.1 597.2 L 494.7 598.2 L 495.5 602.9 L 498.0 615.3 L 503.3 629.0" stroke="#000" stroke-width="0.7" stroke-opacity="0.55" fill="none" stroke-linecap="round" stroke-linejoin="round"/>
<path d="M 485.0 757.7 L 508.8 746.2" stroke="#000" stroke-width="1.3" stroke-opacity="0.8" fill="none" stroke-linecap="round" stroke-linejoin="round"/>
<path d="M 409.9 678.5 L 424.4 694.5 L 452.5 718.4 L 459.2 727.2 L 472.9 750.1 L 475.0 752.6 L 476.9 754.0 L 485.0 757.7" stroke="#000" stroke-width="1.3" stroke-opacity="0.8" fill="none" stroke-linecap="round" stroke-linejoin="round"/>
<path d="M 352.8 594.9 L 361.6 603.9 L 371.5 619.4 L 389.7 647.8 L 396.6 659.7 L 409.9 678.5" stroke="#000" stroke-width="1.3" stroke-opacity="0.8" fill="none" stroke-linecap="round" stroke-linejoin="round"/>
  
    <g stroke="#000" fill="none" stroke-width="2.9952">
      <circle cx="936" cy="702" r="16.848"/>
      <circle cx="936" cy="702" r="3.744" fill="#000" stroke="none"/>
    </g>
  <rect width="100%" height="100%" fill="url(#vignette)"/>
  
    <g transform="translate(1776, 116)" stroke="#000" stroke-width="2.2464" fill="#000">
      <line x1="0" y1="37.44" x2="0" y2="-37.44"/>
      <path d="M 0 -37.44 L 13.104 -13.104 L 0 -22.464 L -13.104 -13.104 Z"/>
      <text x="0" y="59.44" text-anchor="middle" font-family="Georgia, serif" font-size="22.464000000000002">N</text>
    </g>
  <rect x="66" y="66" width="1740" height="1272" fill="none" stroke="#000" stroke-width="2" stroke-opacity="0.7"/>
  <rect x="74" y="74" width="1724" height="1256" fill="none" stroke="#000" stroke-width="1" stroke-opacity="0.4"/>
  
</svg>