<svg xmlns="http://www.w3.org/2000/svg" width="1872" height="1404" viewBox="0 0 1872 1404">
  <defs>
    <radialGradient id="vignette" cx="50%" cy="50%" r="954.72" gradientUnits="userSpaceOnUse">
      <stop offset="55%" stop-color="#fff" stop-opacity="0"/>
      <stop offset="100%" stop-color="#fff" stop-opacity="1"/>
    </radialGradient>
  </defs>
  <rect width="100%" height="100%" fill="#fff"/>
  <path d="M 1379.9 446.3 L 1382.8 487.3 L 1386.3 537.0" stroke="#000" stroke-width="1.3" stroke-opacity="0.8" fill="none" stroke-linecap="round" stroke-linejoin="round"/>
<path d="M 1509.2 635.1 L 1509.6 640.6" stroke="#000" stroke-width="1.3" stroke-opacity="0.8" fill="none" stroke-linecap="round" stroke-linejoin="round"/>
<path d="M 1269.2 239.2 L 1244.4 236.7 L 1207.8 232.6 L 1169.9 228.5 L 1098.3 220.8 L 1096.6 220.7" stroke="#000" stroke-width="1.3" stroke-opacity="0.8" fill="none" stroke-linecap="round" stroke-linejoin="round"/>
<path d="M 1569.2 910.0 L 1541.4 919.3 L 1534.2 921.8 L 1498.8 933.6 L 1433.6 955.4" stroke="#000" stroke-width="1.3" stroke-opacity="0.8" fill="none" stroke-linecap="round" stroke-linejoin="round"/>
<path d="M 1462.8 820.0 L 1481.3 878.3 L 1489.0 902.5 L 1498.8 933.6" stroke="#000" stroke-width="1.3" stroke-opacity="0.8" fill="none" stroke-linecap="round" stroke-linejoin="round"/>
<path d="M 1349.7 712.5 L 1342.8 707.2 L 1340.7 700.4 L 1338.1 693.7 L 1325.3 650.6 L 1316.5 611.8 L 1307.5 581.6 L 1297.4 556.5" stroke="#000" stroke-width="1.3" stroke-opacity="0.8" fill="none" stroke-linecap="round" stroke-linejoin="round"/>
<path d="M 1304.2 721.3 L 1311.7 729.7 L 1349.7 712.5 L 1372.9 701.8 L 1407.7 687.2 L 1414.1 684.2 L 1431.9 676.1 L 1455.0 664.1 L 1458.5 657.5" stroke="#000" stroke-width="0.7" stroke-opacity="0.55" fill="none" stroke-linecap="round" stroke-linejoin="round"/>
<path d="M 1393.9 817.4 L 1417.4 806.6 L 1439.8 794.5" stroke="#000" stroke-width="1.3" stroke-opacity="0.8" fill="none" stroke-linecap="round" stroke-linejoin="round"/>
<path d="M 1344.6 222.2 L 1347.4 262.8 L 1348.2 297.2 L 1349.3 330.6 L 1350.1 368.0 L 1353.2 387.8 L 1354.1 456.9" stroke="#000" stroke-width="1.3" stroke-opacity="0.8" fill="none" stroke-linecap="round" stroke-linejoin="round"/>
<path d="M 1466.4 327.5 L 1470.9 354.7 L 1484.8 399.9 L 1511.0 487.2 L 1521.1 523.7 L 1521.0 528.1 L 1517.7 530.9 L 1509.6 534.6 L 1494.5 540.3" stroke="#000" stroke-width="1.3" stroke-opacity="0.8" fill="none" stroke-linecap="round" stroke-linejoin="round"/>
<path d="M 1837.0 345.8 L 1874.9 329.6 L 1905.7 316.4 L 1974.5 281.7 L 1946.3 218.4 L 1933.7 189.9 L 1878.9 189.2 L 1870.4 188.6 L 1851.5 187.2 L 1830.2 186.8 L 1778.0 210.8 L 1710.4 239.8 L 1619.3 280.9 L 1573.8 298.7 L 1539.0 310.7 L 1500.2 323.6 L 1466.4 327.5" stroke="#000" stroke-width="1.3" stroke-opacity="0.8" fill="none" stroke-linecap="round" stroke-linejoin="round"/>
<path d="M 1338.1 693.7 L 1282.2 713.7 L 1268.1 716.8 L 1207.4 721.5 L 1195.8 723.3 L 1156.6 722.9 L 1134.8 724.6 L 1130.3 724.6 L 1123.3 724.5 L 1086.7 725.9 L 1079.9 726.1 L 1049.8 727.2 L 1034.5 727.8 L 997.7 736.4 L 975.3 743.5 L 970.1 748.6" stroke="#000" stroke-width="1.3" stroke-opacity="0.8" fill="none" stroke-linecap="round" stroke-linejoin="round"/>
<path d="M 1261.7 941.7 L 1259.0 936.3 L 1235.7 889.5 L 1233.4 885.2 L 1216.5 843.6 L 1202.1 804.2 L 1196.6 782.3 L 1190.0 757.3 L 1190.3 739.2 L 1192.1 732.0 L 1195.8 723.3" stroke="#000" stroke-width="1.3" stroke-opacity="0.8" fill="none" stroke-linecap="round" stroke-linejoin="round"/>
<path d="M 1204.6 655.5 L 1177.2 650.5 L 1148.4 617.4 L 1122.1 586.7 L 1096.2 557.7" stroke="#000" stroke-width="1.3" stroke-opacity="0.8" fill="none" stroke-linecap="round" stroke-linejoin="round"/>
<path d="M 1183.1 439.6 L 1181.7 464.8 L 1181.3 487.0 L 1179.7 491.9 L 1189.2 528.4 L 1200.6 558.3 L 1201.8 573.7 L 1206.7 634.0" stroke="#000" stroke-width="1.3" stroke-opacity="0.8" fill="none" stroke-linecap="round" stroke-linejoin="round"/>
<path d="M 1119.0 839.5 L 1112.1 880.5 L 1109.4 936.3 L 1113.0 951.8 L 1118.2 983.0 L 1131.2 1036.6" stroke="#000" stroke-width="1.3" stroke-opacity="0.8" fill="none" stroke-linecap="round" stroke-linejoin="round"/>
<path d="M 1066.6 583.9 L 1072.7 591.9 L 1104.5 627.3 L 1128.1 652.5 L 1157.0 685.1" stroke="#000" stroke-width="1.3" stroke-opacity="0.8" fill="none" stroke-linecap="round" stroke-linejoin="round"/>
<path d="M 1142.5 416.8 L 1139.4 488.6 L 1134.8 575.6" stroke="#000" stroke-width="1.3" stroke-opacity="0.8" fill="none" stroke-linecap="round" stroke-linejoin="round"/>
<path d="M 1472.9 486.0 L 1481.8 508.8 L 1494.5 540.3 L 1503.7 563.5 L 1524.0 608.4 L 1525.6 611.8 L 1527.6 618.4 L 1530.1 624.5" stroke="#000" stroke-width="1.3" stroke-opacity="0.8" fill="none" stroke-linecap="round" stroke-linejoin="round"/>
<path d="M 1481.8 508.8 L 1386.3 537.0" stroke="#000" stroke-width="1.3" stroke-opacity="0.8" fill="none" stroke-linecap="round" stroke-linejoin="round"/>
<path d="M 1386.3 537.0 L 1388.7 572.0 L 1393.9 598.3 L 1396.1 604.4 L 1404.1 627.9 L 1407.4 638.0 L 1415.9 659.7 L 1417.8 665.6" stroke="#000" stroke-width="1.3" stroke-opacity="0.8" fill="none" stroke-linecap="round" stroke-linejoin="round"/>
<path d="M 1615.4 239.8 L 1577.0 237.4 L 1541.8 235.0 L 1433.7 228.0 L 1417.7 227.0 L 1383.4 224.7 L 1344.6 222.2 L 1305.0 219.6 L 1270.9 217.4 L 1237.0 214.2 L 1201.3 212.9 L 1165.3 210.5" stroke="#000" stroke-width="1.3" stroke-opacity="0.8" fill="none" stroke-linecap="round" stroke-linejoin="round"/>
<path d="M -3722.5 1919.1 L -3631.8 1911.8 L -3490.7 1890.0 L -3400.1 1876.3 L -3384.6 1874.1 L -3288.2 1858.3 L -3228.8 1851.2 L -3122.4 1851.7 L -3065.3 1861.4 L -2996.1 1881.0 L -2861.5 1918.6 L -2735.9 1931.4 L -2683.3 1930.6 L -2629.2 1928.4 L -2551.0 1926.1 L -2459.3 1925.4 L -2386.3 1923.9 L -2339.7 1922.4 L -2287.1 1920.9 L -2190.1 1915.6 L -2177.8 1914.7 L -2119.4 1910.3 L -2037.5 1890.7 L -1852.1 1854.8 L -1758.8 1835.0 L -1586.1 1799.8 L -1504.9 1784.8 L -1444.8 1774.3 L -1368.6 1760.8 L -1331.0 1758.6 L -1182.1 1763.8 L -1058.1 1781.1 L -990.4 1795.4 L -916.7 1806.7 L -873.1 1809.0 L -816.7 1796.2 L -763.3 1772.9 L -700.9 1739.8 L -279.1 1511.9 L -240.0 1484.1 L -197.1 1444.2 L -168.6 1414.9 L -132.5 1374.3 L -105.4 1348.7 L -74.6 1320.2 L -33.2 1294.6 L -6.2 1281.1 L 31.4 1264.5 L 91.6 1238.9 L 130.7 1214.9 L 183.3 1179.5 L 290.1 1094.6 L 368.5 1034.1 L 434.7 982.1 L 491.1 948.0 L 555.5 912.1 L 610.6 883.0 L 701.6 850.2 L 809.9 808.8" stroke="#000" stroke-width="3.6" stroke-opacity="1" fill="none" stroke-linecap="round" stroke-linejoin="round"/>
<path d="M 1291.9 421.1 L 1294.7 399.4 L 1294.7 390.5 L 1295.4 385.8" stroke="#000" stroke-width="1.3" stroke-opacity="0.8" fill="none" stroke-linecap="round" stroke-linejoin="round"/>
<path d="M 997.7 736.4 L 998.0 731.4 L 998.4 724.6 L 1000.2 694.6 L 1002.6 655.5 L 1003.4 641.4 L 1008.8 552.1 L 1017.2 414.5" stroke="#000" stroke-width="1.3" stroke-opacity="0.8" fill="none" stroke-linecap="round" stroke-linejoin="round"/>
<path d="M 1173.7 862.0 L 1216.5 843.6 L 1257.9 822.9 L 1289.4 808.7 L 1331.8 787.9 L 1374.6 768.3 L 1396.9 758.2 L 1438.4 733.7" stroke="#000" stroke-width="1.3" stroke-opacity="0.8" fill="none" stroke-linecap="round" stroke-linejoin="round"/>
<path d="M 1235.7 889.5 L 1282.9 870.2 L 1311.9 857.0 L 1354.2 835.3 L 1393.9 817.4" stroke="#000" stroke-width="1.3" stroke-opacity="0.8" fill="none" stroke-linecap="round" stroke-linejoin="round"/>
<path d="M 1197.3 382.7 L 1173.0 367.6 L 1164.6 362.4 L 1156.1 357.1" stroke="#000" stroke-width="1.3" stroke-opacity="0.8" fill="none" stroke-linecap="round" stroke-linejoin="round"/>
<path d="M 1252.2 350.9 L 1204.1 319.0" stroke="#000" stroke-width="1.3" stroke-opacity="0.8" fill="none" stroke-linecap="round" stroke-linejoin="round"/>
<path d="M 1246.4 419.6 L 1251.7 380.4 L 1252.2 350.9 L 1254.7 324.4" stroke="#000" stroke-width="1.3" stroke-opacity="0.8" fill="none" stroke-linecap="round" stroke-linejoin="round"/>
<path d="M 1034.9 610.8 L 1113.0 702.4 L 1123.8 715.4 L 1130.3 724.6" stroke="#000" stroke-width="1.3" stroke-opacity="0.8" fill="none" stroke-linecap="round" stroke-linejoin="round"/>
<path d="M 1050.2 595.4 L 1051.3 552.6 L 1053.1 483.9 L 1055.1 411.7" stroke="#000" stroke-width="1.3" stroke-opacity="0.8" fill="none" stroke-linecap="round" stroke-linejoin="round"/>
<path d="M 1353.2 387.8 L 1378.4 387.2 L 1378.8 404.6 L 1379.3 424.1 L 1379.9 446.3" stroke="#000" stroke-width="1.3" stroke-opacity="0.8" fill="none" stroke-linecap="round" stroke-linejoin="round"/>
<path d="M 1621.3 92.0 L 1544.2 85.4 L 1487.1 81.2 L 1436.6 77.6 L 1408.3 75.5 L 1385.3 73.8 L 1356.1 71.7 L 1347.7 71.0 L 1304.4 68.0 L 1293.2 67.1 L 1244.9 63.5 L 1233.9 62.7 L 1197.1 60.0 L 1184.3 59.1" stroke="#000" stroke-width="1.3" stroke-opacity="0.8" fill="none" stroke-linecap="round" stroke-linejoin="round"/>
<path d="M 1101.1 413.2 L 1105.6 413.2 L 1142.5 416.8 L 1169.1 417.5 L 1180.2 419.0 L 1213.0 417.6 L 1246.4 419.6" stroke="#000" stroke-width="1.3" stroke-opacity="0.8" fill="none" stroke-linecap="round" stroke-linejoin="round"/>
<path d="M 1126.1 822.5 L 1091.5 821.8 L 1055.8 822.5 L 1014.6 820.8 L 983.3 819.6 L 980.3 873.6 L 980.6 953.8 L 979.9 986.4 L 979.7 996.0 L 979.2 1024.1 L 997.3 1024.5 L 998.7 954.5" stroke="#000" stroke-width="1.3" stroke-opacity="0.8" fill="none" stroke-linecap="round" stroke-linejoin="round"/>
<path d="M 974.7 754.8 L 980.3 761.3 L 1014.1 751.7 L 1016.3 780.1 L 1014.6 820.8 L 1013.4 873.5 L 1015.0 907.7 L 1015.9 927.2 L 1014.7 955.1 L 1012.6 1007.7 L 1012.6 1059.9 L 1029.7 1059.3 L 1040.8 1056.3 L 1085.7 1045.5 L 1131.2 1036.6 L 1142.9 1034.1 L 1195.7 1019.2 L 1237.8 999.9 L 1241.0 998.8 L 1266.3 983.6 L 1312.8 947.5 L 1317.0 944.6 L 1339.7 929.3 L 1380.7 888.8 L 1383.6 884.3 L 1396.2 877.2 L 1417.9 868.0 L 1439.6 859.8" stroke="#000" stroke-width="1.3" stroke-opacity="0.8" fill="none" stroke-linecap="round" stroke-linejoin="round"/>
<path d="M 1055.8 822.5 L 1047.3 876.4 L 1043.9 927.4 L 1042.0 988.8 L 1040.8 1056.3" stroke="#000" stroke-width="1.3" stroke-opacity="0.8" fill="none" stroke-linecap="round" stroke-linejoin="round"/>
<path d="M 1091.5 821.8 L 1080.0 877.7 L 1075.8 932.5 L 1075.5 945.7 L 1074.9 987.0 L 1085.7 1045.5" stroke="#000" stroke-width="1.3" stroke-opacity="0.8" fill="none" stroke-linecap="round" stroke-linejoin="round"/>
<path d="M 809.9 808.8 L 812.5 819.8 L 819.4 829.4 L 831.0 858.3 L 837.6 869.9 L 857.2 872.1 L 904.6 871.8 L 942.4 872.2 L 980.3 873.6 L 1013.4 873.5 L 1047.3 876.4 L 1080.0 877.7 L 1112.1 880.5" stroke="#000" stroke-width="1.3" stroke-opacity="0.8" fill="none" stroke-linecap="round" stroke-linejoin="round"/>
<path d="M 875.4 952.9 L 905.0 952.4 L 942.1 952.3 L 980.6 953.8 L 998.7 954.5 L 1014.7 955.1 L 1019.3 955.2" stroke="#000" stroke-width="1.3" stroke-opacity="0.8" fill="none" stroke-linecap="round" stroke-linejoin="round"/>
<path d="M 904.6 871.8 L 905.0 952.4 L 904.6 986.2" stroke="#000" stroke-width="1.3" stroke-opacity="0.8" fill="none" stroke-linecap="round" stroke-linejoin="round"/>
<path d="M 942.4 872.2 L 942.1 952.3" stroke="#000" stroke-width="1.3" stroke-opacity="0.8" fill="none" stroke-linecap="round" stroke-linejoin="round"/>
<path d="M 1118.2 983.0 L 1074.9 987.0 L 1042.0 988.8" stroke="#000" stroke-width="1.3" stroke-opacity="0.8" fill="none" stroke-linecap="round" stroke-linejoin="round"/>
<path d="M 1158.3 824.1 L 1173.7 862.0 L 1198.1 911.5 L 1220.5 959.7 L 1241.0 998.8" stroke="#000" stroke-width="1.3" stroke-opacity="0.8" fill="none" stroke-linecap="round" stroke-linejoin="round"/>
<path d="M 1198.1 911.5 L 1160.1 927.9 L 1161.3 931.5 L 1168.0 952.3 L 1178.4 979.3 L 1220.5 959.7 L 1261.7 941.7" stroke="#000" stroke-width="1.3" stroke-opacity="0.8" fill="none" stroke-linecap="round" stroke-linejoin="round"/>
<path d="M 1160.1 927.9 L 1157.1 912.1 L 1158.8 900.8 L 1173.4 871.0 L 1173.7 862.0" stroke="#000" stroke-width="1.3" stroke-opacity="0.8" fill="none" stroke-linecap="round" stroke-linejoin="round"/>
<path d="M 1109.4 936.3 L 1075.8 932.5 L 1043.9 927.4 L 1015.9 927.2" stroke="#000" stroke-width="1.3" stroke-opacity="0.8" fill="none" stroke-linecap="round" stroke-linejoin="round"/>
<path d="M 1383.6 978.7 L 1380.5 954.8 L 1378.3 935.6 L 1378.3 922.0 L 1382.8 893.1 L 1380.7 888.8 L 1354.2 835.3 L 1331.8 787.9 L 1309.6 739.1 L 1311.7 729.7" stroke="#000" stroke-width="1.3" stroke-opacity="0.8" fill="none" stroke-linecap="round" stroke-linejoin="round"/>
<path d="M 1235.5 774.0 L 1270.1 758.3 L 1309.6 739.1" stroke="#000" stroke-width="1.3" stroke-opacity="0.8" fill="none" stroke-linecap="round" stroke-linejoin="round"/>
<path d="M 1410.9 678.4 L 1414.1 684.2 L 1427.4 711.3 L 1438.4 733.7 L 1454.3 765.9" stroke="#000" stroke-width="1.3" stroke-opacity="0.8" fill="none" stroke-linecap="round" stroke-linejoin="round"/>
<path d="M 850.9 737.1 L 869.1 694.7 L 874.2 672.7 L 877.1 660.0 L 879.3 644.8 L 878.8 634.0 L 876.8 623.2 L 875.1 606.0 L 874.2 588.7 L 874.9 569.4 L 877.3 552.3 L 882.7 524.3 L 884.8 509.6" stroke="#000" stroke-width="2.4" stroke-opacity="0.95" fill="none" stroke-linecap="round" stroke-linejoin="round"/>
<path d="M 821.9 797.5 L 698.5 840.3 L 613.1 870.6 L 541.3 907.8 L 448.4 959.2 L 409.4 988.3 L 363.5 1023.0 L 148.0 1187.1 L 110.9 1210.0 L 85.6 1223.2 L 42.7 1243.5 L -34.0 1278.0 L -66.3 1296.8 L -102.4 1324.7 L -146.0 1367.5 L -175.3 1399.1 L -184.9 1409.1 L -224.2 1450.2 L -261.8 1487.8 L -314.4 1516.4 L -758.1 1757.8 L -785.9 1772.1 L -816.0 1783.4 L -854.3 1793.9 L -897.2 1796.2 L -982.9 1783.4 L -1085.9 1763.8 L -1183.6 1751.8 L -1329.5 1745.0 L -1391.9 1751.0 L -1448.5 1760.7 L -1493.6 1769.7 L -1532.0 1776.5 L -1558.3 1782.5 L -1592.1 1787.8 L -1632.0 1794.6 L -1857.3 1837.5 L -1990.8 1866.7 L -2104.4 1894.5 L -2175.5 1903.0 L -2193.1 1905.1 L -2290.8 1906.6 L -2380.3 1909.6 L -2473.5 1912.6 L -2726.2 1917.9 L -2832.9 1908.1 L -2916.4 1889.3 L -2993.1 1869.7 L -3042.0 1851.7 L -3099.1 1841.9 L -3163.8 1837.4 L -3227.7 1841.6 L -3261.8 1844.6 L -3304.3 1850.2 L -3382.4 1863.0" stroke="#000" stroke-width="3.6" stroke-opacity="1" fill="none" stroke-linecap="round" stroke-linejoin="round"/>
<path d="M 864.0 784.4 L 860.4 782.5 L 857.0 780.1 L 854.0 777.3 L 851.3 774.2" stroke="#000" stroke-width="0.9" stroke-opacity="0.6" fill="none" stroke-linecap="round" stroke-linejoin="round"/>
<path d="M 839.8 765.6 L 838.2 775.5 L 837.9 778.5 L 838.0 782.9 L 838.3 786.2 L 839.5 791.9" stroke="#000" stroke-width="2.4" stroke-opacity="0.95" fill="none" stroke-linecap="round" stroke-linejoin="round"/>
<path d="M 839.5 791.9 L 841.3 797.5" stroke="#000" stroke-width="2.4" stroke-opacity="0.95" fill="none" stroke-linecap="round" stroke-linejoin="round"/>
<path d="M 1935.3 438.4 L 1896.7 455.2 L 1886.7 459.3 L 1876.5 464.1 L 1790.9 503.9 L 1738.0 527.1 L 1729.3 530.6 L 1610.2 582.6 L 1600.5 587.1 L 1534.6 615.2 L 1527.6 618.4 L 1423.8 662.5 L 1417.8 665.6 L 1398.4 674.8 L 1340.7 700.4 L 1329.3 704.5 L 1293.0 719.0 L 1259.8 726.4 L 1238.4 728.8 L 1223.6 730.3 L 1192.1 732.0 L 1163.1 733.4 L 1123.1 734.6 L 1063.5 736.5 L 1010.9 738.3 L 994.8 741.2 L 970.1 748.6 L 946.5 756.4 L 876.7 779.8 L 864.0 784.4" stroke="#000" stroke-width="3.6" stroke-opacity="1" fill="none" stroke-linecap="round" stroke-linejoin="round"/>
<path d="M 856.5 792.5 L 854.9 787.0 L 851.3 774.2 L 849.5 763.2 L 848.8 756.6 L 848.7 751.0 L 849.0 746.4 L 850.9 737.1" stroke="#000" stroke-width="2.4" stroke-opacity="0.95" fill="none" stroke-linecap="round" stroke-linejoin="round"/>
<path d="M 799.7 343.7 L 758.4 314.6 L 749.7 308.3 L 730.6 296.2 L 711.9 287.3 L 685.6 278.1 L 653.4 269.0 L 551.1 239.9 L 476.5 217.9 L 447.8 210.1 L 417.3 201.3 L 316.3 177.1 L 243.7 159.8 L 208.4 150.8 L 164.2 141.0 L 124.4 131.5 L 90.8 121.6 L 72.7 111.8 L 62.2 102.7 L 53.0 92.3 L 46.7 80.9 L 39.7 60.9 L 33.5 41.0 L 27.9 16.1 L 22.8 -8.5 L 17.3 -43.4 L 8.9 -69.2 L 3.6 -82.7 L -15.2 -116.5 L -32.5 -145.8 L -53.5 -180.4 L -69.1 -206.2 L -78.5 -221.7 L -85.2 -237.3 L -89.6 -253.3 L -94.1 -275.2 L -103.5 -316.3 L -110.7 -354.1 L -119.2 -395.1 L -128.9 -424.5 L -137.7 -443.9 L -147.7 -461.6 L -158.8 -478.1 L -188.1 -508.2 L -226.4 -539.8 L -272.3 -578.1 L -328.0 -628.5 L -362.5 -653.3 L -394.1 -676.6 L -409.2 -684.9 L -446.0 -702.2 L -476.1 -715.7 L -499.4 -726.2 L -520.4 -739.7 L -538.5 -759.3 L -567.8 -791.6 L -594.1 -823.2 L -607.7 -838.4 L -618.9 -854.4 L -627.1 -869.1 L -631.4 -884.6 L -632.0 -899.7 L -634.2 -935.7 L -635.9 -950.6 L -638.1 -966.8 L -645.8 -998.0 L -676.6 -1105.6 L -699.0 -1200.0 L -721.5 -1271.7 L -735.7 -1312.9 L -781.5 -1457.4 L -797.4 -1507.3 L -813.5 -1573.7 L -831.9 -1674.1 L -850.0 -1773.4 L -854.3 -1796.0 L -857.7 -1810.3 L -862.4 -1826.3 L -868.1 -1844.7 L -871.1 -1854.4" stroke="#000" stroke-width="2.4" stroke-opacity="0.95" fill="none" stroke-linecap="round" stroke-linejoin="round"/>
<path d="M 876.7 779.8 L 871.6 776.4 L 866.2 771.0 L 862.7 764.8 L 860.6 755.5 L 859.7 747.0 L 861.8 737.5 L 877.8 700.3 L 886.3 677.2 L 894.8 654.2 L 896.6 644.9 L 894.6 528.8 L 895.5 509.5 L 884.8 509.6" stroke="#000" stroke-width="1.3" stroke-opacity="0.8" fill="none" stroke-linecap="round" stroke-linejoin="round"/>
<path d="M 1206.7 634.0 L 1215.6 559.1 L 1193.7 476.3 L 1183.1 439.6" stroke="#000" stroke-width="1.3" stroke-opacity="0.8" fill="none" stroke-linecap="round" stroke-linejoin="round"/>
<path d="M 1206.7 634.0 L 1204.6 655.5 L 1197.4 706.1 L 1196.4 713.3 L 1195.8 723.3 L 1219.4 695.3 L 1227.2 667.8 L 1241.5 619.7 L 1256.1 562.1 L 1274.5 500.1 L 1280.9 477.2 L 1284.3 459.1 L 1285.1 455.2 L 1291.9 421.1" stroke="#000" stroke-width="1.3" stroke-opacity="0.8" fill="none" stroke-linecap="round" stroke-linejoin="round"/>
<path d="M 1256.1 562.1 L 1242.2 559.1 L 1226.8 557.7 L 1215.6 559.1 L 1217.0 544.4 L 1220.5 536.5 L 1227.6 520.0 L 1229.5 507.0 L 1229.6 493.9 L 1230.3 468.9 L 1219.1 470.6 L 1215.5 461.6 L 1213.2 440.4 L 1213.0 417.6" stroke="#000" stroke-width="1.3" stroke-opacity="0.8" fill="none" stroke-linecap="round" stroke-linejoin="round"/>
<path d="M 1122.1 586.7 L 1134.8 575.6 L 1189.2 528.4" stroke="#000" stroke-width="1.3" stroke-opacity="0.8" fill="none" stroke-linecap="round" stroke-linejoin="round"/>
<path d="M 1219.4 695.3 L 1236.3 701.0 L 1254.0 704.1 L 1258.6 700.7 L 1282.5 662.4 L 1284.7 649.7 L 1291.9 604.0 L 1293.6 579.9 L 1297.4 556.5 L 1300.1 539.4 L 1305.2 502.5 L 1311.4 455.8" stroke="#000" stroke-width="1.3" stroke-opacity="0.8" fill="none" stroke-linecap="round" stroke-linejoin="round"/>
<path d="M 1285.1 455.2 L 1311.4 455.8 L 1320.8 456.1 L 1330.3 456.3 L 1354.1 456.9" stroke="#000" stroke-width="1.3" stroke-opacity="0.8" fill="none" stroke-linecap="round" stroke-linejoin="round"/>
<path d="M 1307.5 581.6 L 1309.8 577.9 L 1322.9 575.0 L 1334.6 574.3 L 1362.7 574.6" stroke="#000" stroke-width="1.3" stroke-opacity="0.8" fill="none" stroke-linecap="round" stroke-linejoin="round"/>
<path d="M 1336.3 596.5 L 1334.6 574.3 L 1332.3 507.0 L 1330.3 456.3" stroke="#000" stroke-width="1.3" stroke-opacity="0.8" fill="none" stroke-linecap="round" stroke-linejoin="round"/>
<path d="M 1311.9 857.0 L 1289.4 808.7 L 1280.6 788.9 L 1270.1 758.3" stroke="#000" stroke-width="1.3" stroke-opacity="0.8" fill="none" stroke-linecap="round" stroke-linejoin="round"/>
<path d="M 1034.5 727.8 L 1000.2 694.6" stroke="#000" stroke-width="1.3" stroke-opacity="0.8" fill="none" stroke-linecap="round" stroke-linejoin="round"/>
<path d="M 1086.7 725.9 L 1113.0 702.4" stroke="#000" stroke-width="1.3" stroke-opacity="0.8" fill="none" stroke-linecap="round" stroke-linejoin="round"/>
<path d="M 1156.6 722.9 L 1158.9 713.0 L 1161.2 700.1 L 1160.5 691.1 L 1157.0 685.1 L 1158.0 675.7 L 1160.7 668.4 L 1165.4 660.3 L 1177.2 650.5" stroke="#000" stroke-width="1.3" stroke-opacity="0.8" fill="none" stroke-linecap="round" stroke-linejoin="round"/>
<path d="M 1017.1 745.7 L 1018.3 752.8 L 1069.2 750.9 L 1081.2 750.5 L 1108.1 749.4 L 1118.6 755.8 L 1122.3 758.8 L 1126.5 774.2 L 1126.3 798.7 L 1126.1 822.5 L 1119.0 839.5" stroke="#000" stroke-width="1.3" stroke-opacity="0.8" fill="none" stroke-linecap="round" stroke-linejoin="round"/>
<path d="M 1081.2 750.5 L 1085.5 741.7" stroke="#000" stroke-width="1.3" stroke-opacity="0.8" fill="none" stroke-linecap="round" stroke-linejoin="round"/>
<path d="M 1282.5 1012.9 L 1287.0 1008.6 L 1378.3 935.6" stroke="#000" stroke-width="1.3" stroke-opacity="0.8" fill="none" stroke-linecap="round" stroke-linejoin="round"/>
<path d="M 1317.0 944.6 L 1306.3 919.5" stroke="#000" stroke-width="1.3" stroke-opacity="0.8" fill="none" stroke-linecap="round" stroke-linejoin="round"/>
<path d="M 1433.6 955.4 L 1425.8 925.4 L 1418.3 899.8 L 1430.7 894.0 L 1452.1 888.1 L 1481.3 878.3" stroke="#000" stroke-width="1.3" stroke-opacity="0.8" fill="none" stroke-linecap="round" stroke-linejoin="round"/>
<path d="M 1425.8 925.4 L 1489.0 902.5" stroke="#000" stroke-width="1.3" stroke-opacity="0.8" fill="none" stroke-linecap="round" stroke-linejoin="round"/>
<path d="M 1462.8 820.0 L 1500.8 808.2 L 1520.8 794.5 L 1533.1 775.9 L 1556.4 735.2 L 1571.1 704.5 L 1582.9 681.3" stroke="#000" stroke-width="1.3" stroke-opacity="0.8" fill="none" stroke-linecap="round" stroke-linejoin="round"/>
<path d="M 1500.8 808.2 L 1534.2 921.8" stroke="#000" stroke-width="1.3" stroke-opacity="0.8" fill="none" stroke-linecap="round" stroke-linejoin="round"/>
<path d="M 1569.2 910.0 L 1565.9 896.3 L 1533.1 775.9" stroke="#000" stroke-width="1.3" stroke-opacity="0.8" fill="none" stroke-linecap="round" stroke-linejoin="round"/>
<path d="M 1590.5 849.0 L 1556.4 735.2" stroke="#000" stroke-width="1.3" stroke-opacity="0.8" fill="none" stroke-linecap="round" stroke-linejoin="round"/>
<path d="M 1615.7 775.3 L 1604.3 742.8 L 1592.3 708.4 L 1582.9 681.3 L 1580.3 674.0" stroke="#000" stroke-width="1.3" stroke-opacity="0.8" fill="none" stroke-linecap="round" stroke-linejoin="round"/>
<path d="M 1107.1 393.0 L 1143.6 366.3 L 1156.1 357.1 L 1169.6 347.3 L 1204.1 319.0" stroke="#000" stroke-width="1.3" stroke-opacity="0.8" fill="none" stroke-linecap="round" stroke-linejoin="round"/>
<path d="M 1177.7 128.0 L 1183.8 125.2 L 1196.5 120.1 L 1209.0 115.3 L 1222.9 111.0 L 1234.4 108.7 L 1242.4 107.6 L 1250.7 107.5 L 1279.3 108.5 L 1280.2 108.5 L 1353.0 112.5" stroke="#000" stroke-width="1.3" stroke-opacity="0.8" fill="none" stroke-linecap="round" stroke-linejoin="round"/>
<path d="M 1081.2 364.7 L 1121.8 335.9 L 1157.4 307.5" stroke="#000" stroke-width="1.3" stroke-opacity="0.8" fill="none" stroke-linecap="round" stroke-linejoin="round"/>
<path d="M 1092.8 256.4 L 1166.0 264.3" stroke="#000" stroke-width="1.3" stroke-opacity="0.8" fill="none" stroke-linecap="round" stroke-linejoin="round"/>
<path d="M 1165.3 210.5 L 1170.6 144.6" stroke="#000" stroke-width="1.3" stroke-opacity="0.8" fill="none" stroke-linecap="round" stroke-linejoin="round"/>
<path d="M 1184.3 59.1 L 1180.1 116.2 L 1179.1 121.4 L 1177.7 128.0 L 1170.6 144.6" stroke="#000" stroke-width="1.3" stroke-opacity="0.8" fill="none" stroke-linecap="round" stroke-linejoin="round"/>
<path d="M 1198.6 318.4 L 1207.8 232.6" stroke="#000" stroke-width="1.3" stroke-opacity="0.8" fill="none" stroke-linecap="round" stroke-linejoin="round"/>
<path d="M 1201.3 212.9 L 1206.3 146.8" stroke="#000" stroke-width="1.3" stroke-opacity="0.8" fill="none" stroke-linecap="round" stroke-linejoin="round"/>
<path d="M 1237.0 214.2 L 1240.9 149.0" stroke="#000" stroke-width="1.3" stroke-opacity="0.8" fill="none" stroke-linecap="round" stroke-linejoin="round"/>
<path d="M 1305.0 219.6 L 1310.1 153.3" stroke="#000" stroke-width="1.3" stroke-opacity="0.8" fill="none" stroke-linecap="round" stroke-linejoin="round"/>
<path d="M 1244.4 236.7 L 1235.2 322.3" stroke="#000" stroke-width="1.3" stroke-opacity="0.8" fill="none" stroke-linecap="round" stroke-linejoin="round"/>
<path d="M 1287.9 362.7 L 1288.2 325.8" stroke="#000" stroke-width="1.3" stroke-opacity="0.8" fill="none" stroke-linecap="round" stroke-linejoin="round"/>
<path d="M 1088.0 300.8 L 1157.4 307.5 L 1160.3 314.3 L 1198.6 318.4 L 1204.1 319.0 L 1235.2 322.3 L 1254.7 324.4" stroke="#000" stroke-width="1.3" stroke-opacity="0.8" fill="none" stroke-linecap="round" stroke-linejoin="round"/>
<path d="M 1408.5 371.6 L 1410.8 335.3 L 1412.8 303.2 L 1415.1 267.4 L 1417.7 227.0 L 1419.8 198.1 L 1421.9 160.2 L 1423.9 129.2 L 1424.7 117.2 L 1425.2 109.1" stroke="#000" stroke-width="1.3" stroke-opacity="0.8" fill="none" stroke-linecap="round" stroke-linejoin="round"/>
<path d="M 1265.1 292.1 L 1348.2 297.2 L 1412.8 303.2" stroke="#000" stroke-width="1.3" stroke-opacity="0.8" fill="none" stroke-linecap="round" stroke-linejoin="round"/>
<path d="M 1267.8 257.4 L 1347.4 262.8 L 1415.1 267.4 L 1451.9 269.5 L 1469.4 271.3 L 1503.3 273.8 L 1540.9 275.9" stroke="#000" stroke-width="1.3" stroke-opacity="0.8" fill="none" stroke-linecap="round" stroke-linejoin="round"/>
<path d="M 1444.0 374.7 L 1444.3 368.6 L 1447.4 322.2 L 1451.9 269.5 L 1433.7 228.0" stroke="#000" stroke-width="1.3" stroke-opacity="0.8" fill="none" stroke-linecap="round" stroke-linejoin="round"/>
<path d="M 1467.7 322.0 L 1469.4 271.3" stroke="#000" stroke-width="1.3" stroke-opacity="0.8" fill="none" stroke-linecap="round" stroke-linejoin="round"/>
<path d="M 1500.2 323.6 L 1503.3 273.8" stroke="#000" stroke-width="1.3" stroke-opacity="0.8" fill="none" stroke-linecap="round" stroke-linejoin="round"/>
<path d="M 1383.4 224.7 L 1387.2 158.1" stroke="#000" stroke-width="1.3" stroke-opacity="0.8" fill="none" stroke-linecap="round" stroke-linejoin="round"/>
<path d="M 1419.8 198.1 L 1542.7 206.0 L 1559.2 207.6" stroke="#000" stroke-width="1.3" stroke-opacity="0.8" fill="none" stroke-linecap="round" stroke-linejoin="round"/>
<path d="M 1168.2 58.4 L 1178.3 47.6 L 1221.3 1.5" stroke="#000" stroke-width="1.3" stroke-opacity="0.8" fill="none" stroke-linecap="round" stroke-linejoin="round"/>
<path d="M 1223.6 730.3 L 1225.2 737.2 L 1229.5 755.0 L 1235.5 774.0 L 1248.1 803.0 L 1257.9 822.9 L 1282.9 870.2 L 1306.3 919.5 L 1268.6 938.2 L 1261.7 941.7 L 1259.8 946.2 L 1258.8 952.0 L 1258.6 957.1 L 1266.3 983.6 L 1267.1 986.2 L 1268.9 990.9 L 1274.2 999.5 L 1282.5 1012.9 L 1290.6 1029.5 L 1292.0 1034.1 L 1293.6 1039.2 L 1294.5 1045.7 L 1293.8 1052.6 L 1291.2 1060.2 L 1285.8 1067.8 L 1247.6 1094.9 L 1227.7 1108.3 L 1218.8 1115.7 L 1212.2 1122.9 L 1207.2 1129.8 L 1204.5 1134.9 L 1202.1 1140.1 L 1191.4 1168.0 L 1189.2 1176.1 L 1188.3 1182.1 L 1187.9 1188.2 L 1188.2 1195.2 L 1189.9 1201.2 L 1192.8 1208.8 L 1209.2 1240.4 L 1265.5 1351.0 L 1319.0 1457.0 L 1341.5 1500.8 L 1347.1 1511.9 L 1355.6 1528.5 L 1365.7 1552.7 L 1382.5 1597.6 L 1410.3 1675.2 L 1467.8 1825.8" stroke="#000" stroke-width="1.3" stroke-opacity="0.8" fill="none" stroke-linecap="round" stroke-linejoin="round"/>
<path d="M 884.8 509.6 L 888.5 480.6 L 888.6 462.6 L 886.2 447.4 L 883.8 434.6 L 880.2 421.8" stroke="#000" stroke-width="2.4" stroke-opacity="0.95" fill="none" stroke-linecap="round" stroke-linejoin="round"/>
<path d="M 856.5 792.5 L 951.3 762.1 L 963.5 758.2 L 974.7 754.8 L 984.9 752.1 L 995.5 749.4 L 1005.6 747.4 L 1017.1 745.7 L 1038.4 744.8 L 1085.5 741.7 L 1183.4 739.3 L 1190.3 739.2 L 1225.2 737.2 L 1262.2 733.5 L 1291.2 726.0 L 1298.7 723.9 L 1304.2 721.3 L 1334.3 710.7 L 1342.8 707.2 L 1410.9 678.4 L 1458.5 657.5 L 1509.2 635.1 L 1530.1 624.5 L 1602.3 592.0 L 1728.8 537.3 L 1756.8 524.4 L 1791.1 509.6 L 1835.1 490.9 L 1889.6 466.0 L 1911.9 456.7" stroke="#000" stroke-width="3.6" stroke-opacity="1" fill="none" stroke-linecap="round" stroke-linejoin="round"/>
<path d="M 1611.6 617.8 L 1628.8 611.8 L 1651.6 604.3 L 1667.7 598.3" stroke="#000" stroke-width="1.3" stroke-opacity="0.8" fill="none" stroke-linecap="round" stroke-linejoin="round"/>
<path d="M 1628.8 611.8 L 1656.9 695.4" stroke="#000" stroke-width="1.3" stroke-opacity="0.8" fill="none" stroke-linecap="round" stroke-linejoin="round"/>
<path d="M 1605.8 601.7 L 1610.4 599.6 L 1722.0 549.9" stroke="#000" stroke-width="0.7" stroke-opacity="0.55" fill="none" stroke-linecap="round" stroke-linejoin="round"/>
<path d="M 1121.8 335.9 L 1143.6 366.3" stroke="#000" stroke-width="1.3" stroke-opacity="0.8" fill="none" stroke-linecap="round" stroke-linejoin="round"/>
<path d="M 1509.6 640.6 L 1454.3 765.9 L 1439.8 794.5" stroke="#000" stroke-width="1.3" stroke-opacity="0.8" fill="none" stroke-linecap="round" stroke-linejoin="round"/>
<path d="M 1570.5 613.9 L 1604.8 599.1" stroke="#000" stroke-width="0.7" stroke-opacity="0.55" fill="none" stroke-linecap="round" stroke-linejoin="round"/>
<path d="M 1503.7 563.5 L 1482.5 571.2 L 1455.4 580.2" stroke="#000" stroke-width="1.3" stroke-opacity="0.8" fill="none" stroke-linecap="round" stroke-linejoin="round"/>
<path d="M 1451.0 586.1 L 1454.2 611.4" stroke="#000" stroke-width="1.3" stroke-opacity="0.8" fill="none" stroke-linecap="round" stroke-linejoin="round"/>
<path d="M 1482.5 571.2 L 1492.2 596.4 L 1454.2 611.4 L 1421.8 624.5 L 1424.5 631.2 L 1407.4 638.0" stroke="#000" stroke-width="1.3" stroke-opacity="0.8" fill="none" stroke-linecap="round" stroke-linejoin="round"/>
<path d="M 1455.4 580.2 L 1453.7 577.0 L 1450.4 575.8 L 1447.0 576.9 L 1445.2 579.9 L 1445.7 583.4 L 1447.9 585.6 L 1451.0 586.1 L 1453.5 585.0 L 1455.1 582.9 L 1455.4 580.2" stroke="#000" stroke-width="1.3" stroke-opacity="0.8" fill="none" stroke-linecap="round" stroke-linejoin="round"/>
<path d="M 1445.7 583.4 L 1396.1 604.4" stroke="#000" stroke-width="1.3" stroke-opacity="0.8" fill="none" stroke-linecap="round" stroke-linejoin="round"/>
<path d="M 1378.8 404.6 L 1409.6 405.3 L 1426.5 404.4 L 1436.7 402.4 L 1441.2 396.0 L 1443.3 389.6 L 1444.0 374.7" stroke="#000" stroke-width="1.3" stroke-opacity="0.8" fill="none" stroke-linecap="round" stroke-linejoin="round"/>
<path d="M 1246.4 419.6 L 1245.8 467.7" stroke="#000" stroke-width="1.3" stroke-opacity="0.8" fill="none" stroke-linecap="round" stroke-linejoin="round"/>
<path d="M 758.4 314.6 L 762.8 297.2 L 758.8 139.1 L 755.4 109.9" stroke="#000" stroke-width="1.3" stroke-opacity="0.8" fill="none" stroke-linecap="round" stroke-linejoin="round"/>
<path d="M 1433.6 955.4 L 1440.6 976.5 L 1533.8 945.3 L 1548.4 940.4 L 1587.4 927.3 L 1636.7 910.9 L 1629.6 889.8 L 1569.2 910.0" stroke="#000" stroke-width="1.3" stroke-opacity="0.8" fill="none" stroke-linecap="round" stroke-linejoin="round"/>
<path d="M 1548.4 940.4 L 1541.4 919.3" stroke="#000" stroke-width="1.3" stroke-opacity="0.8" fill="none" stroke-linecap="round" stroke-linejoin="round"/>
<path d="M 1267.1 986.2 L 1287.0 1008.6 L 1304.1 1037.8 L 1309.8 1073.5" stroke="#000" stroke-width="1.3" stroke-opacity="0.8" fill="none" stroke-linecap="round" stroke-linejoin="round"/>
<path d="M 1309.8 1073.5 L 1330.0 1058.8 L 1334.1 1055.8 L 1330.6 1051.0 L 1401.1 999.7" stroke="#000" stroke-width="1.3" stroke-opacity="0.8" fill="none" stroke-linecap="round" stroke-linejoin="round"/>
<path d="M 1652.6 723.7 L 1604.3 742.8" stroke="#000" stroke-width="0.7" stroke-opacity="0.55" fill="none" stroke-linecap="round" stroke-linejoin="round"/>
<path d="M 1427.4 711.3 L 1385.2 730.8" stroke="#000" stroke-width="1.3" stroke-opacity="0.8" fill="none" stroke-linecap="round" stroke-linejoin="round"/>
<path d="M 1262.2 733.5 L 1270.1 758.3" stroke="#000" stroke-width="1.3" stroke-opacity="0.8" fill="none" stroke-linecap="round" stroke-linejoin="round"/>
<path d="M 1274.3 1050.7 L 1234.8 1070.0 L 1195.2 1078.0 L 1160.5 1095.2 L 1140.2 1115.8 L 1112.2 1161.3 L 1076.5 1211.8 L 1062.8 1224.0 L 1057.5 1231.6 L 1059.2 1240.3 L 1059.6 1251.1 L 1051.3 1265.4 L 1035.1 1284.7 L 1014.5 1296.4 L 992.9 1311.4 L 957.3 1327.3 L 916.2 1313.4 L 870.1 1291.1 L 818.6 1294.1 L 785.5 1301.5 L 766.6 1304.5 L 740.9 1304.5 L 724.6 1314.4 L 710.2 1324.3 L 680.5 1333.7 L 641.4 1349.6 L 602.7 1370.3 L 568.1 1389.2 L 518.6 1407.0 L 490.9 1416.4 L 462.6 1445.6 L 407.7 1492.2 L 362.6 1513.0 L 282.4 1538.7 L 224.0 1581.3 L 196.3 1623.9 L 123.0 1653.6 L 73.0 1670.9 L 28.4 1684.4" stroke="#000" stroke-width="3.2" stroke-opacity="0.9" fill="none" stroke-linecap="round" stroke-linejoin="round"/>
<path d="M 940.6 -177.6 L 939.4 -129.9 L 936.6 -79.5 L 923.3 -52.2 L 890.4 -7.4 L 875.2 8.3 L 868.0 19.6 L 875.6 73.8 L 877.1 111.9 L 875.6 132.7 L 863.2 159.4 L 847.9 183.7 L 844.4 202.5 L 847.4 259.4 L 843.7 290.5 L 824.6 327.2 L 806.2 340.4 L 797.5 351.8 L 744.1 394.9 L 710.9 436.0 L 698.5 454.8 L 698.0 490.4 L 703.0 515.7 L 694.2 584.7 L 676.7 607.8 L 663.4 626.0 L 650.4 643.5 L 644.5 653.7 L 636.1 662.4 L 600.7 672.9 L 576.2 693.6 L 529.3 735.3 L 500.2 759.1 L 492.9 772.4 L 483.1 786.7 L 465.9 803.2 L 434.8 836.1 L 425.3 851.5 L 415.5 867.2 L 409.6 890.0 L 400.5 909.6 L 387.1 923.3 L 361.9 941.8 L 347.2 946.4 L 331.8 949.2 L 318.9 949.9 L 294.0 948.1 L 261.1 984.9 L 243.3 994.7 L 230.7 1010.4 L 227.2 1022.0 L 202.3 1077.0 L 170.4 1151.5 L 150.5 1176.4 L 119.7 1194.3 L 59.5 1222.6 L -0.4 1247.8 L -21.1 1258.7 L -37.1 1265.3" stroke="#000" stroke-width="3.2" stroke-opacity="0.9" fill="none" stroke-linecap="round" stroke-linejoin="round"/>
<path d="M 1051.3 552.6 L 1008.8 552.1" stroke="#000" stroke-width="1.3" stroke-opacity="0.8" fill="none" stroke-linecap="round" stroke-linejoin="round"/>
<path d="M 1107.1 393.0 L 1105.6 413.2" stroke="#000" stroke-width="1.3" stroke-opacity="0.8" fill="none" stroke-linecap="round" stroke-linejoin="round"/>
<path d="M 1002.6 655.5 L 960.4 652.0 L 958.0 694.8 L 958.4 705.0 L 959.4 711.5 L 964.2 719.0" stroke="#000" stroke-width="1.3" stroke-opacity="0.8" fill="none" stroke-linecap="round" stroke-linejoin="round"/>
<path d="M 1053.1 483.9 L 1098.7 485.3 L 1139.4 488.6 L 1179.7 491.9" stroke="#000" stroke-width="1.3" stroke-opacity="0.8" fill="none" stroke-linecap="round" stroke-linejoin="round"/>
<path d="M 827.5 787.7 L 825.5 772.0 L 823.4 763.3 L 803.7 744.5 L 765.9 691.1 L 754.3 678.6 L 742.7 667.8 L 704.2 631.4 L 674.4 603.7 L 660.5 593.8 L 562.1 541.5 L 494.6 491.0" stroke="#000" stroke-width="0.5" stroke-opacity="0.35" fill="none" stroke-linecap="round" stroke-linejoin="round"/>
<path d="M 895.8 465.4 L 895.5 509.5 L 911.1 513.1 L 914.7 511.4 L 914.5 506.0 L 911.4 444.9" stroke="#000" stroke-width="1.3" stroke-opacity="0.8" fill="none" stroke-linecap="round" stroke-linejoin="round"/>
<path d="M 2168.9 1022.0 L 2092.9 1021.6 L 2059.6 1021.4 L 2031.0 1022.2 L 1946.4 1024.5 L 1845.3 1026.9 L 1843.6 1026.8 L 1842.0 1026.2 L 1840.6 1025.3 L 1839.5 1024.0 L 1838.7 1022.5 L 1838.4 1020.8 L 1833.1 963.8 L 1832.3 961.3 L 1830.8 959.1 L 1828.8 957.4 L 1826.4 956.3 L 1823.8 955.8 L 1822.5 955.7 L 1722.3 948.1 L 1718.3 948.1 L 1712.5 948.0 L 1702.8 948.8 L 1693.2 950.5 L 1683.8 953.0 L 1674.7 956.4 L 1665.9 960.6 L 1467.3 1064.2 L 1463.9 1066.4 L 1461.0 1069.3 L 1458.8 1072.7 L 1457.3 1076.5 L 1456.7 1080.6 L 1456.9 1084.6 L 1457.9 1088.6 L 1464.0 1103.4 L 1464.5 1105.4 L 1464.3 1107.5 L 1463.5 1109.4 L 1462.1 1110.9 L 1460.3 1111.9 L 1458.3 1112.3 L 1248.5 1123.2 L 1242.0 1124.1 L 1235.7 1126.2 L 1229.9 1129.3 L 1224.8 1133.3 L 1220.4 1138.2 L 1216.9 1143.8 L 1214.4 1149.9 L 1213.0 1156.3 L 1212.7 1162.9 L 1213.6 1169.5 L 1215.6 1175.7 L 1219.2 1185.5 L 1271.5 1317.3 L 1275.6 1327.3 L 1280.0 1337.3 L 1284.6 1347.2 L 1289.4 1356.9 L 1305.4 1385.5 L 1309.8 1392.8 L 1314.6 1399.1 L 1320.0 1405.0 L 1325.3 1410.6 L 1349.5 1433.7 L 1352.7 1436.6 L 1356.2 1439.1 L 1360.0 1441.3 L 1363.9 1443.0 L 1368.1 1444.3 L 1372.3 1445.2 L 1376.6 1445.6 L 1381.6 1445.4 L 1425.8 1443.6 L 1482.2 1441.3 L 1490.1 1441.2 L 1496.2 1441.0 L 1500.9 1440.7 L 1505.6 1440.1 L 1510.3 1439.2 L 1517.4 1438.3 L 1524.6 1437.7 L 1531.8 1437.3 L 1538.6 1436.9 L 1572.3 1436.4 L 1576.8 1436.4 L 1580.2 1436.5 L 1615.4 1437.7 L 1620.7 1437.9 L 1625.4 1438.6 L 1629.7 1440.4 L 1633.5 1443.3 L 1636.4 1447.0 L 1638.2 1451.4 L 1656.2 1506.6 L 1657.7 1511.0 L 1659.2 1515.4 L 1675.7 1558.1 L 1677.3 1561.0 L 1678.9 1563.5 L 1683.3 1568.0 L 1688.7 1571.3 L 1694.6 1573.2 L 1700.9 1573.7 L 1707.0 1572.6 L 1712.8 1570.1 L 1728.3 1561.9 L 1738.8 1556.2 L 1749.0 1550.0 L 1758.9 1543.2 L 1767.2 1538.3 L 1774.2 1534.2 L 1781.0 1529.8 L 1787.6 1525.0 L 1793.9 1519.9 L 1801.5 1514.2 L 1809.3 1508.9 L 1817.4 1504.0 L 1825.7 1499.5 L 1834.2 1495.3 L 1919.6 1455.4 L 1924.2 1453.5 L 1929.1 1452.1 L 1934.0 1451.2 L 1939.0 1450.4 L 1943.5 1449.8 L 1948.1 1448.9 L 1956.4 1447.3 L 1964.7 1445.4 L 1973.0 1443.3 L 2005.4 1433.4 L 2010.3 1432.3 L 2015.3 1432.4 L 2020.1 1433.8 L 2024.4 1436.5 L 2027.8 1440.1 L 2030.1 1444.6 L 2031.2 1449.5 L 2030.9 1454.5 L 2029.6 1467.1 L 2027.8 1479.6 L 2025.7 1492.1 L 2023.2 1504.6 L 2019.6 1527.3 L 2016.4 1550.1 L 2013.9 1573.0 L 2011.9 1595.9 L 2010.3 1624.1 L 2010.6 1629.5 L 2011.7 1634.8 L 2013.8 1639.8 L 2016.7 1644.4 L 2020.3 1648.5 L 2024.6 1651.8 L 2029.5 1654.3 L 2034.7 1655.9 L 2041.5 1658.0 L 2048.5 1659.7 L 2055.6 1661.1 L 2062.7 1662.1 L 2153.7 1674.4 L 2158.0 1674.8 L 2162.3 1674.4 L 2166.4 1673.1 L 2170.2 1670.9 L 2173.4 1668.1 L 2176.0 1664.6 L 2177.8 1660.7 L 2178.8 1656.4 L 2182.6 1619.2 L 2186.3 1587.8 L 2187.0 1583.7 L 2188.3 1579.5 L 2190.3 1575.6 L 2192.9 1572.1 L 2196.1 1569.2 L 2199.8 1566.8 L 2203.9 1564.8 L 2257.6 1546.3 L 2297.7 1533.6 L 2336.3 1520.5 L 2340.8 1518.5 L 2344.9 1515.9 L 2348.5 1512.7 L 2351.7 1509.0 L 2354.2 1504.8 L 2356.0 1500.3 L 2357.2 1495.6 L 2357.9 1481.8 L 2357.6 1473.2" stroke="#000" stroke-width="0.7" stroke-opacity="0.55" fill="none" stroke-linecap="round" stroke-linejoin="round"/>
<path d="M 949.9 986.2 L 949.9 1024.6" stroke="#000" stroke-width="1.3" stroke-opacity="0.8" fill="none" stroke-linecap="round" stroke-linejoin="round"/>
<path d="M 1372.9 701.8 L 1385.2 730.8 L 1396.9 758.2 L 1417.4 806.6 L 1425.5 825.6 L 1439.6 859.8 L 1440.6 862.2 L 1452.1 888.1" stroke="#000" stroke-width="1.3" stroke-opacity="0.8" fill="none" stroke-linecap="round" stroke-linejoin="round"/>
<path d="M 1168.0 952.3 L 1133.4 963.7" stroke="#000" stroke-width="1.3" stroke-opacity="0.8" fill="none" stroke-linecap="round" stroke-linejoin="round"/>
<path d="M 1248.1 803.0 L 1280.6 788.9" stroke="#000" stroke-width="1.3" stroke-opacity="0.8" fill="none" stroke-linecap="round" stroke-linejoin="round"/>
<path d="M 1354.1 456.9 L 1357.5 487.3 L 1361.8 534.5 L 1362.7 574.6 L 1363.9 583.7 L 1375.1 624.0 L 1377.0 628.4 L 1395.4 668.7 L 1398.4 674.8" stroke="#000" stroke-width="1.3" stroke-opacity="0.8" fill="none" stroke-linecap="round" stroke-linejoin="round"/>
<path d="M 1193.7 476.3 L 1219.1 470.6" stroke="#000" stroke-width="1.3" stroke-opacity="0.8" fill="none" stroke-linecap="round" stroke-linejoin="round"/>
<path d="M 1241.5 619.7 L 1265.2 628.3" stroke="#000" stroke-width="1.3" stroke-opacity="0.8" fill="none" stroke-linecap="round" stroke-linejoin="round"/>
<path d="M 1357.5 487.3 L 1382.8 487.3" stroke="#000" stroke-width="1.3" stroke-opacity="0.8" fill="none" stroke-linecap="round" stroke-linejoin="round"/>
<path d="M 1230.3 468.9 L 1245.8 467.7" stroke="#000" stroke-width="1.3" stroke-opacity="0.8" fill="none" stroke-linecap="round" stroke-linejoin="round"/>
<path d="M 1148.4 617.4 L 1201.8 573.7" stroke="#000" stroke-width="1.3" stroke-opacity="0.8" fill="none" stroke-linecap="round" stroke-linejoin="round"/>
<path d="M 1229.6 493.9 L 1248.9 493.8 L 1274.5 500.1" stroke="#000" stroke-width="1.3" stroke-opacity="0.8" fill="none" stroke-linecap="round" stroke-linejoin="round"/>
<path d="M 1260.3 633.9 L 1284.7 649.7 L 1288.7 648.4 L 1325.3 650.6" stroke="#000" stroke-width="1.3" stroke-opacity="0.8" fill="none" stroke-linecap="round" stroke-linejoin="round"/>
<path d="M 1284.3 459.1 L 1259.8 455.9 L 1261.9 420.1" stroke="#000" stroke-width="1.3" stroke-opacity="0.8" fill="none" stroke-linecap="round" stroke-linejoin="round"/>
<path d="M 1293.6 579.9 L 1284.1 595.0 L 1265.2 628.3 L 1260.3 633.9 L 1237.8 667.5 L 1219.4 695.3" stroke="#000" stroke-width="1.3" stroke-opacity="0.8" fill="none" stroke-linecap="round" stroke-linejoin="round"/>
<path d="M 1592.3 708.4 L 1637.6 690.1" stroke="#000" stroke-width="1.3" stroke-opacity="0.8" fill="none" stroke-linecap="round" stroke-linejoin="round"/>
<path d="M 1101.1 413.2 L 1098.7 485.3 L 1096.2 557.7" stroke="#000" stroke-width="1.3" stroke-opacity="0.8" fill="none" stroke-linecap="round" stroke-linejoin="round"/>
<path d="M 1183.1 439.6 L 1180.2 419.0" stroke="#000" stroke-width="1.3" stroke-opacity="0.8" fill="none" stroke-linecap="round" stroke-linejoin="round"/>
<path d="M 1079.9 726.1 L 1003.4 641.4" stroke="#000" stroke-width="1.3" stroke-opacity="0.8" fill="none" stroke-linecap="round" stroke-linejoin="round"/>
<path d="M 1055.1 411.7 L 1074.5 412.1 L 1101.1 413.2" stroke="#000" stroke-width="1.3" stroke-opacity="0.8" fill="none" stroke-linecap="round" stroke-linejoin="round"/>
<path d="M 1003.4 641.4 L 1034.9 610.8 L 1050.2 595.4" stroke="#000" stroke-width="1.3" stroke-opacity="0.8" fill="none" stroke-linecap="round" stroke-linejoin="round"/>
<path d="M 1096.2 557.7 L 1085.4 567.3 L 1066.6 583.9 L 1050.2 595.4" stroke="#000" stroke-width="1.3" stroke-opacity="0.8" fill="none" stroke-linecap="round" stroke-linejoin="round"/>
<path d="M 902.4 995.9 L 872.9 1048.0 L 815.6 1135.6 L 764.4 1209.3 L 714.8 1255.1 L 702.8 1283.0 L 710.2 1324.3" stroke="#000" stroke-width="3.2" stroke-opacity="0.9" fill="none" stroke-linecap="round" stroke-linejoin="round"/>
<path d="M 1332.3 507.0 L 1305.2 502.5" stroke="#000" stroke-width="1.3" stroke-opacity="0.8" fill="none" stroke-linecap="round" stroke-linejoin="round"/>
<path d="M 1140.6 831.9 L 1135.8 820.1 L 1126.1 822.5" stroke="#000" stroke-width="1.3" stroke-opacity="0.8" fill="none" stroke-linecap="round" stroke-linejoin="round"/>
<path d="M 1379.9 446.3 L 1410.7 445.4 L 1410.6 440.2 L 1409.6 405.3" stroke="#000" stroke-width="1.3" stroke-opacity="0.8" fill="none" stroke-linecap="round" stroke-linejoin="round"/>
<path d="M 1165.3 210.5 L 1103.1 206.8 L 1098.3 220.8" stroke="#000" stroke-width="1.3" stroke-opacity="0.8" fill="none" stroke-linecap="round" stroke-linejoin="round"/>
<path d="M 1262.6 323.8 L 1265.1 292.1 L 1267.8 257.4 L 1269.2 239.2 L 1270.9 217.4 L 1276.0 151.2 L 1277.3 134.4 L 1279.3 108.5" stroke="#000" stroke-width="1.3" stroke-opacity="0.8" fill="none" stroke-linecap="round" stroke-linejoin="round"/>
<path d="M 1170.6 144.6 L 1206.3 146.8 L 1240.9 149.0 L 1276.0 151.2 L 1310.1 153.3 L 1349.7 155.7 L 1387.2 158.1 L 1421.9 160.2 L 1522.9 166.5 L 1544.2 167.8 L 1580.6 170.1 L 1583.4 170.2 L 1619.9 172.5" stroke="#000" stroke-width="1.3" stroke-opacity="0.8" fill="none" stroke-linecap="round" stroke-linejoin="round"/>
<path d="M 1096.6 220.7 L 1092.8 256.4 L 1088.0 300.8 L 1081.2 364.7 L 1078.0 394.1" stroke="#000" stroke-width="1.3" stroke-opacity="0.8" fill="none" stroke-linecap="round" stroke-linejoin="round"/>
<path d="M 1246.4 419.6 L 1261.9 420.1 L 1291.9 421.1" stroke="#000" stroke-width="1.3" stroke-opacity="0.8" fill="none" stroke-linecap="round" stroke-linejoin="round"/>
<path d="M 1688.4 538.7 L 1640.7 558.9 L 1537.8 602.5 L 1526.5 607.2 L 1524.0 608.4" stroke="#000" stroke-width="0.7" stroke-opacity="0.55" fill="none" stroke-linecap="round" stroke-linejoin="round"/>
<path d="M 1525.6 611.8 L 1415.9 659.7 L 1395.4 668.7 L 1361.4 683.6 L 1338.1 693.7" stroke="#000" stroke-width="0.7" stroke-opacity="0.55" fill="none" stroke-linecap="round" stroke-linejoin="round"/>
<path d="M 1580.3 674.0 L 1625.3 655.9" stroke="#000" stroke-width="1.3" stroke-opacity="0.8" fill="none" stroke-linecap="round" stroke-linejoin="round"/>
<path d="M 1377.0 628.4 L 1353.2 633.4" stroke="#000" stroke-width="1.3" stroke-opacity="0.8" fill="none" stroke-linecap="round" stroke-linejoin="round"/>
<path d="M 1361.4 683.6 L 1359.1 673.9 L 1352.8 644.3 L 1351.2 634.4 L 1353.2 633.4" stroke="#000" stroke-width="0.5" stroke-opacity="0.35" fill="none" stroke-linecap="round" stroke-linejoin="round"/>
<path d="M 1245.8 467.7 L 1255.3 473.2 L 1280.9 477.2" stroke="#000" stroke-width="1.3" stroke-opacity="0.8" fill="none" stroke-linecap="round" stroke-linejoin="round"/>
<path d="M 841.3 797.5 L 856.5 792.5" stroke="#000" stroke-width="3.6" stroke-opacity="1" fill="none" stroke-linecap="round" stroke-linejoin="round"/>
<path d="M 809.9 808.8 L 841.3 797.5" stroke="#000" stroke-width="3.6" stroke-opacity="1" fill="none" stroke-linecap="round" stroke-linejoin="round"/>
<path d="M 1160.3 314.3 L 1166.0 264.3 L 1169.9 228.5" stroke="#000" stroke-width="1.3" stroke-opacity="0.8" fill="none" stroke-linecap="round" stroke-linejoin="round"/>
<path d="M 983.3 819.6 L 963.7 819.7 L 932.9 807.6" stroke="#000" stroke-width="1.3" stroke-opacity="0.8" fill="none" stroke-linecap="round" stroke-linejoin="round"/>
<path d="M 837.6 869.9 L 863.6 889.6 L 869.8 900.3 L 874.3 918.4 L 875.8 938.1 L 875.4 952.9" stroke="#000" stroke-width="1.3" stroke-opacity="0.8" fill="none" stroke-linecap="round" stroke-linejoin="round"/>
<path d="M 1202.1 804.2 L 1164.1 820.6 L 1158.3 824.1 L 1140.6 831.9 L 1119.0 839.5" stroke="#000" stroke-width="1.3" stroke-opacity="0.8" fill="none" stroke-linecap="round" stroke-linejoin="round"/>
<path d="M 1118.6 755.8 L 1136.4 754.0 L 1157.6 754.0 L 1157.7 763.1 L 1171.0 762.7 L 1171.6 791.8 L 1141.5 805.6 L 1137.3 798.8 L 1129.5 798.5 L 1126.3 798.7" stroke="#000" stroke-width="0.7" stroke-opacity="0.55" fill="none" stroke-linecap="round" stroke-linejoin="round"/>
<path d="M 963.5 724.4 L 917.3 739.1 L 894.2 747.5" stroke="#000" stroke-width="1.3" stroke-opacity="0.8" fill="none" stroke-linecap="round" stroke-linejoin="round"/>
<path d="M 2064.8 1202.9 L 1605.5 1228.9 L 1388.5 1241.7 L 1373.5 1263.5 L 1281.8 1271.8 L 1277.3 1273.5 L 1275.6 1275.9 L 1255.7 1268.4" stroke="#000" stroke-width="3.2" stroke-opacity="0.9" fill="none" stroke-linecap="round" stroke-linejoin="round"/>
<path d="M 494.6 491.0 L 461.0 459.3 L 442.1 448.3 L 365.2 396.5 L 333.8 373.6 L 316.5 367.1 L 326.7 344.8 L 339.5 328.4 L 366.9 290.3 L 406.1 238.4 L 425.5 221.8 L 447.8 210.1" stroke="#000" stroke-width="1.3" stroke-opacity="0.8" fill="none" stroke-linecap="round" stroke-linejoin="round"/>
<path d="M 333.8 373.6 L 332.6 380.8 L 335.4 392.4 L 354.9 416.1 L 366.1 424.5 L 388.2 431.8 L 412.1 436.9 L 442.1 448.3" stroke="#000" stroke-width="1.3" stroke-opacity="0.8" fill="none" stroke-linecap="round" stroke-linejoin="round"/>
<path d="M 366.1 424.5 L 358.5 443.4 L 354.9 458.4 L 355.0 471.1" stroke="#000" stroke-width="1.3" stroke-opacity="0.8" fill="none" stroke-linecap="round" stroke-linejoin="round"/>
<path d="M 320.3 433.7 L 281.9 424.1 L 261.2 432.5" stroke="#000" stroke-width="1.3" stroke-opacity="0.8" fill="none" stroke-linecap="round" stroke-linejoin="round"/>
<path d="M 1353.6 104.5 L 1278.1 100.6 L 1250.6 99.7 L 1242.9 99.8 L 1234.8 100.5 L 1226.7 101.6 L 1219.3 103.4 L 1206.1 107.1 L 1187.3 113.7 L 1180.1 116.2" stroke="#000" stroke-width="1.3" stroke-opacity="0.8" fill="none" stroke-linecap="round" stroke-linejoin="round"/>
<path d="M 958.0 694.8 L 934.8 696.7 L 916.9 704.1 L 911.3 713.5 L 910.2 718.8 L 912.4 724.4 L 917.3 739.1" stroke="#000" stroke-width="1.3" stroke-opacity="0.8" fill="none" stroke-linecap="round" stroke-linejoin="round"/>
<path d="M 1600.5 587.1 L 1602.3 592.0 L 1604.8 599.1 L 1605.8 601.7 L 1611.6 617.8 L 1625.3 655.9 L 1637.6 690.1 L 1642.5 701.0 L 1652.6 723.7 L 1665.4 756.9 L 1668.1 765.2 L 1684.1 815.4 L 1691.6 840.1" stroke="#000" stroke-width="1.3" stroke-opacity="0.8" fill="none" stroke-linecap="round" stroke-linejoin="round"/>
<path d="M 1665.4 756.9 L 1638.1 766.8 L 1615.7 775.3" stroke="#000" stroke-width="1.3" stroke-opacity="0.8" fill="none" stroke-linecap="round" stroke-linejoin="round"/>
<path d="M 1615.7 775.3 L 1619.7 788.7 L 1615.5 800.4 L 1590.5 849.0 L 1565.9 896.3" stroke="#000" stroke-width="1.3" stroke-opacity="0.8" fill="none" stroke-linecap="round" stroke-linejoin="round"/>
<path d="M 1135.4 69.0 L 1155.0 72.3 L 1157.0 63.3 L 1163.9 58.2 L 1168.2 58.4" stroke="#000" stroke-width="1.3" stroke-opacity="0.8" fill="none" stroke-linecap="round" stroke-linejoin="round"/>
<path d="M 1163.9 58.2 L 1161.0 79.8 L 1158.4 98.7 L 1146.2 97.0 L 1148.7 78.2 L 1161.0 79.8" stroke="#000" stroke-width="0.7" stroke-opacity="0.55" fill="none" stroke-linecap="round" stroke-linejoin="round"/>
<path d="M 1184.3 59.1 L 1179.9 59.6 L 1168.2 58.4" stroke="#000" stroke-width="1.3" stroke-opacity="0.8" fill="none" stroke-linecap="round" stroke-linejoin="round"/>
<path d="M 1309.4 -56.1 L 1278.8 -24.2 L 1271.1 -14.9 L 1239.8 16.6 L 1197.1 60.0" stroke="#000" stroke-width="1.3" stroke-opacity="0.8" fill="none" stroke-linecap="round" stroke-linejoin="round"/>
<path d="M 1430.7 894.0 L 1417.9 868.0 L 1393.9 817.4 L 1374.6 768.3 L 1349.7 712.5" stroke="#000" stroke-width="1.3" stroke-opacity="0.8" fill="none" stroke-linecap="round" stroke-linejoin="round"/>
<path d="M 1439.8 794.5 L 1462.8 820.0" stroke="#000" stroke-width="1.3" stroke-opacity="0.8" fill="none" stroke-linecap="round" stroke-linejoin="round"/>
<path d="M 1433.6 955.4 L 1383.6 978.7 L 1304.1 1037.8 L 1294.5 1045.7" stroke="#000" stroke-width="1.3" stroke-opacity="0.8" fill="none" stroke-linecap="round" stroke-linejoin="round"/>
<path d="M 1069.2 750.9 L 1070.0 779.1 L 1016.3 780.1" stroke="#000" stroke-width="1.3" stroke-opacity="0.8" fill="none" stroke-linecap="round" stroke-linejoin="round"/>
<path d="M 1126.3 798.7 L 1135.8 820.1" stroke="#000" stroke-width="1.3" stroke-opacity="0.8" fill="none" stroke-linecap="round" stroke-linejoin="round"/>
<path d="M 1466.4 327.5 L 1467.7 322.0 L 1447.4 322.2" stroke="#000" stroke-width="1.3" stroke-opacity="0.8" fill="none" stroke-linecap="round" stroke-linejoin="round"/>
<path d="M 1444.0 374.7 L 1408.5 371.6 L 1350.1 368.0 L 1335.5 366.1 L 1287.9 362.7" stroke="#000" stroke-width="1.3" stroke-opacity="0.8" fill="none" stroke-linecap="round" stroke-linejoin="round"/>
<path d="M 1254.7 324.4 L 1262.6 323.8 L 1288.2 325.8 L 1349.3 330.6 L 1410.8 335.3" stroke="#000" stroke-width="1.3" stroke-opacity="0.8" fill="none" stroke-linecap="round" stroke-linejoin="round"/>
<path d="M 1169.1 417.5 L 1173.0 367.6" stroke="#000" stroke-width="1.3" stroke-opacity="0.8" fill="none" stroke-linecap="round" stroke-linejoin="round"/>
<path d="M 1078.0 394.1 L 1107.1 393.0" stroke="#000" stroke-width="1.3" stroke-opacity="0.8" fill="none" stroke-linecap="round" stroke-linejoin="round"/>
<path d="M 1287.9 362.7 L 1286.5 383.5" stroke="#000" stroke-width="1.3" stroke-opacity="0.8" fill="none" stroke-linecap="round" stroke-linejoin="round"/>
<path d="M 1286.5 383.5 L 1269.4 381.1 L 1251.7 380.4 L 1237.0 382.1 L 1211.8 371.2 L 1184.2 355.5 L 1169.6 347.3" stroke="#000" stroke-width="1.3" stroke-opacity="0.8" fill="none" stroke-linecap="round" stroke-linejoin="round"/>
<path d="M 1295.4 385.8 L 1286.5 383.5" stroke="#000" stroke-width="1.3" stroke-opacity="0.8" fill="none" stroke-linecap="round" stroke-linejoin="round"/>
<path d="M 1233.9 62.7 L 1233.6 66.0 L 1233.3 69.0" stroke="#000" stroke-width="0.7" stroke-opacity="0.55" fill="none" stroke-linecap="round" stroke-linejoin="round"/>
<path d="M 1188.5 66.1 L 1233.3 69.0 L 1280.7 72.1" stroke="#000" stroke-width="0.7" stroke-opacity="0.55" fill="none" stroke-linecap="round" stroke-linejoin="round"/>
<path d="M 1356.1 71.7 L 1353.6 104.5 L 1353.0 112.5 L 1351.6 131.0 L 1349.7 155.7 L 1344.6 222.2" stroke="#000" stroke-width="1.3" stroke-opacity="0.8" fill="none" stroke-linecap="round" stroke-linejoin="round"/>
<path d="M 1320.8 456.1 L 1320.8 452.0" stroke="#000" stroke-width="0.7" stroke-opacity="0.55" fill="none" stroke-linecap="round" stroke-linejoin="round"/>
<path d="M 894.8 654.2 L 910.9 655.4" stroke="#000" stroke-width="0.7" stroke-opacity="0.55" fill="none" stroke-linecap="round" stroke-linejoin="round"/>
<path d="M 886.3 677.2 L 904.7 682.3" stroke="#000" stroke-width="0.7" stroke-opacity="0.55" fill="none" stroke-linecap="round" stroke-linejoin="round"/>
<path d="M 980.1 737.6 L 975.3 743.5" stroke="#000" stroke-width="1.3" stroke-opacity="0.8" fill="none" stroke-linecap="round" stroke-linejoin="round"/>
<path d="M 995.5 749.4 L 994.8 741.2 L 997.7 736.4" stroke="#000" stroke-width="1.3" stroke-opacity="0.8" fill="none" stroke-linecap="round" stroke-linejoin="round"/>
<path d="M 1277.3 134.4 L 1209.7 129.2" stroke="#000" stroke-width="0.7" stroke-opacity="0.55" fill="none" stroke-linecap="round" stroke-linejoin="round"/>
<path d="M 1330.0 1058.8 L 1338.8 1070.8" stroke="#000" stroke-width="0.7" stroke-opacity="0.55" fill="none" stroke-linecap="round" stroke-linejoin="round"/>
<path d="M 1631.9 1131.6 L 1626.1 1137.4 L 1611.3 1139.1 L 1513.7 1138.7 L 1485.9 1139.6 L 1467.3 1144.5 L 1434.2 1157.1 L 1407.7 1158.8 L 1382.3 1158.2 L 1365.6 1154.7 L 1328.8 1153.7 L 1281.4 1154.5 L 1261.3 1156.5 L 1250.8 1159.4 L 1244.0 1167.8 L 1240.8 1177.8 L 1241.6 1190.6 L 1256.0 1226.8 L 1272.4 1267.8" stroke="#000" stroke-width="0.7" stroke-opacity="0.55" fill="none" stroke-linecap="round" stroke-linejoin="round"/>
<path d="M 755.4 109.9 L 752.1 102.5 L 744.1 74.2 L 732.7 55.2 L 728.7 18.9 L 731.5 -31.9 L 723.8 -94.9 L 680.1 -241.1 L 661.6 -287.9 L 614.3 -376.4 L 588.4 -426.2 L 544.2 -538.8 L 506.6 -637.8 L 455.0 -787.9 L 419.3 -862.3 L 346.1 -1016.0 L 247.7 -1185.1 L 142.5 -1420.7 L 94.0 -1525.9 L 44.5 -1644.4 L -7.7 -1769.8 L -47.7 -1886.3 L -67.0 -1934.5 L -82.1 -1963.2 L -92.1 -1985.3 L -102.6 -2008.6 L -103.4 -2010.8 L -103.8 -2012.7 L -104.0 -2015.1 L -103.8 -2017.8 L -102.8 -2022.4" stroke="#000" stroke-width="1.3" stroke-opacity="0.8" fill="none" stroke-linecap="round" stroke-linejoin="round"/>
<path d="M 851.3 774.2 L 849.3 772.8 L 846.9 772.1 L 844.4 772.0 L 842.1 772.6 L 839.9 773.8 L 838.2 775.5" stroke="#000" stroke-width="0.9" stroke-opacity="0.6" fill="none" stroke-linecap="round" stroke-linejoin="round"/>
<path d="M 839.5 791.9 L 821.9 797.5" stroke="#000" stroke-width="3.6" stroke-opacity="1" fill="none" stroke-linecap="round" stroke-linejoin="round"/>
<path d="M 854.9 787.0 L 839.5 791.9" stroke="#000" stroke-width="3.6" stroke-opacity="1" fill="none" stroke-linecap="round" stroke-linejoin="round"/>
<path d="M 864.0 784.4 L 854.9 787.0" stroke="#000" stroke-width="3.6" stroke-opacity="1" fill="none" stroke-linecap="round" stroke-linejoin="round"/>
<path d="M 850.9 737.1 L 846.8 745.6 L 844.5 751.2 L 843.1 754.5 L 841.5 759.4 L 839.8 765.6" stroke="#000" stroke-width="2.4" stroke-opacity="0.95" fill="none" stroke-linecap="round" stroke-linejoin="round"/>
<path d="M 839.8 765.6 L 835.6 772.4 L 833.1 776.5 L 830.9 780.7 L 827.5 787.7 L 821.9 797.5" stroke="#000" stroke-width="0.9" stroke-opacity="0.6" fill="none" stroke-linecap="round" stroke-linejoin="round"/>
<path d="M 830.9 367.0 L 842.6 345.5 L 851.1 329.7 L 861.8 324.4 L 872.4 315.2 L 880.4 299.5 L 906.3 310.0 L 941.1 238.2" stroke="#000" stroke-width="0.7" stroke-opacity="0.55" fill="none" stroke-linecap="round" stroke-linejoin="round"/>
<path d="M 880.2 421.8 L 874.8 410.3 L 865.8 397.0 L 853.0 384.4 L 830.9 367.0 L 804.0 346.8" stroke="#000" stroke-width="2.4" stroke-opacity="0.95" fill="none" stroke-linecap="round" stroke-linejoin="round"/>
<path d="M 804.0 346.8 L 799.7 343.7" stroke="#000" stroke-width="2.4" stroke-opacity="0.95" fill="none" stroke-linecap="round" stroke-linejoin="round"/>
<path d="M 979.9 986.4 L 949.9 986.2" stroke="#000" stroke-width="1.3" stroke-opacity="0.8" fill="none" stroke-linecap="round" stroke-linejoin="round"/>
<path d="M 949.9 986.2 L 904.6 986.2" stroke="#000" stroke-width="1.3" stroke-opacity="0.8" fill="none" stroke-linecap="round" stroke-linejoin="round"/>
  
    <g stroke="#000" fill="none" stroke-width="2.9952">
      <circle cx="936" cy="702" r="16.848"/>
      <circle cx="936" cy="702" r="3.744" fill="#000" stroke="none"/>
    </g>
  <rect width="100%" height="100%" fill="url(#vignette)"/>
  
    <g transform="translate(1776, 116)" stroke="#000" stroke-width="2.2464" fill="#000">
      <line x1="0" y1="37.44" x2="0" y2="-37.44"/>
      <path d="M 0 -37.44 L 13.104 -13.104 L 0 -22.464 L -13.104 -13.104 Z"/>
      <text x="0" y="59.44" text-anchor="middle" font-family="Georgia, serif" font-size="22.464000000000002">N</text>
    </g>
  <rect x="66" y="66" width="1740" height="1272" fill="none" stroke="#000" stroke-width="2" stroke-opacity="0.7"/>
  <rect x="74" y="74" width="1724" height="1256" fill="none" stroke="#000" stroke-width="1" stroke-opacity="0.4"/>
  <g text-anchor="middle" font-family="Georgia, serif" fill="#000">
        <line x1="846" y1="1274" x2="1026" y2="1274" stroke="#000" stroke-width="1.5"/>
        <text x="936" y="1312" font-size="39.312000000000005" letter-spacing="1">Aïn Arnat</text>
        <text x="936" y="1338" font-size="22.464000000000002" fill="#000" opacity="0.75">36.1847°N  5.3069°E</text>
      </g>
</svg>