<svg xmlns="http://www.w3.org/2000/svg" width="1872" height="1404" viewBox="0 0 1872 1404">
  <defs>
    <radialGradient id="vignette" cx="50%" cy="50%" r="954.72" gradientUnits="userSpaceOnUse">
      <stop offset="55%" stop-color="#fff" stop-opacity="0"/>
      <stop offset="100%" stop-color="#fff" stop-opacity="1"/>
    </radialGradient>
  </defs>
  <rect width="100%" height="100%" fill="#fff"/>
  <path d="M 1874.0 1009.1 L 1834.0 1008.4 L 1767.6 1006.6 L 1748.8 1006.4 L 1736.2 1006.3 L 1715.6 1007.0 L 1707.0 1008.1 L 1700.8 1009.6 L 1696.2 1011.8 L 1690.6 1015.2 L 1658.7 1042.6 L 1651.4 1048.8 L 1646.8 1051.8 L 1641.7 1053.6 L 1636.4 1054.4 L 1600.1 1054.8 L 1589.6 1054.9 L 1583.9 1055.0 L 1574.2 1055.2 L 1565.7 1055.2 L 1550.2 1055.3 L 1544.1 1055.4 L 1535.1 1055.4 L 1496.1 1055.1 L 1485.1 1055.7 L 1480.0 1056.5 L 1478.5 1057.0 L 1474.7 1058.4 L 1465.3 1062.5 L 1445.6 1070.7 L 1443.9 1071.2 L 1414.1 1079.1 L 1392.1 1084.0 L 1372.1 1087.2 L 1342.8 1091.6 L 1317.4 1094.0 L 1292.6 1095.7 L 1263.9 1095.8 L 1250.2 1095.5 L 1209.6 1096.3 L 1091.4 1095.1 L 1085.8 1095.1 L 1079.3 1096.9 L 1074.8 1100.5 L 1071.0 1106.5 L 1054.0 1153.3 L 1045.6 1176.5 L 1029.5 1220.8 L 1014.7 1264.8 L 1007.2 1277.0 L 995.8 1286.6 L 984.6 1291.9 L 916.5 1308.5 L 891.8 1313.6 L 816.6 1329.6 L 787.6 1335.9 L 778.3 1339.9" stroke="#000" stroke-width="1.3" stroke-opacity="0.8" fill="none" stroke-linecap="round" stroke-linejoin="round"/>
<path d="M -391.1 371.6 L -296.4 362.7 L -285.7 361.7 L -241.3 356.7 L -14.5 332.9 L -7.9 332.0 L -4.4 331.8 L 30.1 330.3 L 111.1 326.8 L 294.1 316.4 L 357.5 306.2 L 373.2 304.3 L 382.1 303.4 L 421.6 301.9 L 438.7 297.9 L 483.7 283.7 L 526.0 266.8 L 723.5 191.5 L 726.6 190.0 L 855.5 130.4 L 863.6 126.8 L 887.4 115.8 L 1002.8 62.6 L 1090.0 22.4 L 1296.1 -68.5 L 1330.4 -83.3 L 1412.5 -118.7 L 1441.4 -129.5 L 1450.7 -132.5 L 1474.4 -145.4 L 1594.4 -196.4 L 1686.0 -235.4 L 1789.9 -276.1 L 1823.1 -290.3 L 1876.5 -313.9 L 1897.0 -321.3 L 2005.5 -368.5 L 2110.1 -413.8 L 2117.6 -416.7 L 2466.7 -563.8 L 2482.1 -570.1 L 2566.0 -604.7 L 2613.7 -624.9 L 2622.1 -628.5 L 2629.9 -631.7 L 2634.6 -633.8 L 2710.9 -665.1 L 2752.1 -682.1 L 2753.2 -682.5 L 2777.6 -692.9 L 2943.3 -758.2 L 3020.7 -788.2 L 3027.6 -790.6 L 3041.3 -794.9 L 3120.7 -821.0 L 3192.1 -844.5 L 3241.0 -860.6 L 3265.3 -868.9 L 3290.4 -876.3 L 3390.7 -908.9 L 3454.8 -929.6 L 3625.2 -984.7 L 3661.0 -996.2 L 3662.5 -996.7 L 3671.3 -999.4" stroke="#000" stroke-width="2.4" stroke-opacity="0.95" fill="none" stroke-linecap="round" stroke-linejoin="round"/>
<path d="M 649.1 826.8 L 643.3 839.7 L 641.7 841.8 L 639.0 842.8 L 635.0 842.1 L 591.5 824.9 L 540.2 807.6 L 514.2 801.4 L 501.3 802.0 L 494.4 802.9" stroke="#000" stroke-width="1.3" stroke-opacity="0.8" fill="none" stroke-linecap="round" stroke-linejoin="round"/>
<path d="M 751.3 1108.2 L 746.5 1115.3 L 740.9 1126.9 L 736.9 1137.0 L 730.5 1145.8 L 726.8 1152.9 L 719.6 1166.7 L 715.9 1177.4 L 711.4 1185.3 L 709.5 1188.5 L 697.6 1205.8 L 695.0 1209.7" stroke="#000" stroke-width="1.3" stroke-opacity="0.8" fill="none" stroke-linecap="round" stroke-linejoin="round"/>
<path d="M 842.2 905.0 L 812.6 893.4 L 765.8 873.4 L 760.3 871.1 L 753.3 868.4 L 739.8 868.2 L 720.1 869.5 L 711.7 869.4 L 673.1 868.8 L 653.1 868.3 L 633.8 863.0 L 608.0 861.5 L 587.6 865.8 L 582.3 870.1 L 574.8 898.7 L 571.5 908.8 L 562.6 935.1 L 556.3 954.4" stroke="#000" stroke-width="1.3" stroke-opacity="0.8" fill="none" stroke-linecap="round" stroke-linejoin="round"/>
<path d="M 3674.5 -986.6 L 3664.1 -983.2 L 3650.8 -978.0 L 3641.5 -975.0 L 3465.1 -917.4 L 3444.1 -910.5 L 3413.5 -900.4 L 3369.4 -885.8 L 3340.2 -876.2 L 3333.1 -874.9 L 3321.0 -870.9 L 3301.5 -864.5 L 3292.4 -861.5 L 3279.5 -857.3 L 3276.8 -856.4 L 3270.6 -854.4 L 3245.2 -846.1 L 3229.6 -841.1 L 3228.0 -840.5 L 3174.3 -823.2 L 3115.1 -805.2 L 3102.7 -801.4 L 3072.7 -792.2 L 3037.7 -780.9 L 3031.7 -778.7 L 3023.5 -775.5 L 2957.8 -749.6 L 2950.6 -746.7 L 2921.5 -734.1 L 2909.6 -729.7 L 2878.2 -717.0 L 2875.0 -715.7 L 2802.3 -686.3 L 2759.0 -668.0 L 2756.4 -666.9 L 2737.5 -659.4 L 2656.0 -624.4 L 2652.9 -623.2 L 2629.3 -615.3 L 2621.0 -611.8 L 2599.9 -603.3 L 2591.4 -599.7 L 2570.8 -590.5 L 2561.0 -586.9 L 2543.8 -578.9 L 2532.9 -574.7 L 2493.8 -559.2 L 2472.8 -550.9 L 2439.7 -537.8 L 2422.8 -530.4 L 2417.8 -528.2 L 2232.9 -446.7 L 2205.8 -435.3 L 2133.5 -404.9 L 2124.7 -401.2 L 2116.7 -397.8 L 2026.7 -359.3 L 2008.3 -352.2 L 1983.8 -341.1 L 1933.0 -318.0 L 1853.3 -284.8 L 1798.4 -261.9 L 1704.3 -222.5 L 1702.4 -221.8 L 1578.0 -168.9 L 1521.1 -145.2 L 1504.6 -138.1 L 1480.0 -127.5 L 1462.4 -119.9 L 1449.3 -114.6 L 1438.7 -110.1 L 1414.9 -100.6 L 1368.1 -81.6 L 1351.3 -75.5 L 1233.7 -24.4 L 1231.9 -23.6 L 1193.7 -7.3 L 1090.7 36.5 L 930.0 111.8 L 927.5 112.9 L 892.0 129.5 L 792.0 176.2 L 732.7 203.8 L 723.7 208.2 L 693.1 218.9 L 639.3 238.8 L 579.5 261.0 L 502.0 290.7 L 500.3 291.3 L 488.9 296.1 L 436.5 315.4 L 412.9 324.1 L 388.7 333.4 L 363.4 337.2 L 336.3 337.6 L 295.1 339.2" stroke="#000" stroke-width="2.4" stroke-opacity="0.95" fill="none" stroke-linecap="round" stroke-linejoin="round"/>
<path d="M 2631.5 -584.9 L 2578.5 -566.9 L 2422.1 -500.1 L 2194.6 -404.3 L 2078.3 -353.6 L 1931.3 -293.9 L 1852.3 -259.2 L 1777.3 -226.3 L 1705.0 -183.3 L 1585.6 -137.7 L 1337.3 -35.5 L 1249.7 2.1 L 1129.0 54.0 L 913.5 155.0 L 692.9 258.3 L 660.3 269.9" stroke="#000" stroke-width="3.2" stroke-opacity="0.9" fill="none" stroke-linecap="round" stroke-linejoin="round"/>
<path d="M 1518.4 819.7 L 1535.4 811.1 L 1537.5 808.7 L 1538.1 805.3 L 1541.8 783.5 L 1543.7 780.0 L 1546.2 777.4 L 1550.3 775.9 L 1556.2 774.8 L 1560.1 772.8 L 1563.5 769.7 L 1571.2 763.6" stroke="#000" stroke-width="1.3" stroke-opacity="0.8" fill="none" stroke-linecap="round" stroke-linejoin="round"/>
<path d="M 1423.2 667.5 L 1191.2 426.2 L 1085.1 329.4 L 1062.9 299.3 L 1051.5 295.6 L 913.5 155.0" stroke="#000" stroke-width="3.2" stroke-opacity="0.9" fill="none" stroke-linecap="round" stroke-linejoin="round"/>
<path d="M 390.7 212.0 L 405.0 273.1 L 406.7 275.0 L 409.4 276.1 L 520.5 245.9 L 722.6 176.4" stroke="#000" stroke-width="1.3" stroke-opacity="0.8" fill="none" stroke-linecap="round" stroke-linejoin="round"/>
<path d="M 526.0 266.8 L 520.5 245.9" stroke="#000" stroke-width="1.3" stroke-opacity="0.8" fill="none" stroke-linecap="round" stroke-linejoin="round"/>
<path d="M 546.9 197.4 L 518.3 174.0" stroke="#000" stroke-width="1.3" stroke-opacity="0.8" fill="none" stroke-linecap="round" stroke-linejoin="round"/>
<path d="M 520.5 245.9 L 531.3 226.1 L 546.9 197.4 L 561.8 182.1 L 579.9 170.4 L 597.6 160.0 L 616.9 152.5 L 619.8 151.4 L 659.9 148.4 L 702.1 155.0 L 716.6 159.9 L 720.2 163.4 L 720.5 165.4 L 722.6 176.4" stroke="#000" stroke-width="1.3" stroke-opacity="0.8" fill="none" stroke-linecap="round" stroke-linejoin="round"/>
<path d="M 518.3 174.0 L 536.3 156.6 L 538.3 155.0 L 560.1 137.3 L 565.9 134.1 L 581.5 126.1 L 594.6 120.8 L 604.1 117.6 L 606.6 116.9 L 609.7 116.1 L 628.1 112.0 L 643.0 109.9 L 660.1 108.8 L 668.6 108.2 L 698.4 111.2 L 708.8 114.5 L 714.6 116.7" stroke="#000" stroke-width="1.3" stroke-opacity="0.8" fill="none" stroke-linecap="round" stroke-linejoin="round"/>
<path d="M 659.9 148.4 L 660.1 108.8 L 662.8 -12.8 L 664.2 -24.4" stroke="#000" stroke-width="1.3" stroke-opacity="0.8" fill="none" stroke-linecap="round" stroke-linejoin="round"/>
<path d="M 437.6 227.6 L 486.4 212.7 L 498.6 203.7 L 518.3 174.0" stroke="#000" stroke-width="1.3" stroke-opacity="0.8" fill="none" stroke-linecap="round" stroke-linejoin="round"/>
<path d="M 713.5 16.9 L 715.1 18.2 L 716.1 19.5 L 714.6 116.7 L 708.2 136.4 L 702.1 155.0" stroke="#000" stroke-width="1.3" stroke-opacity="0.8" fill="none" stroke-linecap="round" stroke-linejoin="round"/>
<path d="M 235.2 628.2 L 270.5 627.0 L 286.4 626.7 L 304.8 625.5 L 319.9 625.0 L 350.1 624.5 L 373.0 622.2 L 392.0 620.2 L 429.1 616.2" stroke="#000" stroke-width="1.3" stroke-opacity="0.8" fill="none" stroke-linecap="round" stroke-linejoin="round"/>
<path d="M 271.4 807.6 L 327.3 807.0 L 338.7 809.1 L 362.6 809.8 L 410.7 809.9" stroke="#000" stroke-width="1.3" stroke-opacity="0.8" fill="none" stroke-linecap="round" stroke-linejoin="round"/>
<path d="M 275.1 1158.8 L 325.5 1159.6 L 378.7 1160.1 L 379.0 1153.7 L 382.1 1152.1 L 387.1 1152.4 L 435.8 1152.8 L 451.1 1152.9 L 536.7 1151.6 L 615.9 1148.9 L 622.9 1147.0" stroke="#000" stroke-width="1.3" stroke-opacity="0.8" fill="none" stroke-linecap="round" stroke-linejoin="round"/>
<path d="M 380.5 1071.1 L 414.8 1071.7 L 455.9 1071.2 L 488.3 1068.8" stroke="#000" stroke-width="1.3" stroke-opacity="0.8" fill="none" stroke-linecap="round" stroke-linejoin="round"/>
<path d="M 286.4 626.7 L 285.5 586.3" stroke="#000" stroke-width="1.3" stroke-opacity="0.8" fill="none" stroke-linecap="round" stroke-linejoin="round"/>
<path d="M 319.9 625.0 L 318.4 540.3" stroke="#000" stroke-width="1.3" stroke-opacity="0.8" fill="none" stroke-linecap="round" stroke-linejoin="round"/>
<path d="M 350.1 624.5 L 348.1 554.3" stroke="#000" stroke-width="1.3" stroke-opacity="0.8" fill="none" stroke-linecap="round" stroke-linejoin="round"/>
<path d="M 682.4 1233.4 L 622.9 1147.0 L 599.7 1116.1 L 552.9 1046.0 L 539.5 1024.0 L 525.8 1001.6 L 513.3 976.9 L 500.9 945.1 L 498.9 940.2 L 494.6 919.3 L 466.8 792.2 L 462.3 771.6 L 452.7 727.2 L 441.7 676.5 L 436.0 647.4 L 429.1 616.2 L 415.9 562.2 L 407.6 528.2 L 393.3 465.1 L 386.2 433.6 L 379.0 395.9 L 376.7 383.7 L 375.4 376.8 L 363.4 337.2 L 357.5 306.2 L 346.5 261.4 L 333.1 213.0 L 328.0 194.2 L 316.4 144.6 L 303.5 89.4 L 302.1 83.3 L 294.1 47.7 L 282.8 -2.2 L 278.5 -20.7 L 268.4 -63.6 L 264.3 -80.0 L 262.3 -88.2 L 260.7 -95.4 L 258.0 -107.8 L 256.6 -114.0 L 252.8 -125.2 L 243.5 -161.9 L 230.9 -211.8 L 226.4 -229.2 L 208.7 -298.7 L 205.9 -306.6 L 190.8 -364.1 L 186.7 -379.8 L 175.0 -424.1 L 154.6 -500.9 L 145.9 -533.6 L 135.5 -572.3 L 110.9 -674.2 L 100.1 -717.0 L 97.4 -727.7 L 94.3 -739.8 L 93.7 -742.6 L 86.3 -770.2 L 78.5 -799.7 L 74.2 -817.0 L 70.9 -829.8 L 61.1 -868.5 L 45.9 -926.1 L 45.3 -928.6 L 27.9 -998.4 L 15.1 -1048.3 L 8.2 -1074.9 L -3.9 -1118.5 L -12.0 -1147.8 L -17.1 -1166.0 L -19.8 -1174.4 L -22.1 -1181.8 L -27.4 -1200.7 L -29.0 -1206.7 L -30.3 -1211.8 L -34.9 -1230.3 L -48.0 -1283.2 L -48.9 -1287.1 L -50.0 -1291.2 L -72.5 -1379.2 L -74.2 -1385.9 L -97.8 -1484.0 L -107.5 -1525.4 L -116.5 -1566.7 L -127.0 -1605.0 L -134.3 -1631.6 L -136.4 -1639.9 L -136.9 -1642.0 L -137.7 -1645.0 L -139.0 -1650.4 L -141.0 -1658.2 L -142.6 -1664.9 L -147.6 -1684.9 L -147.8 -1685.8 L -155.4 -1716.2 L -156.4 -1720.3 L -166.6 -1755.9" stroke="#000" stroke-width="2.4" stroke-opacity="0.95" fill="none" stroke-linecap="round" stroke-linejoin="round"/>
<path d="M 392.0 620.2 L 403.5 652.5 L 409.3 676.6" stroke="#000" stroke-width="1.3" stroke-opacity="0.8" fill="none" stroke-linecap="round" stroke-linejoin="round"/>
<path d="M 338.9 678.4 L 342.6 678.5 L 362.1 678.9 L 374.1 678.7 L 387.4 677.9 L 409.3 676.6 L 441.7 676.5" stroke="#000" stroke-width="1.3" stroke-opacity="0.8" fill="none" stroke-linecap="round" stroke-linejoin="round"/>
<path d="M 267.8 586.6 L 270.5 627.0" stroke="#000" stroke-width="1.3" stroke-opacity="0.8" fill="none" stroke-linecap="round" stroke-linejoin="round"/>
<path d="M 338.9 678.4 L 338.4 703.8 L 338.3 713.7 L 338.3 724.0 L 338.4 741.6 L 338.6 789.5" stroke="#000" stroke-width="1.3" stroke-opacity="0.8" fill="none" stroke-linecap="round" stroke-linejoin="round"/>
<path d="M 271.3 772.3 L 232.9 772.8 L 231.0 733.5" stroke="#000" stroke-width="1.3" stroke-opacity="0.8" fill="none" stroke-linecap="round" stroke-linejoin="round"/>
<path d="M 374.3 654.3 L 403.5 652.5 L 436.0 647.4" stroke="#000" stroke-width="1.3" stroke-opacity="0.8" fill="none" stroke-linecap="round" stroke-linejoin="round"/>
<path d="M 286.8 950.8 L 287.7 973.7 L 290.4 978.0 L 294.9 982.3 L 302.4 982.8 L 309.5 987.2" stroke="#000" stroke-width="1.3" stroke-opacity="0.8" fill="none" stroke-linecap="round" stroke-linejoin="round"/>
<path d="M 488.5 1103.1 L 455.1 1100.0 L 449.5 1100.0 L 430.7 1100.3 L 371.3 1102.1 L 351.9 1102.8 L 327.3 1103.5 L 317.8 1103.5" stroke="#000" stroke-width="1.3" stroke-opacity="0.8" fill="none" stroke-linecap="round" stroke-linejoin="round"/>
<path d="M 220.1 953.6 L 223.6 915.2 L 225.1 913.6 L 227.1 911.5 L 228.9 910.8 L 231.8 910.4 L 269.9 910.5 L 307.8 908.5 L 338.3 909.4 L 351.7 909.3 L 377.8 908.3 L 383.2 909.9 L 390.8 911.8" stroke="#000" stroke-width="1.3" stroke-opacity="0.8" fill="none" stroke-linecap="round" stroke-linejoin="round"/>
<path d="M 455.9 1071.2 L 461.7 978.7 L 463.9 977.0 L 466.5 976.4 L 506.5 978.8 L 510.7 978.2 L 513.3 976.9" stroke="#000" stroke-width="1.3" stroke-opacity="0.8" fill="none" stroke-linecap="round" stroke-linejoin="round"/>
<path d="M 1011.9 1051.9 L 989.8 1075.5 L 984.5 1081.1 L 956.4 1115.3 L 953.4 1119.1 L 950.0 1127.2 L 949.2 1128.2 L 947.7 1128.4 L 937.3 1125.2 L 936.6 1125.2 L 935.3 1125.9 L 929.5 1130.7" stroke="#000" stroke-width="1.3" stroke-opacity="0.8" fill="none" stroke-linecap="round" stroke-linejoin="round"/>
<path d="M 711.0 999.5 L 691.8 997.1 L 670.4 994.5 L 646.5 991.5 L 625.7 987.2 L 604.7 987.1 L 588.5 987.4 L 583.1 984.5 L 580.4 978.7 L 560.8 960.1 L 556.3 954.4 L 540.7 947.2 L 528.9 945.6" stroke="#000" stroke-width="1.3" stroke-opacity="0.8" fill="none" stroke-linecap="round" stroke-linejoin="round"/>
<path d="M 888.9 1026.9 L 900.5 1029.4 L 921.6 1035.0 L 923.9 1036.6 L 925.4 1038.0 L 924.2 1041.9 L 925.0 1044.1 L 942.4 1057.4 L 944.8 1061.1 L 951.9 1068.5 L 964.5 1074.5 L 965.6 1074.2 L 968.5 1070.9 L 969.4 1070.1 L 970.6 1070.0 L 984.5 1081.1" stroke="#000" stroke-width="0.7" stroke-opacity="0.55" fill="none" stroke-linecap="round" stroke-linejoin="round"/>
<path d="M 758.6 1112.8 L 766.2 1113.2 L 773.9 1114.5 L 779.3 1114.4 L 783.7 1111.2 L 788.7 1106.7 L 795.6 1099.9 L 796.9 1096.5 L 796.5 1091.9 L 798.5 1076.7 L 822.8 1043.3 L 832.1 1031.9 L 839.4 1018.9 L 846.1 997.8 L 852.6 984.5" stroke="#000" stroke-width="1.3" stroke-opacity="0.8" fill="none" stroke-linecap="round" stroke-linejoin="round"/>
<path d="M 711.0 999.5 L 711.5 985.5 L 713.7 956.3 L 713.8 953.9 L 713.1 951.4 L 707.3 947.9 L 706.4 947.1 L 694.1 927.0 L 691.6 922.9 L 688.6 915.6 L 686.6 905.2 L 685.2 902.8 L 681.8 901.3 L 677.1 887.8 L 673.1 868.8 L 665.9 849.3 L 665.2 846.4 L 656.7 824.8 L 651.7 799.4 L 650.5 795.8 L 643.2 773.5 L 635.3 748.4 L 630.3 727.0 L 628.8 718.3 L 624.6 665.5 L 623.8 650.9 L 619.7 606.3 L 619.1 600.1 L 597.2 483.3 L 590.0 456.6 L 582.2 439.8 L 575.5 398.6 L 573.4 394.6 L 568.5 392.7 L 543.3 392.0 L 437.0 389.0 L 409.0 391.5 L 402.2 392.8" stroke="#000" stroke-width="1.3" stroke-opacity="0.8" fill="none" stroke-linecap="round" stroke-linejoin="round"/>
<path d="M 2114.5 5967.1 L 2110.2 5950.7 L 2108.1 5934.7 L 2108.4 5900.5 L 2108.8 5869.8 L 2113.0 5724.0 L 2117.5 5593.3 L 2120.6 5470.3 L 2124.1 5353.9 L 2125.6 5306.4 L 2127.4 5246.2 L 2127.6 5241.3 L 2128.5 5215.6 L 2128.0 5187.8 L 2127.7 5169.4 L 2126.9 5160.8 L 2126.4 5155.0 L 2123.7 5136.8 L 2121.4 5126.2 L 2118.6 5112.8 L 2116.5 5104.9 L 2115.1 5099.6 L 2111.1 5087.7 L 2102.5 5067.2 L 2083.8 5028.8 L 2055.7 4976.3 L 2051.2 4968.1 L 2017.0 4905.5 L 2014.5 4901.1 L 1964.3 4810.2 L 1918.9 4727.8 L 1909.3 4711.2 L 1885.0 4669.7 L 1864.0 4633.9 L 1859.8 4627.3 L 1833.6 4586.2 L 1797.7 4532.8 L 1789.1 4520.0 L 1749.0 4456.3 L 1741.5 4442.0 L 1728.1 4413.9 L 1714.4 4375.4 L 1706.8 4347.6 L 1693.2 4295.4 L 1685.9 4267.3 L 1669.5 4209.4 L 1658.7 4171.6 L 1639.4 4098.5 L 1629.8 4062.1 L 1607.8 3975.4 L 1604.3 3961.6 L 1588.4 3895.4 L 1581.2 3865.5 L 1569.6 3819.8 L 1562.0 3789.7 L 1549.9 3739.3 L 1537.6 3688.1 L 1525.1 3642.4 L 1511.4 3592.1 L 1483.8 3493.6 L 1444.2 3357.3 L 1443.9 3356.1 L 1442.2 3350.9 L 1441.1 3347.6 L 1404.1 3222.1 L 1402.1 3213.9 L 1386.0 3158.6 L 1373.7 3110.7 L 1371.5 3103.1 L 1358.4 3057.4 L 1342.2 3005.3 L 1339.3 2996.2 L 1336.3 2986.6 L 1301.2 2865.9 L 1298.9 2857.8 L 1278.6 2787.1 L 1274.8 2773.8 L 1267.4 2749.8 L 1259.5 2724.2 L 1255.4 2710.9 L 1239.2 2658.8 L 1204.9 2536.2 L 1203.9 2532.9 L 1201.4 2523.9 L 1182.7 2457.8 L 1176.6 2437.3 L 1168.8 2410.8 L 1160.5 2382.9 L 1155.9 2367.1 L 1148.1 2339.7 L 1142.3 2319.4 L 1137.8 2303.9 L 1135.6 2296.3 L 1128.8 2272.6 L 1092.0 2145.8 L 1084.2 2118.8 L 1076.5 2091.7 L 1066.6 2056.6 L 1060.3 2034.2 L 1049.7 1996.6 L 1045.7 1983.2 L 1045.3 1982.0 L 1041.7 1968.0 L 1041.1 1965.7 L 1037.8 1954.1 L 1001.8 1828.0 L 997.6 1813.2 L 980.9 1765.3 L 955.8 1714.9 L 952.5 1708.7 L 929.9 1665.7 L 906.2 1623.1 L 862.3 1547.2 L 831.7 1492.3 L 804.1 1440.1 L 800.5 1433.3 L 788.7 1411.8 L 776.7 1388.7 L 758.8 1357.4 L 739.1 1319.7 L 715.6 1282.8 L 682.4 1233.4" stroke="#000" stroke-width="2.4" stroke-opacity="0.95" fill="none" stroke-linecap="round" stroke-linejoin="round"/>
<path d="M 846.9 1035.7 L 837.6 1067.8 L 832.6 1074.0 L 826.0 1083.7 L 817.4 1095.7 L 812.0 1103.7 L 806.9 1114.1" stroke="#000" stroke-width="0.7" stroke-opacity="0.55" fill="none" stroke-linecap="round" stroke-linejoin="round"/>
<path d="M 1085.8 1095.1 L 1075.2 1090.3 L 1046.7 1075.7 L 1027.6 1064.1 L 1014.8 1054.8 L 1011.9 1051.9 L 1010.6 1049.1 L 1009.0 1043.2 L 1008.3 1040.8 L 1006.4 1037.6 L 1004.6 1035.4 L 1001.3 1033.2 L 995.4 1031.2 L 986.2 1028.9 L 941.3 1016.2 L 894.8 1002.6 L 891.3 992.6 L 889.1 990.0 L 875.9 985.1 L 873.0 983.8 L 875.1 972.6 L 875.5 966.5 L 875.5 964.1 L 874.4 961.2 L 873.6 958.1 L 873.9 940.4 L 876.2 932.7 L 876.9 930.4 L 882.9 916.8 L 912.8 862.9 L 940.7 828.3 L 954.8 812.8 L 972.9 792.9 L 992.7 771.1 L 1009.5 752.5 L 1072.5 690.4 L 1079.3 681.5 L 1082.7 676.9 L 1085.5 671.2 L 1090.3 660.8 L 1099.3 641.2 L 1112.2 613.2 L 1113.9 607.9 L 1115.1 604.3 L 1115.9 599.9 L 1114.0 587.6 L 1115.5 580.3 L 1119.1 571.1 L 1125.4 558.7" stroke="#000" stroke-width="1.3" stroke-opacity="0.8" fill="none" stroke-linecap="round" stroke-linejoin="round"/>
<path d="M 1061.1 1625.7 L 1056.9 1621.7 L 1041.6 1571.0 L 1034.5 1555.5 L 1024.1 1536.1 L 1004.1 1496.7 L 998.0 1482.3 L 953.5 1381.3 L 945.6 1366.6 L 938.0 1353.8 L 935.6 1347.1 L 916.5 1308.5 L 898.0 1261.7 L 887.1 1241.0 L 873.6 1219.4 L 870.4 1216.4 L 869.0 1214.1 L 869.3 1210.8 L 871.6 1209.5 L 885.5 1209.1 L 901.6 1211.5 L 902.7 1210.9 L 903.5 1210.2 L 904.6 1208.2 L 926.4 1166.2" stroke="#000" stroke-width="1.3" stroke-opacity="0.8" fill="none" stroke-linecap="round" stroke-linejoin="round"/>
<path d="M 745.8 1100.6 L 751.3 1108.2 L 758.6 1112.8 L 761.1 1115.8 L 783.2 1150.5 L 790.9 1160.0 L 794.7 1163.4 L 809.8 1176.9 L 820.7 1183.3 L 827.2 1186.3 L 838.2 1190.0 L 858.5 1195.6 L 861.2 1193.9 L 866.3 1176.7 L 861.5 1164.8 L 858.5 1145.9 L 860.2 1134.1 L 868.6 1116.3 L 872.7 1109.2 L 878.8 1098.6 L 888.6 1083.0" stroke="#000" stroke-width="1.3" stroke-opacity="0.8" fill="none" stroke-linecap="round" stroke-linejoin="round"/>
<path d="M 853.1 983.9 L 854.4 980.2 L 852.5 976.0 L 839.4 969.7 L 811.6 964.6 L 798.2 964.8 L 790.1 966.7 L 785.5 967.6 L 779.6 968.2 L 777.2 968.9 L 768.1 974.9 L 751.0 978.3 L 740.4 983.1 L 737.7 983.7 L 724.8 986.0 L 711.5 985.5" stroke="#000" stroke-width="1.3" stroke-opacity="0.8" fill="none" stroke-linecap="round" stroke-linejoin="round"/>
<path d="M 1891.4 816.6 L 1887.2 817.8 L 1881.4 818.4 L 1875.3 818.6 L 1751.0 818.6 L 1651.3 817.9 L 1649.2 818.2 L 1647.0 819.5 L 1645.9 821.5 L 1645.6 823.5 L 1645.7 857.0 L 1645.1 859.4 L 1643.0 860.7 L 1640.6 861.1 L 1536.3 861.3 L 1496.3 861.0 L 1481.7 860.6 L 1381.4 862.1 L 1363.4 862.5 L 1329.2 863.1 L 1312.8 863.9 L 1306.2 863.5 L 1300.5 862.0 L 1293.1 859.1 L 1285.0 853.3 L 1267.2 835.1" stroke="#000" stroke-width="1.3" stroke-opacity="0.8" fill="none" stroke-linecap="round" stroke-linejoin="round"/>
<path d="M 667.6 1258.6 L 536.0 1259.6" stroke="#000" stroke-width="1.3" stroke-opacity="0.8" fill="none" stroke-linecap="round" stroke-linejoin="round"/>
<path d="M 644.0 1311.7 L 607.4 1297.2 L 569.3 1297.0" stroke="#000" stroke-width="1.3" stroke-opacity="0.8" fill="none" stroke-linecap="round" stroke-linejoin="round"/>
<path d="M 655.2 1408.2 L 674.8 1361.2 L 680.7 1346.1" stroke="#000" stroke-width="1.3" stroke-opacity="0.8" fill="none" stroke-linecap="round" stroke-linejoin="round"/>
<path d="M 968.0 895.4 L 987.1 892.3 L 991.4 891.5 L 1001.6 888.6 L 1005.9 887.9" stroke="#000" stroke-width="0.7" stroke-opacity="0.55" fill="none" stroke-linecap="round" stroke-linejoin="round"/>
<path d="M 538.7 1102.3 L 537.5 1113.7 L 536.7 1151.6 L 537.1 1169.4 L 538.1 1176.6 L 541.0 1177.9 L 600.8 1178.8 L 604.9 1181.4 L 607.3 1186.0 L 608.4 1200.5" stroke="#000" stroke-width="1.3" stroke-opacity="0.8" fill="none" stroke-linecap="round" stroke-linejoin="round"/>
<path d="M 629.8 1343.7 L 674.8 1361.2 L 695.2 1369.0 L 708.7 1369.3 L 731.0 1369.8 L 737.1 1368.6" stroke="#000" stroke-width="1.3" stroke-opacity="0.8" fill="none" stroke-linecap="round" stroke-linejoin="round"/>
<path d="M 552.9 1046.0 L 523.8 1049.2 L 520.5 1049.0 L 515.4 1048.3 L 513.5 1030.8" stroke="#000" stroke-width="1.3" stroke-opacity="0.8" fill="none" stroke-linecap="round" stroke-linejoin="round"/>
<path d="M 873.9 940.4 L 864.1 943.7 L 860.3 943.7 L 851.2 941.8 L 841.9 943.0 L 834.0 941.7 L 808.1 931.6 L 805.8 929.7 L 804.7 926.3 L 805.1 913.3" stroke="#000" stroke-width="0.7" stroke-opacity="0.55" fill="none" stroke-linecap="round" stroke-linejoin="round"/>
<path d="M 924.5 1256.1 L 935.6 1224.7 L 973.3 1186.9 L 976.7 1184.1 L 978.1 1183.3 L 980.5 1182.6 L 982.4 1182.4 L 984.2 1181.6 L 986.0 1179.4 L 987.5 1176.5 L 991.0 1168.0 L 999.2 1149.7 L 1000.1 1148.1 L 1001.3 1147.3 L 1002.7 1146.5 L 1005.5 1145.2 L 1007.1 1143.8 L 1008.1 1142.3 L 1018.3 1125.7 L 1046.7 1075.7" stroke="#000" stroke-width="1.3" stroke-opacity="0.8" fill="none" stroke-linecap="round" stroke-linejoin="round"/>
<path d="M 1183.7 414.8 L 1187.9 410.0 L 1199.0 394.9 L 1203.2 389.4 L 1226.4 352.2 L 1241.0 328.8 L 1273.8 276.4 L 1288.9 252.7 L 1295.1 241.9 L 1312.9 210.3 L 1351.9 141.2 L 1378.3 107.8 L 1489.8 3.6 L 1492.1 1.5 L 1504.1 -9.4" stroke="#000" stroke-width="1.3" stroke-opacity="0.8" fill="none" stroke-linecap="round" stroke-linejoin="round"/>
<path d="M 1288.9 252.7 L 1246.1 253.2 L 1230.0 253.4 L 1211.1 255.1" stroke="#000" stroke-width="0.7" stroke-opacity="0.55" fill="none" stroke-linecap="round" stroke-linejoin="round"/>
<path d="M 1090.2 530.0 L 1087.9 525.5 L 1086.6 522.7 L 1085.5 518.8 L 1086.4 478.5 L 1082.3 343.3" stroke="#000" stroke-width="0.7" stroke-opacity="0.55" fill="none" stroke-linecap="round" stroke-linejoin="round"/>
<path d="M 1452.5 542.6 L 1438.1 549.8 L 1434.1 553.7 L 1432.2 558.3 L 1433.1 623.3 L 1433.1 626.8 L 1433.2 628.3 L 1432.9 633.0 L 1437.6 632.0 L 1441.1 632.3 L 1463.2 633.2 L 1478.4 633.3 L 1482.2 634.2 L 1485.5 636.5 L 1489.3 639.6" stroke="#000" stroke-width="1.3" stroke-opacity="0.8" fill="none" stroke-linecap="round" stroke-linejoin="round"/>
<path d="M 909.5 159.6 L 925.9 178.9 L 933.1 187.3 L 1010.5 274.6 L 1046.1 308.7 L 1075.9 337.1 L 1082.3 343.3 L 1126.7 384.8 L 1127.6 385.6 L 1134.3 391.9 L 1173.4 427.0" stroke="#000" stroke-width="1.3" stroke-opacity="0.8" fill="none" stroke-linecap="round" stroke-linejoin="round"/>
<path d="M 1568.5 577.9 L 1620.6 577.7" stroke="#000" stroke-width="1.3" stroke-opacity="0.8" fill="none" stroke-linecap="round" stroke-linejoin="round"/>
<path d="M 1568.2 510.2 L 1568.5 577.9 L 1567.4 619.3 L 1567.6 635.0 L 1567.4 649.0" stroke="#000" stroke-width="1.3" stroke-opacity="0.8" fill="none" stroke-linecap="round" stroke-linejoin="round"/>
<path d="M 726.8 1152.9 L 709.9 1136.8 L 709.7 1136.7 L 696.3 1128.6" stroke="#000" stroke-width="0.7" stroke-opacity="0.55" fill="none" stroke-linecap="round" stroke-linejoin="round"/>
<path d="M 888.6 1083.0 L 879.6 1071.0 L 879.4 1069.8 L 879.6 1067.6 L 885.8 1051.1 L 888.9 1026.9 L 891.8 1006.8 L 894.8 1002.6" stroke="#000" stroke-width="1.3" stroke-opacity="0.8" fill="none" stroke-linecap="round" stroke-linejoin="round"/>
<path d="M 812.0 1103.7 L 820.3 1106.7 L 824.1 1106.7 L 826.7 1106.9 L 835.0 1108.5 L 848.3 1111.1 L 853.1 1111.8 L 868.6 1116.3" stroke="#000" stroke-width="0.7" stroke-opacity="0.55" fill="none" stroke-linecap="round" stroke-linejoin="round"/>
<path d="M 462.3 771.6 L 386.6 771.5" stroke="#000" stroke-width="1.3" stroke-opacity="0.8" fill="none" stroke-linecap="round" stroke-linejoin="round"/>
<path d="M 452.7 727.2 L 387.4 726.7" stroke="#000" stroke-width="1.3" stroke-opacity="0.8" fill="none" stroke-linecap="round" stroke-linejoin="round"/>
<path d="M 362.1 678.9 L 361.7 703.1 L 362.0 771.5 L 362.2 783.8" stroke="#000" stroke-width="1.3" stroke-opacity="0.8" fill="none" stroke-linecap="round" stroke-linejoin="round"/>
<path d="M 847.3 109.7 L 828.9 97.3 L 815.2 88.5" stroke="#000" stroke-width="1.3" stroke-opacity="0.8" fill="none" stroke-linecap="round" stroke-linejoin="round"/>
<path d="M 855.5 130.4 L 847.3 109.7 L 838.6 88.9 L 828.2 59.3 L 818.2 29.7 L 816.6 22.7 L 818.6 16.6" stroke="#000" stroke-width="1.3" stroke-opacity="0.8" fill="none" stroke-linecap="round" stroke-linejoin="round"/>
<path d="M 804.9 16.5 L 798.9 14.8 L 750.5 -14.0 L 692.0 -47.5 L 689.8 -52.4 L 689.4 -59.4 L 689.6 -132.4 L 689.6 -139.5 L 689.4 -158.6 L 689.2 -178.6 L 689.0 -183.6 L 688.9 -187.9 L 688.7 -196.0" stroke="#000" stroke-width="1.3" stroke-opacity="0.8" fill="none" stroke-linecap="round" stroke-linejoin="round"/>
<path d="M 449.8 604.3 L 456.9 603.4 L 527.5 595.6" stroke="#000" stroke-width="1.3" stroke-opacity="0.8" fill="none" stroke-linecap="round" stroke-linejoin="round"/>
<path d="M 694.7 285.7 L 694.6 292.2 L 694.5 306.3 L 695.8 335.6 L 696.8 339.9 L 700.4 343.0 L 729.0 341.9 L 732.4 339.5 L 734.6 335.0 L 732.8 292.6 L 731.4 276.0 L 730.8 268.5" stroke="#000" stroke-width="0.7" stroke-opacity="0.55" fill="none" stroke-linecap="round" stroke-linejoin="round"/>
<path d="M 596.6 444.3 L 601.1 410.3 L 603.7 403.2 L 610.4 398.6 L 623.7 396.2 L 636.2 389.5 L 650.1 381.7 L 693.1 380.2 L 716.6 377.7 L 725.5 377.4 L 732.8 378.9 L 745.4 383.4 L 777.9 391.1 L 796.0 394.0 L 814.0 396.4 L 829.0 397.5" stroke="#000" stroke-width="0.5" stroke-opacity="0.35" fill="none" stroke-linecap="round" stroke-linejoin="round"/>
<path d="M 723.7 208.2 L 731.9 262.8 L 730.8 268.5 L 727.5 272.1 L 694.7 285.7" stroke="#000" stroke-width="0.7" stroke-opacity="0.55" fill="none" stroke-linecap="round" stroke-linejoin="round"/>
<path d="M 582.2 439.8 L 596.6 444.3 L 707.7 479.6 L 718.5 485.7 L 734.1 492.3" stroke="#000" stroke-width="1.3" stroke-opacity="0.8" fill="none" stroke-linecap="round" stroke-linejoin="round"/>
<path d="M 651.7 799.4 L 667.0 776.3 L 673.4 772.6 L 680.4 770.7 L 689.0 770.8 L 792.5 772.5 L 796.0 771.9 L 797.7 770.7 L 798.1 766.6 L 797.2 744.9" stroke="#000" stroke-width="1.3" stroke-opacity="0.8" fill="none" stroke-linecap="round" stroke-linejoin="round"/>
<path d="M 677.1 887.8 L 703.1 885.5" stroke="#000" stroke-width="1.3" stroke-opacity="0.8" fill="none" stroke-linecap="round" stroke-linejoin="round"/>
<path d="M 579.5 261.0 L 611.6 325.7" stroke="#000" stroke-width="0.7" stroke-opacity="0.55" fill="none" stroke-linecap="round" stroke-linejoin="round"/>
<path d="M 650.5 795.8 L 588.5 791.6" stroke="#000" stroke-width="1.3" stroke-opacity="0.8" fill="none" stroke-linecap="round" stroke-linejoin="round"/>
<path d="M 792.5 772.5 L 788.9 785.3 L 784.9 794.6 L 783.7 814.8 L 782.2 819.1 L 776.0 825.9" stroke="#000" stroke-width="0.7" stroke-opacity="0.55" fill="none" stroke-linecap="round" stroke-linejoin="round"/>
<path d="M 472.2 704.1 L 479.6 702.8 L 552.6 701.2 L 590.9 704.7" stroke="#000" stroke-width="1.3" stroke-opacity="0.8" fill="none" stroke-linecap="round" stroke-linejoin="round"/>
<path d="M 483.0 752.1 L 490.6 751.5 L 551.4 752.4" stroke="#000" stroke-width="1.3" stroke-opacity="0.8" fill="none" stroke-linecap="round" stroke-linejoin="round"/>
<path d="M 925.9 178.9 L 871.7 200.7 L 867.5 202.7 L 862.5 204.6 L 853.0 208.4" stroke="#000" stroke-width="1.3" stroke-opacity="0.8" fill="none" stroke-linecap="round" stroke-linejoin="round"/>
<path d="M 465.0 672.0 L 472.3 670.8 L 544.0 664.3 L 565.0 665.9" stroke="#000" stroke-width="1.3" stroke-opacity="0.8" fill="none" stroke-linecap="round" stroke-linejoin="round"/>
<path d="M 320.8 678.3 L 320.4 704.4 L 320.5 712.2" stroke="#000" stroke-width="1.3" stroke-opacity="0.8" fill="none" stroke-linecap="round" stroke-linejoin="round"/>
<path d="M 996.8 903.8 L 968.3 907.9 L 949.3 911.9 L 925.3 912.5 L 923.7 912.7 L 922.8 913.8 L 921.5 927.0 L 921.5 928.6 L 922.5 929.9 L 923.9 930.8 L 953.5 931.9 L 991.9 928.4" stroke="#000" stroke-width="1.3" stroke-opacity="0.8" fill="none" stroke-linecap="round" stroke-linejoin="round"/>
<path d="M 236.4 680.8 L 235.2 628.2 L 235.5 601.1" stroke="#000" stroke-width="1.3" stroke-opacity="0.8" fill="none" stroke-linecap="round" stroke-linejoin="round"/>
<path d="M 361.7 703.1 L 338.4 703.8 L 320.4 704.4" stroke="#000" stroke-width="1.3" stroke-opacity="0.8" fill="none" stroke-linecap="round" stroke-linejoin="round"/>
<path d="M 954.8 812.8 L 985.8 818.2 L 985.4 840.2 L 985.0 859.7 L 986.2 878.0" stroke="#000" stroke-width="0.7" stroke-opacity="0.55" fill="none" stroke-linecap="round" stroke-linejoin="round"/>
<path d="M 639.3 238.8 L 670.5 298.7" stroke="#000" stroke-width="0.7" stroke-opacity="0.55" fill="none" stroke-linecap="round" stroke-linejoin="round"/>
<path d="M 477.3 727.0 L 484.9 726.5 L 540.2 723.6 L 547.1 724.5 L 555.0 728.7 L 594.6 752.5 L 609.2 760.4 L 643.2 773.5" stroke="#000" stroke-width="1.3" stroke-opacity="0.8" fill="none" stroke-linecap="round" stroke-linejoin="round"/>
<path d="M 1182.0 525.2 L 1195.2 506.4 L 1222.0 467.4" stroke="#000" stroke-width="0.7" stroke-opacity="0.55" fill="none" stroke-linecap="round" stroke-linejoin="round"/>
<path d="M 619.7 606.3 L 740.2 606.0 L 750.4 605.9 L 760.1 605.4 L 795.7 599.1 L 834.3 595.6 L 838.2 596.3 L 840.8 598.3 L 841.8 662.6" stroke="#000" stroke-width="0.7" stroke-opacity="0.55" fill="none" stroke-linecap="round" stroke-linejoin="round"/>
<path d="M 940.7 828.3 L 950.2 836.2 L 965.3 839.8 L 965.8 840.4 L 966.5 841.5 L 965.6 860.8 L 965.6 875.3 L 968.0 895.4 L 968.3 907.9" stroke="#000" stroke-width="1.3" stroke-opacity="0.8" fill="none" stroke-linecap="round" stroke-linejoin="round"/>
<path d="M 1372.1 1087.2 L 1372.2 1081.0 L 1373.7 962.6" stroke="#000" stroke-width="0.7" stroke-opacity="0.55" fill="none" stroke-linecap="round" stroke-linejoin="round"/>
<path d="M 691.8 997.1 L 683.9 1026.9 L 670.6 1051.3" stroke="#000" stroke-width="0.7" stroke-opacity="0.55" fill="none" stroke-linecap="round" stroke-linejoin="round"/>
<path d="M 604.2 1074.7 L 606.6 1072.6 L 630.0 1022.6 L 634.1 1013.7 L 637.6 1011.1 L 643.2 1001.0 L 646.5 991.5" stroke="#000" stroke-width="1.3" stroke-opacity="0.8" fill="none" stroke-linecap="round" stroke-linejoin="round"/>
<path d="M 625.7 987.2 L 629.2 978.7 L 633.5 970.8 L 650.8 946.9 L 656.7 932.4 L 663.1 920.2 L 666.4 918.3 L 673.6 915.2 L 675.3 913.1 L 681.8 901.3" stroke="#000" stroke-width="1.3" stroke-opacity="0.8" fill="none" stroke-linecap="round" stroke-linejoin="round"/>
<path d="M 1568.2 510.2 L 1568.1 507.4 L 1568.0 503.8 L 1566.6 501.8 L 1563.3 501.0 L 1559.8 502.0 L 1537.8 515.7 L 1520.5 526.5 L 1514.4 526.3 L 1508.8 524.9 L 1503.5 521.6 L 1499.7 519.1 L 1496.4 518.9 L 1493.0 519.8 L 1477.2 528.9 L 1461.9 538.0 L 1452.5 542.6 L 1438.4 514.2 L 1435.7 510.4 L 1432.7 507.9 L 1428.4 506.1 L 1422.5 505.2 L 1349.9 506.8 L 1346.0 506.1 L 1342.5 504.6 L 1338.9 499.1 L 1335.9 497.0 L 1331.9 496.0 L 1299.6 495.7" stroke="#000" stroke-width="1.3" stroke-opacity="0.8" fill="none" stroke-linecap="round" stroke-linejoin="round"/>
<path d="M 1501.3 398.4 L 1504.3 401.9 L 1529.7 447.5 L 1559.8 502.0" stroke="#000" stroke-width="1.3" stroke-opacity="0.8" fill="none" stroke-linecap="round" stroke-linejoin="round"/>
<path d="M 1439.0 402.1 L 1439.3 404.9 L 1499.7 519.1" stroke="#000" stroke-width="1.3" stroke-opacity="0.8" fill="none" stroke-linecap="round" stroke-linejoin="round"/>
<path d="M 420.2 472.8 L 498.8 462.0" stroke="#000" stroke-width="0.7" stroke-opacity="0.55" fill="none" stroke-linecap="round" stroke-linejoin="round"/>
<path d="M 1619.2 482.5 L 1620.6 577.7 L 1620.9 584.5 L 1619.2 669.5" stroke="#000" stroke-width="1.3" stroke-opacity="0.8" fill="none" stroke-linecap="round" stroke-linejoin="round"/>
<path d="M 374.1 678.7 L 374.3 654.3" stroke="#000" stroke-width="1.3" stroke-opacity="0.8" fill="none" stroke-linecap="round" stroke-linejoin="round"/>
<path d="M 1209.6 1096.3 L 1210.9 1223.9 L 1211.2 1256.7 L 1211.1 1271.8" stroke="#000" stroke-width="1.3" stroke-opacity="0.8" fill="none" stroke-linecap="round" stroke-linejoin="round"/>
<path d="M 304.8 625.5 L 306.0 661.6" stroke="#000" stroke-width="1.3" stroke-opacity="0.8" fill="none" stroke-linecap="round" stroke-linejoin="round"/>
<path d="M 891.8 1313.6 L 885.7 1279.7 L 883.4 1274.7 L 878.8 1272.8 L 871.9 1271.0 L 818.3 1254.8 L 773.4 1236.8 L 765.4 1238.5 L 735.7 1270.0" stroke="#000" stroke-width="1.3" stroke-opacity="0.8" fill="none" stroke-linecap="round" stroke-linejoin="round"/>
<path d="M 806.9 1114.1 L 801.6 1106.9 L 797.0 1102.8 L 795.6 1099.9" stroke="#000" stroke-width="0.7" stroke-opacity="0.55" fill="none" stroke-linecap="round" stroke-linejoin="round"/>
<path d="M 924.5 1126.5 L 903.7 1148.8 L 894.1 1157.8 L 885.7 1163.1 L 878.5 1167.5 L 866.3 1176.7" stroke="#000" stroke-width="1.3" stroke-opacity="0.8" fill="none" stroke-linecap="round" stroke-linejoin="round"/>
<path d="M 995.4 1031.2 L 993.1 1016.5 L 991.5 1006.1 L 991.4 1003.5 L 992.2 1001.0 L 993.8 999.0 L 1002.7 992.3 L 1005.7 990.7 L 1009.2 989.0 L 1019.3 984.8 L 1020.9 982.7 L 1021.4 980.6 L 1021.7 979.1 L 1021.1 967.3 L 1020.8 966.7 L 1020.1 966.3 L 1019.2 966.2 L 990.9 968.8 L 953.0 971.9" stroke="#000" stroke-width="1.3" stroke-opacity="0.8" fill="none" stroke-linecap="round" stroke-linejoin="round"/>
<path d="M 948.0 890.1 L 949.3 911.9" stroke="#000" stroke-width="1.3" stroke-opacity="0.8" fill="none" stroke-linecap="round" stroke-linejoin="round"/>
<path d="M 941.3 1016.2 L 951.0 988.4 L 953.0 971.9 L 954.9 957.7 L 953.5 931.9" stroke="#000" stroke-width="1.3" stroke-opacity="0.8" fill="none" stroke-linecap="round" stroke-linejoin="round"/>
<path d="M 680.7 1346.1 L 637.0 1327.9" stroke="#000" stroke-width="1.3" stroke-opacity="0.8" fill="none" stroke-linecap="round" stroke-linejoin="round"/>
<path d="M 365.8 1056.7 L 366.6 1040.2 L 367.9 1009.8 L 367.9 964.9 L 368.1 964.1 L 368.7 963.5 L 370.3 962.8 L 387.9 958.0 L 408.4 952.8 L 438.8 949.1 L 441.0 949.5 L 441.6 951.0 L 441.3 977.2 L 441.3 1004.6 L 441.0 1005.8" stroke="#000" stroke-width="1.3" stroke-opacity="0.8" fill="none" stroke-linecap="round" stroke-linejoin="round"/>
<path d="M 429.5 1175.1 L 463.0 1176.1 L 532.0 1171.3 L 537.1 1169.4" stroke="#000" stroke-width="1.3" stroke-opacity="0.8" fill="none" stroke-linecap="round" stroke-linejoin="round"/>
<path d="M 813.7 458.9 L 812.7 509.6 L 813.2 549.7 L 814.8 553.2 L 818.4 555.7 L 839.2 556.7 L 845.8 556.7 L 886.3 556.9" stroke="#000" stroke-width="1.3" stroke-opacity="0.8" fill="none" stroke-linecap="round" stroke-linejoin="round"/>
<path d="M 845.2 458.7 L 813.7 458.9 L 772.3 459.1" stroke="#000" stroke-width="1.3" stroke-opacity="0.8" fill="none" stroke-linecap="round" stroke-linejoin="round"/>
<path d="M 488.5 1103.1 L 488.3 1068.8 L 488.4 1063.2 L 491.1 1062.2 L 507.7 1061.2" stroke="#000" stroke-width="1.3" stroke-opacity="0.8" fill="none" stroke-linecap="round" stroke-linejoin="round"/>
<path d="M 815.2 88.5 L 790.5 73.8 L 763.7 58.7" stroke="#000" stroke-width="1.3" stroke-opacity="0.8" fill="none" stroke-linecap="round" stroke-linejoin="round"/>
<path d="M 1392.1 1084.0 L 1398.8 1111.9" stroke="#000" stroke-width="0.7" stroke-opacity="0.55" fill="none" stroke-linecap="round" stroke-linejoin="round"/>
<path d="M 1547.7 997.1 L 1517.7 996.9 L 1450.3 996.5 L 1447.9 996.0 L 1446.7 994.9 L 1446.5 993.1 L 1447.7 970.1 L 1448.2 967.8 L 1449.6 966.3 L 1451.7 965.8 L 1547.7 964.1" stroke="#000" stroke-width="1.3" stroke-opacity="0.8" fill="none" stroke-linecap="round" stroke-linejoin="round"/>
<path d="M 1478.2 1116.8 L 1536.4 1114.6 L 1538.5 1115.1 L 1539.9 1116.6 L 1540.4 1118.4 L 1540.4 1135.2 L 1540.4 1143.8 L 1438.8 1185.2 L 1436.7 1185.6 L 1435.1 1185.7" stroke="#000" stroke-width="0.7" stroke-opacity="0.55" fill="none" stroke-linecap="round" stroke-linejoin="round"/>
<path d="M 1481.7 860.6 L 1497.2 851.1 L 1520.4 837.4 L 1527.6 832.4 L 1535.4 827.5 L 1537.1 826.7 L 1538.1 826.6 L 1539.2 827.2 L 1539.8 828.0 L 1540.1 828.9 L 1540.1 830.1 L 1539.2 831.2 L 1531.1 837.4 L 1527.7 839.7 L 1524.1 842.0 L 1512.2 849.9 L 1505.8 854.6 L 1496.3 861.0" stroke="#000" stroke-width="1.3" stroke-opacity="0.8" fill="none" stroke-linecap="round" stroke-linejoin="round"/>
<path d="M 1565.7 1055.2 L 1564.9 1051.0 L 1564.0 1045.9 L 1563.4 1044.5 L 1562.4 1043.7 L 1560.9 1043.3 L 1550.9 1042.9 L 1549.1 1042.4 L 1547.9 1041.3 L 1547.6 1039.8 L 1547.7 997.1 L 1547.7 964.1 L 1545.5 874.8 L 1545.8 872.9 L 1547.7 871.6 L 1549.8 871.3 L 1570.3 870.7 L 1572.5 871.4 L 1574.3 872.8 L 1575.2 874.8 L 1575.7 912.1 L 1576.1 914.3 L 1577.8 915.9 L 1580.7 916.6 L 1629.3 916.9 L 1631.2 917.3 L 1632.5 918.5 L 1632.7 920.1 L 1632.9 951.2 L 1632.5 952.9 L 1631.4 954.3 L 1629.6 954.7 L 1593.9 954.5 L 1592.1 954.9 L 1591.0 955.9 L 1590.4 957.8 L 1586.1 1040.2 L 1585.8 1041.4 L 1585.2 1042.4 L 1583.9 1043.2 L 1580.8 1044.3 L 1579.0 1045.2 L 1577.9 1046.5 L 1575.9 1051.2 L 1574.2 1055.2" stroke="#000" stroke-width="1.3" stroke-opacity="0.8" fill="none" stroke-linecap="round" stroke-linejoin="round"/>
<path d="M 752.2 295.1 L 836.9 293.4 L 839.6 291.0 L 840.7 286.9" stroke="#000" stroke-width="0.7" stroke-opacity="0.55" fill="none" stroke-linecap="round" stroke-linejoin="round"/>
<path d="M 686.4 307.2 L 686.9 341.5" stroke="#000" stroke-width="0.7" stroke-opacity="0.55" fill="none" stroke-linecap="round" stroke-linejoin="round"/>
<path d="M 840.7 286.9 L 839.8 240.1 L 838.9 234.6" stroke="#000" stroke-width="0.7" stroke-opacity="0.55" fill="none" stroke-linecap="round" stroke-linejoin="round"/>
<path d="M 732.8 292.6 L 694.5 306.3" stroke="#000" stroke-width="0.7" stroke-opacity="0.55" fill="none" stroke-linecap="round" stroke-linejoin="round"/>
<path d="M 838.9 234.6 L 830.8 231.1 L 814.2 233.8 L 762.7 253.0 L 748.9 258.8" stroke="#000" stroke-width="0.7" stroke-opacity="0.55" fill="none" stroke-linecap="round" stroke-linejoin="round"/>
<path d="M 615.3 337.7 L 675.1 312.1 L 686.4 307.2" stroke="#000" stroke-width="0.7" stroke-opacity="0.55" fill="none" stroke-linecap="round" stroke-linejoin="round"/>
<path d="M 748.9 258.8 L 745.2 261.5 L 744.1 265.5 L 746.6 288.7 L 748.3 293.0 L 752.2 295.1" stroke="#000" stroke-width="0.7" stroke-opacity="0.55" fill="none" stroke-linecap="round" stroke-linejoin="round"/>
<path d="M 686.9 341.5 L 685.3 344.1 L 682.4 345.2 L 620.7 343.1 L 617.6 341.3 L 615.3 337.7 L 613.9 333.2 L 611.6 325.7" stroke="#000" stroke-width="0.7" stroke-opacity="0.55" fill="none" stroke-linecap="round" stroke-linejoin="round"/>
<path d="M 1529.7 447.5 L 1537.7 443.2 L 1559.4 431.7" stroke="#000" stroke-width="0.5" stroke-opacity="0.35" fill="none" stroke-linecap="round" stroke-linejoin="round"/>
<path d="M 1537.7 443.2 L 1552.2 468.3" stroke="#000" stroke-width="0.5" stroke-opacity="0.35" fill="none" stroke-linecap="round" stroke-linejoin="round"/>
<path d="M 440.0 558.3 L 445.4 553.5 L 530.7 543.7 L 535.6 544.2 L 533.2 548.4 L 530.3 549.5 L 475.2 555.2 L 447.0 559.8 L 440.0 558.3" stroke="#000" stroke-width="0.7" stroke-opacity="0.55" fill="none" stroke-linecap="round" stroke-linejoin="round"/>
<path d="M 267.7 561.9 L 267.6 542.1 L 270.8 437.4" stroke="#000" stroke-width="0.7" stroke-opacity="0.55" fill="none" stroke-linecap="round" stroke-linejoin="round"/>
<path d="M 670.5 645.5 L 651.7 646.8 L 623.8 650.9" stroke="#000" stroke-width="0.7" stroke-opacity="0.55" fill="none" stroke-linecap="round" stroke-linejoin="round"/>
<path d="M 270.8 437.4 L 328.3 436.6 L 344.0 435.8 L 375.8 434.1 L 386.2 433.6" stroke="#000" stroke-width="1.3" stroke-opacity="0.8" fill="none" stroke-linecap="round" stroke-linejoin="round"/>
<path d="M 649.1 826.8 L 656.7 824.8" stroke="#000" stroke-width="1.3" stroke-opacity="0.8" fill="none" stroke-linecap="round" stroke-linejoin="round"/>
<path d="M 812.7 509.6 L 846.2 510.5 L 872.6 511.3 L 880.6 511.6 L 934.4 511.3 L 974.6 509.8 L 981.0 507.1 L 982.6 498.4 L 977.1 411.6" stroke="#000" stroke-width="1.3" stroke-opacity="0.8" fill="none" stroke-linecap="round" stroke-linejoin="round"/>
<path d="M 1510.7 824.8 L 1490.4 837.7 L 1475.4 847.3 L 1470.3 849.9 L 1462.1 853.0 L 1453.5 854.7 L 1443.8 855.4 L 1349.2 853.1 L 1345.5 852.7 L 1341.8 851.5 L 1339.4 849.8 L 1337.7 846.9 L 1337.0 843.7 L 1336.5 829.0 L 1337.1 824.2 L 1338.9 821.4 L 1341.9 819.8 L 1344.6 819.4 L 1385.0 820.8 L 1389.2 818.5 L 1391.0 814.0 L 1395.5 787.0 L 1396.7 782.7 L 1400.6 777.9 L 1406.9 770.0 L 1408.5 763.8 L 1408.2 753.4 L 1409.8 749.1 L 1412.5 746.2 L 1441.3 729.1 L 1447.0 727.1 L 1452.0 729.0 L 1483.6 758.0 L 1486.1 762.1 L 1486.8 770.0 L 1486.9 811.3 L 1487.5 815.0 L 1490.6 819.2 L 1493.1 820.5 L 1496.3 820.4 L 1508.9 816.9 L 1512.4 816.9 L 1515.5 817.7 L 1518.4 819.7" stroke="#000" stroke-width="1.3" stroke-opacity="0.8" fill="none" stroke-linecap="round" stroke-linejoin="round"/>
<path d="M 1217.2 1269.9 L 1278.4 1251.7 L 1322.7 1238.5 L 1348.6 1231.0 L 1389.5 1219.1 L 1398.7 1216.5 L 1406.3 1214.2 L 1432.9 1205.1 L 1457.7 1194.2 L 1531.6 1161.8 L 1567.2 1145.2 L 1574.9 1140.9 L 1653.5 1104.6 L 1700.3 1083.0 L 1747.9 1061.0 L 1755.6 1057.5 L 1764.1 1053.5 L 1769.1 1051.5 L 1793.3 1041.7 L 1874.0 1009.1 L 1885.7 1004.2 L 1939.5 982.1 L 1955.6 974.5 L 1967.1 969.1 L 1982.9 961.7 L 1992.4 956.9" stroke="#000" stroke-width="1.3" stroke-opacity="0.8" fill="none" stroke-linecap="round" stroke-linejoin="round"/>
<path d="M 1998.2 967.1 L 1987.4 971.9 L 1970.3 979.9 L 1951.1 988.2 L 1911.4 1005.3 L 1904.0 1008.4 L 1890.3 1014.3 L 1838.7 1037.4 L 1814.5 1048.2 L 1795.5 1056.8 L 1755.7 1074.6 L 1694.3 1103.5 L 1594.2 1152.3 L 1481.5 1198.9 L 1475.2 1201.5 L 1473.3 1202.3 L 1463.6 1206.3 L 1434.3 1217.1 L 1427.3 1219.7 L 1371.3 1240.0 L 1364.5 1242.5 L 1326.7 1253.0 L 1298.5 1260.5 L 1210.9 1283.7 L 1205.1 1285.4 L 1202.7 1285.9" stroke="#000" stroke-width="1.3" stroke-opacity="0.8" fill="none" stroke-linecap="round" stroke-linejoin="round"/>
<path d="M 915.2 238.6 L 920.2 259.6 L 923.0 272.7 L 926.5 297.5 L 925.8 334.8 L 927.2 361.7 L 978.3 362.8 L 1003.2 361.4 L 1015.6 346.5 L 1014.9 331.2 L 1006.0 322.0 L 988.3 316.0 L 990.0 302.8 L 989.0 296.1 L 981.2 290.4 L 961.3 287.9 L 957.8 275.2 L 962.7 267.7 L 963.4 263.5 L 946.8 259.5 L 934.7 258.1 L 929.4 248.2 L 930.4 240.7 L 915.2 238.6" stroke="#000" stroke-width="1" stroke-opacity="0.2" fill="#000" fill-opacity="0.05" stroke-linecap="round" stroke-linejoin="round"/>
<path d="M 882.7 140.6 L 798.6 182.4 L 809.3 211.9 L 908.3 173.8 L 895.5 157.1 L 882.7 140.6" stroke="#000" stroke-width="1" stroke-opacity="0.2" fill="#000" fill-opacity="0.05" stroke-linecap="round" stroke-linejoin="round"/>
<path d="M 878.4 215.5 L 884.2 213.2 L 919.5 199.8 L 924.3 202.4 L 1066.6 348.9 L 1070.8 361.5 L 1069.8 407.7 L 1067.0 411.4 L 1062.9 413.2 L 977.1 411.6 L 878.3 413.4 L 870.8 413.6" stroke="#000" stroke-width="1.3" stroke-opacity="0.8" fill="none" stroke-linecap="round" stroke-linejoin="round"/>
<path d="M 870.8 413.6 L 869.3 365.0 L 868.0 304.6 L 866.3 241.3 L 868.7 219.3" stroke="#000" stroke-width="1.3" stroke-opacity="0.8" fill="none" stroke-linecap="round" stroke-linejoin="round"/>
<path d="M 872.6 511.3 L 870.8 413.6" stroke="#000" stroke-width="1.3" stroke-opacity="0.8" fill="none" stroke-linecap="round" stroke-linejoin="round"/>
<path d="M 887.7 461.1 L 888.2 501.1 L 976.4 502.0 L 975.5 459.7 L 931.4 460.6 L 887.7 461.1" stroke="#000" stroke-width="1" stroke-opacity="0.2" fill="#000" fill-opacity="0.05" stroke-linecap="round" stroke-linejoin="round"/>
<path d="M 891.9 231.5 L 874.9 239.1" stroke="#000" stroke-width="1.3" stroke-opacity="0.8" fill="none" stroke-linecap="round" stroke-linejoin="round"/>
<path d="M 1218.3 744.1 L 1188.5 744.5 L 1184.6 743.2 L 1182.1 739.8 L 1183.6 701.9 L 1186.8 698.4 L 1192.6 696.8 L 1273.7 697.3 L 1340.5 697.4" stroke="#000" stroke-width="1.3" stroke-opacity="0.8" fill="none" stroke-linecap="round" stroke-linejoin="round"/>
<path d="M 1218.3 744.1 L 1252.5 743.3 L 1338.0 741.2" stroke="#000" stroke-width="1.3" stroke-opacity="0.8" fill="none" stroke-linecap="round" stroke-linejoin="round"/>
<path d="M 716.1 19.5 L 740.9 33.5 L 741.2 136.6 L 739.2 141.1 L 733.8 142.9 L 723.8 140.8 L 708.2 136.4" stroke="#000" stroke-width="1.3" stroke-opacity="0.8" fill="none" stroke-linecap="round" stroke-linejoin="round"/>
<path d="M 565.8 203.3 L 565.4 200.5 L 567.7 196.1 L 571.4 192.1 L 575.7 188.8 L 578.1 186.0 L 582.8 182.6 L 588.6 179.7 L 592.2 177.2 L 592.7 173.6 L 593.4 170.6 L 597.8 169.2 L 606.0 168.9 L 609.0 168.1 L 614.0 165.9 L 617.9 163.2 L 623.1 159.9 L 625.2 158.1 L 635.7 154.2 L 654.4 152.9 L 670.3 152.8 L 683.4 154.7 L 697.2 157.4 L 706.4 162.7 L 705.9 169.0" stroke="#000" stroke-width="0.7" stroke-opacity="0.55" fill="none" stroke-linecap="round" stroke-linejoin="round"/>
<path d="M 565.8 203.3 L 568.2 205.0 L 573.1 206.2 L 582.1 202.6 L 589.0 197.2 L 593.1 189.9 L 599.8 187.6 L 607.7 188.0 L 613.6 187.8 L 618.9 188.8 L 622.6 186.4 L 625.1 181.6 L 629.8 180.0" stroke="#000" stroke-width="0.7" stroke-opacity="0.55" fill="none" stroke-linecap="round" stroke-linejoin="round"/>
<path d="M 887.4 115.8 L 892.0 129.5" stroke="#000" stroke-width="1.3" stroke-opacity="0.8" fill="none" stroke-linecap="round" stroke-linejoin="round"/>
<path d="M 792.0 176.2 L 812.5 229.3" stroke="#000" stroke-width="0.7" stroke-opacity="0.55" fill="none" stroke-linecap="round" stroke-linejoin="round"/>
<path d="M 410.5 110.3 L 412.7 108.7 L 417.4 104.3 L 420.3 101.7 L 424.8 99.5 L 430.9 98.5 L 444.5 101.0 L 459.9 105.9 L 469.2 108.4 L 492.5 112.0 L 514.1 113.8 L 521.5 113.7 L 523.8 114.4 L 524.0 116.7 L 523.4 147.6 L 523.0 149.8 L 520.7 151.5 L 514.4 153.2 L 489.1 152.9 L 485.7 153.9 L 484.0 156.5 L 483.7 162.0 L 483.2 178.0 L 483.0 185.5 L 483.0 191.5 L 481.4 193.3 L 479.6 194.4 L 475.6 195.4 L 400.6 197.5 L 395.9 197.1 L 393.7 195.6 L 389.4 179.1 L 386.1 164.9 L 381.1 143.0 L 379.6 136.6 L 380.7 133.5 L 385.5 129.9 L 398.7 120.2" stroke="#000" stroke-width="1.3" stroke-opacity="0.8" fill="none" stroke-linecap="round" stroke-linejoin="round"/>
<path d="M 844.0 305.2 L 817.9 305.8" stroke="#000" stroke-width="1.3" stroke-opacity="0.8" fill="none" stroke-linecap="round" stroke-linejoin="round"/>
<path d="M 868.0 304.6 L 844.0 305.2" stroke="#000" stroke-width="1.3" stroke-opacity="0.8" fill="none" stroke-linecap="round" stroke-linejoin="round"/>
<path d="M 817.3 335.2 L 817.9 305.8" stroke="#000" stroke-width="1.3" stroke-opacity="0.8" fill="none" stroke-linecap="round" stroke-linejoin="round"/>
<path d="M 768.2 334.8 L 811.0 335.3 L 817.3 335.2" stroke="#000" stroke-width="1.3" stroke-opacity="0.8" fill="none" stroke-linecap="round" stroke-linejoin="round"/>
<path d="M 768.7 301.5 L 756.5 300.8" stroke="#000" stroke-width="1.3" stroke-opacity="0.8" fill="none" stroke-linecap="round" stroke-linejoin="round"/>
<path d="M 748.8 335.9 L 768.2 334.8" stroke="#000" stroke-width="1.3" stroke-opacity="0.8" fill="none" stroke-linecap="round" stroke-linejoin="round"/>
<path d="M 817.9 305.8 L 818.1 301.5 L 768.7 301.5 L 768.2 334.8" stroke="#000" stroke-width="1.3" stroke-opacity="0.8" fill="none" stroke-linecap="round" stroke-linejoin="round"/>
<path d="M 616.9 152.5 L 606.6 116.9 L 603.0 -15.3" stroke="#000" stroke-width="1.3" stroke-opacity="0.8" fill="none" stroke-linecap="round" stroke-linejoin="round"/>
<path d="M 579.9 170.4 L 567.1 150.8 L 560.1 137.3 L 556.4 41.4 L 558.6 0.2 L 561.7 -14.4" stroke="#000" stroke-width="1.3" stroke-opacity="0.8" fill="none" stroke-linecap="round" stroke-linejoin="round"/>
<path d="M 1114.9 276.9 L 1090.4 288.3 L 1062.9 299.3 L 1046.1 308.7" stroke="#000" stroke-width="0.7" stroke-opacity="0.55" fill="none" stroke-linecap="round" stroke-linejoin="round"/>
<path d="M 1435.1 234.2 L 1437.1 232.9 L 1453.2 230.8 L 1457.4 230.8 L 1459.7 231.4 L 1461.1 232.6 L 1461.5 234.6 L 1460.8 250.7 L 1461.6 252.7 L 1463.0 254.1 L 1464.5 254.9 L 1539.7 252.4 L 1591.9 252.6 L 1608.6 251.7" stroke="#000" stroke-width="0.7" stroke-opacity="0.55" fill="none" stroke-linecap="round" stroke-linejoin="round"/>
<path d="M 1428.3 225.7 L 1421.9 227.4 L 1417.9 227.9 L 1412.2 227.5 L 1406.6 226.8 L 1402.8 226.1 L 1397.0 225.5 L 1370.0 223.2 L 1343.8 220.4 L 1329.5 218.4 L 1322.4 216.3 L 1312.9 210.3" stroke="#000" stroke-width="0.7" stroke-opacity="0.55" fill="none" stroke-linecap="round" stroke-linejoin="round"/>
<path d="M 1627.1 289.8 L 1617.6 290.8 L 1585.0 291.2 L 1538.3 291.9 L 1440.9 293.2 L 1437.9 290.3 L 1435.6 285.8 L 1434.1 236.4 L 1435.1 234.2" stroke="#000" stroke-width="0.7" stroke-opacity="0.55" fill="none" stroke-linecap="round" stroke-linejoin="round"/>
<path d="M 1202.7 1285.9 L 1097.1 1314.7 L 1060.8 1324.2 L 1042.0 1329.2 L 1037.9 1330.2 L 955.4 1350.3 L 938.0 1353.8 L 927.8 1356.6 L 908.8 1362.5 L 897.8 1365.8 L 892.9 1369.5 L 890.0 1376.9 L 887.5 1385.3 L 883.4 1393.3 L 875.0 1400.2 L 837.0 1421.7 L 833.8 1424.7 L 832.6 1427.0 L 832.1 1429.0 L 831.7 1432.9" stroke="#000" stroke-width="1.3" stroke-opacity="0.8" fill="none" stroke-linecap="round" stroke-linejoin="round"/>
<path d="M 800.5 1433.3 L 825.0 1420.6 L 864.0 1399.6 L 875.9 1391.6 L 880.0 1387.1 L 882.8 1380.6 L 885.1 1372.0 L 886.9 1367.2 L 890.8 1363.1 L 896.3 1360.5 L 907.0 1357.0 L 918.9 1352.9 L 933.2 1347.9 L 935.6 1347.1 L 951.5 1341.7 L 1002.5 1328.7 L 1061.9 1313.6 L 1196.2 1275.9 L 1205.1 1273.4 L 1211.1 1271.8 L 1217.2 1269.9" stroke="#000" stroke-width="1.3" stroke-opacity="0.8" fill="none" stroke-linecap="round" stroke-linejoin="round"/>
<path d="M 1210.6 1316.9 L 1204.9 1317.7 L 1199.8 1318.6 L 1103.5 1337.7 L 1091.4 1340.2 L 1085.7 1341.2 L 1065.4 1345.0" stroke="#000" stroke-width="1.3" stroke-opacity="0.8" fill="none" stroke-linecap="round" stroke-linejoin="round"/>
<path d="M 1114.9 276.9 L 1115.3 282.3 L 1116.7 286.8 L 1120.3 295.0 L 1124.1 302.3 L 1128.4 307.2 L 1131.1 309.4 L 1135.7 313.1 L 1147.6 305.4 L 1159.6 299.3 L 1177.3 291.5 L 1195.3 287.1 L 1213.0 286.2 L 1221.4 289.6 L 1225.3 292.2 L 1233.4 276.5 L 1238.7 267.6" stroke="#000" stroke-width="0.7" stroke-opacity="0.55" fill="none" stroke-linecap="round" stroke-linejoin="round"/>
<path d="M 1135.7 313.1 L 1167.1 342.3 L 1175.2 349.8 L 1178.6 351.9 L 1183.9 352.6 L 1189.5 351.7 L 1193.3 350.5 L 1196.2 345.6 L 1204.8 330.1 L 1225.3 292.2" stroke="#000" stroke-width="0.7" stroke-opacity="0.55" fill="none" stroke-linecap="round" stroke-linejoin="round"/>
<path d="M 953.5 1381.3 L 1011.5 1378.0 L 1018.0 1377.7 L 1024.6 1378.1 L 1033.9 1379.2" stroke="#000" stroke-width="1.3" stroke-opacity="0.8" fill="none" stroke-linecap="round" stroke-linejoin="round"/>
<path d="M 1428.3 225.7 L 1435.9 224.9 L 1449.4 223.7 L 1465.8 223.0 L 1472.3 222.9 L 1476.5 222.5 L 1479.6 220.8 L 1489.9 212.9 L 1493.8 211.1 L 1498.4 210.0 L 1502.1 208.4 L 1506.5 206.7 L 1511.9 205.6 L 1521.1 205.7 L 1537.5 205.5 L 1541.4 204.8 L 1545.6 203.3 L 1549.2 200.7 L 1565.8 190.5 L 1571.3 185.9 L 1574.8 183.8 L 1580.7 181.3 L 1590.8 178.0" stroke="#000" stroke-width="0.7" stroke-opacity="0.55" fill="none" stroke-linecap="round" stroke-linejoin="round"/>
<path d="M 1567.9 445.1 L 1566.6 501.8" stroke="#000" stroke-width="1.3" stroke-opacity="0.8" fill="none" stroke-linecap="round" stroke-linejoin="round"/>
<path d="M 1619.2 669.5 L 1634.8 671.3 L 1649.3 671.2 L 1664.7 672.0 L 1668.8 672.7 L 1671.8 674.7 L 1673.8 677.2 L 1674.7 680.2 L 1675.3 715.1" stroke="#000" stroke-width="1.3" stroke-opacity="0.8" fill="none" stroke-linecap="round" stroke-linejoin="round"/>
<path d="M 1572.9 650.1 L 1580.3 653.4 L 1589.8 666.1 L 1592.1 669.0 L 1594.5 669.7 L 1598.2 670.0 L 1609.4 669.6 L 1619.2 669.5" stroke="#000" stroke-width="1.3" stroke-opacity="0.8" fill="none" stroke-linecap="round" stroke-linejoin="round"/>
<path d="M 1570.0 732.8 L 1576.8 744.0 L 1581.9 755.5 L 1583.5 760.0 L 1583.4 762.3 L 1582.1 764.7 L 1579.4 766.3 L 1576.2 765.9 L 1571.2 763.6" stroke="#000" stroke-width="1.3" stroke-opacity="0.8" fill="none" stroke-linecap="round" stroke-linejoin="round"/>
<path d="M 1461.9 538.0 L 1463.2 633.2" stroke="#000" stroke-width="1.3" stroke-opacity="0.8" fill="none" stroke-linecap="round" stroke-linejoin="round"/>
<path d="M 1501.3 398.4 L 1497.6 397.0 L 1470.4 397.1 L 1445.5 398.1 L 1441.3 398.8 L 1439.0 402.1" stroke="#000" stroke-width="1.3" stroke-opacity="0.8" fill="none" stroke-linecap="round" stroke-linejoin="round"/>
<path d="M 1545.7 648.1 L 1567.4 649.0 L 1572.9 650.1" stroke="#000" stroke-width="1.3" stroke-opacity="0.8" fill="none" stroke-linecap="round" stroke-linejoin="round"/>
<path d="M 1113.9 607.9 L 1135.8 609.8 L 1160.2 616.6 L 1193.2 623.2 L 1203.3 627.4 L 1210.3 631.7 L 1214.1 638.9 L 1215.7 672.2" stroke="#000" stroke-width="0.7" stroke-opacity="0.55" fill="none" stroke-linecap="round" stroke-linejoin="round"/>
<path d="M 902.0 772.5 L 992.7 771.1" stroke="#000" stroke-width="1.3" stroke-opacity="0.8" fill="none" stroke-linecap="round" stroke-linejoin="round"/>
<path d="M 606.6 1072.6 L 609.6 1074.0 L 614.1 1075.4 L 633.4 1083.9" stroke="#000" stroke-width="1.3" stroke-opacity="0.8" fill="none" stroke-linecap="round" stroke-linejoin="round"/>
<path d="M 1061.3 1016.5 L 1036.7 1024.4 L 1031.1 1026.3 L 1027.0 1027.4 L 1022.9 1028.4 L 1001.3 1033.2" stroke="#000" stroke-width="0.7" stroke-opacity="0.55" fill="none" stroke-linecap="round" stroke-linejoin="round"/>
<path d="M 740.2 606.0 L 741.7 670.7" stroke="#000" stroke-width="0.7" stroke-opacity="0.55" fill="none" stroke-linecap="round" stroke-linejoin="round"/>
<path d="M 1263.8 900.3 L 1275.4 892.1 L 1282.9 886.6 L 1290.5 880.5 L 1296.0 871.0 L 1300.5 862.0" stroke="#000" stroke-width="1.3" stroke-opacity="0.8" fill="none" stroke-linecap="round" stroke-linejoin="round"/>
<path d="M 1263.9 1095.8 L 1263.8 900.3 L 1265.1 875.9 L 1266.8 867.7 L 1268.2 862.2" stroke="#000" stroke-width="1.3" stroke-opacity="0.8" fill="none" stroke-linecap="round" stroke-linejoin="round"/>
<path d="M 1046.5 442.4 L 1049.7 472.6 L 1051.3 479.9 L 1053.1 485.8 L 1054.0 490.9 L 1054.2 525.7 L 1054.9 528.9 L 1056.7 531.1 L 1060.7 531.8 L 1084.8 530.1 L 1090.2 530.0" stroke="#000" stroke-width="0.7" stroke-opacity="0.55" fill="none" stroke-linecap="round" stroke-linejoin="round"/>
<path d="M 760.1 248.8 L 732.7 203.8" stroke="#000" stroke-width="0.7" stroke-opacity="0.55" fill="none" stroke-linecap="round" stroke-linejoin="round"/>
<path d="M 867.5 202.7 L 870.1 208.8 L 873.8 217.3" stroke="#000" stroke-width="1.3" stroke-opacity="0.8" fill="none" stroke-linecap="round" stroke-linejoin="round"/>
<path d="M 874.9 239.1 L 875.5 256.3 L 875.8 304.6 L 876.1 344.4 L 878.3 413.4 L 880.6 511.6" stroke="#000" stroke-width="1.3" stroke-opacity="0.8" fill="none" stroke-linecap="round" stroke-linejoin="round"/>
<path d="M 1193.7 -7.3 L 1205.0 18.0 L 1215.6 42.4 L 1217.1 46.4 L 1218.2 54.5 L 1218.4 73.7" stroke="#000" stroke-width="0.7" stroke-opacity="0.55" fill="none" stroke-linecap="round" stroke-linejoin="round"/>
<path d="M 1253.2 31.2 L 1248.8 44.6 L 1249.4 49.1 L 1253.4 57.7 L 1255.6 64.2 L 1256.0 70.7 L 1254.4 134.7" stroke="#000" stroke-width="0.7" stroke-opacity="0.55" fill="none" stroke-linecap="round" stroke-linejoin="round"/>
<path d="M 879.4 62.0 L 903.9 63.3 L 911.7 63.1 L 921.8 60.9 L 932.4 54.1 L 944.1 40.4 L 946.3 30.7 L 948.2 27.5 L 951.3 25.8 L 963.3 21.3 L 970.5 15.2 L 973.4 10.1 L 976.0 3.5 L 978.3 -5.5 L 979.1 -34.4 L 982.4 -39.1 L 991.6 -45.7" stroke="#000" stroke-width="0.7" stroke-opacity="0.55" fill="none" stroke-linecap="round" stroke-linejoin="round"/>
<path d="M 804.9 16.5 L 807.1 14.7 L 808.8 10.1 L 776.7 -81.7" stroke="#000" stroke-width="1.3" stroke-opacity="0.8" fill="none" stroke-linecap="round" stroke-linejoin="round"/>
<path d="M 538.3 155.0 L 537.4 94.2" stroke="#000" stroke-width="1.3" stroke-opacity="0.8" fill="none" stroke-linecap="round" stroke-linejoin="round"/>
<path d="M 873.1 -609.9 L 873.3 -597.8 L 873.2 -495.4 L 873.7 -459.2 L 872.9 -397.7 L 872.3 -346.3 L 871.6 -287.8 L 872.5 -281.8 L 872.6 -275.5 L 873.2 -215.3 L 874.5 -154.7 L 876.6 -64.6 L 879.4 62.0 L 880.0 89.1" stroke="#000" stroke-width="1.3" stroke-opacity="0.8" fill="none" stroke-linecap="round" stroke-linejoin="round"/>
<path d="M 425.9 930.2 L 428.3 890.0 L 429.4 871.5 L 430.2 847.5" stroke="#000" stroke-width="1.3" stroke-opacity="0.8" fill="none" stroke-linecap="round" stroke-linejoin="round"/>
<path d="M 344.0 435.8 L 344.0 449.1 L 346.3 462.4 L 349.1 467.7 L 356.1 478.4 L 358.6 516.1" stroke="#000" stroke-width="0.7" stroke-opacity="0.55" fill="none" stroke-linecap="round" stroke-linejoin="round"/>
<path d="M 269.9 910.5 L 269.5 865.7 L 271.4 807.6 L 271.3 772.3 L 271.5 740.1" stroke="#000" stroke-width="1.3" stroke-opacity="0.8" fill="none" stroke-linecap="round" stroke-linejoin="round"/>
<path d="M 1128.7 1223.6 L 1124.0 1223.5 L 1029.5 1220.8" stroke="#000" stroke-width="1.3" stroke-opacity="0.8" fill="none" stroke-linecap="round" stroke-linejoin="round"/>
<path d="M 764.3 1208.5 L 737.4 1197.1 L 728.4 1194.5 L 709.5 1188.5" stroke="#000" stroke-width="0.7" stroke-opacity="0.55" fill="none" stroke-linecap="round" stroke-linejoin="round"/>
<path d="M 806.9 1114.1 L 813.2 1129.7 L 816.9 1133.6 L 830.2 1146.9 L 831.3 1148.0" stroke="#000" stroke-width="0.7" stroke-opacity="0.55" fill="none" stroke-linecap="round" stroke-linejoin="round"/>
<path d="M 1406.5 1551.7 L 1402.0 1546.4 L 1397.5 1537.5 L 1393.6 1527.8 L 1366.1 1471.2 L 1365.6 1371.4 L 1365.2 1296.8 L 1365.2 1288.8 L 1364.8 1260.7 L 1364.5 1242.5" stroke="#000" stroke-width="1.3" stroke-opacity="0.8" fill="none" stroke-linecap="round" stroke-linejoin="round"/>
<path d="M 1371.3 1240.0 L 1371.5 1258.5 L 1371.9 1288.9 L 1371.9 1297.0 L 1372.0 1371.6 L 1372.0 1463.4 L 1372.5 1468.2 L 1373.2 1471.0 L 1398.7 1525.2 L 1403.2 1534.7 L 1406.3 1541.0 L 1406.9 1545.2 L 1406.5 1551.7" stroke="#000" stroke-width="1.3" stroke-opacity="0.8" fill="none" stroke-linecap="round" stroke-linejoin="round"/>
<path d="M 1009.5 752.5 L 1013.3 762.4 L 1017.1 774.6 L 1020.7 781.1 L 1023.7 790.0 L 1028.3 802.7 L 1030.2 807.0 L 1031.3 812.0 L 1031.6 813.2 L 1032.6 823.7 L 1032.5 828.7 L 1032.3 830.8 L 1031.5 833.6 L 1029.8 837.3 L 1027.9 840.9 L 1018.2 856.2 L 1016.6 858.7 L 1015.7 861.2 L 1015.3 863.2 L 1014.8 866.8 L 1014.5 868.1" stroke="#000" stroke-width="1.3" stroke-opacity="0.8" fill="none" stroke-linecap="round" stroke-linejoin="round"/>
<path d="M 342.6 678.5 L 342.4 649.0" stroke="#000" stroke-width="1.3" stroke-opacity="0.8" fill="none" stroke-linecap="round" stroke-linejoin="round"/>
<path d="M 235.9 807.8 L 271.4 807.6" stroke="#000" stroke-width="0.7" stroke-opacity="0.55" fill="none" stroke-linecap="round" stroke-linejoin="round"/>
<path d="M 338.4 741.6 L 271.5 740.1" stroke="#000" stroke-width="1.3" stroke-opacity="0.8" fill="none" stroke-linecap="round" stroke-linejoin="round"/>
<path d="M 1118.6 394.7 L 1105.1 381.0 L 1103.0 380.6 L 1101.0 381.9 L 1100.0 383.9 L 1099.2 392.3 L 1097.2 411.0 L 1118.6 394.7" stroke="#000" stroke-width="0.7" stroke-opacity="0.55" fill="none" stroke-linecap="round" stroke-linejoin="round"/>
<path d="M 1118.6 394.7 L 1152.2 427.4 L 1153.7 430.4 L 1153.7 433.7 L 1152.7 437.1 L 1138.8 469.5 L 1136.4 471.7 L 1132.9 472.2 L 1118.4 466.9" stroke="#000" stroke-width="0.7" stroke-opacity="0.55" fill="none" stroke-linecap="round" stroke-linejoin="round"/>
<path d="M 1060.8 1324.2 L 1063.6 1333.1 L 1064.7 1334.7 L 1066.1 1335.5 L 1068.4 1335.8 L 1205.1 1305.3 L 1210.4 1304.2" stroke="#000" stroke-width="1.3" stroke-opacity="0.8" fill="none" stroke-linecap="round" stroke-linejoin="round"/>
<path d="M 1210.7 1341.8 L 1215.8 1342.1 L 1219.5 1342.3 L 1230.3 1342.7 L 1233.5 1343.5 L 1236.1 1345.8 L 1236.6 1348.1 L 1237.6 1380.4" stroke="#000" stroke-width="1.3" stroke-opacity="0.8" fill="none" stroke-linecap="round" stroke-linejoin="round"/>
<path d="M 48.7 -1034.9 L 62.6 -979.5 L 65.9 -963.2 L 70.0 -948.1 L 77.1 -922.0 L 84.8 -894.1 L 116.2 -775.1 L 121.2 -746.7 L 123.7 -736.7 L 129.4 -714.0 L 135.3 -691.7 L 155.2 -615.7 L 164.0 -580.5 L 187.0 -491.3 L 189.4 -481.8 L 213.8 -383.7 L 262.3 -189.0 L 269.0 -162.2 L 272.2 -149.2 L 314.0 18.6 L 336.7 109.6 L 338.2 115.6 L 355.7 185.9 L 360.3 206.4 L 370.9 254.2 L 382.1 303.4 L 388.7 333.4 L 394.1 356.6 L 398.7 377.1 L 402.2 392.8 L 415.0 449.7 L 420.2 472.8 L 440.0 558.3 L 449.8 604.3 L 465.0 672.0 L 472.2 704.1 L 477.3 727.0 L 483.0 752.1 L 490.8 786.7 L 494.4 802.9 L 499.5 825.7 L 517.0 903.4 L 521.5 921.8 L 528.9 945.6 L 543.0 979.7 L 562.9 1011.1 L 588.6 1051.5 L 604.2 1074.7 L 655.7 1151.3 L 695.0 1209.7 L 725.5 1255.2 L 735.7 1270.0 L 754.2 1299.9 L 778.3 1339.9 L 812.3 1397.5 L 814.4 1401.1 L 817.4 1406.4 L 825.0 1420.6 L 828.3 1426.6 L 831.7 1432.9 L 841.5 1450.9 L 849.2 1465.2 L 942.3 1627.1 L 969.2 1677.0 L 978.7 1697.6 L 992.6 1727.8 L 1009.6 1768.1" stroke="#000" stroke-width="2.4" stroke-opacity="0.95" fill="none" stroke-linecap="round" stroke-linejoin="round"/>
<path d="M 682.4 1233.4 L 667.6 1258.6 L 644.0 1311.7 L 637.0 1327.9 L 629.8 1343.7 L 611.7 1385.0 L 609.5 1390.1 L 600.5 1410.7 L 594.6 1424.5 L 591.0 1433.4 L 583.7 1440.0 L 578.2 1445.1 L 537.4 1481.8 L 491.4 1524.1 L 458.7 1553.8 L 395.7 1612.4 L 379.2 1627.8 L 352.3 1656.4 L 329.8 1675.8 L 293.0 1712.9 L 284.5 1722.6 L 276.0 1743.3 L 274.3 1747.6 L 270.0 1758.1 L 263.9 1775.2" stroke="#000" stroke-width="1.3" stroke-opacity="0.8" fill="none" stroke-linecap="round" stroke-linejoin="round"/>
<path d="M 1424.0 199.7 L 1484.9 198.7 L 1483.1 154.4 L 1526.4 153.0 L 1539.8 151.7 L 1543.2 150.3 L 1547.3 148.7 L 1556.6 145.1" stroke="#000" stroke-width="0.7" stroke-opacity="0.55" fill="none" stroke-linecap="round" stroke-linejoin="round"/>
<path d="M 1329.1 810.6 L 1329.2 833.4 L 1329.2 857.6 L 1329.2 863.1" stroke="#000" stroke-width="1.3" stroke-opacity="0.8" fill="none" stroke-linecap="round" stroke-linejoin="round"/>
<path d="M 1309.4 812.4 L 1316.0 819.5 L 1329.2 833.4" stroke="#000" stroke-width="1.3" stroke-opacity="0.8" fill="none" stroke-linecap="round" stroke-linejoin="round"/>
<path d="M 1369.4 741.4 L 1338.0 741.2" stroke="#000" stroke-width="1.3" stroke-opacity="0.8" fill="none" stroke-linecap="round" stroke-linejoin="round"/>
<path d="M 1340.5 697.4 L 1356.5 697.4 L 1389.4 697.5 L 1399.0 697.5 L 1422.7 697.5" stroke="#000" stroke-width="1.3" stroke-opacity="0.8" fill="none" stroke-linecap="round" stroke-linejoin="round"/>
<path d="M 1389.4 697.5 L 1389.2 736.1 L 1387.9 740.4 L 1382.2 741.6 L 1381.3 741.6 L 1369.4 741.4" stroke="#000" stroke-width="1.3" stroke-opacity="0.8" fill="none" stroke-linecap="round" stroke-linejoin="round"/>
<path d="M 1381.3 741.6 L 1380.7 782.1 L 1381.1 805.6 L 1381.1 813.6" stroke="#000" stroke-width="1.3" stroke-opacity="0.8" fill="none" stroke-linecap="round" stroke-linejoin="round"/>
<path d="M 1356.5 697.4 L 1356.2 631.3 L 1356.0 625.4" stroke="#000" stroke-width="1.3" stroke-opacity="0.8" fill="none" stroke-linecap="round" stroke-linejoin="round"/>
<path d="M 1408.0 654.5 L 1401.1 662.4 L 1398.9 667.3 L 1398.9 678.1 L 1399.0 697.5" stroke="#000" stroke-width="1.3" stroke-opacity="0.8" fill="none" stroke-linecap="round" stroke-linejoin="round"/>
<path d="M 1433.1 626.8 L 1426.1 623.4 L 1422.2 621.0 L 1417.4 616.0 L 1389.9 585.1" stroke="#000" stroke-width="1.3" stroke-opacity="0.8" fill="none" stroke-linecap="round" stroke-linejoin="round"/>
<path d="M 1432.9 633.0 L 1428.1 635.8 L 1417.7 644.9 L 1413.1 649.4" stroke="#000" stroke-width="1.3" stroke-opacity="0.8" fill="none" stroke-linecap="round" stroke-linejoin="round"/>
<path d="M 1413.1 649.4 L 1408.0 654.5" stroke="#000" stroke-width="1.3" stroke-opacity="0.8" fill="none" stroke-linecap="round" stroke-linejoin="round"/>
<path d="M 1173.4 427.0 L 1213.0 460.0 L 1222.0 467.4" stroke="#000" stroke-width="0.7" stroke-opacity="0.55" fill="none" stroke-linecap="round" stroke-linejoin="round"/>
<path d="M 1084.8 530.1 L 1086.5 550.3 L 1087.9 574.8 L 1089.2 580.1 L 1094.3 585.3 L 1098.8 587.4 L 1105.0 587.8 L 1106.7 587.8 L 1110.2 587.9 L 1114.0 587.6" stroke="#000" stroke-width="0.7" stroke-opacity="0.55" fill="none" stroke-linecap="round" stroke-linejoin="round"/>
<path d="M 1518.4 819.7 L 1521.9 824.8 L 1527.6 832.4" stroke="#000" stroke-width="1.3" stroke-opacity="0.8" fill="none" stroke-linecap="round" stroke-linejoin="round"/>
<path d="M 1520.4 837.4 L 1514.2 829.5 L 1510.7 824.8" stroke="#000" stroke-width="1.3" stroke-opacity="0.8" fill="none" stroke-linecap="round" stroke-linejoin="round"/>
<path d="M 1518.4 819.7 L 1510.7 824.8" stroke="#000" stroke-width="1.3" stroke-opacity="0.8" fill="none" stroke-linecap="round" stroke-linejoin="round"/>
<path d="M 873.0 983.8 L 853.1 983.9 L 852.6 984.5" stroke="#000" stroke-width="1.3" stroke-opacity="0.8" fill="none" stroke-linecap="round" stroke-linejoin="round"/>
<path d="M 985.8 818.2 L 1001.0 819.9 L 1003.7 820.6 L 1006.1 822.6 L 1006.9 826.3 L 1006.8 828.1 L 1005.9 887.9" stroke="#000" stroke-width="1.3" stroke-opacity="0.8" fill="none" stroke-linecap="round" stroke-linejoin="round"/>
<path d="M 1031.3 812.0 L 1025.9 820.7 L 1022.2 825.6 L 1019.3 828.2 L 1016.5 829.0 L 1006.8 828.1" stroke="#000" stroke-width="1.3" stroke-opacity="0.8" fill="none" stroke-linecap="round" stroke-linejoin="round"/>
<path d="M 1099.3 641.2 L 1085.1 633.9 L 1073.1 629.6 L 1057.5 627.5 L 1031.7 627.3 L 997.2 625.7 L 954.0 627.8 L 931.2 628.2 L 905.5 627.8" stroke="#000" stroke-width="0.7" stroke-opacity="0.55" fill="none" stroke-linecap="round" stroke-linejoin="round"/>
<path d="M 1132.8 531.4 L 1097.1 529.9 L 1090.2 530.0" stroke="#000" stroke-width="0.7" stroke-opacity="0.55" fill="none" stroke-linecap="round" stroke-linejoin="round"/>
<path d="M 1153.6 752.4 L 1222.3 778.9" stroke="#000" stroke-width="1.3" stroke-opacity="0.8" fill="none" stroke-linecap="round" stroke-linejoin="round"/>
<path d="M 1222.0 467.4 L 1231.5 454.1 L 1265.0 401.1" stroke="#000" stroke-width="0.7" stroke-opacity="0.55" fill="none" stroke-linecap="round" stroke-linejoin="round"/>
<path d="M 764.3 1208.5 L 771.7 1197.5 L 776.3 1188.2 L 779.1 1180.8 L 781.4 1176.6 L 786.0 1170.5 L 794.7 1163.4" stroke="#000" stroke-width="0.7" stroke-opacity="0.55" fill="none" stroke-linecap="round" stroke-linejoin="round"/>
<path d="M 655.7 1151.3 L 658.1 1142.9 L 658.5 1136.0 L 659.2 1132.5 L 661.2 1129.1 L 666.0 1127.4 L 670.2 1127.6 L 673.7 1126.7 L 675.9 1124.3 L 677.0 1122.0 L 677.6 1118.5 L 678.3 1115.2 L 676.7 1106.8 L 672.0 1100.2 L 669.1 1093.0 L 668.4 1089.8 L 668.5 1086.5 L 671.6 1075.3 L 677.8 1062.4" stroke="#000" stroke-width="0.7" stroke-opacity="0.55" fill="none" stroke-linecap="round" stroke-linejoin="round"/>
<path d="M 670.4 994.5 L 677.2 978.4 L 689.3 954.4" stroke="#000" stroke-width="0.7" stroke-opacity="0.55" fill="none" stroke-linecap="round" stroke-linejoin="round"/>
<path d="M 540.3 1079.2 L 538.7 1102.3" stroke="#000" stroke-width="1.3" stroke-opacity="0.8" fill="none" stroke-linecap="round" stroke-linejoin="round"/>
<path d="M 571.5 908.8 L 596.5 917.0 L 617.5 924.7" stroke="#000" stroke-width="0.7" stroke-opacity="0.55" fill="none" stroke-linecap="round" stroke-linejoin="round"/>
<path d="M 712.2 826.2 L 711.7 869.4" stroke="#000" stroke-width="0.7" stroke-opacity="0.55" fill="none" stroke-linecap="round" stroke-linejoin="round"/>
<path d="M 218.8 866.9 L 269.5 865.7" stroke="#000" stroke-width="1.3" stroke-opacity="0.8" fill="none" stroke-linecap="round" stroke-linejoin="round"/>
<path d="M 708.9 1336.8 L 708.6 1338.3 L 708.6 1355.1 L 708.7 1369.3 L 709.2 1427.7" stroke="#000" stroke-width="1.3" stroke-opacity="0.8" fill="none" stroke-linecap="round" stroke-linejoin="round"/>
<path d="M 1211.1 1271.8 L 1210.9 1283.7 L 1210.6 1298.0 L 1210.4 1304.2 L 1210.6 1316.9 L 1210.7 1341.8 L 1210.6 1348.3 L 1210.6 1349.9 L 1209.6 1351.7 L 1207.9 1352.0" stroke="#000" stroke-width="1.3" stroke-opacity="0.8" fill="none" stroke-linecap="round" stroke-linejoin="round"/>
<path d="M 1207.9 1352.0 L 1206.5 1351.9 L 1205.3 1351.1 L 1204.7 1349.8 L 1204.9 1317.7 L 1205.1 1305.3 L 1205.1 1285.4 L 1205.1 1273.4" stroke="#000" stroke-width="1.3" stroke-opacity="0.8" fill="none" stroke-linecap="round" stroke-linejoin="round"/>
<path d="M 1237.6 1380.4 L 1237.6 1383.8 L 1236.8 1385.6 L 1235.7 1386.5 L 1234.0 1386.8 L 1231.4 1385.9 L 1229.9 1383.9 L 1228.8 1380.9 L 1229.0 1350.8 L 1228.5 1349.3 L 1227.2 1348.3 L 1225.1 1348.3 L 1210.6 1348.3" stroke="#000" stroke-width="1.3" stroke-opacity="0.8" fill="none" stroke-linecap="round" stroke-linejoin="round"/>
<path d="M 1002.5 1328.7 L 1009.0 1316.3 L 1012.3 1311.6 L 1015.7 1307.9 L 1020.9 1304.6 L 1026.0 1302.2 L 1124.3 1278.0 L 1211.2 1256.7" stroke="#000" stroke-width="1.3" stroke-opacity="0.8" fill="none" stroke-linecap="round" stroke-linejoin="round"/>
<path d="M 1278.4 1251.7 L 1278.0 1242.3 L 1278.0 1241.0 L 1278.3 1239.8 L 1279.0 1238.8 L 1280.3 1238.1 L 1344.7 1218.5 L 1385.5 1206.0 L 1395.3 1203.0 L 1430.7 1192.1" stroke="#000" stroke-width="0.7" stroke-opacity="0.55" fill="none" stroke-linecap="round" stroke-linejoin="round"/>
<path d="M 1432.9 1205.1 L 1430.5 1194.9 L 1430.7 1192.1 L 1431.5 1190.0 L 1433.0 1187.5 L 1435.1 1185.7" stroke="#000" stroke-width="0.7" stroke-opacity="0.55" fill="none" stroke-linecap="round" stroke-linejoin="round"/>
<path d="M 1433.3 1176.0 L 1431.9 1122.8 L 1432.4 1120.1 L 1434.3 1118.7 L 1445.0 1118.0 L 1446.9 1115.6 L 1446.8 1092.2 L 1445.9 1077.0 L 1449.9 1075.2 L 1478.5 1067.9" stroke="#000" stroke-width="0.7" stroke-opacity="0.55" fill="none" stroke-linecap="round" stroke-linejoin="round"/>
<path d="M 1382.1 951.2 L 1382.3 949.1 L 1382.4 908.7 L 1382.4 887.7 L 1381.6 886.7 L 1378.6 886.2 L 1365.1 886.9 L 1363.9 886.2 L 1363.2 884.7 L 1363.4 874.9 L 1363.4 862.5" stroke="#000" stroke-width="0.7" stroke-opacity="0.55" fill="none" stroke-linecap="round" stroke-linejoin="round"/>
<path d="M 1389.5 1219.1 L 1385.5 1206.0" stroke="#000" stroke-width="0.7" stroke-opacity="0.55" fill="none" stroke-linecap="round" stroke-linejoin="round"/>
<path d="M 1398.7 1216.5 L 1395.3 1203.0" stroke="#000" stroke-width="0.7" stroke-opacity="0.55" fill="none" stroke-linecap="round" stroke-linejoin="round"/>
<path d="M 1348.6 1231.0 L 1344.7 1218.5" stroke="#000" stroke-width="0.7" stroke-opacity="0.55" fill="none" stroke-linecap="round" stroke-linejoin="round"/>
<path d="M 535.6 544.2 L 537.1 539.3 L 536.6 485.2" stroke="#000" stroke-width="0.7" stroke-opacity="0.55" fill="none" stroke-linecap="round" stroke-linejoin="round"/>
<path d="M 705.9 169.0 L 695.3 173.5 L 684.3 177.7 L 668.2 182.3 L 648.4 185.7 L 639.2 186.2 L 637.1 189.6 L 635.3 184.4 L 631.4 180.7 L 628.4 173.3 L 624.9 163.0 L 623.1 159.9 L 622.1 158.2 L 618.0 158.1 L 610.1 160.3 L 603.8 162.0 L 600.8 162.8 L 592.9 167.6 L 593.4 170.6" stroke="#000" stroke-width="0.7" stroke-opacity="0.55" fill="none" stroke-linecap="round" stroke-linejoin="round"/>
<path d="M 268.4 714.7 L 236.9 714.0" stroke="#000" stroke-width="1.3" stroke-opacity="0.8" fill="none" stroke-linecap="round" stroke-linejoin="round"/>
<path d="M 268.9 690.0 L 236.6 689.4" stroke="#000" stroke-width="1.3" stroke-opacity="0.8" fill="none" stroke-linecap="round" stroke-linejoin="round"/>
<path d="M 237.1 721.7 L 236.9 714.0 L 236.6 689.4 L 236.4 680.8" stroke="#000" stroke-width="1.3" stroke-opacity="0.8" fill="none" stroke-linecap="round" stroke-linejoin="round"/>
<path d="M 270.5 627.0 L 271.1 666.8" stroke="#000" stroke-width="1.3" stroke-opacity="0.8" fill="none" stroke-linecap="round" stroke-linejoin="round"/>
<path d="M 1299.4 1441.8 L 1287.2 1450.7 L 1276.1 1453.5 L 1273.5 1437.7 L 1273.0 1427.1 L 1267.6 1419.8 L 1085.7 1418.7 L 1084.8 1379.3 L 1095.4 1373.9 L 1095.1 1365.0 L 1093.3 1356.8 L 1086.7 1353.0 L 1085.7 1341.2" stroke="#000" stroke-width="1.3" stroke-opacity="0.8" fill="none" stroke-linecap="round" stroke-linejoin="round"/>
<path d="M 1298.5 1260.5 L 1306.6 1292.0 L 1210.6 1298.0" stroke="#000" stroke-width="1.3" stroke-opacity="0.8" fill="none" stroke-linecap="round" stroke-linejoin="round"/>
<path d="M 370.9 254.2 L 384.2 274.9 L 391.3 282.2 L 409.7 291.8 L 416.6 294.4 L 438.7 297.9" stroke="#000" stroke-width="0.9" stroke-opacity="0.6" fill="none" stroke-linecap="round" stroke-linejoin="round"/>
<path d="M 290.4 978.0 L 281.5 981.4 L 277.1 983.6" stroke="#000" stroke-width="1.3" stroke-opacity="0.8" fill="none" stroke-linecap="round" stroke-linejoin="round"/>
<path d="M 466.8 792.2 L 490.8 786.7" stroke="#000" stroke-width="0.9" stroke-opacity="0.6" fill="none" stroke-linecap="round" stroke-linejoin="round"/>
<path d="M 582.3 870.1 L 561.4 843.0 L 552.6 833.3 L 548.2 832.3 L 515.3 826.6 L 499.5 825.7" stroke="#000" stroke-width="1.3" stroke-opacity="0.8" fill="none" stroke-linecap="round" stroke-linejoin="round"/>
<path d="M 548.2 832.3 L 540.8 846.0 L 518.1 840.4" stroke="#000" stroke-width="1.3" stroke-opacity="0.8" fill="none" stroke-linecap="round" stroke-linejoin="round"/>
<path d="M 329.4 948.2 L 329.3 966.0 L 337.2 966.2 L 338.8 966.3" stroke="#000" stroke-width="1.3" stroke-opacity="0.8" fill="none" stroke-linecap="round" stroke-linejoin="round"/>
<path d="M 467.6 946.4 L 468.2 942.6 L 471.9 919.2" stroke="#000" stroke-width="1.3" stroke-opacity="0.8" fill="none" stroke-linecap="round" stroke-linejoin="round"/>
<path d="M 1490.4 837.7 L 1479.8 823.2 L 1472.2 815.4 L 1465.3 811.4 L 1452.1 810.4 L 1441.5 814.1 L 1434.1 817.4 L 1432.5 813.8 L 1433.7 809.4 L 1434.0 805.3 L 1433.7 793.2 L 1427.7 786.8 L 1413.2 779.8 L 1400.6 777.9" stroke="#000" stroke-width="1.3" stroke-opacity="0.8" fill="none" stroke-linecap="round" stroke-linejoin="round"/>
<path d="M 1391.0 814.0 L 1399.5 823.0 L 1405.9 826.7 L 1413.0 828.6 L 1422.3 828.4 L 1429.7 824.7 L 1434.1 817.4" stroke="#000" stroke-width="1.3" stroke-opacity="0.8" fill="none" stroke-linecap="round" stroke-linejoin="round"/>
<path d="M 892.0 129.5 L 895.1 139.3 L 900.3 147.8 L 906.1 155.7" stroke="#000" stroke-width="1.3" stroke-opacity="0.8" fill="none" stroke-linecap="round" stroke-linejoin="round"/>
<path d="M 906.1 155.7 L 909.5 159.6" stroke="#000" stroke-width="1.3" stroke-opacity="0.8" fill="none" stroke-linecap="round" stroke-linejoin="round"/>
<path d="M 1125.4 558.7 L 1132.8 531.4 L 1135.5 521.5 L 1145.6 484.8 L 1154.9 461.3 L 1173.4 427.0" stroke="#000" stroke-width="1.3" stroke-opacity="0.8" fill="none" stroke-linecap="round" stroke-linejoin="round"/>
<path d="M 1180.4 418.7 L 1183.7 414.8" stroke="#000" stroke-width="1.3" stroke-opacity="0.8" fill="none" stroke-linecap="round" stroke-linejoin="round"/>
<path d="M 880.0 89.1 L 847.6 84.9 L 838.6 88.9" stroke="#000" stroke-width="1.3" stroke-opacity="0.8" fill="none" stroke-linecap="round" stroke-linejoin="round"/>
<path d="M 1118.6 394.7 L 1124.0 389.2 L 1127.6 385.6" stroke="#000" stroke-width="0.7" stroke-opacity="0.55" fill="none" stroke-linecap="round" stroke-linejoin="round"/>
<path d="M 387.4 677.9 L 388.3 718.8" stroke="#000" stroke-width="1.3" stroke-opacity="0.8" fill="none" stroke-linecap="round" stroke-linejoin="round"/>
<path d="M 760.1 605.4 L 769.3 659.2 L 769.2 679.0 L 762.0 695.8 L 756.9 708.9" stroke="#000" stroke-width="0.7" stroke-opacity="0.55" fill="none" stroke-linecap="round" stroke-linejoin="round"/>
<path d="M -32.8 912.5 L 101.4 911.2 L 113.0 912.6 L 121.4 916.2 L 141.0 927.0 L 156.6 937.3 L 175.3 952.0 L 193.4 955.3 L 220.1 953.6 L 286.8 950.8 L 329.4 948.2 L 334.0 947.9 L 390.3 939.0 L 406.8 936.4" stroke="#000" stroke-width="1.3" stroke-opacity="0.8" fill="none" stroke-linecap="round" stroke-linejoin="round"/>
<path d="M 541.9 376.1 L 408.8 362.4" stroke="#000" stroke-width="3.2" stroke-opacity="0.9" fill="none" stroke-linecap="round" stroke-linejoin="round"/>
<path d="M 339.7 356.0 L 268.4 348.8 L 255.3 342.0" stroke="#000" stroke-width="3.2" stroke-opacity="0.9" fill="none" stroke-linecap="round" stroke-linejoin="round"/>
<path d="M 408.8 362.4 L 339.7 356.0" stroke="#000" stroke-width="3.2" stroke-opacity="0.9" fill="none" stroke-linecap="round" stroke-linejoin="round"/>
<path d="M 868.0 304.6 L 875.8 304.6" stroke="#000" stroke-width="0.7" stroke-opacity="0.55" fill="none" stroke-linecap="round" stroke-linejoin="round"/>
<path d="M 406.8 936.4 L 425.9 930.2 L 453.5 922.3 L 459.8 920.8 L 471.9 919.2 L 485.5 918.7 L 494.6 919.3" stroke="#000" stroke-width="1.3" stroke-opacity="0.8" fill="none" stroke-linecap="round" stroke-linejoin="round"/>
<path d="M 406.8 936.4 L 408.4 952.8" stroke="#000" stroke-width="1.3" stroke-opacity="0.8" fill="none" stroke-linecap="round" stroke-linejoin="round"/>
<path d="M 508.2 324.0 L 443.0 347.1" stroke="#000" stroke-width="3.2" stroke-opacity="0.9" fill="none" stroke-linecap="round" stroke-linejoin="round"/>
<path d="M 516.3 321.1 L 508.2 324.0" stroke="#000" stroke-width="3.2" stroke-opacity="0.9" fill="none" stroke-linecap="round" stroke-linejoin="round"/>
<path d="M 591.3 294.4 L 516.3 321.1" stroke="#000" stroke-width="3.2" stroke-opacity="0.9" fill="none" stroke-linecap="round" stroke-linejoin="round"/>
<path d="M 599.4 291.6 L 591.3 294.4" stroke="#000" stroke-width="3.2" stroke-opacity="0.9" fill="none" stroke-linecap="round" stroke-linejoin="round"/>
<path d="M 652.2 272.8 L 599.4 291.6" stroke="#000" stroke-width="3.2" stroke-opacity="0.9" fill="none" stroke-linecap="round" stroke-linejoin="round"/>
<path d="M 660.3 269.9 L 652.2 272.8" stroke="#000" stroke-width="3.2" stroke-opacity="0.9" fill="none" stroke-linecap="round" stroke-linejoin="round"/>
<path d="M 1382.4 908.7 L 1366.0 909.3 L 1361.6 908.9 L 1360.8 908.0 L 1360.1 906.1 L 1360.2 893.4 L 1360.8 892.1 L 1361.8 890.3 L 1365.1 886.9" stroke="#000" stroke-width="0.7" stroke-opacity="0.55" fill="none" stroke-linecap="round" stroke-linejoin="round"/>
<path d="M 1524.1 842.0 L 1520.4 837.4" stroke="#000" stroke-width="1.3" stroke-opacity="0.8" fill="none" stroke-linecap="round" stroke-linejoin="round"/>
<path d="M 1527.6 832.4 L 1531.1 837.4" stroke="#000" stroke-width="1.3" stroke-opacity="0.8" fill="none" stroke-linecap="round" stroke-linejoin="round"/>
<path d="M 599.7 1116.1 L 590.8 1117.3 L 564.3 1111.8" stroke="#000" stroke-width="1.3" stroke-opacity="0.8" fill="none" stroke-linecap="round" stroke-linejoin="round"/>
<path d="M 435.8 1152.8 L 436.2 1132.0" stroke="#000" stroke-width="1.3" stroke-opacity="0.8" fill="none" stroke-linecap="round" stroke-linejoin="round"/>
<path d="M 449.5 1100.0 L 450.3 1125.3" stroke="#000" stroke-width="1.3" stroke-opacity="0.8" fill="none" stroke-linecap="round" stroke-linejoin="round"/>
<path d="M 629.2 978.7 L 616.8 973.5 L 610.6 968.9 L 610.3 960.3 L 609.8 958.3 L 605.3 954.0" stroke="#000" stroke-width="1.3" stroke-opacity="0.8" fill="none" stroke-linecap="round" stroke-linejoin="round"/>
<path d="M 605.3 954.0 L 590.1 945.5" stroke="#000" stroke-width="0.7" stroke-opacity="0.55" fill="none" stroke-linecap="round" stroke-linejoin="round"/>
<path d="M 617.5 924.7 L 624.0 910.8 L 628.9 896.7" stroke="#000" stroke-width="0.7" stroke-opacity="0.55" fill="none" stroke-linecap="round" stroke-linejoin="round"/>
<path d="M 722.6 176.4 L 726.6 190.0" stroke="#000" stroke-width="1.3" stroke-opacity="0.8" fill="none" stroke-linecap="round" stroke-linejoin="round"/>
<path d="M 980.5 1182.6 L 965.6 1172.1 L 964.5 1170.1 L 964.2 1168.1 L 967.4 1159.1 L 967.3 1156.2 L 963.1 1152.9 L 953.1 1148.0 L 937.1 1137.0 L 934.3 1135.0 L 929.5 1130.7 L 924.5 1126.5" stroke="#000" stroke-width="1.3" stroke-opacity="0.8" fill="none" stroke-linecap="round" stroke-linejoin="round"/>
<path d="M 916.1 1093.6 L 909.1 1090.1 L 895.6 1086.1 L 888.6 1083.0" stroke="#000" stroke-width="0.7" stroke-opacity="0.55" fill="none" stroke-linecap="round" stroke-linejoin="round"/>
<path d="M 847.7 1161.1 L 861.5 1164.8" stroke="#000" stroke-width="0.7" stroke-opacity="0.55" fill="none" stroke-linecap="round" stroke-linejoin="round"/>
<path d="M 846.1 997.8 L 826.6 991.6 L 815.2 990.7 L 807.7 993.8 L 800.3 1001.0 L 792.9 1012.3 L 764.1 1074.3 L 750.2 1097.2 L 747.3 1099.9 L 745.8 1100.6" stroke="#000" stroke-width="1.3" stroke-opacity="0.8" fill="none" stroke-linecap="round" stroke-linejoin="round"/>
<path d="M 871.7 200.7 L 874.7 207.1 L 878.4 215.5" stroke="#000" stroke-width="1.3" stroke-opacity="0.8" fill="none" stroke-linecap="round" stroke-linejoin="round"/>
<path d="M 884.2 213.2 L 891.9 231.5" stroke="#000" stroke-width="1.3" stroke-opacity="0.8" fill="none" stroke-linecap="round" stroke-linejoin="round"/>
<path d="M 868.7 219.3 L 874.9 239.1" stroke="#000" stroke-width="1.3" stroke-opacity="0.8" fill="none" stroke-linecap="round" stroke-linejoin="round"/>
<path d="M 868.7 219.3 L 865.0 210.5 L 862.5 204.6" stroke="#000" stroke-width="1.3" stroke-opacity="0.8" fill="none" stroke-linecap="round" stroke-linejoin="round"/>
<path d="M 878.4 215.5 L 873.8 217.3 L 868.7 219.3" stroke="#000" stroke-width="1.3" stroke-opacity="0.8" fill="none" stroke-linecap="round" stroke-linejoin="round"/>
<path d="M 1338.0 741.2 L 1339.1 804.3 L 1338.5 807.8 L 1335.7 810.0 L 1329.1 810.6 L 1309.4 812.4 L 1252.5 743.3" stroke="#000" stroke-width="1.3" stroke-opacity="0.8" fill="none" stroke-linecap="round" stroke-linejoin="round"/>
<path d="M 1267.2 835.1 L 1222.3 778.9" stroke="#000" stroke-width="1.3" stroke-opacity="0.8" fill="none" stroke-linecap="round" stroke-linejoin="round"/>
<path d="M 1222.3 778.9 L 1220.2 772.2 L 1219.4 763.5 L 1218.3 744.1" stroke="#000" stroke-width="1.3" stroke-opacity="0.8" fill="none" stroke-linecap="round" stroke-linejoin="round"/>
<path d="M 670.5 298.7 L 611.6 325.7 L 582.1 338.8" stroke="#000" stroke-width="0.7" stroke-opacity="0.55" fill="none" stroke-linecap="round" stroke-linejoin="round"/>
<path d="M 670.5 298.7 L 673.9 308.6 L 675.1 312.1" stroke="#000" stroke-width="0.7" stroke-opacity="0.55" fill="none" stroke-linecap="round" stroke-linejoin="round"/>
<path d="M 693.1 218.9 L 694.7 285.7" stroke="#000" stroke-width="0.7" stroke-opacity="0.55" fill="none" stroke-linecap="round" stroke-linejoin="round"/>
<path d="M 694.7 285.7 L 670.5 298.7" stroke="#000" stroke-width="0.7" stroke-opacity="0.55" fill="none" stroke-linecap="round" stroke-linejoin="round"/>
<path d="M 762.7 253.0 L 760.1 248.8" stroke="#000" stroke-width="0.7" stroke-opacity="0.55" fill="none" stroke-linecap="round" stroke-linejoin="round"/>
<path d="M 812.5 229.3 L 814.2 233.8" stroke="#000" stroke-width="0.7" stroke-opacity="0.55" fill="none" stroke-linecap="round" stroke-linejoin="round"/>
<path d="M 1114.9 276.9 L 1149.4 262.4 L 1169.4 257.9 L 1194.0 256.3 L 1211.1 255.1" stroke="#000" stroke-width="0.7" stroke-opacity="0.55" fill="none" stroke-linecap="round" stroke-linejoin="round"/>
<path d="M 1312.5 1280.6 L 1361.2 1264.7 L 1360.2 1286.5 L 1334.0 1285.4 L 1312.5 1280.6" stroke="#000" stroke-width="1" stroke-opacity="0.2" fill="#000" fill-opacity="0.05" stroke-linecap="round" stroke-linejoin="round"/>
<path d="M 930.0 111.8 L 944.3 146.8 L 952.7 159.7 L 961.9 168.1 L 969.1 172.0 L 974.2 171.8 L 981.7 170.0 L 990.0 168.3 L 994.3 169.1 L 999.3 172.9 L 1028.3 231.9 L 1034.1 240.8 L 1040.0 247.9 L 1044.6 251.7 L 1048.9 253.4 L 1064.6 254.6 L 1100.6 254.8 L 1103.8 255.1 L 1105.9 257.0 L 1114.9 276.9" stroke="#000" stroke-width="0.7" stroke-opacity="0.55" fill="none" stroke-linecap="round" stroke-linejoin="round"/>
<path d="M 376.7 383.7 L 369.8 374.9 L 358.8 361.9 L 343.5 352.8 L 326.6 350.1 L 309.1 346.0 L 295.1 339.2" stroke="#000" stroke-width="0.9" stroke-opacity="0.6" fill="none" stroke-linecap="round" stroke-linejoin="round"/>
<path d="M 436.5 315.4 L 410.7 348.5 L 398.7 377.1" stroke="#000" stroke-width="0.9" stroke-opacity="0.6" fill="none" stroke-linecap="round" stroke-linejoin="round"/>
<path d="M 806.1 1424.8 L 762.3 1345.9 L 722.4 1280.2 L 685.9 1226.9 L 602.1 1106.0 L 560.0 1041.8 L 549.0 1024.1" stroke="#000" stroke-width="3.6" stroke-opacity="1" fill="none" stroke-linecap="round" stroke-linejoin="round"/>
<path d="M 474.3 797.4 L 471.4 783.7" stroke="#000" stroke-width="3.6" stroke-opacity="1" fill="none" stroke-linecap="round" stroke-linejoin="round"/>
<path d="M 559.4 1018.4 L 569.5 1035.7 L 612.0 1099.3 L 696.6 1222.7 L 730.8 1273.9 L 771.3 1340.1 L 815.4 1420.0" stroke="#000" stroke-width="3.6" stroke-opacity="1" fill="none" stroke-linecap="round" stroke-linejoin="round"/>
<path d="M 482.9 781.7 L 486.1 795.7" stroke="#000" stroke-width="3.6" stroke-opacity="1" fill="none" stroke-linecap="round" stroke-linejoin="round"/>
<path d="M 471.4 783.7 L 436.2 619.6 L 423.4 565.8" stroke="#000" stroke-width="3.6" stroke-opacity="1" fill="none" stroke-linecap="round" stroke-linejoin="round"/>
<path d="M 373.3 342.4 L 366.6 310.5" stroke="#000" stroke-width="3.6" stroke-opacity="1" fill="none" stroke-linecap="round" stroke-linejoin="round"/>
<path d="M 384.0 340.8 L 387.7 355.4 L 392.3 378.5 L 398.3 410.1 L 403.2 435.1 L 431.0 555.0" stroke="#000" stroke-width="3.6" stroke-opacity="1" fill="none" stroke-linecap="round" stroke-linejoin="round"/>
<path d="M 377.0 309.3 L 384.0 340.8" stroke="#000" stroke-width="3.6" stroke-opacity="1" fill="none" stroke-linecap="round" stroke-linejoin="round"/>
<path d="M 366.6 310.5 L 364.3 301.2" stroke="#000" stroke-width="3.6" stroke-opacity="1" fill="none" stroke-linecap="round" stroke-linejoin="round"/>
<path d="M 374.5 299.0 L 377.0 309.3" stroke="#000" stroke-width="3.6" stroke-opacity="1" fill="none" stroke-linecap="round" stroke-linejoin="round"/>
<path d="M 364.3 301.2 L 344.9 222.0" stroke="#000" stroke-width="3.6" stroke-opacity="1" fill="none" stroke-linecap="round" stroke-linejoin="round"/>
<path d="M 355.4 220.4 L 374.5 299.0" stroke="#000" stroke-width="3.6" stroke-opacity="1" fill="none" stroke-linecap="round" stroke-linejoin="round"/>
<path d="M 415.0 449.7 L 422.1 448.2 L 463.6 438.6 L 487.3 437.8 L 511.0 436.9" stroke="#000" stroke-width="1.3" stroke-opacity="0.8" fill="none" stroke-linecap="round" stroke-linejoin="round"/>
<path d="M 1478.2 1116.8 L 1478.5 1067.9 L 1478.3 1063.2 L 1478.5 1057.0" stroke="#000" stroke-width="0.7" stroke-opacity="0.55" fill="none" stroke-linecap="round" stroke-linejoin="round"/>
<path d="M 1435.1 1185.7 L 1433.8 1184.1 L 1433.5 1182.5 L 1433.3 1176.0" stroke="#000" stroke-width="0.7" stroke-opacity="0.55" fill="none" stroke-linecap="round" stroke-linejoin="round"/>
<path d="M 1481.1 1139.8 L 1484.5 1145.8" stroke="#000" stroke-width="0.5" stroke-opacity="0.35" fill="none" stroke-linecap="round" stroke-linejoin="round"/>
<path d="M 1485.2 1145.2 L 1481.9 1139.5" stroke="#000" stroke-width="0.5" stroke-opacity="0.35" fill="none" stroke-linecap="round" stroke-linejoin="round"/>
<path d="M 539.5 1024.0 L 562.9 1011.1" stroke="#000" stroke-width="0.9" stroke-opacity="0.6" fill="none" stroke-linecap="round" stroke-linejoin="round"/>
<path d="M 544.1 1016.1 L 527.4 989.4 L 512.9 959.0 L 502.4 927.0 L 474.3 797.4" stroke="#000" stroke-width="3.6" stroke-opacity="1" fill="none" stroke-linecap="round" stroke-linejoin="round"/>
<path d="M 549.0 1024.1 L 544.1 1016.1" stroke="#000" stroke-width="3.6" stroke-opacity="1" fill="none" stroke-linecap="round" stroke-linejoin="round"/>
<path d="M 486.1 795.7 L 514.4 919.6 L 526.5 955.3 L 538.4 982.5 L 554.6 1010.3" stroke="#000" stroke-width="3.6" stroke-opacity="1" fill="none" stroke-linecap="round" stroke-linejoin="round"/>
<path d="M 554.6 1010.3 L 559.4 1018.4" stroke="#000" stroke-width="3.6" stroke-opacity="1" fill="none" stroke-linecap="round" stroke-linejoin="round"/>
<path d="M 875.0 1400.2 L 883.4 1429.9" stroke="#000" stroke-width="1.3" stroke-opacity="0.8" fill="none" stroke-linecap="round" stroke-linejoin="round"/>
<path d="M 1540.2 110.0 L 1534.4 113.3 L 1530.3 115.7 L 1526.3 118.0 L 1425.9 175.5 L 1419.5 185.6 L 1418.2 189.3 L 1417.8 191.9 L 1418.0 194.7 L 1418.9 196.9 L 1420.0 198.6 L 1421.5 199.6 L 1424.0 199.7" stroke="#000" stroke-width="0.7" stroke-opacity="0.55" fill="none" stroke-linecap="round" stroke-linejoin="round"/>
<path d="M 340.9 1009.4 L 367.9 1009.8" stroke="#000" stroke-width="1.3" stroke-opacity="0.8" fill="none" stroke-linecap="round" stroke-linejoin="round"/>
<path d="M 440.0 558.3 L 415.9 562.2" stroke="#000" stroke-width="0.9" stroke-opacity="0.6" fill="none" stroke-linecap="round" stroke-linejoin="round"/>
<path d="M 433.2 564.2 L 446.3 620.7 L 482.9 781.7" stroke="#000" stroke-width="3.6" stroke-opacity="1" fill="none" stroke-linecap="round" stroke-linejoin="round"/>
<path d="M 431.0 555.0 L 433.2 564.2" stroke="#000" stroke-width="3.6" stroke-opacity="1" fill="none" stroke-linecap="round" stroke-linejoin="round"/>
<path d="M 421.2 556.6 L 392.6 437.0 L 387.4 408.3 L 381.2 378.5 L 375.6 353.4 L 373.3 342.4" stroke="#000" stroke-width="3.6" stroke-opacity="1" fill="none" stroke-linecap="round" stroke-linejoin="round"/>
<path d="M 423.4 565.8 L 421.2 556.6" stroke="#000" stroke-width="3.6" stroke-opacity="1" fill="none" stroke-linecap="round" stroke-linejoin="round"/>
<path d="M 737.1 1368.6 L 748.7 1362.3 L 754.6 1359.1 L 758.8 1357.4" stroke="#000" stroke-width="1.3" stroke-opacity="0.8" fill="none" stroke-linecap="round" stroke-linejoin="round"/>
<path d="M 1173.4 427.0 L 1180.4 418.7" stroke="#000" stroke-width="1.3" stroke-opacity="0.8" fill="none" stroke-linecap="round" stroke-linejoin="round"/>
<path d="M 270.7 679.1 L 306.8 679.0 L 320.8 678.3 L 338.9 678.4" stroke="#000" stroke-width="1.3" stroke-opacity="0.8" fill="none" stroke-linecap="round" stroke-linejoin="round"/>
<path d="M 745.8 1100.6 L 743.5 1100.4 L 734.1 1093.8 L 730.6 1088.6 L 724.4 1079.7 L 718.0 1073.5 L 715.4 1070.2 L 716.3 1034.5 L 711.0 999.5" stroke="#000" stroke-width="1.3" stroke-opacity="0.8" fill="none" stroke-linecap="round" stroke-linejoin="round"/>
<path d="M 1571.2 763.6 L 1571.9 759.9 L 1571.3 757.1 L 1569.5 753.8 L 1558.7 740.9 L 1557.0 737.5 L 1556.9 734.6 L 1557.6 731.8 L 1559.3 730.6 L 1561.6 729.9 L 1565.2 730.4 L 1568.1 731.4 L 1570.0 732.8" stroke="#000" stroke-width="1.3" stroke-opacity="0.8" fill="none" stroke-linecap="round" stroke-linejoin="round"/>
<path d="M 980.9 9.5 L 990.4 31.7 L 1002.8 62.6" stroke="#000" stroke-width="0.7" stroke-opacity="0.55" fill="none" stroke-linecap="round" stroke-linejoin="round"/>
<path d="M 990.4 31.7 L 1015.3 21.4" stroke="#000" stroke-width="0.7" stroke-opacity="0.55" fill="none" stroke-linecap="round" stroke-linejoin="round"/>
<path d="M 818.6 16.6 L 823.6 20.5 L 826.5 26.0 L 836.3 54.6 L 847.6 84.9 L 855.7 106.4 L 863.6 126.8" stroke="#000" stroke-width="1.3" stroke-opacity="0.8" fill="none" stroke-linecap="round" stroke-linejoin="round"/>
<path d="M 818.6 16.6 L 818.8 11.4 L 817.8 3.1 L 792.9 -75.1" stroke="#000" stroke-width="1.3" stroke-opacity="0.8" fill="none" stroke-linecap="round" stroke-linejoin="round"/>
<path d="M 807.1 14.7 L 811.9 18.7 L 816.6 22.7" stroke="#000" stroke-width="1.3" stroke-opacity="0.8" fill="none" stroke-linecap="round" stroke-linejoin="round"/>
<path d="M 847.3 109.7 L 855.7 106.4" stroke="#000" stroke-width="1.3" stroke-opacity="0.8" fill="none" stroke-linecap="round" stroke-linejoin="round"/>
<path d="M 1445.9 1077.0 L 1444.9 1074.1 L 1443.9 1071.2" stroke="#000" stroke-width="0.7" stroke-opacity="0.55" fill="none" stroke-linecap="round" stroke-linejoin="round"/>
<path d="M 881.6 98.5 L 883.1 107.0 L 887.4 115.8" stroke="#000" stroke-width="1.3" stroke-opacity="0.8" fill="none" stroke-linecap="round" stroke-linejoin="round"/>
<path d="M 880.0 89.1 L 881.6 98.5" stroke="#000" stroke-width="0.9" stroke-opacity="0.6" fill="none" stroke-linecap="round" stroke-linejoin="round"/>
  
    <g stroke="#000" fill="none" stroke-width="2.9952">
      <circle cx="936" cy="702" r="16.848"/>
      <circle cx="936" cy="702" r="3.744" fill="#000" stroke="none"/>
    </g>
  <rect width="100%" height="100%" fill="url(#vignette)"/>
  
    <g transform="translate(1776, 116)" stroke="#000" stroke-width="2.2464" fill="#000">
      <line x1="0" y1="37.44" x2="0" y2="-37.44"/>
      <path d="M 0 -37.44 L 13.104 -13.104 L 0 -22.464 L -13.104 -13.104 Z"/>
      <text x="0" y="59.44" text-anchor="middle" font-family="Georgia, serif" font-size="22.464000000000002">N</text>
    </g>
  <rect x="66" y="66" width="1740" height="1272" fill="none" stroke="#000" stroke-width="2" stroke-opacity="0.7"/>
  <rect x="74" y="74" width="1724" height="1256" fill="none" stroke="#000" stroke-width="1" stroke-opacity="0.4"/>
  
</svg>