<svg xmlns="http://www.w3.org/2000/svg" xmlns:xlink="http://www.w3.org/1999/xlink" width="2340" height="1404" viewBox="0 0 2340 1404">
  <defs>
    <pattern id="hatch" patternUnits="userSpaceOnUse" width="9" height="9" patternTransform="rotate(45)">
      <line x1="0" y1="0" x2="0" y2="9" stroke="#000" stroke-width="0.9" stroke-opacity="0.4"/>
    </pattern>
    <g id="mapart">
      
      <path d="M 1459.7 1308.4 L 1473.9 1308.3 L 1522.2 1311.6 L 1521.7 1321.3 L 1504.6 1319.3 L 1473.2 1313.9 L 1459.7 1308.4 Z" fill="url(#hatch)" stroke="#000" stroke-width="0.8" stroke-opacity="0.5"/>
<path d="M 1372.3 1189.1 L 1417.2 1198.1 L 1414.6 1205.5 L 1409.1 1212.7 L 1404.4 1216.9 L 1399.9 1218.8 L 1394.3 1219.3 L 1388.7 1218.4 L 1381.9 1215.6 L 1378.3 1212.2 L 1375.3 1207.9 L 1373.2 1203.3 L 1372.2 1197.1 L 1372.1 1192.1 L 1372.3 1189.1 Z" fill="url(#hatch)" stroke="#000" stroke-width="0.8" stroke-opacity="0.5"/>
<path d="M 1375.0 1180.2 L 1418.7 1189.2 L 1419.4 1184.1 L 1418.4 1178.0 L 1416.6 1172.1 L 1411.2 1166.0 L 1403.3 1161.9 L 1398.7 1160.8 L 1390.5 1161.6 L 1386.1 1163.6 L 1382.2 1166.6 L 1379.8 1169.9 L 1376.4 1175.7 L 1375.0 1180.2 Z" fill="url(#hatch)" stroke="#000" stroke-width="0.8" stroke-opacity="0.5"/>
      <path d="M 815.0 1427.7 L 843.1 1446.6 L 881.2 1426.0 L 903.1 1429.9 L 929.3 1452.7 L 973.1 1431.2 L 986.7 1432.1 L 1013.9 1457.5 L 1041.5 1471.5 L 1061.2 1493.9 L 1102.8 1505.3 L 1112.0 1524.1 L 1142.6 1560.0 L 1157.5 1574.5 L 1177.2 1581.9 L 1197.4 1592.4 L 1199.6 1609.5 L 1207.9 1628.8 L 1239.9 1652.9 L 1260.0 1686.2 L 1293.3 1719.0 L 1329.2 1738.7 L 1359.9 1754.0 L 1396.7 1764.1 L 1400.2 1775.1 L 1413.3 1800.5 L 1421.6 1836.8 L 1430.4 1879.3 L 1425.6 1891.6 L 1412.4 1893.3 L 1411.6 1907.8 L 1431.3 1920.9 L 1420.8 1948.1 L 1438.3 1971.7 L 1450.5 1994.5 L 1453.6 2026.9 L 1443.5 2031.7 L 1440.5 2050.1 L 1426.5 2086.0 L 1460.2 2090.0 L 1458.0 2126.3 L 1476.0 2132.0 L 1472.5 2146.9 L 1484.3 2159.6 L 1495.7 2162.7 L 1521.9 2158.7 L 1531.1 2167.9 L 1532.5 2196.4 L 1546.9 2196.0 L 1553.9 2205.6 L 1554.3 2231.9 L 1571.4 2270.4 L 1587.6 2337.9 L 1588.5 2379.9 L 1599.5 2408.4 L 1599.0 2434.7 L 1588.1 2436.4 L 1589.8 2453.0 L 1596.4 2467.5 L 1594.6 2478.4 L 1581.9 2489.0 L 1582.4 2513.1 L 1596.0 2522.2 L 1607.4 2534.5 L 1613.9 2539.3 L 1615.7 2556.0 L 1624.9 2569.5 L 1631.0 2615.5 L 1656.4 2652.3 L 1693.6 2689.5 L 1696.7 2704.9 L 1694.5 2733.3 L 1681.8 2738.6 L 1680.9 2745.4 L 1677.9 2769.3 L 1674.8 2794.7 L 1700.6 2807.4 L 1726.9 2810.4 L 1734.4 2818.8 L 1738.3 2834.1 L 1758.5 2880.9 L 1771.2 2892.3 L 1785.2 2899.8 L 1800.5 2926.0 L 1833.8 2936.1 L 1836.0 2951.9 L 1843.7 2989.3 L 1872.5 3037.2 L 1900.8 3032.4 L 1937.0 3041.4 L 1970.7 3054.7 L 1992.1 3073.3" stroke="#6e6e6e" stroke-width="4.5" fill="none" stroke-linecap="round" stroke-linejoin="round" />
      
      <path d="M 1745.3 1089.8 L 1731.4 1082.7" stroke="#000" stroke-width="1.1" fill="none" stroke-linecap="round" stroke-linejoin="round" stroke-opacity="0.75"/>
<path d="M 2392.9 1291.3 L 2462.3 1290.0 L 2461.4 1251.4 L 2461.0 1195.4 L 2460.5 1189.5 L 2459.7 1184.6 L 2457.3 1174.0" stroke="#000" stroke-width="1.1" fill="none" stroke-linecap="round" stroke-linejoin="round" stroke-opacity="0.75"/>
<path d="M 1750.3 1097.4 L 1758.8 1082.1 L 1766.9 1066.7" stroke="#000" stroke-width="1.1" fill="none" stroke-linecap="round" stroke-linejoin="round" stroke-opacity="0.75"/>
<path d="M 1756.3 1065.9 L 1760.0 1065.8 L 1766.9 1066.7 L 1772.6 1068.3" stroke="#000" stroke-width="1.1" fill="none" stroke-linecap="round" stroke-linejoin="round" stroke-opacity="0.75"/>
<path d="M 1754.8 1105.0 L 1750.3 1097.4 L 1745.3 1089.8 L 1744.2 1086.1 L 1743.6 1083.2" stroke="#000" stroke-width="1.1" fill="none" stroke-linecap="round" stroke-linejoin="round" stroke-opacity="0.75"/>
<path d="M 1743.6 1083.2 L 1743.4 1080.9 L 1743.6 1077.8 L 1745.3 1074.3 L 1747.3 1071.7 L 1751.4 1068.4 L 1756.3 1065.9" stroke="#000" stroke-width="1.1" fill="none" stroke-linecap="round" stroke-linejoin="round" stroke-opacity="0.75"/>
      <path d="M 1709.0 1371.5 L 1709.6 1526.8" stroke="#000" stroke-width="0.8" fill="none" stroke-linecap="round" stroke-linejoin="round" stroke-opacity="0.5" stroke-dasharray="4 5"/>
<path d="M 1010.1 1138.8 L 1001.9 1224.7" stroke="#000" stroke-width="0.8" fill="none" stroke-linecap="round" stroke-linejoin="round" stroke-opacity="0.5" stroke-dasharray="4 5"/>
<path d="M 925.0 1073.5 L 940.6 1143.8" stroke="#000" stroke-width="0.8" fill="none" stroke-linecap="round" stroke-linejoin="round" stroke-opacity="0.5" stroke-dasharray="4 5"/>
<path d="M 1990.4 452.4 L 1985.7 538.6 L 1952.8 653.2" stroke="#000" stroke-width="0.8" fill="none" stroke-linecap="round" stroke-linejoin="round" stroke-opacity="0.5" stroke-dasharray="4 5"/>
<path d="M 2142.1 526.9 L 2020.7 560.9" stroke="#000" stroke-width="0.8" fill="none" stroke-linecap="round" stroke-linejoin="round" stroke-opacity="0.5" stroke-dasharray="4 5"/>
<path d="M 2049.0 193.2 L 1988.9 208.4" stroke="#000" stroke-width="0.8" fill="none" stroke-linecap="round" stroke-linejoin="round" stroke-opacity="0.5" stroke-dasharray="4 5"/>
<path d="M 2059.3 230.1 L 1969.1 254.2" stroke="#000" stroke-width="0.8" fill="none" stroke-linecap="round" stroke-linejoin="round" stroke-opacity="0.5" stroke-dasharray="4 5"/>
<path d="M 1948.4 301.9 L 1969.1 254.2 L 1988.9 208.4 L 2005.8 173.1 L 2016.2 159.3 L 2034.1 139.8 L 2059.0 131.7 L 2081.5 142.0 L 2102.9 155.1 L 2155.0 193.1" stroke="#000" stroke-width="0.8" fill="none" stroke-linecap="round" stroke-linejoin="round" stroke-opacity="0.5" stroke-dasharray="4 5"/>
<path d="M 2069.9 268.0 L 1948.4 301.9" stroke="#000" stroke-width="0.8" fill="none" stroke-linecap="round" stroke-linejoin="round" stroke-opacity="0.5" stroke-dasharray="4 5"/>
<path d="M 2178.7 276.5 L 2141.1 287.0 L 2104.6 297.2 L 2080.0 304.1 L 1958.4 338.0" stroke="#000" stroke-width="0.8" fill="none" stroke-linecap="round" stroke-linejoin="round" stroke-opacity="0.5" stroke-dasharray="4 5"/>
<path d="M 2090.4 341.5 L 1968.9 375.4" stroke="#000" stroke-width="0.8" fill="none" stroke-linecap="round" stroke-linejoin="round" stroke-opacity="0.5" stroke-dasharray="4 5"/>
<path d="M 2101.1 379.6 L 1979.5 413.5" stroke="#000" stroke-width="0.8" fill="none" stroke-linecap="round" stroke-linejoin="round" stroke-opacity="0.5" stroke-dasharray="4 5"/>
<path d="M 2111.9 418.5 L 1990.4 452.4" stroke="#000" stroke-width="0.8" fill="none" stroke-linecap="round" stroke-linejoin="round" stroke-opacity="0.5" stroke-dasharray="4 5"/>
<path d="M 2122.7 457.2 L 2001.2 491.1" stroke="#000" stroke-width="0.8" fill="none" stroke-linecap="round" stroke-linejoin="round" stroke-opacity="0.5" stroke-dasharray="4 5"/>
<path d="M 1948.4 301.9 L 1958.4 338.0 L 1968.9 375.4 L 1979.5 413.5 L 1990.4 452.4 L 2001.2 491.1 L 2012.2 530.5 L 2020.7 560.9 L 2023.0 573.9 L 2021.8 593.0" stroke="#000" stroke-width="0.8" fill="none" stroke-linecap="round" stroke-linejoin="round" stroke-opacity="0.5" stroke-dasharray="4 5"/>
<path d="M 2313.9 594.0 L 2283.2 498.8 L 2268.1 452.0" stroke="#000" stroke-width="0.8" fill="none" stroke-linecap="round" stroke-linejoin="round" stroke-opacity="0.5" stroke-dasharray="4 5"/>
<path d="M 2288.5 662.2 L 2253.8 540.4 L 2231.8 463.2 L 2178.7 276.5 L 2155.0 193.1" stroke="#000" stroke-width="0.8" fill="none" stroke-linecap="round" stroke-linejoin="round" stroke-opacity="0.5" stroke-dasharray="4 5"/>
<path d="M 2253.1 672.6 L 2226.1 579.5 L 2195.5 474.3 L 2141.1 287.0 L 2102.9 155.1" stroke="#000" stroke-width="0.8" fill="none" stroke-linecap="round" stroke-linejoin="round" stroke-opacity="0.5" stroke-dasharray="4 5"/>
<path d="M 2034.1 139.8 L 2049.0 193.2 L 2059.3 230.1 L 2069.9 268.0 L 2080.0 304.1 L 2090.4 341.5 L 2101.1 379.6 L 2111.9 418.5 L 2122.7 457.2 L 2132.8 493.5 L 2142.1 526.9 L 2153.0 565.5 L 2165.3 611.5" stroke="#000" stroke-width="0.8" fill="none" stroke-linecap="round" stroke-linejoin="round" stroke-opacity="0.5" stroke-dasharray="4 5"/>
<path d="M 2212.1 684.7 L 2253.1 672.6 L 2288.5 662.2 L 2290.0 661.7 L 2292.0 658.9 L 2313.9 594.0 L 2326.7 556.1 L 2328.4 538.8 L 2330.1 518.5 L 2328.7 499.3 L 2314.6 454.3 L 2309.9 439.2" stroke="#000" stroke-width="0.8" fill="none" stroke-linecap="round" stroke-linejoin="round" stroke-opacity="0.5" stroke-dasharray="4 5"/>
<path d="M 2070.1 590.4 L 2153.0 565.5" stroke="#000" stroke-width="0.8" fill="none" stroke-linecap="round" stroke-linejoin="round" stroke-opacity="0.5" stroke-dasharray="4 5"/>
<path d="M 2329.5 433.2 L 2314.6 454.3 L 2283.2 498.8 L 2253.8 540.4 L 2226.1 579.5 L 2212.1 684.7" stroke="#000" stroke-width="0.8" fill="none" stroke-linecap="round" stroke-linejoin="round" stroke-opacity="0.5" stroke-dasharray="4 5"/>
<path d="M 539.7 1243.3 L 558.5 1283.9" stroke="#000" stroke-width="0.8" fill="none" stroke-linecap="round" stroke-linejoin="round" stroke-opacity="0.5" stroke-dasharray="4 5"/>
<path d="M 971.1 1828.2 L 979.5 1851.7" stroke="#000" stroke-width="0.8" fill="none" stroke-linecap="round" stroke-linejoin="round" stroke-opacity="0.5" stroke-dasharray="4 5"/>
<path d="M 665.8 2383.6 L 682.3 2353.7 L 704.6 2303.4 L 711.9 2289.5 L 719.4 2276.2 L 725.5 2263.6 L 729.5 2254.9 L 733.7 2247.3 L 741.3 2236.8 L 748.8 2226.8 L 757.6 2214.5 L 761.0 2207.8 L 764.0 2200.6 L 773.3 2169.0 L 777.3 2149.9 L 777.6 2145.2 L 796.1 2125.3 L 809.3 2107.2 L 821.5 2095.8 L 828.3 2089.9 L 834.6 2085.3 L 841.5 2081.4 L 848.3 2078.7 L 855.2 2076.6 L 862.4 2075.5 L 869.5 2075.4 L 885.1 2077.7 L 887.3 2078.1 L 888.8 2078.4 L 890.4 2078.4 L 891.6 2078.0 L 892.5 2077.4 L 893.3 2076.4 L 893.9 2075.2 L 894.1 2073.5 L 892.2 2049.1 L 888.9 2025.2 L 887.6 2019.9 L 885.9 2013.8 L 882.7 2005.7 L 873.0 1985.0" stroke="#000" stroke-width="0.8" fill="none" stroke-linecap="round" stroke-linejoin="round" stroke-opacity="0.5" stroke-dasharray="4 5"/>
<path d="M 2189.4 691.4 L 2212.1 684.7" stroke="#000" stroke-width="0.8" fill="none" stroke-linecap="round" stroke-linejoin="round" stroke-opacity="0.5" stroke-dasharray="4 5"/>
<path d="M 1075.7 2057.7 L 1089.1 2080.4 L 1093.2 2102.9 L 1091.7 2132.5 L 1099.9 2160.6 L 1096.2 2185.7 L 1095.4 2214.1 L 1098.4 2231.1 L 1125.0 2265.5 L 1159.0 2343.0 L 1165.6 2355.6 L 1170.0 2375.9 L 1180.4 2406.6 L 1215.1 2441.7 L 1244.3 2470.1 L 1265.3 2491.5 L 1307.1 2499.6 L 1349.9 2509.2 L 1390.9 2527.0 L 1399.5 2531.6 L 1403.9 2534.0 L 1423.8 2535.5 L 1438.6 2547.3 L 1443.7 2565.0 L 1444.8 2595.3 L 1451.1 2611.6 L 1471.4 2634.5 L 1504.7 2655.1 L 1530.9 2660.3" stroke="#000" stroke-width="0.8" fill="none" stroke-linecap="round" stroke-linejoin="round" stroke-opacity="0.5" stroke-dasharray="4 5"/>
<path d="M 2156.7 486.2 L 2132.8 493.5 L 2012.2 530.5 L 1985.7 538.6" stroke="#000" stroke-width="0.8" fill="none" stroke-linecap="round" stroke-linejoin="round" stroke-opacity="0.5" stroke-dasharray="4 5"/>
<path d="M 904.6 172.8 L 892.2 160.3 L 855.6 145.2 L 842.8 132.6 L 826.7 33.1 L 831.3 7.4 L 820.4 -24.0 L 786.4 -95.2 L 693.6 -255.9 L 613.2 -347.1 L 546.0 -380.7 L 507.7 -421.3 L 501.5 -462.7 L 517.3 -508.3 L 504.6 -584.1 L 527.0 -601.9 L 637.2 -649.5 L 639.9 -667.3 L 622.5 -762.8 L 561.4 -824.6 L 518.1 -866.0 L 513.9 -904.7 L 551.8 -991.3 L 599.3 -1038.1 L 640.3 -1182.7 L 656.9 -1190.4 L 1013.8 -798.2 L 1128.5 -674.2 L 1144.9 -655.0 L 1163.2 -626.4 L 1194.1 -608.1 L 1234.8 -595.5 L 1274.6 -574.9 L 1310.2 -573.5 L 1320.0 -598.8 L 1357.0 -631.1 L 1395.9 -643.3 L 1453.0 -605.3 L 1490.0 -587.1 L 1519.5 -546.3 L 1548.9 -525.8 L 1691.3 -540.0" stroke="#000" stroke-width="0.8" fill="none" stroke-linecap="round" stroke-linejoin="round" stroke-opacity="0.5" stroke-dasharray="4 5"/>
      <path d="M 1516.7 1118.2 L 1519.5 1167.3 L 1521.8 1214.5 L 1522.5 1257.6 L 1525.6 1307.4 L 1525.4 1324.5 L 1526.0 1400.3" stroke="#000" stroke-width="2" fill="none" stroke-linecap="round" stroke-linejoin="round" />
<path d="M -1141.8 2677.5 L -1111.5 2652.0 L -1074.4 2619.8 L -1065.2 2613.6 L -1056.3 2608.8 L -1046.4 2603.7 L -968.9 2567.9 L -932.5 2558.2 L -910.3 2551.1 L -832.0 2528.8 L -821.6 2525.2 L -811.0 2520.8 L -801.7 2516.8 L -791.0 2511.0 L -678.7 2443.6 L -644.1 2420.2 L -634.5 2414.3 L -598.2 2393.0 L -562.6 2371.7 L -540.5 2358.3 L -525.2 2349.4 L -513.6 2341.0 L -502.4 2332.2 L -489.8 2320.4 L -474.3 2306.3 L -437.6 2270.9 L -402.6 2236.3 L -348.8 2182.9 L -250.9 2085.9 L -210.5 2046.0 L -157.4 1998.1 L -132.6 1983.1 L -83.1 1954.5 L -78.0 1951.7 L -59.3 1940.5 L -50.0 1934.6 L -40.5 1927.6 L -30.1 1919.2 L -20.1 1909.7 L -10.5 1899.9 L 79.9 1777.1 L 109.8 1738.4 L 161.9 1670.8 L 171.5 1660.4 L 197.7 1631.7" stroke="#000" stroke-width="2" fill="none" stroke-linecap="round" stroke-linejoin="round" />
<path d="M 632.1 1435.6 L 637.7 1431.8 L 645.1 1426.3 L 651.9 1421.0 L 695.5 1374.3 L 715.0 1351.2 L 780.2 1303.3 L 809.0 1283.6 L 912.9 1246.4 L 975.0 1223.9 L 1001.9 1224.7 L 1019.5 1227.3 L 1036.3 1232.8 L 1098.5 1258.3 L 1113.4 1267.0 L 1150.5 1288.6 L 1158.5 1293.6 L 1177.0 1305.1 L 1190.3 1311.6 L 1201.3 1315.5 L 1217.1 1321.4 L 1230.9 1321.5 L 1246.4 1319.9 L 1256.4 1318.5 L 1269.3 1316.8 L 1327.9 1307.6" stroke="#000" stroke-width="2" fill="none" stroke-linecap="round" stroke-linejoin="round" />
<path d="M 618.7 2090.3 L 611.0 2073.2 L 601.8 2052.7 L 595.7 2038.4 L 584.9 2008.4 L 576.2 1985.8 L 567.7 1963.6 L 563.8 1949.3 L 561.5 1937.8 L 559.8 1923.9 L 556.9 1884.2 L 554.7 1871.0 L 551.4 1851.9 L 541.5 1801.3 L 539.3 1793.5 L 528.5 1745.6 L 521.0 1722.6 L 513.8 1706.3 L 506.7 1693.8 L 495.8 1676.2 L 481.6 1663.4 L 460.2 1644.8 L 450.9 1635.8 L 441.5 1621.3 L 438.4 1615.1 L 436.2 1608.4 L 434.5 1603.1 L 432.7 1595.6 L 429.0 1561.5 L 421.5 1515.1 L 415.8 1491.0 L 409.1 1463.4 L 397.8 1426.6" stroke="#000" stroke-width="2" fill="none" stroke-linecap="round" stroke-linejoin="round" />
<path d="M 294.3 1453.0 L 312.1 1506.0 L 327.2 1548.7" stroke="#000" stroke-width="2" fill="none" stroke-linecap="round" stroke-linejoin="round" />
<path d="M 423.6 1716.0 L 460.5 1694.4 L 495.8 1676.2 L 563.1 1638.8 L 587.4 1625.5 L 628.5 1607.3 L 675.0 1589.0" stroke="#000" stroke-width="2" fill="none" stroke-linecap="round" stroke-linejoin="round" />
<path d="M 633.8 1480.9 L 645.5 1514.4 L 675.0 1589.0 L 691.0 1628.5" stroke="#000" stroke-width="2" fill="none" stroke-linecap="round" stroke-linejoin="round" />
<path d="M 573.8 1320.6 L 659.1 1286.2 L 758.7 1249.1" stroke="#000" stroke-width="2" fill="none" stroke-linecap="round" stroke-linejoin="round" />
<path d="M 397.8 1426.6 L 454.7 1406.7 L 585.8 1357.0" stroke="#000" stroke-width="2" fill="none" stroke-linecap="round" stroke-linejoin="round" />
<path d="M 472.0 1452.9 L 601.9 1400.1 L 689.6 1365.7" stroke="#000" stroke-width="2" fill="none" stroke-linecap="round" stroke-linejoin="round" />
<path d="M 571.9 1464.7 L 590.7 1513.4 L 628.5 1607.3 L 642.5 1649.3 L 651.9 1678.1 L 662.1 1708.0 L 672.1 1738.8 L 682.3 1768.3 L 691.8 1798.4 L 702.0 1827.9 L 712.5 1858.2 L 718.4 1877.1 L 728.6 1909.5" stroke="#000" stroke-width="2" fill="none" stroke-linecap="round" stroke-linejoin="round" />
<path d="M 563.1 1638.8 L 577.9 1677.0 L 589.6 1705.2 L 600.6 1734.9 L 611.7 1765.0 L 622.6 1793.7 L 634.6 1822.6 L 645.6 1852.7 L 656.6 1881.2 L 663.7 1900.1 L 674.9 1927.2 L 682.6 1950.4 L 690.6 1975.0" stroke="#000" stroke-width="2" fill="none" stroke-linecap="round" stroke-linejoin="round" />
<path d="M 368.1 1578.7 L 381.7 1575.0 L 391.1 1572.3 L 395.5 1571.1 L 429.0 1561.5 L 544.9 1526.7 L 590.7 1513.4 L 633.8 1480.9" stroke="#000" stroke-width="2" fill="none" stroke-linecap="round" stroke-linejoin="round" />
<path d="M 1340.0 1178.2 L 1369.8 1184.8 L 1420.9 1195.8 L 1455.0 1202.0 L 1496.0 1209.7 L 1521.8 1214.5 L 1633.4 1227.8 L 1688.5 1235.2 L 1704.5 1242.9 L 1713.4 1248.8 L 1755.3 1273.6 L 1793.2 1298.5 L 1837.8 1328.7" stroke="#000" stroke-width="2" fill="none" stroke-linecap="round" stroke-linejoin="round" />
<path d="M 633.1 1150.2 L 652.6 1167.4 L 656.2 1170.5 L 666.0 1180.2 L 678.5 1192.6 L 695.6 1206.4 L 728.7 1229.7 L 758.7 1249.1 L 762.7 1251.2 L 790.5 1270.9 L 809.0 1283.6" stroke="#000" stroke-width="2" fill="none" stroke-linecap="round" stroke-linejoin="round" />
<path d="M 689.6 1365.7 L 684.6 1351.5 L 673.5 1323.0 L 659.1 1286.2 L 647.5 1260.5 L 632.3 1222.3 L 609.5 1172.7" stroke="#000" stroke-width="2" fill="none" stroke-linecap="round" stroke-linejoin="round" />
<path d="M 743.2 1131.9 L 797.8 1111.2 L 855.8 1091.7" stroke="#000" stroke-width="2" fill="none" stroke-linecap="round" stroke-linejoin="round" />
<path d="M 1512.9 992.3 L 1518.4 934.3 L 1525.2 911.0 L 1531.2 904.1 L 1539.0 899.8 L 1548.6 895.7 L 1672.1 868.8 L 1680.0 865.9 L 1686.9 862.5 L 1711.1 847.9 L 1726.8 837.4 L 1752.0 817.2 L 1768.8 799.9 L 1782.2 788.0 L 1789.5 782.9 L 1811.1 771.9 L 1827.2 763.3 L 1839.3 756.1 L 1850.4 746.0 L 1880.6 720.6 L 1913.9 687.3 L 1935.7 666.9 L 1952.8 653.2" stroke="#000" stroke-width="2" fill="none" stroke-linecap="round" stroke-linejoin="round" />
<path d="M 1548.6 895.7 L 1677.1 917.5 L 1820.5 937.0 L 1972.2 959.6 L 2098.7 978.1 L 2222.7 994.8 L 2278.7 999.8" stroke="#000" stroke-width="2" fill="none" stroke-linecap="round" stroke-linejoin="round" />
<path d="M 1518.4 934.3 L 1671.1 955.4 L 1816.0 977.2 L 1966.0 999.1 L 2093.2 1017.8 L 2216.6 1032.5 L 2291.7 1040.5" stroke="#000" stroke-width="2" fill="none" stroke-linecap="round" stroke-linejoin="round" />
<path d="M 1683.0 876.7 L 1694.0 877.9 L 1826.9 897.3 L 1977.5 917.9 L 2103.4 938.6 L 2228.0 955.6" stroke="#000" stroke-width="2" fill="none" stroke-linecap="round" stroke-linejoin="round" />
<path d="M 1752.0 817.2 L 1836.1 832.6 L 1985.0 857.7 L 2111.4 876.2 L 2229.5 894.1 L 2238.0 895.6" stroke="#000" stroke-width="2" fill="none" stroke-linecap="round" stroke-linejoin="round" />
<path d="M 1789.5 782.9 L 1842.6 793.3 L 1989.7 819.8 L 2117.7 839.0 L 2233.9 856.1" stroke="#000" stroke-width="2" fill="none" stroke-linecap="round" stroke-linejoin="round" />
<path d="M 1839.3 756.1 L 1848.8 756.3 L 1995.2 780.8 L 2122.8 798.7 L 2221.0 814.0" stroke="#000" stroke-width="2" fill="none" stroke-linecap="round" stroke-linejoin="round" />
<path d="M 1880.6 720.6 L 2001.2 740.8 L 2128.2 760.2 L 2211.0 772.5" stroke="#000" stroke-width="2" fill="none" stroke-linecap="round" stroke-linejoin="round" />
<path d="M 1913.9 687.3 L 2006.5 704.6 L 2132.8 720.8 L 2201.1 729.8" stroke="#000" stroke-width="2" fill="none" stroke-linecap="round" stroke-linejoin="round" />
<path d="M 1952.8 653.2 L 2012.7 662.3 L 2138.1 681.6 L 2189.4 691.4" stroke="#000" stroke-width="2" fill="none" stroke-linecap="round" stroke-linejoin="round" />
<path d="M 2019.0 625.4 L 2144.8 643.2 L 2176.9 647.4" stroke="#000" stroke-width="2" fill="none" stroke-linecap="round" stroke-linejoin="round" />
<path d="M 2021.8 593.0 L 2019.0 625.4 L 2012.7 662.3 L 2006.5 704.6 L 2001.2 740.8 L 1995.2 780.8 L 1989.7 819.8 L 1985.0 857.7 L 1982.3 879.7 L 1980.4 897.0 L 1977.5 917.9 L 1972.2 959.6 L 1966.0 999.1 L 1960.4 1037.8 L 1957.8 1057.5" stroke="#000" stroke-width="2" fill="none" stroke-linecap="round" stroke-linejoin="round" />
<path d="M 2148.2 610.0 L 2144.8 643.2 L 2138.1 681.6 L 2132.8 720.8 L 2128.2 760.2 L 2122.8 798.7 L 2117.7 839.0 L 2111.4 876.2 L 2106.6 914.7 L 2103.4 938.6 L 2098.7 978.1 L 2093.2 1017.8 L 2085.2 1057.3 L 2081.7 1075.7" stroke="#000" stroke-width="2" fill="none" stroke-linecap="round" stroke-linejoin="round" />
<path d="M 2228.0 955.6 L 2222.7 994.8 L 2216.6 1032.5 L 2208.5 1085.5 L 2205.6 1104.5 L 2205.0 1135.2 L 2204.1 1148.4" stroke="#000" stroke-width="2" fill="none" stroke-linecap="round" stroke-linejoin="round" />
<path d="M 2300.3 1131.0 L 2307.3 1110.9 L 2308.6 1102.6 L 2307.2 1087.6 L 2303.1 1070.2 L 2291.7 1040.5 L 2278.7 999.8 L 2267.6 959.4 L 2260.2 933.1 L 2249.8 877.9" stroke="#000" stroke-width="2" fill="none" stroke-linecap="round" stroke-linejoin="round" />
<path d="M 1662.0 1014.5 L 1663.7 999.0 L 1671.1 955.4 L 1677.1 917.5 L 1683.0 876.7 L 1684.8 869.5 L 1686.9 862.5" stroke="#000" stroke-width="2" fill="none" stroke-linecap="round" stroke-linejoin="round" />
<path d="M 1808.3 1035.8 L 1810.4 1017.2 L 1816.0 977.2 L 1820.5 937.0 L 1826.9 897.3 L 1836.1 832.6 L 1842.6 793.3 L 1848.8 756.3 L 1850.4 746.0" stroke="#000" stroke-width="2" fill="none" stroke-linecap="round" stroke-linejoin="round" />
<path d="M 1449.4 983.6 L 1447.3 1005.6 L 1449.8 1051.2 L 1451.6 1108.3 L 1455.0 1202.0 L 1456.9 1235.4 L 1458.0 1253.6" stroke="#000" stroke-width="2" fill="none" stroke-linecap="round" stroke-linejoin="round" />
<path d="M 2270.7 1700.8 L 2249.3 1682.0 L 2239.0 1673.7 L 2225.1 1664.7 L 2184.0 1641.3 L 2160.0 1627.6 L 2146.4 1621.5 L 2127.1 1615.6 L 2063.5 1596.7 L 2056.8 1595.3 L 2049.0 1593.1 L 2039.6 1590.7 L 2032.7 1587.9 L 2010.1 1573.3 L 1996.3 1564.8 L 1988.4 1561.1 L 1984.6 1559.9 L 1979.3 1558.2 L 1936.4 1547.4 L 1884.4 1536.8 L 1859.2 1532.0 L 1845.3 1528.2 L 1838.7 1527.2 L 1831.2 1526.2 L 1806.4 1526.0" stroke="#000" stroke-width="2" fill="none" stroke-linecap="round" stroke-linejoin="round" />
<path d="M 966.6 974.0 L 944.6 972.5 L 925.6 972.8 L 913.4 973.2 L 910.7 973.5 L 897.9 976.2 L 890.4 978.4 L 873.5 982.7 L 853.2 988.4 L 830.0 996.2 L 814.9 1002.1" stroke="#000" stroke-width="2" fill="none" stroke-linecap="round" stroke-linejoin="round" />
<path d="M 1324.4 1528.2 L 1325.8 1473.7 L 1326.2 1453.5 L 1326.9 1409.4 L 1329.0 1372.6 L 1331.9 1362.1 L 1327.9 1307.6" stroke="#000" stroke-width="2" fill="none" stroke-linecap="round" stroke-linejoin="round" />
<path d="M 1749.3 1526.9 L 1749.1 1622.8" stroke="#000" stroke-width="2" fill="none" stroke-linecap="round" stroke-linejoin="round" />
<path d="M 1105.8 1139.3 L 1140.2 1047.6" stroke="#000" stroke-width="2" fill="none" stroke-linecap="round" stroke-linejoin="round" />
<path d="M 1713.4 1248.8 L 1670.3 1331.4" stroke="#000" stroke-width="2" fill="none" stroke-linecap="round" stroke-linejoin="round" />
<path d="M 1788.0 1526.3 L 1786.6 1621.6 L 1788.1 1657.8" stroke="#000" stroke-width="2" fill="none" stroke-linecap="round" stroke-linejoin="round" />
<path d="M 1093.9 1044.8 L 1101.2 1013.3 L 1106.2 992.5 L 1120.6 936.5" stroke="#000" stroke-width="2" fill="none" stroke-linecap="round" stroke-linejoin="round" />
<path d="M 760.2 1381.3 L 790.2 1421.3 L 799.6 1437.8 L 806.9 1448.1 L 815.6 1458.0 L 825.3 1469.9 L 844.7 1481.3 L 850.4 1485.0 L 855.7 1489.7 L 860.4 1494.7 L 876.7 1513.7 L 886.3 1524.2 L 895.0 1537.9 L 904.4 1560.5 L 908.7 1571.4 L 911.3 1582.1 L 912.6 1589.9 L 914.2 1600.8 L 919.4 1639.4 L 921.2 1664.7 L 921.0 1665.7 L 920.6 1666.4 L 920.1 1667.1 L 919.2 1667.8 L 911.4 1670.6" stroke="#000" stroke-width="2" fill="none" stroke-linecap="round" stroke-linejoin="round" />
<path d="M 1622.9 1323.4 L 1633.4 1227.8 L 1639.1 1178.9 L 1643.1 1145.1" stroke="#000" stroke-width="2" fill="none" stroke-linecap="round" stroke-linejoin="round" />
<path d="M 1577.7 1605.4 L 1577.6 1529.1 L 1577.5 1509.5 L 1578.1 1406.3" stroke="#000" stroke-width="2" fill="none" stroke-linecap="round" stroke-linejoin="round" />
<path d="M 1806.4 1526.0 L 1807.7 1500.6 L 1827.4 1357.1" stroke="#000" stroke-width="2" fill="none" stroke-linecap="round" stroke-linejoin="round" />
<path d="M 1260.6 956.3 L 1254.8 975.1 L 1223.4 1078.9 L 1203.4 1153.1 L 1183.7 1225.4 L 1176.0 1263.1" stroke="#000" stroke-width="2" fill="none" stroke-linecap="round" stroke-linejoin="round" />
<path d="M 1671.9 1525.7 L 1672.0 1422.8 L 1670.3 1331.4" stroke="#000" stroke-width="2" fill="none" stroke-linecap="round" stroke-linejoin="round" />
<path d="M 1623.8 1614.9 L 1624.2 1536.9 L 1624.3 1516.2 L 1624.4 1414.3 L 1624.3 1396.6 L 1622.9 1323.4" stroke="#000" stroke-width="2" fill="none" stroke-linecap="round" stroke-linejoin="round" />
<path d="M 1514.9 1058.3 L 1449.8 1051.2 L 1420.8 1047.6 L 1402.7 1045.4 L 1359.4 1039.7 L 1309.8 1034.2 L 1263.6 1029.4" stroke="#000" stroke-width="2" fill="none" stroke-linecap="round" stroke-linejoin="round" />
<path d="M 1709.6 1193.3 L 1737.6 1139.5 L 1754.8 1105.0 L 1758.5 1097.5 L 1772.6 1068.3 L 1778.5 1057.5" stroke="#000" stroke-width="2" fill="none" stroke-linecap="round" stroke-linejoin="round" />
<path d="M 1176.3 1060.1 L 1145.2 1142.4 L 1128.2 1181.8 L 1098.5 1258.3 L 1076.4 1310.2" stroke="#000" stroke-width="2" fill="none" stroke-linecap="round" stroke-linejoin="round" />
<path d="M 952.4 61.7 L 938.6 95.3 L 927.7 121.3 L 918.3 138.4 L 911.0 151.5 L 908.2 157.4 L 906.2 164.8 L 904.6 172.8 L 905.5 177.4 L 908.3 184.0 L 911.4 196.9 L 910.8 206.4 L 908.8 213.9 L 905.4 219.5 L 903.5 224.4 L 903.6 231.4 L 907.6 242.2 L 911.7 250.3 L 912.4 258.5 L 911.4 265.2 L 909.1 271.2 L 903.6 277.2 L 895.0 283.7 L 884.5 293.1 L 874.1 310.3 L 871.8 322.1 L 870.2 341.1 L 871.4 357.7 L 874.4 376.8 L 875.5 383.6 L 875.2 387.1 L 874.5 392.4 L 872.0 404.9 L 870.7 418.7 L 870.1 444.5 L 870.2 458.6 L 870.6 474.1 L 873.2 487.9 L 875.3 495.6 L 879.5 505.7 L 884.1 516.8 L 887.2 527.3 L 888.8 537.1 L 893.8 555.8 L 895.7 564.0 L 900.3 575.5 L 905.7 583.7 L 911.1 589.9 L 920.2 599.6 L 931.2 612.7 L 945.0 636.9 L 954.9 673.9 L 963.0 709.2 L 967.1 732.0 L 967.9 736.2 L 969.0 745.1 L 969.0 750.2 L 969.5 765.9 L 972.1 798.8 L 971.3 823.6 L 969.8 828.0 L 966.9 838.8 L 962.6 853.2 L 961.5 873.3 L 961.8 890.0 L 962.9 914.6" stroke="#000" stroke-width="2" fill="none" stroke-linecap="round" stroke-linejoin="round" />
<path d="M 1531.5 1598.2 L 1577.7 1605.4 L 1623.8 1614.9 L 1670.2 1621.8 L 1709.4 1622.6 L 1749.1 1622.8 L 1786.6 1621.6 L 1825.9 1622.2" stroke="#000" stroke-width="2" fill="none" stroke-linecap="round" stroke-linejoin="round" />
<path d="M 950.6 1067.5 L 967.6 1139.5 L 971.9 1191.8 L 975.0 1223.9 L 977.7 1283.0" stroke="#000" stroke-width="2" fill="none" stroke-linecap="round" stroke-linejoin="round" />
<path d="M 790.2 1421.3 L 827.3 1371.8 L 846.5 1357.0 L 868.9 1343.0 L 875.5 1339.8 L 882.3 1337.2 L 890.8 1334.7 L 929.0 1325.6 L 978.4 1315.7 L 998.9 1311.4 L 1005.1 1309.4 L 1009.8 1306.5 L 1013.9 1302.7" stroke="#000" stroke-width="2" fill="none" stroke-linecap="round" stroke-linejoin="round" />
<path d="M 2307.3 1110.9 L 2208.5 1085.5 L 2085.2 1057.3 L 1960.4 1037.8 L 1810.4 1017.2 L 1663.7 999.0 L 1611.9 994.3 L 1604.4 995.1 L 1582.1 1003.1" stroke="#000" stroke-width="2" fill="none" stroke-linecap="round" stroke-linejoin="round" />
<path d="M 1980.4 897.0 L 2106.6 914.7 L 2230.6 932.5" stroke="#000" stroke-width="2" fill="none" stroke-linecap="round" stroke-linejoin="round" />
<path d="M 1925.2 1070.8 L 1945.9 1074.8 L 2002.2 1090.6 L 2010.8 1093.5 L 2026.0 1100.1 L 2087.8 1128.1 L 2100.2 1133.3 L 2104.3 1134.7 L 2111.4 1136.7 L 2123.5 1139.1 L 2151.3 1142.7 L 2200.4 1148.1 L 2204.1 1148.4 L 2211.3 1148.0 L 2217.9 1145.9 L 2221.7 1144.0 L 2225.1 1142.7 L 2229.0 1141.6 L 2236.3 1140.1 L 2240.7 1139.8 L 2247.0 1139.9 L 2271.7 1142.9 L 2274.5 1142.7 L 2276.8 1142.0 L 2279.1 1140.3 L 2281.2 1137.9 L 2283.7 1133.0 L 2287.2 1126.9" stroke="#000" stroke-width="2" fill="none" stroke-linecap="round" stroke-linejoin="round" />
<path d="M 1826.2 1057.9 L 1797.9 1140.3 L 1787.8 1170.0 L 1784.5 1190.7 L 1781.9 1207.5 L 1778.9 1223.2 L 1775.5 1236.7" stroke="#000" stroke-width="2" fill="none" stroke-linecap="round" stroke-linejoin="round" />
<path d="M 1766.8 1346.5 L 1793.2 1298.5 L 1809.7 1266.8 L 1814.3 1257.4 L 1817.1 1250.1 L 1819.2 1243.9 L 1821.8 1235.6 L 1829.7 1211.8 L 1832.2 1204.0 L 1870.3 1065.8" stroke="#000" stroke-width="2" fill="none" stroke-linecap="round" stroke-linejoin="round" />
<path d="M 1601.5 1005.5 L 1602.6 1014.0 L 1606.7 1025.1 L 1613.6 1036.7 L 1623.1 1048.3 L 1649.7 1074.0 L 1737.6 1139.5 L 1787.8 1170.0 L 1832.2 1204.0" stroke="#000" stroke-width="2" fill="none" stroke-linecap="round" stroke-linejoin="round" />
<path d="M 1807.7 1500.6 L 1784.7 1500.0" stroke="#000" stroke-width="2" fill="none" stroke-linecap="round" stroke-linejoin="round" />
<path d="M 1470.2 1389.2 L 1454.4 1484.6" stroke="#000" stroke-width="2" fill="none" stroke-linecap="round" stroke-linejoin="round" />
<path d="M 1577.3 1391.3 L 1624.3 1396.6" stroke="#000" stroke-width="2" fill="none" stroke-linecap="round" stroke-linejoin="round" />
<path d="M 1291.8 1242.6 L 1331.0 1252.6 L 1392.5 1251.7 L 1414.7 1252.5 L 1458.0 1253.6 L 1522.5 1257.6" stroke="#000" stroke-width="2" fill="none" stroke-linecap="round" stroke-linejoin="round" />
<path d="M 1519.5 1167.3 L 1639.1 1178.9" stroke="#000" stroke-width="2" fill="none" stroke-linecap="round" stroke-linejoin="round" />
<path d="M 1392.5 1251.7 L 1392.6 1223.2" stroke="#000" stroke-width="2" fill="none" stroke-linecap="round" stroke-linejoin="round" />
<path d="M 1402.7 1045.4 L 1400.6 1101.9 L 1397.8 1158.2" stroke="#000" stroke-width="2" fill="none" stroke-linecap="round" stroke-linejoin="round" />
<path d="M 1369.8 1184.8 L 1369.2 1189.9 L 1369.4 1194.8 L 1370.0 1203.4 L 1372.2 1208.6 L 1375.1 1212.8 L 1377.7 1216.0 L 1381.8 1219.7 L 1386.3 1222.2 L 1392.6 1223.2 L 1397.2 1222.4 L 1403.0 1220.8 L 1407.7 1217.9 L 1413.0 1213.2 L 1416.1 1208.2 L 1419.2 1201.1 L 1420.9 1195.8" stroke="#000" stroke-width="2" fill="none" stroke-linecap="round" stroke-linejoin="round" />
<path d="M 1512.6 1014.0 L 1447.3 1005.6 L 1426.0 1002.1 L 1365.0 993.4 L 1278.5 979.6 L 1254.8 975.1" stroke="#000" stroke-width="2" fill="none" stroke-linecap="round" stroke-linejoin="round" />
<path d="M 1429.9 980.8 L 1426.0 1002.1 L 1420.8 1047.6" stroke="#000" stroke-width="2" fill="none" stroke-linecap="round" stroke-linejoin="round" />
<path d="M 1284.8 959.1 L 1278.5 979.6 L 1263.6 1029.4 L 1246.3 1081.9" stroke="#000" stroke-width="2" fill="none" stroke-linecap="round" stroke-linejoin="round" />
<path d="M 1287.4 1167.2 L 1287.9 1086.8" stroke="#000" stroke-width="2" fill="none" stroke-linecap="round" stroke-linejoin="round" />
<path d="M 1253.2 1161.4 L 1235.1 1240.7 L 1235.8 1273.8 L 1235.5 1276.1 L 1234.9 1277.8 L 1233.6 1279.4 L 1232.4 1280.6 L 1230.3 1281.9 L 1227.4 1282.6 L 1223.4 1282.8 L 1220.3 1282.3 L 1217.0 1281.2 L 1198.4 1273.5 L 1176.0 1263.1" stroke="#000" stroke-width="2" fill="none" stroke-linecap="round" stroke-linejoin="round" />
<path d="M 980.2 996.9 L 1101.2 1013.3" stroke="#000" stroke-width="2" fill="none" stroke-linecap="round" stroke-linejoin="round" />
<path d="M 1036.6 1053.3 L 1034.2 1034.9 L 1032.9 1032.7 L 1030.6 1032.1 L 994.9 1038.9" stroke="#000" stroke-width="2" fill="none" stroke-linecap="round" stroke-linejoin="round" />
<path d="M 1128.2 1181.8 L 1069.9 1180.5" stroke="#000" stroke-width="2" fill="none" stroke-linecap="round" stroke-linejoin="round" />
<path d="M 1275.7 1165.4 L 1254.4 1243.9" stroke="#000" stroke-width="2" fill="none" stroke-linecap="round" stroke-linejoin="round" />
<path d="M 1084.3 1351.5 L 1095.6 1319.1" stroke="#000" stroke-width="2" fill="none" stroke-linecap="round" stroke-linejoin="round" />
<path d="M 1090.5 1316.3 L 1113.4 1267.0" stroke="#000" stroke-width="2" fill="none" stroke-linecap="round" stroke-linejoin="round" />
<path d="M 1198.0 1354.9 L 1187.1 1385.0 L 1165.1 1425.1" stroke="#000" stroke-width="2" fill="none" stroke-linecap="round" stroke-linejoin="round" />
<path d="M 1126.0 1329.5 L 1150.5 1288.6" stroke="#000" stroke-width="2" fill="none" stroke-linecap="round" stroke-linejoin="round" />
<path d="M 1269.3 1316.8 L 1271.5 1340.9 L 1271.6 1369.2" stroke="#000" stroke-width="2" fill="none" stroke-linecap="round" stroke-linejoin="round" />
<path d="M 1217.1 1321.4 L 1209.4 1358.4" stroke="#000" stroke-width="2" fill="none" stroke-linecap="round" stroke-linejoin="round" />
<path d="M 1187.1 1385.0 L 1201.5 1390.4 L 1210.0 1392.7 L 1217.2 1394.3 L 1225.7 1395.0 L 1266.6 1397.6 L 1326.9 1409.4" stroke="#000" stroke-width="2" fill="none" stroke-linecap="round" stroke-linejoin="round" />
<path d="M 1325.8 1473.7 L 1401.2 1536.6 L 1487.0 1601.4 L 1515.5 1624.1 L 1532.8 1635.1" stroke="#000" stroke-width="2" fill="none" stroke-linecap="round" stroke-linejoin="round" />
<path d="M 1300.3 1449.2 L 1290.2 1516.3 L 1288.6 1525.9 L 1288.7 1527.0 L 1289.2 1528.2 L 1289.9 1529.4 L 1290.7 1530.2 L 1291.9 1530.9 L 1293.2 1531.3 L 1295.1 1531.6 L 1318.4 1532.5 L 1320.1 1532.3 L 1321.5 1531.7 L 1322.5 1531.0 L 1323.3 1530.1 L 1324.0 1529.3 L 1324.4 1528.2" stroke="#000" stroke-width="2" fill="none" stroke-linecap="round" stroke-linejoin="round" />
<path d="M 956.2 1024.8 L 940.0 1022.0 L 906.1 1032.0 L 892.8 1035.5 L 869.9 1042.1 L 841.6 1051.2 L 821.4 1057.4 L 793.3 1065.0 L 792.2 1065.0" stroke="#000" stroke-width="2" fill="none" stroke-linecap="round" stroke-linejoin="round" />
<path d="M 821.4 1057.4 L 803.4 1002.2" stroke="#000" stroke-width="2" fill="none" stroke-linecap="round" stroke-linejoin="round" />
<path d="M 855.8 1091.7 L 882.0 1155.9 L 903.4 1210.8 L 912.9 1246.4" stroke="#000" stroke-width="2" fill="none" stroke-linecap="round" stroke-linejoin="round" />
<path d="M 790.5 1270.9 L 801.4 1245.9 L 787.7 1217.1 L 769.7 1185.9" stroke="#000" stroke-width="2" fill="none" stroke-linecap="round" stroke-linejoin="round" />
<path d="M 801.4 1245.9 L 844.5 1227.3 L 870.5 1217.8 L 903.4 1210.8" stroke="#000" stroke-width="2" fill="none" stroke-linecap="round" stroke-linejoin="round" />
<path d="M 852.0 1163.9 L 870.5 1217.8" stroke="#000" stroke-width="2" fill="none" stroke-linecap="round" stroke-linejoin="round" />
<path d="M 769.7 1185.9 L 743.2 1131.9" stroke="#000" stroke-width="2" fill="none" stroke-linecap="round" stroke-linejoin="round" />
<path d="M 892.8 1035.5 L 906.5 1078.1" stroke="#000" stroke-width="2" fill="none" stroke-linecap="round" stroke-linejoin="round" />
<path d="M 853.2 988.4 L 869.9 1042.1" stroke="#000" stroke-width="2" fill="none" stroke-linecap="round" stroke-linejoin="round" />
<path d="M 906.1 1032.0 L 890.4 978.4" stroke="#000" stroke-width="2" fill="none" stroke-linecap="round" stroke-linejoin="round" />
<path d="M 925.6 972.8 L 940.0 1022.0" stroke="#000" stroke-width="2" fill="none" stroke-linecap="round" stroke-linejoin="round" />
<path d="M 564.7 1297.4 L 647.5 1260.5 L 728.7 1229.7" stroke="#000" stroke-width="2" fill="none" stroke-linecap="round" stroke-linejoin="round" />
<path d="M 503.0 1168.6 L 548.9 1217.8 L 557.4 1225.6" stroke="#000" stroke-width="2" fill="none" stroke-linecap="round" stroke-linejoin="round" />
<path d="M 602.1 1167.8 L 548.9 1217.8 L 481.0 1285.9 L 453.2 1313.8 L 422.1 1347.7" stroke="#000" stroke-width="2" fill="none" stroke-linecap="round" stroke-linejoin="round" />
<path d="M 560.4 1138.1 L 558.9 1137.5 L 557.3 1137.1 L 555.2 1137.1 L 553.3 1137.4 L 551.0 1138.4 L 543.3 1142.9 L 503.0 1168.6 L 477.7 1184.6 L 476.2 1185.9 L 475.2 1187.6 L 475.0 1189.3 L 481.0 1285.9 L 486.2 1298.6" stroke="#000" stroke-width="2" fill="none" stroke-linecap="round" stroke-linejoin="round" />
<path d="M 444.5 1353.6 L 443.5 1361.6 L 443.4 1364.5 L 443.1 1367.7 L 443.3 1370.6 L 454.7 1406.7 L 472.0 1452.9 L 487.1 1494.4" stroke="#000" stroke-width="2" fill="none" stroke-linecap="round" stroke-linejoin="round" />
<path d="M 458.7 1364.9 L 444.5 1353.6 L 444.2 1342.6" stroke="#000" stroke-width="2" fill="none" stroke-linecap="round" stroke-linejoin="round" />
<path d="M 558.5 1283.9 L 536.4 1287.5 L 514.1 1295.6 L 505.7 1301.2 L 497.0 1307.9" stroke="#000" stroke-width="2" fill="none" stroke-linecap="round" stroke-linejoin="round" />
<path d="M 527.6 1257.2 L 536.4 1287.5" stroke="#000" stroke-width="2" fill="none" stroke-linecap="round" stroke-linejoin="round" />
<path d="M 514.1 1295.6 L 503.1 1282.2" stroke="#000" stroke-width="2" fill="none" stroke-linecap="round" stroke-linejoin="round" />
<path d="M 691.0 1628.5 L 727.8 1612.9 L 764.0 1598.0 L 797.5 1583.3 L 832.4 1568.7 L 869.2 1553.0 L 878.2 1547.3 L 880.5 1545.3 L 882.1 1543.6 L 885.3 1537.8 L 895.0 1537.9" stroke="#000" stroke-width="2" fill="none" stroke-linecap="round" stroke-linejoin="round" />
<path d="M 528.5 1481.8 L 544.9 1526.7 L 554.2 1553.3 L 559.1 1562.4 L 565.6 1575.1 L 587.4 1625.5" stroke="#000" stroke-width="2" fill="none" stroke-linecap="round" stroke-linejoin="round" />
<path d="M 645.5 1514.4 L 681.3 1502.7" stroke="#000" stroke-width="2" fill="none" stroke-linecap="round" stroke-linejoin="round" />
<path d="M 681.3 1502.7 L 683.5 1502.4 L 684.8 1502.7 L 686.0 1503.4 L 686.9 1504.8 L 687.3 1505.5 L 693.5 1523.9 L 727.8 1612.9 L 772.2 1729.8 L 812.6 1834.6 L 827.7 1876.3" stroke="#000" stroke-width="2" fill="none" stroke-linecap="round" stroke-linejoin="round" />
<path d="M 722.2 1475.2 L 730.5 1508.9 L 764.0 1598.0 L 807.8 1714.7 L 847.1 1818.3 L 864.6 1864.2" stroke="#000" stroke-width="2" fill="none" stroke-linecap="round" stroke-linejoin="round" />
<path d="M 722.2 1475.2 L 746.9 1462.7" stroke="#000" stroke-width="2" fill="none" stroke-linecap="round" stroke-linejoin="round" />
<path d="M 825.3 1469.9 L 797.7 1488.5 L 798.4 1491.9" stroke="#000" stroke-width="2" fill="none" stroke-linecap="round" stroke-linejoin="round" />
<path d="M 768.7 1435.7 L 797.7 1488.5" stroke="#000" stroke-width="2" fill="none" stroke-linecap="round" stroke-linejoin="round" />
<path d="M 798.4 1491.9 L 799.4 1495.8 L 800.3 1499.0 L 806.2 1511.2 L 814.3 1524.8 L 832.4 1568.7 L 876.8 1685.3 L 917.0 1789.9 L 933.5 1839.9 L 942.0 1864.3 L 949.5 1888.2" stroke="#000" stroke-width="2" fill="none" stroke-linecap="round" stroke-linejoin="round" />
<path d="M 817.2 1504.1 L 806.2 1511.2" stroke="#000" stroke-width="2" fill="none" stroke-linecap="round" stroke-linejoin="round" />
<path d="M 817.2 1504.1 L 819.0 1503.7 L 820.9 1503.7 L 823.0 1503.9 L 824.9 1504.4 L 826.6 1505.2 L 828.8 1507.0 L 846.4 1521.5 L 854.3 1529.8 L 861.0 1539.0 L 869.2 1553.0" stroke="#000" stroke-width="2" fill="none" stroke-linecap="round" stroke-linejoin="round" />
<path d="M 933.5 1839.9 L 952.4 1834.0 L 971.1 1828.2 L 1006.0 1819.4 L 1007.3 1819.5 L 1008.5 1819.7 L 1009.3 1820.4 L 1009.8 1821.8 L 1011.8 1838.9 L 1011.7 1840.0 L 1011.4 1840.6 L 1010.9 1841.0 L 1010.4 1841.3" stroke="#000" stroke-width="2" fill="none" stroke-linecap="round" stroke-linejoin="round" />
<path d="M 618.8 1920.1 L 663.7 1900.1 L 718.4 1877.1 L 775.0 1851.6 L 812.6 1834.6 L 847.1 1818.3 L 880.7 1804.8 L 917.0 1789.9 L 930.2 1784.8 L 951.0 1776.3" stroke="#000" stroke-width="2" fill="none" stroke-linecap="round" stroke-linejoin="round" />
<path d="M 576.2 1985.8 L 682.6 1950.4 L 796.6 1910.9 L 942.0 1864.3 L 979.5 1851.7 L 1010.4 1841.3" stroke="#000" stroke-width="2" fill="none" stroke-linecap="round" stroke-linejoin="round" />
<path d="M 584.9 2008.4 L 690.6 1975.0 L 805.2 1934.5 L 949.5 1888.2" stroke="#000" stroke-width="2" fill="none" stroke-linecap="round" stroke-linejoin="round" />
<path d="M 736.2 1745.0 L 772.2 1729.8 L 807.8 1714.7 L 840.6 1700.7 L 876.8 1685.3 L 911.4 1670.6" stroke="#000" stroke-width="2" fill="none" stroke-linecap="round" stroke-linejoin="round" />
<path d="M 554.2 1553.3 L 540.2 1559.8 L 533.7 1563.0 L 525.1 1566.4 L 483.1 1580.7 L 460.5 1588.7" stroke="#000" stroke-width="2" fill="none" stroke-linecap="round" stroke-linejoin="round" />
<path d="M 385.5 1528.3 L 395.5 1571.1" stroke="#000" stroke-width="2" fill="none" stroke-linecap="round" stroke-linejoin="round" />
<path d="M 368.1 1578.7 L 366.0 1579.7 L 364.8 1580.8 L 363.9 1582.7 L 363.4 1584.8 L 363.7 1586.6 L 371.4 1606.4 L 385.4 1640.1 L 395.9 1663.2 L 403.3 1677.3 L 423.6 1716.0 L 431.2 1732.9 L 434.2 1740.5 L 436.7 1748.6 L 439.3 1759.2 L 443.4 1776.7 L 445.1 1790.4 L 446.1 1809.0" stroke="#000" stroke-width="2" fill="none" stroke-linecap="round" stroke-linejoin="round" />
<path d="M 395.9 1663.2 L 421.5 1648.9 L 450.9 1635.8 L 565.6 1575.1" stroke="#000" stroke-width="2" fill="none" stroke-linecap="round" stroke-linejoin="round" />
<path d="M 391.1 1572.3 L 394.8 1596.0 L 397.8 1609.2 L 398.9 1614.1 L 401.0 1619.2 L 404.3 1624.9 L 410.2 1633.4 L 421.5 1648.9 L 460.5 1694.4 L 471.9 1707.8 L 477.6 1716.7 L 483.1 1726.5 L 488.8 1739.6 L 491.7 1748.1 L 495.5 1760.3 L 499.3 1776.9 L 501.3 1798.5 L 499.1 1829.5 L 498.2 1838.2 L 496.9 1846.9 L 493.6 1857.8 L 482.8 1883.6 L 461.6 1932.1 L 457.7 1940.5 L 446.7 1964.1 L 434.3 1994.9 L 422.4 2027.4" stroke="#000" stroke-width="2" fill="none" stroke-linecap="round" stroke-linejoin="round" />
<path d="M 283.8 1510.2 L 284.5 1511.3 L 285.4 1511.9 L 286.5 1512.2 L 287.9 1512.4 L 289.2 1512.2 L 312.1 1506.0 L 333.7 1495.9" stroke="#000" stroke-width="2" fill="none" stroke-linecap="round" stroke-linejoin="round" />
<path d="M 283.8 1510.2 L 269.2 1468.2" stroke="#000" stroke-width="2" fill="none" stroke-linecap="round" stroke-linejoin="round" />
<path d="M 701.9 1656.5 L 651.9 1678.1 L 589.6 1705.2 L 547.3 1723.5" stroke="#000" stroke-width="2" fill="none" stroke-linecap="round" stroke-linejoin="round" />
<path d="M 713.2 1685.7 L 662.1 1708.0 L 600.6 1734.9 L 557.9 1753.6" stroke="#000" stroke-width="2" fill="none" stroke-linecap="round" stroke-linejoin="round" />
<path d="M 724.7 1715.4 L 672.1 1738.8 L 611.7 1765.0 L 563.2 1784.9 L 539.3 1793.5" stroke="#000" stroke-width="2" fill="none" stroke-linecap="round" stroke-linejoin="round" />
<path d="M 501.3 1798.5 L 541.5 1801.3" stroke="#000" stroke-width="2" fill="none" stroke-linecap="round" stroke-linejoin="round" />
<path d="M 747.0 1774.8 L 691.8 1798.4 L 634.6 1822.6 L 577.6 1847.9" stroke="#000" stroke-width="2" fill="none" stroke-linecap="round" stroke-linejoin="round" />
<path d="M 757.5 1803.4 L 702.0 1827.9 L 645.6 1852.7 L 625.6 1861.2 L 588.9 1876.7 L 582.9 1879.2 L 577.1 1881.1 L 571.1 1882.6 L 556.9 1884.2" stroke="#000" stroke-width="2" fill="none" stroke-linecap="round" stroke-linejoin="round" />
<path d="M 768.1 1832.7 L 712.5 1858.2 L 656.6 1881.2 L 590.0 1910.8" stroke="#000" stroke-width="2" fill="none" stroke-linecap="round" stroke-linejoin="round" />
<path d="M 144.6 1545.6 L 155.7 1563.5 L 197.7 1631.7" stroke="#000" stroke-width="2" fill="none" stroke-linecap="round" stroke-linejoin="round" />
<path d="M 181.8 1521.3 L 187.4 1536.4 L 191.8 1547.8 L 197.4 1560.2 L 204.2 1573.7 L 209.6 1582.5 L 228.1 1606.1" stroke="#000" stroke-width="2" fill="none" stroke-linecap="round" stroke-linejoin="round" />
<path d="M 601.8 2052.7 L 685.5 2023.8 L 744.1 2007.5 L 781.6 1995.1 L 825.3 1979.6 L 865.4 1966.9 L 909.2 1953.2 L 922.5 1947.8 L 960.5 1932.8 L 966.9 1951.9 L 873.0 1985.0 L 773.6 2020.0 L 750.7 2027.3 L 701.5 2043.2 L 664.6 2056.6 L 611.0 2073.2" stroke="#000" stroke-width="2" fill="none" stroke-linecap="round" stroke-linejoin="round" />
<path d="M 478.2 1828.3 L 478.1 1810.9 L 477.7 1809.9 L 476.8 1809.2 L 475.8 1808.8 L 474.2 1808.7 L 446.1 1809.0 L 429.2 1808.8 L 416.3 1806.0 L 409.4 1803.6 L 403.4 1800.7 L 400.5 1799.2 L 395.2 1796.3 L 391.9 1795.3 L 387.1 1794.8 L 365.0 1794.8 L 354.0 1794.9 L 323.0 1795.2 L 306.6 1794.7 L 299.3 1781.3" stroke="#000" stroke-width="2" fill="none" stroke-linecap="round" stroke-linejoin="round" />
<path d="M 429.2 1808.8 L 410.3 1865.6 L 396.1 1909.3 L 384.7 1942.2 L 383.5 1945.7 L 372.5 1980.4 L 350.8 2045.1" stroke="#000" stroke-width="2" fill="none" stroke-linecap="round" stroke-linejoin="round" />
<path d="M 482.8 1883.6 L 443.4 1874.0 L 431.6 1871.2 L 427.5 1870.1 L 421.9 1868.6 L 410.3 1865.6" stroke="#000" stroke-width="2" fill="none" stroke-linecap="round" stroke-linejoin="round" />
<path d="M 178.9 1895.8 L 206.9 1880.8 L 232.3 1867.0 L 251.1 1855.8 L 276.8 1841.3 L 354.0 1794.9" stroke="#000" stroke-width="2" fill="none" stroke-linecap="round" stroke-linejoin="round" />
<path d="M 2639.3 51.3 L 2631.2 51.3 L 2610.3 51.2 L 2593.5 54.0 L 2575.0 59.5 L 2568.5 69.8 L 2521.3 139.2 L 2463.2 267.8 L 2435.0 313.5 L 2336.0 427.7 L 2333.9 429.5 L 2329.5 433.2" stroke="#000" stroke-width="2" fill="none" stroke-linecap="round" stroke-linejoin="round" />
<path d="M 1447.6 1306.3 L 1427.8 1378.1 L 1395.0 1470.4" stroke="#000" stroke-width="2" fill="none" stroke-linecap="round" stroke-linejoin="round" />
<path d="M 1454.9 1307.3 L 1469.8 1306.1 L 1481.7 1305.6 L 1497.8 1306.1 L 1525.6 1307.4" stroke="#000" stroke-width="2" fill="none" stroke-linecap="round" stroke-linejoin="round" />
<path d="M 1827.4 1357.1 L 1910.9 1378.9 L 1926.5 1383.2 L 1945.2 1388.8 L 1962.7 1394.0 L 2013.4 1411.9 L 2038.4 1420.7 L 2066.1 1430.3 L 2076.8 1434.2 L 2087.3 1437.9 L 2097.1 1440.5 L 2106.3 1441.9 L 2117.7 1443.3 L 2138.0 1444.4 L 2186.6 1443.7 L 2221.3 1443.7 L 2308.9 1438.5 L 2362.1 1437.5 L 2441.1 1435.8 L 2469.5 1434.9 L 2482.0 1434.0 L 2492.9 1432.5 L 2541.6 1425.7 L 2591.1 1418.2 L 2642.9 1406.7 L 2671.8 1401.5 L 2702.7 1395.9 L 2760.2 1384.1 L 2772.8 1381.3 L 2880.8 1358.1 L 2941.3 1343.4 L 2981.7 1335.5 L 3013.4 1328.6 L 3033.2 1326.4 L 3048.9 1323.4 L 3063.7 1321.3 L 3078.8 1310.6" stroke="#000" stroke-width="2" fill="none" stroke-linecap="round" stroke-linejoin="round" />
<path d="M 530.5 2153.5 L 527.1 2093.3 L 525.3 2042.7 L 523.8 1988.8 L 521.6 1961.0 L 518.7 1911.7 L 519.0 1908.9 L 519.8 1905.8 L 521.4 1901.9 L 524.8 1897.6 L 554.7 1871.0" stroke="#000" stroke-width="2" fill="none" stroke-linecap="round" stroke-linejoin="round" />
<path d="M 2329.5 433.2 L 2309.9 439.2 L 2268.1 452.0 L 2231.8 463.2 L 2195.5 474.3 L 2156.7 486.2" stroke="#000" stroke-width="2" fill="none" stroke-linecap="round" stroke-linejoin="round" />
<path d="M 2339.9 1141.4 L 2329.7 1104.9 L 2312.6 1046.9 L 2263.5 866.9 L 2244.9 802.5 L 2212.1 684.7" stroke="#000" stroke-width="2" fill="none" stroke-linecap="round" stroke-linejoin="round" />
<path d="M 792.2 1065.0 L 791.2 1064.6 L 790.3 1063.2 L 768.5 1009.8" stroke="#000" stroke-width="2" fill="none" stroke-linecap="round" stroke-linejoin="round" />
<path d="M 1165.1 1425.1 L 1160.5 1422.9 L 1157.0 1420.2 L 1150.9 1415.2 L 1142.1 1407.0 L 1084.3 1351.5 L 1068.5 1337.2 L 1068.2 1336.6 L 1068.0 1336.0 L 1067.9 1335.3 L 1068.0 1334.6 L 1068.2 1333.8" stroke="#000" stroke-width="2" fill="none" stroke-linecap="round" stroke-linejoin="round" />
<path d="M 695.6 1206.4 L 769.7 1185.9 L 852.0 1163.9 L 882.0 1155.9 L 940.6 1143.8 L 967.6 1139.5 L 1010.1 1138.8 L 1026.5 1138.6 L 1050.9 1138.5 L 1105.8 1139.3 L 1145.2 1142.4" stroke="#000" stroke-width="2" fill="none" stroke-linecap="round" stroke-linejoin="round" />
<path d="M 1150.9 1001.1 L 1106.2 992.5 L 1018.9 980.5" stroke="#000" stroke-width="2" fill="none" stroke-linecap="round" stroke-linejoin="round" />
<path d="M 1778.5 1057.5 L 1784.9 1051.4 L 1793.2 1033.4" stroke="#000" stroke-width="2" fill="none" stroke-linecap="round" stroke-linejoin="round" />
<path d="M 788.5 991.3 L 795.4 995.1 L 799.9 998.0 L 803.4 1002.2" stroke="#000" stroke-width="2" fill="none" stroke-linecap="round" stroke-linejoin="round" />
<path d="M 823.4 959.9 L 798.2 877.5 L 794.4 859.9 L 793.0 848.9 L 793.7 842.9 L 795.7 838.8 L 800.6 834.2 L 808.3 829.2" stroke="#000" stroke-width="2" fill="none" stroke-linecap="round" stroke-linejoin="round" />
<path d="M 967.9 736.2 L 977.7 737.6 L 1016.9 736.6 L 1092.8 738.5 L 1161.9 740.1 L 1206.4 743.0 L 1224.2 745.0 L 1242.4 748.4 L 1264.3 754.6" stroke="#000" stroke-width="2" fill="none" stroke-linecap="round" stroke-linejoin="round" />
<path d="M 962.9 914.6 L 967.3 958.3 L 973.2 974.4 L 980.2 996.9 L 994.9 1038.9 L 1002.7 1059.8" stroke="#000" stroke-width="2" fill="none" stroke-linecap="round" stroke-linejoin="round" />
<path d="M 1272.0 957.5 L 1275.7 926.8 L 1277.2 909.0 L 1277.1 894.6 L 1276.3 874.7 L 1271.9 845.0 L 1266.5 817.6 L 1265.5 807.2 L 1264.9 798.4 L 1264.1 759.5 L 1264.3 754.6 L 1265.2 731.6 L 1266.7 642.5 L 1267.6 615.6 L 1269.4 597.2 L 1272.0 580.2 L 1278.0 546.7 L 1282.1 527.7 L 1285.4 517.6 L 1290.5 504.8 L 1293.4 497.4 L 1298.3 482.5 L 1301.2 471.4 L 1301.9 459.7 L 1301.4 447.2 L 1293.3 403.1 L 1285.4 359.7 L 1282.0 341.1 L 1282.4 328.4 L 1286.0 313.4 L 1290.3 305.9 L 1297.5 298.3 L 1304.1 291.6 L 1306.8 284.9 L 1309.9 276.1 L 1315.0 241.0 L 1320.6 206.1 L 1323.5 192.6 L 1326.6 182.9 L 1329.5 174.2 L 1334.8 156.7 L 1337.1 145.7 L 1340.7 127.7 L 1341.4 116.8 L 1339.7 107.9 L 1334.9 96.0 L 1325.6 78.9" stroke="#000" stroke-width="2" fill="none" stroke-linecap="round" stroke-linejoin="round" />
<path d="M 969.0 745.1 L 977.7 737.6" stroke="#000" stroke-width="2" fill="none" stroke-linecap="round" stroke-linejoin="round" />
<path d="M 1176.3 1060.1 L 1213.4 970.7 L 1215.7 966.3 L 1218.1 962.2 L 1221.0 956.7 L 1223.9 952.1" stroke="#000" stroke-width="2" fill="none" stroke-linecap="round" stroke-linejoin="round" />
<path d="M 1784.9 1051.4 L 1787.4 1049.6 L 1802.3 1040.5 L 1808.3 1035.8" stroke="#000" stroke-width="2" fill="none" stroke-linecap="round" stroke-linejoin="round" />
<path d="M 1759.0 1028.4 L 1778.4 1050.2" stroke="#000" stroke-width="2" fill="none" stroke-linecap="round" stroke-linejoin="round" />
<path d="M 1785.0 1032.1 L 1778.4 1050.2 L 1778.5 1057.5" stroke="#000" stroke-width="2" fill="none" stroke-linecap="round" stroke-linejoin="round" />
<path d="M 1202.5 949.4 L 1206.0 956.9 L 1207.4 962.8 L 1207.3 969.8 L 1204.8 976.8 L 1169.8 1057.6" stroke="#000" stroke-width="2" fill="none" stroke-linecap="round" stroke-linejoin="round" />
<path d="M 1512.4 1011.1 L 1521.2 993.6" stroke="#000" stroke-width="2" fill="none" stroke-linecap="round" stroke-linejoin="round" />
<path d="M 1503.8 991.0 L 1512.4 1011.1" stroke="#000" stroke-width="2" fill="none" stroke-linecap="round" stroke-linejoin="round" />
<path d="M -683.6 -566.6 L -667.0 -558.6 L -662.0 -554.3 L -657.7 -548.7 L -653.9 -533.1 L -658.0 -518.3 L -667.2 -506.0 L -683.9 -492.0 L -702.6 -473.1 L -715.8 -454.1 L -727.2 -423.1 L -731.7 -402.8 L -731.0 -381.6 L -728.8 -367.4 L -725.6 -319.8 L -723.2 -308.1 L -719.4 -300.0 L -707.6 -283.1 L -688.0 -256.2 L -675.5 -233.5 L -665.9 -205.9 L -661.2 -178.8 L -660.1 -167.4 L -656.3 -152.6 L -648.4 -131.8 L -648.0 -123.1 L -648.4 -104.8 L -653.0 -75.4 L -661.1 -56.9 L -671.7 -40.5 L -680.9 -32.1 L -700.2 -24.1 L -710.6 -21.0 L -717.6 -17.1 L -725.8 -6.7 L -731.1 12.4 L -730.6 33.0 L -729.4 60.8 L -725.4 86.8 L -717.4 105.5 L -703.0 127.0 L -684.9 151.7 L -674.6 162.2 L -658.0 176.9 L -643.3 185.8 L -622.3 192.3 L -588.8 195.8 L -551.2 205.7 L -528.9 220.4 L -501.5 238.5 L -488.2 251.3 L -476.2 268.1 L -429.5 327.5 L -413.6 343.6 L -397.7 360.5 L -390.4 373.6 L -384.5 384.1 L -375.3 410.0 L -373.0 435.6 L -379.4 481.6 L -382.3 496.1 L -387.7 514.1 L -402.0 536.3 L -420.5 567.4 L -428.6 599.8 L -429.8 609.7 L -429.1 631.4 L -418.3 669.4 L -414.1 687.7 L -411.7 702.6 L -407.7 714.7 L -398.8 727.9 L -375.5 757.7 L -353.8 775.4 L -320.3 808.7 L -304.6 833.4 L -283.2 871.9 L -267.7 900.8 L -257.1 926.4 L -243.2 971.9 L -233.5 1015.3 L -224.8 1037.7 L -211.2 1059.3 L -193.1 1087.2 L -171.7 1111.3 L -164.1 1120.3 L -158.3 1125.9 L -154.2 1128.8 L -150.3 1131.7 L -142.1 1136.0 L -118.2 1147.5 L -96.4 1157.4 L -54.5 1177.3 L -16.0 1200.2 L 10.4 1221.5 L 26.7 1237.4 L 34.4 1246.1 L 38.9 1252.0 L 43.3 1258.8 L 47.0 1265.6 L 49.3 1272.1 L 54.1 1285.9 L 56.0 1291.6 L 64.1 1311.4 L 67.9 1319.0 L 70.5 1323.9 L 73.4 1327.9 L 76.7 1331.6 L 79.6 1334.2 L 83.3 1336.8 L 104.1 1349.8 L 187.5 1401.2 L 244.1 1435.4 L 258.4 1444.4 L 270.4 1450.8 L 286.6 1457.5" stroke="#000" stroke-width="2" fill="none" stroke-linecap="round" stroke-linejoin="round" />
<path d="M 2238.0 895.6 L 2249.8 877.9 L 2252.0 874.4 L 2256.9 868.8 L 2261.6 866.9 L 2263.5 866.9 L 2266.7 867.0 L 2271.1 869.1 L 2287.2 885.6 L 2317.2 911.7 L 2344.0 930.7 L 2374.4 950.0 L 2387.7 959.3 L 2394.2 966.0 L 2403.9 978.7 L 2409.6 985.6 L 2433.1 1014.4 L 2438.3 1020.6 L 2451.6 1036.7 L 2464.4 1049.7 L 2475.3 1057.8 L 2491.1 1065.9 L 2525.7 1082.3 L 2619.6 1115.3 L 2625.2 1117.3" stroke="#000" stroke-width="2" fill="none" stroke-linecap="round" stroke-linejoin="round" />
<path d="M 2249.8 877.9 L 2233.9 856.1 L 2221.0 814.0 L 2213.9 787.4 L 2211.0 772.5 L 2201.1 729.8 L 2189.4 691.4 L 2176.9 647.4" stroke="#000" stroke-width="2" fill="none" stroke-linecap="round" stroke-linejoin="round" />
<path d="M 2016.2 159.3 L 1958.9 55.2 L 1953.9 39.0 L 1947.0 -1.6 L 1939.6 -56.6 L 1922.2 -148.7 L 1911.6 -200.6 L 1898.5 -249.6 L 1890.6 -310.1 L 1878.6 -368.0 L 1865.9 -404.7 L 1840.1 -449.5 L 1807.0 -480.9 L 1764.1 -507.5 L 1709.2 -531.2 L 1691.3 -540.0 L 1678.5 -546.3 L 1664.4 -554.1 L 1652.8 -570.3 L 1619.6 -625.9 L 1597.4 -660.1 L 1585.0 -670.0 L 1558.9 -688.2 L 1527.5 -715.9 L 1495.4 -752.2 L 1443.2 -833.0 L 1413.9 -903.6 L 1404.4 -937.3 L 1402.8 -972.2 L 1405.8 -1024.6 L 1410.2 -1052.8 L 1414.6 -1066.6 L 1416.4 -1081.4 L 1415.3 -1096.9 L 1409.3 -1112.6 L 1397.5 -1126.7 L 1383.7 -1136.6 L 1367.7 -1145.8 L 1358.5 -1153.4 L 1351.6 -1161.7 L 1345.8 -1181.4 L 1343.7 -1213.7 L 1340.0 -1237.2 L 1332.6 -1260.1 L 1324.5 -1281.1 L 1312.8 -1301.7 L 1300.5 -1313.4 L 1285.3 -1318.7 L 1253.7 -1326.4 L 1242.1 -1334.2 L 1235.9 -1342.7 L 1233.8 -1353.4 L 1239.6 -1371.4 L 1256.2 -1396.8 L 1282.3 -1433.5 L 1295.2 -1451.4 L 1298.7 -1453.7 L 1300.8 -1456.8 L 1303.4 -1462.6 L 1313.9 -1478.9 L 1320.0 -1485.1 L 1326.5 -1489.1 L 1330.6 -1491.2 L 1334.8 -1494.6 L 1342.1 -1501.2 L 1363.7 -1519.8 L 1403.5 -1554.2 L 1422.2 -1573.4 L 1428.9 -1582.3 L 1435.6 -1593.6 L 1449.4 -1630.3 L 1455.0 -1640.8 L 1460.9 -1649.0 L 1465.0 -1654.8 L 1467.8 -1661.2 L 1468.4 -1669.4 L 1465.8 -1692.4 L 1461.1 -1702.4 L 1446.9 -1723.0 L 1438.8 -1739.2 L 1430.1 -1760.6 L 1420.8 -1788.6 L 1414.8 -1818.1 L 1399.1 -1887.6 L 1391.7 -1922.7 L 1374.2 -2011.6 L 1360.8 -2093.3 L 1349.3 -2152.2 L 1347.4 -2179.2 L 1350.4 -2195.1 L 1358.0 -2209.0 L 1371.6 -2224.5 L 1406.0 -2247.8 L 1451.3 -2278.0 L 1474.8 -2292.1 L 1493.5 -2299.5 L 1511.5 -2302.3 L 1525.2 -2304.1 L 1547.8 -2309.4 L 1562.1 -2314.5 L 1575.0 -2320.5 L 1585.9 -2327.7 L 1610.4 -2348.2 L 1638.1 -2372.0 L 1659.5 -2391.2 L 1682.6 -2413.5 L 1698.8 -2438.0 L 1714.2 -2463.6 L 1735.7 -2499.4 L 1750.7 -2514.0 L 1758.1 -2520.4 L 1769.4 -2530.4 L 1796.2 -2549.8 L 1815.8 -2558.3 L 1831.5 -2561.5 L 1848.6 -2561.3 L 1867.1 -2557.6 L 1883.0 -2552.8 L 1892.2 -2546.1 L 1913.9 -2519.5 L 1931.9 -2497.1 L 1946.0 -2484.4 L 1965.2 -2470.8 L 1987.8 -2458.8 L 2010.0 -2449.8 L 2044.8 -2435.3 L 2075.3 -2423.0 L 2116.9 -2406.4 L 2145.9 -2394.4 L 2169.0 -2380.5 L 2192.4 -2362.8 L 2225.4 -2336.0 L 2241.1 -2318.4 L 2262.3 -2290.0 L 2275.9 -2275.7 L 2286.8 -2267.6 L 2299.5 -2261.4 L 2317.0 -2259.3 L 2350.5 -2262.8 L 2391.4 -2271.1 L 2422.1 -2273.4 L 2440.3 -2273.2 L 2469.4 -2272.0 L 2499.9 -2271.8 L 2536.3 -2270.9 L 2630.3 -2265.8 L 2647.5 -2264.6 L 2672.0 -2262.3 L 2696.1 -2260.1 L 2791.9 -2250.3 L 2848.6 -2243.0 L 2874.0 -2237.2 L 2892.3 -2232.0 L 2933.8 -2224.1 L 2951.8 -2224.1 L 2979.6 -2227.0 L 3000.7 -2233.8 L 3012.7 -2242.0 L 3016.5 -2250.1 L 3017.2 -2263.6 L 3018.3 -2287.6 L 3022.2 -2306.4 L 3030.6 -2327.2 L 3044.5 -2342.9 L 3071.5 -2364.7 L 3107.0 -2394.2 L 3156.5 -2446.7 L 3190.4 -2471.7 L 3198.4 -2475.8 L 3206.5 -2478.2 L 3236.5 -2479.5 L 3276.1 -2477.6 L 3344.9 -2479.7 L 3397.9 -2481.5 L 3430.9 -2478.4 L 3464.4 -2471.4 L 3484.8 -2464.1 L 3571.6 -2436.4 L 3609.8 -2422.3 L 3626.8 -2413.0 L 3639.2 -2403.4 L 3650.5 -2387.5 L 3663.3 -2364.0 L 3669.9 -2357.3 L 3672.5 -2355.9 L 3678.3 -2352.8 L 3691.2 -2350.6 L 3710.4 -2349.6 L 3747.5 -2349.8 L 3778.2 -2348.6 L 3815.2 -2347.7 L 3893.3 -2350.8 L 3984.9 -2353.3 L 4035.8 -2355.0 L 4064.3 -2359.1 L 4141.2 -2376.5 L 4223.6 -2397.5 L 4293.9 -2419.8" stroke="#000" stroke-width="2" fill="none" stroke-linecap="round" stroke-linejoin="round" />
<path d="M 2165.3 611.5 L 2189.8 605.0" stroke="#000" stroke-width="2" fill="none" stroke-linecap="round" stroke-linejoin="round" />
<path d="M 2463.2 267.8 L 2631.2 51.3" stroke="#000" stroke-width="2" fill="none" stroke-linecap="round" stroke-linejoin="round" />
<path d="M 1254.4 1243.9 L 1257.1 1262.8 L 1258.3 1273.3" stroke="#000" stroke-width="2" fill="none" stroke-linecap="round" stroke-linejoin="round" />
<path d="M 1331.9 1362.1 L 1391.0 1372.2 L 1427.8 1378.1 L 1470.2 1389.2 L 1505.9 1396.3 L 1526.0 1400.3" stroke="#000" stroke-width="2" fill="none" stroke-linecap="round" stroke-linejoin="round" />
<path d="M 632.3 1222.3 L 678.5 1192.6" stroke="#000" stroke-width="2" fill="none" stroke-linecap="round" stroke-linejoin="round" />
<path d="M 809.3 1345.7 L 780.2 1303.3 L 771.7 1283.4 L 762.7 1251.2" stroke="#000" stroke-width="2" fill="none" stroke-linecap="round" stroke-linejoin="round" />
<path d="M 846.5 1357.0 L 829.6 1354.4" stroke="#000" stroke-width="2" fill="none" stroke-linecap="round" stroke-linejoin="round" />
<path d="M 827.3 1371.8 L 829.6 1354.4 L 827.2 1332.7" stroke="#000" stroke-width="2" fill="none" stroke-linecap="round" stroke-linejoin="round" />
<path d="M 632.0 1121.0 L 632.8 1128.7 L 633.2 1137.1 L 633.0 1143.4 L 633.1 1150.2" stroke="#000" stroke-width="2" fill="none" stroke-linecap="round" stroke-linejoin="round" />
<path d="M 665.4 1117.2 L 656.7 1118.2 L 651.4 1118.4 L 646.9 1118.3 L 636.2 1115.6" stroke="#000" stroke-width="2" fill="none" stroke-linecap="round" stroke-linejoin="round" />
<path d="M 400.5 1799.2 L 401.1 1792.4 L 401.5 1787.6 L 402.2 1781.6 L 405.9 1749.8 L 403.8 1746.6 L 399.4 1744.8 L 395.4 1744.0 L 391.9 1743.4 L 388.6 1742.8 L 385.1 1742.0 L 381.2 1741.4 L 377.6 1740.8 L 374.4 1740.6 L 370.6 1741.0 L 356.3 1749.1 L 338.9 1758.9 L 316.1 1772.0 L 299.3 1781.3 L 280.1 1792.4" stroke="#000" stroke-width="2" fill="none" stroke-linecap="round" stroke-linejoin="round" />
<path d="M 1036.8 1937.3 L 1038.1 1940.4 L 1039.8 1944.2 L 1046.8 1968.2 L 1054.2 1989.4 L 1057.4 2006.6 L 1059.6 2020.0 L 1062.6 2033.7 L 1063.3 2036.4 L 1065.6 2040.9 L 1069.1 2047.5 L 1075.7 2057.7" stroke="#000" stroke-width="2" fill="none" stroke-linecap="round" stroke-linejoin="round" />
<path d="M 949.5 1888.2 L 960.5 1932.8" stroke="#000" stroke-width="2" fill="none" stroke-linecap="round" stroke-linejoin="round" />
<path d="M 683.3 1159.5 L 666.0 1180.2" stroke="#000" stroke-width="2" fill="none" stroke-linecap="round" stroke-linejoin="round" />
<path d="M 640.9 1142.3 L 652.6 1167.4" stroke="#000" stroke-width="2" fill="none" stroke-linecap="round" stroke-linejoin="round" />
<path d="M 869.2 1553.0 L 911.4 1670.6 L 926.0 1706.0 L 951.0 1776.3 L 963.5 1803.7 L 964.6 1808.3 L 965.2 1811.7 L 964.8 1815.3 L 963.3 1819.6 L 961.2 1823.2 L 952.4 1834.0" stroke="#000" stroke-width="2" fill="none" stroke-linecap="round" stroke-linejoin="round" />
<path d="M 806.2 1511.2 L 777.2 1526.9" stroke="#000" stroke-width="2" fill="none" stroke-linecap="round" stroke-linejoin="round" />
<path d="M 885.3 1537.8 L 886.3 1524.2" stroke="#000" stroke-width="2" fill="none" stroke-linecap="round" stroke-linejoin="round" />
<path d="M 898.0 1851.9 L 880.7 1804.8 L 840.6 1700.7 L 797.5 1583.3" stroke="#000" stroke-width="2" fill="none" stroke-linecap="round" stroke-linejoin="round" />
<path d="M 1176.0 1263.1 L 1158.5 1293.6" stroke="#000" stroke-width="2" fill="none" stroke-linecap="round" stroke-linejoin="round" />
<path d="M 874.3 1314.8 L 882.3 1337.2" stroke="#000" stroke-width="2" fill="none" stroke-linecap="round" stroke-linejoin="round" />
<path d="M 1709.6 1526.8 L 1709.4 1622.6" stroke="#000" stroke-width="2" fill="none" stroke-linecap="round" stroke-linejoin="round" />
<path d="M 1577.6 1529.1 L 1624.2 1536.9" stroke="#000" stroke-width="2" fill="none" stroke-linecap="round" stroke-linejoin="round" />
<path d="M 338.3 1336.8 L 321.5 1336.8 L 317.9 1337.1 L 314.9 1337.8 L 309.6 1339.5 L 307.6 1339.9 L 305.5 1340.0 L 302.7 1339.9 L 300.0 1339.3 L 296.3 1337.8 L 284.4 1330.1 L 280.3 1328.0 L 277.0 1326.4 L 272.8 1324.8 L 262.7 1322.0 L 259.5 1321.0 L 256.1 1319.7 L 250.0 1316.4 L 246.7 1314.1 L 244.0 1312.1 L 235.5 1304.9 L 227.1 1299.0 L 211.1 1289.1 L 193.6 1278.7" stroke="#000" stroke-width="2" fill="none" stroke-linecap="round" stroke-linejoin="round" />
<path d="M 54.1 1285.9 L 103.8 1291.8 L 121.1 1290.8 L 146.7 1289.2 L 164.9 1288.4 L 172.0 1287.3 L 187.0 1281.0 L 193.6 1278.7 L 200.9 1276.1 L 212.1 1273.2 L 222.1 1270.8 L 230.9 1269.1 L 236.0 1269.3 L 240.9 1270.3 L 248.6 1272.8 L 262.8 1278.9 L 269.5 1282.6 L 281.1 1290.4 L 307.6 1311.8 L 325.2 1325.5 L 338.3 1336.8 L 359.8 1346.5 L 374.1 1349.3 L 387.0 1351.7 L 398.3 1352.0 L 406.6 1351.0 L 422.1 1347.7 L 438.1 1348.2" stroke="#000" stroke-width="2" fill="none" stroke-linecap="round" stroke-linejoin="round" />
<path d="M 1701.0 2316.3 L 1710.9 2277.5 L 1712.0 2265.7 L 1713.7 2246.7 L 1715.9 2227.1 L 1716.7 2218.1 L 1716.5 2209.7 L 1714.6 2203.7 L 1712.6 2199.2 L 1709.8 2194.2 L 1691.0 2168.2 L 1683.2 2155.8 L 1677.5 2143.6 L 1665.8 2110.5 L 1648.4 2056.2 L 1636.7 2026.2 L 1633.6 2014.6 L 1632.6 2007.5 L 1631.2 1999.2 L 1629.3 1989.8 L 1625.0 1972.7 L 1621.5 1958.8 L 1608.4 1919.8 L 1594.1 1871.4 L 1590.5 1855.1 L 1589.0 1845.3 L 1588.8 1837.2 L 1590.1 1829.5 L 1592.1 1823.5 L 1595.5 1818.2 L 1601.1 1811.4 L 1615.3 1793.8 L 1620.8 1785.1 L 1621.8 1781.7 L 1622.2 1778.3 L 1622.0 1774.5 L 1621.0 1770.9 L 1617.7 1764.6 L 1589.2 1734.8 L 1582.0 1724.5 L 1576.9 1716.0 L 1572.3 1708.1 L 1565.4 1692.6 L 1550.0 1662.1 L 1532.8 1635.1" stroke="#000" stroke-width="2" fill="none" stroke-linecap="round" stroke-linejoin="round" />
<path d="M 2318.9 1635.2 L 2299.4 1623.8 L 2287.5 1615.4 L 2281.6 1609.8 L 2273.9 1599.3 L 2267.4 1589.0 L 2259.1 1574.8 L 2254.5 1567.9 L 2248.0 1561.5 L 2238.5 1554.1 L 2231.7 1547.7 L 2226.4 1541.7 L 2213.2 1524.2 L 2192.4 1500.3 L 2185.0 1491.4 L 2181.3 1486.4 L 2176.4 1477.5 L 2169.8 1468.2 L 2166.3 1465.1 L 2161.9 1462.1 L 2148.6 1453.8 L 2138.0 1444.4" stroke="#000" stroke-width="2" fill="none" stroke-linecap="round" stroke-linejoin="round" />
<path d="M 1621.8 1781.7 L 1636.8 1782.3 L 1639.6 1782.2 L 1642.8 1782.0 L 1646.0 1781.1 L 1649.8 1779.8 L 1667.3 1772.2 L 1676.4 1767.2 L 1681.0 1764.8 L 1686.2 1763.2 L 1696.1 1760.7 L 1723.5 1754.0 L 1728.6 1752.5 L 1733.1 1750.5 L 1737.3 1746.9 L 1741.1 1742.6 L 1753.1 1728.0 L 1772.3 1708.9 L 1787.7 1692.9 L 1796.1 1685.1 L 1801.6 1681.9 L 1805.2 1680.6 L 1810.5 1679.8 L 1815.9 1679.5 L 1822.0 1680.0 L 1829.4 1682.1 L 1842.9 1686.5 L 1850.9 1689.1" stroke="#000" stroke-width="2" fill="none" stroke-linecap="round" stroke-linejoin="round" />
<path d="M 1825.9 1622.2 L 1827.4 1622.5 L 1828.8 1623.1 L 1829.8 1623.9 L 1831.2 1625.2 L 1832.7 1626.8 L 1835.0 1629.7 L 1837.9 1633.4 L 1840.0 1638.4 L 1842.0 1646.6 L 1842.5 1652.4 L 1842.5 1660.4 L 1841.8 1672.8 L 1842.0 1676.4 L 1842.5 1678.8 L 1843.5 1680.7 L 1845.3 1683.1 L 1848.2 1685.9 L 1850.9 1689.1 L 1871.4 1707.5 L 1890.4 1720.1 L 1898.2 1722.5 L 1908.8 1724.6 L 1918.3 1725.1 L 1930.2 1725.5 L 1947.4 1725.8 L 1965.8 1726.9 L 1972.7 1728.0 L 1979.1 1730.6 L 1987.4 1734.6 L 2006.7 1743.9 L 2015.7 1746.5 L 2025.6 1748.7 L 2034.6 1749.3 L 2062.8 1750.9 L 2073.7 1751.8 L 2083.9 1753.2 L 2095.2 1756.2 L 2109.1 1761.8 L 2167.5 1786.7 L 2202.9 1801.3" stroke="#000" stroke-width="2" fill="none" stroke-linecap="round" stroke-linejoin="round" />
<path d="M 2013.4 1411.9 L 2003.6 1453.5 L 2000.5 1465.7 L 1998.7 1476.1 L 1996.8 1492.7 L 1992.0 1524.6 L 1984.6 1559.9" stroke="#000" stroke-width="2" fill="none" stroke-linecap="round" stroke-linejoin="round" />
<path d="M 1829.7 1211.8 L 1881.6 1248.4" stroke="#000" stroke-width="2" fill="none" stroke-linecap="round" stroke-linejoin="round" />
<path d="M 2211.3 1148.0 L 2205.1 1166.1 L 2197.1 1199.7 L 2192.6 1211.9 L 2183.5 1229.4 L 2169.1 1256.0 L 2162.3 1269.4 L 2158.1 1278.5 L 2156.0 1284.8 L 2154.8 1290.9 L 2152.3 1302.1 L 2149.1 1312.6 L 2145.0 1323.6 L 2137.7 1342.3 L 2131.2 1362.2 L 2129.3 1370.1 L 2129.3 1376.2 L 2129.6 1382.9 L 2130.9 1392.0 L 2132.1 1405.7 L 2134.4 1423.6 L 2138.0 1444.4" stroke="#000" stroke-width="2" fill="none" stroke-linecap="round" stroke-linejoin="round" />
<path d="M 1925.2 1070.8 L 1919.0 1052.1" stroke="#000" stroke-width="2" fill="none" stroke-linecap="round" stroke-linejoin="round" />
<path d="M 2420.8 1037.3 L 2438.3 1020.6" stroke="#000" stroke-width="2" fill="none" stroke-linecap="round" stroke-linejoin="round" />
<path d="M 2409.6 985.6 L 2420.8 1037.3 L 2430.6 1082.0 L 2444.0 1128.2 L 2457.3 1174.0" stroke="#000" stroke-width="2" fill="none" stroke-linecap="round" stroke-linejoin="round" />
<path d="M 1831.2 1526.2 L 1822.5 1588.3 L 1819.3 1606.2" stroke="#000" stroke-width="2" fill="none" stroke-linecap="round" stroke-linejoin="round" />
<path d="M 1454.9 1307.3 L 1462.8 1311.3 L 1471.4 1314.5 L 1478.4 1316.5 L 1525.4 1324.5" stroke="#000" stroke-width="2" fill="none" stroke-linecap="round" stroke-linejoin="round" />
<path d="M 1420.9 1195.8 L 1421.9 1189.9 L 1422.5 1184.1 L 1421.6 1176.0 L 1418.6 1169.9 L 1413.7 1164.8 L 1409.0 1161.7 L 1404.4 1159.8 L 1397.8 1158.2 L 1390.0 1160.3 L 1384.6 1162.8 L 1380.5 1165.9 L 1377.3 1169.7 L 1373.2 1177.1 L 1369.8 1184.8" stroke="#000" stroke-width="2" fill="none" stroke-linecap="round" stroke-linejoin="round" />
<path d="M 1273.6 1084.5 L 1253.2 1161.4" stroke="#000" stroke-width="2" fill="none" stroke-linecap="round" stroke-linejoin="round" />
<path d="M 1266.6 1397.6 L 1262.6 1443.1 L 1252.7 1534.6" stroke="#000" stroke-width="2" fill="none" stroke-linecap="round" stroke-linejoin="round" />
<path d="M 1026.5 1138.6 L 1030.5 1172.6 L 1030.7 1177.8 L 1030.4 1181.8 L 1030.0 1186.6 L 1028.7 1192.3 L 1019.5 1227.3" stroke="#000" stroke-width="2" fill="none" stroke-linecap="round" stroke-linejoin="round" />
<path d="M 1022.8 1287.5 L 1036.3 1232.8" stroke="#000" stroke-width="2" fill="none" stroke-linecap="round" stroke-linejoin="round" />
<path d="M 809.0 1283.6 L 832.5 1328.7" stroke="#000" stroke-width="2" fill="none" stroke-linecap="round" stroke-linejoin="round" />
<path d="M 743.2 1131.9 L 715.4 1065.9" stroke="#000" stroke-width="2" fill="none" stroke-linecap="round" stroke-linejoin="round" />
<path d="M 567.7 1963.6 L 674.9 1927.2 L 728.6 1909.5 L 788.8 1889.6 L 827.7 1876.3 L 864.6 1864.2 L 898.0 1851.9 L 933.5 1839.9" stroke="#000" stroke-width="2" fill="none" stroke-linecap="round" stroke-linejoin="round" />
<path d="M 736.2 1745.0 L 747.0 1774.8 L 757.5 1803.4 L 768.1 1832.7 L 775.0 1851.6 L 788.8 1889.6 L 796.6 1910.9 L 805.2 1934.5" stroke="#000" stroke-width="2" fill="none" stroke-linecap="round" stroke-linejoin="round" />
<path d="M 571.7 1815.5 L 622.6 1793.7 L 682.3 1768.3 L 736.2 1745.0" stroke="#000" stroke-width="2" fill="none" stroke-linecap="round" stroke-linejoin="round" />
<path d="M 691.0 1628.5 L 701.9 1656.5 L 713.2 1685.7 L 724.7 1715.4 L 736.2 1745.0" stroke="#000" stroke-width="2" fill="none" stroke-linecap="round" stroke-linejoin="round" />
<path d="M 534.9 1695.5 L 577.9 1677.0 L 642.5 1649.3 L 691.0 1628.5" stroke="#000" stroke-width="2" fill="none" stroke-linecap="round" stroke-linejoin="round" />
<path d="M 1076.4 1310.2 L 1090.5 1316.3 L 1095.6 1319.1 L 1126.0 1329.5 L 1198.0 1354.9 L 1209.4 1358.4 L 1223.7 1362.9 L 1232.4 1364.8 L 1243.0 1366.4 L 1271.6 1369.2" stroke="#000" stroke-width="2" fill="none" stroke-linecap="round" stroke-linejoin="round" />
<path d="M 1013.9 1302.7 L 1017.3 1298.2 L 1019.8 1293.7 L 1022.8 1287.5" stroke="#000" stroke-width="2" fill="none" stroke-linecap="round" stroke-linejoin="round" />
<path d="M 832.5 1328.7 L 874.3 1314.8 L 923.4 1298.1 L 945.1 1291.6 L 962.0 1287.2 L 977.7 1283.0" stroke="#000" stroke-width="2" fill="none" stroke-linecap="round" stroke-linejoin="round" />
<path d="M 1076.4 1310.2 L 1068.2 1333.8" stroke="#000" stroke-width="2" fill="none" stroke-linecap="round" stroke-linejoin="round" />
<path d="M 1022.8 1287.5 L 1076.4 1310.2" stroke="#000" stroke-width="2" fill="none" stroke-linecap="round" stroke-linejoin="round" />
<path d="M 1254.4 1243.9 L 1235.1 1240.7 L 1183.7 1225.4" stroke="#000" stroke-width="2" fill="none" stroke-linecap="round" stroke-linejoin="round" />
<path d="M 1643.1 1145.1 L 1709.6 1193.3" stroke="#000" stroke-width="2" fill="none" stroke-linecap="round" stroke-linejoin="round" />
<path d="M 1643.1 1145.1 L 1649.7 1074.0" stroke="#000" stroke-width="2" fill="none" stroke-linecap="round" stroke-linejoin="round" />
<path d="M 1516.7 1118.2 L 1620.2 1129.7 L 1626.2 1131.1 L 1631.0 1133.1 L 1634.7 1135.9 L 1643.1 1145.1" stroke="#000" stroke-width="2" fill="none" stroke-linecap="round" stroke-linejoin="round" />
<path d="M 1512.4 1011.1 L 1512.6 1014.0 L 1514.9 1058.3 L 1516.7 1118.2" stroke="#000" stroke-width="2" fill="none" stroke-linecap="round" stroke-linejoin="round" />
<path d="M 1638.3 1325.2 L 1660.2 1283.6 L 1688.5 1235.2 L 1709.6 1193.3" stroke="#000" stroke-width="2" fill="none" stroke-linecap="round" stroke-linejoin="round" />
<path d="M 1709.6 1193.3 L 1775.5 1236.7" stroke="#000" stroke-width="2" fill="none" stroke-linecap="round" stroke-linejoin="round" />
<path d="M 1145.2 1142.4 L 1170.9 1147.5 L 1203.4 1153.1 L 1253.2 1161.4 L 1275.7 1165.4 L 1287.4 1167.2 L 1340.0 1178.2" stroke="#000" stroke-width="2" fill="none" stroke-linecap="round" stroke-linejoin="round" />
<path d="M 1340.0 1178.2 L 1351.5 1095.7 L 1359.4 1039.7 L 1365.0 993.4 L 1368.5 971.9" stroke="#000" stroke-width="2" fill="none" stroke-linecap="round" stroke-linejoin="round" />
<path d="M 1271.6 1369.2 L 1266.6 1397.6" stroke="#000" stroke-width="2" fill="none" stroke-linecap="round" stroke-linejoin="round" />
<path d="M 1271.6 1369.2 L 1329.0 1372.6" stroke="#000" stroke-width="2" fill="none" stroke-linecap="round" stroke-linejoin="round" />
<path d="M 1327.9 1307.6 L 1366.5 1305.0 L 1402.7 1304.0 L 1447.6 1306.3 L 1454.9 1307.3" stroke="#000" stroke-width="2" fill="none" stroke-linecap="round" stroke-linejoin="round" />
<path d="M 1327.9 1307.6 L 1329.2 1275.3 L 1331.0 1252.6 L 1340.0 1178.2" stroke="#000" stroke-width="2" fill="none" stroke-linecap="round" stroke-linejoin="round" />
<path d="M 1526.0 1400.3 L 1527.2 1456.0 L 1528.1 1501.1 L 1531.5 1598.2 L 1532.4 1629.9 L 1532.8 1635.1" stroke="#000" stroke-width="2" fill="none" stroke-linecap="round" stroke-linejoin="round" />
<path d="M 1578.1 1406.3 L 1624.4 1414.3 L 1672.0 1422.8" stroke="#000" stroke-width="2" fill="none" stroke-linecap="round" stroke-linejoin="round" />
<path d="M 1578.1 1406.3 L 1577.3 1391.3 L 1578.2 1317.1" stroke="#000" stroke-width="2" fill="none" stroke-linecap="round" stroke-linejoin="round" />
<path d="M 1526.0 1400.3 L 1578.1 1406.3" stroke="#000" stroke-width="2" fill="none" stroke-linecap="round" stroke-linejoin="round" />
<path d="M 1528.1 1501.1 L 1454.4 1484.6 L 1395.0 1470.4 L 1326.2 1453.5 L 1300.3 1449.2 L 1262.6 1443.1 L 1206.9 1434.5 L 1165.1 1425.1" stroke="#000" stroke-width="2" fill="none" stroke-linecap="round" stroke-linejoin="round" />
<path d="M 1670.2 1621.8 L 1671.9 1525.7" stroke="#000" stroke-width="2" fill="none" stroke-linecap="round" stroke-linejoin="round" />
<path d="M 1671.9 1525.7 L 1657.7 1523.1 L 1624.3 1516.2 L 1577.5 1509.5 L 1550.1 1505.5 L 1528.1 1501.1" stroke="#000" stroke-width="2" fill="none" stroke-linecap="round" stroke-linejoin="round" />
<path d="M 1806.4 1526.0 L 1788.0 1526.3 L 1749.3 1526.9 L 1709.6 1526.8 L 1671.9 1525.7" stroke="#000" stroke-width="2" fill="none" stroke-linecap="round" stroke-linejoin="round" />
<path d="M 1827.4 1357.1 L 1837.8 1328.7 L 1855.3 1292.0" stroke="#000" stroke-width="2" fill="none" stroke-linecap="round" stroke-linejoin="round" />
<path d="M 1525.6 1307.4 L 1578.2 1317.1 L 1622.9 1323.4 L 1638.3 1325.2 L 1649.0 1327.6 L 1670.3 1331.4 L 1719.0 1337.8 L 1751.2 1343.4 L 1766.8 1346.5 L 1827.4 1357.1" stroke="#000" stroke-width="2" fill="none" stroke-linecap="round" stroke-linejoin="round" />
<path d="M 1775.5 1236.7 L 1755.3 1273.6 L 1719.0 1337.8" stroke="#000" stroke-width="2" fill="none" stroke-linecap="round" stroke-linejoin="round" />
<path d="M 1870.3 1065.8 L 1876.6 1046.3" stroke="#000" stroke-width="2" fill="none" stroke-linecap="round" stroke-linejoin="round" />
<path d="M 1787.4 1049.6 L 1826.2 1057.9 L 1870.3 1065.8" stroke="#000" stroke-width="2" fill="none" stroke-linecap="round" stroke-linejoin="round" />
<path d="M 2228.0 955.6 L 2267.6 959.4" stroke="#000" stroke-width="2" fill="none" stroke-linecap="round" stroke-linejoin="round" />
<path d="M 2238.0 895.6 L 2233.9 912.3 L 2230.6 932.5" stroke="#000" stroke-width="2" fill="none" stroke-linecap="round" stroke-linejoin="round" />
<path d="M 2230.6 932.5 L 2260.2 933.1" stroke="#000" stroke-width="2" fill="none" stroke-linecap="round" stroke-linejoin="round" />
<path d="M 2230.6 932.5 L 2228.0 955.6" stroke="#000" stroke-width="2" fill="none" stroke-linecap="round" stroke-linejoin="round" />
<path d="M 2176.9 647.4 L 2165.3 611.5" stroke="#000" stroke-width="2" fill="none" stroke-linecap="round" stroke-linejoin="round" />
<path d="M 1952.8 653.2 L 1975.4 629.0 L 1987.5 613.7 L 1995.7 603.9 L 2001.3 599.6 L 2008.7 596.1 L 2021.8 593.0 L 2054.2 597.4 L 2148.2 610.0 L 2165.3 611.5" stroke="#000" stroke-width="2" fill="none" stroke-linecap="round" stroke-linejoin="round" />
<path d="M 1176.3 1060.1 L 1223.4 1078.9 L 1246.3 1081.9 L 1273.6 1084.5 L 1287.9 1086.8 L 1351.5 1095.7 L 1362.4 1096.9 L 1400.6 1101.9 L 1442.4 1107.4 L 1451.6 1108.3 L 1516.7 1118.2" stroke="#000" stroke-width="2" fill="none" stroke-linecap="round" stroke-linejoin="round" />
<path d="M 1140.2 1047.6 L 1154.4 1010.5 L 1155.0 1006.4 L 1154.4 1003.0 L 1150.9 1001.1" stroke="#000" stroke-width="2" fill="none" stroke-linecap="round" stroke-linejoin="round" />
<path d="M 1002.7 1059.8 L 1036.6 1053.3 L 1093.9 1044.8" stroke="#000" stroke-width="2" fill="none" stroke-linecap="round" stroke-linejoin="round" />
<path d="M 1002.7 1059.8 L 1026.5 1138.6" stroke="#000" stroke-width="2" fill="none" stroke-linecap="round" stroke-linejoin="round" />
<path d="M 1050.9 1138.5 L 1093.9 1044.8" stroke="#000" stroke-width="2" fill="none" stroke-linecap="round" stroke-linejoin="round" />
<path d="M 1093.9 1044.8 L 1110.3 1045.1 L 1124.0 1045.9 L 1140.2 1047.6" stroke="#000" stroke-width="2" fill="none" stroke-linecap="round" stroke-linejoin="round" />
<path d="M 1140.2 1047.6 L 1169.8 1057.6 L 1176.3 1060.1" stroke="#000" stroke-width="2" fill="none" stroke-linecap="round" stroke-linejoin="round" />
<path d="M 950.6 1067.5 L 1002.7 1059.8" stroke="#000" stroke-width="2" fill="none" stroke-linecap="round" stroke-linejoin="round" />
<path d="M 966.6 974.0 L 960.0 1006.2 L 956.2 1024.8 L 951.5 1043.9 L 949.7 1053.9 L 948.7 1062.1 L 950.6 1067.5" stroke="#000" stroke-width="2" fill="none" stroke-linecap="round" stroke-linejoin="round" />
<path d="M 855.8 1091.7 L 906.5 1078.1 L 925.0 1073.5 L 932.5 1071.1 L 950.6 1067.5" stroke="#000" stroke-width="2" fill="none" stroke-linecap="round" stroke-linejoin="round" />
<path d="M 841.6 1051.2 L 855.8 1091.7" stroke="#000" stroke-width="2" fill="none" stroke-linecap="round" stroke-linejoin="round" />
<path d="M 656.2 1170.5 L 683.3 1159.5 L 743.2 1131.9" stroke="#000" stroke-width="2" fill="none" stroke-linecap="round" stroke-linejoin="round" />
<path d="M 609.5 1172.7 L 602.1 1167.8 L 581.6 1153.9 L 560.4 1138.1" stroke="#000" stroke-width="2" fill="none" stroke-linecap="round" stroke-linejoin="round" />
<path d="M 558.5 1283.9 L 564.7 1297.4 L 573.8 1320.6" stroke="#000" stroke-width="2" fill="none" stroke-linecap="round" stroke-linejoin="round" />
<path d="M 443.3 1370.6 L 458.7 1364.9 L 573.8 1320.6" stroke="#000" stroke-width="2" fill="none" stroke-linecap="round" stroke-linejoin="round" />
<path d="M 573.8 1320.6 L 585.8 1357.0" stroke="#000" stroke-width="2" fill="none" stroke-linecap="round" stroke-linejoin="round" />
<path d="M 585.8 1357.0 L 673.5 1323.0 L 771.7 1283.4" stroke="#000" stroke-width="2" fill="none" stroke-linecap="round" stroke-linejoin="round" />
<path d="M 585.8 1357.0 L 601.9 1400.1 L 619.4 1443.0 L 633.8 1480.9" stroke="#000" stroke-width="2" fill="none" stroke-linecap="round" stroke-linejoin="round" />
<path d="M 633.8 1480.9 L 658.9 1462.1 L 691.1 1437.5 L 719.4 1412.6 L 760.2 1381.3 L 809.3 1345.7 L 827.2 1332.7 L 832.5 1328.7" stroke="#000" stroke-width="2" fill="none" stroke-linecap="round" stroke-linejoin="round" />
<path d="M 197.7 1631.7 L 228.1 1606.1 L 250.8 1587.4 L 266.1 1576.6 L 277.5 1569.4 L 291.1 1562.7 L 327.2 1548.7 L 344.7 1542.6 L 385.5 1528.3 L 421.5 1515.1 L 487.1 1494.4 L 528.5 1481.8 L 571.9 1464.7 L 619.4 1443.0 L 632.1 1435.6" stroke="#000" stroke-width="2" fill="none" stroke-linecap="round" stroke-linejoin="round" />
<path d="M 689.6 1365.7 L 715.0 1351.2" stroke="#000" stroke-width="2" fill="none" stroke-linecap="round" stroke-linejoin="round" />
<path d="M 777.2 1526.9 L 746.9 1462.7 L 745.7 1459.5 L 719.4 1412.6 L 695.5 1374.3 L 689.6 1365.7" stroke="#000" stroke-width="2" fill="none" stroke-linecap="round" stroke-linejoin="round" />
<path d="M 1018.9 980.5 L 995.1 977.3 L 973.2 974.4 L 966.6 974.0" stroke="#000" stroke-width="2" fill="none" stroke-linecap="round" stroke-linejoin="round" />
<path d="M 967.3 958.3 L 967.1 970.6 L 966.6 974.0" stroke="#000" stroke-width="2" fill="none" stroke-linecap="round" stroke-linejoin="round" />
<path d="M 1870.3 1065.8 L 1925.2 1070.8" stroke="#000" stroke-width="2" fill="none" stroke-linecap="round" stroke-linejoin="round" />
<path d="M 977.7 1283.0 L 978.4 1315.7" stroke="#000" stroke-width="2" fill="none" stroke-linecap="round" stroke-linejoin="round" />
<path d="M 977.7 1283.0 L 1004.4 1285.6 L 1022.8 1287.5" stroke="#000" stroke-width="2" fill="none" stroke-linecap="round" stroke-linejoin="round" />
<path d="M 2156.7 486.2 L 2104.6 297.2 L 2059.0 131.7" stroke="#000" stroke-width="2" fill="none" stroke-linecap="round" stroke-linejoin="round" />
<path d="M 2212.1 684.7 L 2189.8 605.0" stroke="#000" stroke-width="2" fill="none" stroke-linecap="round" stroke-linejoin="round" />
<path d="M 966.9 1951.9 L 1021.0 1934.7 L 1026.9 1933.0 L 1030.3 1933.2 L 1033.7 1934.4 L 1036.8 1937.3" stroke="#000" stroke-width="2" fill="none" stroke-linecap="round" stroke-linejoin="round" />
<path d="M 1010.4 1841.3 L 1020.7 1872.0 L 1023.5 1881.4 L 1036.1 1923.8 L 1036.8 1937.3" stroke="#000" stroke-width="2" fill="none" stroke-linecap="round" stroke-linejoin="round" />
<path d="M 920.6 1666.4 L 956.3 1736.8 L 1005.0 1791.2 L 1006.0 1797.5 L 1009.3 1820.4" stroke="#000" stroke-width="2" fill="none" stroke-linecap="round" stroke-linejoin="round" />
<path d="M 777.2 1526.9 L 797.5 1583.3" stroke="#000" stroke-width="2" fill="none" stroke-linecap="round" stroke-linejoin="round" />
<path d="M 691.1 1437.5 L 708.2 1457.0 L 717.2 1468.1 L 722.2 1475.2" stroke="#000" stroke-width="2" fill="none" stroke-linecap="round" stroke-linejoin="round" />
<path d="M 1006.0 1797.5 L 1052.3 1819.9 L 1120.6 1834.8" stroke="#000" stroke-width="2" fill="none" stroke-linecap="round" stroke-linejoin="round" />
<path d="M 1062.6 2033.7 L 1072.7 2031.5 L 1075.6 2029.9 L 1077.4 2027.4 L 1083.2 1972.6 L 1083.2 1954.5 L 1099.5 1911.3 L 1110.6 1888.0" stroke="#000" stroke-width="2" fill="none" stroke-linecap="round" stroke-linejoin="round" />
<path d="M 1023.5 1881.4 L 1111.7 1859.2" stroke="#000" stroke-width="2" fill="none" stroke-linecap="round" stroke-linejoin="round" />
<path d="M 2189.8 605.0 L 2156.7 486.2" stroke="#000" stroke-width="2" fill="none" stroke-linecap="round" stroke-linejoin="round" />
      

      <path d="M 628.5 1106.8 L 598.4 1052.6 L 527.9 921.9 L 476.8 828.0 L 465.2 812.0 L 452.6 798.2 L 431.0 780.9 L 416.7 774.3 L 374.6 760.4 L 338.1 746.5 L 325.6 739.3 L 311.5 728.0 L 301.7 718.3 L 293.3 706.0 L 284.0 690.1 L 268.4 650.4 L 241.0 574.2 L 234.4 546.8 L 232.7 529.0 L 231.5 505.1 L 237.9 318.8 L 235.4 288.1 L 231.4 268.5 L 220.3 242.6 L 180.4 173.8 L 140.5 106.4 L 135.4 95.1 L 131.0 82.3 L 127.0 63.4 L 116.2 0.2 L 110.0 -15.5 L 102.0 -28.2 L 59.3 -93.1 L 53.1 -105.3 L 48.1 -118.6 L 45.0 -133.8 L 44.9 -151.0 L 48.0 -171.4 L 52.1 -189.3 L 74.0 -267.0 L 79.3 -294.9 L 81.1 -319.1 L 80.2 -402.9 L 81.5 -428.4 L 84.1 -449.1 L 91.1 -477.8 L 98.5 -501.5 L 109.5 -542.0 L 111.6 -554.2 L 112.3 -568.5 L 110.3 -582.4 L 106.2 -597.2 L 98.6 -612.9 L 91.1 -624.1 L 60.1 -676.9 L 53.0 -694.1 L 49.2 -707.3 L 44.5 -729.1 L 43.3 -745.8 L 45.2 -916.8 L 44.0 -929.3 L 40.3 -944.4 L 34.9 -958.5 L 29.0 -966.8 L 10.2 -986.6 L -10.6 -1010.4 L -17.1 -1022.0 L -20.7 -1031.2 L -23.0 -1054.0 L -24.8 -1105.5 L -26.4 -1183.7" stroke="#000" stroke-width="5" fill="none" stroke-linecap="round" stroke-linejoin="round" />
<path d="M 7634.6 -144.4 L 7494.6 -75.5 L 7488.5 -73.0 L 7376.7 -18.5 L 7124.5 103.7 L 6990.6 168.6 L 6621.9 347.3 L 6586.6 364.5 L 6072.1 615.1 L 6023.8 638.7 L 6009.2 645.8 L 5761.2 767.0 L 5710.4 798.6 L 5690.8 813.5 L 5668.1 832.6 L 5652.1 847.0 L 5627.9 872.1 L 5613.5 889.6 L 5611.1 892.8 L 5595.8 913.5 L 5569.2 950.7 L 5479.7 1078.2 L 5315.2 1326.5 L 5291.9 1359.0 L 5254.0 1403.5 L 5216.6 1429.0 L 5189.4 1442.1 L 5153.8 1451.0 L 5010.4 1460.5 L 4953.8 1459.8 L 4908.6 1453.3 L 4864.2 1447.1 L 4844.5 1443.3 L 4571.3 1390.8 L 4538.4 1385.2 L 4530.1 1383.7 L 4487.1 1375.2 L 4456.3 1363.6 L 4374.3 1322.3 L 4339.4 1309.0 L 4303.8 1304.7 L 4282.0 1306.7 L 4262.6 1312.2 L 4217.2 1333.6 L 4142.7 1374.2 L 3942.4 1468.5 L 3885.4 1486.0 L 3732.7 1527.1 L 3676.9 1537.6 L 3614.6 1545.2 L 3560.7 1538.3 L 3521.3 1523.2 L 3480.5 1498.0 L 3406.5 1436.8 L 3274.4 1341.2 L 3228.6 1322.3 L 3192.1 1314.2 L 3122.5 1311.2 L 3078.8 1310.6 L 2983.7 1309.4 L 2950.1 1303.7 L 2882.6 1292.3 L 2632.8 1222.8 L 2559.0 1202.3 L 2457.3 1174.0 L 2339.9 1141.4 L 2300.3 1131.0" stroke="#000" stroke-width="5" fill="none" stroke-linecap="round" stroke-linejoin="round" />
<path d="M 609.5 1172.7 L 557.4 1225.6 L 539.7 1243.3 L 527.6 1257.2 L 503.1 1282.2 L 495.2 1289.9 L 486.2 1298.6 L 444.2 1342.6 L 438.1 1348.2 L 428.9 1356.6 L 415.3 1368.5 L 397.0 1384.3 L 382.0 1396.0 L 366.0 1407.2 L 344.7 1421.4 L 294.3 1453.0 L 286.6 1457.5 L 269.2 1468.2 L 234.7 1489.3 L 181.8 1521.3 L 144.6 1545.6 L 96.4 1575.7 L 84.5 1583.4 L 53.6 1603.1 L 10.4 1630.8 L -138.4 1723.3 L -188.4 1754.4 L -206.3 1765.2 L -270.6 1803.9 L -309.9 1829.5 L -364.1 1864.3 L -378.1 1874.5 L -395.3 1888.2 L -406.0 1898.6 L -417.5 1910.4 L -423.9 1917.0 L -432.0 1926.8 L -439.9 1937.2 L -448.3 1949.9 L -458.0 1964.6 L -468.7 1982.1 L -519.2 2069.2 L -545.9 2113.3 L -561.1 2133.0" stroke="#000" stroke-width="5" fill="none" stroke-linecap="round" stroke-linejoin="round" />
<path d="M 1759.0 1028.4 L 1662.0 1014.5 L 1601.5 1005.5 L 1582.1 1003.1 L 1521.2 993.6 L 1512.9 992.3 L 1503.8 991.0 L 1449.4 983.6 L 1429.9 980.8 L 1368.5 971.9 L 1284.8 959.1 L 1272.0 957.5 L 1260.6 956.3 L 1223.9 952.1 L 1218.2 951.2 L 1202.5 949.4 L 1120.6 936.5 L 1020.0 922.7 L 962.9 914.6 L 931.6 913.6 L 912.0 915.0 L 888.8 920.8 L 864.6 929.5 L 850.9 937.5 L 837.4 947.3 L 823.4 959.9 L 811.9 969.6 L 788.5 991.3 L 768.5 1009.8 L 752.1 1026.8 L 715.4 1065.9 L 665.4 1117.2" stroke="#000" stroke-width="5" fill="none" stroke-linecap="round" stroke-linejoin="round" />
<path d="M 628.5 1106.8 L 632.0 1121.0 L 641.2 1134.3 L 646.6 1136.5" stroke="#000" stroke-width="5" fill="none" stroke-linecap="round" stroke-linejoin="round" />
<path d="M 665.4 1117.2 L 646.6 1136.5" stroke="#000" stroke-width="5" fill="none" stroke-linecap="round" stroke-linejoin="round" />
<path d="M 646.6 1136.5 L 640.9 1142.3 L 633.1 1150.2" stroke="#000" stroke-width="5" fill="none" stroke-linecap="round" stroke-linejoin="round" />
<path d="M 646.6 1136.5 L 646.1 1131.9 L 639.3 1121.1 L 636.2 1115.6 L 628.5 1106.8" stroke="#000" stroke-width="5" fill="none" stroke-linecap="round" stroke-linejoin="round" />
<path d="M 1785.0 1032.1 L 1759.0 1028.4" stroke="#000" stroke-width="5" fill="none" stroke-linecap="round" stroke-linejoin="round" />
<path d="M 1793.2 1033.4 L 1788.9 1032.6 L 1785.0 1032.1" stroke="#000" stroke-width="5" fill="none" stroke-linecap="round" stroke-linejoin="round" />
<path d="M 1808.3 1035.8 L 1793.2 1033.4" stroke="#000" stroke-width="5" fill="none" stroke-linecap="round" stroke-linejoin="round" />
<path d="M 2300.3 1131.0 L 2287.2 1126.9 L 2205.6 1104.5 L 2111.2 1080.4 L 2081.7 1075.7 L 2075.1 1074.5 L 1957.8 1057.5 L 1919.0 1052.1 L 1876.6 1046.3 L 1812.0 1036.3 L 1808.3 1035.8" stroke="#000" stroke-width="5" fill="none" stroke-linecap="round" stroke-linejoin="round" />
<path d="M 633.1 1150.2 L 630.3 1152.8 L 609.5 1172.7" stroke="#000" stroke-width="5" fill="none" stroke-linecap="round" stroke-linejoin="round" />
<path d="M 628.5 1106.8 L 598.4 1052.6 L 527.9 921.9 L 476.8 828.0 L 465.2 812.0 L 452.6 798.2 L 431.0 780.9 L 416.7 774.3 L 374.6 760.4 L 338.1 746.5 L 325.6 739.3 L 311.5 728.0 L 301.7 718.3 L 293.3 706.0 L 284.0 690.1 L 268.4 650.4 L 241.0 574.2 L 234.4 546.8 L 232.7 529.0 L 231.5 505.1 L 237.9 318.8 L 235.4 288.1 L 231.4 268.5 L 220.3 242.6 L 180.4 173.8 L 140.5 106.4 L 135.4 95.1 L 131.0 82.3 L 127.0 63.4 L 116.2 0.2 L 110.0 -15.5 L 102.0 -28.2 L 59.3 -93.1 L 53.1 -105.3 L 48.1 -118.6 L 45.0 -133.8 L 44.9 -151.0 L 48.0 -171.4 L 52.1 -189.3 L 74.0 -267.0 L 79.3 -294.9 L 81.1 -319.1 L 80.2 -402.9 L 81.5 -428.4 L 84.1 -449.1 L 91.1 -477.8 L 98.5 -501.5 L 109.5 -542.0 L 111.6 -554.2 L 112.3 -568.5 L 110.3 -582.4 L 106.2 -597.2 L 98.6 -612.9 L 91.1 -624.1 L 60.1 -676.9 L 53.0 -694.1 L 49.2 -707.3 L 44.5 -729.1 L 43.3 -745.8 L 45.2 -916.8 L 44.0 -929.3 L 40.3 -944.4 L 34.9 -958.5 L 29.0 -966.8 L 10.2 -986.6 L -10.6 -1010.4 L -17.1 -1022.0 L -20.7 -1031.2 L -23.0 -1054.0 L -24.8 -1105.5 L -26.4 -1183.7" stroke="#fff" stroke-width="2.2" fill="none" stroke-linecap="round" stroke-linejoin="round"/>
<path d="M 7634.6 -144.4 L 7494.6 -75.5 L 7488.5 -73.0 L 7376.7 -18.5 L 7124.5 103.7 L 6990.6 168.6 L 6621.9 347.3 L 6586.6 364.5 L 6072.1 615.1 L 6023.8 638.7 L 6009.2 645.8 L 5761.2 767.0 L 5710.4 798.6 L 5690.8 813.5 L 5668.1 832.6 L 5652.1 847.0 L 5627.9 872.1 L 5613.5 889.6 L 5611.1 892.8 L 5595.8 913.5 L 5569.2 950.7 L 5479.7 1078.2 L 5315.2 1326.5 L 5291.9 1359.0 L 5254.0 1403.5 L 5216.6 1429.0 L 5189.4 1442.1 L 5153.8 1451.0 L 5010.4 1460.5 L 4953.8 1459.8 L 4908.6 1453.3 L 4864.2 1447.1 L 4844.5 1443.3 L 4571.3 1390.8 L 4538.4 1385.2 L 4530.1 1383.7 L 4487.1 1375.2 L 4456.3 1363.6 L 4374.3 1322.3 L 4339.4 1309.0 L 4303.8 1304.7 L 4282.0 1306.7 L 4262.6 1312.2 L 4217.2 1333.6 L 4142.7 1374.2 L 3942.4 1468.5 L 3885.4 1486.0 L 3732.7 1527.1 L 3676.9 1537.6 L 3614.6 1545.2 L 3560.7 1538.3 L 3521.3 1523.2 L 3480.5 1498.0 L 3406.5 1436.8 L 3274.4 1341.2 L 3228.6 1322.3 L 3192.1 1314.2 L 3122.5 1311.2 L 3078.8 1310.6 L 2983.7 1309.4 L 2950.1 1303.7 L 2882.6 1292.3 L 2632.8 1222.8 L 2559.0 1202.3 L 2457.3 1174.0 L 2339.9 1141.4 L 2300.3 1131.0" stroke="#fff" stroke-width="2.2" fill="none" stroke-linecap="round" stroke-linejoin="round"/>
<path d="M 609.5 1172.7 L 557.4 1225.6 L 539.7 1243.3 L 527.6 1257.2 L 503.1 1282.2 L 495.2 1289.9 L 486.2 1298.6 L 444.2 1342.6 L 438.1 1348.2 L 428.9 1356.6 L 415.3 1368.5 L 397.0 1384.3 L 382.0 1396.0 L 366.0 1407.2 L 344.7 1421.4 L 294.3 1453.0 L 286.6 1457.5 L 269.2 1468.2 L 234.7 1489.3 L 181.8 1521.3 L 144.6 1545.6 L 96.4 1575.7 L 84.5 1583.4 L 53.6 1603.1 L 10.4 1630.8 L -138.4 1723.3 L -188.4 1754.4 L -206.3 1765.2 L -270.6 1803.9 L -309.9 1829.5 L -364.1 1864.3 L -378.1 1874.5 L -395.3 1888.2 L -406.0 1898.6 L -417.5 1910.4 L -423.9 1917.0 L -432.0 1926.8 L -439.9 1937.2 L -448.3 1949.9 L -458.0 1964.6 L -468.7 1982.1 L -519.2 2069.2 L -545.9 2113.3 L -561.1 2133.0" stroke="#fff" stroke-width="2.2" fill="none" stroke-linecap="round" stroke-linejoin="round"/>
<path d="M 1759.0 1028.4 L 1662.0 1014.5 L 1601.5 1005.5 L 1582.1 1003.1 L 1521.2 993.6 L 1512.9 992.3 L 1503.8 991.0 L 1449.4 983.6 L 1429.9 980.8 L 1368.5 971.9 L 1284.8 959.1 L 1272.0 957.5 L 1260.6 956.3 L 1223.9 952.1 L 1218.2 951.2 L 1202.5 949.4 L 1120.6 936.5 L 1020.0 922.7 L 962.9 914.6 L 931.6 913.6 L 912.0 915.0 L 888.8 920.8 L 864.6 929.5 L 850.9 937.5 L 837.4 947.3 L 823.4 959.9 L 811.9 969.6 L 788.5 991.3 L 768.5 1009.8 L 752.1 1026.8 L 715.4 1065.9 L 665.4 1117.2" stroke="#fff" stroke-width="2.2" fill="none" stroke-linecap="round" stroke-linejoin="round"/>
<path d="M 628.5 1106.8 L 632.0 1121.0 L 641.2 1134.3 L 646.6 1136.5" stroke="#fff" stroke-width="2.2" fill="none" stroke-linecap="round" stroke-linejoin="round"/>
<path d="M 665.4 1117.2 L 646.6 1136.5" stroke="#fff" stroke-width="2.2" fill="none" stroke-linecap="round" stroke-linejoin="round"/>
<path d="M 646.6 1136.5 L 640.9 1142.3 L 633.1 1150.2" stroke="#fff" stroke-width="2.2" fill="none" stroke-linecap="round" stroke-linejoin="round"/>
<path d="M 646.6 1136.5 L 646.1 1131.9 L 639.3 1121.1 L 636.2 1115.6 L 628.5 1106.8" stroke="#fff" stroke-width="2.2" fill="none" stroke-linecap="round" stroke-linejoin="round"/>
<path d="M 1785.0 1032.1 L 1759.0 1028.4" stroke="#fff" stroke-width="2.2" fill="none" stroke-linecap="round" stroke-linejoin="round"/>
<path d="M 1793.2 1033.4 L 1788.9 1032.6 L 1785.0 1032.1" stroke="#fff" stroke-width="2.2" fill="none" stroke-linecap="round" stroke-linejoin="round"/>
<path d="M 1808.3 1035.8 L 1793.2 1033.4" stroke="#fff" stroke-width="2.2" fill="none" stroke-linecap="round" stroke-linejoin="round"/>
<path d="M 2300.3 1131.0 L 2287.2 1126.9 L 2205.6 1104.5 L 2111.2 1080.4 L 2081.7 1075.7 L 2075.1 1074.5 L 1957.8 1057.5 L 1919.0 1052.1 L 1876.6 1046.3 L 1812.0 1036.3 L 1808.3 1035.8" stroke="#fff" stroke-width="2.2" fill="none" stroke-linecap="round" stroke-linejoin="round"/>
<path d="M 633.1 1150.2 L 630.3 1152.8 L 609.5 1172.7" stroke="#fff" stroke-width="2.2" fill="none" stroke-linecap="round" stroke-linejoin="round"/>
    </g>
    <clipPath id="frame-clip">
      <rect x="94" y="94" width="2152" height="1216"/>
    </clipPath>
    
    <linearGradient id="fadeL" x1="0" y1="0" x2="1" y2="0">
      <stop offset="0" stop-color="#000"/><stop offset="1" stop-color="#000" stop-opacity="0"/>
    </linearGradient>
    <linearGradient id="fadeR" x1="1" y1="0" x2="0" y2="0">
      <stop offset="0" stop-color="#000"/><stop offset="1" stop-color="#000" stop-opacity="0"/>
    </linearGradient>
    <linearGradient id="fadeT" x1="0" y1="0" x2="0" y2="1">
      <stop offset="0" stop-color="#000"/><stop offset="1" stop-color="#000" stop-opacity="0"/>
    </linearGradient>
    <linearGradient id="fadeB" x1="0" y1="1" x2="0" y2="0">
      <stop offset="0" stop-color="#000"/><stop offset="1" stop-color="#000" stop-opacity="0"/>
    </linearGradient>
    <mask id="edge-fade" maskUnits="userSpaceOnUse" x="0" y="0" width="2340" height="1404">
      <rect width="2340" height="1404" fill="#fff"/>
      <rect x="0" y="0" width="94" height="1404" fill="url(#fadeL)"/>
      <rect x="2246" y="0" width="94" height="1404" fill="url(#fadeR)"/>
      <rect x="0" y="0" width="2340" height="94" fill="url(#fadeT)"/>
      <rect x="0" y="1310" width="2340" height="94" fill="url(#fadeB)"/>
      <rect x="94" y="94" width="2152" height="1216" fill="#000"/>
    </mask>
  </defs>
  <rect width="100%" height="100%" fill="#fff"/>
  <g mask="url(#edge-fade)">
    <use xlink:href="#mapart" href="#mapart"/>
  </g>
  <g clip-path="url(#frame-clip)">
    <use xlink:href="#mapart" href="#mapart"/>
    
    <g stroke="#000" fill="none" stroke-width="2.9952">
      <circle cx="1170" cy="702" r="16.848" fill="#fff" fill-opacity="0.7"/>
      <circle cx="1170" cy="702" r="3.744" fill="#000" stroke="none"/>
    </g>
  </g>
  
    <g transform="translate(2206, 154)" stroke="#000" stroke-width="2.2464" fill="#000">
      <line x1="0" y1="37.44" x2="0" y2="-37.44"/>
      <path d="M 0 -37.44 L 13.104 -13.104 L 0 -22.464 L -13.104 -13.104 Z"/>
      <text x="0" y="59.44" text-anchor="middle" font-family="Georgia, serif" font-size="22.464000000000002">N</text>
    </g>
  
    <g stroke="#000" stroke-width="2.2464" fill="#000" font-family="Georgia, serif">
      <line x1="134" y1="1270" x2="329" y2="1270"/>
      <line x1="134" y1="1263" x2="134" y2="1277"/>
      <line x1="231.5" y1="1266" x2="231.5" y2="1274"/>
      <line x1="329" y1="1263" x2="329" y2="1277"/>
      <text x="231.5" y="1256" text-anchor="middle" font-size="20.592" stroke="none">250 m</text>
    </g>
  <rect x="94" y="94" width="2152" height="1216" fill="none" stroke="#000" stroke-width="2" stroke-opacity="0.7"/>
  <rect x="102" y="102" width="2136" height="1200" fill="none" stroke="#000" stroke-width="1" stroke-opacity="0.4"/>
  
</svg>