<svg xmlns="http://www.w3.org/2000/svg" width="1872" height="1404" viewBox="0 0 1872 1404">
  <defs>
    <radialGradient id="vignette" cx="50%" cy="50%" r="954.72" gradientUnits="userSpaceOnUse">
      <stop offset="55%" stop-color="#fff" stop-opacity="0"/>
      <stop offset="100%" stop-color="#fff" stop-opacity="1"/>
    </radialGradient>
  </defs>
  <rect width="100%" height="100%" fill="#fff"/>
  <path d="M 284.1 942.4 L 366.6 845.8 L 376.1 835.7 L 382.3 826.0 L 403.9 799.4 L 412.1 786.6 L 424.6 766.9 L 433.7 751.6 L 462.9 702.2 L 515.0 623.7 L 535.0 580.3 L 537.1 569.8 L 541.9 556.3" stroke="#000" stroke-width="1.3" stroke-opacity="0.8" fill="none" stroke-linecap="round" stroke-linejoin="round"/>
<path d="M 305.8 772.0 L 311.0 775.0 L 366.1 828.7 L 376.1 835.7 L 384.2 840.6 L 421.9 874.6 L 455.4 904.7 L 467.9 915.6 L 502.3 946.6 L 545.2 985.3 L 588.1 1024.9 L 595.7 1031.6 L 629.4 1062.5 L 634.8 1067.3 L 669.4 1104.4 L 681.1 1116.8 L 701.2 1129.2 L 712.5 1136.2 L 720.7 1141.1 L 742.3 1154.0 L 775.6 1170.6 L 837.0 1196.5 L 849.7 1200.5 L 864.2 1201.4 L 882.7 1198.4 L 918.7 1190.9 L 1001.3 1171.2 L 1038.9 1161.4 L 1076.2 1151.6 L 1106.3 1140.5 L 1127.5 1132.3 L 1223.9 1095.4" stroke="#000" stroke-width="1.3" stroke-opacity="0.8" fill="none" stroke-linecap="round" stroke-linejoin="round"/>
<path d="M 568.3 526.3 L 592.5 542.7 L 614.0 556.0 L 625.8 563.3 L 634.7 571.9 L 655.1 598.6 L 659.0 604.1 L 679.7 636.2 L 707.2 687.6 L 726.0 717.1 L 739.4 743.7 L 757.8 769.6 L 759.8 772.5 L 772.1 791.6 L 786.0 813.5 L 805.7 839.5 L 816.1 851.2 L 828.4 863.4 L 845.3 879.9 L 854.3 886.4 L 880.1 905.3 L 889.2 921.3 L 892.2 930.8 L 893.9 941.8 L 895.2 950.8 L 902.0 968.7 L 919.4 1002.2 L 921.2 1013.1 L 917.7 1025.0 L 891.1 1062.9 L 870.4 1092.9 L 863.6 1107.1 L 859.3 1132.9 L 850.5 1184.9 L 849.7 1200.5 L 846.8 1213.7 L 840.8 1267.9 L 835.6 1284.4 L 798.6 1347.1 L 755.9 1415.5 L 748.6 1428.9" stroke="#000" stroke-width="1.3" stroke-opacity="0.8" fill="none" stroke-linecap="round" stroke-linejoin="round"/>
<path d="M 1126.8 -274.0 L 1141.6 -269.9 L 1155.2 -260.2 L 1170.6 -242.0 L 1185.5 -212.3 L 1200.9 -177.5 L 1216.9 -155.3 L 1250.5 -121.0 L 1274.5 -113.0 L 1358.3 -90.8 L 1381.7 -70.3 L 1395.4 -42.3 L 1400.0 -16.6 L 1401.7 18.2 L 1393.1 65.5 L 1379.5 106.0 L 1369.2 131.1 L 1365.8 145.9 L 1368.0 160.8 L 1377.7 174.5 L 1397.1 184.7 L 1454.8 197.8 L 1477.6 209.8 L 1517.9 230.8 L 1557.2 251.2" stroke="#000" stroke-width="1.3" stroke-opacity="0.8" fill="none" stroke-linecap="round" stroke-linejoin="round"/>
<path d="M 1516.0 306.4 L 1516.8 247.9 L 1517.9 230.8" stroke="#000" stroke-width="1.3" stroke-opacity="0.8" fill="none" stroke-linecap="round" stroke-linejoin="round"/>
<path d="M -21.7 957.5 L 17.3 929.1 L 35.6 915.0 L 89.4 874.0 L 116.9 860.1 L 134.8 851.0 L 151.5 842.6 L 213.4 819.0 L 262.1 800.4 L 311.0 775.0 L 377.3 721.8 L 378.5 711.7" stroke="#000" stroke-width="1.3" stroke-opacity="0.8" fill="none" stroke-linecap="round" stroke-linejoin="round"/>
<path d="M 378.5 711.7 L 305.8 772.0 L 256.4 793.0 L 118.5 845.5 L 111.3 849.8 L 85.4 865.4 L 47.8 892.2 L 10.0 922.5 L -21.7 957.5" stroke="#000" stroke-width="1.3" stroke-opacity="0.8" fill="none" stroke-linecap="round" stroke-linejoin="round"/>
<path d="M 698.6 41.1 L 741.3 6.4 L 763.4 -11.6 L 778.0 -23.5 L 840.0 -71.6" stroke="#000" stroke-width="1.3" stroke-opacity="0.8" fill="none" stroke-linecap="round" stroke-linejoin="round"/>
<path d="M 417.5 1219.4 L 425.3 1210.1 L 428.4 1205.3 L 431.8 1198.8 L 440.2 1177.9 L 447.9 1160.2 L 459.6 1129.5 L 483.0 1078.9 L 487.0 1071.1 L 515.6 1024.0 L 545.2 985.3 L 559.6 958.5 L 577.8 912.9 L 585.3 893.9 L 591.8 883.0 L 620.3 835.4 L 641.2 797.0 L 647.0 786.3 L 671.5 756.0 L 704.4 732.2 L 726.0 717.1 L 759.4 693.7 L 762.1 691.8 L 778.7 682.9 L 823.9 658.5 L 833.8 654.9 L 846.7 650.2 L 875.5 639.8 L 940.4 610.2 L 967.8 599.8 L 983.5 597.2 L 1028.4 592.5 L 1071.7 591.4 L 1097.4 594.7 L 1139.0 609.0 L 1142.7 610.5 L 1231.7 648.3 L 1254.5 663.7 L 1265.7 671.1 L 1310.2 720.2 L 1310.9 721.5 L 1320.5 740.7 L 1328.4 773.3 L 1328.4 797.2 L 1309.0 835.4 L 1256.5 916.3 L 1227.4 964.1 L 1200.5 1009.0 L 1191.7 1035.0 L 1195.3 1044.8 L 1201.6 1057.3 L 1223.9 1095.4 L 1246.3 1115.1 L 1266.0 1131.3 L 1286.8 1156.7 L 1307.3 1175.5 L 1333.3 1213.2 L 1340.4 1223.4 L 1348.9 1230.9 L 1354.4 1235.7 L 1360.6 1241.1 L 1392.3 1269.1 L 1434.0 1299.3 L 1446.4 1302.9 L 1454.0 1301.6 L 1488.2 1293.0 L 1559.9 1260.3 L 1634.9 1226.1 L 1676.2 1207.3 L 1678.5 1206.2 L 1761.1 1168.6 L 1767.2 1165.8 L 1805.3 1142.6 L 1821.2 1135.4 L 1831.5 1132.0" stroke="#000" stroke-width="1.3" stroke-opacity="0.8" fill="none" stroke-linecap="round" stroke-linejoin="round"/>
<path d="M 412.1 786.6 L 424.0 800.6 L 427.9 805.1 L 459.1 833.8 L 467.6 841.6 L 480.7 853.7 L 492.0 864.2 L 502.3 872.1 L 520.4 889.1 L 544.3 904.8 L 564.7 909.8 L 577.8 912.9" stroke="#000" stroke-width="1.3" stroke-opacity="0.8" fill="none" stroke-linecap="round" stroke-linejoin="round"/>
<path d="M 1014.6 1472.9 L 977.1 1459.9 L 951.1 1446.7 L 944.5 1443.4 L 932.7 1433.1 L 896.8 1415.7 L 852.5 1388.8 L 841.6 1382.1 L 798.6 1347.1" stroke="#000" stroke-width="1.3" stroke-opacity="0.8" fill="none" stroke-linecap="round" stroke-linejoin="round"/>
<path d="M 1071.7 591.4 L 1073.7 584.0 L 1074.5 568.2 L 1069.3 556.1 L 1055.0 539.8 L 1047.9 531.8 L 980.8 450.6 L 976.3 445.2 L 955.2 419.5 L 952.5 416.2 L 924.6 381.4 L 918.1 377.8 L 872.8 366.1 L 846.8 358.0 L 835.6 352.3 L 811.8 339.3" stroke="#000" stroke-width="1.3" stroke-opacity="0.8" fill="none" stroke-linecap="round" stroke-linejoin="round"/>
<path d="M 10.0 922.5 L 17.3 929.1 L 41.1 943.5 L 106.5 989.6 L 214.3 1059.6 L 222.1 1064.6 L 250.1 1084.8 L 290.2 1113.8 L 310.9 1127.8 L 322.3 1135.5 L 362.9 1154.4 L 368.0 1156.1 L 412.6 1171.1 L 440.2 1177.9 L 478.9 1189.4 L 509.5 1194.4 L 531.8 1198.2 L 571.1 1199.9 L 583.2 1200.2 L 607.6 1196.9 L 622.1 1191.0 L 639.7 1183.8 L 672.7 1152.2 L 701.2 1129.2" stroke="#000" stroke-width="1.3" stroke-opacity="0.8" fill="none" stroke-linecap="round" stroke-linejoin="round"/>
<path d="M 1015.9 1533.6 L 1015.7 1522.6 L 1015.5 1509.8 L 1014.6 1483.5 L 1014.6 1472.9 L 1029.0 1449.9 L 1046.0 1429.0 L 1048.5 1422.9 L 1052.4 1410.1 L 1059.0 1384.2 L 1067.2 1369.0 L 1078.7 1354.3 L 1116.8 1321.8 L 1136.9 1300.1 L 1166.7 1264.9" stroke="#000" stroke-width="1.3" stroke-opacity="0.8" fill="none" stroke-linecap="round" stroke-linejoin="round"/>
<path d="M 833.8 654.9 L 853.0 673.7 L 858.4 678.1 L 865.3 682.8 L 873.2 687.2 L 883.1 692.5 L 912.5 707.5 L 922.9 715.3 L 936.1 725.1 L 959.2 742.4 L 990.4 767.4 L 1005.5 775.4 L 1028.6 785.9 L 1054.3 803.0 L 1063.9 809.3 L 1076.0 824.8 L 1087.1 839.2 L 1093.0 847.0 L 1101.2 858.1 L 1130.4 886.0 L 1140.9 904.9 L 1146.0 913.9 L 1164.4 941.8 L 1183.0 970.5 L 1196.3 996.8 L 1200.5 1009.0" stroke="#000" stroke-width="1.3" stroke-opacity="0.8" fill="none" stroke-linecap="round" stroke-linejoin="round"/>
<path d="M 881.1 1508.9 L 884.9 1499.6 L 890.9 1496.3 L 902.3 1491.4 L 920.6 1481.6 L 923.6 1480.3 L 940.0 1460.3 L 951.1 1446.7 L 986.3 1398.6 L 999.6 1379.9 L 1016.3 1350.8 L 1023.2 1338.8 L 1039.1 1322.0 L 1061.6 1300.6 L 1093.6 1273.0 L 1112.9 1252.6 L 1134.1 1228.8 L 1150.8 1203.4 L 1175.8 1179.2 L 1205.4 1150.6 L 1246.3 1115.1" stroke="#000" stroke-width="1.3" stroke-opacity="0.8" fill="none" stroke-linecap="round" stroke-linejoin="round"/>
<path d="M 492.0 864.2 L 473.8 884.7 L 455.4 904.7 L 412.4 958.4 L 388.4 995.4 L 380.5 1007.6 L 310.9 1127.8" stroke="#000" stroke-width="1.3" stroke-opacity="0.8" fill="none" stroke-linecap="round" stroke-linejoin="round"/>
<path d="M 571.1 1199.9 L 574.9 1184.2 L 615.1 1095.2 L 634.8 1067.3" stroke="#000" stroke-width="1.3" stroke-opacity="0.8" fill="none" stroke-linecap="round" stroke-linejoin="round"/>
<path d="M 591.8 883.0 L 643.9 913.8 L 657.6 921.9 L 694.8 944.9 L 735.3 968.9" stroke="#000" stroke-width="1.3" stroke-opacity="0.8" fill="none" stroke-linecap="round" stroke-linejoin="round"/>
<path d="M 502.3 872.1 L 514.5 858.7 L 525.2 839.5 L 532.4 819.8 L 537.6 790.9 L 542.8 782.5 L 547.1 778.5 L 562.4 764.2 L 578.3 752.3 L 586.6 736.5" stroke="#000" stroke-width="1.3" stroke-opacity="0.8" fill="none" stroke-linecap="round" stroke-linejoin="round"/>
<path d="M 424.0 800.6 L 467.9 779.5 L 481.8 772.6 L 493.2 765.8 L 508.8 757.2 L 530.0 751.1 L 560.2 743.1 L 586.6 736.5 L 596.2 711.7 L 600.1 693.5 L 607.8 672.5 L 612.2 663.8 L 618.5 656.1 L 634.4 649.4 L 656.2 646.9 L 679.7 636.2 L 699.9 619.2 L 709.9 614.7 L 719.2 610.5 L 745.3 601.5 L 757.4 594.4 L 767.4 584.1 L 778.6 569.2 L 787.6 543.4 L 797.4 516.7" stroke="#000" stroke-width="1.3" stroke-opacity="0.8" fill="none" stroke-linecap="round" stroke-linejoin="round"/>
<path d="M 116.9 860.1 L 111.3 849.8 L 95.3 839.9 L 87.1 839.1 L 67.2 837.8 L 64.2 830.1 L 64.9 827.4 L 66.4 825.7 L 72.4 823.6 L 106.8 815.7 L 141.4 805.5 L 176.1 788.5 L 195.3 773.8 L 207.9 755.9 L 222.8 737.6 L 251.7 709.8 L 343.5 628.5 L 389.9 586.7 L 451.2 533.2 L 480.7 507.4 L 502.0 491.4" stroke="#000" stroke-width="1.3" stroke-opacity="0.8" fill="none" stroke-linecap="round" stroke-linejoin="round"/>
<path d="M 901.2 943.8 L 919.6 988.7 L 925.3 987.1 L 958.8 913.2 L 958.8 908.3 L 955.0 906.1 L 903.1 940.8 L 901.2 943.8" stroke="#000" stroke-width="1" stroke-opacity="0.2" fill="#000" fill-opacity="0.05" stroke-linecap="round" stroke-linejoin="round"/>
<path d="M 378.5 711.7 L 433.7 751.6 L 462.1 774.8 L 467.9 779.5" stroke="#000" stroke-width="1.3" stroke-opacity="0.8" fill="none" stroke-linecap="round" stroke-linejoin="round"/>
<path d="M 584.9 1290.3 L 590.1 1262.6 L 601.9 1237.9 L 615.9 1206.7 L 622.1 1191.0" stroke="#000" stroke-width="1.3" stroke-opacity="0.8" fill="none" stroke-linecap="round" stroke-linejoin="round"/>
<path d="M 884.9 1499.6 L 883.2 1490.5 L 883.8 1485.3 L 885.4 1479.0 L 890.5 1470.7 L 894.9 1466.4 L 932.7 1433.1 L 936.5 1421.2 L 942.3 1405.2 L 946.0 1395.0 L 943.6 1388.4 L 930.9 1374.2 L 882.9 1343.3" stroke="#000" stroke-width="1.3" stroke-opacity="0.8" fill="none" stroke-linecap="round" stroke-linejoin="round"/>
<path d="M 880.1 1323.5 L 907.8 1311.1 L 933.3 1299.7 L 938.7 1297.1 L 944.9 1293.3 L 978.0 1282.2 L 987.1 1275.1 L 1004.4 1247.4 L 1015.2 1225.2 L 1034.1 1191.2 L 1038.6 1176.6 L 1038.9 1161.4" stroke="#000" stroke-width="1.3" stroke-opacity="0.8" fill="none" stroke-linecap="round" stroke-linejoin="round"/>
<path d="M 938.7 1297.1 L 951.4 1310.1 L 989.2 1333.5 L 1016.3 1350.8 L 1031.8 1359.6 L 1067.2 1369.0 L 1174.1 1378.9 L 1205.7 1369.5 L 1216.1 1366.0 L 1228.4 1361.9 L 1235.4 1359.6 L 1256.0 1354.0 L 1297.6 1342.6" stroke="#000" stroke-width="1.3" stroke-opacity="0.8" fill="none" stroke-linecap="round" stroke-linejoin="round"/>
<path d="M 509.5 1194.4 L 512.2 1169.7 L 517.6 1149.4 L 588.1 1024.9" stroke="#000" stroke-width="1.3" stroke-opacity="0.8" fill="none" stroke-linecap="round" stroke-linejoin="round"/>
<path d="M 805.7 839.5 L 821.9 817.2 L 865.5 771.8 L 877.7 759.7 L 922.9 715.3" stroke="#000" stroke-width="1.3" stroke-opacity="0.8" fill="none" stroke-linecap="round" stroke-linejoin="round"/>
<path d="M 770.5 364.1 L 797.4 382.6 L 829.8 400.3 L 854.7 409.6 L 869.1 414.9 L 920.5 424.6 L 955.2 419.5" stroke="#000" stroke-width="1.3" stroke-opacity="0.8" fill="none" stroke-linecap="round" stroke-linejoin="round"/>
<path d="M 920.5 424.6 L 895.5 469.6 L 866.6 533.9 L 855.4 556.7" stroke="#000" stroke-width="1.3" stroke-opacity="0.8" fill="none" stroke-linecap="round" stroke-linejoin="round"/>
<path d="M 810.9 526.2 L 833.7 461.0 L 854.7 409.6" stroke="#000" stroke-width="1.3" stroke-opacity="0.8" fill="none" stroke-linecap="round" stroke-linejoin="round"/>
<path d="M 889.8 576.2 L 855.4 556.7 L 846.9 551.4 L 837.8 545.0 L 810.9 526.2 L 806.6 523.2 L 797.4 516.7 L 783.4 506.7 L 773.4 482.4 L 742.6 436.4 L 728.3 421.4 L 715.1 417.1 L 704.4 415.6 L 695.5 418.9 L 681.9 428.1 L 673.3 443.5 L 671.2 458.9 L 676.6 472.1 L 700.4 495.7" stroke="#000" stroke-width="1.3" stroke-opacity="0.8" fill="none" stroke-linecap="round" stroke-linejoin="round"/>
<path d="M 846.7 650.2 L 852.7 632.5 L 880.9 586.4 L 889.8 576.2 L 910.2 552.8 L 930.9 522.1 L 946.7 487.5 L 957.0 464.9 L 976.3 445.2 L 1014.9 419.3" stroke="#000" stroke-width="1.3" stroke-opacity="0.8" fill="none" stroke-linecap="round" stroke-linejoin="round"/>
<path d="M 709.9 614.7 L 746.2 672.7 L 759.4 693.7" stroke="#000" stroke-width="1.3" stroke-opacity="0.8" fill="none" stroke-linecap="round" stroke-linejoin="round"/>
<path d="M 746.2 672.7 L 766.2 650.7 L 799.8 617.1 L 837.8 545.0" stroke="#000" stroke-width="1.3" stroke-opacity="0.8" fill="none" stroke-linecap="round" stroke-linejoin="round"/>
<path d="M 799.8 617.1 L 821.9 643.9 L 833.8 654.9" stroke="#000" stroke-width="1.3" stroke-opacity="0.8" fill="none" stroke-linecap="round" stroke-linejoin="round"/>
<path d="M 783.4 506.7 L 769.1 502.4 L 756.7 495.1 L 748.7 490.3 L 735.9 484.9 L 723.7 486.7 L 700.4 495.7 L 688.0 506.7 L 682.1 515.1 L 674.2 522.4 L 663.6 525.3 L 655.5 524.2 L 631.9 510.5" stroke="#000" stroke-width="1.3" stroke-opacity="0.8" fill="none" stroke-linecap="round" stroke-linejoin="round"/>
<path d="M 659.0 604.1 L 678.3 585.3 L 707.1 554.4 L 715.3 545.5 L 721.2 539.2 L 756.7 495.1" stroke="#000" stroke-width="1.3" stroke-opacity="0.8" fill="none" stroke-linecap="round" stroke-linejoin="round"/>
<path d="M 682.1 515.1 L 715.3 545.5" stroke="#000" stroke-width="1.3" stroke-opacity="0.8" fill="none" stroke-linecap="round" stroke-linejoin="round"/>
<path d="M 707.1 554.4 L 757.4 594.4" stroke="#000" stroke-width="1.3" stroke-opacity="0.8" fill="none" stroke-linecap="round" stroke-linejoin="round"/>
<path d="M 852.5 1388.8 L 877.8 1352.9 L 882.9 1343.3 L 883.8 1336.6 L 883.3 1329.9 L 880.1 1323.5 L 878.1 1319.5 L 840.8 1267.9" stroke="#000" stroke-width="1.3" stroke-opacity="0.8" fill="none" stroke-linecap="round" stroke-linejoin="round"/>
<path d="M 978.0 1282.2 L 1016.0 1307.0 L 1039.1 1322.0" stroke="#000" stroke-width="1.3" stroke-opacity="0.8" fill="none" stroke-linecap="round" stroke-linejoin="round"/>
<path d="M 1134.1 1228.8 L 1145.3 1241.2 L 1166.7 1264.9 L 1183.9 1296.5 L 1194.3 1326.6 L 1205.0 1353.0 L 1216.1 1366.0 L 1221.1 1381.6 L 1222.8 1422.7 L 1225.8 1494.3" stroke="#000" stroke-width="1.3" stroke-opacity="0.8" fill="none" stroke-linecap="round" stroke-linejoin="round"/>
<path d="M 1001.3 1171.2 L 1010.0 1147.9 L 1038.3 1101.7 L 1051.6 1081.1 L 1064.9 1061.9 L 1084.0 1037.3 L 1133.1 970.0 L 1164.4 941.8" stroke="#000" stroke-width="1.3" stroke-opacity="0.8" fill="none" stroke-linecap="round" stroke-linejoin="round"/>
<path d="M 919.4 1002.2 L 927.1 990.9 L 933.7 981.1 L 973.6 889.3 L 978.3 877.6 L 1031.7 823.1 L 1054.3 803.0" stroke="#000" stroke-width="1.3" stroke-opacity="0.8" fill="none" stroke-linecap="round" stroke-linejoin="round"/>
<path d="M 845.3 879.9 L 894.0 821.6 L 959.2 742.4" stroke="#000" stroke-width="1.3" stroke-opacity="0.8" fill="none" stroke-linecap="round" stroke-linejoin="round"/>
<path d="M 387.5 691.4 L 506.1 581.8 L 488.7 565.5 L 390.4 654.5 L 383.4 677.0 L 387.5 691.4" stroke="#000" stroke-width="1" stroke-opacity="0.2" fill="#000" fill-opacity="0.05" stroke-linecap="round" stroke-linejoin="round"/>
<path d="M 483.0 1078.9 L 429.5 1041.7 L 380.5 1007.6 L 367.8 998.7 L 334.0 975.5 L 284.1 942.4 L 244.7 914.0" stroke="#000" stroke-width="1.3" stroke-opacity="0.8" fill="none" stroke-linecap="round" stroke-linejoin="round"/>
<path d="M 368.0 1156.1 L 402.6 1081.8 L 429.5 1041.7 L 502.3 946.6" stroke="#000" stroke-width="1.3" stroke-opacity="0.8" fill="none" stroke-linecap="round" stroke-linejoin="round"/>
<path d="M 214.3 1059.6 L 225.7 1014.4 L 228.7 1002.2 L 240.2 942.3 L 244.7 914.0 L 255.0 879.5 L 285.3 818.0 L 311.0 775.0" stroke="#000" stroke-width="1.3" stroke-opacity="0.8" fill="none" stroke-linecap="round" stroke-linejoin="round"/>
<path d="M 827.4 -111.6 L 802.2 -103.6 L 748.1 -60.7 L 669.3 3.2 L 660.1 10.1 L 594.8 66.6 L 575.4 83.4 L 536.0 113.3 L 491.7 150.1 L 460.8 175.9 L 442.7 190.9 L 374.9 251.7 L 356.8 269.3 L 374.0 285.5 L 400.0 308.8" stroke="#000" stroke-width="1.3" stroke-opacity="0.8" fill="none" stroke-linecap="round" stroke-linejoin="round"/>
<path d="M 1243.5 1089.2 L 1252.8 1086.9 L 1262.9 1088.8 L 1276.0 1086.7 L 1287.0 1083.2 L 1295.0 1080.6 L 1312.8 1093.5 L 1320.1 1102.5 L 1328.4 1124.2 L 1336.6 1141.1 L 1342.8 1147.5 L 1354.6 1152.6 L 1363.7 1156.5 L 1379.7 1165.9 L 1387.3 1176.4 L 1394.1 1185.7 L 1410.4 1199.9 L 1415.4 1202.0 L 1427.1 1207.8 L 1435.1 1208.6 L 1450.9 1210.2 L 1466.7 1208.2 L 1488.8 1203.3 L 1512.9 1192.6 L 1526.3 1183.3 L 1532.2 1179.8 L 1558.8 1172.3 L 1594.0 1169.4 L 1613.3 1173.6 L 1628.1 1178.2 L 1645.0 1185.1 L 1664.4 1194.4 L 1672.4 1201.3 L 1676.2 1207.3" stroke="#000" stroke-width="1.3" stroke-opacity="0.8" fill="none" stroke-linecap="round" stroke-linejoin="round"/>
<path d="M 1315.9 1307.8 L 1354.4 1235.7" stroke="#000" stroke-width="1.3" stroke-opacity="0.8" fill="none" stroke-linecap="round" stroke-linejoin="round"/>
<path d="M 1256.0 1354.0 L 1269.8 1289.4 L 1279.2 1245.9 L 1282.9 1228.4 L 1281.1 1220.8 L 1266.1 1207.9 L 1256.1 1199.2" stroke="#000" stroke-width="0.7" stroke-opacity="0.55" fill="none" stroke-linecap="round" stroke-linejoin="round"/>
<path d="M 1266.1 1207.9 L 1253.9 1221.2 L 1279.2 1245.9" stroke="#000" stroke-width="0.7" stroke-opacity="0.55" fill="none" stroke-linecap="round" stroke-linejoin="round"/>
<path d="M 1348.9 1230.9 L 1387.3 1176.4 L 1403.1 1148.7 L 1423.8 1113.4 L 1424.8 1111.5 L 1427.7 1106.4 L 1439.3 1081.6 L 1442.4 1065.2 L 1443.1 1061.8 L 1443.8 1050.3 L 1449.6 1033.9 L 1452.2 1027.2 L 1455.6 1013.4 L 1457.2 1005.9 L 1457.4 995.4 L 1457.5 986.0 L 1454.7 975.9 L 1452.2 966.4 L 1449.7 941.4 L 1449.0 922.5 L 1440.1 899.8 L 1434.6 879.9 L 1432.0 874.7 L 1427.5 871.9" stroke="#000" stroke-width="1.3" stroke-opacity="0.8" fill="none" stroke-linecap="round" stroke-linejoin="round"/>
<path d="M 1526.3 1183.3 L 1522.1 1145.6 L 1522.1 1130.8 L 1529.8 1113.8 L 1536.8 1098.5 L 1544.1 1076.1 L 1555.8 1037.2 L 1557.1 1029.3 L 1556.3 1020.6 L 1552.9 1012.4" stroke="#000" stroke-width="1.3" stroke-opacity="0.8" fill="none" stroke-linecap="round" stroke-linejoin="round"/>
<path d="M 1662.9 1105.6 L 1658.7 1106.0 L 1651.2 1103.9 L 1641.1 1098.3 L 1629.0 1087.0 L 1593.4 1050.0 L 1583.6 1042.7 L 1563.8 1029.0 L 1557.1 1029.3" stroke="#000" stroke-width="1.3" stroke-opacity="0.8" fill="none" stroke-linecap="round" stroke-linejoin="round"/>
<path d="M 735.3 968.9 L 766.0 984.6 L 787.2 998.4 L 831.1 1027.5" stroke="#000" stroke-width="1.3" stroke-opacity="0.8" fill="none" stroke-linecap="round" stroke-linejoin="round"/>
<path d="M 895.2 950.8 L 885.8 959.6 L 873.8 969.0 L 836.5 1020.2 L 831.1 1027.5 L 789.4 1080.6 L 780.0 1091.9 L 766.3 1108.3 L 755.2 1128.7 L 742.3 1154.0" stroke="#000" stroke-width="1.3" stroke-opacity="0.8" fill="none" stroke-linecap="round" stroke-linejoin="round"/>
<path d="M 421.9 874.6 L 345.0 962.9 L 334.0 975.5" stroke="#000" stroke-width="1.3" stroke-opacity="0.8" fill="none" stroke-linecap="round" stroke-linejoin="round"/>
<path d="M 927.1 990.9 L 972.9 1024.5 L 981.0 1030.8 L 1010.7 1058.1 L 1022.8 1064.9 L 1051.6 1081.1" stroke="#000" stroke-width="1.3" stroke-opacity="0.8" fill="none" stroke-linecap="round" stroke-linejoin="round"/>
<path d="M 1195.3 1044.8 L 1245.0 997.3 L 1266.7 959.3 L 1279.8 946.2 L 1348.7 892.0 L 1363.9 880.1 L 1397.9 871.3 L 1413.6 871.3 L 1427.5 871.9" stroke="#000" stroke-width="1.3" stroke-opacity="0.8" fill="none" stroke-linecap="round" stroke-linejoin="round"/>
<path d="M 1254.5 663.7 L 1268.1 660.8 L 1288.8 665.2 L 1305.3 672.5 L 1314.3 694.2 L 1323.8 702.2 L 1339.0 707.0 L 1362.1 706.1 L 1376.3 709.0 L 1383.8 717.2 L 1386.0 735.5 L 1390.3 753.9 L 1391.1 775.8 L 1390.6 787.0 L 1375.5 817.3 L 1366.5 826.5 L 1344.6 841.6 L 1323.3 862.3 L 1309.0 878.3 L 1297.5 892.0 L 1287.6 904.1 L 1280.2 909.4 L 1271.2 915.3 L 1263.3 919.1 L 1256.5 916.3" stroke="#000" stroke-width="1.3" stroke-opacity="0.8" fill="none" stroke-linecap="round" stroke-linejoin="round"/>
<path d="M 1383.8 717.2 L 1406.8 720.1 L 1415.2 720.5 L 1430.9 711.1 L 1451.2 673.5 L 1468.2 646.0 L 1470.7 645.0 L 1480.9 645.0 L 1488.1 656.5 L 1493.1 668.0 L 1497.5 686.7 L 1503.9 702.1 L 1507.4 717.3 L 1509.4 728.2 L 1510.1 731.7 L 1508.9 743.0 L 1502.9 753.3 L 1495.9 765.1 L 1493.8 766.6 L 1490.2 784.4 L 1484.1 797.4 L 1474.9 814.1 L 1471.9 817.5 L 1462.9 827.4 L 1455.1 840.0 L 1443.5 852.0 L 1435.9 860.7 L 1429.7 867.4 L 1427.5 871.9" stroke="#000" stroke-width="1.3" stroke-opacity="0.8" fill="none" stroke-linecap="round" stroke-linejoin="round"/>
<path d="M 1451.2 673.5 L 1467.5 675.0 L 1470.8 678.5 L 1472.1 687.1 L 1472.9 694.3 L 1476.4 702.3 L 1478.7 708.7 L 1482.6 718.9 L 1485.1 727.6 L 1484.9 740.4 L 1485.6 750.2 L 1487.4 756.7 L 1490.8 762.2 L 1493.8 766.6" stroke="#000" stroke-width="1.3" stroke-opacity="0.8" fill="none" stroke-linecap="round" stroke-linejoin="round"/>
<path d="M 1430.9 711.1 L 1443.1 734.7 L 1453.6 752.7 L 1458.4 770.8 L 1461.8 785.9 L 1464.0 802.9 L 1464.8 808.5 L 1462.6 820.9 L 1462.9 827.4" stroke="#000" stroke-width="1.3" stroke-opacity="0.8" fill="none" stroke-linecap="round" stroke-linejoin="round"/>
<path d="M 1363.9 880.1 L 1373.1 871.5 L 1386.5 862.7 L 1398.4 854.4 L 1408.9 847.9 L 1422.0 842.1 L 1431.5 836.3 L 1443.1 828.2 L 1450.9 819.2 L 1456.7 809.0 L 1464.0 802.9" stroke="#000" stroke-width="1.3" stroke-opacity="0.8" fill="none" stroke-linecap="round" stroke-linejoin="round"/>
<path d="M 1471.9 817.5 L 1482.5 838.3 L 1473.1 846.9 L 1467.2 850.9 L 1456.9 866.3 L 1454.1 870.4 L 1441.6 869.4 L 1436.3 869.8 L 1432.0 874.7" stroke="#000" stroke-width="1.3" stroke-opacity="0.8" fill="none" stroke-linecap="round" stroke-linejoin="round"/>
<path d="M 1482.5 838.3 L 1494.3 829.2 L 1498.0 822.5 L 1499.7 806.7 L 1503.9 790.8 L 1509.0 776.8 L 1515.7 765.0 L 1518.6 755.5 L 1518.9 751.7 L 1516.9 738.9 L 1516.7 730.7 L 1513.6 727.4 L 1509.4 728.2" stroke="#000" stroke-width="1.3" stroke-opacity="0.8" fill="none" stroke-linecap="round" stroke-linejoin="round"/>
<path d="M 1513.6 727.4 L 1522.6 701.9 L 1528.6 677.1 L 1533.0 657.8 L 1536.3 641.5 L 1541.0 621.1 L 1542.6 604.2 L 1543.6 587.3 L 1547.6 577.2 L 1553.7 573.0 L 1558.4 574.1 L 1560.5 580.5 L 1557.9 594.9 L 1555.5 628.5 L 1553.2 654.5 L 1551.3 681.6 L 1548.3 700.8 L 1543.7 720.8 L 1541.3 732.2 L 1539.3 750.5 L 1536.9 763.1 L 1535.4 770.4 L 1535.4 783.4 L 1533.9 793.5 L 1530.0 804.8 L 1524.6 815.7 L 1518.8 825.6 L 1511.6 836.6 L 1503.0 848.1 L 1499.0 855.9 L 1493.0 860.6 L 1482.7 865.2 L 1472.8 868.2 L 1464.4 870.0 L 1454.1 870.4" stroke="#000" stroke-width="0.7" stroke-opacity="0.55" fill="none" stroke-linecap="round" stroke-linejoin="round"/>
<path d="M 980.2 631.3 L 989.0 661.9 L 990.9 665.1 L 1021.7 714.9 L 1025.3 720.7 L 1028.0 723.2 L 1031.2 725.7 L 1114.4 767.8 L 1118.7 769.2 L 1122.9 770.0 L 1127.5 770.3 L 1133.5 769.9 L 1161.2 765.0 L 1186.6 762.3 L 1210.4 761.0 L 1214.5 761.2 L 1235.9 762.3 L 1265.2 766.1 L 1290.0 768.1 L 1294.0 772.2 L 1287.2 787.5 L 1264.5 818.1 L 1261.7 821.9 L 1244.8 845.6 L 1229.9 868.9 L 1227.4 872.8 L 1206.7 900.0 L 1195.8 913.6 L 1182.6 926.8 L 1164.4 941.8" stroke="#000" stroke-width="1.3" stroke-opacity="0.8" fill="none" stroke-linecap="round" stroke-linejoin="round"/>
<path d="M 1290.0 768.1 L 1318.1 768.1 L 1328.4 773.3" stroke="#000" stroke-width="1.3" stroke-opacity="0.8" fill="none" stroke-linecap="round" stroke-linejoin="round"/>
<path d="M 1093.0 847.0 L 1168.1 818.3 L 1179.8 808.3 L 1201.8 780.3 L 1203.3 778.0 L 1214.5 761.2" stroke="#000" stroke-width="1.3" stroke-opacity="0.8" fill="none" stroke-linecap="round" stroke-linejoin="round"/>
<path d="M 1168.1 818.3 L 1182.7 830.2 L 1229.9 868.9" stroke="#000" stroke-width="1.3" stroke-opacity="0.8" fill="none" stroke-linecap="round" stroke-linejoin="round"/>
<path d="M 1182.7 830.2 L 1172.1 847.4 L 1164.7 861.7 L 1155.3 879.7 L 1140.9 904.9" stroke="#000" stroke-width="1.3" stroke-opacity="0.8" fill="none" stroke-linecap="round" stroke-linejoin="round"/>
<path d="M 1203.3 778.0 L 1261.7 821.9" stroke="#000" stroke-width="1.3" stroke-opacity="0.8" fill="none" stroke-linecap="round" stroke-linejoin="round"/>
<path d="M 973.6 889.3 L 984.5 892.6 L 1016.0 912.8 L 1026.9 922.6 L 1060.0 922.8 L 1086.7 920.7 L 1095.1 919.7 L 1130.4 886.0" stroke="#000" stroke-width="1.3" stroke-opacity="0.8" fill="none" stroke-linecap="round" stroke-linejoin="round"/>
<path d="M 1026.9 922.6 L 1008.4 948.3 L 1004.0 957.2 L 1005.7 970.6 L 1011.7 989.4 L 1011.4 992.0 L 1010.9 995.5 L 981.0 1030.8" stroke="#000" stroke-width="1.3" stroke-opacity="0.8" fill="none" stroke-linecap="round" stroke-linejoin="round"/>
<path d="M 1011.4 992.0 L 1044.5 1009.8 L 1054.7 995.9 L 1065.2 981.4 L 1074.9 969.5 L 1087.0 954.8 L 1098.3 940.6 L 1099.1 931.0 L 1095.1 919.7" stroke="#000" stroke-width="1.3" stroke-opacity="0.8" fill="none" stroke-linecap="round" stroke-linejoin="round"/>
<path d="M 1074.9 969.5 L 1060.5 970.1 L 1055.2 975.3 L 1054.2 984.7 L 1054.7 995.9" stroke="#000" stroke-width="1.3" stroke-opacity="0.8" fill="none" stroke-linecap="round" stroke-linejoin="round"/>
<path d="M 1044.5 1009.8 L 1059.2 1057.3 L 1064.9 1061.9" stroke="#000" stroke-width="1.3" stroke-opacity="0.8" fill="none" stroke-linecap="round" stroke-linejoin="round"/>
<path d="M 936.4 990.6 L 979.9 1022.3 L 984.3 1020.7 L 1004.3 996.9 L 1005.7 983.3 L 999.7 953.8 L 1018.7 925.1 L 1018.5 921.5 L 987.8 897.8 L 977.3 897.8 L 935.8 988.4 L 936.4 990.6" stroke="#000" stroke-width="1" stroke-opacity="0.2" fill="#000" fill-opacity="0.05" stroke-linecap="round" stroke-linejoin="round"/>
<path d="M 1243.5 1089.2 L 1223.9 1095.4" stroke="#000" stroke-width="1.3" stroke-opacity="0.8" fill="none" stroke-linecap="round" stroke-linejoin="round"/>
<path d="M 1295.0 1080.6 L 1298.0 1067.8 L 1299.6 1052.3 L 1312.1 1056.6 L 1322.2 1061.8 L 1335.6 1069.3 L 1349.9 1073.5 L 1361.0 1078.4 L 1368.1 1080.1 L 1370.7 1080.7 L 1396.2 1095.0 L 1407.9 1102.4 L 1423.8 1113.4" stroke="#000" stroke-width="1.3" stroke-opacity="0.8" fill="none" stroke-linecap="round" stroke-linejoin="round"/>
<path d="M 1252.8 1086.9 L 1254.9 1079.4 L 1263.0 1068.8 L 1272.2 1052.0 L 1282.7 1035.8 L 1296.7 1002.9 L 1309.3 987.3 L 1324.8 975.6 L 1340.2 964.2 L 1351.7 958.7 L 1357.1 957.7 L 1366.6 955.8 L 1381.5 955.8 L 1396.4 959.7 L 1400.2 970.2 L 1401.9 987.8 L 1403.1 993.1 L 1405.1 1002.0 L 1411.5 1016.9 L 1420.4 1030.1 L 1428.4 1046.2 L 1432.9 1057.0 L 1442.4 1065.2" stroke="#000" stroke-width="1.3" stroke-opacity="0.8" fill="none" stroke-linecap="round" stroke-linejoin="round"/>
<path d="M 1294.8 1044.5 L 1306.5 1034.2 L 1318.2 1025.2 L 1340.4 1019.5 L 1352.9 1015.0 L 1362.2 1012.8 L 1374.2 1014.2 L 1381.2 1021.2 L 1385.7 1029.0 L 1388.7 1034.7" stroke="#000" stroke-width="1.3" stroke-opacity="0.8" fill="none" stroke-linecap="round" stroke-linejoin="round"/>
<path d="M 1312.1 1056.6 L 1316.3 1054.6 L 1332.3 1040.6 L 1340.3 1036.4 L 1353.7 1033.8" stroke="#000" stroke-width="1.3" stroke-opacity="0.8" fill="none" stroke-linecap="round" stroke-linejoin="round"/>
<path d="M 1400.2 970.2 L 1414.7 976.1 L 1420.6 984.3 L 1425.7 997.4 L 1432.5 1013.2 L 1436.4 1020.5 L 1445.9 1030.2 L 1449.6 1033.9" stroke="#000" stroke-width="1.3" stroke-opacity="0.8" fill="none" stroke-linecap="round" stroke-linejoin="round"/>
<path d="M 1348.7 892.0 L 1359.5 894.1 L 1376.9 892.7 L 1387.7 894.0 L 1398.7 898.7 L 1409.2 905.1 L 1416.8 912.4 L 1425.8 919.6 L 1432.6 929.6 L 1433.5 939.6 L 1432.8 943.9 L 1432.6 947.1 L 1433.9 960.8 L 1435.9 971.2 L 1438.2 984.9 L 1439.4 992.4 L 1445.8 997.9 L 1452.1 1003.9 L 1457.2 1005.9" stroke="#000" stroke-width="1.3" stroke-opacity="0.8" fill="none" stroke-linecap="round" stroke-linejoin="round"/>
<path d="M 1424.8 1111.5 L 1438.5 1117.7 L 1450.0 1122.3 L 1457.2 1126.6 L 1469.6 1129.6 L 1484.0 1131.0 L 1498.0 1136.9 L 1512.4 1143.4 L 1522.1 1145.6" stroke="#000" stroke-width="1.3" stroke-opacity="0.8" fill="none" stroke-linecap="round" stroke-linejoin="round"/>
<path d="M 1424.8 1111.5 L 1440.8 1101.3 L 1454.3 1090.6 L 1460.4 1083.7 L 1470.3 1080.3 L 1485.4 1076.1 L 1499.6 1074.0 L 1506.0 1073.6 L 1512.1 1079.9 L 1517.8 1090.0 L 1523.0 1097.9 L 1527.3 1109.4 L 1529.8 1113.8" stroke="#000" stroke-width="1.3" stroke-opacity="0.8" fill="none" stroke-linecap="round" stroke-linejoin="round"/>
<path d="M 1470.3 1080.3 L 1475.5 1071.8 L 1479.6 1064.9 L 1483.4 1054.6 L 1492.7 1043.9 L 1496.6 1037.4 L 1501.6 1026.9 L 1506.4 1019.6 L 1513.4 1014.6 L 1515.7 1011.4" stroke="#000" stroke-width="1.3" stroke-opacity="0.8" fill="none" stroke-linecap="round" stroke-linejoin="round"/>
<path d="M 1496.6 1037.4 L 1484.6 1030.5 L 1475.0 1028.8 L 1452.2 1027.2" stroke="#000" stroke-width="1.3" stroke-opacity="0.8" fill="none" stroke-linecap="round" stroke-linejoin="round"/>
<path d="M 1266.0 1131.3 L 1289.5 1142.7 L 1306.7 1154.4 L 1315.7 1168.7 L 1325.9 1192.0 L 1333.3 1213.2" stroke="#000" stroke-width="1.3" stroke-opacity="0.8" fill="none" stroke-linecap="round" stroke-linejoin="round"/>
<path d="M 1009.8 741.5 L 958.5 699.4 L 910.1 659.8" stroke="#000" stroke-width="1.3" stroke-opacity="0.8" fill="none" stroke-linecap="round" stroke-linejoin="round"/>
<path d="M 936.1 725.1 L 958.5 699.4 L 990.9 665.1" stroke="#000" stroke-width="1.3" stroke-opacity="0.8" fill="none" stroke-linecap="round" stroke-linejoin="round"/>
<path d="M 990.5 629.5 L 990.0 620.4" stroke="#000" stroke-width="0.7" stroke-opacity="0.55" fill="none" stroke-linecap="round" stroke-linejoin="round"/>
<path d="M 976.9 618.8 L 990.0 620.4 L 1011.1 623.2 L 1013.6 623.6 L 1016.4 624.3 L 1018.7 625.2 L 1020.9 626.4" stroke="#000" stroke-width="1.3" stroke-opacity="0.8" fill="none" stroke-linecap="round" stroke-linejoin="round"/>
<path d="M 980.2 631.3 L 976.9 618.8 L 967.8 599.8" stroke="#000" stroke-width="1.3" stroke-opacity="0.8" fill="none" stroke-linecap="round" stroke-linejoin="round"/>
<path d="M 873.2 687.2 L 877.5 682.4 L 884.0 676.8 L 888.5 673.3 L 893.3 670.2 L 910.1 659.8 L 919.6 654.2 L 929.3 649.1 L 938.3 644.8 L 947.4 640.9 L 962.4 635.9 L 980.2 631.3 L 990.5 629.5 L 996.8 628.4 L 1004.6 627.3 L 1012.5 626.7 L 1020.9 626.4 L 1030.3 626.7 L 1037.2 627.6 L 1044.0 628.7 L 1052.7 630.6 L 1061.2 632.8 L 1140.6 658.0 L 1148.2 659.9 L 1155.8 661.2 L 1164.5 662.1 L 1168.9 662.3 L 1173.3 662.3 L 1179.0 661.8 L 1184.6 660.9 L 1190.1 659.5 L 1222.6 652.9 L 1225.1 652.3 L 1227.7 651.1 L 1230.2 649.5 L 1231.7 648.3" stroke="#000" stroke-width="1.3" stroke-opacity="0.8" fill="none" stroke-linecap="round" stroke-linejoin="round"/>
<path d="M 1021.7 714.9 L 1057.5 687.8" stroke="#000" stroke-width="1.3" stroke-opacity="0.8" fill="none" stroke-linecap="round" stroke-linejoin="round"/>
<path d="M 1122.9 770.0 L 1124.0 749.1 L 1123.8 744.2 L 1123.3 739.3 L 1122.4 733.9 L 1121.2 728.6 L 1119.8 725.3 L 1117.9 722.3 L 1115.3 719.7 L 1112.2 717.7 L 1059.5 689.6 L 1057.5 687.8 L 1055.7 685.9 L 1053.9 683.5 L 1052.3 681.0 L 1031.4 631.6 L 1030.7 629.3 L 1030.3 626.7" stroke="#000" stroke-width="1.3" stroke-opacity="0.8" fill="none" stroke-linecap="round" stroke-linejoin="round"/>
<path d="M 1005.5 775.4 L 1006.6 769.3 L 1008.3 763.3 L 1010.4 757.5 L 1012.6 752.8 L 1015.1 748.2 L 1017.9 743.8 L 1031.2 725.7" stroke="#000" stroke-width="1.3" stroke-opacity="0.8" fill="none" stroke-linecap="round" stroke-linejoin="round"/>
<path d="M 1025.3 720.7 L 1009.8 741.5 L 990.4 767.4" stroke="#000" stroke-width="1.3" stroke-opacity="0.8" fill="none" stroke-linecap="round" stroke-linejoin="round"/>
<path d="M 989.0 661.9 L 980.1 656.5 L 962.4 635.9" stroke="#000" stroke-width="1.3" stroke-opacity="0.8" fill="none" stroke-linecap="round" stroke-linejoin="round"/>
<path d="M 1076.0 824.8 L 1114.4 767.8" stroke="#000" stroke-width="1.3" stroke-opacity="0.8" fill="none" stroke-linecap="round" stroke-linejoin="round"/>
<path d="M 893.9 941.8 L 901.3 939.7 L 904.0 938.6 L 907.2 937.0 L 946.0 909.0 L 967.6 891.7 L 968.8 890.8 L 970.1 890.1 L 971.3 889.6 L 973.6 889.3" stroke="#000" stroke-width="0.7" stroke-opacity="0.55" fill="none" stroke-linecap="round" stroke-linejoin="round"/>
<path d="M 922.4 833.0 L 921.8 835.1 L 921.8 837.6 L 922.3 840.6 L 946.0 909.0" stroke="#000" stroke-width="0.7" stroke-opacity="0.55" fill="none" stroke-linecap="round" stroke-linejoin="round"/>
<path d="M 948.6 841.6 L 955.9 832.8 L 1002.3 781.2 L 1003.6 779.2 L 1004.5 777.6 L 1005.5 775.4" stroke="#000" stroke-width="1.3" stroke-opacity="0.8" fill="none" stroke-linecap="round" stroke-linejoin="round"/>
<path d="M 894.0 821.6 L 900.8 825.0 L 922.4 833.0 L 945.1 839.6 L 946.9 840.5 L 948.6 841.6 L 950.4 843.1 L 951.9 844.9 L 978.3 877.6" stroke="#000" stroke-width="1.3" stroke-opacity="0.8" fill="none" stroke-linecap="round" stroke-linejoin="round"/>
<path d="M 570.2 463.2 L 536.5 432.8" stroke="#000" stroke-width="1.3" stroke-opacity="0.8" fill="none" stroke-linecap="round" stroke-linejoin="round"/>
<path d="M 470.3 374.9 L 536.5 432.8" stroke="#000" stroke-width="1.3" stroke-opacity="0.8" fill="none" stroke-linecap="round" stroke-linejoin="round"/>
<path d="M 470.3 374.9 L 425.4 334.9 L 421.0 330.9 L 400.0 308.8" stroke="#000" stroke-width="1.3" stroke-opacity="0.8" fill="none" stroke-linecap="round" stroke-linejoin="round"/>
<path d="M 631.9 510.5 L 605.9 493.3 L 587.1 478.5 L 579.7 473.8" stroke="#000" stroke-width="1.3" stroke-opacity="0.8" fill="none" stroke-linecap="round" stroke-linejoin="round"/>
<path d="M 586.6 491.2 L 568.3 526.3 L 560.0 542.7 L 548.5 561.1 L 537.1 569.8" stroke="#000" stroke-width="1.3" stroke-opacity="0.8" fill="none" stroke-linecap="round" stroke-linejoin="round"/>
<path d="M 541.9 556.3 L 547.7 546.0 L 577.1 495.8 L 580.2 487.1 L 579.7 473.8 L 575.6 468.4 L 570.2 463.2" stroke="#000" stroke-width="1.3" stroke-opacity="0.8" fill="none" stroke-linecap="round" stroke-linejoin="round"/>
<path d="M 537.1 569.8 L 528.9 571.6 L 511.4 586.4 L 458.7 635.9 L 384.9 703.4 L 378.5 711.7" stroke="#000" stroke-width="1.3" stroke-opacity="0.8" fill="none" stroke-linecap="round" stroke-linejoin="round"/>
<path d="M 323.9 417.2 L 328.5 404.6 L 345.6 383.1 L 354.0 377.8 L 374.0 372.8 L 386.5 364.6 L 421.0 330.9" stroke="#000" stroke-width="1.3" stroke-opacity="0.8" fill="none" stroke-linecap="round" stroke-linejoin="round"/>
<path d="M 374.0 372.8 L 376.7 380.1 L 381.7 387.6 L 402.3 404.9 L 428.2 423.8 L 461.7 455.7 L 496.7 486.7 L 502.0 491.4" stroke="#000" stroke-width="1.3" stroke-opacity="0.8" fill="none" stroke-linecap="round" stroke-linejoin="round"/>
<path d="M 891.1 1062.9 L 857.4 1036.5 L 836.5 1020.2" stroke="#000" stroke-width="1.3" stroke-opacity="0.8" fill="none" stroke-linecap="round" stroke-linejoin="round"/>
<path d="M 688.0 506.7 L 673.9 502.1 L 660.4 491.4 L 636.8 460.6 L 635.0 443.5 L 649.3 400.6 L 667.9 363.5 L 687.5 333.1 L 735.0 243.1 L 758.2 233.5 L 775.0 220.6 L 793.2 215.6 L 807.9 223.8 L 826.5 230.3" stroke="#000" stroke-width="1.3" stroke-opacity="0.8" fill="none" stroke-linecap="round" stroke-linejoin="round"/>
<path d="M 584.9 1290.3 L 544.9 1318.6" stroke="#000" stroke-width="1.3" stroke-opacity="0.8" fill="none" stroke-linecap="round" stroke-linejoin="round"/>
<path d="M 567.7 1334.8 L 583.7 1303.5 L 584.9 1290.3" stroke="#000" stroke-width="1.3" stroke-opacity="0.8" fill="none" stroke-linecap="round" stroke-linejoin="round"/>
<path d="M 601.9 1237.9 L 612.4 1231.0 L 623.2 1217.2 L 637.9 1202.3 L 653.7 1188.1 L 660.8 1181.8 L 662.9 1181.7 L 664.7 1181.7 L 667.7 1186.3 L 669.4 1196.1 L 667.2 1211.7 L 663.8 1222.8 L 662.8 1226.2 L 658.8 1235.1 L 645.9 1251.7 L 630.7 1262.1 L 614.6 1267.0 L 606.8 1265.4 L 605.2 1263.8" stroke="#000" stroke-width="0.7" stroke-opacity="0.55" fill="none" stroke-linecap="round" stroke-linejoin="round"/>
<path d="M 663.8 1222.8 L 673.8 1214.5 L 684.4 1207.7 L 695.1 1203.3 L 697.6 1201.3 L 695.2 1196.3 L 675.2 1172.6 L 672.0 1172.4 L 662.9 1181.7" stroke="#000" stroke-width="0.7" stroke-opacity="0.55" fill="none" stroke-linecap="round" stroke-linejoin="round"/>
<path d="M 873.8 969.0 L 821.5 944.7 L 801.3 940.0 L 793.2 940.9 L 789.5 944.1 L 766.0 984.6" stroke="#000" stroke-width="1.3" stroke-opacity="0.8" fill="none" stroke-linecap="round" stroke-linejoin="round"/>
<path d="M 854.3 886.4 L 821.5 944.7 L 787.2 998.4" stroke="#000" stroke-width="1.3" stroke-opacity="0.8" fill="none" stroke-linecap="round" stroke-linejoin="round"/>
<path d="M 816.1 851.2 L 735.3 968.9" stroke="#000" stroke-width="1.3" stroke-opacity="0.8" fill="none" stroke-linecap="round" stroke-linejoin="round"/>
<path d="M 786.0 813.5 L 746.8 860.7 L 728.6 886.4 L 694.8 944.9" stroke="#000" stroke-width="1.3" stroke-opacity="0.8" fill="none" stroke-linecap="round" stroke-linejoin="round"/>
<path d="M 692.3 839.3 L 641.2 797.0" stroke="#000" stroke-width="1.3" stroke-opacity="0.8" fill="none" stroke-linecap="round" stroke-linejoin="round"/>
<path d="M 643.9 913.8 L 692.3 839.3 L 757.8 769.6" stroke="#000" stroke-width="1.3" stroke-opacity="0.8" fill="none" stroke-linecap="round" stroke-linejoin="round"/>
<path d="M 787.2 998.4 L 762.3 1040.4 L 758.8 1051.3 L 757.3 1062.4 L 757.3 1071.1 L 760.9 1078.1 L 780.0 1091.9" stroke="#000" stroke-width="1.3" stroke-opacity="0.8" fill="none" stroke-linecap="round" stroke-linejoin="round"/>
<path d="M 720.7 1141.1 L 724.7 1102.9 L 726.4 1081.1 L 729.5 1063.3 L 734.5 1046.1 L 742.9 1022.9 L 766.0 984.6" stroke="#000" stroke-width="1.3" stroke-opacity="0.8" fill="none" stroke-linecap="round" stroke-linejoin="round"/>
<path d="M 735.3 968.9 L 669.4 1104.4" stroke="#000" stroke-width="1.3" stroke-opacity="0.8" fill="none" stroke-linecap="round" stroke-linejoin="round"/>
<path d="M 694.8 944.9 L 629.4 1062.5" stroke="#000" stroke-width="1.3" stroke-opacity="0.8" fill="none" stroke-linecap="round" stroke-linejoin="round"/>
<path d="M 595.7 1031.6 L 657.6 921.9" stroke="#000" stroke-width="1.3" stroke-opacity="0.8" fill="none" stroke-linecap="round" stroke-linejoin="round"/>
<path d="M 846.8 358.0 L 852.9 343.7 L 860.4 331.8 L 869.5 326.8 L 881.1 323.8 L 907.0 323.8 L 925.9 324.0 L 936.4 326.8 L 946.8 333.9 L 958.3 344.9 L 972.2 360.1 L 989.9 379.7 L 999.2 395.7 L 1014.9 419.3 L 1036.2 444.5 L 1071.6 483.6 L 1107.8 523.2 L 1117.0 540.2 L 1142.7 610.5" stroke="#000" stroke-width="1.3" stroke-opacity="0.8" fill="none" stroke-linecap="round" stroke-linejoin="round"/>
<path d="M 467.6 841.6 L 480.3 827.4 L 486.9 813.9 L 491.9 794.1 L 493.5 774.3 L 493.2 765.8" stroke="#000" stroke-width="1.3" stroke-opacity="0.8" fill="none" stroke-linecap="round" stroke-linejoin="round"/>
<path d="M 459.1 833.8 L 439.1 856.9 L 421.9 874.6" stroke="#000" stroke-width="1.3" stroke-opacity="0.8" fill="none" stroke-linecap="round" stroke-linejoin="round"/>
<path d="M 547.1 778.5 L 558.5 789.9 L 569.2 799.3 L 579.4 806.8 L 587.6 810.9 L 593.6 810.0 L 598.7 806.3 L 602.0 798.3 L 605.5 788.2" stroke="#000" stroke-width="1.3" stroke-opacity="0.8" fill="none" stroke-linecap="round" stroke-linejoin="round"/>
<path d="M 532.4 819.8 L 542.6 827.6 L 548.1 834.2 L 550.4 843.3 L 550.9 855.9 L 553.7 861.5 L 565.2 867.9 L 583.2 877.6 L 591.8 883.0" stroke="#000" stroke-width="1.3" stroke-opacity="0.8" fill="none" stroke-linecap="round" stroke-linejoin="round"/>
<path d="M 778.7 682.9 L 808.9 718.5 L 814.3 725.7 L 817.3 727.7 L 823.7 725.4 L 873.5 702.9 L 879.7 697.2 L 883.1 692.5" stroke="#000" stroke-width="1.3" stroke-opacity="0.8" fill="none" stroke-linecap="round" stroke-linejoin="round"/>
<path d="M 805.5 764.0 L 789.5 740.6 L 787.5 737.1 L 789.4 733.2 L 808.9 718.5" stroke="#000" stroke-width="1.3" stroke-opacity="0.8" fill="none" stroke-linecap="round" stroke-linejoin="round"/>
<path d="M 772.1 791.6 L 792.8 775.5 L 805.5 764.0 L 839.0 753.2 L 857.5 746.0 L 862.1 745.3 L 866.6 747.8 L 877.7 759.7" stroke="#000" stroke-width="1.3" stroke-opacity="0.8" fill="none" stroke-linecap="round" stroke-linejoin="round"/>
<path d="M 794.4 1122.3 L 797.3 1111.9 L 811.3 1092.5 L 840.1 1055.3 L 857.4 1036.5" stroke="#000" stroke-width="1.3" stroke-opacity="0.8" fill="none" stroke-linecap="round" stroke-linejoin="round"/>
<path d="M 755.2 1128.7 L 766.8 1130.0 L 794.4 1122.3 L 814.4 1124.0 L 841.3 1127.8 L 859.3 1132.9" stroke="#000" stroke-width="1.3" stroke-opacity="0.8" fill="none" stroke-linecap="round" stroke-linejoin="round"/>
<path d="M 730.2 1244.0 L 722.7 1259.9 L 717.1 1273.5" stroke="#000" stroke-width="1.3" stroke-opacity="0.8" fill="none" stroke-linecap="round" stroke-linejoin="round"/>
<path d="M 701.5 1219.0 L 704.6 1227.0 L 711.3 1232.6 L 730.2 1244.0 L 740.7 1242.2 L 762.7 1231.3 L 778.4 1224.7 L 783.4 1222.5 L 788.7 1223.0 L 794.0 1226.5 L 802.5 1234.9 L 833.0 1262.9 L 840.8 1267.9" stroke="#000" stroke-width="1.3" stroke-opacity="0.8" fill="none" stroke-linecap="round" stroke-linejoin="round"/>
<path d="M 673.6 1249.4 L 692.0 1258.2 L 717.1 1273.5 L 733.7 1287.5 L 747.0 1301.1 L 773.6 1324.6 L 798.6 1347.1" stroke="#000" stroke-width="1.3" stroke-opacity="0.8" fill="none" stroke-linecap="round" stroke-linejoin="round"/>
<path d="M 773.6 1324.6 L 753.9 1351.6 L 724.1 1393.3 L 720.8 1397.8 L 715.6 1401.9 L 712.1 1403.2 L 687.6 1385.7 L 685.1 1381.1 L 685.6 1376.0 L 689.5 1370.5 L 704.4 1354.1 L 715.5 1339.1 L 736.5 1314.8 L 747.0 1301.1 L 771.7 1272.7 L 802.5 1234.9" stroke="#000" stroke-width="1.3" stroke-opacity="0.8" fill="none" stroke-linecap="round" stroke-linejoin="round"/>
<path d="M 742.3 1154.0 L 730.8 1176.7 L 723.4 1193.1 L 718.1 1201.9 L 711.6 1210.5 L 701.5 1219.0 L 691.9 1223.7 L 683.2 1229.0 L 677.9 1236.6 L 673.6 1249.4 L 670.5 1259.9 L 669.5 1280.7 L 669.5 1295.8 L 670.8 1302.6 L 675.1 1308.8 L 691.6 1321.0 L 715.5 1339.1" stroke="#000" stroke-width="1.3" stroke-opacity="0.8" fill="none" stroke-linecap="round" stroke-linejoin="round"/>
<path d="M 1196.3 996.8 L 1184.9 1003.7 L 1174.9 1011.0 L 1165.3 1019.3 L 1154.9 1023.1 L 1130.3 1031.2 L 1098.0 1040.4 L 1088.6 1040.9 L 1084.0 1037.3" stroke="#000" stroke-width="1.3" stroke-opacity="0.8" fill="none" stroke-linecap="round" stroke-linejoin="round"/>
<path d="M 1149.7 1079.2 L 1168.1 1061.6 L 1181.7 1046.5 L 1191.7 1035.0" stroke="#000" stroke-width="1.3" stroke-opacity="0.8" fill="none" stroke-linecap="round" stroke-linejoin="round"/>
<path d="M 1127.5 1132.3 L 1127.2 1125.3 L 1130.7 1118.6 L 1142.4 1104.5 L 1151.7 1092.9 L 1157.1 1086.1 L 1173.5 1067.4 L 1187.2 1052.3 L 1195.3 1044.8" stroke="#000" stroke-width="1.3" stroke-opacity="0.8" fill="none" stroke-linecap="round" stroke-linejoin="round"/>
<path d="M 1010.0 1147.9 L 1021.3 1145.2 L 1040.7 1129.5 L 1065.3 1110.4 L 1083.6 1096.2 L 1096.1 1090.8 L 1114.9 1084.7 L 1134.0 1081.0 L 1143.6 1078.6 L 1149.7 1079.2 L 1157.1 1086.1" stroke="#000" stroke-width="1.3" stroke-opacity="0.8" fill="none" stroke-linecap="round" stroke-linejoin="round"/>
<path d="M 1070.3 1244.0 L 1093.6 1273.0" stroke="#000" stroke-width="1.3" stroke-opacity="0.8" fill="none" stroke-linecap="round" stroke-linejoin="round"/>
<path d="M 1162.1 1150.8 L 1175.8 1179.2" stroke="#000" stroke-width="1.3" stroke-opacity="0.8" fill="none" stroke-linecap="round" stroke-linejoin="round"/>
<path d="M 1081.0 1217.1 L 1097.9 1203.9 L 1126.0 1179.2 L 1148.3 1158.7 L 1162.1 1150.8 L 1199.6 1128.8" stroke="#000" stroke-width="1.3" stroke-opacity="0.8" fill="none" stroke-linecap="round" stroke-linejoin="round"/>
<path d="M 1016.0 1307.0 L 1038.6 1280.8 L 1059.9 1256.5 L 1070.3 1244.0 L 1081.0 1217.1 L 1078.1 1206.9 L 1085.4 1181.9 L 1093.5 1167.1 L 1104.9 1150.6 L 1106.3 1140.5" stroke="#000" stroke-width="1.3" stroke-opacity="0.8" fill="none" stroke-linecap="round" stroke-linejoin="round"/>
<path d="M 927.3 1241.3 L 948.1 1233.1 L 973.2 1226.8 L 998.5 1221.5 L 1009.4 1222.0 L 1015.2 1225.2" stroke="#000" stroke-width="1.3" stroke-opacity="0.8" fill="none" stroke-linecap="round" stroke-linejoin="round"/>
<path d="M 918.7 1190.9 L 921.7 1211.6 L 927.3 1241.3 L 928.8 1257.4 L 936.2 1274.2 L 944.9 1293.3" stroke="#000" stroke-width="1.3" stroke-opacity="0.8" fill="none" stroke-linecap="round" stroke-linejoin="round"/>
<path d="M 882.7 1198.4 L 881.3 1215.9 L 878.7 1232.6 L 877.9 1240.3 L 882.5 1252.4 L 896.7 1283.5 L 907.8 1311.1 L 911.3 1320.9 L 917.8 1329.6 L 932.0 1336.2 L 960.1 1354.2 L 999.6 1379.9" stroke="#000" stroke-width="1.3" stroke-opacity="0.8" fill="none" stroke-linecap="round" stroke-linejoin="round"/>
<path d="M 920.4 1106.9 L 924.0 1094.0 L 945.8 1062.9 L 972.9 1024.5" stroke="#000" stroke-width="1.3" stroke-opacity="0.8" fill="none" stroke-linecap="round" stroke-linejoin="round"/>
<path d="M 870.4 1092.9 L 891.3 1106.0 L 905.2 1109.5 L 920.4 1106.9 L 935.4 1109.0 L 964.0 1110.8 L 978.6 1110.3 L 990.6 1106.0 L 1005.2 1089.7 L 1022.8 1064.9" stroke="#000" stroke-width="1.3" stroke-opacity="0.8" fill="none" stroke-linecap="round" stroke-linejoin="round"/>
<path d="M 1083.6 1096.2 L 1083.7 1089.7 L 1087.2 1075.9 L 1088.4 1067.9" stroke="#000" stroke-width="0.7" stroke-opacity="0.55" fill="none" stroke-linecap="round" stroke-linejoin="round"/>
<path d="M 1434.6 879.9 L 1442.6 880.7 L 1455.4 885.8 L 1464.7 891.5 L 1467.9 900.1 L 1471.6 912.1 L 1473.5 925.5 L 1471.1 934.1" stroke="#000" stroke-width="0.7" stroke-opacity="0.55" fill="none" stroke-linecap="round" stroke-linejoin="round"/>
<path d="M 1454.7 975.9 L 1464.4 970.9 L 1483.2 954.1 L 1494.8 940.8 L 1500.1 932.4 L 1509.9 914.7 L 1515.1 900.9" stroke="#000" stroke-width="0.7" stroke-opacity="0.55" fill="none" stroke-linecap="round" stroke-linejoin="round"/>
<path d="M 1457.4 995.4 L 1462.5 993.5 L 1467.8 987.3 L 1477.3 977.6 L 1486.4 971.2 L 1493.0 964.1 L 1498.8 959.7" stroke="#000" stroke-width="0.7" stroke-opacity="0.55" fill="none" stroke-linecap="round" stroke-linejoin="round"/>
<path d="M 1502.2 1003.8 L 1502.0 998.3 L 1504.0 991.2 L 1506.6 985.1" stroke="#000" stroke-width="0.7" stroke-opacity="0.55" fill="none" stroke-linecap="round" stroke-linejoin="round"/>
<path d="M 1552.9 1012.4 L 1551.3 1008.0 L 1544.5 1002.1 L 1541.4 996.8 L 1539.8 988.9" stroke="#000" stroke-width="0.7" stroke-opacity="0.55" fill="none" stroke-linecap="round" stroke-linejoin="round"/>
<path d="M 1455.6 1013.4 L 1468.1 1012.4 L 1484.8 1008.4 L 1493.1 1005.0 L 1502.2 1003.8 L 1508.3 1007.0 L 1515.7 1011.4 L 1523.0 1012.4 L 1533.4 1010.3 L 1543.0 1009.8 L 1552.9 1012.4" stroke="#000" stroke-width="1.3" stroke-opacity="0.8" fill="none" stroke-linecap="round" stroke-linejoin="round"/>
<path d="M 1403.1 993.1 L 1400.6 996.8 L 1399.4 1004.4 L 1396.8 1015.0 L 1388.7 1034.7 L 1368.1 1080.1" stroke="#000" stroke-width="1.3" stroke-opacity="0.8" fill="none" stroke-linecap="round" stroke-linejoin="round"/>
<path d="M 1354.6 1152.6 L 1355.0 1147.8 L 1351.7 1143.2 L 1350.2 1139.1 L 1352.1 1135.2 L 1355.9 1129.4 L 1357.7 1122.2 L 1357.6 1113.9" stroke="#000" stroke-width="0.7" stroke-opacity="0.55" fill="none" stroke-linecap="round" stroke-linejoin="round"/>
<path d="M 1299.6 1052.3 L 1294.8 1044.5 L 1282.7 1035.8" stroke="#000" stroke-width="1.3" stroke-opacity="0.8" fill="none" stroke-linecap="round" stroke-linejoin="round"/>
<path d="M 1357.1 957.7 L 1358.9 950.0 L 1364.8 938.7 L 1371.3 930.7 L 1375.7 923.6" stroke="#000" stroke-width="0.7" stroke-opacity="0.55" fill="none" stroke-linecap="round" stroke-linejoin="round"/>
<path d="M 1415.4 1202.0 L 1423.7 1179.9 L 1439.8 1155.1 L 1446.9 1141.0 L 1457.2 1126.6" stroke="#000" stroke-width="1.3" stroke-opacity="0.8" fill="none" stroke-linecap="round" stroke-linejoin="round"/>
<path d="M 1403.1 1148.7 L 1406.9 1154.0 L 1414.4 1165.1 L 1423.7 1179.9" stroke="#000" stroke-width="1.3" stroke-opacity="0.8" fill="none" stroke-linecap="round" stroke-linejoin="round"/>
<path d="M 1410.4 1199.9 L 1406.1 1206.4 L 1393.9 1221.4 L 1376.3 1244.5" stroke="#000" stroke-width="0.7" stroke-opacity="0.55" fill="none" stroke-linecap="round" stroke-linejoin="round"/>
<path d="M 725.7 110.4 L 740.6 108.9 L 761.3 108.9" stroke="#000" stroke-width="0.7" stroke-opacity="0.55" fill="none" stroke-linecap="round" stroke-linejoin="round"/>
<path d="M 425.4 334.9 L 444.5 313.4 L 462.7 293.5 L 481.6 274.9 L 496.0 263.0 L 511.8 252.8 L 521.4 247.4 L 534.0 245.8 L 560.1 245.7 L 568.7 246.2 L 577.2 250.7 L 581.9 256.3 L 585.6 263.4 L 589.8 267.9 L 595.3 268.0 L 606.8 262.9 L 629.3 248.1 L 663.5 219.5 L 690.0 192.8 L 715.1 173.0 L 727.7 168.5 L 735.7 165.1 L 739.5 161.2 L 740.0 152.9 L 736.2 142.6 L 725.7 110.4 L 712.0 76.4 L 706.4 62.8" stroke="#000" stroke-width="1.3" stroke-opacity="0.8" fill="none" stroke-linecap="round" stroke-linejoin="round"/>
<path d="M 1233.2 374.2 L 1190.1 324.6 L 1159.7 290.6 L 1159.6 290.5 L 1134.5 261.7 L 1115.6 244.4 L 1092.9 220.0 L 1088.1 214.3 L 1089.6 208.5 L 1093.3 205.2 L 1095.7 202.2 L 1095.0 198.8 L 1092.1 194.9 L 1047.0 164.2 L 1015.3 140.2 L 981.7 113.6 L 942.7 99.2 L 888.8 79.3 L 853.3 70.0 L 817.8 63.8 L 774.5 60.3 L 735.3 61.6 L 717.2 61.7 L 706.4 62.8" stroke="#000" stroke-width="0.7" stroke-opacity="0.55" fill="none" stroke-linecap="round" stroke-linejoin="round"/>
<path d="M 621.0 102.3 L 610.0 86.6 L 594.8 66.6" stroke="#000" stroke-width="1.3" stroke-opacity="0.8" fill="none" stroke-linecap="round" stroke-linejoin="round"/>
<path d="M 442.7 190.9 L 453.3 200.5 L 465.0 209.7 L 473.7 215.0 L 480.8 215.2 L 492.6 211.6 L 510.2 198.6 L 544.5 167.7 L 582.1 132.5 L 610.1 111.9 L 621.0 102.3 L 662.3 82.9 L 698.5 65.8 L 706.4 62.8" stroke="#000" stroke-width="1.3" stroke-opacity="0.8" fill="none" stroke-linecap="round" stroke-linejoin="round"/>
<path d="M 669.3 3.2 L 698.6 41.1 L 705.4 53.3 L 706.4 62.8" stroke="#000" stroke-width="1.3" stroke-opacity="0.8" fill="none" stroke-linecap="round" stroke-linejoin="round"/>
<path d="M 778.4 9.6 L 788.2 14.4 L 796.7 20.0 L 800.7 22.3 L 804.8 22.3 L 807.0 20.5" stroke="#000" stroke-width="0.7" stroke-opacity="0.55" fill="none" stroke-linecap="round" stroke-linejoin="round"/>
<path d="M 1015.3 140.2 L 1026.6 141.1 L 1053.6 157.5 L 1082.5 171.0 L 1109.1 187.9 L 1148.1 215.6 L 1174.8 235.5 L 1197.2 253.6 L 1209.9 265.4 L 1217.9 270.3 L 1226.6 271.4 L 1234.2 267.8 L 1252.8 250.0 L 1256.4 233.5 L 1264.1 225.6 L 1277.6 220.1 L 1286.0 221.3 L 1292.6 231.1 L 1299.4 250.6 L 1301.2 271.7 L 1293.2 308.7 L 1291.0 328.5 L 1293.7 348.8 L 1303.2 375.5 L 1309.8 401.7 L 1315.3 412.6 L 1329.4 426.2 L 1340.5 434.0 L 1348.9 435.5 L 1360.9 430.6 L 1379.1 423.1 L 1415.7 416.0 L 1430.2 413.3 L 1438.5 405.8 L 1444.6 396.2 L 1455.5 386.1 L 1470.7 378.8 L 1508.7 372.4 L 1557.0 369.6 L 1583.9 373.7 L 1610.0 381.3 L 1627.3 392.6 L 1659.0 413.0 L 1691.3 429.4 L 1710.2 437.6 L 1731.8 442.1 L 1754.7 443.5" stroke="#000" stroke-width="0.5" stroke-opacity="0.35" fill="none" stroke-linecap="round" stroke-linejoin="round"/>
<path d="M 1236.5 324.4 L 1247.1 319.5 L 1261.0 303.8" stroke="#000" stroke-width="0.7" stroke-opacity="0.55" fill="none" stroke-linecap="round" stroke-linejoin="round"/>
<path d="M 1228.6 314.5 L 1255.2 290.3" stroke="#000" stroke-width="0.7" stroke-opacity="0.55" fill="none" stroke-linecap="round" stroke-linejoin="round"/>
<path d="M 1149.6 237.6 L 1181.9 271.5 L 1204.8 295.7 L 1217.7 303.7 L 1228.6 314.5 L 1236.5 324.4 L 1240.7 329.7" stroke="#000" stroke-width="0.7" stroke-opacity="0.55" fill="none" stroke-linecap="round" stroke-linejoin="round"/>
<path d="M 1159.7 290.6 L 1181.9 271.5" stroke="#000" stroke-width="0.7" stroke-opacity="0.55" fill="none" stroke-linecap="round" stroke-linejoin="round"/>
<path d="M 806.4 338.6 L 806.5 332.3 L 809.2 324.5 L 816.1 313.2" stroke="#000" stroke-width="0.7" stroke-opacity="0.55" fill="none" stroke-linecap="round" stroke-linejoin="round"/>
<path d="M 798.8 437.4 L 788.1 418.9 L 770.1 390.9 L 759.2 379.9 L 754.6 371.4" stroke="#000" stroke-width="1.3" stroke-opacity="0.8" fill="none" stroke-linecap="round" stroke-linejoin="round"/>
<path d="M 728.3 421.4 L 732.9 401.0 L 738.8 386.3 L 745.0 376.2 L 754.6 371.4 L 770.5 364.1 L 789.8 348.9 L 800.9 341.5 L 806.4 338.6 L 811.8 339.3" stroke="#000" stroke-width="1.3" stroke-opacity="0.8" fill="none" stroke-linecap="round" stroke-linejoin="round"/>
<path d="M 1107.8 523.2 L 1111.5 516.5 L 1115.8 505.5 L 1116.9 494.3 L 1114.2 475.5 L 1110.8 458.4 L 1106.8 449.2 L 1094.4 435.6 L 1078.7 418.4 L 1074.9 415.4 L 1070.5 413.9 L 1065.4 415.9 L 1057.8 422.4 L 1041.6 438.7 L 1036.2 444.5" stroke="#000" stroke-width="1.3" stroke-opacity="0.8" fill="none" stroke-linecap="round" stroke-linejoin="round"/>
<path d="M 989.5 536.2 L 986.1 542.0 L 985.2 546.6 L 986.0 550.4" stroke="#000" stroke-width="1.3" stroke-opacity="0.8" fill="none" stroke-linecap="round" stroke-linejoin="round"/>
<path d="M 1000.5 548.1 L 999.9 544.8 L 995.1 539.6 L 989.5 536.2" stroke="#000" stroke-width="1.3" stroke-opacity="0.8" fill="none" stroke-linecap="round" stroke-linejoin="round"/>
<path d="M 946.7 487.5 L 957.5 494.4 L 975.6 516.9 L 987.3 530.8 L 989.5 536.2" stroke="#000" stroke-width="1.3" stroke-opacity="0.8" fill="none" stroke-linecap="round" stroke-linejoin="round"/>
<path d="M 951.7 557.5 L 960.0 554.8 L 973.3 552.1 L 986.0 550.4 L 1000.5 548.1 L 1031.3 544.2 L 1046.1 543.6 L 1055.0 539.8" stroke="#000" stroke-width="1.3" stroke-opacity="0.8" fill="none" stroke-linecap="round" stroke-linejoin="round"/>
<path d="M 983.5 597.2 L 965.2 566.6 L 960.0 554.8" stroke="#000" stroke-width="1.3" stroke-opacity="0.8" fill="none" stroke-linecap="round" stroke-linejoin="round"/>
<path d="M 940.4 610.2 L 938.4 604.3 L 939.7 596.5 L 944.5 585.2 L 952.5 575.1 L 955.7 568.4 L 954.7 562.1 L 951.7 557.5 L 938.4 533.4 L 934.8 527.1 L 930.9 522.1" stroke="#000" stroke-width="1.3" stroke-opacity="0.8" fill="none" stroke-linecap="round" stroke-linejoin="round"/>
<path d="M 1121.2 728.6 L 1126.3 722.3 L 1130.5 716.0 L 1136.1 712.5 L 1149.6 712.7 L 1185.9 712.9 L 1222.6 712.9 L 1246.3 715.4 L 1268.3 716.0 L 1295.7 721.9 L 1305.8 723.0 L 1310.9 721.5" stroke="#000" stroke-width="0.7" stroke-opacity="0.55" fill="none" stroke-linecap="round" stroke-linejoin="round"/>
<path d="M 1016.0 912.8 L 1049.1 878.3 L 1087.1 839.2" stroke="#000" stroke-width="1.3" stroke-opacity="0.8" fill="none" stroke-linecap="round" stroke-linejoin="round"/>
<path d="M 1269.8 1289.4 L 1232.6 1252.3 L 1203.1 1221.2" stroke="#000" stroke-width="0.7" stroke-opacity="0.55" fill="none" stroke-linecap="round" stroke-linejoin="round"/>
<path d="M 478.9 1189.4 L 479.6 1205.1 L 486.5 1231.5 L 488.7 1237.2 L 493.1 1240.7 L 502.0 1242.5 L 541.2 1241.4 L 573.0 1240.6 L 579.7 1239.7 L 582.9 1235.3 L 583.5 1225.0 L 583.2 1200.2" stroke="#000" stroke-width="1.3" stroke-opacity="0.8" fill="none" stroke-linecap="round" stroke-linejoin="round"/>
<path d="M 402.6 1081.8 L 459.6 1129.5" stroke="#000" stroke-width="1.3" stroke-opacity="0.8" fill="none" stroke-linecap="round" stroke-linejoin="round"/>
<path d="M 345.0 962.9 L 388.4 995.4" stroke="#000" stroke-width="1.3" stroke-opacity="0.8" fill="none" stroke-linecap="round" stroke-linejoin="round"/>
<path d="M 225.7 1014.4 L 248.1 1009.9 L 258.5 1003.1 L 265.1 991.5 L 281.2 955.8 L 284.1 942.4" stroke="#000" stroke-width="1.3" stroke-opacity="0.8" fill="none" stroke-linecap="round" stroke-linejoin="round"/>
<path d="M 250.1 1084.8 L 299.7 1019.9 L 334.0 975.5" stroke="#000" stroke-width="1.3" stroke-opacity="0.8" fill="none" stroke-linecap="round" stroke-linejoin="round"/>
<path d="M 462.1 774.8 L 492.6 738.1 L 513.9 708.5 L 538.7 664.9 L 564.2 618.4 L 589.4 585.0 L 595.9 575.8 L 608.6 566.4 L 614.0 556.0" stroke="#000" stroke-width="1.3" stroke-opacity="0.8" fill="none" stroke-linecap="round" stroke-linejoin="round"/>
<path d="M 607.5 647.5 L 618.5 656.1" stroke="#000" stroke-width="1.3" stroke-opacity="0.8" fill="none" stroke-linecap="round" stroke-linejoin="round"/>
<path d="M 530.0 751.1 L 528.7 744.9 L 537.8 731.8 L 554.1 711.9 L 572.1 692.7 L 587.9 672.6 L 607.5 647.5 L 620.3 633.4 L 642.6 617.2 L 659.0 604.1" stroke="#000" stroke-width="1.3" stroke-opacity="0.8" fill="none" stroke-linecap="round" stroke-linejoin="round"/>
<path d="M 451.2 533.2 L 390.5 482.8 L 329.0 430.5 L 324.2 424.4 L 323.9 417.2" stroke="#000" stroke-width="1.3" stroke-opacity="0.8" fill="none" stroke-linecap="round" stroke-linejoin="round"/>
<path d="M 615.2 338.3 L 592.3 376.5 L 572.5 409.4 L 559.9 427.9 L 550.0 437.9 L 539.2 456.7 L 517.6 478.2 L 502.0 491.4" stroke="#000" stroke-width="1.3" stroke-opacity="0.8" fill="none" stroke-linecap="round" stroke-linejoin="round"/>
<path d="M 461.7 455.7 L 497.6 417.2" stroke="#000" stroke-width="0.7" stroke-opacity="0.55" fill="none" stroke-linecap="round" stroke-linejoin="round"/>
  
    <g stroke="#000" fill="none" stroke-width="2.9952">
      <circle cx="936" cy="702" r="16.848"/>
      <circle cx="936" cy="702" r="3.744" fill="#000" stroke="none"/>
    </g>
  <rect width="100%" height="100%" fill="url(#vignette)"/>
  
    <g transform="translate(1776, 116)" stroke="#000" stroke-width="2.2464" fill="#000">
      <line x1="0" y1="37.44" x2="0" y2="-37.44"/>
      <path d="M 0 -37.44 L 13.104 -13.104 L 0 -22.464 L -13.104 -13.104 Z"/>
      <text x="0" y="59.44" text-anchor="middle" font-family="Georgia, serif" font-size="22.464000000000002">N</text>
    </g>
  <rect x="66" y="66" width="1740" height="1272" fill="none" stroke="#000" stroke-width="2" stroke-opacity="0.7"/>
  <rect x="74" y="74" width="1724" height="1256" fill="none" stroke="#000" stroke-width="1" stroke-opacity="0.4"/>
  
</svg>