<svg xmlns="http://www.w3.org/2000/svg" width="1872" height="1404" viewBox="0 0 1872 1404">
  <defs>
    <radialGradient id="vignette" cx="50%" cy="50%" r="954.72" gradientUnits="userSpaceOnUse">
      <stop offset="55%" stop-color="#fff" stop-opacity="0"/>
      <stop offset="100%" stop-color="#fff" stop-opacity="1"/>
    </radialGradient>
  </defs>
  <rect width="100%" height="100%" fill="#fff"/>
  <path d="M 900.6 31.8 L 912.6 3.6 L 993.8 -186.1 L 1042.7 -300.4 L 1048.6 -314.2 L 1058.9 -338.5 L 1120.5 -482.4 L 1161.8 -578.9 L 1219.4 -713.6 L 1239.7 -761.2 L 1249.1 -783.0 L 1264.8 -819.7 L 1293.1 -886.0 L 1293.8 -929.1 L 1294.7 -979.8" stroke="#000" stroke-width="1.3" stroke-opacity="0.8" fill="none" stroke-linecap="round" stroke-linejoin="round"/>
<path d="M 783.6 143.5 L 791.9 127.8 L 797.6 119.0 L 803.8 112.0 L 853.6 63.5 L 864.4 53.9 L 875.1 45.7 L 885.9 39.0 L 900.6 31.8" stroke="#000" stroke-width="1.3" stroke-opacity="0.8" fill="none" stroke-linecap="round" stroke-linejoin="round"/>
<path d="M 988.4 13.8 L 1062.0 -155.2 L 1121.1 -290.0 L 1128.8 -308.2" stroke="#000" stroke-width="1.3" stroke-opacity="0.8" fill="none" stroke-linecap="round" stroke-linejoin="round"/>
<path d="M 549.9 717.8 L 628.4 735.1 L 708.5 751.3 L 718.4 751.8 L 726.5 753.3 L 790.5 773.0 L 868.7 794.7" stroke="#000" stroke-width="1.3" stroke-opacity="0.8" fill="none" stroke-linecap="round" stroke-linejoin="round"/>
<path d="M 861.8 440.7 L 853.1 434.5 L 841.4 424.9 L 836.3 420.0 L 831.1 415.0 L 817.8 401.2 L 803.2 384.1 L 799.9 380.3 L 795.1 373.5 L 787.8 362.5" stroke="#000" stroke-width="1.3" stroke-opacity="0.8" fill="none" stroke-linecap="round" stroke-linejoin="round"/>
<path d="M 707.7 368.3 L 677.8 506.8 L 662.1 579.1 L 628.4 735.1 L 595.4 888.0" stroke="#000" stroke-width="1.3" stroke-opacity="0.8" fill="none" stroke-linecap="round" stroke-linejoin="round"/>
<path d="M 1044.1 92.0 L 1030.4 89.6 L 1015.5 87.3 L 1002.3 86.4 L 987.2 86.5 L 976.7 87.8 L 967.6 89.4 L 951.4 93.1 L 936.6 98.1 L 921.5 104.6 L 907.2 113.7 L 897.1 121.2 L 884.7 133.2 L 872.1 147.0 L 867.4 153.7 L 862.0 161.1 L 856.8 169.1 L 844.9 189.1" stroke="#000" stroke-width="1.3" stroke-opacity="0.8" fill="none" stroke-linecap="round" stroke-linejoin="round"/>
<path d="M 623.6 122.3 L 622.6 125.5 L 581.2 251.0 L 577.6 262.0 L 577.2 263.2 L 569.8 285.7 L 568.6 289.4 L 559.6 316.7 L 511.2 537.1 L 509.4 545.1 L 475.1 701.3 L 464.6 750.4" stroke="#000" stroke-width="1.3" stroke-opacity="0.8" fill="none" stroke-linecap="round" stroke-linejoin="round"/>
<path d="M 679.6 910.2 L 755.0 927.4 L 833.7 944.8" stroke="#000" stroke-width="1.3" stroke-opacity="0.8" fill="none" stroke-linecap="round" stroke-linejoin="round"/>
<path d="M 841.2 201.0 L 838.2 217.4 L 836.6 231.2 L 835.5 243.6 L 835.4 255.5 L 835.7 262.0 L 836.8 270.0 L 839.7 285.0 L 843.4 299.3 L 847.4 311.7 L 852.2 322.7 L 857.7 332.7 L 862.5 340.7 L 871.0 351.9 L 880.3 362.0 L 890.8 371.9 L 904.7 382.4 L 916.5 389.9 L 928.0 396.0 L 939.2 399.8 L 958.5 404.3" stroke="#000" stroke-width="1.3" stroke-opacity="0.8" fill="none" stroke-linecap="round" stroke-linejoin="round"/>
<path d="M 488.2 291.8 L 530.9 306.7 L 537.2 308.9 L 559.6 316.7 L 634.7 342.9 L 707.7 368.3 L 787.7 396.3" stroke="#000" stroke-width="1.3" stroke-opacity="0.8" fill="none" stroke-linecap="round" stroke-linejoin="round"/>
<path d="M 972.3 340.2 L 952.0 327.4 L 939.7 319.5 L 930.6 312.1 L 923.7 304.2 L 917.7 295.9 L 914.2 290.4 L 910.8 281.4 L 907.5 274.0 L 905.2 263.8 L 902.7 246.6 L 902.7 234.0 L 904.4 222.4" stroke="#000" stroke-width="1.3" stroke-opacity="0.8" fill="none" stroke-linecap="round" stroke-linejoin="round"/>
<path d="M 807.9 1055.4 L 743.6 991.0 L 683.4 930.6" stroke="#000" stroke-width="1.3" stroke-opacity="0.8" fill="none" stroke-linecap="round" stroke-linejoin="round"/>
<path d="M 736.4 1231.8 L 713.4 1347.0" stroke="#000" stroke-width="1.3" stroke-opacity="0.8" fill="none" stroke-linecap="round" stroke-linejoin="round"/>
<path d="M 518.9 1180.0 L 543.4 1188.1 L 551.2 1190.6 L 609.4 1204.6 L 675.0 1219.2 L 736.4 1231.8 L 786.1 1241.9" stroke="#000" stroke-width="1.3" stroke-opacity="0.8" fill="none" stroke-linecap="round" stroke-linejoin="round"/>
<path d="M 861.9 1379.5 L 874.1 1325.0" stroke="#000" stroke-width="1.3" stroke-opacity="0.8" fill="none" stroke-linecap="round" stroke-linejoin="round"/>
<path d="M 795.9 1112.8 L 753.8 1102.9 L 709.2 1092.4 L 643.8 1077.1 L 593.8 1065.3 L 579.3 1061.9 L 575.1 1060.9 L 514.4 1046.7" stroke="#000" stroke-width="1.3" stroke-opacity="0.8" fill="none" stroke-linecap="round" stroke-linejoin="round"/>
<path d="M 549.9 717.8 L 475.1 701.3 L 430.4 690.5" stroke="#000" stroke-width="1.3" stroke-opacity="0.8" fill="none" stroke-linecap="round" stroke-linejoin="round"/>
<path d="M 589.1 1055.2 L 579.3 1061.9" stroke="#000" stroke-width="1.3" stroke-opacity="0.8" fill="none" stroke-linecap="round" stroke-linejoin="round"/>
<path d="M -189.8 627.4 L -174.0 630.8 L -163.2 634.2 L -145.8 637.3 L -127.8 640.8 L -109.3 644.5 L -93.0 644.9 L -70.7 648.0 L -57.9 651.8 L -42.1 655.7 L 30.1 670.6 L 82.3 684.7 L 94.0 689.1 L 105.4 692.6 L 119.7 696.7 L 159.5 709.5 L 182.1 716.5 L 234.4 732.0" stroke="#000" stroke-width="1.3" stroke-opacity="0.8" fill="none" stroke-linecap="round" stroke-linejoin="round"/>
<path d="M 337.2 506.9 L 359.3 511.7 L 433.8 528.3 L 509.4 545.1 L 585.2 562.0 L 662.1 579.1 L 743.5 597.2" stroke="#000" stroke-width="1.3" stroke-opacity="0.8" fill="none" stroke-linecap="round" stroke-linejoin="round"/>
<path d="M 743.6 991.0 L 755.0 927.4 L 790.5 773.0 L 826.5 615.6 L 860.4 448.3 L 861.8 440.7" stroke="#000" stroke-width="1.3" stroke-opacity="0.8" fill="none" stroke-linecap="round" stroke-linejoin="round"/>
<path d="M 670.6 978.0 L 641.9 955.5 L 635.8 951.5 L 628.6 948.5 L 613.5 944.7 L 545.4 929.1 L 526.3 924.7 L 475.0 912.7 L 410.6 897.2 L 345.2 882.6 L 296.4 871.7 L 216.4 850.8 L 210.1 848.2 L 204.8 844.7 L 120.7 778.2 L 107.5 767.6 L 104.4 764.9 L 100.2 760.6 L 97.0 756.6 L 76.9 729.2 L 75.2 725.5 L 75.1 722.4" stroke="#000" stroke-width="1.3" stroke-opacity="0.8" fill="none" stroke-linecap="round" stroke-linejoin="round"/>
<path d="M 784.3 1505.0 L 813.1 1368.2" stroke="#000" stroke-width="1.3" stroke-opacity="0.8" fill="none" stroke-linecap="round" stroke-linejoin="round"/>
<path d="M 813.1 1368.2 L 861.9 1379.5" stroke="#000" stroke-width="1.3" stroke-opacity="0.8" fill="none" stroke-linecap="round" stroke-linejoin="round"/>
<path d="M 742.1 1477.6 L 748.2 1445.1 L 763.2 1364.8 L 764.5 1357.6" stroke="#000" stroke-width="1.3" stroke-opacity="0.8" fill="none" stroke-linecap="round" stroke-linejoin="round"/>
<path d="M -244.1 386.5 L -205.6 382.7 L -197.4 381.4 L -191.0 381.5 L -184.4 383.3 L -178.2 384.8 L -150.1 390.2 L -121.9 395.5 L -78.7 405.6 L -24.8 416.9 L 8.3 424.2 L 83.6 442.1 L 143.8 456.8 L 153.2 458.9 L 160.7 460.6 L 175.2 462.9 L 187.3 465.2 L 202.0 468.6 L 226.8 474.5 L 240.7 476.8 L 248.5 477.6 L 272.0 476.4 L 299.3 474.5 L 311.2 474.4" stroke="#000" stroke-width="1.3" stroke-opacity="0.8" fill="none" stroke-linecap="round" stroke-linejoin="round"/>
<path d="M 245.2 672.1 L 242.9 668.8 L 201.9 656.9 L 151.6 643.9 L 136.9 640.0 L 120.6 636.8 L 38.1 617.1 L -35.4 600.8 L -118.4 580.7" stroke="#000" stroke-width="1.3" stroke-opacity="0.8" fill="none" stroke-linecap="round" stroke-linejoin="round"/>
<path d="M 385.3 1016.3 L 410.6 897.2 L 435.4 783.9" stroke="#000" stroke-width="1.3" stroke-opacity="0.8" fill="none" stroke-linecap="round" stroke-linejoin="round"/>
<path d="M 496.8 854.7 L 484.0 861.3 L 482.8 863.3 L 481.7 868.3 L 475.0 912.7 L 449.8 1031.5 L 442.6 1064.6 L 438.3 1076.6" stroke="#000" stroke-width="1.3" stroke-opacity="0.8" fill="none" stroke-linecap="round" stroke-linejoin="round"/>
<path d="M 320.8 1001.2 L 345.2 882.6 L 370.7 764.9 L 384.5 699.8" stroke="#000" stroke-width="1.3" stroke-opacity="0.8" fill="none" stroke-linecap="round" stroke-linejoin="round"/>
<path d="M 904.4 222.4 L 991.2 252.9" stroke="#000" stroke-width="0.5" stroke-opacity="0.35" fill="none" stroke-linecap="round" stroke-linejoin="round"/>
<path d="M 908.6 210.4 L 915.7 199.0 L 922.9 189.7 L 933.2 180.5 L 939.2 175.0 L 945.1 170.9 L 949.9 168.0 L 955.2 165.6 L 962.5 162.5 L 974.8 158.6 L 983.0 157.0 L 989.4 156.4 L 995.6 156.2 L 1003.9 156.2 L 1017.7 157.2" stroke="#000" stroke-width="1.3" stroke-opacity="0.8" fill="none" stroke-linecap="round" stroke-linejoin="round"/>
<path d="M 340.7 380.6 L 387.0 393.4 L 405.5 398.3 L 413.6 400.8 L 420.6 403.0 L 422.4 403.5 L 459.4 417.1" stroke="#000" stroke-width="1.3" stroke-opacity="0.8" fill="none" stroke-linecap="round" stroke-linejoin="round"/>
<path d="M 387.0 393.4 L 359.3 511.7" stroke="#000" stroke-width="1.3" stroke-opacity="0.8" fill="none" stroke-linecap="round" stroke-linejoin="round"/>
<path d="M 715.9 226.6 L 680.4 214.7 L 645.6 321.7 L 674.0 331.3 L 669.0 347.2 L 679.0 351.0 L 684.0 334.2 L 715.0 344.9 L 749.3 238.5 L 715.9 226.6" stroke="#000" stroke-width="1" stroke-opacity="0.2" fill="#000" fill-opacity="0.05" stroke-linecap="round" stroke-linejoin="round"/>
<path d="M 749.3 246.9 L 726.9 239.8 L 728.3 236.4 L 688.4 223.2 L 659.7 308.7" stroke="#000" stroke-width="0.5" stroke-opacity="0.35" fill="none" stroke-linecap="round" stroke-linejoin="round"/>
<path d="M 481.2 76.6 L 449.4 171.1 L 448.5 175.3 L 448.1 177.2 L 448.0 178.6 L 447.9 181.9 L 447.9 182.8 L 447.2 206.4 L 446.0 243.0 L 444.9 277.8 L 446.7 286.8 L 447.9 299.3 L 448.0 307.7 L 447.9 309.6 L 447.4 316.7 L 446.7 324.4 L 445.8 329.8 L 444.7 336.9 L 443.3 343.8 L 442.3 348.7 L 442.1 351.3 L 441.8 354.1 L 441.4 359.3" stroke="#000" stroke-width="1.3" stroke-opacity="0.8" fill="none" stroke-linecap="round" stroke-linejoin="round"/>
<path d="M 471.2 365.7 L 446.7 360.4 L 445.3 360.1 L 441.4 359.3 L 410.9 351.9" stroke="#000" stroke-width="1.3" stroke-opacity="0.8" fill="none" stroke-linecap="round" stroke-linejoin="round"/>
<path d="M 772.4 177.2 L 754.7 231.2" stroke="#000" stroke-width="1.3" stroke-opacity="0.8" fill="none" stroke-linecap="round" stroke-linejoin="round"/>
<path d="M 763.3 -48.9 L 701.4 139.6 L 700.6 142.3" stroke="#000" stroke-width="1.3" stroke-opacity="0.8" fill="none" stroke-linecap="round" stroke-linejoin="round"/>
<path d="M 955.2 165.6 L 936.6 98.1 L 916.8 26.3" stroke="#000" stroke-width="1.3" stroke-opacity="0.8" fill="none" stroke-linecap="round" stroke-linejoin="round"/>
<path d="M 988.4 13.8 L 1007.4 14.1 L 1020.3 14.7 L 1032.7 16.0 L 1042.0 17.7 L 1050.5 19.7 L 1071.5 25.6" stroke="#000" stroke-width="1.3" stroke-opacity="0.8" fill="none" stroke-linecap="round" stroke-linejoin="round"/>
<path d="M 803.2 384.1 L 862.5 340.7 L 917.7 295.9" stroke="#000" stroke-width="1.3" stroke-opacity="0.8" fill="none" stroke-linecap="round" stroke-linejoin="round"/>
<path d="M 531.7 798.0 L 549.9 717.8 L 585.2 562.0 L 634.7 342.9 L 697.6 151.3 L 698.3 149.1" stroke="#000" stroke-width="1.3" stroke-opacity="0.8" fill="none" stroke-linecap="round" stroke-linejoin="round"/>
<path d="M 787.8 362.5 L 789.0 375.2 L 789.0 387.2 L 787.7 396.3 L 757.1 535.4 L 743.5 597.2 L 708.5 751.3 L 679.5 884.0 L 678.3 891.4 L 678.1 897.7 L 678.7 904.6 L 679.6 910.2 L 683.4 930.6" stroke="#000" stroke-width="1.3" stroke-opacity="0.8" fill="none" stroke-linecap="round" stroke-linejoin="round"/>
<path d="M 683.4 930.6 L 670.6 978.0 L 643.8 1077.1 L 609.4 1204.6 L 578.5 1319.3" stroke="#000" stroke-width="1.3" stroke-opacity="0.8" fill="none" stroke-linecap="round" stroke-linejoin="round"/>
<path d="M 189.3 954.0 L 186.9 948.0 L 185.3 939.3 L 190.2 909.5 L 192.7 889.4 L 194.4 876.3 L 197.4 860.0 L 204.8 844.7 L 217.5 796.3 L 233.3 736.1 L 234.4 732.0 L 243.6 685.1 L 245.7 677.2 L 245.2 672.1" stroke="#000" stroke-width="1.3" stroke-opacity="0.8" fill="none" stroke-linecap="round" stroke-linejoin="round"/>
<path d="M 233.3 736.1 L 326.3 755.4 L 370.7 764.9 L 403.8 769.0 L 421.7 772.8 L 429.1 774.1" stroke="#000" stroke-width="1.3" stroke-opacity="0.8" fill="none" stroke-linecap="round" stroke-linejoin="round"/>
<path d="M 743.6 991.0 L 737.2 1020.9 L 734.9 1027.5 L 731.6 1033.2 L 721.4 1050.2 L 718.7 1056.5 L 716.5 1063.1 L 709.2 1092.4 L 675.0 1219.2 L 644.2 1332.8" stroke="#000" stroke-width="1.3" stroke-opacity="0.8" fill="none" stroke-linecap="round" stroke-linejoin="round"/>
<path d="M 790.8 1217.2 L 791.0 1182.3 L 791.6 1162.8 L 793.1 1141.6 L 795.9 1112.8 L 798.4 1098.1 L 801.7 1082.3 L 807.9 1055.4 L 833.7 944.8 L 868.7 794.7 L 905.6 633.2 L 942.7 477.1 L 958.5 404.3 L 972.3 340.2 L 991.2 252.9 L 991.4 252.1" stroke="#000" stroke-width="1.3" stroke-opacity="0.8" fill="none" stroke-linecap="round" stroke-linejoin="round"/>
<path d="M 503.7 1303.8 L 551.2 1190.6 L 582.9 1114.3 L 586.0 1105.4 L 588.1 1098.1 L 589.5 1091.6 L 593.8 1065.3" stroke="#000" stroke-width="1.3" stroke-opacity="0.8" fill="none" stroke-linecap="round" stroke-linejoin="round"/>
<path d="M 991.4 252.1 L 993.4 241.8" stroke="#000" stroke-width="1.3" stroke-opacity="0.8" fill="none" stroke-linecap="round" stroke-linejoin="round"/>
<path d="M 787.8 362.5 L 783.3 352.6 L 777.6 336.4 L 771.4 315.4 L 765.2 292.0 L 760.3 267.7 L 754.7 231.2" stroke="#000" stroke-width="1.3" stroke-opacity="0.8" fill="none" stroke-linecap="round" stroke-linejoin="round"/>
<path d="M 803.2 384.1 L 787.7 396.3" stroke="#000" stroke-width="1.3" stroke-opacity="0.8" fill="none" stroke-linecap="round" stroke-linejoin="round"/>
<path d="M 821.7 450.5 L 815.0 450.1 L 809.9 450.2 L 807.7 451.5 L 807.6 456.3 L 810.0 462.0 L 812.1 465.2 L 817.2 469.3 L 819.3 470.2 L 827.8 466.0 L 833.2 462.7 L 838.3 458.5 L 841.6 455.5 L 842.4 453.2 L 842.7 449.5" stroke="#000" stroke-width="0.7" stroke-opacity="0.55" fill="none" stroke-linecap="round" stroke-linejoin="round"/>
<path d="M 277.5 991.0 L 283.6 946.1 L 286.3 929.6 L 289.5 912.8 L 296.4 871.7 L 310.5 810.2 L 326.3 755.4 L 348.0 666.2 L 348.1 659.3 L 345.7 652.4 L 334.9 638.2 L 332.8 634.9 L 331.8 631.6 L 330.9 621.3 L 331.0 614.0 L 331.6 604.8 L 333.1 594.1 L 334.9 584.5 L 338.2 577.0 L 342.5 569.1 L 344.8 564.5" stroke="#000" stroke-width="1.3" stroke-opacity="0.8" fill="none" stroke-linecap="round" stroke-linejoin="round"/>
<path d="M 545.4 929.1 L 554.7 887.0 L 557.4 861.2" stroke="#000" stroke-width="1.3" stroke-opacity="0.8" fill="none" stroke-linecap="round" stroke-linejoin="round"/>
<path d="M 450.5 59.5 L 988.9 244.8 L 1003.0 248.8 L 1021.7 251.4 L 1033.0 254.5 L 1041.1 255.5 L 1052.1 259.0 L 1068.1 270.6 L 1072.0 273.7" stroke="#000" stroke-width="3.2" stroke-opacity="0.9" fill="none" stroke-linecap="round" stroke-linejoin="round"/>
<path d="M 813.1 1368.2 L 764.5 1357.6" stroke="#000" stroke-width="1.3" stroke-opacity="0.8" fill="none" stroke-linecap="round" stroke-linejoin="round"/>
<path d="M 813.1 1368.2 L 833.0 1271.7" stroke="#000" stroke-width="1.3" stroke-opacity="0.8" fill="none" stroke-linecap="round" stroke-linejoin="round"/>
<path d="M 861.9 1379.5 L 831.1 1518.1" stroke="#000" stroke-width="1.3" stroke-opacity="0.8" fill="none" stroke-linecap="round" stroke-linejoin="round"/>
<path d="M 705.2 1398.1 L 764.5 1357.6" stroke="#000" stroke-width="1.3" stroke-opacity="0.8" fill="none" stroke-linecap="round" stroke-linejoin="round"/>
<path d="M 751.5 1354.9 L 693.2 1395.6" stroke="#000" stroke-width="1.3" stroke-opacity="0.8" fill="none" stroke-linecap="round" stroke-linejoin="round"/>
<path d="M 874.1 1325.0 L 833.0 1271.7 L 790.8 1217.2" stroke="#000" stroke-width="1.3" stroke-opacity="0.8" fill="none" stroke-linecap="round" stroke-linejoin="round"/>
<path d="M 764.5 1357.6 L 786.1 1241.9 L 790.8 1217.2" stroke="#000" stroke-width="1.3" stroke-opacity="0.8" fill="none" stroke-linecap="round" stroke-linejoin="round"/>
<path d="M 764.5 1357.6 L 751.5 1354.9 L 713.4 1347.0 L 644.2 1332.8 L 578.5 1319.3 L 503.7 1303.8 L 498.8 1302.9" stroke="#000" stroke-width="1.3" stroke-opacity="0.8" fill="none" stroke-linecap="round" stroke-linejoin="round"/>
<path d="M 575.1 1060.9 L 576.0 1058.5 L 576.8 1054.4 L 576.4 1051.1 L 529.9 951.2" stroke="#000" stroke-width="1.3" stroke-opacity="0.8" fill="none" stroke-linecap="round" stroke-linejoin="round"/>
<path d="M 514.4 1046.7 L 449.8 1031.5 L 385.3 1016.3 L 350.2 1008.0 L 320.8 1001.2 L 277.5 991.0 L 206.6 974.3 L 200.1 970.2 L 195.0 965.5 L 189.3 954.0" stroke="#000" stroke-width="1.3" stroke-opacity="0.8" fill="none" stroke-linecap="round" stroke-linejoin="round"/>
<path d="M 579.3 1061.9 L 563.1 1130.3 L 560.2 1141.7 L 556.8 1153.7 L 553.5 1163.3 L 543.4 1188.1 L 494.4 1301.9" stroke="#000" stroke-width="1.3" stroke-opacity="0.8" fill="none" stroke-linecap="round" stroke-linejoin="round"/>
<path d="M 544.1 967.8 L 581.9 1052.2" stroke="#000" stroke-width="3.2" stroke-opacity="0.9" fill="none" stroke-linecap="round" stroke-linejoin="round"/>
<path d="M 581.9 1052.2 L 585.8 1076.8" stroke="#000" stroke-width="3.2" stroke-opacity="0.9" fill="none" stroke-linecap="round" stroke-linejoin="round"/>
<path d="M 585.8 1076.8 L 586.7 1084.4 L 585.9 1091.7 L 583.5 1100.8 L 579.8 1110.6 L 548.5 1183.8" stroke="#000" stroke-width="3.2" stroke-opacity="0.9" fill="none" stroke-linecap="round" stroke-linejoin="round"/>
<path d="M 548.5 1183.8 L 545.3 1192.7" stroke="#000" stroke-width="3.2" stroke-opacity="0.9" fill="none" stroke-linecap="round" stroke-linejoin="round"/>
<path d="M 545.3 1192.7 L 502.0 1297.9" stroke="#000" stroke-width="3.2" stroke-opacity="0.9" fill="none" stroke-linecap="round" stroke-linejoin="round"/>
<path d="M 654.2 901.4 L 683.4 930.6" stroke="#000" stroke-width="1.3" stroke-opacity="0.8" fill="none" stroke-linecap="round" stroke-linejoin="round"/>
<path d="M 595.4 888.0 L 654.2 901.4 L 678.7 904.6" stroke="#000" stroke-width="1.3" stroke-opacity="0.8" fill="none" stroke-linecap="round" stroke-linejoin="round"/>
<path d="M 736.4 1231.8 L 753.8 1102.9" stroke="#000" stroke-width="1.3" stroke-opacity="0.8" fill="none" stroke-linecap="round" stroke-linejoin="round"/>
<path d="M 621.9 1381.4 L 633.1 1370.2 L 635.6 1365.0 L 644.2 1332.8" stroke="#000" stroke-width="1.3" stroke-opacity="0.8" fill="none" stroke-linecap="round" stroke-linejoin="round"/>
<path d="M 905.6 633.2 L 826.5 615.6 L 743.5 597.2" stroke="#000" stroke-width="1.3" stroke-opacity="0.8" fill="none" stroke-linecap="round" stroke-linejoin="round"/>
<path d="M 754.7 231.2 L 749.3 246.9 L 707.7 368.3" stroke="#000" stroke-width="1.3" stroke-opacity="0.8" fill="none" stroke-linecap="round" stroke-linejoin="round"/>
<path d="M 551.5 99.0 L 550.9 100.6 L 515.8 207.7 L 502.4 248.5 L 497.5 263.6 L 488.2 291.8 L 481.1 322.6 L 479.8 328.2 L 476.4 343.0 L 472.8 358.8 L 472.2 361.4 L 471.2 365.7 L 459.4 417.1 L 433.8 528.3 L 421.2 583.1 L 408.0 641.4" stroke="#000" stroke-width="1.3" stroke-opacity="0.8" fill="none" stroke-linecap="round" stroke-linejoin="round"/>
<path d="M 908.6 210.4 L 844.9 189.1 L 776.3 165.2 L 701.4 139.6 L 626.3 114.0 L 554.6 89.5 L 485.0 65.7 L 448.8 49.4" stroke="#000" stroke-width="1.3" stroke-opacity="0.8" fill="none" stroke-linecap="round" stroke-linejoin="round"/>
<path d="M 908.6 210.4 L 993.7 239.5" stroke="#000" stroke-width="0.5" stroke-opacity="0.35" fill="none" stroke-linecap="round" stroke-linejoin="round"/>
<path d="M 443.5 66.0 L 481.2 76.6 L 550.9 100.6 L 622.6 125.5 L 697.6 151.3 L 772.4 177.2 L 841.2 201.0 L 904.4 222.4" stroke="#000" stroke-width="1.3" stroke-opacity="0.8" fill="none" stroke-linecap="round" stroke-linejoin="round"/>
<path d="M 900.6 31.8 L 916.8 26.3 L 935.7 21.0 L 952.2 17.6" stroke="#000" stroke-width="1.3" stroke-opacity="0.8" fill="none" stroke-linecap="round" stroke-linejoin="round"/>
<path d="M 952.2 17.6 L 912.6 3.6 L 838.0 -22.6 L 763.3 -48.9 L 688.6 -75.2 L 616.9 -100.4 L 532.8 -130.0 L 514.9 -136.3 L 511.6 -137.4 L 503.6 -140.4 L 493.4 -143.9 L 447.1 -160.2 L 445.9 -160.6 L 435.4 -164.3 L 385.5 -181.9 L 375.3 -185.5 L 300.5 -211.8 L 257.5 -226.9 L 231.0 -236.3 L 155.2 -262.9 L 86.6 -287.1 L 30.1 -307.0 L -16.5 -323.4 L -60.0 -338.7 L -117.5 -358.9 L -124.7 -361.4 L -131.3 -364.2 L -138.0 -367.7 L -142.3 -369.9 L -145.5 -371.4 L -148.2 -372.1 L -153.7 -373.1 L -157.7 -373.5 L -163.6 -374.5 L -169.8 -376.3 L -240.3 -399.6 L -249.8 -402.8 L -258.4 -406.3 L -263.5 -409.6 L -268.1 -414.9 L -272.0 -421.9" stroke="#000" stroke-width="1.3" stroke-opacity="0.8" fill="none" stroke-linecap="round" stroke-linejoin="round"/>
<path d="M 783.6 143.5 L 776.3 165.2" stroke="#000" stroke-width="1.3" stroke-opacity="0.8" fill="none" stroke-linecap="round" stroke-linejoin="round"/>
<path d="M 796.1 105.1 L 797.0 108.6 L 798.3 110.3 L 800.9 111.4 L 803.8 112.0" stroke="#000" stroke-width="0.9" stroke-opacity="0.6" fill="none" stroke-linecap="round" stroke-linejoin="round"/>
<path d="M 466.3 795.7 L 492.3 845.6 L 496.8 854.7 L 512.1 885.7 L 523.8 911.0 L 526.3 924.7 L 528.4 936.1 L 529.9 951.2 L 529.9 961.5 L 528.6 971.1 L 514.4 1046.7 L 475.2 1267.6 L 469.7 1296.9 L 466.5 1310.9 L 462.5 1326.2 L 455.7 1347.4 L 448.8 1364.9 L 441.3 1380.3 L 432.2 1395.2 L 423.1 1408.1 L 414.3 1419.8 L 403.9 1432.9 L 393.7 1445.3 L 380.3 1458.8 L 365.4 1472.1 L 355.4 1479.8 L 344.3 1487.7 L 240.6 1556.3 L 227.7 1565.1 L 213.2 1576.2 L 198.0 1589.4 L 189.5 1597.6 L 159.5 1632.6 L 152.6 1641.7 L 147.2 1650.3 L 141.8 1660.9 L 137.1 1673.6 L 130.3 1696.0 L 128.5 1701.7 L 121.2 1724.6 L 118.0 1733.9 L 114.7 1740.2 L 110.8 1746.3 L 105.9 1751.9 L 101.3 1756.4 L 93.6 1762.5 L 73.8 1777.9 L 67.3 1784.3 L 59.2 1793.0 L 43.4 1812.0 L 28.8 1830.7 L 18.0 1845.3 L -6.8 1881.2 L -9.5 1884.5 L -16.4 1891.0 L -23.4 1896.1 L -29.9 1900.2 L -37.2 1903.4 L -47.1 1906.7" stroke="#000" stroke-width="2.4" stroke-opacity="0.95" fill="none" stroke-linecap="round" stroke-linejoin="round"/>
<path d="M 993.4 241.8 L 993.7 239.5 L 994.4 235.0 L 995.8 227.7 L 997.9 218.5 L 1003.7 197.3 L 1007.2 186.1 L 1011.5 173.1 L 1017.7 157.2 L 1025.2 137.9 L 1032.6 119.5 L 1044.1 92.0 L 1071.5 25.6 L 1135.4 -122.0 L 1202.4 -276.3 L 1264.3 -419.2 L 1364.4 -653.2 L 1410.0 -759.7 L 1450.6 -854.4 L 1468.0 -893.9" stroke="#000" stroke-width="1.3" stroke-opacity="0.8" fill="none" stroke-linecap="round" stroke-linejoin="round"/>
<path d="M 861.8 440.7 L 881.1 452.1 L 894.9 459.7 L 910.8 467.1 L 924.1 471.9 L 942.7 477.1" stroke="#000" stroke-width="1.3" stroke-opacity="0.8" fill="none" stroke-linecap="round" stroke-linejoin="round"/>
<path d="M 908.2 211.2 L 908.6 210.4" stroke="#000" stroke-width="1.3" stroke-opacity="0.8" fill="none" stroke-linecap="round" stroke-linejoin="round"/>
<path d="M 904.4 222.4 L 904.6 221.6" stroke="#000" stroke-width="1.3" stroke-opacity="0.8" fill="none" stroke-linecap="round" stroke-linejoin="round"/>
<path d="M 776.3 165.2 L 772.4 177.2" stroke="#000" stroke-width="1.3" stroke-opacity="0.8" fill="none" stroke-linecap="round" stroke-linejoin="round"/>
<path d="M 700.6 142.3 L 698.3 149.1" stroke="#000" stroke-width="1.3" stroke-opacity="0.8" fill="none" stroke-linecap="round" stroke-linejoin="round"/>
<path d="M 625.6 116.1 L 626.3 114.0 L 688.6 -75.2 L 780.1 -282.9 L 845.3 -431.0 L 856.4 -456.1 L 860.7 -465.9 L 908.9 -575.5 L 979.1 -734.9" stroke="#000" stroke-width="1.3" stroke-opacity="0.8" fill="none" stroke-linecap="round" stroke-linejoin="round"/>
<path d="M 623.6 122.3 L 625.6 116.1" stroke="#000" stroke-width="1.3" stroke-opacity="0.8" fill="none" stroke-linecap="round" stroke-linejoin="round"/>
<path d="M 842.7 449.5 L 839.4 450.0 L 830.7 450.3 L 821.7 450.5" stroke="#000" stroke-width="0.7" stroke-opacity="0.55" fill="none" stroke-linecap="round" stroke-linejoin="round"/>
<path d="M 860.4 448.3 L 850.6 448.9 L 842.7 449.5" stroke="#000" stroke-width="0.7" stroke-opacity="0.55" fill="none" stroke-linecap="round" stroke-linejoin="round"/>
<path d="M 313.5 494.4 L 310.9 495.4" stroke="#000" stroke-width="0.7" stroke-opacity="0.55" fill="none" stroke-linecap="round" stroke-linejoin="round"/>
<path d="M 333.1 551.8 L 338.2 550.0" stroke="#000" stroke-width="0.7" stroke-opacity="0.55" fill="none" stroke-linecap="round" stroke-linejoin="round"/>
<path d="M 310.9 495.4 L 308.4 500.4" stroke="#000" stroke-width="0.7" stroke-opacity="0.55" fill="none" stroke-linecap="round" stroke-linejoin="round"/>
<path d="M 303.7 562.9 L 316.5 519.6" stroke="#000" stroke-width="0.7" stroke-opacity="0.55" fill="none" stroke-linecap="round" stroke-linejoin="round"/>
<path d="M 308.4 500.4 L 316.5 519.6 L 333.1 551.8" stroke="#000" stroke-width="0.7" stroke-opacity="0.55" fill="none" stroke-linecap="round" stroke-linejoin="round"/>
<path d="M 308.4 500.4 L 288.1 580.6 L 289.8 586.9 L 293.2 588.5 L 296.5 587.6 L 303.7 562.9 L 333.1 551.8" stroke="#000" stroke-width="0.7" stroke-opacity="0.55" fill="none" stroke-linecap="round" stroke-linejoin="round"/>
<path d="M 310.9 495.4 L 253.3 499.3 L 244.7 547.5" stroke="#000" stroke-width="0.7" stroke-opacity="0.55" fill="none" stroke-linecap="round" stroke-linejoin="round"/>
<path d="M 1234.1 -981.5 L 1231.0 -957.8 L 1229.8 -948.7 L 1228.3 -937.8 L 1227.2 -930.8 L 1193.7 -849.0 L 1178.0 -812.5 L 1168.7 -790.8 L 1148.2 -743.2 L 1090.9 -609.7 L 1049.6 -513.6 L 987.7 -369.3 L 968.9 -324.9 L 922.8 -218.3 L 838.0 -22.6 L 796.1 105.1 L 783.6 143.5" stroke="#000" stroke-width="1.3" stroke-opacity="0.8" fill="none" stroke-linecap="round" stroke-linejoin="round"/>
<path d="M 904.6 221.6 L 908.2 211.2" stroke="#000" stroke-width="1.3" stroke-opacity="0.8" fill="none" stroke-linecap="round" stroke-linejoin="round"/>
<path d="M 593.8 1065.3 L 589.1 1055.2" stroke="#000" stroke-width="1.3" stroke-opacity="0.8" fill="none" stroke-linecap="round" stroke-linejoin="round"/>
<path d="M 589.1 1055.2 L 613.5 944.7" stroke="#000" stroke-width="1.3" stroke-opacity="0.8" fill="none" stroke-linecap="round" stroke-linejoin="round"/>
<path d="M 661.5 904.7 L 676.6 906.8 L 679.5 923.8 L 661.5 904.7" stroke="#000" stroke-width="1" stroke-opacity="0.2" fill="#000" fill-opacity="0.05" stroke-linecap="round" stroke-linejoin="round"/>
<path d="M 906.8 24.8 L 914.4 7.4 L 939.9 16.4 L 906.8 24.8" stroke="#000" stroke-width="1" stroke-opacity="0.2" fill="#000" fill-opacity="0.05" stroke-linecap="round" stroke-linejoin="round"/>
<path d="M 952.2 17.6 L 966.6 15.6 L 978.6 14.6 L 988.4 13.8" stroke="#000" stroke-width="1.3" stroke-opacity="0.8" fill="none" stroke-linecap="round" stroke-linejoin="round"/>
<path d="M 112.1 401.2 L 116.0 362.5 L 126.5 332.6 L 301.3 384.1 L 298.0 394.6 L 310.1 397.9 L 291.9 454.3 L 280.8 470.9 L 254.3 472.0 L 212.2 464.3 L 153.6 444.4 L 139.2 437.7 L 119.9 418.4 L 112.1 401.2" stroke="#000" stroke-width="1" stroke-opacity="0.2" fill="#000" fill-opacity="0.05" stroke-linecap="round" stroke-linejoin="round"/>
<path d="M 437.0 771.1 L 436.5 775.3 L 435.4 783.9" stroke="#000" stroke-width="1.3" stroke-opacity="0.8" fill="none" stroke-linecap="round" stroke-linejoin="round"/>
<path d="M 435.4 783.9 L 438.5 780.2 L 440.7 778.6 L 444.5 777.0" stroke="#000" stroke-width="1.3" stroke-opacity="0.8" fill="none" stroke-linecap="round" stroke-linejoin="round"/>
<path d="M 429.1 774.1 L 436.5 775.3 L 442.5 776.3" stroke="#000" stroke-width="1.3" stroke-opacity="0.8" fill="none" stroke-linecap="round" stroke-linejoin="round"/>
<path d="M 436.5 770.2 L 434.7 771.8 L 433.8 772.4 L 432.7 773.0 L 429.1 774.1" stroke="#000" stroke-width="1.3" stroke-opacity="0.8" fill="none" stroke-linecap="round" stroke-linejoin="round"/>
<path d="M 464.6 750.4 L 454.0 753.2" stroke="#000" stroke-width="1.3" stroke-opacity="0.8" fill="none" stroke-linecap="round" stroke-linejoin="round"/>
<path d="M 449.2 777.5 L 454.9 783.9 L 460.3 789.7 L 466.3 795.7" stroke="#000" stroke-width="2.4" stroke-opacity="0.95" fill="none" stroke-linecap="round" stroke-linejoin="round"/>
<path d="M 466.3 795.7 L 464.2 787.7 L 462.0 779.9 L 459.4 771.0" stroke="#000" stroke-width="2.4" stroke-opacity="0.95" fill="none" stroke-linecap="round" stroke-linejoin="round"/>
<path d="M 449.2 777.5 L 453.2 776.5 L 456.8 774.2 L 459.4 771.0 L 460.8 767.1 L 460.9 763.0 L 459.7 759.0 L 457.3 755.7 L 454.0 753.2 L 450.0 752.0 L 445.7 752.1 L 441.7 753.6 L 438.4 756.3 L 436.2 760.0 L 435.3 763.4 L 435.5 766.9 L 436.5 770.2 L 437.0 771.1 L 438.1 772.7 L 439.4 774.1 L 440.9 775.3 L 442.5 776.3 L 444.5 777.0" stroke="#000" stroke-width="2.4" stroke-opacity="0.95" fill="none" stroke-linecap="round" stroke-linejoin="round"/>
<path d="M 460.9 763.0 L 464.6 750.4" stroke="#000" stroke-width="1.3" stroke-opacity="0.8" fill="none" stroke-linecap="round" stroke-linejoin="round"/>
<path d="M 422.2 703.4 L 424.5 696.3 L 426.6 693.3 L 430.4 690.5" stroke="#000" stroke-width="1.3" stroke-opacity="0.8" fill="none" stroke-linecap="round" stroke-linejoin="round"/>
<path d="M 430.4 690.5 L 413.1 685.3" stroke="#000" stroke-width="1.3" stroke-opacity="0.8" fill="none" stroke-linecap="round" stroke-linejoin="round"/>
<path d="M 408.0 641.4 L 403.5 644.4 L 401.3 645.4 L 399.0 646.1 L 393.6 646.7" stroke="#000" stroke-width="1.3" stroke-opacity="0.8" fill="none" stroke-linecap="round" stroke-linejoin="round"/>
<path d="M 403.0 666.4 L 408.0 641.4" stroke="#000" stroke-width="1.3" stroke-opacity="0.8" fill="none" stroke-linecap="round" stroke-linejoin="round"/>
<path d="M 323.1 494.2 L 319.8 491.5 L 318.8 489.2 L 317.8 484.8 L 316.7 477.5 L 315.8 475.6 L 313.8 474.6 L 311.2 474.4" stroke="#000" stroke-width="0.9" stroke-opacity="0.6" fill="none" stroke-linecap="round" stroke-linejoin="round"/>
<path d="M 337.2 506.9 L 332.2 503.6 L 327.9 500.7 L 324.1 497.9" stroke="#000" stroke-width="1.3" stroke-opacity="0.8" fill="none" stroke-linecap="round" stroke-linejoin="round"/>
<path d="M 330.5 516.3 L 332.9 511.6 L 334.5 509.4 L 337.2 506.9" stroke="#000" stroke-width="1.3" stroke-opacity="0.8" fill="none" stroke-linecap="round" stroke-linejoin="round"/>
<path d="M 45.7 300.2 L 122.2 321.2 L 196.2 341.3 L 226.8 349.7 L 278.4 363.8 L 331.2 377.9" stroke="#000" stroke-width="1.3" stroke-opacity="0.8" fill="none" stroke-linecap="round" stroke-linejoin="round"/>
<path d="M 362.7 309.0 L 361.5 303.0 L 361.7 299.7 L 371.3 268.1 L 372.1 263.9 L 372.0 261.1 L 371.1 259.1 L 370.2 257.8 L 368.3 257.1" stroke="#000" stroke-width="0.9" stroke-opacity="0.6" fill="none" stroke-linecap="round" stroke-linejoin="round"/>
<path d="M 450.0 752.0 L 443.0 743.6 L 436.4 732.9 L 422.2 703.4 L 413.1 685.3 L 403.0 666.4 L 393.6 646.7 L 351.0 556.7 L 347.3 548.4 L 333.2 522.4 L 330.5 516.3 L 327.9 510.4 L 325.3 502.3 L 324.1 497.9 L 323.1 494.2 L 321.7 486.2 L 320.9 477.1 L 320.5 463.1 L 320.9 453.9 L 322.0 444.9 L 323.9 435.8 L 327.0 425.5 L 340.7 380.6 L 362.7 309.0 L 377.7 259.8 L 439.5 67.6" stroke="#000" stroke-width="2.4" stroke-opacity="0.95" fill="none" stroke-linecap="round" stroke-linejoin="round"/>
<path d="M 427.4 64.5 L 368.3 257.1 L 331.2 377.9 L 317.5 422.8 L 314.3 433.3 L 312.3 442.9 L 311.2 452.4 L 310.7 462.0 L 311.2 474.4 L 312.1 485.9 L 313.5 494.4 L 315.8 502.9 L 318.6 511.5 L 324.1 523.9 L 338.2 550.0 L 341.8 558.1 L 344.8 564.5 L 393.9 668.0 L 404.1 687.0 L 429.7 738.7 L 434.5 749.6 L 436.2 760.0" stroke="#000" stroke-width="2.4" stroke-opacity="0.95" fill="none" stroke-linecap="round" stroke-linejoin="round"/>
<path d="M 841.3 200.4 L 841.2 201.0" stroke="#000" stroke-width="1.3" stroke-opacity="0.8" fill="none" stroke-linecap="round" stroke-linejoin="round"/>
<path d="M 844.9 189.1 L 844.6 189.8" stroke="#000" stroke-width="1.3" stroke-opacity="0.8" fill="none" stroke-linecap="round" stroke-linejoin="round"/>
<path d="M 844.6 189.8 L 841.3 200.4" stroke="#000" stroke-width="1.3" stroke-opacity="0.8" fill="none" stroke-linecap="round" stroke-linejoin="round"/>
<path d="M 363.6 948.8 L 387.8 953.8" stroke="#000" stroke-width="1.3" stroke-opacity="0.8" fill="none" stroke-linecap="round" stroke-linejoin="round"/>
<path d="M 350.2 1008.0 L 363.6 948.8 L 365.7 937.8 L 366.4 936.3 L 367.6 935.2 L 384.5 938.8" stroke="#000" stroke-width="1.3" stroke-opacity="0.8" fill="none" stroke-linecap="round" stroke-linejoin="round"/>
<path d="M 444.5 777.0 L 446.8 777.5 L 449.2 777.5" stroke="#000" stroke-width="2.4" stroke-opacity="0.95" fill="none" stroke-linecap="round" stroke-linejoin="round"/>
  
    <g stroke="#000" fill="none" stroke-width="2.9952">
      <circle cx="936" cy="702" r="16.848"/>
      <circle cx="936" cy="702" r="3.744" fill="#000" stroke="none"/>
    </g>
  <rect width="100%" height="100%" fill="url(#vignette)"/>
  
    <g transform="translate(1776, 116)" stroke="#000" stroke-width="2.2464" fill="#000">
      <line x1="0" y1="37.44" x2="0" y2="-37.44"/>
      <path d="M 0 -37.44 L 13.104 -13.104 L 0 -22.464 L -13.104 -13.104 Z"/>
      <text x="0" y="59.44" text-anchor="middle" font-family="Georgia, serif" font-size="22.464000000000002">N</text>
    </g>
  <rect x="66" y="66" width="1740" height="1272" fill="none" stroke="#000" stroke-width="2" stroke-opacity="0.7"/>
  <rect x="74" y="74" width="1724" height="1256" fill="none" stroke="#000" stroke-width="1" stroke-opacity="0.4"/>
  
</svg>