<svg xmlns="http://www.w3.org/2000/svg" width="1872" height="1404" viewBox="0 0 1872 1404">
  <defs>
    <radialGradient id="vignette" cx="50%" cy="50%" r="954.72" gradientUnits="userSpaceOnUse">
      <stop offset="55%" stop-color="#fff" stop-opacity="0"/>
      <stop offset="100%" stop-color="#fff" stop-opacity="1"/>
    </radialGradient>
  </defs>
  <rect width="100%" height="100%" fill="#fff"/>
  <path d="M 166.8 1203.6 L 217.8 1176.9 L 248.9 1159.4 L 275.7 1136.5 L 287.6 1122.3 L 313.9 1077.6 L 369.6 1095.2" stroke="#000" stroke-width="1.3" stroke-opacity="0.8" fill="none" stroke-linecap="round" stroke-linejoin="round"/>
<path d="M -865.0 1676.3 L -855.8 1668.3 L -754.7 1654.6 L -728.8 1651.8 L -707.6 1651.5 L -664.4 1651.4 L -645.9 1649.2 L -619.0 1646.0 L -601.3 1643.8 L -576.9 1640.7 L -559.2 1636.6 L -554.1 1635.0 L -538.3 1629.8 L -513.3 1621.6 L -341.5 1568.0 L -255.3 1538.4 L -206.9 1522.5 L -155.5 1505.5 L -129.7 1496.1 L -88.2 1480.1 L -0.3 1437.5 L 74.2 1402.0 L 147.7 1366.6 L 208.9 1338.8 L 246.4 1321.4 L 286.4 1302.5 L 316.9 1289.4 L 341.6 1281.1 L 374.1 1272.7 L 484.6 1245.4 L 511.1 1236.2 L 523.9 1230.1 L 540.6 1220.8 L 606.4 1169.2 L 611.8 1165.3" stroke="#000" stroke-width="1.3" stroke-opacity="0.8" fill="none" stroke-linecap="round" stroke-linejoin="round"/>
<path d="M 832.8 1552.4 L 831.4 1493.0 L 823.2 1429.2 L 822.8 1425.8 L 822.6 1423.9 L 819.3 1391.9 L 804.3 1373.3" stroke="#000" stroke-width="1.3" stroke-opacity="0.8" fill="none" stroke-linecap="round" stroke-linejoin="round"/>
<path d="M 618.1 1169.1 L 617.9 1174.8 L 633.2 1303.6 L 636.8 1335.0 L 644.2 1399.5 L 654.1 1484.4 L 663.3 1564.2 L 665.6 1584.1 L 666.6 1586.7 L 668.3 1589.2" stroke="#000" stroke-width="1.3" stroke-opacity="0.8" fill="none" stroke-linecap="round" stroke-linejoin="round"/>
<path d="M 442.5 754.3 L 445.8 760.4 L 449.4 776.8 L 456.2 788.4 L 458.5 798.4 L 456.7 807.6 L 450.2 835.0 L 448.5 843.2 L 438.3 849.6 L 435.3 859.6 L 436.4 870.8 L 447.1 882.7 L 450.0 900.1 L 450.6 922.6 L 452.1 948.3 L 450.6 962.7 L 442.6 994.0 L 441.9 1005.6 L 447.9 1033.4 L 449.1 1057.4 L 457.9 1064.8" stroke="#000" stroke-width="3.2" stroke-opacity="0.9" fill="none" stroke-linecap="round" stroke-linejoin="round"/>
<path d="M 372.0 418.6 L 390.2 437.0 L 392.4 448.2 L 391.7 456.0 L 393.5 467.2 L 395.6 478.0 L 395.2 488.4 L 393.9 492.9 L 389.4 496.3 L 385.1 502.0 L 381.0 510.3 L 379.1 519.3 L 373.0 530.3 L 369.4 545.1 L 362.6 555.1 L 358.6 562.1 L 355.5 570.0 L 354.8 574.8 L 356.6 578.9 L 358.9 585.3 L 358.0 592.2 L 355.7 598.2 L 355.3 604.4 L 353.0 611.5 L 352.8 617.5 L 353.8 623.4 L 356.5 630.6 L 359.7 635.3 L 363.9 644.2 L 365.7 646.6 L 374.6 652.7 L 377.9 657.7 L 380.7 660.2 L 390.9 665.3 L 398.7 666.4 L 408.3 670.3 L 413.1 674.5" stroke="#000" stroke-width="3.2" stroke-opacity="0.9" fill="none" stroke-linecap="round" stroke-linejoin="round"/>
<path d="M 384.3 -766.3 L 388.6 -757.5 L 392.6 -748.2 L 399.5 -739.5 L 409.7 -727.8 L 424.1 -712.0 L 443.2 -691.0 L 450.2 -680.2 L 455.9 -665.1 L 456.8 -645.5 L 455.5 -637.9 L 449.3 -616.9 L 438.0 -584.9 L 428.9 -560.2 L 424.0 -531.7 L 424.2 -510.6 L 425.1 -494.4 L 432.5 -452.9 L 439.3 -414.3 L 446.6 -384.0 L 454.9 -359.5 L 469.9 -328.2 L 476.3 -319.9 L 517.7 -265.6 L 521.6 -258.8 L 525.9 -247.1 L 526.4 -237.8 L 524.9 -224.6 L 519.6 -207.5 L 516.2 -193.3 L 512.3 -183.0 L 511.3 -173.7 L 513.3 -164.9 L 518.6 -155.6 L 525.9 -148.3 L 544.0 -138.0 L 557.6 -132.2 L 582.8 -123.3 L 595.1 -120.6 L 604.8 -118.5 L 622.8 -112.6 L 633.0 -107.7 L 648.7 -101.8 L 654.5 -89.5 L 670.6 -34.6 L 684.0 5.0 L 681.2 22.8 L 680.2 35.1 L 687.6 53.1 L 709.6 85.9 L 732.0 116.8 L 753.8 132.3 L 772.9 151.3 L 784.0 166.4 L 796.3 188.0 L 801.4 206.6 L 835.0 267.8 L 844.2 285.9 L 852.1 307.4 L 864.2 349.5 L 864.1 368.5 L 863.9 468.9 L 865.3 514.7 L 869.9 541.9 L 873.9 553.9 L 875.7 562.2 L 882.7 595.9 L 884.2 601.3 L 883.2 610.0 L 880.7 618.0 L 875.9 638.9 L 870.5 647.2 L 859.8 694.2 L 853.5 739.6 L 851.6 760.2 L 848.1 769.5 L 837.0 790.5 L 829.7 798.3 L 813.1 829.1 L 802.4 850.1 L 789.3 873.1 L 770.8 901.4 L 763.0 909.3 L 751.8 915.7 L 743.5 923.9 L 734.8 937.1 L 729.9 943.0" stroke="#000" stroke-width="3.2" stroke-opacity="0.9" fill="none" stroke-linecap="round" stroke-linejoin="round"/>
<path d="M 1165.6 374.7 L 1154.0 411.6 L 1152.7 415.8 L 1148.2 422.6 L 1144.0 429.0 L 1134.9 438.7 L 1127.6 444.5 L 1119.3 449.6 L 1078.9 473.1 L 1065.3 485.1 L 1050.5 504.2 L 1046.0 510.0 L 1029.0 531.4 L 997.4 570.4 L 985.4 590.9 L 981.1 604.0 L 975.9 619.0 L 974.3 627.0 L 973.4 634.3 L 971.8 639.9 L 970.7 642.5 L 968.8 644.0 L 966.1 644.5 L 954.1 644.7 L 949.3 644.7 L 944.7 644.8 L 928.1 645.1 L 910.7 644.9 L 906.0 644.7 L 901.3 644.6 L 878.9 637.8" stroke="#000" stroke-width="1.3" stroke-opacity="0.8" fill="none" stroke-linecap="round" stroke-linejoin="round"/>
<path d="M 928.1 645.1 L 921.8 704.1" stroke="#000" stroke-width="1.3" stroke-opacity="0.8" fill="none" stroke-linecap="round" stroke-linejoin="round"/>
<path d="M 952.5 704.3 L 947.9 704.3 L 921.8 704.1 L 892.3 700.6" stroke="#000" stroke-width="1.3" stroke-opacity="0.8" fill="none" stroke-linecap="round" stroke-linejoin="round"/>
<path d="M 947.2 529.5 L 946.2 538.4 L 945.8 550.4" stroke="#000" stroke-width="2.4" stroke-opacity="0.95" fill="none" stroke-linecap="round" stroke-linejoin="round"/>
<path d="M 881.8 320.2 L 893.1 314.8 L 885.9 295.4 L 859.0 231.1 L 839.1 182.7" stroke="#000" stroke-width="0.7" stroke-opacity="0.55" fill="none" stroke-linecap="round" stroke-linejoin="round"/>
<path d="M 480.5 226.7 L 569.5 212.1 L 646.8 199.7 L 648.6 199.5 L 727.2 186.9" stroke="#000" stroke-width="1.3" stroke-opacity="0.8" fill="none" stroke-linecap="round" stroke-linejoin="round"/>
<path d="M 593.7 420.3 L 610.7 419.9 L 629.8 420.3 L 650.2 436.4 L 730.8 426.5 L 733.1 412.4 L 759.8 410.2" stroke="#000" stroke-width="0.7" stroke-opacity="0.55" fill="none" stroke-linecap="round" stroke-linejoin="round"/>
<path d="M 580.9 307.5 L 661.2 295.2 L 741.0 281.1" stroke="#000" stroke-width="0.7" stroke-opacity="0.55" fill="none" stroke-linecap="round" stroke-linejoin="round"/>
<path d="M 648.6 199.5 L 661.2 295.2 L 673.0 387.6" stroke="#000" stroke-width="0.7" stroke-opacity="0.55" fill="none" stroke-linecap="round" stroke-linejoin="round"/>
<path d="M 964.7 1091.4 L 960.3 1091.5 L 946.4 1090.9 L 945.1 1090.2 L 935.4 1077.8 L 869.9 988.5" stroke="#000" stroke-width="1.3" stroke-opacity="0.8" fill="none" stroke-linecap="round" stroke-linejoin="round"/>
<path d="M 698.0 1413.6 L 779.3 1383.3 L 793.3 1371.2" stroke="#000" stroke-width="1.3" stroke-opacity="0.8" fill="none" stroke-linecap="round" stroke-linejoin="round"/>
<path d="M 1078.6 786.8 L 1075.8 764.8 L 1073.3 749.4 L 1067.6 719.9 L 1060.3 705.9 L 1070.9 696.3 L 1077.4 690.4 L 1092.6 690.7 L 1105.1 681.8 L 1152.6 639.0 L 1157.1 609.4 L 1155.7 590.7 L 1159.3 578.3 L 1167.4 560.3 L 1169.3 547.9" stroke="#000" stroke-width="0.7" stroke-opacity="0.55" fill="none" stroke-linecap="round" stroke-linejoin="round"/>
<path d="M 797.9 172.3 L 803.7 170.0 L 811.6 170.0 L 821.9 173.5 L 839.1 182.7 L 871.8 202.5 L 880.3 207.4 L 902.3 219.7 L 968.6 256.0 L 973.5 258.7 L 995.5 279.7 L 1002.6 288.2" stroke="#000" stroke-width="1.3" stroke-opacity="0.8" fill="none" stroke-linecap="round" stroke-linejoin="round"/>
<path d="M 768.3 40.4 L 779.0 30.0 L 783.4 7.6 L 789.5 1.9 L 802.4 -9.0 L 804.9 -15.4 L 801.2 -33.3 L 837.1 -46.0 L 841.6 -51.3 L 841.9 -64.1 L 834.6 -90.9 L 830.2 -104.5 L 834.9 -124.5 L 842.2 -135.9 L 853.3 -145.6 L 871.7 -162.4 L 880.3 -175.8 L 881.1 -195.0 L 875.1 -244.8 L 863.8 -276.5 L 864.2 -293.3 L 866.9 -316.1 L 863.7 -325.7 L 857.1 -332.1 L 847.3 -333.4 L 834.0 -328.1 L 817.7 -319.4 L 800.1 -306.0 L 785.4 -292.5 L 769.7 -254.5 L 752.7 -251.7 L 719.0 -253.8 L 703.2 -254.6 L 696.5 -249.0 L 695.8 -235.6 L 704.4 -207.3 L 720.0 -146.4 L 731.2 -126.7 L 752.6 -60.5 L 765.3 15.8 L 768.3 40.4 L 758.3 52.8 L 756.1 60.9 L 756.1 73.2 L 798.1 156.2 L 798.9 161.0 L 794.9 167.2" stroke="#000" stroke-width="1.3" stroke-opacity="0.8" fill="none" stroke-linecap="round" stroke-linejoin="round"/>
<path d="M 956.8 836.2 L 952.3 836.3 L 935.1 838.0 L 911.9 838.3 L 906.5 835.9 L 889.8 820.5 L 885.6 815.2" stroke="#000" stroke-width="0.7" stroke-opacity="0.55" fill="none" stroke-linecap="round" stroke-linejoin="round"/>
<path d="M 1307.3 1190.1 L 1284.2 1158.0 L 1168.8 1019.2 L 1146.0 991.9 L 1085.6 918.6" stroke="#000" stroke-width="1.3" stroke-opacity="0.8" fill="none" stroke-linecap="round" stroke-linejoin="round"/>
<path d="M 965.3 1133.0 L 970.1 1133.0 L 994.4 1133.0 L 1031.9 1131.6 L 1055.8 1113.3 L 1168.8 1019.2" stroke="#000" stroke-width="1.3" stroke-opacity="0.8" fill="none" stroke-linecap="round" stroke-linejoin="round"/>
<path d="M 1031.9 1131.6 L 1054.8 1191.0 L 1063.1 1207.8 L 1069.8 1225.3 L 1073.8 1252.4" stroke="#000" stroke-width="1.3" stroke-opacity="0.8" fill="none" stroke-linecap="round" stroke-linejoin="round"/>
<path d="M 819.3 1075.7 L 821.8 1073.6 L 822.9 1072.3 L 869.9 988.5 L 903.3 927.3 L 935.1 873.7 L 936.9 869.4 L 937.3 864.3 L 935.1 838.0" stroke="#000" stroke-width="1.3" stroke-opacity="0.8" fill="none" stroke-linecap="round" stroke-linejoin="round"/>
<path d="M 1134.9 438.7 L 1140.4 443.3 L 1181.4 461.4 L 1198.9 465.9 L 1223.6 464.9 L 1254.8 465.8 L 1272.7 472.7 L 1275.2 471.9" stroke="#000" stroke-width="1.3" stroke-opacity="0.8" fill="none" stroke-linecap="round" stroke-linejoin="round"/>
<path d="M 952.0 680.3 L 956.2 682.9 L 1014.6 718.8 L 1037.8 743.5 L 1072.1 782.7 L 1078.6 786.8" stroke="#000" stroke-width="0.7" stroke-opacity="0.55" fill="none" stroke-linecap="round" stroke-linejoin="round"/>
<path d="M 636.8 1335.0 L 609.6 1336.5 L 541.8 1329.4 L 558.3 1433.5" stroke="#000" stroke-width="0.7" stroke-opacity="0.55" fill="none" stroke-linecap="round" stroke-linejoin="round"/>
<path d="M 374.1 1272.7 L 371.8 1196.3 L 371.7 1171.0 L 369.6 1095.2 L 368.5 1011.6 L 366.6 965.2 L 364.5 916.7 L 366.2 907.3 L 371.7 888.6 L 402.6 800.9 L 404.2 781.2 L 403.6 747.5 L 388.6 691.1 L 381.8 682.8 L 351.7 649.6 L 344.8 638.7 L 339.4 609.3 L 328.9 564.2 L 304.2 529.7 L 298.6 514.2 L 297.9 462.3" stroke="#000" stroke-width="1.3" stroke-opacity="0.8" fill="none" stroke-linecap="round" stroke-linejoin="round"/>
<path d="M 633.2 1303.6 L 685.2 1297.5 L 704.7 1289.5 L 721.8 1276.0 L 746.9 1253.7 L 769.6 1206.4" stroke="#000" stroke-width="1.3" stroke-opacity="0.8" fill="none" stroke-linecap="round" stroke-linejoin="round"/>
<path d="M 494.0 648.3 L 519.1 681.4 L 610.6 801.9 L 652.8 861.0 L 691.2 912.9 L 741.1 974.3" stroke="#000" stroke-width="1.3" stroke-opacity="0.8" fill="none" stroke-linecap="round" stroke-linejoin="round"/>
<path d="M 1334.7 71.3 L 1332.9 75.0 L 1325.5 101.3 L 1288.2 141.2 L 1265.9 167.6 L 1254.0 182.2 L 1240.1 200.2 L 1224.8 213.0 L 1206.9 225.2 L 1184.4 240.7 L 1178.0 245.7 L 1160.2 264.5 L 1140.7 287.9 L 1138.4 289.6 L 1136.9 291.5 L 1087.1 353.3 L 1084.7 356.3 L 1065.3 379.0 L 1014.1 441.2 L 959.6 512.0 L 958.6 513.0 L 955.5 517.1" stroke="#000" stroke-width="2.4" stroke-opacity="0.95" fill="none" stroke-linecap="round" stroke-linejoin="round"/>
<path d="M 1013.7 632.1 L 1021.7 646.8 L 1032.3 665.2 L 1047.8 683.8 L 1054.5 694.8 L 1060.3 705.9" stroke="#000" stroke-width="0.7" stroke-opacity="0.55" fill="none" stroke-linecap="round" stroke-linejoin="round"/>
<path d="M 1423.9 605.6 L 1457.2 566.9 L 1496.3 535.1 L 1513.1 522.4 L 1524.7 522.5 L 1543.7 518.6 L 1560.3 517.4 L 1571.4 516.6 L 1585.0 514.2 L 1599.4 503.0 L 1620.1 500.5 L 1635.6 501.5" stroke="#000" stroke-width="1.3" stroke-opacity="0.8" fill="none" stroke-linecap="round" stroke-linejoin="round"/>
<path d="M 1301.2 -26.7 L 1298.9 -18.2 L 1301.6 -3.9 L 1288.1 12.6 L 1282.3 22.8 L 1274.5 34.8 L 1253.6 54.5 L 1243.4 66.3 L 1227.5 78.2" stroke="#000" stroke-width="0.7" stroke-opacity="0.55" fill="none" stroke-linecap="round" stroke-linejoin="round"/>
<path d="M 1336.7 504.6 L 1354.4 523.7 L 1365.8 544.7 L 1378.8 566.4" stroke="#000" stroke-width="1.3" stroke-opacity="0.8" fill="none" stroke-linecap="round" stroke-linejoin="round"/>
<path d="M 1359.2 1219.4 L 1418.3 1224.8 L 1453.8 1228.2 L 1461.8 1229.0 L 1520.3 1238.0 L 1628.7 1251.8 L 1654.0 1256.0" stroke="#000" stroke-width="1.3" stroke-opacity="0.8" fill="none" stroke-linecap="round" stroke-linejoin="round"/>
<path d="M 442.2 746.0 L 445.7 753.0 L 455.6 770.8 L 464.2 787.2 L 464.9 804.7 L 457.6 816.3 L 455.5 825.7 L 452.4 842.6 L 451.6 867.1 L 458.6 877.0 L 465.4 887.9" stroke="#000" stroke-width="0.5" stroke-opacity="0.35" fill="none" stroke-linecap="round" stroke-linejoin="round"/>
<path d="M 1425.2 230.9 L 1423.2 231.6 L 1418.2 231.8 L 1407.8 222.9 L 1396.3 203.4 L 1388.0 190.8 L 1377.2 179.1 L 1369.5 175.2 L 1349.2 168.1 L 1319.2 160.1" stroke="#000" stroke-width="1.3" stroke-opacity="0.8" fill="none" stroke-linecap="round" stroke-linejoin="round"/>
<path d="M 444.0 1087.3 L 431.3 1086.0 L 428.6 1081.2 L 423.1 1065.1 L 429.2 1049.3 L 434.9 1043.3 L 427.4 1031.7 L 428.7 1025.5 L 428.8 1019.6 L 429.0 994.6 L 423.3 975.1 L 429.1 960.4 L 432.1 950.9 L 436.1 940.3 L 433.3 924.0 L 437.5 915.7 L 441.1 897.9 L 437.3 882.5 L 431.8 876.2 L 423.7 864.0 L 423.0 852.2 L 424.8 840.2 L 430.7 837.2 L 437.0 836.6 L 440.2 831.8 L 442.1 827.4 L 443.5 821.1 L 443.2 817.5 L 447.3 807.6 L 454.0 795.8 L 453.8 789.9 L 446.3 776.8 L 443.5 772.5 L 441.8 766.3" stroke="#000" stroke-width="0.5" stroke-opacity="0.35" fill="none" stroke-linecap="round" stroke-linejoin="round"/>
<path d="M 1568.2 535.9 L 1592.1 536.6 L 1623.0 528.7 L 1647.2 529.4 L 1671.2 527.4 L 1690.3 536.8 L 1705.5 552.1 L 1708.7 560.6 L 1717.3 572.9 L 1722.2 585.0 L 1721.8 592.2 L 1718.8 600.1 L 1711.3 613.3 L 1705.5 620.2 L 1691.1 630.0 L 1687.2 633.1 L 1675.8 643.9 L 1652.0 652.1 L 1647.2 657.5 L 1644.4 660.2 L 1633.0 665.0 L 1620.4 667.1 L 1606.8 662.0 L 1598.4 659.5 L 1564.2 650.6 L 1549.9 638.7 L 1529.6 621.0 L 1519.8 611.6 L 1517.5 603.9 L 1519.1 586.4 L 1512.5 566.3 L 1496.3 535.1" stroke="#000" stroke-width="0.5" stroke-opacity="0.35" fill="none" stroke-linecap="round" stroke-linejoin="round"/>
<path d="M 451.5 1116.5 L 516.9 1133.5 L 609.1 1155.6 L 611.5 1156.4" stroke="#000" stroke-width="1.3" stroke-opacity="0.8" fill="none" stroke-linecap="round" stroke-linejoin="round"/>
<path d="M 947.2 529.5 L 934.4 546.7" stroke="#000" stroke-width="1.3" stroke-opacity="0.8" fill="none" stroke-linecap="round" stroke-linejoin="round"/>
<path d="M 1537.1 725.1 L 1553.2 717.9 L 1570.6 711.2 L 1585.4 705.6 L 1632.5 703.7 L 1643.2 700.2 L 1671.3 698.8 L 1686.0 695.3 L 1693.8 690.4 L 1701.8 684.5 L 1718.6 683.7 L 1751.0 680.2 L 1755.3 674.4 L 1760.6 654.6" stroke="#000" stroke-width="0.5" stroke-opacity="0.35" fill="none" stroke-linecap="round" stroke-linejoin="round"/>
<path d="M 1846.0 729.6 L 1809.1 723.2 L 1806.9 722.9 L 1764.9 713.1 L 1750.3 710.7 L 1736.6 710.3 L 1729.4 713.1 L 1723.0 722.7 L 1709.6 734.6 L 1701.9 738.5 L 1694.7 741.1 L 1667.2 743.7 L 1647.4 739.8 L 1641.5 740.6 L 1611.4 747.1 L 1584.7 749.0 L 1562.7 755.8 L 1553.9 757.4" stroke="#000" stroke-width="1.3" stroke-opacity="0.8" fill="none" stroke-linecap="round" stroke-linejoin="round"/>
<path d="M 870.9 352.6 L 896.7 347.3 L 905.5 346.4 L 934.8 335.7 L 950.1 324.9 L 974.4 304.3 L 981.5 298.3 L 999.9 289.5 L 1002.6 288.2 L 1008.8 286.3 L 1022.0 281.1 L 1035.2 272.3 L 1053.1 249.7 L 1079.2 213.4 L 1107.1 201.7 L 1134.2 192.1 L 1157.5 176.3 L 1164.1 172.0 L 1176.5 162.8 L 1184.2 157.3 L 1191.8 152.6 L 1197.1 145.9 L 1204.3 126.9 L 1209.3 123.6 L 1219.7 120.3 L 1230.0 126.7 L 1265.9 167.6" stroke="#000" stroke-width="1.3" stroke-opacity="0.8" fill="none" stroke-linecap="round" stroke-linejoin="round"/>
<path d="M 1559.5 794.1 L 1575.9 847.2 L 1578.8 856.6 L 1585.7 884.2 L 1598.9 914.8 L 1613.5 942.5 L 1617.5 954.2" stroke="#000" stroke-width="1.3" stroke-opacity="0.8" fill="none" stroke-linecap="round" stroke-linejoin="round"/>
<path d="M 1529.9 963.1 L 1479.3 929.7 L 1456.5 914.7 L 1412.4 885.7 L 1323.7 803.6 L 1252.1 738.2" stroke="#000" stroke-width="1.3" stroke-opacity="0.8" fill="none" stroke-linecap="round" stroke-linejoin="round"/>
<path d="M 1093.9 -66.3 L 1095.3 -54.9 L 1096.9 -39.8 L 1096.1 -17.3 L 1095.1 16.6 L 1095.9 42.4 L 1099.6 88.1 L 1109.0 141.0 L 1114.6 151.4" stroke="#000" stroke-width="1.3" stroke-opacity="0.8" fill="none" stroke-linecap="round" stroke-linejoin="round"/>
<path d="M 729.3 1192.7 L 771.6 1144.7 L 800.7 1109.1 L 824.2 1082.3" stroke="#000" stroke-width="0.7" stroke-opacity="0.55" fill="none" stroke-linecap="round" stroke-linejoin="round"/>
<path d="M 1378.8 566.4 L 1438.3 509.8" stroke="#000" stroke-width="1.3" stroke-opacity="0.8" fill="none" stroke-linecap="round" stroke-linejoin="round"/>
<path d="M 1448.3 462.4 L 1437.1 431.0" stroke="#000" stroke-width="0.7" stroke-opacity="0.55" fill="none" stroke-linecap="round" stroke-linejoin="round"/>
<path d="M 739.4 94.8 L 728.9 95.4" stroke="#000" stroke-width="0.7" stroke-opacity="0.55" fill="none" stroke-linecap="round" stroke-linejoin="round"/>
<path d="M 707.3 96.2 L 728.9 95.4" stroke="#000" stroke-width="0.7" stroke-opacity="0.55" fill="none" stroke-linecap="round" stroke-linejoin="round"/>
<path d="M 715.3 1100.9 L 769.9 1143.2 L 771.6 1144.7" stroke="#000" stroke-width="0.7" stroke-opacity="0.55" fill="none" stroke-linecap="round" stroke-linejoin="round"/>
<path d="M 1252.1 738.2 L 1249.2 722.0" stroke="#000" stroke-width="1.3" stroke-opacity="0.8" fill="none" stroke-linecap="round" stroke-linejoin="round"/>
<path d="M 1326.1 497.2 L 1336.7 504.6" stroke="#000" stroke-width="1.3" stroke-opacity="0.8" fill="none" stroke-linecap="round" stroke-linejoin="round"/>
<path d="M 437.9 1113.0 L 451.5 1116.5" stroke="#000" stroke-width="1.3" stroke-opacity="0.8" fill="none" stroke-linecap="round" stroke-linejoin="round"/>
<path d="M 1336.7 1217.3 L 1359.2 1219.4" stroke="#000" stroke-width="1.3" stroke-opacity="0.8" fill="none" stroke-linecap="round" stroke-linejoin="round"/>
<path d="M 531.2 1083.0 L 529.8 1098.8" stroke="#000" stroke-width="1.3" stroke-opacity="0.8" fill="none" stroke-linecap="round" stroke-linejoin="round"/>
<path d="M 685.2 1297.5 L 710.4 1373.1" stroke="#000" stroke-width="0.7" stroke-opacity="0.55" fill="none" stroke-linecap="round" stroke-linejoin="round"/>
<path d="M 1310.4 1121.5 L 1300.5 1130.4" stroke="#000" stroke-width="1.3" stroke-opacity="0.8" fill="none" stroke-linecap="round" stroke-linejoin="round"/>
<path d="M 784.7 178.4 L 792.4 177.2" stroke="#000" stroke-width="1.3" stroke-opacity="0.8" fill="none" stroke-linecap="round" stroke-linejoin="round"/>
<path d="M 1325.5 400.1 L 1339.6 396.5" stroke="#000" stroke-width="1.3" stroke-opacity="0.8" fill="none" stroke-linecap="round" stroke-linejoin="round"/>
<path d="M 707.9 1033.5 L 799.4 1107.9 L 800.7 1109.1" stroke="#000" stroke-width="0.5" stroke-opacity="0.35" fill="none" stroke-linecap="round" stroke-linejoin="round"/>
<path d="M 1378.8 566.4 L 1413.8 601.0 L 1423.9 605.6 L 1470.6 646.5 L 1518.8 699.7 L 1537.1 725.1 L 1549.7 740.2 L 1553.9 757.4 L 1555.9 773.8 L 1559.5 794.1" stroke="#000" stroke-width="1.3" stroke-opacity="0.8" fill="none" stroke-linecap="round" stroke-linejoin="round"/>
<path d="M 1355.3 914.1 L 1352.2 922.0 L 1282.6 934.2" stroke="#000" stroke-width="1.3" stroke-opacity="0.8" fill="none" stroke-linecap="round" stroke-linejoin="round"/>
<path d="M 414.7 274.4 L 347.8 275.8" stroke="#000" stroke-width="1.3" stroke-opacity="0.8" fill="none" stroke-linecap="round" stroke-linejoin="round"/>
<path d="M 523.0 403.3 L 522.8 424.8 L 521.8 452.1 L 476.2 457.9 L 474.7 479.6 L 432.0 485.0 L 431.1 518.7 L 477.3 517.4" stroke="#000" stroke-width="1.3" stroke-opacity="0.8" fill="none" stroke-linecap="round" stroke-linejoin="round"/>
<path d="M 1288.2 141.2 L 1297.2 148.8 L 1311.7 157.2" stroke="#000" stroke-width="1.3" stroke-opacity="0.8" fill="none" stroke-linecap="round" stroke-linejoin="round"/>
<path d="M 792.4 177.2 L 799.7 175.5" stroke="#000" stroke-width="1.3" stroke-opacity="0.8" fill="none" stroke-linecap="round" stroke-linejoin="round"/>
<path d="M 919.9 585.7 L 941.8 589.6 L 946.6 590.4" stroke="#000" stroke-width="1.3" stroke-opacity="0.8" fill="none" stroke-linecap="round" stroke-linejoin="round"/>
<path d="M 1252.1 738.2 L 1271.9 865.4 L 1282.6 934.2 L 1295.4 1016.8 L 1305.3 1080.3 L 1310.4 1121.5" stroke="#000" stroke-width="1.3" stroke-opacity="0.8" fill="none" stroke-linecap="round" stroke-linejoin="round"/>
<path d="M 847.3 792.8 L 834.0 783.7" stroke="#000" stroke-width="1.3" stroke-opacity="0.8" fill="none" stroke-linecap="round" stroke-linejoin="round"/>
<path d="M 856.7 355.4 L 870.9 352.6" stroke="#000" stroke-width="1.3" stroke-opacity="0.8" fill="none" stroke-linecap="round" stroke-linejoin="round"/>
<path d="M 816.8 1221.8 L 872.7 1146.6" stroke="#000" stroke-width="0.7" stroke-opacity="0.55" fill="none" stroke-linecap="round" stroke-linejoin="round"/>
<path d="M 1311.7 157.2 L 1319.2 160.1" stroke="#000" stroke-width="1.3" stroke-opacity="0.8" fill="none" stroke-linecap="round" stroke-linejoin="round"/>
<path d="M 1027.3 868.9 L 1026.8 874.3 L 989.7 910.7 L 993.0 997.4" stroke="#000" stroke-width="0.7" stroke-opacity="0.55" fill="none" stroke-linecap="round" stroke-linejoin="round"/>
<path d="M 441.1 897.9 L 460.2 893.5" stroke="#000" stroke-width="0.5" stroke-opacity="0.35" fill="none" stroke-linecap="round" stroke-linejoin="round"/>
<path d="M 878.9 637.8 L 870.5 635.6" stroke="#000" stroke-width="1.3" stroke-opacity="0.8" fill="none" stroke-linecap="round" stroke-linejoin="round"/>
<path d="M 1246.6 725.0 L 1242.0 730.3" stroke="#000" stroke-width="1.3" stroke-opacity="0.8" fill="none" stroke-linecap="round" stroke-linejoin="round"/>
<path d="M 444.0 1087.3 L 435.7 1112.4" stroke="#000" stroke-width="0.7" stroke-opacity="0.55" fill="none" stroke-linecap="round" stroke-linejoin="round"/>
<path d="M 1615.5 1052.8 L 1607.4 1052.1 L 1603.9 1051.5 L 1594.7 1043.6 L 1591.1 1040.1 L 1585.9 1038.1 L 1555.8 1036.3 L 1539.8 1038.9 L 1529.2 1043.8 L 1524.1 1051.3 L 1511.7 1064.8 L 1504.7 1066.4 L 1495.4 1068.5 L 1471.5 1060.2 L 1458.3 1055.2 L 1437.4 1046.7 L 1429.6 1046.7 L 1425.7 1048.7 L 1419.9 1054.5 L 1420.7 1075.4 L 1418.6 1084.8 L 1417.2 1089.2 L 1415.8 1092.4 L 1412.8 1096.9 L 1410.4 1100.0 L 1406.7 1103.8 L 1399.6 1109.3 L 1391.2 1114.9 L 1370.3 1127.0 L 1333.6 1151.4 L 1326.8 1155.0 L 1319.7 1156.1 L 1314.6 1149.1 L 1310.4 1121.5" stroke="#000" stroke-width="1.3" stroke-opacity="0.8" fill="none" stroke-linecap="round" stroke-linejoin="round"/>
<path d="M 465.4 887.9 L 461.9 890.0 L 460.2 893.5 L 459.3 917.8 L 461.6 930.4 L 472.2 940.8 L 472.0 952.6 L 470.4 964.0 L 459.8 975.6 L 454.3 987.5 L 455.7 1004.0 L 459.6 1022.1 L 460.3 1034.7 L 464.3 1046.3 L 463.8 1063.5 L 462.9 1070.2 L 446.5 1087.0 L 444.0 1087.3" stroke="#000" stroke-width="0.5" stroke-opacity="0.35" fill="none" stroke-linecap="round" stroke-linejoin="round"/>
<path d="M 364.5 916.7 L 353.7 908.6 L 348.6 904.9 L 342.5 903.0 L 320.8 899.8 L 317.7 898.6 L 314.6 896.1 L 313.0 891.7 L 312.8 887.0 L 315.2 871.7 L 317.2 839.9 L 316.7 804.2 L 316.0 782.2 L 317.4 769.2 L 319.6 750.1 L 318.0 737.1 L 311.6 728.7 L 295.0 719.0 L 277.2 714.7 L 260.7 713.1 L 225.6 708.9 L 206.2 707.4 L 183.8 703.9 L 178.4 702.5 L 169.2 697.6 L 163.8 690.3 L 159.5 679.5 L 159.5 655.1 L 159.5 629.7 L 163.8 593.5 L 163.8 573.0 L 160.9 560.8 L 157.0 555.4 L 152.1 552.0 L 137.0 548.0 L 132.2 545.6 L 126.3 539.8 L 131.8 525.5 L 148.9 514.2 L 161.9 504.0 L 166.8 497.7 L 171.1 482.0 L 185.7 469.7 L 190.1 461.0 L 195.0 446.8" stroke="#000" stroke-width="1.3" stroke-opacity="0.8" fill="none" stroke-linecap="round" stroke-linejoin="round"/>
<path d="M 1323.7 803.6 L 1367.2 756.3 L 1424.7 696.3 L 1470.6 646.5" stroke="#000" stroke-width="1.3" stroke-opacity="0.8" fill="none" stroke-linecap="round" stroke-linejoin="round"/>
<path d="M 709.4 689.1 L 610.6 801.9" stroke="#000" stroke-width="0.7" stroke-opacity="0.55" fill="none" stroke-linecap="round" stroke-linejoin="round"/>
<path d="M 911.9 838.3 L 912.0 828.0 L 914.9 770.2 L 921.8 704.1" stroke="#000" stroke-width="0.7" stroke-opacity="0.55" fill="none" stroke-linecap="round" stroke-linejoin="round"/>
<path d="M 1354.4 523.7 L 1393.6 483.1 L 1401.5 475.6" stroke="#000" stroke-width="0.7" stroke-opacity="0.55" fill="none" stroke-linecap="round" stroke-linejoin="round"/>
<path d="M 1775.2 1001.7 L 1735.2 984.2 L 1723.5 976.3 L 1711.3 969.4 L 1692.7 964.5 L 1662.1 965.8 L 1649.1 966.0 L 1626.3 967.3 L 1592.9 967.4 L 1529.9 963.1" stroke="#000" stroke-width="1.3" stroke-opacity="0.8" fill="none" stroke-linecap="round" stroke-linejoin="round"/>
<path d="M 1295.4 1016.8 L 1366.9 1005.2 L 1467.3 988.9 L 1531.3 979.2" stroke="#000" stroke-width="0.7" stroke-opacity="0.55" fill="none" stroke-linecap="round" stroke-linejoin="round"/>
<path d="M 1289.9 673.1 L 1367.2 756.3" stroke="#000" stroke-width="0.7" stroke-opacity="0.55" fill="none" stroke-linecap="round" stroke-linejoin="round"/>
<path d="M 522.8 424.8 L 598.6 474.9" stroke="#000" stroke-width="0.5" stroke-opacity="0.35" fill="none" stroke-linecap="round" stroke-linejoin="round"/>
<path d="M 422.1 406.3 L 414.7 274.4" stroke="#000" stroke-width="1.3" stroke-opacity="0.8" fill="none" stroke-linecap="round" stroke-linejoin="round"/>
<path d="M 1251.3 589.7 L 1267.6 569.6 L 1326.1 497.2" stroke="#000" stroke-width="1.3" stroke-opacity="0.8" fill="none" stroke-linecap="round" stroke-linejoin="round"/>
<path d="M 465.4 887.9 L 470.0 893.8 L 473.0 895.4 L 505.9 889.2 L 517.8 886.8" stroke="#000" stroke-width="0.5" stroke-opacity="0.35" fill="none" stroke-linecap="round" stroke-linejoin="round"/>
<path d="M 531.2 1083.0 L 525.5 1059.7 L 524.9 1037.5 L 691.2 912.9" stroke="#000" stroke-width="1.3" stroke-opacity="0.8" fill="none" stroke-linecap="round" stroke-linejoin="round"/>
<path d="M 1325.5 400.1 L 1314.4 410.1 L 1293.3 443.1 L 1275.2 471.9" stroke="#000" stroke-width="1.3" stroke-opacity="0.8" fill="none" stroke-linecap="round" stroke-linejoin="round"/>
<path d="M 1169.3 547.9 L 1207.9 563.0 L 1231.1 572.4 L 1245.7 580.7 L 1251.3 589.7" stroke="#000" stroke-width="0.7" stroke-opacity="0.55" fill="none" stroke-linecap="round" stroke-linejoin="round"/>
<path d="M 610.6 801.9 L 517.8 886.8 L 557.9 940.5" stroke="#000" stroke-width="1.3" stroke-opacity="0.8" fill="none" stroke-linecap="round" stroke-linejoin="round"/>
<path d="M 1156.7 1241.2 L 1170.7 1329.8 L 1195.7 1488.1" stroke="#000" stroke-width="0.7" stroke-opacity="0.55" fill="none" stroke-linecap="round" stroke-linejoin="round"/>
<path d="M 1107.1 201.7 L 1111.4 210.1 L 1133.0 237.5" stroke="#000" stroke-width="0.7" stroke-opacity="0.55" fill="none" stroke-linecap="round" stroke-linejoin="round"/>
<path d="M 997.7 794.9 L 978.3 794.3 L 979.2 819.2 L 978.7 819.2 L 960.4 818.7 L 955.9 818.5" stroke="#000" stroke-width="0.7" stroke-opacity="0.55" fill="none" stroke-linecap="round" stroke-linejoin="round"/>
<path d="M 1271.9 865.4 L 1355.3 914.1 L 1404.7 938.6 L 1417.6 945.0 L 1450.8 961.5 L 1454.3 963.3 L 1465.3 982.9 L 1467.3 988.9" stroke="#000" stroke-width="1.3" stroke-opacity="0.8" fill="none" stroke-linecap="round" stroke-linejoin="round"/>
<path d="M 1052.8 1411.0 L 1018.9 1307.9 L 1015.2 1292.4 L 1007.5 1263.0" stroke="#000" stroke-width="1.3" stroke-opacity="0.8" fill="none" stroke-linecap="round" stroke-linejoin="round"/>
<path d="M 853.3 -145.6 L 859.3 -131.9 L 870.5 -120.9 L 878.3 -121.1 L 892.1 -127.3 L 900.6 -124.7 L 905.6 -110.8 L 912.1 -103.8 L 917.9 -99.5 L 964.4 -65.6 L 974.2 -49.0 L 995.8 -15.5 L 999.0 -7.0 L 1005.9 41.2 L 1008.4 54.6 L 1027.7 95.3 L 1042.1 126.8 L 1049.3 143.8 L 1071.5 195.5 L 1079.2 213.4" stroke="#000" stroke-width="1.3" stroke-opacity="0.8" fill="none" stroke-linecap="round" stroke-linejoin="round"/>
<path d="M 1305.3 1080.3 L 1347.0 1076.0 L 1374.4 1070.7 L 1376.5 1068.4 L 1366.9 1005.2 L 1352.2 922.0" stroke="#000" stroke-width="1.3" stroke-opacity="0.8" fill="none" stroke-linecap="round" stroke-linejoin="round"/>
<path d="M 691.2 912.9 L 739.2 851.4 L 800.7 758.4" stroke="#000" stroke-width="0.7" stroke-opacity="0.55" fill="none" stroke-linecap="round" stroke-linejoin="round"/>
<path d="M 559.3 121.7 L 631.6 116.8" stroke="#000" stroke-width="0.7" stroke-opacity="0.55" fill="none" stroke-linecap="round" stroke-linejoin="round"/>
<path d="M 902.3 219.7 L 939.9 179.4 L 961.4 156.4 L 1027.7 95.3" stroke="#000" stroke-width="0.7" stroke-opacity="0.55" fill="none" stroke-linecap="round" stroke-linejoin="round"/>
<path d="M 971.1 1417.4 L 971.1 1413.7 L 971.0 1362.8 L 971.6 1354.6 L 973.3 1351.7 L 976.3 1349.1 L 980.0 1347.7 L 985.1 1346.5" stroke="#000" stroke-width="1.3" stroke-opacity="0.8" fill="none" stroke-linecap="round" stroke-linejoin="round"/>
<path d="M 1201.3 17.9 L 1215.8 43.6 L 1224.3 61.5 L 1227.5 78.2 L 1219.7 120.3" stroke="#000" stroke-width="1.3" stroke-opacity="0.8" fill="none" stroke-linecap="round" stroke-linejoin="round"/>
<path d="M 561.8 144.3 L 471.7 156.3" stroke="#000" stroke-width="0.7" stroke-opacity="0.55" fill="none" stroke-linecap="round" stroke-linejoin="round"/>
<path d="M 839.3 76.4 L 841.2 49.2 L 841.1 31.3 L 848.1 9.3 L 858.0 -25.3 L 862.3 -32.0 L 870.5 -35.4 L 876.2 -36.9 L 885.6 -35.2 L 891.8 -27.1 L 909.5 8.7 L 916.3 24.3 L 928.4 46.8 L 931.1 54.3 L 933.3 69.7" stroke="#000" stroke-width="1.3" stroke-opacity="0.8" fill="none" stroke-linecap="round" stroke-linejoin="round"/>
<path d="M 727.2 186.9 L 741.0 281.1 L 755.1 377.6 L 759.8 410.2" stroke="#000" stroke-width="1.3" stroke-opacity="0.8" fill="none" stroke-linecap="round" stroke-linejoin="round"/>
<path d="M 1454.2 241.9 L 1488.0 217.6 L 1502.3 206.6 L 1540.7 187.2 L 1549.0 178.4 L 1556.2 167.1 L 1565.0 159.3 L 1576.7 153.4 L 1593.8 146.6 L 1621.6 139.3 L 1629.3 138.7 L 1652.7 146.1 L 1663.0 150.0 L 1671.2 151.5 L 1683.4 151.8 L 1696.0 152.1 L 1700.6 153.7 L 1700.6 157.9 L 1695.2 162.2 L 1685.5 164.7 L 1667.0 166.7 L 1653.4 172.1 L 1646.1 178.9 L 1641.2 187.7 L 1639.8 194.5 L 1639.8 199.8 L 1641.7 206.2 L 1657.1 220.4 L 1676.8 232.1 L 1679.2 239.7 L 1678.9 245.9 L 1677.3 267.1 L 1678.2 272.6 L 1682.2 276.3 L 1684.8 278.0 L 1699.0 283.4 L 1715.1 287.8 L 1719.9 288.3 L 1738.3 293.6 L 1742.7 294.8 L 1757.2 301.8 L 1765.9 312.2 L 1764.2 326.0 L 1759.7 338.4 L 1759.8 344.0 L 1770.4 367.1" stroke="#000" stroke-width="1.3" stroke-opacity="0.8" fill="none" stroke-linecap="round" stroke-linejoin="round"/>
<path d="M 1559.5 794.1 L 1581.2 805.8 L 1617.2 837.0 L 1630.9 843.6 L 1654.9 842.9 L 1663.4 848.8 L 1670.5 860.5 L 1678.3 905.6" stroke="#000" stroke-width="0.7" stroke-opacity="0.55" fill="none" stroke-linecap="round" stroke-linejoin="round"/>
<path d="M 524.9 1037.5 L 524.9 989.5 L 525.0 978.5 L 527.6 970.5 L 533.7 963.9 L 557.9 940.5 L 652.8 861.0" stroke="#000" stroke-width="1.3" stroke-opacity="0.8" fill="none" stroke-linecap="round" stroke-linejoin="round"/>
<path d="M 1431.2 414.7 L 1342.1 400.0 L 1339.6 396.5" stroke="#000" stroke-width="0.7" stroke-opacity="0.55" fill="none" stroke-linecap="round" stroke-linejoin="round"/>
<path d="M 1335.0 619.0 L 1424.7 696.3 L 1463.8 728.3 L 1463.8 737.7 L 1445.1 756.9" stroke="#000" stroke-width="0.7" stroke-opacity="0.55" fill="none" stroke-linecap="round" stroke-linejoin="round"/>
<path d="M 1401.5 475.6 L 1409.2 481.1 L 1438.3 509.8" stroke="#000" stroke-width="1.3" stroke-opacity="0.8" fill="none" stroke-linecap="round" stroke-linejoin="round"/>
<path d="M 1233.0 688.0 L 1193.7 732.3 L 1185.5 742.0 L 1170.7 761.8 L 1171.6 770.5 L 1183.2 791.2" stroke="#000" stroke-width="0.7" stroke-opacity="0.55" fill="none" stroke-linecap="round" stroke-linejoin="round"/>
<path d="M 1339.6 396.5 L 1339.3 394.1 L 1339.0 385.4 L 1338.3 376.9 L 1367.9 354.3 L 1392.0 322.9 L 1454.2 241.9" stroke="#000" stroke-width="1.3" stroke-opacity="0.8" fill="none" stroke-linecap="round" stroke-linejoin="round"/>
<path d="M 1454.2 241.9 L 1452.5 238.6 L 1451.5 232.3 L 1456.6 217.0" stroke="#000" stroke-width="0.7" stroke-opacity="0.55" fill="none" stroke-linecap="round" stroke-linejoin="round"/>
<path d="M 516.9 1133.5 L 522.9 1111.7 L 528.2 1105.9 L 529.8 1098.8" stroke="#000" stroke-width="1.3" stroke-opacity="0.8" fill="none" stroke-linecap="round" stroke-linejoin="round"/>
<path d="M 805.3 1364.8 L 811.2 1359.7 L 825.4 1347.5 L 834.2 1340.1 L 849.3 1325.4 L 869.1 1298.6 L 888.3 1271.2 L 897.3 1249.1" stroke="#000" stroke-width="1.3" stroke-opacity="0.8" fill="none" stroke-linecap="round" stroke-linejoin="round"/>
<path d="M 870.5 635.6 L 813.6 615.3 L 732.5 564.2 L 728.5 561.3 L 681.9 530.9 L 598.6 474.9" stroke="#000" stroke-width="0.7" stroke-opacity="0.55" fill="none" stroke-linecap="round" stroke-linejoin="round"/>
<path d="M 1401.5 475.6 L 1407.1 471.8 L 1448.3 462.4" stroke="#000" stroke-width="0.7" stroke-opacity="0.55" fill="none" stroke-linecap="round" stroke-linejoin="round"/>
<path d="M 1232.0 401.4 L 1260.2 423.0 L 1293.3 443.1" stroke="#000" stroke-width="0.5" stroke-opacity="0.35" fill="none" stroke-linecap="round" stroke-linejoin="round"/>
<path d="M 919.9 376.3 L 950.3 397.4 L 975.5 414.9 L 1012.4 439.2 L 1014.1 441.2" stroke="#000" stroke-width="0.7" stroke-opacity="0.55" fill="none" stroke-linecap="round" stroke-linejoin="round"/>
<path d="M 707.3 96.2 L 705.1 94.4 L 669.9 42.4 L 668.1 30.4 L 669.8 19.7" stroke="#000" stroke-width="0.7" stroke-opacity="0.55" fill="none" stroke-linecap="round" stroke-linejoin="round"/>
<path d="M 834.0 783.7 L 800.7 758.4 L 709.4 689.1 L 671.2 660.0 L 586.3 598.7 L 543.3 567.8" stroke="#000" stroke-width="1.3" stroke-opacity="0.8" fill="none" stroke-linecap="round" stroke-linejoin="round"/>
<path d="M 1418.3 1224.8 L 1421.6 1196.4 L 1426.7 1189.9 L 1463.5 1193.9 L 1465.4 1176.3 L 1459.0 1166.4 L 1434.7 1134.7" stroke="#000" stroke-width="1.3" stroke-opacity="0.8" fill="none" stroke-linecap="round" stroke-linejoin="round"/>
<path d="M 1412.4 885.7 L 1457.9 845.5 L 1462.9 841.4 L 1491.4 850.2 L 1520.6 867.3 L 1540.5 871.8 L 1548.1 871.4 L 1554.3 865.5 L 1575.9 847.2" stroke="#000" stroke-width="0.7" stroke-opacity="0.55" fill="none" stroke-linecap="round" stroke-linejoin="round"/>
<path d="M 1431.2 414.7 L 1433.6 409.7 L 1590.2 305.1" stroke="#000" stroke-width="0.7" stroke-opacity="0.55" fill="none" stroke-linecap="round" stroke-linejoin="round"/>
<path d="M 1654.9 842.9 L 1684.8 839.0 L 1690.5 841.0 L 1701.6 848.9 L 1704.8 849.7 L 1711.2 846.2 L 1713.5 836.5 L 1706.1 824.7 L 1699.6 810.8 L 1693.4 796.9 L 1691.5 769.6 L 1689.2 768.2 L 1651.0 771.9 L 1618.8 774.7 L 1607.7 774.9 L 1594.8 770.6 L 1555.9 773.8" stroke="#000" stroke-width="0.7" stroke-opacity="0.55" fill="none" stroke-linecap="round" stroke-linejoin="round"/>
<path d="M 839.1 182.7 L 841.8 147.5 L 841.5 135.1 L 837.4 120.4 L 834.5 99.4 L 835.5 86.6 L 839.3 76.4 L 862.0 52.1 L 877.9 39.6 L 888.2 37.4 L 903.2 42.3 L 919.1 55.5 L 933.3 69.7 L 965.9 103.1" stroke="#000" stroke-width="1.3" stroke-opacity="0.8" fill="none" stroke-linecap="round" stroke-linejoin="round"/>
<path d="M 967.1 1287.9 L 961.8 1288.7 L 956.8 1289.9 L 951.0 1291.8 L 946.1 1294.4 L 906.9 1327.9 L 906.4 1331.8 L 908.4 1363.3 L 911.3 1420.3" stroke="#000" stroke-width="1.3" stroke-opacity="0.8" fill="none" stroke-linecap="round" stroke-linejoin="round"/>
<path d="M 1314.4 410.1 L 1288.6 390.0 L 1276.5 382.3 L 1266.2 376.0 L 1251.2 366.1 L 1228.2 350.0 L 1213.0 333.6 L 1188.3 318.2" stroke="#000" stroke-width="0.5" stroke-opacity="0.35" fill="none" stroke-linecap="round" stroke-linejoin="round"/>
<path d="M 728.5 561.3 L 700.9 601.0 L 699.0 606.6 L 697.9 611.4 L 700.0 617.3 L 700.7 621.8 L 697.7 630.0 L 689.3 642.3 L 671.2 660.0" stroke="#000" stroke-width="0.7" stroke-opacity="0.55" fill="none" stroke-linecap="round" stroke-linejoin="round"/>
<path d="M 1510.9 412.3 L 1596.2 407.8" stroke="#000" stroke-width="0.7" stroke-opacity="0.55" fill="none" stroke-linecap="round" stroke-linejoin="round"/>
<path d="M 297.9 462.3 L 276.1 459.2 L 254.9 455.7 L 238.8 452.2 L 235.4 452.2 L 217.9 449.3 L 208.6 448.8 L 195.0 446.8" stroke="#000" stroke-width="1.3" stroke-opacity="0.8" fill="none" stroke-linecap="round" stroke-linejoin="round"/>
<path d="M 1242.0 730.3 L 1240.7 731.8 L 1188.7 785.5 L 1183.2 791.2 L 1130.1 854.3 L 1085.6 918.6 L 1052.9 963.4 L 1035.6 974.4 L 993.0 997.4 L 984.4 1001.7 L 969.4 1009.4 L 966.9 1010.1 L 962.0 1010.7" stroke="#000" stroke-width="1.3" stroke-opacity="0.8" fill="none" stroke-linecap="round" stroke-linejoin="round"/>
<path d="M 939.0 464.1 L 921.2 469.7 L 914.8 473.1 L 912.2 475.3 L 912.2 477.7" stroke="#000" stroke-width="0.7" stroke-opacity="0.55" fill="none" stroke-linecap="round" stroke-linejoin="round"/>
<path d="M 166.0 895.2 L 175.8 889.6 L 186.4 887.7 L 196.2 886.8 L 204.6 884.3 L 213.8 880.4 L 219.0 877.0 L 226.1 874.2 L 234.2 872.7 L 240.4 870.1 L 248.4 866.4 L 252.5 861.7 L 257.6 854.2 L 260.6 849.1 L 261.2 841.8" stroke="#000" stroke-width="1.3" stroke-opacity="0.8" fill="none" stroke-linecap="round" stroke-linejoin="round"/>
<path d="M 64.3 935.2 L 70.6 929.4 L 77.0 923.1 L 84.6 915.0 L 89.2 905.9 L 94.1 894.4 L 101.2 879.7 L 105.0 870.2 L 109.7 862.4 L 116.4 857.5 L 125.6 854.4 L 136.6 853.2 L 150.2 852.7 L 160.5 850.2 L 168.9 846.9 L 176.3 841.4 L 186.4 831.2 L 195.7 826.5 L 204.8 820.8 L 209.3 816.2 L 211.8 810.7 L 214.3 800.0 L 216.8 793.6 L 222.1 788.7 L 227.6 786.9 L 233.8 786.2 L 239.3 787.6 L 244.0 791.4 L 247.1 799.8 L 247.7 807.1 L 247.5 816.4 L 248.1 822.6 L 249.5 831.0 L 253.7 836.8 L 257.8 840.3 L 261.2 841.8 L 266.9 841.7 L 271.4 839.2 L 276.4 834.1 L 279.5 827.7 L 284.1 822.0 L 291.9 816.1 L 295.1 811.6 L 298.4 802.4 L 298.4 796.4 L 298.7 780.9 L 298.1 774.2 L 296.5 764.6 L 296.6 755.3 L 299.1 751.0 L 308.7 746.7 L 319.6 750.1" stroke="#000" stroke-width="1.3" stroke-opacity="0.8" fill="none" stroke-linecap="round" stroke-linejoin="round"/>
<path d="M 794.9 167.2 L 782.6 156.9 L 739.4 94.8 L 716.2 59.8 L 698.8 30.8 L 683.3 -17.3 L 647.0 -129.3 L 615.4 -222.4 L 544.1 -436.2" stroke="#000" stroke-width="1.3" stroke-opacity="0.8" fill="none" stroke-linecap="round" stroke-linejoin="round"/>
<path d="M 794.9 167.2 L 797.9 172.3 L 799.7 175.5 L 802.7 180.1 L 881.8 320.2 L 896.7 347.3 L 898.9 351.7 L 905.3 364.6 L 908.8 372.3 L 912.5 381.5 L 918.9 402.5 L 932.8 444.9 L 933.7 447.6 L 934.6 450.4 L 937.4 458.9 L 939.0 464.1 L 955.5 517.1" stroke="#000" stroke-width="1.3" stroke-opacity="0.8" fill="none" stroke-linecap="round" stroke-linejoin="round"/>
<path d="M 1269.7 1225.8 L 1276.4 1310.2 L 1277.6 1325.4 L 1285.5 1409.2 L 1289.4 1487.0 L 1290.5 1544.6 L 1292.6 1635.4 L 1292.7 1645.9" stroke="#000" stroke-width="1.3" stroke-opacity="0.8" fill="none" stroke-linecap="round" stroke-linejoin="round"/>
<path d="M 297.9 462.3 L 312.4 445.7 L 334.3 421.1 L 357.8 410.6 L 422.1 406.3 L 501.7 405.0 L 523.0 403.3 L 591.5 395.4 L 673.0 387.6 L 755.1 377.6 L 796.9 372.4 L 815.0 368.7 L 838.1 360.9 L 856.7 355.4" stroke="#000" stroke-width="1.3" stroke-opacity="0.8" fill="none" stroke-linecap="round" stroke-linejoin="round"/>
<path d="M 966.1 1270.3 L 960.8 1263.0 L 872.7 1146.6 L 844.3 1108.8 L 824.2 1082.3" stroke="#000" stroke-width="1.3" stroke-opacity="0.8" fill="none" stroke-linecap="round" stroke-linejoin="round"/>
<path d="M 966.1 1270.3 L 974.3 1268.9 L 1007.5 1263.0 L 1067.2 1253.5 L 1073.8 1252.4 L 1156.7 1241.2 L 1269.7 1225.8 L 1319.7 1218.5 L 1336.7 1217.3" stroke="#000" stroke-width="1.3" stroke-opacity="0.8" fill="none" stroke-linecap="round" stroke-linejoin="round"/>
<path d="M 1067.2 1253.5 L 1081.5 1344.3 L 1091.6 1408.4 L 1096.7 1452.2 L 1096.5 1490.5 L 1095.5 1557.1 L 1094.3 1622.2 L 1094.4 1633.1 L 1094.4 1637.3 L 1094.4 1642.1" stroke="#000" stroke-width="1.3" stroke-opacity="0.8" fill="none" stroke-linecap="round" stroke-linejoin="round"/>
<path d="M 1063.1 1207.8 L 1103.8 1182.5" stroke="#000" stroke-width="1.3" stroke-opacity="0.8" fill="none" stroke-linecap="round" stroke-linejoin="round"/>
<path d="M 624.6 1155.1 L 626.1 1156.9 L 626.7 1158.9 L 626.9 1160.8 L 626.9 1162.8 L 626.6 1163.9 L 625.7 1165.9 L 624.5 1167.2 L 622.6 1168.4 L 619.9 1169.1 L 618.1 1169.1 L 615.4 1168.5 L 613.2 1167.1 L 611.8 1165.3" stroke="#000" stroke-width="1.3" stroke-opacity="0.8" fill="none" stroke-linecap="round" stroke-linejoin="round"/>
<path d="M 624.6 1155.1 L 650.3 1127.8 L 660.0 1117.2 L 668.5 1105.6 L 676.6 1093.1 L 707.9 1033.5 L 710.2 1029.4 L 741.1 974.3 L 779.2 900.8 L 800.6 864.6 L 840.7 811.8 L 853.1 796.0 L 858.4 789.1 L 873.5 765.5 L 876.7 761.0 L 882.6 742.7 L 892.3 700.6 L 906.0 644.7 L 919.9 585.7 L 929.0 556.5 L 930.8 552.5 L 932.5 549.8 L 934.4 546.7" stroke="#000" stroke-width="1.3" stroke-opacity="0.8" fill="none" stroke-linecap="round" stroke-linejoin="round"/>
<path d="M 626.9 1160.8 L 631.5 1161.5 L 729.3 1192.7 L 769.6 1206.4 L 816.8 1221.8 L 844.0 1230.7 L 897.3 1249.1 L 960.7 1268.7 L 966.1 1270.3" stroke="#000" stroke-width="1.3" stroke-opacity="0.8" fill="none" stroke-linecap="round" stroke-linejoin="round"/>
<path d="M 780.7 1346.3 L 775.5 1338.2 L 721.8 1276.0 L 627.5 1170.7 L 624.5 1167.2" stroke="#000" stroke-width="1.3" stroke-opacity="0.8" fill="none" stroke-linecap="round" stroke-linejoin="round"/>
<path d="M 945.8 550.4 L 942.9 548.0 L 941.3 546.6 L 940.0 546.3 L 937.9 546.4 L 934.4 546.7" stroke="#000" stroke-width="1.3" stroke-opacity="0.8" fill="none" stroke-linecap="round" stroke-linejoin="round"/>
<path d="M 912.2 475.3 L 909.8 476.1" stroke="#000" stroke-width="0.7" stroke-opacity="0.55" fill="none" stroke-linecap="round" stroke-linejoin="round"/>
<path d="M 912.7 499.2 L 910.5 499.4" stroke="#000" stroke-width="0.7" stroke-opacity="0.55" fill="none" stroke-linecap="round" stroke-linejoin="round"/>
<path d="M 912.2 477.7 L 912.4 488.1 L 912.7 499.2 L 912.9 516.0" stroke="#000" stroke-width="0.7" stroke-opacity="0.55" fill="none" stroke-linecap="round" stroke-linejoin="round"/>
<path d="M 909.6 470.3 L 913.5 469.0 L 919.4 466.3 L 926.9 462.0 L 932.3 460.4 L 937.4 458.9" stroke="#000" stroke-width="0.7" stroke-opacity="0.55" fill="none" stroke-linecap="round" stroke-linejoin="round"/>
<path d="M 882.5 460.5 L 884.1 460.1 L 906.8 465.1 L 910.4 465.6" stroke="#000" stroke-width="0.7" stroke-opacity="0.55" fill="none" stroke-linecap="round" stroke-linejoin="round"/>
<path d="M 910.4 465.6 L 916.8 463.9 L 926.9 462.0" stroke="#000" stroke-width="0.7" stroke-opacity="0.55" fill="none" stroke-linecap="round" stroke-linejoin="round"/>
<path d="M 936.4 466.9 L 923.5 470.5 L 917.8 473.4 L 915.5 475.7 L 916.1 526.3 L 916.8 527.3 L 932.9 539.9" stroke="#000" stroke-width="0.5" stroke-opacity="0.35" fill="none" stroke-linecap="round" stroke-linejoin="round"/>
<path d="M 916.1 526.3 L 914.8 525.9" stroke="#000" stroke-width="0.5" stroke-opacity="0.35" fill="none" stroke-linecap="round" stroke-linejoin="round"/>
<path d="M 936.4 466.9 L 947.9 515.6 L 948.3 518.2 L 947.2 520.8 L 932.9 539.9 L 925.8 550.1 L 921.4 560.7 L 919.1 568.7 L 902.0 640.8 L 901.3 644.6 L 900.6 648.2 L 878.0 743.7 L 874.0 755.7 L 871.2 760.5 L 850.7 791.4 L 849.1 794.0 L 846.7 798.3 L 805.8 852.5" stroke="#000" stroke-width="0.5" stroke-opacity="0.35" fill="none" stroke-linecap="round" stroke-linejoin="round"/>
<path d="M 885.6 815.2 L 876.2 808.4 L 867.5 802.6 L 861.4 799.9 L 853.1 796.0 L 849.1 794.0 L 847.3 792.8" stroke="#000" stroke-width="1.3" stroke-opacity="0.8" fill="none" stroke-linecap="round" stroke-linejoin="round"/>
<path d="M 914.9 770.2 L 876.7 761.0" stroke="#000" stroke-width="0.7" stroke-opacity="0.55" fill="none" stroke-linecap="round" stroke-linejoin="round"/>
<path d="M 912.0 828.0 L 909.8 828.6 L 906.9 827.8 L 892.8 817.3 L 890.6 816.5 L 885.6 815.2" stroke="#000" stroke-width="0.7" stroke-opacity="0.55" fill="none" stroke-linecap="round" stroke-linejoin="round"/>
<path d="M 1078.6 786.8 L 1087.0 791.5 L 1095.7 802.8 L 1130.1 854.3 L 1193.2 928.9 L 1248.7 996.4 L 1268.1 1038.0" stroke="#000" stroke-width="1.3" stroke-opacity="0.8" fill="none" stroke-linecap="round" stroke-linejoin="round"/>
<path d="M 1067.6 719.9 L 1037.8 743.5" stroke="#000" stroke-width="0.5" stroke-opacity="0.35" fill="none" stroke-linecap="round" stroke-linejoin="round"/>
<path d="M 1075.8 764.8 L 1081.4 762.7 L 1091.4 755.1 L 1104.3 735.6 L 1124.4 720.8 L 1132.8 709.9 L 1142.9 691.8 L 1150.3 686.0 L 1159.2 683.8 L 1171.6 683.8 L 1183.8 687.8" stroke="#000" stroke-width="0.7" stroke-opacity="0.55" fill="none" stroke-linecap="round" stroke-linejoin="round"/>
<path d="M 971.6 1354.6 L 975.4 1326.9" stroke="#000" stroke-width="0.9" stroke-opacity="0.6" fill="none" stroke-linecap="round" stroke-linejoin="round"/>
<path d="M 859.2 1422.6 L 855.5 1369.7 L 856.6 1367.4 L 869.9 1367.0 L 908.4 1363.3" stroke="#000" stroke-width="1.3" stroke-opacity="0.8" fill="none" stroke-linecap="round" stroke-linejoin="round"/>
<path d="M 906.4 1331.8 L 898.1 1334.8 L 868.6 1358.1 L 869.9 1367.0" stroke="#000" stroke-width="1.3" stroke-opacity="0.8" fill="none" stroke-linecap="round" stroke-linejoin="round"/>
<path d="M 1163.0 -1802.8 L 1189.0 -1774.2 L 1199.2 -1723.7 L 1201.5 -1709.4 L 1215.0 -1691.6 L 1225.2 -1668.3 L 1231.3 -1647.9 L 1249.3 -1624.9 L 1276.1 -1595.1 L 1276.9 -1549.2 L 1277.6 -1504.7 L 1270.1 -1478.3 L 1205.2 -1403.6 L 1198.8 -1381.8 L 1214.7 -1349.0 L 1221.8 -1316.9 L 1221.8 -1300.0 L 1215.0 -1288.7 L 1208.6 -1269.8 L 1204.9 -1236.6 L 1204.9 -1205.4 L 1202.6 -1192.9 L 1215.0 -1150.7 L 1215.0 -1142.0 L 1207.8 -1129.1 L 1208.3 -1113.0 L 1217.0 -1073.8 L 1217.0 -1050.4 L 1213.2 -1037.2 L 1213.2 -1025.9 L 1215.6 -1021.0 L 1232.4 -1009.2 L 1239.2 -1001.6 L 1242.8 -993.2 L 1242.8 -991.7 L 1247.2 -974.6 L 1250.6 -966.8 L 1256.0 -959.9 L 1278.4 -952.0 L 1292.6 -944.1 L 1310.6 -937.8 L 1324.6 -929.5 L 1331.9 -922.6 L 1339.8 -909.9 L 1342.2 -902.1 L 1345.6 -884.0 L 1342.9 -869.1 L 1353.7 -841.1 L 1355.3 -822.6 L 1359.2 -814.7 L 1362.5 -804.5 L 1365.5 -785.9 L 1369.9 -775.7 L 1376.7 -766.4 L 1383.5 -759.5 L 1392.8 -754.4 L 1401.5 -742.8 L 1407.8 -742.6 L 1417.1 -734.1 L 1423.9 -717.4 L 1433.2 -690.6 L 1441.9 -672.9 L 1459.9 -648.9 L 1476.8 -633.2 L 1477.9 -625.7 L 1475.1 -606.9 L 1457.0 -595.2 L 1450.2 -591.8 L 1435.1 -578.6 L 1423.9 -571.3 L 1411.7 -558.5 L 1408.8 -552.7 L 1406.4 -545.8 L 1406.4 -535.1 L 1407.4 -526.3 L 1406.4 -501.8 L 1406.8 -500.2 L 1408.3 -494.0 L 1408.8 -477.8 L 1407.9 -470.6 L 1394.2 -445.6 L 1392.8 -440.7 L 1385.5 -423.1 L 1378.1 -411.9 L 1375.3 -401.1 L 1373.8 -374.7 L 1366.5 -352.2 L 1365.3 -344.7 L 1365.5 -337.5 L 1366.9 -331.2 L 1378.6 -287.2 L 1378.6 -270.6 L 1380.3 -249.5 L 1377.6 -241.1 L 1362.6 -226.9 L 1355.0 -210.8 L 1353.9 -201.0 L 1355.8 -183.5 L 1357.2 -177.7 L 1357.7 -166.9 L 1361.1 -151.2 L 1366.0 -119.5 L 1366.9 -106.8 L 1367.4 -98.9 L 1351.4 -60.5 L 1347.3 -39.9 L 1348.8 -14.7 L 1351.9 18.4 L 1349.1 40.9 L 1343.8 74.3 L 1339.5 81.7 L 1331.7 105.1 L 1318.6 142.7 L 1312.2 167.4 L 1301.6 207.1 L 1302.5 216.8 L 1315.2 243.2 L 1321.0 258.4 L 1322.3 274.3 L 1319.2 312.4 L 1332.5 387.5 L 1334.6 401.1 L 1343.7 417.1 L 1353.4 428.7 L 1355.3 439.1 L 1353.2 447.8 L 1350.4 459.4 L 1344.5 476.8 L 1339.7 487.3 L 1331.9 503.0 L 1296.7 548.7 L 1255.7 595.8 L 1250.7 602.7 L 1244.8 609.7 L 1234.5 626.6 L 1230.1 641.1 L 1231.7 671.0 L 1239.6 707.4 L 1248.2 759.7 L 1260.7 828.0 L 1279.5 951.5 L 1305.2 1119.7 L 1310.1 1158.1 L 1312.1 1164.5 L 1347.1 1218.8 L 1361.7 1238.5 L 1382.6 1261.9 L 1494.1 1374.2 L 1496.9 1377.1" stroke="#000" stroke-width="3.2" stroke-opacity="0.9" fill="none" stroke-linecap="round" stroke-linejoin="round"/>
<path d="M 457.6 816.3 L 443.5 821.1" stroke="#000" stroke-width="0.5" stroke-opacity="0.35" fill="none" stroke-linecap="round" stroke-linejoin="round"/>
<path d="M 436.2 760.4 L 441.8 766.3" stroke="#000" stroke-width="0.5" stroke-opacity="0.35" fill="none" stroke-linecap="round" stroke-linejoin="round"/>
<path d="M 1008.8 286.3 L 1029.1 305.3 L 1062.4 331.5 L 1084.4 351.4 L 1087.1 353.3" stroke="#000" stroke-width="0.7" stroke-opacity="0.55" fill="none" stroke-linecap="round" stroke-linejoin="round"/>
<path d="M 1127.6 444.5 L 1092.8 407.0 L 1067.5 381.7 L 1065.3 379.0" stroke="#000" stroke-width="0.7" stroke-opacity="0.55" fill="none" stroke-linecap="round" stroke-linejoin="round"/>
<path d="M 1338.3 376.9 L 1335.4 372.8 L 1332.7 351.4 L 1326.7 318.0 L 1327.9 291.7 L 1329.2 260.5 L 1325.7 251.8 L 1315.8 235.9 L 1309.6 225.0 L 1306.6 218.1 L 1306.6 210.2 L 1314.3 180.7 L 1319.2 160.1" stroke="#000" stroke-width="0.7" stroke-opacity="0.55" fill="none" stroke-linecap="round" stroke-linejoin="round"/>
<path d="M 1065.3 379.0 L 1063.1 376.3 L 1018.4 334.4 L 974.4 304.3" stroke="#000" stroke-width="1.3" stroke-opacity="0.8" fill="none" stroke-linecap="round" stroke-linejoin="round"/>
<path d="M 631.6 116.8 L 646.8 199.7" stroke="#000" stroke-width="0.7" stroke-opacity="0.55" fill="none" stroke-linecap="round" stroke-linejoin="round"/>
<path d="M 598.6 474.9 L 543.3 567.8 L 494.0 648.3 L 453.5 717.3 L 445.9 733.8 L 442.2 746.0 L 436.2 760.4 L 433.4 769.9 L 429.9 775.7 L 424.0 778.6 L 404.2 781.2" stroke="#000" stroke-width="1.3" stroke-opacity="0.8" fill="none" stroke-linecap="round" stroke-linejoin="round"/>
<path d="M 531.7 -124.2 L 550.6 44.3 L 553.2 67.5 L 559.3 121.7 L 561.8 144.3 L 569.5 212.1" stroke="#000" stroke-width="1.3" stroke-opacity="0.8" fill="none" stroke-linecap="round" stroke-linejoin="round"/>
<path d="M 644.2 1399.5 L 710.4 1373.1 L 747.3 1357.8 L 775.5 1338.2 L 796.8 1322.8 L 819.2 1290.8 L 836.1 1262.0 L 844.0 1230.7" stroke="#000" stroke-width="1.3" stroke-opacity="0.8" fill="none" stroke-linecap="round" stroke-linejoin="round"/>
<path d="M 710.2 1029.4 L 671.2 1014.5" stroke="#000" stroke-width="0.7" stroke-opacity="0.55" fill="none" stroke-linecap="round" stroke-linejoin="round"/>
<path d="M 880.3 207.4 L 965.9 103.1" stroke="#000" stroke-width="0.7" stroke-opacity="0.55" fill="none" stroke-linecap="round" stroke-linejoin="round"/>
<path d="M 1609.3 1002.9 L 1533.3 1001.0 L 1531.3 979.2" stroke="#000" stroke-width="0.7" stroke-opacity="0.55" fill="none" stroke-linecap="round" stroke-linejoin="round"/>
<path d="M 1404.7 938.6 L 1456.5 914.7 L 1528.4 885.9 L 1539.9 882.3 L 1544.5 883.2 L 1561.7 901.3 L 1568.7 910.2 L 1586.5 940.4 L 1592.9 967.4" stroke="#000" stroke-width="0.7" stroke-opacity="0.55" fill="none" stroke-linecap="round" stroke-linejoin="round"/>
<path d="M 1561.7 901.3 L 1585.7 884.2" stroke="#000" stroke-width="0.7" stroke-opacity="0.55" fill="none" stroke-linecap="round" stroke-linejoin="round"/>
<path d="M 1540.5 871.8 L 1539.9 882.3" stroke="#000" stroke-width="0.5" stroke-opacity="0.35" fill="none" stroke-linecap="round" stroke-linejoin="round"/>
<path d="M 1183.8 687.8 L 1087.0 791.5" stroke="#000" stroke-width="0.5" stroke-opacity="0.35" fill="none" stroke-linecap="round" stroke-linejoin="round"/>
<path d="M 1050.5 504.2 L 1067.6 518.2 L 1070.0 526.0 L 1081.2 537.5 L 1084.0 537.3 L 1089.4 532.5 L 1093.1 532.5 L 1107.0 541.2 L 1111.5 541.2 L 1144.2 516.5 L 1147.1 507.8 L 1155.0 501.1" stroke="#000" stroke-width="0.7" stroke-opacity="0.55" fill="none" stroke-linecap="round" stroke-linejoin="round"/>
<path d="M 478.0 206.8 L 408.3 213.9 L 399.6 217.2 L 398.0 225.0 L 397.3 236.5 L 388.9 242.0 L 381.0 242.7 L 352.6 231.9 L 348.7 231.9 L 339.9 234.8 L 329.4 238.8 L 321.9 238.4 L 315.0 235.5 L 310.1 231.9" stroke="#000" stroke-width="0.7" stroke-opacity="0.55" fill="none" stroke-linecap="round" stroke-linejoin="round"/>
<path d="M 1392.0 322.9 L 1370.6 307.2 L 1365.9 299.5 L 1367.6 270.1 L 1369.9 260.4 L 1376.6 249.7 L 1376.6 242.0 L 1366.6 218.3 L 1365.3 209.9 L 1361.9 203.6 L 1349.9 195.2 L 1344.9 188.5 L 1336.8 187.9 L 1314.3 180.7" stroke="#000" stroke-width="0.7" stroke-opacity="0.55" fill="none" stroke-linecap="round" stroke-linejoin="round"/>
<path d="M 322.2 1008.5 L 368.5 1011.6" stroke="#000" stroke-width="1.3" stroke-opacity="0.8" fill="none" stroke-linecap="round" stroke-linejoin="round"/>
<path d="M 945.8 550.4 L 946.6 590.4 L 949.3 644.7 L 952.0 680.3 L 952.5 704.3 L 955.9 818.5 L 956.8 836.2 L 962.0 1010.7 L 962.6 1021.3 L 964.7 1091.4 L 965.3 1133.0 L 966.0 1261.1 L 966.1 1270.3" stroke="#000" stroke-width="2.4" stroke-opacity="0.95" fill="none" stroke-linecap="round" stroke-linejoin="round"/>
<path d="M 955.5 517.1 L 947.2 529.5" stroke="#000" stroke-width="2.4" stroke-opacity="0.95" fill="none" stroke-linecap="round" stroke-linejoin="round"/>
<path d="M 1149.8 -774.1 L 1171.1 -754.8 L 1193.9 -748.0 L 1213.5 -747.7 L 1246.8 -709.8 L 1264.5 -645.5 L 1281.4 -624.9 L 1292.2 -573.6 L 1306.9 -531.5 L 1302.7 -494.0 L 1291.9 -467.5 L 1299.4 -436.8 L 1301.7 -416.6 L 1294.8 -379.0 L 1274.9 -328.8 L 1270.3 -289.9 L 1280.5 -272.9 L 1281.4 -259.5 L 1283.4 -247.5 L 1297.8 -225.2 L 1298.9 -206.3 L 1294.5 -181.8 L 1295.8 -112.3 L 1317.7 -75.4 L 1331.4 -48.6 L 1332.7 -15.0 L 1324.9 10.2 L 1242.3 81.0 L 1237.0 94.8" stroke="#000" stroke-width="3.2" stroke-opacity="0.9" fill="none" stroke-linecap="round" stroke-linejoin="round"/>
<path d="M 1136.9 291.5 L 1139.2 293.4 L 1182.9 327.8" stroke="#000" stroke-width="0.7" stroke-opacity="0.55" fill="none" stroke-linecap="round" stroke-linejoin="round"/>
<path d="M 1115.8 267.5 L 1135.5 287.2 L 1138.4 289.6" stroke="#000" stroke-width="0.5" stroke-opacity="0.35" fill="none" stroke-linecap="round" stroke-linejoin="round"/>
<path d="M 1448.3 462.4 L 1450.9 461.8 L 1457.0 459.0 L 1469.5 449.5 L 1492.8 448.0" stroke="#000" stroke-width="0.5" stroke-opacity="0.35" fill="none" stroke-linecap="round" stroke-linejoin="round"/>
<path d="M 1438.3 509.8 L 1456.6 493.5 L 1473.9 489.6 L 1477.9 490.1 L 1487.3 504.4 L 1484.3 508.9 L 1473.5 510.4 L 1438.3 509.8" stroke="#000" stroke-width="0.7" stroke-opacity="0.55" fill="none" stroke-linecap="round" stroke-linejoin="round"/>
<path d="M 1560.3 517.4 L 1552.3 528.7 L 1556.2 535.1 L 1568.2 535.9" stroke="#000" stroke-width="0.5" stroke-opacity="0.35" fill="none" stroke-linecap="round" stroke-linejoin="round"/>
<path d="M 480.5 226.7 L 478.0 206.8 L 471.7 156.3 L 468.0 126.7 L 462.7 84.1 L 438.6 -109.0" stroke="#000" stroke-width="1.3" stroke-opacity="0.8" fill="none" stroke-linecap="round" stroke-linejoin="round"/>
<path d="M 1055.8 1113.3 L 1103.8 1182.5" stroke="#000" stroke-width="1.3" stroke-opacity="0.8" fill="none" stroke-linecap="round" stroke-linejoin="round"/>
<path d="M 591.5 395.4 L 593.7 420.3 L 598.6 474.9" stroke="#000" stroke-width="1.3" stroke-opacity="0.8" fill="none" stroke-linecap="round" stroke-linejoin="round"/>
<path d="M 1029.0 531.4 L 1046.2 556.9 L 1048.1 564.0 L 1049.6 581.7 L 1051.1 587.3 L 1071.7 609.1" stroke="#000" stroke-width="0.7" stroke-opacity="0.55" fill="none" stroke-linecap="round" stroke-linejoin="round"/>
<path d="M 1155.0 501.1 L 1186.2 523.5" stroke="#000" stroke-width="0.5" stroke-opacity="0.35" fill="none" stroke-linecap="round" stroke-linejoin="round"/>
<path d="M 1325.5 400.1 L 1318.2 344.6 L 1310.3 304.5 L 1306.2 293.2" stroke="#000" stroke-width="0.7" stroke-opacity="0.55" fill="none" stroke-linecap="round" stroke-linejoin="round"/>
<path d="M 2017.8 342.0 L 2003.3 342.2 L 1990.1 349.1 L 1980.5 358.3 L 1962.3 363.4 L 1925.5 367.1 L 1909.4 376.5 L 1891.0 382.5 L 1863.6 376.1 L 1855.4 376.1 L 1840.4 386.2 L 1831.0 407.2 L 1823.1 430.1 L 1798.7 450.0 L 1767.6 466.5 L 1754.5 472.1 L 1732.0 472.1 L 1672.7 468.8 L 1649.4 461.3 L 1612.7 461.3 L 1598.8 459.4 L 1567.7 441.8 L 1545.2 433.5 L 1524.3 436.5 L 1509.7 442.8 L 1483.6 444.8 L 1463.4 447.0" stroke="#000" stroke-width="3.2" stroke-opacity="0.9" fill="none" stroke-linecap="round" stroke-linejoin="round"/>
<path d="M 2009.5 78.1 L 1976.1 88.2 L 1931.5 99.1 L 1919.1 119.0 L 1901.1 125.0 L 1868.1 120.5 L 1847.8 124.2 L 1831.7 125.0 L 1823.5 129.1 L 1811.8 144.5 L 1794.2 151.6 L 1777.7 153.5 L 1760.8 145.6 L 1747.3 139.6 L 1718.0 140.7 L 1689.2 145.2 L 1650.2 138.1 L 1635.5 137.4 L 1619.0 143.0 L 1564.6 167.8 L 1554.5 179.4 L 1524.9 214.6 L 1517.4 242.8 L 1515.1 282.5 L 1494.8 317.4 L 1465.2 335.0 L 1431.5 342.5 L 1413.1 365.4 L 1389.8 387.9 L 1370.3 396.9 L 1366.5 402.5" stroke="#000" stroke-width="3.2" stroke-opacity="0.9" fill="none" stroke-linecap="round" stroke-linejoin="round"/>
<path d="M 804.3 1373.3 L 805.3 1364.8 L 798.7 1356.8 L 790.9 1350.9 L 780.7 1346.3" stroke="#000" stroke-width="1.3" stroke-opacity="0.8" fill="none" stroke-linecap="round" stroke-linejoin="round"/>
<path d="M 977.7 1630.2 L 1024.0 1631.2 L 1027.2 1630.2 L 1030.4 1628.3 L 1032.1 1623.5 L 1032.2 1610.4 L 1030.3 1592.3 L 1027.8 1574.2 L 1026.7 1567.2 L 1025.0 1561.3 L 1023.7 1555.7 L 1022.8 1550.5 L 1009.4 1492.7 L 1008.1 1487.0 L 1007.0 1481.9 L 992.1 1423.2 L 990.5 1415.9 L 988.6 1407.2 L 976.5 1355.6 L 971.6 1354.6 L 968.2 1353.6 L 968.1 1315.8 L 961.8 1288.7 L 961.7 1285.3 L 961.3 1281.4 L 960.6 1273.9" stroke="#000" stroke-width="0.5" stroke-opacity="0.35" fill="none" stroke-linecap="round" stroke-linejoin="round"/>
<path d="M 1142.2 246.7 L 1158.3 262.6 L 1160.2 264.5" stroke="#000" stroke-width="0.7" stroke-opacity="0.55" fill="none" stroke-linecap="round" stroke-linejoin="round"/>
<path d="M 462.8 1089.5 L 451.8 1091.2 L 445.6 1099.5 L 442.0 1122.2 L 447.6 1152.3 L 445.1 1179.6 L 439.3 1207.1 L 437.9 1212.5 L 437.4 1229.6 L 436.9 1233.0 L 432.1 1239.8 L 429.1 1245.2 L 423.0 1256.8" stroke="#000" stroke-width="3.2" stroke-opacity="0.9" fill="none" stroke-linecap="round" stroke-linejoin="round"/>
<path d="M 465.8 1065.2 L 474.9 1065.9 L 480.9 1072.8 L 483.4 1075.8 L 479.9 1081.8 L 462.8 1089.5" stroke="#000" stroke-width="3.2" stroke-opacity="0.9" fill="none" stroke-linecap="round" stroke-linejoin="round"/>
<path d="M 457.9 1064.8 L 465.8 1065.2" stroke="#000" stroke-width="3.2" stroke-opacity="0.9" fill="none" stroke-linecap="round" stroke-linejoin="round"/>
<path d="M 435.8 747.6 L 442.5 754.3" stroke="#000" stroke-width="3.2" stroke-opacity="0.9" fill="none" stroke-linecap="round" stroke-linejoin="round"/>
<path d="M 413.1 674.5 L 411.9 696.1 L 416.0 712.1 L 427.9 728.0 L 433.4 734.1 L 435.8 747.6" stroke="#000" stroke-width="3.2" stroke-opacity="0.9" fill="none" stroke-linecap="round" stroke-linejoin="round"/>
<path d="M 719.4 955.9 L 706.4 965.0 L 690.0 988.5 L 673.5 1000.3 L 656.2 1005.9 L 633.3 1011.5 L 618.5 1028.5 L 607.6 1037.7 L 598.7 1047.3 L 589.8 1055.1 L 578.0 1059.4 L 564.9 1071.6 L 554.2 1073.6 L 546.3 1079.8 L 541.0 1084.9 L 525.3 1094.0 L 506.3 1102.1 L 501.5 1100.3 L 492.9 1099.1 L 484.4 1098.7 L 478.7 1095.3 L 462.8 1089.5" stroke="#000" stroke-width="3.2" stroke-opacity="0.9" fill="none" stroke-linecap="round" stroke-linejoin="round"/>
<path d="M 729.9 943.0 L 719.4 955.9" stroke="#000" stroke-width="3.2" stroke-opacity="0.9" fill="none" stroke-linecap="round" stroke-linejoin="round"/>
<path d="M 1223.0 130.7 L 1219.1 157.5 L 1217.4 167.6 L 1201.4 181.0 L 1194.6 190.1 L 1188.7 203.8 L 1183.5 207.4 L 1172.7 210.0 L 1145.9 238.8 L 1123.7 258.3 L 1108.0 273.7 L 1094.3 293.6 L 1069.5 320.4 L 1061.8 327.4 L 1057.0 330.1 L 1050.9 332.5 L 1035.6 346.8 L 1031.0 351.0 L 1022.8 359.3 L 1018.2 365.5" stroke="#000" stroke-width="3.2" stroke-opacity="0.9" fill="none" stroke-linecap="round" stroke-linejoin="round"/>
<path d="M 1237.0 94.8 L 1223.0 130.7" stroke="#000" stroke-width="3.2" stroke-opacity="0.9" fill="none" stroke-linecap="round" stroke-linejoin="round"/>
<path d="M 1364.8 407.3 L 1361.3 415.8 L 1353.4 428.7" stroke="#000" stroke-width="3.2" stroke-opacity="0.9" fill="none" stroke-linecap="round" stroke-linejoin="round"/>
<path d="M 1366.5 402.5 L 1364.8 407.3" stroke="#000" stroke-width="3.2" stroke-opacity="0.9" fill="none" stroke-linecap="round" stroke-linejoin="round"/>
<path d="M 611.8 1165.3 L 610.5 1163.3 L 610.4 1161.2 L 610.7 1158.5 L 611.5 1156.4 L 613.3 1154.4 L 616.2 1153.2 L 618.5 1153.0 L 620.4 1153.1 L 622.6 1153.7 L 624.6 1155.1" stroke="#000" stroke-width="1.3" stroke-opacity="0.8" fill="none" stroke-linecap="round" stroke-linejoin="round"/>
<path d="M 1022.1 1483.9 L 1019.8 1482.1 L 1006.0 1421.3 L 1004.3 1413.9 L 1002.2 1404.3 L 976.5 1290.3 L 975.7 1281.0 L 974.9 1272.5" stroke="#000" stroke-width="0.5" stroke-opacity="0.35" fill="none" stroke-linecap="round" stroke-linejoin="round"/>
<path d="M 960.9 1261.0 L 961.2 1259.6 L 960.8 1210.5 L 962.2 1153.5 L 960.3 1091.5 L 957.5 1010.0 L 952.3 836.3 L 947.9 704.3 L 946.8 677.7 L 944.7 644.8 L 942.1 596.6 L 941.8 589.6 L 941.5 583.4 L 941.2 556.7 L 940.5 552.4 L 939.3 550.4 L 937.2 550.1 L 933.9 554.1 L 932.7 556.8 L 925.7 579.9 L 925.4 581.4 L 926.0 582.7 L 939.7 584.9 L 941.5 583.4" stroke="#000" stroke-width="0.5" stroke-opacity="0.35" fill="none" stroke-linecap="round" stroke-linejoin="round"/>
<path d="M 960.6 1273.9 L 960.7 1268.7 L 960.8 1263.0 L 960.9 1261.0" stroke="#000" stroke-width="0.5" stroke-opacity="0.35" fill="none" stroke-linecap="round" stroke-linejoin="round"/>
<path d="M 974.0 1266.5 L 971.7 1265.3 L 970.4 1262.5 L 970.1 1133.0 L 967.4 1015.2 L 967.4 1013.9 L 966.9 1010.1 L 967.1 1007.1 L 967.3 1005.5 L 966.6 1003.9 L 960.5 820.4 L 960.4 818.7 L 956.9 703.9 L 956.2 682.9 L 954.1 644.7 L 950.8 590.8 L 949.8 549.2 L 950.8 536.6 L 954.4 525.4 L 955.4 523.3 L 961.4 516.2 L 958.6 513.0" stroke="#000" stroke-width="0.5" stroke-opacity="0.35" fill="none" stroke-linecap="round" stroke-linejoin="round"/>
<path d="M 974.9 1272.5 L 974.3 1268.9 L 974.0 1266.5" stroke="#000" stroke-width="0.5" stroke-opacity="0.35" fill="none" stroke-linecap="round" stroke-linejoin="round"/>
<path d="M 970.4 1262.5 L 966.0 1261.1 L 961.2 1259.6" stroke="#000" stroke-width="0.5" stroke-opacity="0.35" fill="none" stroke-linecap="round" stroke-linejoin="round"/>
<path d="M 961.3 1281.4 L 966.7 1281.3 L 969.4 1281.2 L 975.7 1281.0" stroke="#000" stroke-width="0.5" stroke-opacity="0.35" fill="none" stroke-linecap="round" stroke-linejoin="round"/>
<path d="M 1138.7 286.6 L 1158.3 262.6 L 1177.2 243.5 L 1205.7 223.1 L 1206.9 225.2 L 1208.0 227.1 L 1174.3 251.7 L 1142.7 289.3 L 1140.7 287.9 L 1138.7 286.6" stroke="#000" stroke-width="0.7" stroke-opacity="0.55" fill="none" stroke-linecap="round" stroke-linejoin="round"/>
<path d="M 957.6 510.2 L 959.6 512.0 L 961.5 513.7 L 1016.5 442.1 L 1066.4 383.1 L 1067.5 381.7 L 1086.9 358.2 L 1139.2 293.4 L 1142.7 289.3 L 1140.7 287.9 L 1138.7 286.6 L 1135.5 287.2 L 1134.7 288.2 L 1084.4 351.4 L 1063.1 376.3 L 1012.4 439.2 L 957.6 510.2" stroke="#000" stroke-width="0.7" stroke-opacity="0.55" fill="none" stroke-linecap="round" stroke-linejoin="round"/>
<path d="M 1319.7 1218.5 L 1347.6 1266.1 L 1412.8 1376.5 L 1423.2 1395.1" stroke="#000" stroke-width="1.3" stroke-opacity="0.8" fill="none" stroke-linecap="round" stroke-linejoin="round"/>
<path d="M 1275.2 471.9 L 1317.5 491.8 L 1326.1 497.2" stroke="#000" stroke-width="1.3" stroke-opacity="0.8" fill="none" stroke-linecap="round" stroke-linejoin="round"/>
<path d="M 1378.8 566.4 L 1335.0 619.0 L 1289.9 673.1 L 1249.2 722.0 L 1246.6 725.0" stroke="#000" stroke-width="1.3" stroke-opacity="0.8" fill="none" stroke-linecap="round" stroke-linejoin="round"/>
<path d="M 369.6 1095.2 L 435.7 1112.4 L 437.9 1113.0" stroke="#000" stroke-width="1.3" stroke-opacity="0.8" fill="none" stroke-linecap="round" stroke-linejoin="round"/>
<path d="M 1034.1 1636.3 L 1034.7 1628.7 L 1035.0 1624.4 L 1035.2 1617.9 L 1035.1 1607.2 L 1034.2 1593.8 L 1032.7 1579.7 L 1030.6 1566.7 L 1028.2 1556.0 L 1012.5 1487.1 L 995.5 1414.5 L 993.6 1406.1 L 981.2 1353.5 L 980.0 1347.7 L 975.4 1326.9 L 968.2 1293.8 L 967.1 1287.9 L 966.7 1281.3 L 966.1 1270.3" stroke="#000" stroke-width="2.4" stroke-opacity="0.95" fill="none" stroke-linecap="round" stroke-linejoin="round"/>
<path d="M 966.1 1270.3 L 969.4 1281.2 L 973.1 1293.7 L 985.1 1346.5 L 998.4 1405.1 L 1000.5 1414.2 L 1017.3 1487.6 L 1033.0 1556.0 L 1035.1 1566.0 L 1037.6 1580.4 L 1038.3 1595.1 L 1039.2 1607.9 L 1039.6 1624.7 L 1039.9 1628.7 L 1041.3 1636.2" stroke="#000" stroke-width="2.4" stroke-opacity="0.95" fill="none" stroke-linecap="round" stroke-linejoin="round"/>
<path d="M 824.2 1082.3 L 819.3 1075.7 L 741.1 974.3" stroke="#000" stroke-width="1.3" stroke-opacity="0.8" fill="none" stroke-linecap="round" stroke-linejoin="round"/>
<path d="M 727.2 186.9 L 784.7 178.4" stroke="#000" stroke-width="1.3" stroke-opacity="0.8" fill="none" stroke-linecap="round" stroke-linejoin="round"/>
<path d="M 613.2 78.8 L 644.7 107.6 L 667.1 139.8 L 677.7 149.3 L 715.9 140.6 L 721.2 140.2 L 723.5 147.1 L 727.2 186.9" stroke="#000" stroke-width="0.7" stroke-opacity="0.55" fill="none" stroke-linecap="round" stroke-linejoin="round"/>
<path d="M 569.5 212.1 L 580.9 307.5 L 591.5 395.4" stroke="#000" stroke-width="1.3" stroke-opacity="0.8" fill="none" stroke-linecap="round" stroke-linejoin="round"/>
<path d="M 501.7 405.0 L 491.5 320.4" stroke="#000" stroke-width="0.7" stroke-opacity="0.55" fill="none" stroke-linecap="round" stroke-linejoin="round"/>
<path d="M 543.3 567.8 L 477.3 517.4" stroke="#000" stroke-width="0.7" stroke-opacity="0.55" fill="none" stroke-linecap="round" stroke-linejoin="round"/>
<path d="M 804.3 1373.3 L 793.3 1371.2 L 783.6 1355.0 L 780.7 1346.3" stroke="#000" stroke-width="1.3" stroke-opacity="0.8" fill="none" stroke-linecap="round" stroke-linejoin="round"/>
<path d="M 1531.3 979.2 L 1529.9 963.1" stroke="#000" stroke-width="0.7" stroke-opacity="0.55" fill="none" stroke-linecap="round" stroke-linejoin="round"/>
<path d="M 1431.2 414.7 L 1437.1 431.0 L 1439.1 430.3 L 1463.9 417.9 L 1475.4 415.3 L 1510.9 412.3" stroke="#000" stroke-width="0.7" stroke-opacity="0.55" fill="none" stroke-linecap="round" stroke-linejoin="round"/>
<path d="M 1005.9 41.2 L 1021.6 17.1 L 1029.7 10.6 L 1044.5 -11.6 L 1053.7 -25.3" stroke="#000" stroke-width="0.7" stroke-opacity="0.55" fill="none" stroke-linecap="round" stroke-linejoin="round"/>
<path d="M 539.7 -465.2 L 610.1 -255.7 L 703.7 27.2 L 723.7 60.3 L 745.0 93.0 L 756.1 108.7 L 787.0 153.1 L 794.9 167.2" stroke="#000" stroke-width="1.3" stroke-opacity="0.8" fill="none" stroke-linecap="round" stroke-linejoin="round"/>
<path d="M 919.9 376.3 L 905.5 346.4" stroke="#000" stroke-width="1.3" stroke-opacity="0.8" fill="none" stroke-linecap="round" stroke-linejoin="round"/>
<path d="M 366.6 965.2 L 378.6 967.5 L 407.9 980.6 L 410.5 993.8" stroke="#000" stroke-width="0.9" stroke-opacity="0.6" fill="none" stroke-linecap="round" stroke-linejoin="round"/>
<path d="M 407.9 980.6 L 408.7 971.2 L 410.6 962.8 L 402.0 960.0" stroke="#000" stroke-width="0.9" stroke-opacity="0.6" fill="none" stroke-linecap="round" stroke-linejoin="round"/>
<path d="M 744.5 450.1 L 727.0 470.0 L 681.9 530.9" stroke="#000" stroke-width="0.7" stroke-opacity="0.55" fill="none" stroke-linecap="round" stroke-linejoin="round"/>
<path d="M 759.8 410.2 L 763.2 462.0 L 744.5 450.1" stroke="#000" stroke-width="0.7" stroke-opacity="0.55" fill="none" stroke-linecap="round" stroke-linejoin="round"/>
<path d="M 1137.3 241.7 L 1142.2 246.7" stroke="#000" stroke-width="0.7" stroke-opacity="0.55" fill="none" stroke-linecap="round" stroke-linejoin="round"/>
<path d="M 1133.0 237.5 L 1137.3 241.7" stroke="#000" stroke-width="0.7" stroke-opacity="0.55" fill="none" stroke-linecap="round" stroke-linejoin="round"/>
<path d="M 999.9 289.5 L 1006.6 299.0" stroke="#000" stroke-width="0.7" stroke-opacity="0.55" fill="none" stroke-linecap="round" stroke-linejoin="round"/>
<path d="M 1103.8 1182.5 L 1109.3 1182.3 L 1159.2 1149.8" stroke="#000" stroke-width="0.7" stroke-opacity="0.55" fill="none" stroke-linecap="round" stroke-linejoin="round"/>
<path d="M 1240.7 731.8 L 1233.0 688.0 L 1228.4 667.7 L 1227.2 642.5" stroke="#000" stroke-width="0.5" stroke-opacity="0.35" fill="none" stroke-linecap="round" stroke-linejoin="round"/>
<path d="M 1227.2 642.5 L 1183.8 687.8" stroke="#000" stroke-width="1.3" stroke-opacity="0.8" fill="none" stroke-linecap="round" stroke-linejoin="round"/>
<path d="M 1227.2 642.5 L 1227.6 627.4 L 1232.6 615.7 L 1242.1 601.4 L 1251.3 589.7" stroke="#000" stroke-width="1.3" stroke-opacity="0.8" fill="none" stroke-linecap="round" stroke-linejoin="round"/>
<path d="M 985.4 590.9 L 1001.7 600.3 L 1009.3 609.1 L 1011.9 620.2 L 1013.7 632.1" stroke="#000" stroke-width="0.5" stroke-opacity="0.35" fill="none" stroke-linecap="round" stroke-linejoin="round"/>
<path d="M 1165.6 374.7 L 1219.2 397.3 L 1223.9 399.8 L 1232.0 401.4" stroke="#000" stroke-width="0.7" stroke-opacity="0.55" fill="none" stroke-linecap="round" stroke-linejoin="round"/>
<path d="M 1224.8 213.0 L 1237.3 225.8 L 1241.2 234.2 L 1242.9 249.0 L 1236.7 260.0 L 1210.8 279.9 L 1198.8 289.4 L 1193.2 299.0 L 1188.3 318.2 L 1182.9 327.8 L 1170.5 351.7 L 1165.8 367.0 L 1165.6 374.7" stroke="#000" stroke-width="0.7" stroke-opacity="0.55" fill="none" stroke-linecap="round" stroke-linejoin="round"/>
<path d="M 1188.7 785.5 L 1213.4 854.7" stroke="#000" stroke-width="0.7" stroke-opacity="0.55" fill="none" stroke-linecap="round" stroke-linejoin="round"/>
<path d="M 912.5 381.5 L 919.9 376.3" stroke="#000" stroke-width="1.3" stroke-opacity="0.8" fill="none" stroke-linecap="round" stroke-linejoin="round"/>
<path d="M 934.8 335.7 L 972.9 369.8 L 950.3 397.4" stroke="#000" stroke-width="0.5" stroke-opacity="0.35" fill="none" stroke-linecap="round" stroke-linejoin="round"/>
<path d="M 965.9 103.1 L 1003.1 55.5 L 1008.4 54.6" stroke="#000" stroke-width="1.3" stroke-opacity="0.8" fill="none" stroke-linecap="round" stroke-linejoin="round"/>
<path d="M 454.7 613.3 L 494.0 648.3" stroke="#000" stroke-width="0.7" stroke-opacity="0.55" fill="none" stroke-linecap="round" stroke-linejoin="round"/>
<path d="M 519.1 681.4 L 586.3 598.7" stroke="#000" stroke-width="0.7" stroke-opacity="0.55" fill="none" stroke-linecap="round" stroke-linejoin="round"/>
<path d="M 1169.3 547.9 L 1160.0 519.0 L 1155.0 501.1 L 1154.0 497.7 L 1119.3 449.6" stroke="#000" stroke-width="0.7" stroke-opacity="0.55" fill="none" stroke-linecap="round" stroke-linejoin="round"/>
<path d="M 1081.5 1344.3 L 1170.7 1329.8" stroke="#000" stroke-width="0.7" stroke-opacity="0.55" fill="none" stroke-linecap="round" stroke-linejoin="round"/>
<path d="M 1201.3 17.9 L 1194.7 23.4 L 1159.1 70.4 L 1147.2 96.9 L 1137.4 114.3 L 1129.0 124.1 L 1114.6 151.4 L 1105.1 197.4 L 1107.1 201.7" stroke="#000" stroke-width="1.3" stroke-opacity="0.8" fill="none" stroke-linecap="round" stroke-linejoin="round"/>
<path d="M 961.4 156.4 L 1029.4 227.1 L 1013.0 242.5 L 1035.2 272.3" stroke="#000" stroke-width="0.5" stroke-opacity="0.35" fill="none" stroke-linecap="round" stroke-linejoin="round"/>
<path d="M 939.9 179.4 L 950.4 191.0 L 958.7 191.3 L 1013.0 242.5" stroke="#000" stroke-width="0.5" stroke-opacity="0.35" fill="none" stroke-linecap="round" stroke-linejoin="round"/>
<path d="M 1084.7 356.3 L 1086.9 358.2 L 1102.4 372.2 L 1108.9 379.6 L 1111.6 393.5 L 1144.0 429.0" stroke="#000" stroke-width="1.3" stroke-opacity="0.8" fill="none" stroke-linecap="round" stroke-linejoin="round"/>
<path d="M 1456.6 217.0 L 1451.6 210.3 L 1446.7 207.4 L 1440.0 211.3 L 1425.2 230.9" stroke="#000" stroke-width="0.7" stroke-opacity="0.55" fill="none" stroke-linecap="round" stroke-linejoin="round"/>
<path d="M 1268.1 1038.0 L 1274.2 1054.9 L 1296.7 1144.2" stroke="#000" stroke-width="0.7" stroke-opacity="0.55" fill="none" stroke-linecap="round" stroke-linejoin="round"/>
<path d="M 1300.5 1130.4 L 1296.7 1144.2 L 1307.3 1190.1 L 1319.7 1218.5" stroke="#000" stroke-width="1.3" stroke-opacity="0.8" fill="none" stroke-linecap="round" stroke-linejoin="round"/>
<path d="M 1479.3 929.7 L 1463.5 953.0 L 1450.8 961.5" stroke="#000" stroke-width="1.3" stroke-opacity="0.8" fill="none" stroke-linecap="round" stroke-linejoin="round"/>
<path d="M 1176.2 91.8 L 1204.3 126.9" stroke="#000" stroke-width="1.3" stroke-opacity="0.8" fill="none" stroke-linecap="round" stroke-linejoin="round"/>
  
    <g stroke="#000" fill="none" stroke-width="2.9952">
      <circle cx="936" cy="702" r="16.848"/>
      <circle cx="936" cy="702" r="3.744" fill="#000" stroke="none"/>
    </g>
  <rect width="100%" height="100%" fill="url(#vignette)"/>
  
    <g transform="translate(1776, 116)" stroke="#000" stroke-width="2.2464" fill="#000">
      <line x1="0" y1="37.44" x2="0" y2="-37.44"/>
      <path d="M 0 -37.44 L 13.104 -13.104 L 0 -22.464 L -13.104 -13.104 Z"/>
      <text x="0" y="59.44" text-anchor="middle" font-family="Georgia, serif" font-size="22.464000000000002">N</text>
    </g>
  <rect x="66" y="66" width="1740" height="1272" fill="none" stroke="#000" stroke-width="2" stroke-opacity="0.7"/>
  <rect x="74" y="74" width="1724" height="1256" fill="none" stroke="#000" stroke-width="1" stroke-opacity="0.4"/>
  
</svg>