<svg xmlns="http://www.w3.org/2000/svg" width="1872" height="1404" viewBox="0 0 1872 1404">
  <defs>
    <radialGradient id="vignette" cx="50%" cy="50%" r="954.72" gradientUnits="userSpaceOnUse">
      <stop offset="55%" stop-color="#fff" stop-opacity="0"/>
      <stop offset="100%" stop-color="#fff" stop-opacity="1"/>
    </radialGradient>
    <pattern id="hatch" patternUnits="userSpaceOnUse" width="9" height="9" patternTransform="rotate(45)">
      <line x1="0" y1="0" x2="0" y2="9" stroke="#000" stroke-width="0.9" stroke-opacity="0.4"/>
    </pattern>
  </defs>
  <rect width="100%" height="100%" fill="#fff"/>
  <path d="M 1440.7 1524.3 L 1425.2 1616.8 L 1404.1 1702.3 L 1080.3 1672.2 L 853.6 1652.9 L 842.9 1599.8 L 836.0 1549.7 L 826.3 1475.9 L 818.1 1426.4 L 812.6 1368.2 L 808.0 1310.7 L 801.2 1256.8 L 789.5 1195.9 L 778.6 1143.2 L 764.8 1074.4 L 754.9 1013.6 L 746.3 958.9 L 740.7 923.9 L 734.1 894.8 L 728.7 865.2 L 724.0 800.4 L 725.2 749.3 L 728.9 726.0 L 733.4 706.5 L 736.6 683.7 L 739.0 605.0 L 736.6 583.7 L 729.8 553.6 L 726.5 537.7 L 726.6 527.8 L 730.2 517.0 L 744.0 489.5 L 751.1 463.3 L 751.9 441.1 L 750.2 421.7 L 745.5 397.0 L 740.3 377.5 L 736.2 351.2 L 732.1 335.0 L 725.7 318.6 L 719.4 297.9 L 715.8 280.1 L 713.6 226.5 L 713.0 178.6 L 716.2 147.2 L 718.1 139.2 L 718.7 136.2 L 727.8 96.4 L 744.8 49.6 L 770.6 -13.2 L 793.0 -65.3 L 803.1 -95.4 L 808.3 -117.3 L 811.7 -138.2 L 818.1 -158.4 L 831.9 -180.3 L 851.5 -206.5 L 879.6 -234.9 L 903.1 -260.7 L 941.4 -292.8 L 977.5 -326.5 L 1037.7 -394.2 L 1064.8 -434.3 L 1109.6 -504.8 L 1154.9 -555.7 L 1203.7 -595.7 L 1237.0 -613.8 L 1267.9 -624.8 L 1327.4 -639.4 L 1348.9 -645.4 L 1363.0 -652.9 L 1376.2 -665.6 L 1409.5 -695.7 L 1435.5 -720.6 L 1457.2 -746.7 L 1484.8 -778.0 L 1548.8 -843.4 L 1615.3 -915.4 L 1676.9 -977.2 L 1718.5 -1015.8 L 1778.3 -1068.3 L 1850.5 -1133.9 L 1949.0 -1205.3 L 2060.8 -1281.8 L 2155.9 -1345.9 L 2264.5 -1420.9 L 2403.0 -1528.2 L 2452.9 -1568.8 L 2485.7 -1603.0 L 2508.1 -1640.0 L 2524.0 -1678.7 L 2533.9 -1720.0 L 2544.2 -1796.1 L 2547.7 -1873.5 L 2538.7 -1978.0 L 2537.4 -2103.7 L 2538.9 -2160.3 L 2537.6 -2202.6 L 2534.8 -2228.2 L 2519.7 -2260.0 L 2472.8 -2299.1 L 2405.1 -2330.1 L 2344.3 -2345.1 L 2281.0 -2354.8 L 2234.8 -2363.4 L 2249.2 -2496.5 L 2281.3 -2647.2 L 2318.5 -2631.7 L 2348.3 -2623.5 L 2368.3 -2621.4 L 2384.2 -2624.2 L 2397.4 -2625.6 L 2407.9 -2623.8 L 2417.8 -2617.9 L 2425.7 -2610.2 L 2431.9 -2600.4 L 2435.4 -2591.7 L 2437.5 -2587.8 L 2440.6 -2585.8 L 2445.5 -2585.4 L 2457.7 -2586.6 L 2465.5 -2585.4 L 2476.8 -2579.9 L 2496.2 -2573.2 L 2512.3 -2565.7 L 2523.8 -2555.8 L 2537.0 -2540.8 L 2555.2 -2514.0 L 2572.6 -2492.6 L 2587.5 -2475.0 L 2603.8 -2455.6 L 2617.7 -2439.8 L 2630.2 -2422.2 L 2638.2 -2406.9 L 2642.4 -2401.8 L 2647.7 -2396.2 L 2653.7 -2389.3 L 2660.6 -2378.7 L 2666.5 -2366.7 L 2677.8 -2347.1 L 2684.9 -2336.7 L 2691.7 -2328.3 L 2696.6 -2323.8 L 2701.2 -2320.6 L 2706.4 -2317.6 L 2711.7 -2313.5 L 2725.9 -2299.1 L 2749.5 -2276.4 L 2769.5 -2253.9 L 2785.1 -2235.7 L 2796.7 -2221.1 L 2803.6 -2207.8 L 2811.0 -2195.9 L 2825.7 -2177.5 L 2833.7 -2166.3 L 2842.7 -2152.0 L 2852.2 -2134.9 L 2858.6 -2113.4 L 2861.7 -2093.9 L 2864.0 -2075.3 L 2868.2 -2055.0 L 2869.7 -2039.7 L 2869.2 -2022.0 L 2867.2 -2006.8 L 2864.0 -1989.6 L 2862.2 -1980.7 L 2861.7 -1969.4 L 2860.4 -1961.2 L 2857.4 -1948.3 L 2847.7 -1917.3 L 2838.8 -1893.9 L 2830.7 -1869.2 L 2823.6 -1847.0 L 2818.0 -1828.1 L 2813.9 -1806.6 L 2809.2 -1783.6 L 2802.9 -1761.7 L 2786.4 -1716.7 L 2775.4 -1696.1 L 2762.5 -1677.6 L 2743.8 -1648.4 L 2728.7 -1627.1 L 2715.0 -1602.7 L 2706.8 -1585.4 L 2692.0 -1558.7 L 2681.6 -1534.9 L 2670.3 -1505.8 L 2659.7 -1478.1 L 2653.0 -1460.3 L 2644.2 -1438.3 L 2634.1 -1413.6 L 2624.2 -1391.4 L 2611.1 -1358.3 L 2588.5 -1297.7 L 2574.6 -1263.1 L 2562.1 -1226.5 L 2546.6 -1190.4 L 2531.8 -1154.7 L 2516.5 -1120.3 L 2489.8 -1072.9 L 2462.1 -1027.9 L 2449.2 -1009.2 L 2430.3 -984.0 L 2396.5 -941.2 L 2364.7 -904.0 L 2323.6 -858.9 L 2283.0 -820.6 L 2226.0 -762.8 L 2172.4 -715.0 L 2093.5 -645.8 L 2030.9 -595.5 L 1984.9 -559.6 L 1945.6 -531.6 L 1894.6 -494.0 L 1856.3 -467.4 L 1817.0 -439.2 L 1797.0 -424.8 L 1778.3 -412.3 L 1732.9 -378.8 L 1684.5 -345.7 L 1640.0 -313.4 L 1560.4 -260.3 L 1518.9 -234.9 L 1485.7 -213.0 L 1460.9 -198.4 L 1426.3 -178.4 L 1381.3 -145.9 L 1356.8 -128.9 L 1330.4 -108.7 L 1308.8 -92.1 L 1274.1 -61.8 L 1233.8 -25.3 L 1194.7 19.2 L 1182.0 43.1 L 1176.4 62.0 L 1175.3 92.3 L 1176.4 138.4 L 1177.3 169.8 L 1179.2 207.2 L 1181.4 239.4 L 1185.5 273.4 L 1189.3 300.1 L 1194.9 325.9 L 1198.1 342.9 L 1203.3 368.9 L 1208.4 394.9 L 1213.8 422.6 L 1216.7 447.6 L 1218.9 466.4 L 1222.4 481.3 L 1232.7 511.6 L 1249.7 560.2 L 1267.1 598.1 L 1298.3 665.2 L 1318.7 720.0 L 1335.3 759.6 L 1347.3 785.7 L 1352.8 792.5 L 1360.0 796.8 L 1367.3 797.3 L 1383.5 795.6 L 1392.5 793.7 L 1399.9 793.7 L 1410.2 798.0 L 1416.2 805.0 L 1416.7 811.4 L 1414.9 820.3 L 1410.7 827.1 L 1405.5 830.9 L 1399.0 834.1 L 1391.5 836.5 L 1382.7 835.8 L 1374.2 834.1 L 1370.5 835.3 L 1369.1 837.9 L 1369.5 846.2 L 1373.6 863.0 L 1380.9 880.2 L 1388.4 897.9 L 1398.1 923.0 L 1405.8 950.5 L 1413.6 977.9 L 1418.5 1001.1 L 1422.6 1026.5 L 1428.0 1052.9 L 1435.3 1086.0 L 1439.8 1106.4 L 1442.1 1124.1 L 1445.2 1143.5 L 1450.8 1188.6 L 1455.3 1244.1 L 1455.3 1305.8 L 1455.2 1354.1 L 1452.7 1398.0 L 1445.6 1452.0 L 1440.7 1524.3 Z" fill="#9a9a9a" stroke="#000" stroke-width="1.4"/>
  
  <path d="M -6224.1 -9892.0 L -6211.2 -9799.2 L -6212.0 -9666.0 L -6233.5 -9538.8 L -6290.3 -9350.6 L -6338.5 -9133.2 L -6355.7 -8963.9 L -6335.0 -8824.6 L -6294.6 -8758.0 L -6257.4 -8727.5 L -6187.9 -8709.0 L -5961.7 -8743.8 L -5573.8 -8826.4 L -5428.4 -8829.8 L -5306.3 -8786.0 L -5226.3 -8692.3 L -5192.3 -8566.0 L -5203.9 -7972.0 L -5210.8 -7532.0 L -5187.2 -7099.7 L -5143.7 -6591.6 L -5114.5 -6388.7 L -5051.7 -6311.3 L -4992.3 -6282.9 L -4900.3 -6261.5 L -4719.7 -6261.5 L -4299.1 -6330.2 L -3830.3 -6423.9 L -3467.3 -6531.4 L -3291.0 -6603.6 L -3084.5 -6720.5 L -2633.0 -7024.9 L -2350.0 -7226.8 L -2189.3 -7336.3 L -1962.9 -7430.5 L -1732.4 -7471.8 L -1539.7 -7464.9 L -1379.7 -7411.6 L -1247.3 -7287.8 L -1092.4 -7062.6 L -839.6 -6711.9 L -609.0 -6412.8 L -440.5 -6158.3 L -337.2 -5950.3 L -211.0 -5650.2 L -170.9 -5560.0 L 102.2 -4969.2 L 270.9 -4695.1 L 378.4 -4476.4 L 451.5 -4252.3 L 504.6 -4024.7 L 534.9 -3635.8 L 541.8 -3027.0 L 540.1 -2545.5 L 563.3 -2374.4 L 631.9 -2263.8 L 734.5 -2189.5 L 905.7 -2149.1 L 1080.3 -2160.3 L 1319.4 -2205.8 L 1502.6 -2258.3 L 1781.3 -2375.2 L 1967.9 -2449.2 L 2109.0 -2490.5 L 2249.2 -2496.5 L 2404.0 -2463.0 L 2532.2 -2403.6 L 2622.5 -2317.6 L 2683.6 -2209.3 L 2717.1 -2086.3 L 2718.0 -1910.9 L 2674.1 -1720.8 L 2595.0 -1530.8 L 2456.5 -1322.7 L 2160.6 -1019.9 L 1758.1 -672.5 L 1365.8 -330.2 L 1147.4 -106.6 L 1039.0 93.0 L 1013.2 277.1 L 1054.5 798.3 L 1106.1 1298.9 L 1080.3 1672.2 L 1020.1 1988.8 L 937.5 2288.2 L 897.9 2563.4 L 897.9 2740.7 L 977.1 2926.5 L 1226.5 3091.7 L 1518.9 3182.9 L 1894.8 3268.0 L 2296.5 3354.9 L 2521.9 3422.0 L 2662.9 3498.6 L 2801.4 3664.7 L 2894.7 3874.2 L 2989.8 4093.1 L 3084.4 4322.0 L 3182.4 4642.4 L 3253.0 4915.7 L 3392.3 5502.5 L 3495.8 6070.6 L 3619.4 6718.7 L 3707.9 7277.9 L 3731.2 7504.2 L 3774.2 7852.7 L 3810.4 8070.5 L 3858.0 8213.4 L 3975.5 8453.5 L 4052.9 8611.9 L 4144.1 8807.3 L 4240.4 9033.6 L 4370.3 9356.4 L 4466.7 9536.3 L 4581.1 9721.4 L 4715.2 9873.7 L 4925.1 10008.9 L 5281.2 10215.5 L 5498.0 10403.1 L 5616.7 10620.1 L 5644.8 10845.9 L 5620.4 11092.0 L 5563.3 11496.5 L 5511.7 11759.9 L 5417.1 12006.1 L 5219.3 12417.7 L 5164.2 12581.3 L 5143.6 12708.7 L 5152.9 12847.5 L 5219.3 13094.4 L 5301.9 13249.4 L 5477.3 13475.0 L 5661.4 13676.5 L 5781.0 13796.2 L 5867.0 13928.8 L 5912.6 14033.9 L 5912.6 14135.5 L 5859.2 14217.3 L 5738.0 14301.7 L 5386.2 14441.2 L 5090.3 14635.8 L 4882.1 14849.3 L 4629.2 15159.4 L 4365.9 15371.0 L 4156.1 15490.1 L 3949.7 15607.2 L 3815.5 15726.0 L 3760.5 15862.1 L 3753.6 16049.9 L 3806.9 16210.0 L 4200.0 16578.7 L 4458.1 16820.7 L 4741.9 17051.5 L 4930.3 17214.3 L 5079.9 17351.3 L 5136.7 17428.8 L 5155.6 17519.2 L 5143.6 17594.2 L 5087.7 17735.4 L 4952.6 17986.1 L 4799.5 18273.8 L 4654.6 18616.2 L 4595.0 18802.8 L 4593.1 18983.6 L 4649.9 19136.9 L 4804.7 19397.1 L 4980.2 19678.0 L 5035.2 19798.6 L 5032.6 19897.7 L 4987.9 20032.9 L 4904.9 20170.7 L 4858.9 20257.3 L 4832.2 20339.6 L 4821.9 20412.0 L 4822.8 20515.4 L 4834.8 20613.2 L 4873.5 20760.9 L 4916.5 20922.9 L 4949.2 21084.0 L 4953.5 21213.3 L 4933.7 21371.8 L 4858.0 21717.3 L 4729.9 22262.7 L 4693.7 22490.2 L 4657.6 22835.8 L 4649.9 23041.7 L 4670.5 23165.8 L 4728.1 23262.3 L 4845.1 23359.7 L 4980.2 23426.9 L 5098.9 23450.2 L 5269.2 23433.8 L 5533.2 23363.2 L 5712.1 23307.2 L 5814.9 23288.6 L 5904.8 23299.4 L 5960.3 23327.0 L 6048.5 23400.2 L 6173.2 23536.4 L 6357.7 23710.9 L 6373.6 23726.0 L 6635.9 23975.9 L 6842.4 24186.2 L 6955.1 24359.4 L 7118.5 24621.4 L 7244.9 24795.5 L 7410.9 24996.3 L 7677.6 25260.9 L 7774.8 25380.7 L 7844.4 25491.9 L 7869.4 25649.6 L 7867.7 25758.2 L 7822.1 25855.6 L 7727.5 25905.6 L 7592.4 25894.4 L 7340.4 25806.5 L 7099.6 25714.3 L 6767.5 25573.8 L 6586.9 25512.6 L 6372.7 25516.9 L 6190.4 25554.0 L 5978.8 25627.2 L 5795.6 25707.4 L 5614.9 25822.9 L 5558.2 25908.2 L 5510.9 26052.2 L 5482.5 26273.7 L 5489.4 26459.9 L 5528.1 26613.3 L 5590.0 26725.4 L 5725.9 26860.7 L 6010.6 27086.6 L 6340.0 27343.5 L 6647.1 27542.6 L 7117.6 27736.5 L 7376.5 27828.8 L 7486.6 27970.2 L 7533.1 28149.5 L 7536.5 28365.0 L 7385.1 28620.2 L 7207.9 28865.1 L 7134.0 28994.4 L 7109.9 29090.9 L 7120.2 29203.0 L 7180.4 29287.5 L 7295.7 29308.2 L 7431.6 29272.0 L 7682.7 29115.1 L 7961.4 28916.8 L 8166.1 28803.0 L 8322.7 28770.2 L 8487.8 28797.8 L 8622.0 28901.3 L 8723.5 29080.6 L 8775.1 29311.7 L 8763.1 29594.5 L 8799.2 29916.1 L 8838.8 30275.6 L 8878.3 30601.6 L 8936.8 30960.3 L 9019.4 31298.3 L 9143.3 31600.1 L 9315.3 31872.6 L 9563.0 32152.0 L 10216.7 32783.3 L 10667.4 33155.9 L 11045.9 33521.6 L 11206.4 33716.5 L 11562.0 34100.3" stroke="#6e6e6e" stroke-width="4.5" fill="none" stroke-linecap="round" stroke-linejoin="round" />
  
  <path d="M 1567.8 751.2 L 1605.0 726.3 L 1659.0 683.7" stroke="#000" stroke-width="1.1" fill="none" stroke-linecap="round" stroke-linejoin="round" stroke-opacity="0.75"/>
<path d="M 656.1 743.5 L 701.8 740.9 L 705.0 739.6 L 706.3 737.3 L 706.3 734.0 L 701.4 718.7 L 701.2 714.3 L 700.6 704.2" stroke="#000" stroke-width="1.1" fill="none" stroke-linecap="round" stroke-linejoin="round" stroke-opacity="0.75"/>
  
  <path d="M 572.7 459.8 L 570.5 435.0 L 570.0 433.0 L 569.4 430.5 L 568.7 428.5 L 567.2 427.3 L 564.9 426.9 L 546.6 429.4 L 540.7 429.9 L 537.7 430.1 L 527.0 431.9 L 504.0 436.7 L 485.9 439.8 L 459.5 439.4 L 430.4 436.4 L 416.0 437.0 L 390.2 439.2 L 376.0 440.4 L 318.3 450.9 L 299.3 455.0 L 289.8 456.6 L 273.7 459.9 L 262.8 462.0 L 253.1 464.5 L 217.1 473.7 L 211.3 475.7 L 134.4 495.6 L 116.3 500.3 L 113.8 501.0 L 88.0 508.4 L 47.4 520.0 L 21.8 527.3 L 0.8 533.2 L -9.1 536.9 L -32.3 545.9 L -89.3 565.8" stroke="#000" stroke-width="2" fill="none" stroke-linecap="round" stroke-linejoin="round" />
<path d="M 572.7 459.8 L 573.1 462.0 L 576.7 495.4 L 577.5 500.5 L 578.7 503.9 L 581.6 507.6 L 589.9 525.7 L 591.6 531.8 L 596.7 570.5 L 600.6 608.8 L 601.2 615.4 L 604.6 647.3 L 605.0 650.8 L 605.5 655.0 L 608.6 698.9 L 610.5 725.3 L 611.5 729.3 L 614.2 732.3 L 618.4 733.6 L 650.0 737.6 L 652.7 738.7 L 654.2 740.1 L 656.1 743.5 L 657.6 746.3 L 658.0 748.4 L 658.4 764.1 L 658.2 767.1 L 657.2 769.4 L 655.3 771.8 L 640.8 786.0 L 640.1 788.2 L 639.6 791.1 L 639.8 793.7 L 641.8 802.6 L 653.6 833.3 L 671.5 878.8 L 672.1 885.8 L 669.4 892.8 L 664.9 897.5 L 657.5 901.5 L 647.9 905.6 L 634.0 911.3 L 628.0 914.6 L 621.9 920.1 L 616.0 927.1 L 596.6 960.2 L 595.7 963.3 L 596.4 1024.7 L 608.6 1123.3 L 610.9 1167.9 L 612.6 1181.8 L 617.5 1201.5 L 622.0 1216.4 L 632.4 1239.9 L 639.2 1254.0 L 648.1 1271.6 L 659.4 1288.5 L 664.9 1295.1 L 745.9 1383.0 L 748.8 1386.8 L 750.8 1390.7 L 756.5 1404.7 L 760.4 1418.4 L 764.5 1432.7 L 767.8 1447.0 L 771.1 1471.6 L 773.2 1488.8 L 773.2 1497.4 L 771.6 1504.8 L 769.0 1512.7 L 760.8 1523.6 L 759.7 1525.6 L 758.0 1528.6 L 752.1 1562.8 L 750.7 1581.0 L 757.3 1651.8 L 759.3 1660.5 L 792.1 1726.3 L 796.2 1736.3 L 796.5 1744.6 L 792.6 1752.8 L 778.5 1761.5 L 765.7 1767.3 L 699.2 1789.9" stroke="#000" stroke-width="2" fill="none" stroke-linecap="round" stroke-linejoin="round" />
<path d="M 612.6 1181.8 L 500.5 1271.6 L 458.6 1310.6 L 441.6 1324.2 L 431.2 1333.4 L 409.1 1356.1 L 396.1 1370.7 L 392.9 1375.9 L 391.3 1380.4 L 391.8 1387.9 L 394.0 1396.3 L 399.7 1416.1 L 399.7 1423.6 L 398.2 1432.2 L 398.0 1433.6 L 394.6 1441.0 L 384.8 1454.3 L 370.0 1473.2 L 343.0 1510.1 L 335.0 1518.7 L 330.2 1523.7 L 321.0 1531.4 L 311.4 1538.8 L 263.6 1572.5" stroke="#000" stroke-width="2" fill="none" stroke-linecap="round" stroke-linejoin="round" />
<path d="M 567.2 427.3 L 568.1 423.5 L 568.0 421.4 L 567.4 419.7 L 566.4 417.9 L 563.6 413.2 L 562.0 410.0 L 556.7 393.5 L 555.6 389.2 L 551.8 360.9 L 551.4 353.0 L 549.4 336.9 L 548.5 320.3 L 548.9 307.6 L 549.7 304.8 L 550.7 303.2 L 558.0 295.1 L 559.5 293.8 L 561.4 293.1 L 587.5 288.9 L 591.4 288.1 L 601.2 283.2 L 605.0 280.2 L 626.9 251.8" stroke="#000" stroke-width="2" fill="none" stroke-linecap="round" stroke-linejoin="round" />
<path d="M 559.5 293.8 L 558.5 283.0 L 557.5 271.5 L 556.9 267.4 L 552.8 253.7 L 550.9 250.0 L 547.3 247.6 L 543.3 247.2 L 533.5 245.2 L 529.9 243.8 L 527.8 241.9 L 518.2 226.1 L 515.6 216.6 L 514.9 207.5 L 515.5 204.5 L 518.1 202.9 L 521.0 203.6 L 525.7 210.0 L 529.1 210.9 L 532.0 209.3 L 537.5 205.2 L 557.9 196.0 L 569.5 192.1 L 581.9 189.4" stroke="#000" stroke-width="2" fill="none" stroke-linecap="round" stroke-linejoin="round" />
<path d="M 6040.1 -385.9 L 6029.2 -380.6 L 5963.0 -374.4 L 5951.9 -372.4 L 5917.0 -317.7 L 5910.2 -313.8 L 5886.4 -313.1 L 5852.2 -327.8 L 5819.9 -357.1 L 5803.9 -379.6 L 5805.2 -398.5 L 5807.8 -432.7 L 5819.9 -530.2 L 5830.7 -604.1 L 5839.1 -684.9 L 5848.6 -811.7 L 5852.2 -909.5 L 5856.1 -990.0 L 5860.3 -1072.4 L 5846.0 -1178.0 L 5842.1 -1211.6 L 5849.2 -1318.5 L 5856.1 -1420.5 L 5857.1 -1436.8 L 5845.0 -1446.9 L 5788.0 -1526.7 L 5752.8 -1586.0 L 5744.0 -1597.8 L 5728.3 -1606.6 L 5625.0 -1642.7 L 5540.6 -1668.1 L 5466.3 -1678.6 L 5406.0 -1674.7 L 5333.0 -1658.4 L 5299.1 -1641.1 L 5282.4 -1628.7 L 5244.0 -1580.8 L 5230.6 -1549.5 L 5221.5 -1522.5 L 5207.5 -1442.3 L 5202.6 -1414.9 L 5185.3 -1367.7 L 5171.9 -1335.1 L 5154.3 -1295.7 L 5138.7 -1266.3 L 5127.3 -1254.0 L 5108.4 -1247.8 L 5073.8 -1250.0 L 5028.2 -1250.0 L 4956.2 -1261.1 L 4861.0 -1279.4 L 4814.1 -1290.8 L 4718.6 -1333.5 L 4641.0 -1363.8 L 4545.8 -1382.0 L 4463.7 -1391.5 L 4418.7 -1394.1 L 4387.8 -1399.3 L 4359.4 -1410.4 L 4326.8 -1439.1 L 4298.4 -1482.7 L 4270.7 -1545.9 L 4239.1 -1635.9 L 4207.8 -1725.5 L 4188.6 -1789.0 L 4162.5 -1876.0 L 4117.9 -1959.8 L 4067.0 -2048.1 L 4038.3 -2082.6 L 4015.2 -2106.4 L 3996.0 -2116.9 L 3979.0 -2126.0 L 3947.1 -2128.6 L 3915.8 -2127.3 L 3824.9 -2111.3 L 3703.3 -2086.5 L 3393.3 -2029.5 L 3355.8 -2025.6 L 3337.3 -2021.0 L 3318.7 -2009.6 L 3296.5 -1999.9 L 3264.9 -1997.6 L 3199.4 -2009.3 L 3075.2 -2046.8 L 3008.1 -2065.7 L 2951.7 -2075.1 L 2883.2 -2086.2 L 2875.7 -2082.0 L 2875.4 -2016.8 L 2870.9 -1978.0 L 2859.1 -1940.6 L 2846.1 -1898.5 L 2833.5 -1846.5 L 2794.0 -1720.0 L 2722.3 -1579.2 L 2673.9 -1454.3 L 2639.8 -1351.0 L 2592.9 -1213.2 L 2550.9 -1072.5 L 2508.9 -1002.8 L 2443.7 -911.9 L 2394.2 -848.6 L 2292.3 -736.5 L 2181.1 -623.6 L 2094.6 -542.6 L 2087.9 -536.7 L 2062.2 -516.8 L 2042.6 -504.8 L 1899.5 -420.8 L 1864.1 -400.0 L 1552.2 -210.6 L 1442.7 -131.1 L 1366.6 -38.7 L 1290.6 97.5 L 1249.1 188.9 L 1229.9 266.1 L 1222.8 380.3 L 1221.9 388.7 L 1218.2 419.7 L 1218.9 423.5 L 1220.3 425.9 L 1224.9 426.8 L 1287.0 432.2 L 1345.6 436.4 L 1366.6 439.7" stroke="#000" stroke-width="2" fill="none" stroke-linecap="round" stroke-linejoin="round" />
<path d="M -32.3 545.9 L -22.9 605.4 L -16.8 656.6 L -15.7 665.0 L -14.6 666.9 L -12.2 668.2 L -7.8 668.6 L 28.6 665.1 L 45.7 662.6 L 92.9 656.0 L 110.5 653.6 L 176.7 648.8 L 189.6 649.7 L 196.9 650.9 L 205.9 653.8 L 226.8 664.2 L 239.2 671.4 L 248.0 674.5 L 310.7 685.9" stroke="#000" stroke-width="2" fill="none" stroke-linecap="round" stroke-linejoin="round" />
<path d="M 375.1 938.5 L 374.5 912.8 L 373.7 794.1 L 369.1 742.8 L 368.8 733.5 L 368.1 730.9 L 366.0 728.8 L 361.4 727.7 L 346.8 725.9 L 341.0 724.9 L 322.9 722.9 L 313.8 721.4 L 311.5 720.6 L 310.0 719.8 L 309.2 718.0 L 308.9 715.0 L 310.7 685.9 L 315.2 630.6 L 314.7 592.1 L 311.7 563.5 L 307.2 542.4 L 303.6 525.2 L 301.2 506.5 L 301.2 488.6 L 299.3 455.0" stroke="#000" stroke-width="2" fill="none" stroke-linecap="round" stroke-linejoin="round" />
<path d="M 369.1 742.8 L 420.3 743.1 L 428.4 743.2 L 433.9 742.0 L 453.2 724.4 L 462.0 718.0 L 465.2 716.7 L 468.9 716.4 L 472.2 717.5 L 473.4 721.7 L 473.0 728.0 L 468.7 757.1 L 468.1 767.0 L 468.2 778.9" stroke="#000" stroke-width="2" fill="none" stroke-linecap="round" stroke-linejoin="round" />
<path d="M 454.6 779.7 L 455.5 785.1 L 452.8 807.4 L 452.6 812.1 L 453.7 815.7 L 456.2 817.7 L 530.5 819.9 L 532.8 818.3 L 533.8 813.8 L 533.3 807.7 L 531.9 774.7 L 527.0 714.3 L 526.6 706.0 L 527.4 677.2 L 523.5 658.1 L 519.7 645.0 L 517.1 615.3 L 516.0 599.4 L 513.2 579.0 L 511.7 563.0 L 511.5 529.5 L 510.9 513.4 L 510.0 507.0 L 506.8 504.8 L 501.2 505.2 L 472.2 508.5 L 445.3 507.1 L 435.2 506.1 L 427.8 505.5" stroke="#000" stroke-width="2" fill="none" stroke-linecap="round" stroke-linejoin="round" />
<path d="M 430.4 436.4 L 424.0 452.6 L 424.4 473.2 L 428.1 503.8 L 427.8 505.5 L 426.6 506.8 L 424.2 509.1 L 421.4 512.0 L 420.5 513.8 L 420.0 517.4 L 421.0 545.4 L 424.0 585.0 L 427.9 623.7 L 429.6 681.4 L 426.8 716.0 L 426.9 723.9 L 428.1 730.4 L 433.9 742.0 L 448.6 771.2 L 454.6 779.7 L 468.2 778.9 L 474.3 778.6 L 531.9 774.7" stroke="#000" stroke-width="2" fill="none" stroke-linecap="round" stroke-linejoin="round" />
<path d="M 416.0 437.0 L 407.4 399.4 L 408.5 393.3 L 410.6 391.5 L 413.2 387.2 L 413.0 380.3 L 412.3 362.5" stroke="#000" stroke-width="2" fill="none" stroke-linecap="round" stroke-linejoin="round" />
<path d="M 415.2 142.4 L 426.1 136.5 L 428.6 136.3 L 431.8 137.7 L 434.1 140.8 L 442.5 154.1 L 444.7 155.9 L 447.6 155.8 L 452.3 154.6 L 484.7 139.1 L 494.5 133.2 L 498.8 132.6 L 502.7 133.4 L 504.6 136.4 L 506.5 144.6 L 518.1 202.9" stroke="#000" stroke-width="2" fill="none" stroke-linecap="round" stroke-linejoin="round" />
<path d="M 1448.4 876.8 L 1438.9 881.4 L 1429.3 887.3 L 1425.3 891.6 L 1423.9 896.0 L 1424.4 900.6 L 1432.8 922.1 L 1439.7 942.3 L 1442.2 949.2 L 1443.6 956.1 L 1443.6 968.2 L 1442.3 988.8 L 1442.3 1022.8 L 1446.6 1063.3 L 1448.7 1082.2 L 1447.0 1093.0 L 1445.3 1100.3 L 1445.3 1107.6 L 1451.3 1139.4 L 1463.8 1187.6 L 1466.0 1199.8 L 1466.8 1226.4 L 1466.8 1263.4 L 1465.9 1318.0 L 1459.5 1390.3 L 1456.9 1416.1 L 1458.2 1426.5 L 1463.4 1442.4 L 1465.5 1462.6 L 1465.9 1499.2 L 1460.8 1538.8 L 1450.9 1579.2 L 1438.4 1634.3 L 1438.0 1644.2 L 1441.4 1651.5 L 1446.6 1668.7 L 1447.0 1679.1 L 1443.6 1702.7 L 1435.8 1739.3 L 1417.3 1789.2 L 1405.7 1832.3 L 1390.6 1893.4 L 1384.6 1909.7 L 1370.4 1933.0 L 1358.8 1951.5 L 1350.6 1973.4 L 1342.4 2005.3" stroke="#000" stroke-width="2" fill="none" stroke-linecap="round" stroke-linejoin="round" />
<path d="M 457.0 355.2 L 456.7 365.6 L 455.2 371.0 L 448.7 381.8 L 435.8 397.9 L 431.5 403.3 L 428.9 408.4 L 427.2 418.1 L 430.4 436.4" stroke="#000" stroke-width="2" fill="none" stroke-linecap="round" stroke-linejoin="round" />
<path d="M 518.2 226.1 L 503.8 233.5 L 501.5 235.7 L 501.0 237.9 L 501.8 241.4 L 507.1 255.9 L 507.5 258.5 L 506.7 261.0 L 502.9 263.6 L 494.0 268.0 L 491.1 270.2 L 489.7 272.2 L 489.6 274.4 L 490.4 277.8 L 498.6 299.9 L 517.1 337.3 L 518.0 339.0 L 519.6 341.0 L 521.5 341.3 L 526.4 340.8 L 535.4 339.1 L 549.4 336.9" stroke="#000" stroke-width="2" fill="none" stroke-linecap="round" stroke-linejoin="round" />
<path d="M 517.1 337.3 L 493.2 340.0 L 475.9 341.1 L 470.6 342.7 L 467.1 345.6 L 465.4 348.3 L 462.9 351.9 L 460.5 354.1 L 457.0 355.2 L 451.1 356.0 L 438.4 357.5 L 412.3 362.5 L 388.5 367.1 L 382.9 369.2 L 380.5 372.3 L 380.1 376.6 L 390.2 439.2" stroke="#000" stroke-width="2" fill="none" stroke-linecap="round" stroke-linejoin="round" />
<path d="M 251.7 256.0 L 242.3 266.9 L 239.9 273.2 L 239.7 279.8 L 242.9 294.3 L 248.9 324.8 L 255.2 348.4 L 263.8 368.2 L 270.0 386.1 L 281.0 431.9 L 289.8 456.6" stroke="#000" stroke-width="2" fill="none" stroke-linecap="round" stroke-linejoin="round" />
<path d="M 275.5 590.9 L 274.8 553.9 L 275.3 552.0 L 276.2 550.5 L 278.9 549.0 L 289.3 546.1 L 307.2 542.4" stroke="#000" stroke-width="2" fill="none" stroke-linecap="round" stroke-linejoin="round" />
<path d="M 346.8 725.9 L 344.6 749.7 L 342.9 755.5 L 341.5 759.5 L 340.7 763.7 L 339.3 775.0 L 339.0 782.1 L 339.4 784.3 L 340.3 786.2 L 343.0 788.5 L 345.1 790.5 L 346.0 792.6 L 346.7 796.8 L 346.8 808.9" stroke="#000" stroke-width="2" fill="none" stroke-linecap="round" stroke-linejoin="round" />
<path d="M 1442.2 949.2 L 1470.1 932.3 L 1477.7 930.3 L 1606.7 909.5 L 1616.4 908.4 L 1658.2 905.0" stroke="#000" stroke-width="2" fill="none" stroke-linecap="round" stroke-linejoin="round" />
<path d="M 629.7 363.5 L 651.1 359.1 L 660.1 356.1 L 662.6 353.8 L 663.4 351.0 L 663.4 347.0 L 658.7 330.5 L 657.7 325.7 L 655.7 304.8" stroke="#000" stroke-width="2" fill="none" stroke-linecap="round" stroke-linejoin="round" />
<path d="M 641.1 414.6 L 648.3 414.7 L 657.0 415.2 L 661.1 414.9 L 665.5 413.4 L 685.6 401.4 L 688.6 400.5 L 693.7 399.4 L 727.3 399.3 L 730.5 397.7 L 731.6 395.1 L 731.9 391.5 L 726.0 370.1 L 724.8 364.5 L 716.2 315.2 L 713.3 303.7 L 711.8 300.9 L 707.0 297.3 L 706.0 295.1 L 705.9 292.4 L 704.3 252.3 L 703.5 217.1 L 703.2 211.8 L 700.0 177.6 L 699.9 173.4 L 700.7 168.8 L 703.9 146.2 L 703.9 143.2 L 702.7 140.6 L 691.5 120.2 L 657.2 138.4 L 655.1 140.8 L 654.2 143.4 L 653.0 147.0 L 641.3 181.0 L 639.7 183.6 L 637.2 186.1 L 633.4 188.6 L 619.9 191.5 L 614.4 191.8 L 599.2 190.0 L 594.5 189.9 L 587.6 190.6" stroke="#000" stroke-width="2" fill="none" stroke-linecap="round" stroke-linejoin="round" />
<path d="M 601.2 283.2 L 607.3 292.3 L 608.4 296.8 L 608.4 300.2 L 606.4 326.6 L 606.4 331.0 L 607.4 334.8 L 622.0 350.2 L 625.9 355.1 L 629.7 363.5 L 633.1 371.0 L 634.6 376.0 L 641.1 414.6 L 568.0 421.4" stroke="#000" stroke-width="2" fill="none" stroke-linecap="round" stroke-linejoin="round" />
<path d="M 543.2 700.9 L 608.6 698.9" stroke="#000" stroke-width="2" fill="none" stroke-linecap="round" stroke-linejoin="round" />
<path d="M 704.3 252.3 L 679.6 255.1 L 674.2 254.8 L 644.2 250.3 L 640.7 250.3 L 635.6 250.8 L 626.9 251.8 L 624.5 251.4 L 622.2 249.3 L 608.7 233.9 L 604.9 230.9 L 597.7 225.0 L 595.6 222.1 L 594.0 217.8 L 588.9 194.1 L 588.4 192.4 L 587.6 190.6 L 585.8 189.8 L 581.9 189.4" stroke="#000" stroke-width="2" fill="none" stroke-linecap="round" stroke-linejoin="round" />
<path d="M 634.9 229.9 L 654.5 226.3 L 658.2 223.9 L 660.0 220.5 L 660.1 216.7 L 653.0 147.0" stroke="#000" stroke-width="2" fill="none" stroke-linecap="round" stroke-linejoin="round" />
<path d="M 635.6 250.8 L 634.9 229.9 L 633.4 188.6" stroke="#000" stroke-width="2" fill="none" stroke-linecap="round" stroke-linejoin="round" />
<path d="M 717.1 78.3 L 713.5 73.1 L 711.9 68.7 L 705.8 54.3 L 703.0 52.2 L 699.7 52.0 L 665.4 58.7 L 662.3 57.6 L 660.0 56.1 L 658.4 53.0 L 650.3 31.2 L 639.9 8.9 L 639.9 5.3 L 641.1 2.1 L 663.7 -22.3 L 704.7 -64.6 L 705.9 -68.2 L 704.3 -71.6 L 702.3 -75.3 L 701.5 -78.5 L 702.6 -81.9 L 709.3 -88.7 L 713.5 -91.6 L 768.0 -118.2" stroke="#000" stroke-width="2" fill="none" stroke-linecap="round" stroke-linejoin="round" />
<path d="M 1366.6 439.7 L 1372.9 440.7" stroke="#000" stroke-width="2" fill="none" stroke-linecap="round" stroke-linejoin="round" />
<path d="M 1372.9 440.7 L 1455.4 446.0 L 1518.7 449.0 L 1572.1 452.2 L 1640.5 455.9 L 1645.4 455.3 L 1648.2 456.2 L 1649.6 458.9 L 1650.0 462.4 L 1646.6 505.4 L 1646.2 512.0 L 1645.9 537.7 L 1645.4 573.5 L 1646.2 600.2 L 1646.7 606.4 L 1657.5 677.8 L 1657.9 680.2 L 1659.0 683.7 L 1660.7 686.5" stroke="#000" stroke-width="2" fill="none" stroke-linecap="round" stroke-linejoin="round" />
<path d="M 658.3 481.7 L 648.3 414.7" stroke="#000" stroke-width="2" fill="none" stroke-linecap="round" stroke-linejoin="round" />
<path d="M 691.5 120.2 L 714.7 109.5 L 717.2 105.7 L 717.8 101.7 L 716.3 82.3 L 717.1 78.3 L 727.5 58.1 L 728.9 53.2 L 736.0 24.9 L 738.6 19.1 L 740.8 15.4 L 759.1 -8.7 L 778.3 -40.4 L 790.0 -78.3 L 790.0 -81.7 L 789.2 -85.3 L 768.0 -118.2 L 766.4 -123.1 L 757.1 -146.6 L 756.7 -150.3 L 757.6 -153.5 L 769.5 -167.8 L 771.7 -171.7 L 772.2 -174.9 L 770.9 -179.4 L 764.8 -192.9 L 763.9 -196.1 L 764.1 -198.9 L 765.8 -201.8 L 770.8 -206.2 L 774.9 -207.9 L 779.8 -207.8 L 783.5 -206.8 L 800.3 -192.1 L 804.3 -190.4 L 808.4 -191.1 L 810.8 -193.2 L 820.4 -201.8 L 825.6 -205.2 L 863.6 -240.5 L 924.5 -288.9 L 960.7 -324.7 L 992.9 -358.3 L 1019.2 -383.9 L 1022.1 -387.3 L 1036.4 -405.5 L 1039.8 -410.9 L 1064.8 -457.7 L 1068.1 -462.4 L 1085.4 -483.7 L 1098.0 -499.3 L 1115.0 -521.5 L 1134.9 -547.6 L 1165.1 -591.0 L 1191.7 -625.6 L 1195.7 -631.6 L 1213.9 -666.5 L 1216.1 -669.9 L 1221.8 -675.9 L 1225.1 -677.3 L 1229.2 -676.3 L 1233.1 -673.7 L 1266.9 -651.7 L 1272.6 -649.1 L 1296.3 -639.4 L 1301.3 -639.3 L 1306.3 -642.4 L 1317.8 -653.0 L 1321.5 -655.3 L 1326.1 -655.3 L 1343.3 -652.6 L 1348.1 -652.9 L 1352.2 -655.0 L 1359.5 -660.6 L 1363.9 -665.4 L 1388.3 -697.3 L 1393.8 -704.5 L 1416.1 -733.4 L 1419.9 -737.5 L 1436.7 -755.3 L 1440.2 -759.3 L 1443.4 -763.9 L 1445.3 -769.9 L 1445.1 -773.6 L 1443.3 -777.1 L 1438.1 -781.5 L 1437.1 -785.0 L 1437.7 -788.4 L 1440.2 -799.9 L 1441.4 -802.3 L 1443.1 -803.6 L 1448.5 -804.9 L 1450.9 -806.2 L 1453.0 -808.7 L 1453.9 -811.6 L 1457.3 -833.2 L 1462.4 -856.1 L 1467.9 -874.0 L 1497.0 -972.2 L 1517.4 -1036.7 L 1518.5 -1046.8 L 1516.4 -1055.4 L 1511.4 -1060.6 L 1484.1 -1074.0 L 1480.2 -1077.4 L 1478.4 -1083.1 L 1478.1 -1090.2 L 1480.2 -1096.0 L 1535.7 -1262.7" stroke="#000" stroke-width="2" fill="none" stroke-linecap="round" stroke-linejoin="round" />
  

  

  
    <g stroke="#000" fill="none" stroke-width="2.9952">
      <circle cx="936" cy="702" r="16.848" fill="#fff" fill-opacity="0.7"/>
      <circle cx="936" cy="702" r="3.744" fill="#000" stroke="none"/>
    </g>
  <rect width="100%" height="100%" fill="url(#vignette)"/>
  
    <g transform="translate(1776, 116)" stroke="#000" stroke-width="2.2464" fill="#000">
      <line x1="0" y1="37.44" x2="0" y2="-37.44"/>
      <path d="M 0 -37.44 L 13.104 -13.104 L 0 -22.464 L -13.104 -13.104 Z"/>
      <text x="0" y="59.44" text-anchor="middle" font-family="Georgia, serif" font-size="22.464000000000002">N</text>
    </g>
  
    <g stroke="#000" stroke-width="2.2464" fill="#000" font-family="Georgia, serif">
      <line x1="96" y1="1308" x2="291" y2="1308"/>
      <line x1="96" y1="1301" x2="96" y2="1315"/>
      <line x1="193.5" y1="1304" x2="193.5" y2="1312"/>
      <line x1="291" y1="1301" x2="291" y2="1315"/>
      <text x="193.5" y="1294" text-anchor="middle" font-size="20.592" stroke="none">250 m</text>
    </g>
  <rect x="66" y="66" width="1740" height="1272" fill="none" stroke="#000" stroke-width="2" stroke-opacity="0.7"/>
  <rect x="74" y="74" width="1724" height="1256" fill="none" stroke="#000" stroke-width="1" stroke-opacity="0.4"/>
  
</svg>