<svg xmlns="http://www.w3.org/2000/svg" width="1872" height="1404" viewBox="0 0 1872 1404">
  <defs>
    <radialGradient id="vignette" cx="50%" cy="50%" r="954.72" gradientUnits="userSpaceOnUse">
      <stop offset="55%" stop-color="#fff" stop-opacity="0"/>
      <stop offset="100%" stop-color="#fff" stop-opacity="1"/>
    </radialGradient>
    <pattern id="hatch" patternUnits="userSpaceOnUse" width="9" height="9" patternTransform="rotate(45)">
      <line x1="0" y1="0" x2="0" y2="9" stroke="#000" stroke-width="0.9" stroke-opacity="0.4"/>
    </pattern>
  </defs>
  <rect width="100%" height="100%" fill="#fff"/>
  <path d="M 1628.1 873.1 L 1601.1 891.0 L 1591.6 904.5 L 1585.5 913.2 L 1581.9 919.1 L 1579.1 926.0 L 1575.9 931.2 L 1566.4 937.6 L 1563.8 941.4 L 1560.1 947.2 L 1559.7 953.5 L 1559.7 961.2 L 1562.9 967.7 L 1571.2 975.1 L 1577.7 981.6 L 1583.4 985.2 L 1588.8 985.4 L 1594.9 981.0 L 1601.4 972.6 L 1610.4 958.6 L 1623.0 947.0 L 1639.4 930.1 L 1667.1 905.5 L 1683.0 890.0 L 1693.8 883.3 L 1700.1 878.7 L 1711.2 865.3 L 1729.8 840.1 L 1746.0 822.8 L 1747.9 813.4 L 1749.6 806.2 L 1755.8 801.0 L 1762.7 799.2 L 1774.9 795.4 L 1785.6 788.7 L 1818.1 764.3 L 1841.0 744.2 L 1872.9 701.4 L 1875.7 695.2 L 1878.6 692.0 L 1877.4 688.2 L 1874.8 684.7 L 1874.7 679.5 L 1875.3 670.6 L 1871.5 634.1 L 1872.9 615.6 L 1880.2 601.9 L 1927.9 554.1 L 1939.1 537.6 L 1950.9 520.2 L 1959.1 503.3 L 1973.1 481.4 L 1979.6 470.2 L 1983.8 467.7 L 1993.6 461.2 L 2002.6 444.9 L 2013.3 437.9 L 2015.8 426.1 L 2021.1 412.9 L 2029.8 406.7 L 2036.6 390.8 L 2047.2 368.9 L 2057.6 351.3 L 2060.1 341.3 L 2062.9 322.3 L 2067.4 309.3 L 2069.4 298.7 L 2069.1 284.6 L 2061.6 277.7 L 2055.1 275.7 L 2050.0 277.1 L 2046.7 281.3 L 2045.8 287.7 L 2042.2 297.0 L 2036.3 305.1 L 2036.6 312.1 L 2031.8 321.1 L 2029.8 326.5 L 2029.7 334.5 L 2029.5 336.6 L 2028.8 337.6 L 2025.7 339.6 L 2024.2 341.9 L 2025.4 347.2 L 2023.1 350.2 L 2018.3 352.3 L 2013.8 357.6 L 2007.9 370.8 L 2005.4 382.6 L 2004.0 390.8 L 1997.0 398.0 L 1988.8 410.7 L 1985.5 420.1 L 1979.6 426.8 L 1971.8 434.8 L 1960.8 447.3 L 1950.5 460.4 L 1934.9 484.8 L 1921.6 505.1 L 1912.6 523.1 L 1902.4 524.4 L 1895.6 525.5 L 1891.0 531.4 L 1878.4 542.1 L 1865.2 552.4 L 1856.2 564.5 L 1850.3 574.6 L 1841.6 583.3 L 1839.9 594.0 L 1836.5 607.8 L 1837.1 616.2 L 1836.2 626.0 L 1830.9 644.5 L 1830.9 653.2 L 1833.4 665.9 L 1836.2 678.8 L 1821.6 692.8 L 1777.0 735.2 L 1720.4 769.7 L 1715.9 779.3 L 1699.7 790.5 L 1693.2 806.8 L 1678.0 829.3 L 1662.0 841.6 L 1653.3 850.3 L 1628.1 873.1 Z" fill="#9a9a9a" stroke="#000" stroke-width="1.4"/>
<path d="M 1316.0 1156.3 L 1319.8 1147.8 L 1329.6 1134.6 L 1341.2 1122.1 L 1350.2 1108.7 L 1359.7 1095.3 L 1362.7 1090.5 L 1362.3 1086.3 L 1360.0 1085.4 L 1358.0 1086.3 L 1355.9 1087.7 L 1349.8 1089.5 L 1346.5 1090.8 L 1344.5 1092.0 L 1341.9 1093.7 L 1338.3 1097.0 L 1331.8 1105.2 L 1321.4 1119.9 L 1320.5 1122.7 L 1319.7 1126.3 L 1319.2 1129.7 L 1318.1 1134.4 L 1316.4 1139.3 L 1314.7 1144.5 L 1314.0 1148.0 L 1314.0 1151.8 L 1314.9 1154.5 L 1315.1 1156.1 L 1316.0 1156.3 Z" fill="#9a9a9a" stroke="#000" stroke-width="1.4"/>
<path d="M 1270.7 1350.2 L 1274.5 1350.2 L 1288.7 1346.5 L 1297.5 1343.3 L 1298.9 1339.7 L 1300.4 1334.0 L 1300.6 1330.9 L 1297.9 1325.4 L 1282.5 1302.2 L 1265.2 1280.8 L 1259.2 1272.1 L 1257.9 1263.5 L 1256.7 1256.5 L 1257.4 1249.9 L 1259.9 1243.4 L 1265.1 1231.9 L 1271.0 1217.9 L 1277.4 1207.9 L 1282.8 1202.0 L 1289.9 1196.9 L 1295.7 1188.7 L 1303.6 1175.9 L 1309.4 1166.1 L 1307.8 1165.6 L 1300.8 1168.7 L 1294.0 1170.7 L 1285.2 1174.1 L 1280.0 1175.0 L 1274.7 1176.8 L 1271.2 1179.5 L 1266.0 1182.4 L 1259.4 1196.1 L 1256.2 1205.5 L 1255.4 1214.4 L 1255.6 1217.8 L 1256.3 1225.6 L 1254.3 1231.1 L 1250.1 1236.4 L 1245.6 1239.9 L 1242.8 1243.4 L 1242.1 1246.6 L 1242.5 1253.2 L 1242.7 1268.6 L 1241.6 1284.8 L 1241.1 1293.5 L 1241.9 1300.4 L 1249.2 1320.3 L 1256.3 1332.3 L 1264.8 1344.4 L 1267.6 1348.3 L 1269.2 1349.9 L 1270.7 1350.2 Z" fill="#9a9a9a" stroke="#000" stroke-width="1.4"/>
  <path d="M 1072.1 964.7 L 1091.6 979.0 L 1178.0 868.6 L 1172.4 861.6 L 1191.2 830.7 L 1188.0 826.7 L 1167.9 845.2 L 1155.6 871.6 L 1126.3 910.6 L 1106.9 918.3 L 1095.2 936.2 L 1103.9 947.1 L 1089.2 968.4 L 1077.4 960.0 L 1072.1 964.7 Z" fill="url(#hatch)" stroke="#000" stroke-width="0.8" stroke-opacity="0.5"/>
<path d="M 916.3 1235.2 L 908.3 1247.0 L 899.8 1258.3 L 858.3 1314.4 L 842.3 1336.1 L 842.7 1340.9 L 845.4 1342.6 L 860.2 1323.8 L 877.8 1298.9 L 894.2 1278.1 L 903.3 1263.4 L 908.8 1254.7 L 918.9 1246.0 L 918.4 1242.1 L 916.3 1235.2 Z" fill="url(#hatch)" stroke="#000" stroke-width="0.8" stroke-opacity="0.5"/>
  
  
  <path d="M 1140.0 176.3 L 1108.6 153.5 L 1130.2 122.0 L 1153.9 89.9" stroke="#000" stroke-width="1.1" fill="none" stroke-linecap="round" stroke-linejoin="round" stroke-opacity="0.75"/>
<path d="M 566.4 373.6 L 567.9 385.2 L 580.3 397.3" stroke="#000" stroke-width="1.1" fill="none" stroke-linecap="round" stroke-linejoin="round" stroke-opacity="0.75"/>
<path d="M 1217.5 1133.0 L 1158.4 1091.9" stroke="#000" stroke-width="1.1" fill="none" stroke-linecap="round" stroke-linejoin="round" stroke-opacity="0.75"/>
<path d="M 1316.6 210.8 L 1336.2 224.5 L 1339.5 219.9" stroke="#000" stroke-width="1.1" fill="none" stroke-linecap="round" stroke-linejoin="round" stroke-opacity="0.75"/>
<path d="M 1295.0 242.1 L 1316.6 210.8 L 1324.1 200.0 L 1333.9 206.7 L 1339.5 219.9 L 1374.4 243.7" stroke="#000" stroke-width="1.1" fill="none" stroke-linecap="round" stroke-linejoin="round" stroke-opacity="0.75"/>
<path d="M 1596.8 787.8 L 1669.7 680.9" stroke="#000" stroke-width="1.1" fill="none" stroke-linecap="round" stroke-linejoin="round" stroke-opacity="0.75"/>
<path d="M 1378.6 944.4 L 1430.6 881.4 L 1399.1 854.2 L 1427.2 817.1" stroke="#000" stroke-width="1.1" fill="none" stroke-linecap="round" stroke-linejoin="round" stroke-opacity="0.75"/>
<path d="M 1521.7 1119.4 L 1545.5 1087.8 L 1564.1 1072.0 L 1545.4 1060.5 L 1506.8 1107.6" stroke="#000" stroke-width="1.1" fill="none" stroke-linecap="round" stroke-linejoin="round" stroke-opacity="0.75"/>
<path d="M 1143.7 755.8 L 1066.3 865.7" stroke="#000" stroke-width="1.1" fill="none" stroke-linecap="round" stroke-linejoin="round" stroke-opacity="0.75"/>
<path d="M 951.0 661.0 L 985.7 682.8 L 985.7 693.0 L 973.7 718.7" stroke="#000" stroke-width="1.1" fill="none" stroke-linecap="round" stroke-linejoin="round" stroke-opacity="0.75"/>
<path d="M 850.4 808.3 L 893.9 835.6" stroke="#000" stroke-width="1.1" fill="none" stroke-linecap="round" stroke-linejoin="round" stroke-opacity="0.75"/>
<path d="M 730.3 769.6 L 765.4 790.7 L 778.8 793.8 L 785.4 790.7 L 794.0 769.7 L 809.2 748.8" stroke="#000" stroke-width="1.1" fill="none" stroke-linecap="round" stroke-linejoin="round" stroke-opacity="0.75"/>
<path d="M 1104.7 640.3 L 1064.5 612.1" stroke="#000" stroke-width="1.1" fill="none" stroke-linecap="round" stroke-linejoin="round" stroke-opacity="0.75"/>
<path d="M 1016.1 507.2 L 1006.6 521.1 L 988.2 532.1 L 971.2 547.0" stroke="#000" stroke-width="1.1" fill="none" stroke-linecap="round" stroke-linejoin="round" stroke-opacity="0.75"/>
<path d="M 781.7 107.4 L 730.4 74.4" stroke="#000" stroke-width="1.1" fill="none" stroke-linecap="round" stroke-linejoin="round" stroke-opacity="0.75"/>
<path d="M 1313.3 584.9 L 1317.7 579.4" stroke="#000" stroke-width="1.1" fill="none" stroke-linecap="round" stroke-linejoin="round" stroke-opacity="0.75"/>
<path d="M 1306.1 594.7 L 1313.3 584.9" stroke="#000" stroke-width="1.1" fill="none" stroke-linecap="round" stroke-linejoin="round" stroke-opacity="0.75"/>
<path d="M 1278.7 701.1 L 1298.4 717.0" stroke="#000" stroke-width="1.1" fill="none" stroke-linecap="round" stroke-linejoin="round" stroke-opacity="0.75"/>
<path d="M 1269.1 693.4 L 1278.7 701.1" stroke="#000" stroke-width="1.1" fill="none" stroke-linecap="round" stroke-linejoin="round" stroke-opacity="0.75"/>
<path d="M 1496.3 712.4 L 1518.4 681.3" stroke="#000" stroke-width="1.1" fill="none" stroke-linecap="round" stroke-linejoin="round" stroke-opacity="0.75"/>
<path d="M 1487.4 654.8 L 1494.2 660.5 L 1518.4 681.3 L 1545.3 702.8" stroke="#000" stroke-width="1.1" fill="none" stroke-linecap="round" stroke-linejoin="round" stroke-opacity="0.75"/>
<path d="M 1521.1 840.5 L 1543.1 861.7" stroke="#000" stroke-width="1.1" fill="none" stroke-linecap="round" stroke-linejoin="round" stroke-opacity="0.75"/>
<path d="M 1553.1 754.0 L 1540.8 770.5 L 1539.9 774.9 L 1546.1 789.3 L 1549.0 796.8 L 1547.4 806.3 L 1521.1 840.5 L 1513.3 833.7 L 1501.2 826.8 L 1492.5 827.9 L 1484.6 834.2 L 1473.2 849.0" stroke="#000" stroke-width="1.1" fill="none" stroke-linecap="round" stroke-linejoin="round" stroke-opacity="0.75"/>
<path d="M 1506.9 756.4 L 1485.7 741.3 L 1479.8 740.5 L 1475.1 742.4 L 1421.7 813.3" stroke="#000" stroke-width="1.1" fill="none" stroke-linecap="round" stroke-linejoin="round" stroke-opacity="0.75"/>
<path d="M 1328.4 869.0 L 1309.2 852.8 L 1306.9 848.3 L 1307.2 842.9 L 1342.3 795.2 L 1347.9 793.0 L 1352.1 792.7 L 1374.0 806.8" stroke="#000" stroke-width="1.1" fill="none" stroke-linecap="round" stroke-linejoin="round" stroke-opacity="0.75"/>
<path d="M 1309.9 773.2 L 1253.6 845.3" stroke="#000" stroke-width="1.1" fill="none" stroke-linecap="round" stroke-linejoin="round" stroke-opacity="0.75"/>
<path d="M 1343.2 754.9 L 1326.6 777.5 L 1322.9 780.1 L 1318.4 780.3 L 1309.9 773.2 L 1292.3 758.4 L 1290.9 753.9 L 1291.8 750.3 L 1308.8 728.2" stroke="#000" stroke-width="1.1" fill="none" stroke-linecap="round" stroke-linejoin="round" stroke-opacity="0.75"/>
<path d="M 1493.9 598.1 L 1439.2 670.3" stroke="#000" stroke-width="1.1" fill="none" stroke-linecap="round" stroke-linejoin="round" stroke-opacity="0.75"/>
<path d="M 1332.6 590.4 L 1349.0 565.6 L 1353.5 555.7 L 1360.3 547.3 L 1376.3 536.9 L 1385.0 533.6 L 1391.1 534.7 L 1419.3 554.6" stroke="#000" stroke-width="1.1" fill="none" stroke-linecap="round" stroke-linejoin="round" stroke-opacity="0.75"/>
<path d="M 1298.4 527.8 L 1349.0 565.6" stroke="#000" stroke-width="1.1" fill="none" stroke-linecap="round" stroke-linejoin="round" stroke-opacity="0.75"/>
<path d="M 1186.3 691.1 L 1143.7 755.8" stroke="#000" stroke-width="1.1" fill="none" stroke-linecap="round" stroke-linejoin="round" stroke-opacity="0.75"/>
<path d="M 1264.8 689.9 L 1269.1 693.4" stroke="#000" stroke-width="1.1" fill="none" stroke-linecap="round" stroke-linejoin="round" stroke-opacity="0.75"/>
<path d="M 1288.8 618.5 L 1306.1 594.7" stroke="#000" stroke-width="1.1" fill="none" stroke-linecap="round" stroke-linejoin="round" stroke-opacity="0.75"/>
<path d="M 1252.8 594.9 L 1288.8 618.5 L 1304.0 628.4 L 1304.9 632.2 L 1303.5 638.6 L 1264.8 689.9 L 1188.2 791.3" stroke="#000" stroke-width="1.1" fill="none" stroke-linecap="round" stroke-linejoin="round" stroke-opacity="0.75"/>
<path d="M 1553.8 691.1 L 1575.8 706.1" stroke="#000" stroke-width="1.1" fill="none" stroke-linecap="round" stroke-linejoin="round" stroke-opacity="0.75"/>
<path d="M 1602.7 599.0 L 1603.7 613.6 L 1603.0 620.6 L 1598.7 627.5" stroke="#000" stroke-width="1.1" fill="none" stroke-linecap="round" stroke-linejoin="round" stroke-opacity="0.75"/>
<path d="M 1691.3 582.9 L 1652.1 618.8 L 1626.5 648.4" stroke="#000" stroke-width="1.1" fill="none" stroke-linecap="round" stroke-linejoin="round" stroke-opacity="0.75"/>
<path d="M 1382.1 699.4 L 1422.1 657.4" stroke="#000" stroke-width="1.1" fill="none" stroke-linecap="round" stroke-linejoin="round" stroke-opacity="0.75"/>
<path d="M 1654.4 669.4 L 1638.2 680.4 L 1637.0 681.4 L 1594.3 737.1 L 1591.4 739.0 L 1587.0 739.0 L 1541.6 708.4" stroke="#000" stroke-width="1.1" fill="none" stroke-linecap="round" stroke-linejoin="round" stroke-opacity="0.75"/>
<path d="M 157.3 228.1 L 296.8 325.8 L 441.5 420.0" stroke="#000" stroke-width="1.1" fill="none" stroke-linecap="round" stroke-linejoin="round" stroke-opacity="0.75"/>
<path d="M 1494.2 660.5 L 1501.5 658.8 L 1504.1 659.2 L 1506.9 660.6 L 1550.8 695.2" stroke="#000" stroke-width="1.1" fill="none" stroke-linecap="round" stroke-linejoin="round" stroke-opacity="0.75"/>
<path d="M 1434.3 352.1 L 1433.0 359.8 L 1433.7 362.6 L 1435.3 365.2 L 1469.3 390.7 L 1472.8 391.6 L 1476.5 391.4 L 1483.8 381.1" stroke="#000" stroke-width="1.1" fill="none" stroke-linecap="round" stroke-linejoin="round" stroke-opacity="0.75"/>
<path d="M 1467.8 253.8 L 1426.9 223.4" stroke="#000" stroke-width="1.1" fill="none" stroke-linecap="round" stroke-linejoin="round" stroke-opacity="0.75"/>
<path d="M 1457.9 319.1 L 1436.5 301.4 L 1435.6 299.2 L 1435.9 296.5 L 1465.0 255.9 L 1467.8 253.8 L 1471.2 253.5 L 1474.8 254.7 L 1492.8 268.7" stroke="#000" stroke-width="1.1" fill="none" stroke-linecap="round" stroke-linejoin="round" stroke-opacity="0.75"/>
<path d="M 299.3 813.6 L 285.5 805.5 L 278.6 803.1 L 272.9 802.9" stroke="#000" stroke-width="1.1" fill="none" stroke-linecap="round" stroke-linejoin="round" stroke-opacity="0.75"/>
<path d="M 228.0 842.4 L 264.6 867.2" stroke="#000" stroke-width="1.1" fill="none" stroke-linecap="round" stroke-linejoin="round" stroke-opacity="0.75"/>
<path d="M 564.9 352.0 L 573.5 358.0 L 575.5 360.8 L 577.1 364.3 L 577.8 368.9 L 576.3 373.4 L 574.0 377.0 L 567.9 385.2" stroke="#000" stroke-width="1.1" fill="none" stroke-linecap="round" stroke-linejoin="round" stroke-opacity="0.75"/>
<path d="M 565.3 364.8 L 566.4 373.6" stroke="#000" stroke-width="1.1" fill="none" stroke-linecap="round" stroke-linejoin="round" stroke-opacity="0.75"/>
<path d="M 573.4 336.7 L 564.9 352.0 L 565.3 364.8" stroke="#000" stroke-width="1.1" fill="none" stroke-linecap="round" stroke-linejoin="round" stroke-opacity="0.75"/>
  <path d="M 1439.0 506.0 L 1516.0 404.6" stroke="#000" stroke-width="0.8" fill="none" stroke-linecap="round" stroke-linejoin="round" stroke-opacity="0.5" stroke-dasharray="4 5"/>
<path d="M 1516.0 404.6 L 1590.1 304.3" stroke="#000" stroke-width="0.8" fill="none" stroke-linecap="round" stroke-linejoin="round" stroke-opacity="0.5" stroke-dasharray="4 5"/>
<path d="M 1285.7 397.0 L 1354.1 445.4 L 1439.0 506.0 L 1449.8 513.6 L 1540.5 583.8" stroke="#000" stroke-width="0.8" fill="none" stroke-linecap="round" stroke-linejoin="round" stroke-opacity="0.5" stroke-dasharray="4 5"/>
<path d="M 1237.4 989.2 L 1145.7 919.4" stroke="#000" stroke-width="0.8" fill="none" stroke-linecap="round" stroke-linejoin="round" stroke-opacity="0.5" stroke-dasharray="4 5"/>
  <path d="M 1438.1 347.7 L 1457.9 319.1 L 1492.8 268.7 L 1508.6 245.9 L 1575.9 144.8" stroke="#000" stroke-width="2" fill="none" stroke-linecap="round" stroke-linejoin="round" />
<path d="M 310.8 1384.6 L 321.7 1323.3 L 327.0 1308.7 L 343.8 1281.7 L 369.9 1242.9 L 395.2 1212.8 L 402.3 1206.7 L 414.5 1200.0 L 424.3 1195.3 L 432.8 1191.3 L 436.7 1188.1 L 497.6 1103.1 L 581.5 983.3 L 647.2 888.8 L 709.9 799.3 L 730.3 769.6 L 794.7 676.5 L 850.1 593.5 L 873.6 556.4 L 946.1 457.3 L 1017.0 356.2 L 1089.4 250.7 L 1140.0 176.3 L 1161.2 145.1 L 1233.2 43.8 L 1263.3 1.6 L 1362.0 -145.1 L 1439.1 -255.8 L 1473.8 -308.5 L 1545.8 -409.4 L 1612.4 -502.2 L 1680.2 -594.2" stroke="#000" stroke-width="2" fill="none" stroke-linecap="round" stroke-linejoin="round" />
<path d="M 1734.8 128.7 L 1671.5 212.4 L 1667.9 217.1 L 1600.2 311.5 L 1525.4 412.0 L 1449.8 513.6 L 1419.3 554.6 L 1371.4 618.9 L 1298.4 717.0 L 1297.0 719.0 L 1220.8 819.0 L 1145.7 919.4 L 1067.3 1027.7 L 992.0 1128.9 L 915.3 1229.1 L 831.8 1343.5 L 765.2 1435.5 L 690.8 1536.5 L 628.1 1621.2 L 618.6 1634.0 L 589.8 1673.6" stroke="#000" stroke-width="2" fill="none" stroke-linecap="round" stroke-linejoin="round" />
<path d="M -199.8 626.8 L -197.9 631.6 L -189.9 639.8 L -174.6 653.5 L -158.3 665.2 L -133.7 677.4 L -40.8 736.5 L 45.4 793.5 L 140.0 847.8 L 236.7 910.2 L 327.2 969.4 L 352.9 987.8 L 412.7 1034.1 L 497.6 1103.1 L 597.8 1172.3 L 691.2 1241.4 L 767.0 1296.1 L 831.8 1343.5 L 920.3 1408.8 L 982.2 1455.6 L 1092.1 1532.9 L 1185.9 1598.7 L 1216.2 1619.9 L 1221.7 1626.2 L 1224.9 1635.1" stroke="#000" stroke-width="2" fill="none" stroke-linecap="round" stroke-linejoin="round" />
<path d="M -96.9 464.6 L -36.7 505.9 L 28.4 548.0 L 57.8 579.1 L 138.4 640.0 L 231.3 715.3 L 316.0 787.9 L 405.1 852.2 L 491.8 916.5 L 581.5 983.3 L 679.2 1054.8 L 772.6 1121.3 L 850.3 1177.0 L 915.3 1229.1 L 1004.1 1300.9 L 1062.8 1348.4 L 1160.2 1422.9 L 1195.7 1451.6 L 1224.3 1472.7 L 1233.7 1481.4 L 1237.4 1490.2" stroke="#000" stroke-width="2" fill="none" stroke-linecap="round" stroke-linejoin="round" />
<path d="M 342.0 543.4 L 361.5 557.1 L 431.2 613.1 L 524.9 678.7 L 615.7 735.7 L 709.9 799.3 L 811.9 864.3 L 909.8 926.6 L 989.9 978.6 L 1067.3 1027.7" stroke="#000" stroke-width="2" fill="none" stroke-linecap="round" stroke-linejoin="round" />
<path d="M 930.1 1753.5 L 945.7 1732.6 L 951.5 1724.9 L 974.1 1694.6 L 1011.8 1643.0 L 1047.2 1592.9 L 1092.1 1532.9 L 1124.6 1476.1 L 1160.2 1422.9 L 1175.5 1393.2 L 1182.4 1381.7 L 1191.4 1365.8 L 1198.3 1350.3 L 1203.5 1337.1 L 1204.4 1326.2 L 1203.5 1318.7 L 1199.6 1308.3" stroke="#000" stroke-width="2" fill="none" stroke-linecap="round" stroke-linejoin="round" />
<path d="M 1297.0 719.0 L 1308.8 728.2 L 1343.2 754.9 L 1387.1 789.0 L 1421.7 813.3 L 1427.2 817.1 L 1449.9 833.1 L 1462.1 841.7 L 1473.2 849.0 L 1500.5 867.2 L 1518.7 880.6 L 1525.6 885.7 L 1533.0 891.2" stroke="#000" stroke-width="2" fill="none" stroke-linecap="round" stroke-linejoin="round" />
<path d="M 803.2 1710.7 L 820.1 1675.5 L 842.2 1643.0 L 865.2 1612.2 L 919.2 1541.3 L 937.8 1516.5 L 982.2 1455.6 L 1062.8 1348.4 L 1140.9 1240.1 L 1217.5 1133.0 L 1294.7 1031.6 L 1368.6 939.3" stroke="#000" stroke-width="2" fill="none" stroke-linecap="round" stroke-linejoin="round" />
<path d="M 1294.7 1031.6 L 1237.4 989.2" stroke="#000" stroke-width="2" fill="none" stroke-linecap="round" stroke-linejoin="round" />
<path d="M 1465.2 -729.7 L 1455.7 -708.5 L 1445.5 -689.3 L 1419.1 -648.7 L 1352.1 -552.8 L 1281.2 -447.5 L 1241.1 -387.8 L 1160.8 -271.7 L 1103.7 -185.9 L 1037.5 -84.6 L 972.5 9.1 L 903.4 114.2 L 865.3 169.7 L 827.1 228.5 L 762.0 328.8 L 698.1 427.0 L 613.2 551.7 L 524.9 678.7 L 465.6 758.0 L 405.1 852.2 L 327.2 969.4 L 249.3 1089.8 L 210.7 1148.7 L 179.0 1204.8 L 168.6 1234.4 L 163.0 1257.4 L 160.0 1284.1 L 148.5 1347.5" stroke="#000" stroke-width="2" fill="none" stroke-linecap="round" stroke-linejoin="round" />
<path d="M 1320.5 -711.0 L 1258.2 -616.3 L 1188.7 -517.0 L 1146.3 -451.7 L 1068.1 -334.1 L 1011.9 -249.4 L 968.4 -181.2 L 946.7 -147.3 L 879.5 -48.9 L 831.1 31.0 L 817.0 54.3 L 781.7 107.4 L 738.4 172.4 L 673.6 268.0 L 605.2 359.3 L 580.3 397.3 L 518.4 485.4 L 431.2 613.1 L 378.5 698.2 L 316.0 787.9 L 299.3 813.6 L 264.6 867.2 L 236.7 910.2 L 199.3 968.2 L 188.6 986.7 L 162.1 1032.6 L 147.1 1061.1 L 127.7 1099.0 L 103.9 1171.7" stroke="#000" stroke-width="2" fill="none" stroke-linecap="round" stroke-linejoin="round" />
<path d="M 1846.9 -618.4 L 1838.8 -620.0 L 1836.4 -620.1 L 1834.4 -618.1 L 1832.2 -611.7 L 1829.5 -600.3 L 1826.9 -594.4 L 1821.6 -588.2 L 1810.1 -578.5 L 1807.6 -575.3 L 1801.2 -557.5 L 1777.6 -529.6 L 1764.7 -517.2 L 1760.0 -511.6 L 1757.1 -505.4 L 1751.9 -484.7 L 1749.1 -477.4 L 1745.4 -471.0 L 1739.0 -461.7 L 1716.9 -429.7 L 1700.1 -414.2 L 1695.3 -410.1 L 1687.2 -403.3 L 1672.7 -392.3 L 1667.8 -387.8 L 1664.9 -383.8 L 1640.0 -340.7 L 1579.8 -254.2 L 1566.1 -238.5 L 1550.2 -220.3 L 1531.8 -189.1 L 1477.5 -106.6 L 1460.8 -83.8 L 1390.7 16.4 L 1323.2 112.5 L 1257.3 215.7" stroke="#000" stroke-width="2" fill="none" stroke-linecap="round" stroke-linejoin="round" />
<path d="M 181.1 1578.9 L 200.7 1495.7 L 215.4 1430.5 L 229.7 1365.6 L 244.7 1303.9 L 254.5 1275.8 L 263.1 1260.5 L 276.2 1239.3 L 305.9 1193.4 L 336.3 1146.8 L 412.7 1034.1 L 491.8 916.5 L 555.3 825.4 L 615.7 735.7 L 702.5 611.3 L 784.8 490.2 L 854.7 390.0 L 920.3 290.5 L 994.2 181.8 L 1066.7 76.2" stroke="#000" stroke-width="2" fill="none" stroke-linecap="round" stroke-linejoin="round" />
<path d="M 478.5 1356.8 L 492.9 1327.5 L 527.7 1274.6 L 597.8 1172.3 L 637.5 1112.6 L 679.2 1054.8 L 749.0 959.2 L 811.9 864.3 L 850.4 808.3 L 893.7 745.2 L 951.0 661.0 L 972.4 629.5 L 1043.2 526.5 L 1110.7 425.0 L 1184.4 321.8 L 1257.3 215.7" stroke="#000" stroke-width="2" fill="none" stroke-linecap="round" stroke-linejoin="round" />
<path d="M 352.5 -263.6 L 384.4 -234.2 L 411.4 -216.4 L 450.2 -190.8 L 463.8 -181.9 L 524.2 -144.2 L 593.2 -106.8 L 621.8 -87.4 L 712.9 -25.0 L 768.4 18.6 L 817.0 54.3 L 903.4 114.2 L 994.2 181.8 L 1089.4 250.7 L 1184.4 321.8 L 1275.4 389.2 L 1285.7 397.0" stroke="#000" stroke-width="2" fill="none" stroke-linecap="round" stroke-linejoin="round" />
<path d="M 552.5 1446.9 L 626.8 1340.6 L 691.2 1241.4 L 772.6 1121.3 L 839.9 1025.4 L 909.8 926.6 L 989.1 810.3 L 1064.6 699.2 L 1104.7 640.3 L 1135.0 595.7 L 1205.5 493.2 L 1275.4 389.2 L 1348.5 281.6 L 1374.4 243.7 L 1417.4 180.4 L 1486.0 79.6 L 1551.7 -25.3 L 1626.9 -127.6 L 1659.7 -171.1 L 1733.0 -274.6 L 1803.6 -364.8 L 1877.3 -461.1" stroke="#000" stroke-width="2" fill="none" stroke-linecap="round" stroke-linejoin="round" />
<path d="M -43.8 1305.4 L -26.2 1241.0 L -6.5 1170.8 L 18.1 1094.9 L 39.9 1024.1 L 50.6 996.4 L 68.2 960.9 L 107.5 901.4 L 140.0 847.8 L 183.8 783.6 L 231.3 715.3 L 287.3 627.2 L 342.0 543.4" stroke="#000" stroke-width="2" fill="none" stroke-linecap="round" stroke-linejoin="round" />
<path d="M -192.4 803.8 L -186.5 807.7 L -110.2 843.1 L -21.0 892.5 L 68.2 960.9 L 144.5 1019.4 L 162.1 1032.6 L 179.0 1044.1 L 249.3 1089.8 L 336.3 1146.8 L 414.5 1200.0 L 433.0 1211.0 L 446.5 1219.0 L 527.7 1274.6 L 626.8 1340.6 L 701.1 1390.2 L 765.2 1435.5 L 854.1 1495.1 L 919.2 1541.3" stroke="#000" stroke-width="2" fill="none" stroke-linecap="round" stroke-linejoin="round" />
<path d="M 220.0 -79.8 L 248.2 -56.0 L 265.8 -41.1 L 290.4 -20.3 L 302.3 -13.6 L 305.3 -11.1 L 332.5 14.3 L 358.2 44.4 L 387.8 66.5 L 403.8 75.8 L 468.3 125.8 L 619.7 230.7 L 673.6 268.0 L 762.0 328.8 L 854.7 390.0 L 946.1 457.3 L 1016.1 507.2 L 1043.2 526.5 L 1135.0 595.7 L 1184.1 629.8" stroke="#000" stroke-width="2" fill="none" stroke-linecap="round" stroke-linejoin="round" />
<path d="M 630.4 1493.8 L 701.1 1390.2 L 733.6 1343.5 L 767.0 1296.1 L 850.3 1177.0 L 918.5 1079.6 L 989.9 978.6 L 1066.3 865.7" stroke="#000" stroke-width="2" fill="none" stroke-linecap="round" stroke-linejoin="round" />
<path d="M 437.4 425.5 L 518.4 485.4 L 613.2 551.7 L 702.5 611.3 L 794.7 676.5 L 893.7 745.2 L 989.1 810.3 L 1066.3 865.7" stroke="#000" stroke-width="2" fill="none" stroke-linecap="round" stroke-linejoin="round" />
<path d="M 274.6 -167.6 L 335.2 -115.6 L 346.8 -101.5 L 444.6 -23.3 L 533.9 34.7 L 571.7 62.2 L 632.0 101.5 L 640.5 107.1 L 664.5 122.7 L 678.4 132.2 L 738.4 172.4 L 827.1 228.5 L 920.3 290.5 L 1017.0 356.2 L 1110.7 425.0 L 1165.2 461.6 L 1205.5 493.2 L 1281.4 552.8 L 1317.7 579.4 L 1332.6 590.4 L 1371.4 618.9 L 1422.1 657.4 L 1439.2 670.3 L 1462.1 687.8 L 1496.3 712.4 L 1524.5 732.6 L 1553.1 754.0 L 1596.8 787.8 L 1634.0 816.2 L 1636.7 818.2" stroke="#000" stroke-width="2" fill="none" stroke-linecap="round" stroke-linejoin="round" />
<path d="M 632.0 101.5 L 712.9 -25.0 L 837.8 -216.4 L 905.9 -316.1 L 962.5 -405.4 L 1044.7 -522.2 L 1074.7 -569.1 L 1089.4 -585.8 L 1126.4 -637.1 L 1131.0 -645.9 L 1140.3 -661.0" stroke="#000" stroke-width="2" fill="none" stroke-linecap="round" stroke-linejoin="round" />
<path d="M 1524.5 732.6 L 1541.6 708.4 L 1545.3 702.8 L 1550.8 695.2 L 1553.8 691.1 L 1598.7 627.5" stroke="#000" stroke-width="2" fill="none" stroke-linecap="round" stroke-linejoin="round" />
<path d="M 1311.6 891.9 L 1253.6 845.3 L 1220.8 819.0 L 1188.2 791.3 L 1164.8 771.4 L 1143.7 755.8 L 1064.6 699.2 L 972.4 629.5 L 873.6 556.4 L 784.8 490.2 L 698.1 427.0 L 605.2 359.3 L 573.4 336.7 L 559.9 327.0 L 523.0 302.8 L 301.1 141.4 L 240.3 103.0 L 168.0 57.4 L 150.4 46.3 L 144.5 44.4 L 136.9 43.5 L 121.6 43.6 L 109.6 41.6 L 77.6 28.9 L -25.1 -13.8 L -94.6 -43.1" stroke="#000" stroke-width="2" fill="none" stroke-linecap="round" stroke-linejoin="round" />
<path d="M 1066.7 76.2 L 1130.2 122.0 L 1161.2 145.1 L 1257.3 215.7 L 1295.0 242.1 L 1348.5 281.6 L 1438.1 347.7 L 1483.8 381.1 L 1516.0 404.6 L 1525.4 412.0 L 1619.2 481.4" stroke="#000" stroke-width="2" fill="none" stroke-linecap="round" stroke-linejoin="round" />
<path d="M 1199.6 1308.3 L 1174.0 1272.0 L 1140.9 1240.1 L 1082.6 1197.6 L 992.0 1128.9 L 918.5 1079.6 L 839.9 1025.4 L 778.6 979.6 L 749.0 959.2 L 647.2 888.8 L 595.7 854.9 L 555.3 825.4 L 465.6 758.0 L 378.5 698.2 L 287.3 627.2 L 239.3 589.9 L 189.1 555.6 L 104.1 497.0 L 16.4 434.9 L -52.7 386.0" stroke="#000" stroke-width="2" fill="none" stroke-linecap="round" stroke-linejoin="round" />
<path d="M 1465.2 1281.8 L 1418.7 1348.7 L 1409.9 1359.4 L 1403.3 1365.5 L 1397.3 1368.7 L 1389.0 1368.0 L 1381.2 1365.2 L 1363.8 1351.5 L 1337.9 1323.8 L 1331.8 1314.2 L 1329.9 1306.5 L 1330.5 1297.1 L 1337.9 1285.0 L 1370.1 1243.8 L 1431.3 1162.8 L 1474.1 1106.6 L 1510.3 1062.1 L 1529.1 1040.8 L 1535.2 1036.0 L 1543.3 1033.7 L 1572.2 1026.5" stroke="#000" stroke-width="2" fill="none" stroke-linecap="round" stroke-linejoin="round" />
<path d="M 1442.2 984.1 L 1449.3 982.4 L 1456.1 977.6 L 1525.6 885.7 L 1543.1 861.7 L 1596.8 787.8" stroke="#000" stroke-width="2" fill="none" stroke-linecap="round" stroke-linejoin="round" />
<path d="M 432.8 1191.3 L 430.9 1194.9 L 430.4 1198.4 L 430.7 1204.3 L 432.1 1208.1 L 433.0 1211.0 L 434.0 1215.3 L 434.2 1219.8 L 433.4 1224.3 L 427.2 1249.5 L 423.3 1275.9 L 405.3 1341.1 L 393.0 1404.1" stroke="#000" stroke-width="2" fill="none" stroke-linecap="round" stroke-linejoin="round" />
<path d="M 1281.4 552.8 L 1298.4 527.8 L 1354.1 445.4 L 1418.9 358.8 L 1422.8 356.4 L 1430.8 354.2 L 1434.3 352.1 L 1438.1 347.7" stroke="#000" stroke-width="2" fill="none" stroke-linecap="round" stroke-linejoin="round" />
<path d="M 1442.2 984.1 L 1436.6 982.5 L 1394.5 952.5 L 1378.6 944.4 L 1368.6 939.3 L 1349.3 920.9 L 1311.6 891.9" stroke="#000" stroke-width="2" fill="none" stroke-linecap="round" stroke-linejoin="round" />
<path d="M 1540.5 583.8 L 1598.7 627.5 L 1626.5 648.4 L 1654.4 669.4 L 1669.7 680.9 L 1677.6 686.9 L 1692.3 695.7 L 1695.8 696.3 L 1703.2 696.4 L 1715.1 693.8 L 1725.1 693.9 L 1749.8 698.5" stroke="#000" stroke-width="2" fill="none" stroke-linecap="round" stroke-linejoin="round" />
<path d="M 1217.8 645.8 L 1248.2 603.7 L 1252.8 594.9 L 1261.1 580.0 L 1281.4 552.8" stroke="#000" stroke-width="2" fill="none" stroke-linecap="round" stroke-linejoin="round" />
<path d="M 342.0 543.4 L 359.5 533.8 L 401.3 477.5 L 437.4 425.5 L 441.5 420.0 L 523.0 302.8" stroke="#000" stroke-width="2" fill="none" stroke-linecap="round" stroke-linejoin="round" />
<path d="M 244.0 472.4 L 342.0 543.4" stroke="#000" stroke-width="2" fill="none" stroke-linecap="round" stroke-linejoin="round" />
<path d="M 1449.9 833.1 L 1506.9 756.4 L 1524.5 732.6" stroke="#000" stroke-width="2" fill="none" stroke-linecap="round" stroke-linejoin="round" />
<path d="M 640.5 107.1 L 652.2 132.3 L 664.9 156.7" stroke="#000" stroke-width="2" fill="none" stroke-linecap="round" stroke-linejoin="round" />
<path d="M 678.4 132.2 L 664.9 156.7 L 644.6 187.8 L 643.5 190.8 L 641.2 201.9 L 640.5 204.1 L 619.7 230.7" stroke="#000" stroke-width="2" fill="none" stroke-linecap="round" stroke-linejoin="round" />
<path d="M 879.5 -48.9 L 972.5 9.1 L 1066.7 76.2" stroke="#000" stroke-width="2" fill="none" stroke-linecap="round" stroke-linejoin="round" />
<path d="M 1066.7 76.2 L 1118.9 -3.0 L 1121.2 -8.9 L 1122.5 -15.4 L 1122.2 -20.4" stroke="#000" stroke-width="2" fill="none" stroke-linecap="round" stroke-linejoin="round" />
<path d="M 1533.0 891.2 L 1542.7 899.1 L 1547.8 906.3 L 1550.3 913.1 L 1551.3 922.5 L 1549.8 935.9 L 1547.6 948.5 L 1548.0 958.8 L 1550.0 968.3 L 1563.1 998.6 L 1569.2 1017.2 L 1572.2 1026.5 L 1574.7 1041.8 L 1574.9 1054.5 L 1575.6 1062.2 L 1580.8 1115.0 L 1582.9 1137.2" stroke="#000" stroke-width="2" fill="none" stroke-linecap="round" stroke-linejoin="round" />
<path d="M 1420.4 694.0 L 1424.7 694.5 L 1427.2 695.2 L 1446.3 709.1" stroke="#000" stroke-width="2" fill="none" stroke-linecap="round" stroke-linejoin="round" />
  

  <path d="M 697.5 1696.8 L 702.9 1694.0 L 709.3 1688.5 L 714.8 1682.2 L 719.3 1676.1 L 722.3 1672.0 L 776.8 1596.4 L 854.1 1495.1 L 920.3 1408.8 L 1004.1 1300.9 L 1082.6 1197.6 L 1158.4 1091.9 L 1237.4 989.2 L 1311.6 891.9 L 1328.4 869.0 L 1374.0 806.8 L 1387.1 789.0 L 1446.3 709.1 L 1462.1 687.8 L 1487.4 654.8 L 1540.5 583.8 L 1619.2 481.4 L 1639.3 453.4 L 1649.4 439.3 L 1689.3 383.9 L 1741.0 312.0 L 1763.4 280.9" stroke="#000" stroke-width="5" fill="none" stroke-linecap="round" stroke-linejoin="round" />
<path d="M 697.5 1696.8 L 702.9 1694.0 L 709.3 1688.5 L 714.8 1682.2 L 719.3 1676.1 L 722.3 1672.0 L 776.8 1596.4 L 854.1 1495.1 L 920.3 1408.8 L 1004.1 1300.9 L 1082.6 1197.6 L 1158.4 1091.9 L 1237.4 989.2 L 1311.6 891.9 L 1328.4 869.0 L 1374.0 806.8 L 1387.1 789.0 L 1446.3 709.1 L 1462.1 687.8 L 1487.4 654.8 L 1540.5 583.8 L 1619.2 481.4 L 1639.3 453.4 L 1649.4 439.3 L 1689.3 383.9 L 1741.0 312.0 L 1763.4 280.9" stroke="#fff" stroke-width="2.2" fill="none" stroke-linecap="round" stroke-linejoin="round"/>
  
    <g stroke="#000" fill="none" stroke-width="2.9952">
      <circle cx="936" cy="702" r="16.848" fill="#fff" fill-opacity="0.7"/>
      <circle cx="936" cy="702" r="3.744" fill="#000" stroke="none"/>
    </g>
  <rect width="100%" height="100%" fill="url(#vignette)"/>
  
    <g transform="translate(1776, 116)" stroke="#000" stroke-width="2.2464" fill="#000">
      <line x1="0" y1="37.44" x2="0" y2="-37.44"/>
      <path d="M 0 -37.44 L 13.104 -13.104 L 0 -22.464 L -13.104 -13.104 Z"/>
      <text x="0" y="59.44" text-anchor="middle" font-family="Georgia, serif" font-size="22.464000000000002">N</text>
    </g>
  
    <g stroke="#000" stroke-width="2.2464" fill="#000" font-family="Georgia, serif">
      <line x1="96" y1="1308" x2="291" y2="1308"/>
      <line x1="96" y1="1301" x2="96" y2="1315"/>
      <line x1="193.5" y1="1304" x2="193.5" y2="1312"/>
      <line x1="291" y1="1301" x2="291" y2="1315"/>
      <text x="193.5" y="1294" text-anchor="middle" font-size="20.592" stroke="none">250 m</text>
    </g>
  <rect x="66" y="66" width="1740" height="1272" fill="none" stroke="#000" stroke-width="2" stroke-opacity="0.7"/>
  <rect x="74" y="74" width="1724" height="1256" fill="none" stroke="#000" stroke-width="1" stroke-opacity="0.4"/>
  
</svg>