<svg xmlns="http://www.w3.org/2000/svg" width="1872" height="1404" viewBox="0 0 1872 1404">
  <defs>
    <radialGradient id="vignette" cx="50%" cy="50%" r="954.72" gradientUnits="userSpaceOnUse">
      <stop offset="55%" stop-color="#fff" stop-opacity="0"/>
      <stop offset="100%" stop-color="#fff" stop-opacity="1"/>
    </radialGradient>
  </defs>
  <rect width="100%" height="100%" fill="#fff"/>
  <path d="M 1199.7 2171.5 L 1198.0 2160.2 L 1186.3 2105.7 L 1163.0 2005.2 L 1157.6 1982.4 L 1107.2 1765.4 L 1085.4 1672.1 L 1076.5 1633.8 L 1058.0 1556.6 L 1046.0 1503.2 L 1041.2 1482.7 L 1029.0 1431.3 L 1012.8 1362.4 L 988.6 1259.5 L 987.7 1255.6 L 975.4 1199.4 L 970.3 1178.0 L 958.2 1130.3 L 953.0 1108.2 L 926.9 997.6 L 926.2 994.4 L 885.7 855.1 L 880.0 837.3 L 875.3 822.0 L 865.2 789.6 L 855.7 759.8 L 837.1 698.3 L 832.7 683.8 L 781.9 517.7 L 776.9 502.8 L 770.4 483.1 L 764.3 471.2 L 724.2 418.2 L 715.9 399.0 L 708.9 381.7 L 699.6 352.9 L 670.3 248.8 L 656.9 214.1 L 646.3 199.5 L 640.4 191.4 L 627.9 174.3 L 546.0 95.6 L 537.5 87.4 L 462.6 10.9 L 442.2 -12.3 L 433.1 -27.5 L 428.4 -36.1" stroke="#000" stroke-width="2.4" stroke-opacity="0.95" fill="none" stroke-linecap="round" stroke-linejoin="round"/>
<path d="M 2032.6 708.7 L 2005.3 706.3 L 1984.8 698.7 L 1964.1 677.2 L 1936.7 625.8 L 1925.9 604.4 L 1919.1 590.9 L 1888.7 537.7 L 1882.2 528.6 L 1857.8 506.2 L 1818.0 479.4 L 1780.4 459.4 L 1749.6 444.2 L 1745.0 442.0 L 1743.7 441.3 L 1737.5 438.2 L 1701.6 420.5 L 1681.0 410.3 L 1663.1 401.4 L 1621.9 381.3 L 1570.2 355.2 L 1517.1 328.8 L 1486.6 313.2 L 1476.2 307.9 L 1406.6 266.6 L 1405.4 265.9 L 1343.9 229.5 L 1334.8 225.7 L 1300.3 215.4 L 1295.7 214.0 L 1220.3 205.4 L 1214.3 204.7 L 1201.2 203.5 L 1129.8 197.1 L 1123.2 195.1 L 1095.4 186.6 L 1055.7 159.6" stroke="#000" stroke-width="2.4" stroke-opacity="0.95" fill="none" stroke-linecap="round" stroke-linejoin="round"/>
<path d="M 534.8 183.3 L 505.9 239.2 L 500.5 249.6 L 496.0 258.3" stroke="#000" stroke-width="1.3" stroke-opacity="0.8" fill="none" stroke-linecap="round" stroke-linejoin="round"/>
<path d="M 802.3 63.0 L 791.3 56.7 L 781.1 59.2 L 767.8 66.5 L 758.6 71.6 L 754.6 72.6" stroke="#000" stroke-width="1.3" stroke-opacity="0.8" fill="none" stroke-linecap="round" stroke-linejoin="round"/>
<path d="M 1191.3 -250.6 L 1189.4 -242.9 L 1158.3 -94.4 L 1143.0 -14.7 L 1128.4 49.9 L 1125.4 60.3 L 1118.9 72.3 L 1055.7 159.6 L 1048.6 171.0" stroke="#000" stroke-width="2.4" stroke-opacity="0.95" fill="none" stroke-linecap="round" stroke-linejoin="round"/>
<path d="M 962.8 58.1 L 979.4 37.5 L 1020.0 -19.2" stroke="#000" stroke-width="1.3" stroke-opacity="0.8" fill="none" stroke-linecap="round" stroke-linejoin="round"/>
<path d="M 907.8 55.6 L 903.6 61.3 L 878.7 95.0" stroke="#000" stroke-width="1.3" stroke-opacity="0.8" fill="none" stroke-linecap="round" stroke-linejoin="round"/>
<path d="M 1006.5 235.5 L 939.3 188.1 L 864.0 135.0 L 852.3 130.7" stroke="#000" stroke-width="1.3" stroke-opacity="0.8" fill="none" stroke-linecap="round" stroke-linejoin="round"/>
<path d="M 990.6 125.8 L 966.6 160.4 L 939.3 188.1 L 916.6 213.1" stroke="#000" stroke-width="1.3" stroke-opacity="0.8" fill="none" stroke-linecap="round" stroke-linejoin="round"/>
<path d="M 835.1 438.8 L 791.8 296.2 L 718.6 46.1 L 716.6 40.8 L 706.4 20.9 L 697.9 13.6 L 683.2 6.7" stroke="#000" stroke-width="1.3" stroke-opacity="0.8" fill="none" stroke-linecap="round" stroke-linejoin="round"/>
<path d="M 1026.5 205.1 L 966.6 160.4 L 936.3 140.9 L 900.2 112.1 L 878.7 95.0 L 823.6 46.5" stroke="#000" stroke-width="1.3" stroke-opacity="0.8" fill="none" stroke-linecap="round" stroke-linejoin="round"/>
<path d="M 1517.1 328.8 L 1529.9 301.0 L 1543.0 272.7" stroke="#000" stroke-width="1.3" stroke-opacity="0.8" fill="none" stroke-linecap="round" stroke-linejoin="round"/>
<path d="M 1470.6 316.3 L 1476.2 307.9 L 1492.5 279.5 L 1506.7 252.4" stroke="#000" stroke-width="1.3" stroke-opacity="0.8" fill="none" stroke-linecap="round" stroke-linejoin="round"/>
<path d="M 1492.5 279.5 L 1440.4 251.6" stroke="#000" stroke-width="1.3" stroke-opacity="0.8" fill="none" stroke-linecap="round" stroke-linejoin="round"/>
<path d="M 616.9 817.2 L 604.4 809.7 L 578.3 794.0 L 574.2 791.5 L 544.7 773.9 L 504.6 749.3 L 463.9 726.5 L 389.9 682.8 L 323.5 638.6" stroke="#000" stroke-width="1.3" stroke-opacity="0.8" fill="none" stroke-linecap="round" stroke-linejoin="round"/>
<path d="M 373.0 562.5 L 321.1 529.6 L 262.2 492.2" stroke="#000" stroke-width="1.3" stroke-opacity="0.8" fill="none" stroke-linecap="round" stroke-linejoin="round"/>
<path d="M 499.9 560.9 L 516.4 535.8 L 521.9 524.8 L 538.2 492.4 L 551.1 455.1 L 565.8 424.8" stroke="#000" stroke-width="1.3" stroke-opacity="0.8" fill="none" stroke-linecap="round" stroke-linejoin="round"/>
<path d="M 443.5 285.0 L 418.2 342.3 L 404.7 372.8 L 387.9 410.8 L 386.0 420.0" stroke="#000" stroke-width="1.3" stroke-opacity="0.8" fill="none" stroke-linecap="round" stroke-linejoin="round"/>
<path d="M 463.4 661.2 L 431.1 617.0 L 407.9 586.2 L 382.4 552.4 L 345.1 497.4 L 288.5 448.9 L 270.8 428.9" stroke="#000" stroke-width="1.3" stroke-opacity="0.8" fill="none" stroke-linecap="round" stroke-linejoin="round"/>
<path d="M 659.6 555.6 L 642.5 589.0" stroke="#000" stroke-width="1.3" stroke-opacity="0.8" fill="none" stroke-linecap="round" stroke-linejoin="round"/>
<path d="M 597.0 522.2 L 581.2 556.4 L 563.8 594.7" stroke="#000" stroke-width="1.3" stroke-opacity="0.8" fill="none" stroke-linecap="round" stroke-linejoin="round"/>
<path d="M 274.2 599.8 L 231.9 661.9 L 188.3 693.5 L 165.6 723.1 L 131.4 767.6" stroke="#000" stroke-width="1.3" stroke-opacity="0.8" fill="none" stroke-linecap="round" stroke-linejoin="round"/>
<path d="M 420.2 634.4 L 410.2 631.9 L 381.2 611.3 L 350.7 593.3 L 299.4 562.9 L 239.8 527.6" stroke="#000" stroke-width="1.3" stroke-opacity="0.8" fill="none" stroke-linecap="round" stroke-linejoin="round"/>
<path d="M 1330.4 235.8 L 1334.8 225.7 L 1339.0 217.4 L 1373.2 137.0 L 1410.0 52.7 L 1418.6 33.2 L 1431.2 2.1 L 1437.0 -12.4 L 1443.8 -29.3" stroke="#000" stroke-width="1.3" stroke-opacity="0.8" fill="none" stroke-linecap="round" stroke-linejoin="round"/>
<path d="M 1190.9 117.8 L 1225.8 37.9 L 1246.2 -6.2 L 1262.0 -40.5 L 1286.2 -93.0 L 1315.9 -110.7" stroke="#000" stroke-width="1.3" stroke-opacity="0.8" fill="none" stroke-linecap="round" stroke-linejoin="round"/>
<path d="M 1391.4 -129.9 L 1390.1 -124.7 L 1370.1 -77.2 L 1368.4 -72.9 L 1334.4 5.1 L 1300.6 85.3 L 1263.6 163.7" stroke="#000" stroke-width="1.3" stroke-opacity="0.8" fill="none" stroke-linecap="round" stroke-linejoin="round"/>
<path d="M 474.5 547.5 L 431.1 617.0 L 420.2 634.4 L 389.9 682.8 L 361.7 728.0 L 332.0 775.4 L 303.2 818.8 L 283.4 848.6 L 281.1 852.7" stroke="#000" stroke-width="1.3" stroke-opacity="0.8" fill="none" stroke-linecap="round" stroke-linejoin="round"/>
<path d="M 507.5 296.6 L 443.5 285.0 L 437.5 283.9 L 393.6 276.0 L 363.1 269.9" stroke="#000" stroke-width="1.3" stroke-opacity="0.8" fill="none" stroke-linecap="round" stroke-linejoin="round"/>
<path d="M 562.0 197.2 L 542.0 244.1 L 528.8 263.2 L 527.5 265.0 L 525.1 268.4 L 513.7 284.6 L 507.5 296.6 L 494.5 312.1 L 488.1 325.9 L 478.7 345.7 L 464.0 371.6 L 461.3 379.7" stroke="#000" stroke-width="1.3" stroke-opacity="0.8" fill="none" stroke-linecap="round" stroke-linejoin="round"/>
<path d="M 680.3 493.0 L 667.6 499.6 L 656.7 510.1 L 645.1 527.7 L 633.2 532.8 L 621.5 534.5" stroke="#000" stroke-width="1.3" stroke-opacity="0.8" fill="none" stroke-linecap="round" stroke-linejoin="round"/>
<path d="M 486.4 866.8 L 514.8 820.8 L 544.7 773.9 L 573.4 729.2 L 601.4 682.7 L 608.8 668.2 L 616.1 647.8 L 623.7 626.1" stroke="#000" stroke-width="1.3" stroke-opacity="0.8" fill="none" stroke-linecap="round" stroke-linejoin="round"/>
<path d="M 552.0 588.4 L 527.4 625.4 L 524.1 630.9 L 494.6 680.5 L 463.9 726.5 L 459.0 733.8 L 435.6 772.7 L 403.3 817.0 L 374.1 863.1 L 354.5 897.9 L 318.3 955.6" stroke="#000" stroke-width="1.3" stroke-opacity="0.8" fill="none" stroke-linecap="round" stroke-linejoin="round"/>
<path d="M 556.5 979.6 L 537.3 984.8 L 525.5 983.2 L 499.9 972.8 L 496.4 971.4 L 444.9 947.3 L 436.5 942.8 L 396.5 921.7 L 390.9 918.6 L 385.6 915.6 L 354.5 897.9 L 324.3 879.3 L 284.0 854.3 L 281.1 852.7" stroke="#000" stroke-width="1.3" stroke-opacity="0.8" fill="none" stroke-linecap="round" stroke-linejoin="round"/>
<path d="M 403.9 1015.2 L 412.0 1021.8 L 433.3 1029.5 L 445.6 1035.2 L 451.9 1036.9 L 458.7 1038.8 L 468.7 1044.2 L 475.7 1049.9 L 478.0 1054.9 L 479.6 1068.2 L 534.9 1096.9" stroke="#000" stroke-width="1.3" stroke-opacity="0.8" fill="none" stroke-linecap="round" stroke-linejoin="round"/>
<path d="M 59.1 422.6 L 128.9 517.1 L 180.3 587.9 L 181.8 589.9 L 200.2 615.3 L 231.9 661.9 L 277.5 719.0 L 279.4 720.7 L 303.4 747.6 L 332.0 775.4 L 403.3 817.0 L 407.4 819.4 L 443.4 839.6 L 447.4 841.9 L 486.4 866.8 L 528.6 892.0 L 533.7 903.7 L 551.8 945.5 L 556.5 979.6 L 550.6 1035.4 L 548.8 1053.3 L 548.3 1055.4 L 546.9 1062.0 L 545.1 1070.1 L 534.9 1096.9 L 528.9 1112.8 L 521.2 1133.0 L 516.6 1145.1 L 514.4 1151.0 L 504.4 1177.4 L 502.7 1181.7 L 502.6 1186.2 L 505.3 1194.1 L 517.5 1217.6 L 528.7 1239.4 L 536.7 1266.0 L 535.7 1274.0 L 534.5 1277.4" stroke="#000" stroke-width="1.3" stroke-opacity="0.8" fill="none" stroke-linecap="round" stroke-linejoin="round"/>
<path d="M 516.6 1145.1 L 596.1 1174.6" stroke="#000" stroke-width="1.3" stroke-opacity="0.8" fill="none" stroke-linecap="round" stroke-linejoin="round"/>
<path d="M 496.0 914.5 L 525.5 983.2" stroke="#000" stroke-width="1.3" stroke-opacity="0.8" fill="none" stroke-linecap="round" stroke-linejoin="round"/>
<path d="M 549.0 1194.3 L 527.0 1185.9 L 504.4 1177.4" stroke="#000" stroke-width="1.3" stroke-opacity="0.8" fill="none" stroke-linecap="round" stroke-linejoin="round"/>
<path d="M 278.0 1072.6 L 273.7 1071.1 L 271.5 1070.3 L 268.1 1066.9 L 265.4 1060.3 L 267.4 1050.8 L 282.4 998.0 L 286.4 994.8 L 291.4 995.3 L 296.9 996.4 L 303.0 994.4 L 307.7 989.1 L 325.2 962.4" stroke="#000" stroke-width="1.3" stroke-opacity="0.8" fill="none" stroke-linecap="round" stroke-linejoin="round"/>
<path d="M 519.1 1022.2 L 479.5 1005.5 L 459.9 998.0 L 423.2 982.2 L 417.8 976.4" stroke="#000" stroke-width="1.3" stroke-opacity="0.8" fill="none" stroke-linecap="round" stroke-linejoin="round"/>
<path d="M 517.5 1217.6 L 433.2 1226.2 L 380.5 1233.5" stroke="#000" stroke-width="1.3" stroke-opacity="0.8" fill="none" stroke-linecap="round" stroke-linejoin="round"/>
<path d="M 499.9 972.8 L 479.5 1005.5 L 458.7 1038.8" stroke="#000" stroke-width="1.3" stroke-opacity="0.8" fill="none" stroke-linecap="round" stroke-linejoin="round"/>
<path d="M 352.3 977.5 L 325.2 962.4 L 320.2 958.8 L 318.3 955.6" stroke="#000" stroke-width="1.3" stroke-opacity="0.8" fill="none" stroke-linecap="round" stroke-linejoin="round"/>
<path d="M 303.2 818.8 L 374.1 863.1 L 378.6 865.9 L 415.0 886.1 L 418.1 887.8 L 453.3 914.2" stroke="#000" stroke-width="1.3" stroke-opacity="0.8" fill="none" stroke-linecap="round" stroke-linejoin="round"/>
<path d="M 514.4 1151.0 L 478.0 1144.7 L 456.2 1142.9 L 445.6 1144.9 L 434.0 1151.2" stroke="#000" stroke-width="1.3" stroke-opacity="0.8" fill="none" stroke-linecap="round" stroke-linejoin="round"/>
<path d="M 551.4 890.0 L 572.1 878.7 L 572.3 875.7 L 565.2 862.2 L 550.6 860.8 L 537.5 861.9" stroke="#000" stroke-width="1.3" stroke-opacity="0.8" fill="none" stroke-linecap="round" stroke-linejoin="round"/>
<path d="M 627.2 764.7 L 606.3 749.6 L 573.4 729.2 L 532.6 704.0 L 494.6 680.5 L 463.4 661.2 L 420.2 634.4" stroke="#000" stroke-width="1.3" stroke-opacity="0.8" fill="none" stroke-linecap="round" stroke-linejoin="round"/>
<path d="M 439.5 1267.3 L 435.8 1263.0 L 435.1 1252.8 L 433.2 1226.2 L 430.6 1190.0 L 431.0 1186.0 L 431.3 1182.3 L 434.0 1151.2" stroke="#000" stroke-width="1.3" stroke-opacity="0.8" fill="none" stroke-linecap="round" stroke-linejoin="round"/>
<path d="M 629.0 704.0 L 625.6 709.9 L 606.3 749.6 L 574.2 791.5 L 559.6 817.6 L 548.2 836.0" stroke="#000" stroke-width="1.3" stroke-opacity="0.8" fill="none" stroke-linecap="round" stroke-linejoin="round"/>
<path d="M 529.6 845.8 L 537.5 861.9 L 540.1 867.2 L 549.4 885.9 L 551.4 890.0 L 555.1 897.4 L 571.8 933.8 L 575.0 942.6 L 579.6 972.8 L 579.3 976.2 L 571.9 1061.4" stroke="#000" stroke-width="1.3" stroke-opacity="0.8" fill="none" stroke-linecap="round" stroke-linejoin="round"/>
<path d="M 287.1 1202.7 L 294.6 1201.8 L 339.5 1196.1 L 370.5 1190.0 L 396.8 1188.4 L 420.4 1186.4 L 431.0 1186.0" stroke="#000" stroke-width="1.3" stroke-opacity="0.8" fill="none" stroke-linecap="round" stroke-linejoin="round"/>
<path d="M 534.5 1277.4 L 439.5 1267.3" stroke="#000" stroke-width="1.3" stroke-opacity="0.8" fill="none" stroke-linecap="round" stroke-linejoin="round"/>
<path d="M 1109.9 769.6 L 1143.2 879.3 L 1172.2 968.8 L 1187.7 1015.4 L 1202.0 1077.0 L 1185.4 1169.7 L 1168.4 1260.9 L 1156.8 1328.8" stroke="#000" stroke-width="1.3" stroke-opacity="0.8" fill="none" stroke-linecap="round" stroke-linejoin="round"/>
<path d="M 1099.6 1331.5 L 1098.9 1323.3 L 1100.5 1307.2 L 1111.4 1286.3 L 1125.2 1265.2 L 1134.0 1251.2 L 1136.3 1236.2 L 1133.4 1216.3 L 1099.1 1067.3 L 1080.1 981.9 L 1079.4 978.7 L 1061.7 897.1" stroke="#000" stroke-width="1.3" stroke-opacity="0.8" fill="none" stroke-linecap="round" stroke-linejoin="round"/>
<path d="M 877.3 699.4 L 927.8 694.0 L 931.8 701.0" stroke="#000" stroke-width="1.3" stroke-opacity="0.8" fill="none" stroke-linecap="round" stroke-linejoin="round"/>
<path d="M 858.2 491.8 L 860.6 491.9 L 876.0 492.2 L 884.8 496.1 L 891.2 505.6 L 900.6 525.2 L 913.3 546.6 L 983.7 604.4 L 1003.8 620.6 L 1033.5 647.8 L 1051.6 661.7 L 1072.4 680.3 L 1146.5 751.4 L 1149.1 755.8 L 1181.4 809.1 L 1201.4 852.0 L 1208.8 871.4" stroke="#000" stroke-width="1.3" stroke-opacity="0.8" fill="none" stroke-linecap="round" stroke-linejoin="round"/>
<path d="M 989.1 868.1 L 975.8 871.9 L 964.7 874.1 L 956.0 875.6 L 943.3 878.8" stroke="#000" stroke-width="1.3" stroke-opacity="0.8" fill="none" stroke-linecap="round" stroke-linejoin="round"/>
<path d="M 1137.0 1176.7 L 1131.6 1141.2 L 1150.3 1137.3 L 1146.8 1112.0 L 1144.7 1054.3 L 1122.9 975.6" stroke="#000" stroke-width="1.3" stroke-opacity="0.8" fill="none" stroke-linecap="round" stroke-linejoin="round"/>
<path d="M 976.0 662.8 L 981.3 690.6 L 989.1 742.3 L 997.5 797.5" stroke="#000" stroke-width="1.3" stroke-opacity="0.8" fill="none" stroke-linecap="round" stroke-linejoin="round"/>
<path d="M 816.9 503.9 L 877.3 699.4 L 891.3 746.2 L 900.4 776.7 L 910.6 810.8" stroke="#000" stroke-width="1.3" stroke-opacity="0.8" fill="none" stroke-linecap="round" stroke-linejoin="round"/>
<path d="M 1089.4 979.9 L 1096.6 978.3 L 1122.9 975.6 L 1172.2 968.8 L 1221.5 957.2" stroke="#000" stroke-width="1.3" stroke-opacity="0.8" fill="none" stroke-linecap="round" stroke-linejoin="round"/>
<path d="M 1003.6 904.7 L 1059.7 897.4 L 1061.7 897.1 L 1065.2 896.5" stroke="#000" stroke-width="1.3" stroke-opacity="0.8" fill="none" stroke-linecap="round" stroke-linejoin="round"/>
<path d="M 1003.6 904.7 L 1002.0 901.4 L 990.3 871.6 L 989.1 868.1 L 965.7 802.4" stroke="#000" stroke-width="1.3" stroke-opacity="0.8" fill="none" stroke-linecap="round" stroke-linejoin="round"/>
<path d="M 910.0 868.7 L 903.6 847.4 L 894.3 815.8" stroke="#000" stroke-width="0.7" stroke-opacity="0.55" fill="none" stroke-linecap="round" stroke-linejoin="round"/>
<path d="M 1040.3 790.0 L 1037.3 791.4 L 1031.4 792.3 L 997.5 797.5 L 965.7 802.4 L 910.6 810.8 L 907.6 811.8 L 894.3 815.8 L 881.5 820.0 L 875.3 822.0" stroke="#000" stroke-width="1.3" stroke-opacity="0.8" fill="none" stroke-linecap="round" stroke-linejoin="round"/>
<path d="M 1652.9 729.8 L 1601.6 851.3" stroke="#000" stroke-width="1.3" stroke-opacity="0.8" fill="none" stroke-linecap="round" stroke-linejoin="round"/>
<path d="M 1739.9 830.8 L 1710.6 798.0 L 1683.7 765.6 L 1652.9 729.8 L 1630.9 704.4" stroke="#000" stroke-width="1.3" stroke-opacity="0.8" fill="none" stroke-linecap="round" stroke-linejoin="round"/>
<path d="M 1588.4 831.3 L 1601.6 851.3 L 1622.3 882.8 L 1651.5 927.1 L 1677.9 967.1" stroke="#000" stroke-width="1.3" stroke-opacity="0.8" fill="none" stroke-linecap="round" stroke-linejoin="round"/>
<path d="M 1402.9 275.9 L 1406.6 266.6 L 1443.1 179.8 L 1481.6 100.3 L 1559.1 -74.6" stroke="#000" stroke-width="1.3" stroke-opacity="0.8" fill="none" stroke-linecap="round" stroke-linejoin="round"/>
<path d="M 278.6 718.6 L 285.8 705.2 L 293.7 688.4 L 361.7 728.0 L 332.0 775.4 L 303.4 747.6 L 278.6 718.6" stroke="#000" stroke-width="1" stroke-opacity="0.2" fill="#000" fill-opacity="0.05" stroke-linecap="round" stroke-linejoin="round"/>
<path d="M 466.9 57.1 L 446.9 72.1 L 456.6 99.8 L 444.1 105.5 L 455.0 120.0 L 453.0 122.7 L 458.1 129.5 L 455.7 139.6 L 511.0 169.0 L 505.0 147.4 L 516.4 144.1 L 509.7 123.1 L 532.8 92.7 L 472.5 29.6 L 456.2 46.4 L 466.9 57.1" stroke="#000" stroke-width="1" stroke-opacity="0.2" fill="#000" fill-opacity="0.05" stroke-linecap="round" stroke-linejoin="round"/>
<path d="M 1048.6 171.0 L 1103.8 203.3 L 1126.0 208.3 L 1139.7 209.7 L 1199.9 215.4 L 1254.0 220.5 L 1311.0 229.1 L 1330.4 235.8 L 1349.9 245.5 L 1402.9 275.9 L 1430.7 292.9 L 1470.6 316.3 L 1624.9 394.3 L 1676.1 419.2 L 1711.9 436.6 L 1743.7 452.2 L 1745.5 453.0 L 1774.2 467.0 L 1778.0 468.8 L 1808.6 485.3 L 1828.5 497.9 L 1844.8 510.1 L 1876.9 536.4 L 1911.3 597.2 L 1916.8 608.1 L 1921.9 618.3 L 1932.6 639.5 L 1937.5 649.2 L 1947.0 668.4 L 1952.3 679.3 L 1959.9 689.7 L 1970.1 703.8 L 1974.7 707.3 L 1980.5 710.4 L 1990.1 714.9 L 1998.8 719.0 L 2030.4 725.9" stroke="#000" stroke-width="2.4" stroke-opacity="0.95" fill="none" stroke-linecap="round" stroke-linejoin="round"/>
<path d="M 652.4 -296.7 L 650.0 -287.4 L 726.2 -160.3 L 728.7 -156.1 L 739.9 -136.8 L 744.3 -129.2 L 756.0 -107.3 L 761.6 -96.8 L 792.9 -49.0 L 806.8 -27.8 L 821.0 -12.6 L 851.0 19.1 L 903.6 61.3 L 932.1 82.0 L 990.6 125.8 L 1048.6 171.0" stroke="#000" stroke-width="2.4" stroke-opacity="0.95" fill="none" stroke-linecap="round" stroke-linejoin="round"/>
<path d="M 1048.6 171.0 L 1034.0 193.7 L 1026.5 205.1 L 1006.5 235.5 L 986.4 270.2 L 966.1 306.7 L 950.4 327.0 L 934.6 344.1 L 911.7 363.5 L 889.9 384.2 L 848.4 426.6 L 843.3 431.2" stroke="#000" stroke-width="2.4" stroke-opacity="0.95" fill="none" stroke-linecap="round" stroke-linejoin="round"/>
<path d="M 1055.7 159.6 L 993.7 117.3 L 937.4 77.0 L 913.0 59.7 L 907.8 55.6 L 889.8 41.2 L 857.2 15.5 L 821.0 -26.4 L 792.7 -66.8 L 790.3 -70.2 L 774.2 -97.1 L 765.5 -111.7 L 746.1 -144.1 L 676.6 -256.1 L 660.0 -286.9 L 652.4 -296.7" stroke="#000" stroke-width="2.4" stroke-opacity="0.95" fill="none" stroke-linecap="round" stroke-linejoin="round"/>
<path d="M 926.9 997.6 L 918.2 1000.3" stroke="#000" stroke-width="0.7" stroke-opacity="0.55" fill="none" stroke-linecap="round" stroke-linejoin="round"/>
<path d="M 531.5 577.6 L 474.5 547.5 L 431.1 617.0 L 463.4 661.2 L 494.6 680.5 L 524.0 627.6 L 552.0 588.4 L 531.5 577.6" stroke="#000" stroke-width="1" stroke-opacity="0.2" fill="#000" fill-opacity="0.05" stroke-linecap="round" stroke-linejoin="round"/>
<path d="M 394.3 432.6 L 345.1 497.4 L 340.9 501.6 L 321.1 529.6 L 299.4 562.9" stroke="#000" stroke-width="0.5" stroke-opacity="0.35" fill="none" stroke-linecap="round" stroke-linejoin="round"/>
<path d="M 288.5 448.9 L 264.4 488.6" stroke="#000" stroke-width="0.5" stroke-opacity="0.35" fill="none" stroke-linecap="round" stroke-linejoin="round"/>
<path d="M 549.0 1194.3 L 569.2 1188.4 L 573.8 1189.9 L 576.6 1193.0 L 578.8 1198.6 L 582.1 1205.0 L 599.3 1211.9 L 611.5 1240.1 L 620.6 1240.9 L 653.0 1247.4 L 657.2 1253.5 L 656.9 1260.0 L 651.9 1266.4 L 650.4 1276.7 L 656.5 1290.5 L 668.3 1298.1 L 675.2 1297.3 L 687.8 1293.1 L 697.3 1281.7 L 703.4 1272.2 L 709.5 1260.0 L 711.4 1251.6 L 716.4 1243.2 L 724.4 1242.8 L 737.0 1247.7 L 748.0 1252.3 L 758.7 1266.4 L 765.2 1271.8 L 774.0 1288.6 L 779.3 1301.9 L 782.7 1307.6 L 795.3 1321.8 L 802.2 1322.9 L 806.4 1319.8 L 805.2 1308.8 L 800.3 1290.1 L 796.1 1279.4 L 803.7 1273.3" stroke="#000" stroke-width="0.5" stroke-opacity="0.35" fill="none" stroke-linecap="round" stroke-linejoin="round"/>
<path d="M 561.4 1321.9 L 570.7 1318.7 L 573.7 1317.6 L 583.6 1321.8 L 593.2 1326.3 L 621.0 1336.2 L 642.7 1340.8 L 653.0 1331.7 L 666.8 1315.7 L 678.6 1301.1 L 687.8 1293.1" stroke="#000" stroke-width="0.5" stroke-opacity="0.35" fill="none" stroke-linecap="round" stroke-linejoin="round"/>
<path d="M 978.7 1256.4 L 929.2 1268.7 L 922.0 1276.7 L 892.4 1293.7 L 845.7 1320.6 L 835.7 1324.8" stroke="#000" stroke-width="0.7" stroke-opacity="0.55" fill="none" stroke-linecap="round" stroke-linejoin="round"/>
<path d="M 892.4 1293.7 L 876.8 1274.0 L 872.4 1267.2 L 859.8 1247.7 L 803.7 1273.3" stroke="#000" stroke-width="0.7" stroke-opacity="0.55" fill="none" stroke-linecap="round" stroke-linejoin="round"/>
<path d="M 960.6 1179.7 L 887.6 1203.9" stroke="#000" stroke-width="0.7" stroke-opacity="0.55" fill="none" stroke-linecap="round" stroke-linejoin="round"/>
<path d="M 982.0 1125.6 L 989.1 1124.5 L 983.4 1093.3" stroke="#000" stroke-width="0.7" stroke-opacity="0.55" fill="none" stroke-linecap="round" stroke-linejoin="round"/>
<path d="M 987.7 1255.6 L 993.3 1244.4 L 1000.2 1232.1 L 994.3 1211.2 L 983.6 1205.2 L 975.4 1199.4" stroke="#000" stroke-width="0.7" stroke-opacity="0.55" fill="none" stroke-linecap="round" stroke-linejoin="round"/>
<path d="M 978.7 1256.4 L 987.7 1255.6" stroke="#000" stroke-width="0.7" stroke-opacity="0.55" fill="none" stroke-linecap="round" stroke-linejoin="round"/>
<path d="M 960.6 1179.7 L 970.3 1178.0" stroke="#000" stroke-width="0.7" stroke-opacity="0.55" fill="none" stroke-linecap="round" stroke-linejoin="round"/>
<path d="M 981.0 1266.2 L 963.3 1271.4 L 949.9 1286.1 L 948.4 1296.2 L 953.4 1309.1 L 955.8 1321.8 L 953.2 1327.5 L 947.3 1335.2 L 937.8 1340.0 L 928.9 1345.0 L 927.5 1356.2 L 935.9 1377.5" stroke="#000" stroke-width="0.5" stroke-opacity="0.35" fill="none" stroke-linecap="round" stroke-linejoin="round"/>
<path d="M 799.6 1034.8 L 845.2 1041.4 L 858.0 1079.3 L 864.1 1094.8 L 868.5 1107.5 L 877.5 1124.8" stroke="#000" stroke-width="0.7" stroke-opacity="0.55" fill="none" stroke-linecap="round" stroke-linejoin="round"/>
<path d="M 918.2 1000.3 L 875.2 1025.6" stroke="#000" stroke-width="0.7" stroke-opacity="0.55" fill="none" stroke-linecap="round" stroke-linejoin="round"/>
<path d="M 866.8 825.9 L 847.1 829.3 L 836.8 831.0" stroke="#000" stroke-width="0.7" stroke-opacity="0.55" fill="none" stroke-linecap="round" stroke-linejoin="round"/>
<path d="M 871.1 839.9 L 880.0 837.3" stroke="#000" stroke-width="0.9" stroke-opacity="0.6" fill="none" stroke-linecap="round" stroke-linejoin="round"/>
<path d="M 856.7 792.2 L 865.2 789.6" stroke="#000" stroke-width="0.9" stroke-opacity="0.6" fill="none" stroke-linecap="round" stroke-linejoin="round"/>
<path d="M 837.1 698.3 L 829.4 701.4 L 805.5 724.3 L 800.9 730.9 L 800.9 739.9 L 809.2 765.8 L 819.5 801.3 L 820.2 807.4 L 821.7 820.3 L 819.3 876.4 L 811.6 910.1 L 803.1 963.4 L 802.3 973.1" stroke="#000" stroke-width="1.3" stroke-opacity="0.8" fill="none" stroke-linecap="round" stroke-linejoin="round"/>
<path d="M 802.3 973.1 L 784.7 980.0 L 770.4 983.5 L 720.3 981.3" stroke="#000" stroke-width="1.3" stroke-opacity="0.8" fill="none" stroke-linecap="round" stroke-linejoin="round"/>
<path d="M 848.4 426.6 L 859.4 440.8 L 871.2 456.1 L 878.6 462.7 L 886.5 467.2 L 898.4 467.4 L 914.7 464.3 L 934.0 453.2" stroke="#000" stroke-width="1.3" stroke-opacity="0.8" fill="none" stroke-linecap="round" stroke-linejoin="round"/>
<path d="M 1084.0 774.8 L 1077.3 768.6 L 1036.7 731.2" stroke="#000" stroke-width="1.3" stroke-opacity="0.8" fill="none" stroke-linecap="round" stroke-linejoin="round"/>
<path d="M 1050.5 785.2 L 1063.3 834.8 L 1067.5 847.7 L 1068.3 871.7 L 1072.0 883.3 L 1077.0 894.7 L 1096.6 978.3" stroke="#000" stroke-width="1.3" stroke-opacity="0.8" fill="none" stroke-linecap="round" stroke-linejoin="round"/>
<path d="M 761.2 1435.1 L 763.4 1427.7 L 764.0 1417.2 L 761.3 1405.2 L 764.0 1402.0 L 774.1 1396.6 L 781.0 1393.6 L 783.8 1390.9 L 789.9 1392.8 L 796.8 1392.3 L 805.2 1392.3 L 814.7 1390.9" stroke="#000" stroke-width="1.3" stroke-opacity="0.8" fill="none" stroke-linecap="round" stroke-linejoin="round"/>
<path d="M 781.0 1393.6 L 782.9 1396.8 L 787.5 1401.2 L 791.5 1402.0 L 794.5 1398.9 L 798.1 1398.2 L 803.3 1396.5 L 814.7 1390.9" stroke="#000" stroke-width="1.3" stroke-opacity="0.8" fill="none" stroke-linecap="round" stroke-linejoin="round"/>
<path d="M 774.1 1396.6 L 774.9 1392.3 L 777.3 1386.7 L 787.5 1382.2 L 789.6 1378.7 L 798.7 1374.5 L 810.9 1371.1 L 812.4 1370.9" stroke="#000" stroke-width="1.3" stroke-opacity="0.8" fill="none" stroke-linecap="round" stroke-linejoin="round"/>
<path d="M 640.4 191.4 L 644.3 179.4 L 644.8 167.6 L 647.2 162.4 L 654.7 159.1 L 673.2 153.4 L 688.4 148.3" stroke="#000" stroke-width="0.7" stroke-opacity="0.55" fill="none" stroke-linecap="round" stroke-linejoin="round"/>
<path d="M 692.3 355.4 L 699.6 352.9" stroke="#000" stroke-width="0.9" stroke-opacity="0.6" fill="none" stroke-linecap="round" stroke-linejoin="round"/>
<path d="M 623.7 626.1 L 648.2 638.2 L 670.7 649.4 L 693.7 658.7 L 816.1 687.1 L 824.7 685.7 L 832.7 683.8" stroke="#000" stroke-width="1.3" stroke-opacity="0.8" fill="none" stroke-linecap="round" stroke-linejoin="round"/>
<path d="M 571.9 1061.4 L 548.3 1055.4" stroke="#000" stroke-width="1.3" stroke-opacity="0.8" fill="none" stroke-linecap="round" stroke-linejoin="round"/>
<path d="M 556.5 979.6 L 579.3 976.2" stroke="#000" stroke-width="1.3" stroke-opacity="0.8" fill="none" stroke-linecap="round" stroke-linejoin="round"/>
<path d="M 1445.1 727.3 L 1442.0 725.8 L 1438.6 725.3 L 1434.9 726.0 L 1431.7 727.9 L 1429.4 730.8 L 1428.1 734.3 L 1428.1 738.0 L 1428.9 741.3 L 1431.7 744.4 L 1434.9 746.3 L 1438.6 747.0 L 1442.0 746.5 L 1445.1 745.0 L 1447.6 742.6 L 1449.1 739.6 L 1449.7 736.1" stroke="#000" stroke-width="0.7" stroke-opacity="0.55" fill="none" stroke-linecap="round" stroke-linejoin="round"/>
<path d="M 1428.9 741.3 L 1366.1 781.9" stroke="#000" stroke-width="0.7" stroke-opacity="0.55" fill="none" stroke-linecap="round" stroke-linejoin="round"/>
<path d="M 843.3 431.2 L 837.9 435.9" stroke="#000" stroke-width="2.4" stroke-opacity="0.95" fill="none" stroke-linecap="round" stroke-linejoin="round"/>
<path d="M 853.1 491.7 L 858.2 491.8" stroke="#000" stroke-width="1.3" stroke-opacity="0.8" fill="none" stroke-linecap="round" stroke-linejoin="round"/>
<path d="M 1047.1 786.8 L 1040.3 790.0" stroke="#000" stroke-width="1.3" stroke-opacity="0.8" fill="none" stroke-linecap="round" stroke-linejoin="round"/>
<path d="M 1149.1 755.8 L 1109.9 769.6 L 1084.0 774.8 L 1052.6 784.2 L 1050.5 785.2 L 1047.1 786.8" stroke="#000" stroke-width="1.3" stroke-opacity="0.8" fill="none" stroke-linecap="round" stroke-linejoin="round"/>
<path d="M 1065.2 896.5 L 1072.9 895.3" stroke="#000" stroke-width="1.3" stroke-opacity="0.8" fill="none" stroke-linecap="round" stroke-linejoin="round"/>
<path d="M 993.7 117.3 L 1025.2 69.1" stroke="#000" stroke-width="1.3" stroke-opacity="0.8" fill="none" stroke-linecap="round" stroke-linejoin="round"/>
<path d="M 1055.8 90.2 L 1025.2 69.1 L 979.4 37.5 L 927.5 2.8 L 907.2 -11.5" stroke="#000" stroke-width="1.3" stroke-opacity="0.8" fill="none" stroke-linecap="round" stroke-linejoin="round"/>
<path d="M 541.3 867.0 L 549.5 863.5 L 560.0 865.7 L 566.4 875.0 L 566.1 877.5 L 555.6 884.1 L 552.0 886.1 L 549.6 884.7 L 541.3 867.0" stroke="#000" stroke-width="1" stroke-opacity="0.2" fill="#000" fill-opacity="0.05" stroke-linecap="round" stroke-linejoin="round"/>
<path d="M 790.4 390.7 L 813.2 383.2 L 825.5 424.6 L 804.0 432.8 L 790.4 390.7" stroke="#000" stroke-width="1" stroke-opacity="0.2" fill="#000" fill-opacity="0.05" stroke-linecap="round" stroke-linejoin="round"/>
<path d="M 1263.8 170.3 L 1173.8 114.2 L 1123.2 195.1 L 1129.8 197.1 L 1220.3 205.4 L 1300.3 215.4 L 1334.8 225.7 L 1339.0 217.4 L 1324.1 206.4 L 1263.8 170.3" stroke="#000" stroke-width="1" stroke-opacity="0.2" fill="#000" fill-opacity="0.05" stroke-linecap="round" stroke-linejoin="round"/>
<path d="M 437.5 283.9 L 453.2 246.2 L 467.0 249.3 L 477.3 216.5" stroke="#000" stroke-width="1.3" stroke-opacity="0.8" fill="none" stroke-linecap="round" stroke-linejoin="round"/>
<path d="M 483.4 227.4 L 505.9 239.2" stroke="#000" stroke-width="1.3" stroke-opacity="0.8" fill="none" stroke-linecap="round" stroke-linejoin="round"/>
<path d="M 379.6 203.3 L 454.1 214.3" stroke="#000" stroke-width="0.5" stroke-opacity="0.35" fill="none" stroke-linecap="round" stroke-linejoin="round"/>
<path d="M 228.8 265.9 L 249.9 275.6 L 280.5 291.8 L 300.3 304.0 L 334.6 325.2 L 418.2 342.3" stroke="#000" stroke-width="1.3" stroke-opacity="0.8" fill="none" stroke-linecap="round" stroke-linejoin="round"/>
<path d="M 1034.0 193.7 L 1039.9 200.4" stroke="#000" stroke-width="0.7" stroke-opacity="0.55" fill="none" stroke-linecap="round" stroke-linejoin="round"/>
<path d="M 1060.0 212.2 L 1066.6 215.0 L 1081.3 222.8 L 1100.5 234.6 L 1148.5 265.5 L 1152.3 266.9 L 1157.4 267.8 L 1162.0 268.2 L 1167.4 267.6 L 1172.7 266.0 L 1201.4 251.6 L 1206.9 249.5 L 1213.0 248.2 L 1218.1 247.5 L 1229.1 247.7 L 1244.0 250.0 L 1321.9 267.0 L 1337.1 270.0 L 1347.1 272.9 L 1357.5 276.8 L 1370.7 284.2 L 1392.1 297.7 L 1441.0 323.8 L 1517.5 365.1 L 1610.9 414.4 L 1615.7 417.8 L 1619.3 421.0 L 1622.9 424.6 L 1626.0 430.0 L 1627.1 436.9 L 1626.9 442.8 L 1625.2 449.8 L 1620.8 458.4 L 1611.5 476.7 L 1605.3 487.6 L 1602.4 494.1 L 1599.8 502.4 L 1596.7 512.7 L 1591.2 543.3 L 1554.6 738.3 L 1544.1 795.9 L 1543.4 803.6 L 1543.4 808.3 L 1543.8 813.7 L 1544.6 818.7 L 1546.2 823.5 L 1549.1 830.1 L 1589.9 893.0 L 1684.7 1041.0 L 1720.6 1099.0 L 1796.2 1219.2 L 1827.5 1267.1 L 1832.3 1273.9 L 1835.4 1279.8 L 1836.5 1285.2 L 1836.3 1288.9 L 1834.8 1293.5 L 1831.5 1297.3 L 1798.6 1317.7 L 1793.4 1322.1 L 1791.3 1325.9 L 1790.0 1329.3 L 1790.0 1333.3 L 1790.7 1338.3 L 1791.9 1344.1 L 1811.2 1419.4 L 1863.5 1617.7 L 1885.8 1693.7 L 1958.3 1993.0 L 1995.6 2131.7 L 2018.5 2236.8 L 2053.4 2377.4 L 2096.4 2549.4 L 2116.3 2628.6 L 2151.6 2778.7 L 2163.0 2824.7 L 2257.8 3204.6 L 2369.5 3667.4 L 2415.1 3853.2 L 2419.3 3868.0 L 2421.5 3876.0 L 2423.3 3882.0 L 2423.8 3885.2 L 2423.7 3888.8 L 2422.2 3892.6 L 2418.9 3896.1 L 2414.6 3898.5 L 2408.4 3900.9 L 2241.9 3941.3 L 2165.5 3959.3 L 2077.1 3983.2 L 2050.6 3990.2 L 2040.9 3991.8 L 2034.2 3991.8" stroke="#000" stroke-width="0.7" stroke-opacity="0.55" fill="none" stroke-linecap="round" stroke-linejoin="round"/>
<path d="M 991.3 324.7 L 1004.4 343.2 L 1005.1 345.7 L 1005.7 348.2 L 1006.1 352.9 L 1006.1 358.5" stroke="#000" stroke-width="0.7" stroke-opacity="0.55" fill="none" stroke-linecap="round" stroke-linejoin="round"/>
<path d="M 1402.9 275.9 L 1394.2 292.1" stroke="#000" stroke-width="0.7" stroke-opacity="0.55" fill="none" stroke-linecap="round" stroke-linejoin="round"/>
<path d="M 1394.2 292.1 L 1392.1 297.7 L 1385.0 310.6 L 1382.0 315.0 L 1379.5 318.4 L 1283.8 403.1 L 1279.5 407.2 L 1283.0 412.0 L 1289.1 422.3 L 1294.8 432.3 L 1304.3 446.3" stroke="#000" stroke-width="0.7" stroke-opacity="0.55" fill="none" stroke-linecap="round" stroke-linejoin="round"/>
<path d="M 1248.8 2155.6 L 1238.0 2108.5 L 1199.0 1940.9 L 1180.6 1860.5 L 1143.8 1717.6 L 1128.2 1646.7 L 1126.8 1639.3 L 1126.9 1632.4 L 1128.5 1618.3 L 1140.0 1566.3 L 1150.9 1518.2 L 1162.5 1456.5 L 1180.1 1359.8 L 1197.3 1264.6 L 1216.1 1168.7 L 1243.1 1027.8 L 1267.6 878.9 L 1268.2 872.8 L 1268.0 870.5 L 1267.2 868.1 L 1266.2 865.3 L 1109.9 613.4 L 996.6 437.6 L 977.3 405.1 L 968.2 386.5 L 967.6 383.4 L 967.5 379.8 L 967.7 374.9 L 970.6 363.8 L 980.0 343.4 L 991.3 324.7 L 1009.6 294.7 L 1035.7 251.5 L 1060.0 212.2" stroke="#000" stroke-width="0.7" stroke-opacity="0.55" fill="none" stroke-linecap="round" stroke-linejoin="round"/>
<path d="M 1039.9 200.4 L 1060.0 212.2" stroke="#000" stroke-width="0.7" stroke-opacity="0.55" fill="none" stroke-linecap="round" stroke-linejoin="round"/>
<path d="M 1208.2 330.1 L 1270.1 396.9 L 1279.5 407.2" stroke="#000" stroke-width="0.7" stroke-opacity="0.55" fill="none" stroke-linecap="round" stroke-linejoin="round"/>
<path d="M 1101.9 1370.7 L 1134.4 1370.3" stroke="#000" stroke-width="1.3" stroke-opacity="0.8" fill="none" stroke-linecap="round" stroke-linejoin="round"/>
<path d="M 1199.9 215.4 L 1201.2 203.5" stroke="#000" stroke-width="0.9" stroke-opacity="0.6" fill="none" stroke-linecap="round" stroke-linejoin="round"/>
<path d="M 958.2 1130.3 L 964.7 1129.3 L 979.2 1126.1 L 982.0 1125.6" stroke="#000" stroke-width="0.7" stroke-opacity="0.55" fill="none" stroke-linecap="round" stroke-linejoin="round"/>
<path d="M 983.4 1093.3 L 974.6 1094.4 L 982.0 1125.6" stroke="#000" stroke-width="0.7" stroke-opacity="0.55" fill="none" stroke-linecap="round" stroke-linejoin="round"/>
<path d="M 911.7 363.5 L 894.2 345.0 L 913.0 320.8" stroke="#000" stroke-width="0.7" stroke-opacity="0.55" fill="none" stroke-linecap="round" stroke-linejoin="round"/>
<path d="M 892.7 231.4 L 902.6 246.8" stroke="#000" stroke-width="0.7" stroke-opacity="0.55" fill="none" stroke-linecap="round" stroke-linejoin="round"/>
<path d="M 833.5 143.1 L 847.3 160.2 L 871.5 191.1 L 892.7 231.4" stroke="#000" stroke-width="0.7" stroke-opacity="0.55" fill="none" stroke-linecap="round" stroke-linejoin="round"/>
<path d="M 791.8 296.2 L 798.0 293.9 L 839.5 278.7 L 860.3 260.5 L 892.7 231.4" stroke="#000" stroke-width="0.7" stroke-opacity="0.55" fill="none" stroke-linecap="round" stroke-linejoin="round"/>
<path d="M 839.5 278.7 L 849.8 290.8 L 875.6 268.9 L 902.6 246.8" stroke="#000" stroke-width="0.7" stroke-opacity="0.55" fill="none" stroke-linecap="round" stroke-linejoin="round"/>
<path d="M 902.6 246.8 L 937.6 297.1 L 913.0 320.8" stroke="#000" stroke-width="0.7" stroke-opacity="0.55" fill="none" stroke-linecap="round" stroke-linejoin="round"/>
<path d="M 875.6 268.9 L 913.0 320.8 L 934.6 344.1" stroke="#000" stroke-width="0.7" stroke-opacity="0.55" fill="none" stroke-linecap="round" stroke-linejoin="round"/>
<path d="M 574.6 263.4 L 613.4 301.7" stroke="#000" stroke-width="0.7" stroke-opacity="0.55" fill="none" stroke-linecap="round" stroke-linejoin="round"/>
<path d="M 596.1 330.2 L 613.4 301.7 L 668.7 273.8" stroke="#000" stroke-width="0.7" stroke-opacity="0.55" fill="none" stroke-linecap="round" stroke-linejoin="round"/>
<path d="M 799.6 1034.8 L 800.7 1045.3 L 814.3 1094.0 L 829.3 1138.9" stroke="#000" stroke-width="0.7" stroke-opacity="0.55" fill="none" stroke-linecap="round" stroke-linejoin="round"/>
<path d="M 829.3 1138.9 L 838.2 1134.7 L 849.8 1131.0 L 877.5 1124.8 L 944.1 1109.9" stroke="#000" stroke-width="0.7" stroke-opacity="0.55" fill="none" stroke-linecap="round" stroke-linejoin="round"/>
<path d="M 799.0 1153.1 L 773.3 1116.3 L 740.0 1128.6 L 760.7 1171.1" stroke="#000" stroke-width="0.7" stroke-opacity="0.55" fill="none" stroke-linecap="round" stroke-linejoin="round"/>
<path d="M 743.1 1179.4 L 760.7 1171.1 L 799.0 1153.1 L 829.3 1138.9" stroke="#000" stroke-width="0.7" stroke-opacity="0.55" fill="none" stroke-linecap="round" stroke-linejoin="round"/>
<path d="M 803.7 1273.3 L 798.5 1254.1 L 821.5 1216.9 L 823.3 1160.5" stroke="#000" stroke-width="0.7" stroke-opacity="0.55" fill="none" stroke-linecap="round" stroke-linejoin="round"/>
<path d="M 1081.1 1101.4 L 1039.9 1111.9 L 1052.4 1166.0" stroke="#000" stroke-width="0.7" stroke-opacity="0.55" fill="none" stroke-linecap="round" stroke-linejoin="round"/>
<path d="M 1092.8 1158.5 L 1052.4 1166.0 L 1068.6 1216.9" stroke="#000" stroke-width="0.7" stroke-opacity="0.55" fill="none" stroke-linecap="round" stroke-linejoin="round"/>
<path d="M 1081.1 1101.4 L 1092.8 1158.5 L 1103.0 1209.7" stroke="#000" stroke-width="0.7" stroke-opacity="0.55" fill="none" stroke-linecap="round" stroke-linejoin="round"/>
<path d="M 1103.0 1209.7 L 1068.6 1216.9 L 1007.8 1230.1 L 1000.2 1232.1" stroke="#000" stroke-width="0.7" stroke-opacity="0.55" fill="none" stroke-linecap="round" stroke-linejoin="round"/>
<path d="M 436.5 942.8 L 417.9 970.6 L 417.8 976.4" stroke="#000" stroke-width="1.3" stroke-opacity="0.8" fill="none" stroke-linecap="round" stroke-linejoin="round"/>
<path d="M 519.6 1052.3 L 546.9 1062.0" stroke="#000" stroke-width="1.3" stroke-opacity="0.8" fill="none" stroke-linecap="round" stroke-linejoin="round"/>
<path d="M 381.2 611.3 L 407.9 586.2 L 467.9 540.4" stroke="#000" stroke-width="1.3" stroke-opacity="0.8" fill="none" stroke-linecap="round" stroke-linejoin="round"/>
<path d="M 373.0 562.5 L 350.7 593.3" stroke="#000" stroke-width="0.5" stroke-opacity="0.35" fill="none" stroke-linecap="round" stroke-linejoin="round"/>
<path d="M 618.3 787.1 L 604.4 809.7 L 593.4 835.2" stroke="#000" stroke-width="1.3" stroke-opacity="0.8" fill="none" stroke-linecap="round" stroke-linejoin="round"/>
<path d="M 450.2 503.0 L 416.4 532.2 L 382.4 552.4 L 373.0 562.5" stroke="#000" stroke-width="1.3" stroke-opacity="0.8" fill="none" stroke-linecap="round" stroke-linejoin="round"/>
<path d="M 521.1 348.6 L 503.2 338.3 L 488.1 325.9" stroke="#000" stroke-width="1.3" stroke-opacity="0.8" fill="none" stroke-linecap="round" stroke-linejoin="round"/>
<path d="M 513.5 367.7 L 478.7 345.7" stroke="#000" stroke-width="1.3" stroke-opacity="0.8" fill="none" stroke-linecap="round" stroke-linejoin="round"/>
<path d="M 455.4 397.3 L 469.4 407.8 L 511.7 433.4" stroke="#000" stroke-width="1.3" stroke-opacity="0.8" fill="none" stroke-linecap="round" stroke-linejoin="round"/>
<path d="M 558.8 661.6 L 601.4 682.7" stroke="#000" stroke-width="1.3" stroke-opacity="0.8" fill="none" stroke-linecap="round" stroke-linejoin="round"/>
<path d="M 762.5 485.9 L 725.5 498.9 L 710.7 496.8 L 697.0 492.2 L 680.3 493.0" stroke="#000" stroke-width="1.3" stroke-opacity="0.8" fill="none" stroke-linecap="round" stroke-linejoin="round"/>
<path d="M 693.7 658.7 L 705.0 623.2 L 723.4 591.0" stroke="#000" stroke-width="1.3" stroke-opacity="0.8" fill="none" stroke-linecap="round" stroke-linejoin="round"/>
<path d="M 736.6 638.1 L 712.5 627.3 L 705.0 623.2 L 642.5 589.0 L 581.2 556.4 L 521.9 524.8 L 520.7 524.2 L 518.5 522.6 L 480.6 495.5 L 453.2 476.0 L 438.8 475.3" stroke="#000" stroke-width="1.3" stroke-opacity="0.8" fill="none" stroke-linecap="round" stroke-linejoin="round"/>
<path d="M 566.4 380.7 L 554.5 399.9 L 545.0 417.5" stroke="#000" stroke-width="1.3" stroke-opacity="0.8" fill="none" stroke-linecap="round" stroke-linejoin="round"/>
<path d="M 493.7 480.9 L 482.1 471.5 L 487.3 461.9" stroke="#000" stroke-width="0.5" stroke-opacity="0.35" fill="none" stroke-linecap="round" stroke-linejoin="round"/>
<path d="M 511.7 433.4 L 551.1 455.1 L 656.7 510.1" stroke="#000" stroke-width="1.3" stroke-opacity="0.8" fill="none" stroke-linecap="round" stroke-linejoin="round"/>
<path d="M 480.6 495.5 L 493.7 480.9 L 506.2 472.4" stroke="#000" stroke-width="1.3" stroke-opacity="0.8" fill="none" stroke-linecap="round" stroke-linejoin="round"/>
<path d="M 831.6 895.7 L 885.9 889.1" stroke="#000" stroke-width="0.7" stroke-opacity="0.55" fill="none" stroke-linecap="round" stroke-linejoin="round"/>
<path d="M 796.1 139.2 L 788.1 128.0 L 782.3 119.7 L 781.1 118.0 L 770.7 113.5 L 767.9 107.1 L 760.3 89.7 L 756.4 80.6 L 754.6 72.6 L 745.5 40.5 L 742.5 19.2 L 729.7 -28.2 L 725.4 -89.8 L 726.7 -100.9" stroke="#000" stroke-width="1.3" stroke-opacity="0.8" fill="none" stroke-linecap="round" stroke-linejoin="round"/>
<path d="M 1046.8 855.6 L 1031.4 792.3" stroke="#000" stroke-width="1.3" stroke-opacity="0.8" fill="none" stroke-linecap="round" stroke-linejoin="round"/>
<path d="M 1101.8 1380.7 L 1083.2 1392.8 L 1079.4 1408.5" stroke="#000" stroke-width="1.3" stroke-opacity="0.8" fill="none" stroke-linecap="round" stroke-linejoin="round"/>
<path d="M 1099.6 1331.5 L 1085.5 1336.3 L 1070.6 1368.6 L 1066.5 1373.6 L 1050.3 1412.2" stroke="#000" stroke-width="1.3" stroke-opacity="0.8" fill="none" stroke-linecap="round" stroke-linejoin="round"/>
<path d="M 860.6 491.9 L 865.5 511.6 L 890.7 575.4 L 923.2 608.7 L 964.2 642.0 L 976.0 662.8" stroke="#000" stroke-width="1.3" stroke-opacity="0.8" fill="none" stroke-linecap="round" stroke-linejoin="round"/>
<path d="M 1050.5 785.2 L 1036.7 731.2 L 1030.1 713.4" stroke="#000" stroke-width="1.3" stroke-opacity="0.8" fill="none" stroke-linecap="round" stroke-linejoin="round"/>
<path d="M 592.6 1082.3 L 576.8 1130.0" stroke="#000" stroke-width="1.3" stroke-opacity="0.8" fill="none" stroke-linecap="round" stroke-linejoin="round"/>
<path d="M 605.0 1140.2 L 576.8 1130.0 L 528.9 1112.8" stroke="#000" stroke-width="1.3" stroke-opacity="0.8" fill="none" stroke-linecap="round" stroke-linejoin="round"/>
<path d="M 513.7 284.6 L 548.8 314.1 L 565.4 303.6" stroke="#000" stroke-width="0.7" stroke-opacity="0.55" fill="none" stroke-linecap="round" stroke-linejoin="round"/>
<path d="M 528.8 263.2 L 557.6 291.8 L 565.4 303.6" stroke="#000" stroke-width="0.7" stroke-opacity="0.55" fill="none" stroke-linecap="round" stroke-linejoin="round"/>
<path d="M 498.8 164.9 L 485.3 196.3 L 477.3 216.5" stroke="#000" stroke-width="1.3" stroke-opacity="0.8" fill="none" stroke-linecap="round" stroke-linejoin="round"/>
<path d="M 533.7 903.7 L 496.0 914.5" stroke="#000" stroke-width="1.3" stroke-opacity="0.8" fill="none" stroke-linecap="round" stroke-linejoin="round"/>
<path d="M 274.2 599.8 L 323.5 638.6" stroke="#000" stroke-width="1.3" stroke-opacity="0.8" fill="none" stroke-linecap="round" stroke-linejoin="round"/>
<path d="M 279.4 720.7 L 248.6 742.9" stroke="#000" stroke-width="1.3" stroke-opacity="0.8" fill="none" stroke-linecap="round" stroke-linejoin="round"/>
<path d="M 1003.3 1360.5 L 1012.8 1362.4" stroke="#000" stroke-width="0.7" stroke-opacity="0.55" fill="none" stroke-linecap="round" stroke-linejoin="round"/>
<path d="M 961.6 1379.6 L 995.5 1360.1 L 1003.3 1360.5" stroke="#000" stroke-width="0.7" stroke-opacity="0.55" fill="none" stroke-linecap="round" stroke-linejoin="round"/>
<path d="M 953.0 1108.2 L 944.1 1109.9" stroke="#000" stroke-width="0.7" stroke-opacity="0.55" fill="none" stroke-linecap="round" stroke-linejoin="round"/>
<path d="M 635.3 196.3 L 640.4 191.4" stroke="#000" stroke-width="0.7" stroke-opacity="0.55" fill="none" stroke-linecap="round" stroke-linejoin="round"/>
<path d="M 922.0 1276.7 L 890.5 1239.4 L 859.8 1247.7" stroke="#000" stroke-width="0.7" stroke-opacity="0.55" fill="none" stroke-linecap="round" stroke-linejoin="round"/>
<path d="M 872.4 1267.2 L 819.3 1293.3" stroke="#000" stroke-width="0.7" stroke-opacity="0.55" fill="none" stroke-linecap="round" stroke-linejoin="round"/>
<path d="M 819.3 1293.3 L 835.7 1324.8" stroke="#000" stroke-width="0.7" stroke-opacity="0.55" fill="none" stroke-linecap="round" stroke-linejoin="round"/>
<path d="M 467.0 249.3 L 473.7 253.5 L 496.0 258.3" stroke="#000" stroke-width="1.3" stroke-opacity="0.8" fill="none" stroke-linecap="round" stroke-linejoin="round"/>
<path d="M 1007.8 1230.1 L 986.8 1149.6 L 984.5 1141.5 L 996.5 1138.1 L 1004.9 1135.2" stroke="#000" stroke-width="0.7" stroke-opacity="0.55" fill="none" stroke-linecap="round" stroke-linejoin="round"/>
<path d="M 802.3 973.1 L 800.9 990.3 L 799.6 1034.8" stroke="#000" stroke-width="0.5" stroke-opacity="0.35" fill="none" stroke-linecap="round" stroke-linejoin="round"/>
<path d="M 996.5 1138.1 L 998.7 1145.8" stroke="#000" stroke-width="0.7" stroke-opacity="0.55" fill="none" stroke-linecap="round" stroke-linejoin="round"/>
<path d="M 986.8 1149.6 L 998.7 1145.8" stroke="#000" stroke-width="0.7" stroke-opacity="0.55" fill="none" stroke-linecap="round" stroke-linejoin="round"/>
<path d="M 464.4 1108.8 L 468.3 1111.8 L 521.2 1133.0" stroke="#000" stroke-width="1.3" stroke-opacity="0.8" fill="none" stroke-linecap="round" stroke-linejoin="round"/>
<path d="M 431.0 1186.0 L 451.9 1183.0 L 469.2 1182.8 L 502.7 1181.7" stroke="#000" stroke-width="1.3" stroke-opacity="0.8" fill="none" stroke-linecap="round" stroke-linejoin="round"/>
<path d="M 479.6 1068.2 L 469.0 1088.8 L 463.0 1104.8 L 464.4 1108.8" stroke="#000" stroke-width="1.3" stroke-opacity="0.8" fill="none" stroke-linecap="round" stroke-linejoin="round"/>
<path d="M 534.5 1277.4 L 519.4 1316.8 L 505.7 1353.7 L 494.6 1394.9 L 492.7 1409.9 L 487.3 1432.6 L 482.1 1471.1 L 475.6 1510.3 L 475.2 1521.1 L 472.7 1548.3 L 464.9 1587.4 L 463.4 1608.3 L 459.2 1626.9" stroke="#000" stroke-width="1.3" stroke-opacity="0.8" fill="none" stroke-linecap="round" stroke-linejoin="round"/>
<path d="M 1135.0 1355.3 L 1134.4 1370.3 L 1133.3 1407.9" stroke="#000" stroke-width="1.3" stroke-opacity="0.8" fill="none" stroke-linecap="round" stroke-linejoin="round"/>
<path d="M 1101.6 1399.2 L 1101.8 1380.7 L 1101.9 1370.7 L 1100.3 1340.1 L 1099.6 1331.5" stroke="#000" stroke-width="1.3" stroke-opacity="0.8" fill="none" stroke-linecap="round" stroke-linejoin="round"/>
<path d="M 1082.8 981.4 L 1085.9 980.6 L 1089.4 979.9" stroke="#000" stroke-width="1.3" stroke-opacity="0.8" fill="none" stroke-linecap="round" stroke-linejoin="round"/>
<path d="M 1080.1 981.9 L 1082.8 981.4" stroke="#000" stroke-width="1.3" stroke-opacity="0.8" fill="none" stroke-linecap="round" stroke-linejoin="round"/>
<path d="M 1208.8 871.4 L 1212.1 886.4 L 1221.7 937.5 L 1221.5 957.2" stroke="#000" stroke-width="1.3" stroke-opacity="0.8" fill="none" stroke-linecap="round" stroke-linejoin="round"/>
<path d="M 1039.2 970.0 L 1027.2 954.1 L 1003.6 904.7" stroke="#000" stroke-width="1.3" stroke-opacity="0.8" fill="none" stroke-linecap="round" stroke-linejoin="round"/>
<path d="M 390.9 918.6 L 379.2 928.1 L 371.2 947.0 L 352.3 977.5 L 350.1 981.0 L 303.4 1050.4 L 291.6 1065.3 L 284.6 1070.5 L 278.0 1072.6" stroke="#000" stroke-width="1.3" stroke-opacity="0.8" fill="none" stroke-linecap="round" stroke-linejoin="round"/>
<path d="M 438.9 1067.3 L 451.9 1036.9" stroke="#000" stroke-width="1.3" stroke-opacity="0.8" fill="none" stroke-linecap="round" stroke-linejoin="round"/>
<path d="M 390.9 918.6 L 415.0 886.1 L 443.4 839.6 L 476.1 795.5 L 504.6 749.3 L 532.6 704.0 L 558.8 661.6 L 591.2 609.2" stroke="#000" stroke-width="1.3" stroke-opacity="0.8" fill="none" stroke-linecap="round" stroke-linejoin="round"/>
<path d="M 267.4 1050.8 L 302.1 1006.1 L 303.3 1002.8 L 303.6 999.3 L 303.0 994.4" stroke="#000" stroke-width="0.5" stroke-opacity="0.35" fill="none" stroke-linecap="round" stroke-linejoin="round"/>
<path d="M 188.3 693.5 L 248.6 742.9" stroke="#000" stroke-width="1.3" stroke-opacity="0.8" fill="none" stroke-linecap="round" stroke-linejoin="round"/>
<path d="M 299.4 562.9 L 274.2 599.8" stroke="#000" stroke-width="1.3" stroke-opacity="0.8" fill="none" stroke-linecap="round" stroke-linejoin="round"/>
<path d="M 324.3 879.3 L 314.1 897.7" stroke="#000" stroke-width="1.3" stroke-opacity="0.8" fill="none" stroke-linecap="round" stroke-linejoin="round"/>
<path d="M 294.9 686.2 L 361.7 728.0 L 435.6 772.7 L 476.1 795.5 L 514.8 820.8 L 537.0 834.2 L 548.2 836.0" stroke="#000" stroke-width="1.3" stroke-opacity="0.8" fill="none" stroke-linecap="round" stroke-linejoin="round"/>
<path d="M 350.7 593.3 L 323.5 638.6 L 294.9 686.2 L 293.7 688.4 L 277.5 719.0" stroke="#000" stroke-width="1.3" stroke-opacity="0.8" fill="none" stroke-linecap="round" stroke-linejoin="round"/>
<path d="M 629.0 704.0 L 638.2 702.4 L 642.9 678.9 L 643.3 660.3 L 648.2 638.2" stroke="#000" stroke-width="0.5" stroke-opacity="0.35" fill="none" stroke-linecap="round" stroke-linejoin="round"/>
<path d="M 601.4 682.7 L 615.2 693.6 L 629.0 704.0" stroke="#000" stroke-width="1.3" stroke-opacity="0.8" fill="none" stroke-linecap="round" stroke-linejoin="round"/>
<path d="M 1003.6 904.7 L 988.9 906.4 L 976.9 907.0" stroke="#000" stroke-width="1.3" stroke-opacity="0.8" fill="none" stroke-linecap="round" stroke-linejoin="round"/>
<path d="M 891.3 746.2 L 924.3 738.8" stroke="#000" stroke-width="1.3" stroke-opacity="0.8" fill="none" stroke-linecap="round" stroke-linejoin="round"/>
<path d="M 1072.9 895.3 L 1077.0 894.7 L 1143.2 879.3 L 1208.8 871.4" stroke="#000" stroke-width="1.3" stroke-opacity="0.8" fill="none" stroke-linecap="round" stroke-linejoin="round"/>
<path d="M 837.9 435.9 L 835.1 438.8 L 823.7 450.4 L 817.7 459.3 L 812.2 471.5 L 807.9 493.7 L 805.2 502.8" stroke="#000" stroke-width="2.4" stroke-opacity="0.95" fill="none" stroke-linecap="round" stroke-linejoin="round"/>
<path d="M 623.7 626.1 L 616.5 622.5 L 591.2 609.2 L 563.8 594.7 L 552.0 588.4 L 531.5 577.6 L 499.9 560.9" stroke="#000" stroke-width="1.3" stroke-opacity="0.8" fill="none" stroke-linecap="round" stroke-linejoin="round"/>
<path d="M 642.5 589.0 L 623.7 626.1" stroke="#000" stroke-width="1.3" stroke-opacity="0.8" fill="none" stroke-linecap="round" stroke-linejoin="round"/>
<path d="M 506.2 472.4 L 534.1 490.3 L 538.2 492.4 L 597.0 522.2 L 621.5 534.5 L 659.6 555.6 L 723.4 591.0 L 751.5 606.5" stroke="#000" stroke-width="1.3" stroke-opacity="0.8" fill="none" stroke-linecap="round" stroke-linejoin="round"/>
<path d="M 656.7 510.1 L 708.9 537.2" stroke="#000" stroke-width="1.3" stroke-opacity="0.8" fill="none" stroke-linecap="round" stroke-linejoin="round"/>
<path d="M 529.9 414.8 L 545.0 417.5 L 565.8 424.8 L 656.3 473.3 L 680.3 493.0" stroke="#000" stroke-width="1.3" stroke-opacity="0.8" fill="none" stroke-linecap="round" stroke-linejoin="round"/>
<path d="M 731.4 261.5 L 740.8 290.1 L 743.0 298.0 L 742.8 304.0 L 736.2 328.4 L 736.0 336.1 L 763.3 424.6 L 772.8 442.7 L 790.0 498.9 L 793.7 511.1" stroke="#000" stroke-width="0.7" stroke-opacity="0.55" fill="none" stroke-linecap="round" stroke-linejoin="round"/>
<path d="M 683.2 6.7 L 672.9 17.8 L 672.3 26.2 L 694.6 101.5" stroke="#000" stroke-width="1.3" stroke-opacity="0.8" fill="none" stroke-linecap="round" stroke-linejoin="round"/>
<path d="M 499.9 560.9 L 474.5 547.5 L 467.9 540.4 L 457.4 518.1 L 450.2 503.0 L 438.8 475.3 L 416.4 455.1 L 401.1 441.2 L 394.3 432.6 L 389.6 425.4 L 386.0 420.0 L 383.2 415.8 L 327.8 391.2 L 308.2 376.5 L 302.7 373.8 L 296.4 373.8 L 288.0 376.4 L 278.1 375.3 L 261.1 367.5 L 203.2 328.9 L 116.1 270.9" stroke="#000" stroke-width="1.3" stroke-opacity="0.8" fill="none" stroke-linecap="round" stroke-linejoin="round"/>
<path d="M 453.2 476.0 L 473.2 450.4" stroke="#000" stroke-width="1.3" stroke-opacity="0.8" fill="none" stroke-linecap="round" stroke-linejoin="round"/>
<path d="M 487.3 461.9 L 511.7 433.4 L 529.9 414.8" stroke="#000" stroke-width="1.3" stroke-opacity="0.8" fill="none" stroke-linecap="round" stroke-linejoin="round"/>
<path d="M 416.4 455.1 L 436.1 433.2" stroke="#000" stroke-width="1.3" stroke-opacity="0.8" fill="none" stroke-linecap="round" stroke-linejoin="round"/>
<path d="M 404.7 372.8 L 461.3 379.7" stroke="#000" stroke-width="0.5" stroke-opacity="0.35" fill="none" stroke-linecap="round" stroke-linejoin="round"/>
<path d="M 500.5 249.6 L 516.2 256.8 L 516.7 259.6 L 527.5 265.0" stroke="#000" stroke-width="0.5" stroke-opacity="0.35" fill="none" stroke-linecap="round" stroke-linejoin="round"/>
<path d="M 455.4 397.3 L 461.3 379.7" stroke="#000" stroke-width="1.3" stroke-opacity="0.8" fill="none" stroke-linecap="round" stroke-linejoin="round"/>
<path d="M 662.1 249.5 L 640.9 237.2 L 562.0 197.2 L 534.8 183.3 L 502.1 166.6 L 498.8 164.9 L 455.0 142.4 L 433.2 131.2 L 382.6 105.3 L 382.0 104.8 L 366.8 96.6 L 303.1 53.9" stroke="#000" stroke-width="2.4" stroke-opacity="0.95" fill="none" stroke-linecap="round" stroke-linejoin="round"/>
<path d="M 986.4 270.2 L 943.6 240.1 L 916.6 213.1 L 905.3 201.8 L 852.3 130.7 L 848.7 125.8 L 845.4 121.4 L 835.5 108.7 L 802.3 63.0" stroke="#000" stroke-width="1.3" stroke-opacity="0.8" fill="none" stroke-linecap="round" stroke-linejoin="round"/>
<path d="M 1440.4 251.6 L 1457.2 223.9" stroke="#000" stroke-width="1.3" stroke-opacity="0.8" fill="none" stroke-linecap="round" stroke-linejoin="round"/>
<path d="M 1339.0 217.4 L 1324.1 206.4 L 1277.9 172.7 L 1263.6 163.7 L 1190.9 117.8 L 1118.9 72.3" stroke="#000" stroke-width="1.3" stroke-opacity="0.8" fill="none" stroke-linecap="round" stroke-linejoin="round"/>
<path d="M 1118.9 72.3 L 1034.4 -5.9 L 1020.0 -19.2 L 1004.3 -33.8 L 979.1 -43.8 L 932.6 -105.7 L 924.0 -117.3 L 880.4 -178.3 L 868.5 -197.7 L 837.1 -237.8 L 808.5 -274.2" stroke="#000" stroke-width="1.3" stroke-opacity="0.8" fill="none" stroke-linecap="round" stroke-linejoin="round"/>
<path d="M 927.5 2.8 L 889.8 41.2" stroke="#000" stroke-width="1.3" stroke-opacity="0.8" fill="none" stroke-linecap="round" stroke-linejoin="round"/>
<path d="M 823.6 46.5 L 802.3 63.0" stroke="#000" stroke-width="1.3" stroke-opacity="0.8" fill="none" stroke-linecap="round" stroke-linejoin="round"/>
<path d="M 718.6 46.1 L 722.2 44.9 L 729.7 42.4 L 734.4 41.0 L 740.7 39.7 L 745.5 40.5" stroke="#000" stroke-width="1.3" stroke-opacity="0.8" fill="none" stroke-linecap="round" stroke-linejoin="round"/>
<path d="M 745.5 40.5 L 770.9 34.0 L 780.6 21.5 L 797.4 6.2 L 800.8 5.5 L 821.0 -12.6" stroke="#000" stroke-width="1.3" stroke-opacity="0.8" fill="none" stroke-linecap="round" stroke-linejoin="round"/>
<path d="M 770.9 34.0 L 774.9 33.0 L 796.1 36.2" stroke="#000" stroke-width="1.3" stroke-opacity="0.8" fill="none" stroke-linecap="round" stroke-linejoin="round"/>
<path d="M 760.3 89.7 L 782.5 74.6" stroke="#000" stroke-width="1.3" stroke-opacity="0.8" fill="none" stroke-linecap="round" stroke-linejoin="round"/>
<path d="M 767.9 107.1 L 800.5 83.0" stroke="#000" stroke-width="1.3" stroke-opacity="0.8" fill="none" stroke-linecap="round" stroke-linejoin="round"/>
<path d="M 782.3 119.7 L 814.5 96.1" stroke="#000" stroke-width="1.3" stroke-opacity="0.8" fill="none" stroke-linecap="round" stroke-linejoin="round"/>
<path d="M 788.1 128.0 L 819.5 104.6" stroke="#000" stroke-width="1.3" stroke-opacity="0.8" fill="none" stroke-linecap="round" stroke-linejoin="round"/>
<path d="M 878.7 95.0 L 848.7 125.8" stroke="#000" stroke-width="1.3" stroke-opacity="0.8" fill="none" stroke-linecap="round" stroke-linejoin="round"/>
<path d="M 835.5 108.7 L 796.1 139.2" stroke="#000" stroke-width="1.3" stroke-opacity="0.8" fill="none" stroke-linecap="round" stroke-linejoin="round"/>
<path d="M 1449.7 736.1 L 1449.1 732.7 L 1447.6 729.7 L 1445.1 727.3" stroke="#000" stroke-width="0.7" stroke-opacity="0.55" fill="none" stroke-linecap="round" stroke-linejoin="round"/>
<path d="M 670.3 248.8 L 662.1 249.5" stroke="#000" stroke-width="1.3" stroke-opacity="0.8" fill="none" stroke-linecap="round" stroke-linejoin="round"/>
<path d="M 436.5 942.8 L 453.3 914.2 L 486.4 866.8" stroke="#000" stroke-width="1.3" stroke-opacity="0.8" fill="none" stroke-linecap="round" stroke-linejoin="round"/>
<path d="M 805.2 502.8 L 811.8 503.9 L 816.9 503.9 L 853.1 491.7" stroke="#000" stroke-width="1.3" stroke-opacity="0.8" fill="none" stroke-linecap="round" stroke-linejoin="round"/>
<path d="M 805.2 502.8 L 793.7 511.1 L 789.3 513.6 L 787.6 514.6 L 781.9 517.7 L 774.0 520.2" stroke="#000" stroke-width="2.4" stroke-opacity="0.95" fill="none" stroke-linecap="round" stroke-linejoin="round"/>
<path d="M 791.9 528.3 L 800.6 556.0 L 865.5 767.2 L 876.8 804.1 L 881.5 820.0 L 890.9 852.8 L 929.9 985.9 L 964.7 1129.3 L 983.6 1205.2 L 993.3 1244.4 L 1019.0 1352.9" stroke="#000" stroke-width="0.9" stroke-opacity="0.6" fill="none" stroke-linecap="round" stroke-linejoin="round"/>
<path d="M 1019.0 1352.9 L 1031.4 1405.8 L 1036.9 1429.2 L 1040.1 1442.5" stroke="#000" stroke-width="0.9" stroke-opacity="0.6" fill="none" stroke-linecap="round" stroke-linejoin="round"/>
<path d="M 1040.1 1442.5 L 1039.0 1432.1 L 1039.0 1428.7 L 1038.9 1422.9 L 1038.5 1416.8 L 1038.1 1411.8 L 1031.9 1384.8 L 1028.8 1371.7 L 1025.2 1363.4 L 1021.5 1358.2 L 1019.0 1352.9" stroke="#000" stroke-width="0.9" stroke-opacity="0.6" fill="none" stroke-linecap="round" stroke-linejoin="round"/>
<path d="M 630.0 10.7 L 648.0 69.6 L 651.7 81.5 L 669.4 140.9 L 673.2 153.4 L 756.6 411.0 L 761.0 425.8" stroke="#000" stroke-width="0.9" stroke-opacity="0.6" fill="none" stroke-linecap="round" stroke-linejoin="round"/>
<path d="M 761.0 425.8 L 778.3 483.6 L 783.5 500.8 L 787.6 514.6 L 791.9 528.3" stroke="#000" stroke-width="0.9" stroke-opacity="0.6" fill="none" stroke-linecap="round" stroke-linejoin="round"/>
<path d="M 791.9 528.3 L 790.3 519.3 L 789.3 513.6 L 788.6 509.3 L 786.7 499.8 L 774.1 458.1 L 771.1 448.1 L 768.3 440.7 L 764.3 433.5 L 761.0 425.8" stroke="#000" stroke-width="0.9" stroke-opacity="0.6" fill="none" stroke-linecap="round" stroke-linejoin="round"/>
<path d="M 807.9 493.7 L 799.8 473.9 L 787.7 445.8 L 752.4 331.4" stroke="#000" stroke-width="0.7" stroke-opacity="0.55" fill="none" stroke-linecap="round" stroke-linejoin="round"/>
<path d="M 651.7 81.5 L 685.9 141.0 L 688.4 148.3 L 689.8 152.6 L 723.7 257.1" stroke="#000" stroke-width="0.9" stroke-opacity="0.6" fill="none" stroke-linecap="round" stroke-linejoin="round"/>
<path d="M 421.1 -31.0 L 429.7 -17.6 L 445.3 1.5 L 456.6 13.0 L 472.5 29.6 L 532.8 92.7 L 540.9 100.5 L 623.0 179.2 L 635.3 196.3 L 651.5 218.7 L 662.1 249.5 L 665.9 264.2 L 668.7 273.8 L 692.3 355.4 L 696.9 371.2 L 707.8 401.6 L 719.6 426.7 L 757.4 476.0 L 762.5 485.9 L 766.1 496.6 L 769.2 505.1 L 774.0 520.2 L 824.7 685.7 L 829.4 701.4 L 856.7 792.2 L 866.8 825.9 L 871.1 839.9 L 885.9 889.1 L 914.4 984.1 L 918.2 1000.3 L 920.1 1008.3 L 944.1 1109.9 L 960.6 1179.7 L 978.7 1256.4 L 979.7 1260.5 L 981.0 1266.2 L 1003.3 1360.5 L 1032.8 1485.6 L 1050.7 1564.8 L 1076.3 1673.6 L 1098.4 1767.7 L 1145.5 1968.4 L 1149.1 1983.9 L 1154.6 2007.4 L 1177.4 2104.6 L 1181.2 2124.9 L 1182.9 2142.2 L 1182.2 2156.4 L 1179.9 2168.6" stroke="#000" stroke-width="2.4" stroke-opacity="0.95" fill="none" stroke-linecap="round" stroke-linejoin="round"/>
<path d="M 769.2 505.1 L 776.9 502.8 L 783.5 500.8 L 785.0 500.4 L 786.7 499.8 L 790.0 498.9 L 807.9 493.7" stroke="#000" stroke-width="0.5" stroke-opacity="0.35" fill="none" stroke-linecap="round" stroke-linejoin="round"/>
<path d="M 785.0 500.4 L 781.0 486.7" stroke="#000" stroke-width="0.5" stroke-opacity="0.35" fill="none" stroke-linecap="round" stroke-linejoin="round"/>
<path d="M 894.3 815.8 L 892.0 806.3 L 891.8 800.4 L 892.7 792.9 L 900.4 776.7" stroke="#000" stroke-width="1.3" stroke-opacity="0.8" fill="none" stroke-linecap="round" stroke-linejoin="round"/>
<path d="M 1236.2 2162.2 L 1119.5 1673.0 L 1111.2 1634.8 L 1113.5 1619.3 L 1115.6 1609.6 L 1123.9 1568.7 L 1136.1 1454.4 L 1140.1 1437.5 L 1147.1 1389.0 L 1145.7 1372.0 L 1143.7 1343.1 L 1132.1 1302.3 L 1134.1 1273.7 L 1141.1 1257.5 L 1147.1 1241.2 L 1139.1 1217.6 L 1091.3 1007.8 L 1063.1 873.3 L 1028.8 718.5 L 1025.5 698.9 L 1004.3 671.7 L 972.7 645.5 L 916.4 608.0 L 882.7 575.4 L 872.1 548.2 L 866.1 534.9 L 838.2 428.6 L 798.0 293.9 L 789.8 266.2 L 745.9 120.8 L 734.0 80.0 L 722.2 44.9 L 719.0 35.5 L 714.0 26.2 L 704.2 14.1 L 690.2 4.9 L 679.2 1.2 L 664.3 -1.7 L 647.0 -1.2 L 630.8 2.4 L 624.8 4.1 L 612.6 6.7 L 599.1 6.5 L 574.6 -0.7 L 545.7 -8.7 L 501.9 -22.0 L 467.0 -30.9 L 452.7 -39.2 L 441.6 -47.5" stroke="#000" stroke-width="3.2" stroke-opacity="0.9" fill="none" stroke-linecap="round" stroke-linejoin="round"/>
  
    <g stroke="#000" fill="none" stroke-width="2.9952">
      <circle cx="936" cy="702" r="16.848"/>
      <circle cx="936" cy="702" r="3.744" fill="#000" stroke="none"/>
    </g>
  <rect width="100%" height="100%" fill="url(#vignette)"/>
  
    <g transform="translate(1776, 116)" stroke="#000" stroke-width="2.2464" fill="#000">
      <line x1="0" y1="37.44" x2="0" y2="-37.44"/>
      <path d="M 0 -37.44 L 13.104 -13.104 L 0 -22.464 L -13.104 -13.104 Z"/>
      <text x="0" y="59.44" text-anchor="middle" font-family="Georgia, serif" font-size="22.464000000000002">N</text>
    </g>
  <rect x="66" y="66" width="1740" height="1272" fill="none" stroke="#000" stroke-width="2" stroke-opacity="0.7"/>
  <rect x="74" y="74" width="1724" height="1256" fill="none" stroke="#000" stroke-width="1" stroke-opacity="0.4"/>
  
</svg>