<svg xmlns="http://www.w3.org/2000/svg" width="1872" height="1404" viewBox="0 0 1872 1404">
  <defs>
    <radialGradient id="vignette" cx="50%" cy="50%" r="954.72" gradientUnits="userSpaceOnUse">
      <stop offset="55%" stop-color="#fff" stop-opacity="0"/>
      <stop offset="100%" stop-color="#fff" stop-opacity="1"/>
    </radialGradient>
  </defs>
  <rect width="100%" height="100%" fill="#fff"/>
  <path d="M 1024.5 66.0 L 1020.4 62.4 L 1008.3 51.1 L 1003.0 46.3 L 997.0 42.6 L 990.0 39.7 L 984.2 38.0 L 977.4 37.5 L 972.3 37.8 L 956.5 39.2 L 941.4 40.5 L 933.0 41.1 L 915.9 41.4" stroke="#000" stroke-width="1.3" stroke-opacity="0.8" fill="none" stroke-linecap="round" stroke-linejoin="round"/>
<path d="M 821.9 322.8 L 829.8 333.3 L 846.9 354.1" stroke="#000" stroke-width="0.9" stroke-opacity="0.6" fill="none" stroke-linecap="round" stroke-linejoin="round"/>
<path d="M 1024.5 66.0 L 1033.8 74.9 L 1045.2 83.3 L 1073.0 103.7 L 1077.7 107.3" stroke="#000" stroke-width="1.3" stroke-opacity="0.8" fill="none" stroke-linecap="round" stroke-linejoin="round"/>
<path d="M 1094.3 120.2 L 1096.3 117.6 L 1106.4 104.2 L 1118.2 88.7 L 1152.4 43.2 L 1162.0 28.9 L 1170.8 13.5 L 1176.5 2.4 L 1181.1 -8.2 L 1184.2 -17.2 L 1186.4 -24.1 L 1187.6 -28.5 L 1190.5 -41.6 L 1192.3 -53.0 L 1193.4 -66.3 L 1193.7 -79.7 L 1193.6 -88.1 L 1193.2 -94.7 L 1192.4 -103.2 L 1191.5 -110.5 L 1190.1 -118.0" stroke="#000" stroke-width="1.3" stroke-opacity="0.8" fill="none" stroke-linecap="round" stroke-linejoin="round"/>
<path d="M 1077.7 107.3 L 1078.5 112.8 L 1078.8 115.0 L 1086.3 168.2" stroke="#000" stroke-width="1.3" stroke-opacity="0.8" fill="none" stroke-linecap="round" stroke-linejoin="round"/>
<path d="M 960.1 82.2 L 965.1 79.4 L 973.3 79.2 L 1003.8 78.6 L 1005.9 77.9 L 1016.8 66.6 L 1020.4 62.4" stroke="#000" stroke-width="1.3" stroke-opacity="0.8" fill="none" stroke-linecap="round" stroke-linejoin="round"/>
<path d="M 961.4 185.2 L 992.2 189.7 L 996.4 190.2 L 1017.1 195.3" stroke="#000" stroke-width="1.3" stroke-opacity="0.8" fill="none" stroke-linecap="round" stroke-linejoin="round"/>
<path d="M 976.3 117.4 L 982.6 119.2 L 987.0 126.4 L 996.4 190.2" stroke="#000" stroke-width="1.3" stroke-opacity="0.8" fill="none" stroke-linecap="round" stroke-linejoin="round"/>
<path d="M 1086.3 168.2 L 1041.4 161.3 L 1020.8 158.1" stroke="#000" stroke-width="1.3" stroke-opacity="0.8" fill="none" stroke-linecap="round" stroke-linejoin="round"/>
<path d="M 960.1 82.2 L 973.5 109.5 L 976.3 117.4 L 976.3 138.2 L 961.4 185.2" stroke="#000" stroke-width="1.3" stroke-opacity="0.8" fill="none" stroke-linecap="round" stroke-linejoin="round"/>
<path d="M 1012.8 109.0 L 979.2 108.8 L 973.5 109.5" stroke="#000" stroke-width="1.3" stroke-opacity="0.8" fill="none" stroke-linecap="round" stroke-linejoin="round"/>
<path d="M 995.1 450.9 L 1031.8 452.0 L 1066.5 453.1 L 1134.3 471.0 L 1136.3 471.3 L 1140.4 471.2" stroke="#000" stroke-width="1.3" stroke-opacity="0.8" fill="none" stroke-linecap="round" stroke-linejoin="round"/>
<path d="M 1362.9 220.9 L 1362.1 225.9 L 1361.4 230.3 L 1359.3 256.9 L 1358.9 263.6 L 1357.0 296.2 L 1355.9 312.1 L 1355.3 320.8 L 1353.4 341.9 L 1352.4 353.2 L 1352.0 359.2" stroke="#000" stroke-width="1.3" stroke-opacity="0.8" fill="none" stroke-linecap="round" stroke-linejoin="round"/>
<path d="M 634.1 137.2 L 645.8 150.3 L 661.0 153.9 L 696.7 161.3" stroke="#000" stroke-width="1.3" stroke-opacity="0.8" fill="none" stroke-linecap="round" stroke-linejoin="round"/>
<path d="M 619.9 365.2 L 675.1 389.9" stroke="#000" stroke-width="1.3" stroke-opacity="0.8" fill="none" stroke-linecap="round" stroke-linejoin="round"/>
<path d="M 1241.3 277.3 L 1253.7 264.8" stroke="#000" stroke-width="0.7" stroke-opacity="0.55" fill="none" stroke-linecap="round" stroke-linejoin="round"/>
<path d="M 1161.3 263.0 L 1148.7 295.7" stroke="#000" stroke-width="1.3" stroke-opacity="0.8" fill="none" stroke-linecap="round" stroke-linejoin="round"/>
<path d="M 757.6 434.0 L 775.2 395.6 L 795.9 346.5 L 808.0 323.4 L 811.9 316.2" stroke="#000" stroke-width="1.3" stroke-opacity="0.8" fill="none" stroke-linecap="round" stroke-linejoin="round"/>
<path d="M 1263.7 260.5 L 1257.4 268.1" stroke="#000" stroke-width="0.7" stroke-opacity="0.55" fill="none" stroke-linecap="round" stroke-linejoin="round"/>
<path d="M 1316.8 231.1 L 1323.4 206.3 L 1323.8 205.0 L 1325.1 200.0 L 1326.2 195.5 L 1333.7 165.5" stroke="#000" stroke-width="1.3" stroke-opacity="0.8" fill="none" stroke-linecap="round" stroke-linejoin="round"/>
<path d="M 1170.7 555.5 L 1168.3 558.2 L 1127.2 604.0 L 1111.3 621.1 L 1105.5 627.5" stroke="#000" stroke-width="1.3" stroke-opacity="0.8" fill="none" stroke-linecap="round" stroke-linejoin="round"/>
<path d="M 1171.0 456.5 L 1163.7 448.3 L 1138.9 420.8 L 1133.9 415.8 L 1128.2 411.0" stroke="#000" stroke-width="1.3" stroke-opacity="0.8" fill="none" stroke-linecap="round" stroke-linejoin="round"/>
<path d="M 599.4 284.9 L 606.4 293.8 L 619.7 311.2 L 625.6 331.5 L 628.1 338.6" stroke="#000" stroke-width="1.3" stroke-opacity="0.8" fill="none" stroke-linecap="round" stroke-linejoin="round"/>
<path d="M 1276.8 306.3 L 1249.7 298.6 L 1241.2 296.8 L 1187.1 286.7 L 1178.4 304.0 L 1177.8 305.4 L 1176.7 307.4" stroke="#000" stroke-width="1.3" stroke-opacity="0.8" fill="none" stroke-linecap="round" stroke-linejoin="round"/>
<path d="M 1051.5 309.2 L 1035.4 321.7 L 1035.8 324.5 L 1019.0 358.8 L 1012.6 372.5 L 998.8 386.7" stroke="#000" stroke-width="1.3" stroke-opacity="0.8" fill="none" stroke-linecap="round" stroke-linejoin="round"/>
<path d="M 523.1 350.0 L 532.2 373.5 L 550.7 444.6 L 548.5 477.9 L 546.6 484.4" stroke="#000" stroke-width="0.7" stroke-opacity="0.55" fill="none" stroke-linecap="round" stroke-linejoin="round"/>
<path d="M 762.0 291.0 L 756.4 297.2 L 745.3 309.3 L 733.4 320.9 L 721.8 332.0 L 705.2 343.5" stroke="#000" stroke-width="1.3" stroke-opacity="0.8" fill="none" stroke-linecap="round" stroke-linejoin="round"/>
<path d="M 1056.3 511.6 L 1060.7 486.8 L 1010.8 478.7" stroke="#000" stroke-width="1.3" stroke-opacity="0.8" fill="none" stroke-linecap="round" stroke-linejoin="round"/>
<path d="M 893.7 361.9 L 929.1 391.4 L 948.5 407.7" stroke="#000" stroke-width="0.7" stroke-opacity="0.55" fill="none" stroke-linecap="round" stroke-linejoin="round"/>
<path d="M 1252.9 193.7 L 1256.0 194.1 L 1262.1 194.9 L 1268.3 198.6 L 1296.1 217.7 L 1298.0 218.9 L 1316.8 231.1" stroke="#000" stroke-width="1.3" stroke-opacity="0.8" fill="none" stroke-linecap="round" stroke-linejoin="round"/>
<path d="M 1445.5 294.3 L 1489.7 309.2 L 1498.2 313.7 L 1523.6 330.9 L 1532.0 336.6 L 1565.0 356.0 L 1587.8 364.0 L 1604.9 363.8 L 1625.8 380.4 L 1647.2 397.4" stroke="#000" stroke-width="1.3" stroke-opacity="0.8" fill="none" stroke-linecap="round" stroke-linejoin="round"/>
<path d="M 1103.6 311.7 L 1071.8 338.3" stroke="#000" stroke-width="1.3" stroke-opacity="0.8" fill="none" stroke-linecap="round" stroke-linejoin="round"/>
<path d="M 1041.4 161.3 L 1039.1 185.8" stroke="#000" stroke-width="1.3" stroke-opacity="0.8" fill="none" stroke-linecap="round" stroke-linejoin="round"/>
<path d="M 1352.0 359.2 L 1351.6 364.7 L 1351.3 372.8 L 1351.2 394.0 L 1351.8 396.8 L 1355.6 414.0 L 1364.2 433.8 L 1368.3 441.1 L 1393.4 475.5 L 1405.9 488.9 L 1421.3 498.6 L 1435.2 507.3" stroke="#000" stroke-width="1.3" stroke-opacity="0.8" fill="none" stroke-linecap="round" stroke-linejoin="round"/>
<path d="M 1209.2 271.7 L 1220.3 250.3 L 1219.4 248.2 L 1217.9 246.6" stroke="#000" stroke-width="1.3" stroke-opacity="0.8" fill="none" stroke-linecap="round" stroke-linejoin="round"/>
<path d="M 1217.9 246.6 L 1192.5 250.0 L 1173.7 249.0 L 1154.5 243.1 L 1146.2 240.5" stroke="#000" stroke-width="1.3" stroke-opacity="0.8" fill="none" stroke-linecap="round" stroke-linejoin="round"/>
<path d="M 1123.5 335.2 L 1117.1 327.6 L 1103.6 311.7" stroke="#000" stroke-width="1.3" stroke-opacity="0.8" fill="none" stroke-linecap="round" stroke-linejoin="round"/>
<path d="M 1306.3 315.5 L 1303.2 320.2 L 1286.7 347.5 L 1261.0 390.5" stroke="#000" stroke-width="1.3" stroke-opacity="0.8" fill="none" stroke-linecap="round" stroke-linejoin="round"/>
<path d="M 1325.1 200.0 L 1320.9 197.9 L 1302.1 188.8 L 1274.5 180.3 L 1271.5 179.4" stroke="#000" stroke-width="1.3" stroke-opacity="0.8" fill="none" stroke-linecap="round" stroke-linejoin="round"/>
<path d="M 1504.3 153.4 L 1502.4 300.7 L 1498.2 313.7" stroke="#000" stroke-width="1.3" stroke-opacity="0.8" fill="none" stroke-linecap="round" stroke-linejoin="round"/>
<path d="M 1053.0 263.1 L 1046.2 250.3 L 1042.9 247.3 L 977.1 213.3 L 961.7 205.7 L 958.5 204.4 L 955.2 202.9" stroke="#000" stroke-width="1.3" stroke-opacity="0.8" fill="none" stroke-linecap="round" stroke-linejoin="round"/>
<path d="M 613.5 155.7 L 614.9 162.8 L 614.5 179.6 L 615.6 200.4 L 629.3 224.6 L 652.4 257.9" stroke="#000" stroke-width="1.3" stroke-opacity="0.8" fill="none" stroke-linecap="round" stroke-linejoin="round"/>
<path d="M 628.1 338.6 L 684.8 366.4" stroke="#000" stroke-width="1.3" stroke-opacity="0.8" fill="none" stroke-linecap="round" stroke-linejoin="round"/>
<path d="M 1434.4 386.8 L 1408.4 382.2 L 1371.6 375.9 L 1352.0 359.2" stroke="#000" stroke-width="1.3" stroke-opacity="0.8" fill="none" stroke-linecap="round" stroke-linejoin="round"/>
<path d="M 530.9 590.6 L 524.1 579.5 L 516.8 564.3 L 504.8 548.0 L 498.4 536.3 L 499.6 527.2 L 502.3 517.5 L 509.5 510.2 L 522.1 503.9 L 531.6 499.6 L 546.6 484.4" stroke="#000" stroke-width="1.3" stroke-opacity="0.8" fill="none" stroke-linecap="round" stroke-linejoin="round"/>
<path d="M 613.5 155.7 L 634.1 137.2 L 683.0 90.3" stroke="#000" stroke-width="1.3" stroke-opacity="0.8" fill="none" stroke-linecap="round" stroke-linejoin="round"/>
<path d="M 1082.5 244.5 L 1086.7 251.8 L 1112.0 277.9 L 1145.4 294.1 L 1148.7 295.7" stroke="#000" stroke-width="1.3" stroke-opacity="0.8" fill="none" stroke-linecap="round" stroke-linejoin="round"/>
<path d="M 1271.5 179.4 L 1274.5 160.6 L 1275.0 157.4 L 1268.4 145.6 L 1265.5 140.4 L 1260.9 132.2" stroke="#000" stroke-width="1.3" stroke-opacity="0.8" fill="none" stroke-linecap="round" stroke-linejoin="round"/>
<path d="M 585.4 379.5 L 610.7 391.1 L 644.9 406.8" stroke="#000" stroke-width="1.3" stroke-opacity="0.8" fill="none" stroke-linecap="round" stroke-linejoin="round"/>
<path d="M 984.3 454.0 L 1007.1 463.5 L 1010.8 468.5 L 1010.8 478.7 L 1009.4 499.2 L 1028.5 519.1" stroke="#000" stroke-width="1.3" stroke-opacity="0.8" fill="none" stroke-linecap="round" stroke-linejoin="round"/>
<path d="M 591.7 130.8 L 661.5 70.1" stroke="#000" stroke-width="1.3" stroke-opacity="0.8" fill="none" stroke-linecap="round" stroke-linejoin="round"/>
<path d="M 1537.7 162.5 L 1532.0 336.6" stroke="#000" stroke-width="1.3" stroke-opacity="0.8" fill="none" stroke-linecap="round" stroke-linejoin="round"/>
<path d="M 1163.4 378.7 L 1180.4 397.2 L 1196.1 414.3 L 1222.0 441.5 L 1225.2 444.9" stroke="#000" stroke-width="1.3" stroke-opacity="0.8" fill="none" stroke-linecap="round" stroke-linejoin="round"/>
<path d="M 871.7 377.5 L 879.0 372.4 L 893.7 361.9 L 900.3 354.9 L 904.0 350.7 L 908.5 344.2" stroke="#000" stroke-width="1.3" stroke-opacity="0.8" fill="none" stroke-linecap="round" stroke-linejoin="round"/>
<path d="M 978.1 451.6 L 1001.3 413.1" stroke="#000" stroke-width="1.3" stroke-opacity="0.8" fill="none" stroke-linecap="round" stroke-linejoin="round"/>
<path d="M 975.0 402.8 L 946.9 372.4 L 921.5 350.7 L 913.5 343.7" stroke="#000" stroke-width="1.3" stroke-opacity="0.8" fill="none" stroke-linecap="round" stroke-linejoin="round"/>
<path d="M 941.0 332.6 L 967.1 354.7 L 998.8 386.7" stroke="#000" stroke-width="1.3" stroke-opacity="0.8" fill="none" stroke-linecap="round" stroke-linejoin="round"/>
<path d="M 978.6 344.8 L 967.1 354.7" stroke="#000" stroke-width="1.3" stroke-opacity="0.8" fill="none" stroke-linecap="round" stroke-linejoin="round"/>
<path d="M 998.8 386.7 L 982.9 403.1 L 975.0 402.8 L 954.7 434.9" stroke="#000" stroke-width="1.3" stroke-opacity="0.8" fill="none" stroke-linecap="round" stroke-linejoin="round"/>
<path d="M 1263.0 628.9 L 1243.4 652.2 L 1234.1 662.8 L 1219.6 679.4 L 1213.4 686.6" stroke="#000" stroke-width="1.3" stroke-opacity="0.8" fill="none" stroke-linecap="round" stroke-linejoin="round"/>
<path d="M 1386.7 1131.0 L 1374.5 1140.3 L 1360.8 1150.9 L 1342.8 1155.6 L 1327.1 1178.6 L 1311.7 1178.6 L 1290.0 1163.5 L 1274.0 1155.1 L 1263.1 1158.0 L 1244.8 1179.1 L 1230.4 1200.3 L 1235.1 1230.9 L 1246.3 1267.0 L 1251.3 1285.8 L 1248.7 1308.8 L 1221.2 1346.5 L 1185.4 1384.9 L 1158.2 1419.7 L 1139.1 1453.2 L 1136.8 1474.3 L 1138.7 1482.7 L 1147.9 1489.5 L 1156.9 1485.8 L 1163.6 1483.9" stroke="#000" stroke-width="1.3" stroke-opacity="0.8" fill="none" stroke-linecap="round" stroke-linejoin="round"/>
<path d="M 1785.8 790.5 L 1781.6 789.9 L 1773.5 786.1 L 1766.4 780.9 L 1755.8 770.9 L 1747.0 760.2 L 1740.9 752.1 L 1734.3 749.0 L 1727.2 747.7 L 1724.7 747.3 L 1716.4 751.2 L 1707.2 758.3 L 1702.5 762.1 L 1674.4 784.6 L 1653.0 804.1 L 1644.8 816.8 L 1636.0 845.1 L 1622.5 866.4 L 1617.9 885.2 L 1606.1 892.0" stroke="#000" stroke-width="1.3" stroke-opacity="0.8" fill="none" stroke-linecap="round" stroke-linejoin="round"/>
<path d="M 1243.4 652.2 L 1234.5 644.4 L 1214.2 626.5" stroke="#000" stroke-width="1.3" stroke-opacity="0.8" fill="none" stroke-linecap="round" stroke-linejoin="round"/>
<path d="M 1309.0 1022.0 L 1314.4 1020.6 L 1320.8 1015.4 L 1343.1 989.2 L 1373.7 950.8 L 1397.1 934.7 L 1411.8 921.1 L 1403.5 898.3 L 1405.1 880.5 L 1410.1 864.5 L 1422.6 845.6 L 1430.3 831.5 L 1426.7 823.5 L 1422.3 815.1 L 1416.3 811.5 L 1400.0 809.2 L 1387.1 804.9 L 1379.4 796.1 L 1372.0 783.5 L 1367.3 778.9" stroke="#000" stroke-width="1.3" stroke-opacity="0.8" fill="none" stroke-linecap="round" stroke-linejoin="round"/>
<path d="M 1263.1 1158.0 L 1246.0 1146.8" stroke="#000" stroke-width="1.3" stroke-opacity="0.8" fill="none" stroke-linecap="round" stroke-linejoin="round"/>
<path d="M 1454.5 573.6 L 1468.5 583.9 L 1486.1 595.0 L 1492.6 599.9 L 1496.5 604.1 L 1503.1 615.2 L 1508.2 623.7 L 1514.9 634.4 L 1520.4 644.4 L 1522.6 646.6 L 1524.3 647.7 L 1526.3 648.7 L 1529.1 649.8 L 1536.6 650.8 L 1549.0 651.8 L 1557.5 651.7 L 1569.4 650.4 L 1577.9 649.7 L 1580.4 650.1 L 1583.0 651.6 L 1586.5 654.8 L 1589.3 660.6 L 1594.7 674.0 L 1597.2 677.5 L 1601.1 680.7 L 1628.2 701.3 L 1630.7 702.7 L 1634.1 704.0 L 1661.6 710.9 L 1683.9 716.4 L 1689.6 718.5 L 1693.2 721.7 L 1695.3 726.6 L 1695.9 730.6 L 1695.9 735.8 L 1695.5 744.7 L 1695.8 749.2 L 1696.4 753.3 L 1697.9 757.7 L 1700.2 760.5 L 1702.5 762.1 L 1709.5 765.4 L 1714.5 766.0 L 1730.3 766.9 L 1733.4 767.6 L 1735.9 768.4 L 1738.2 770.5 L 1743.3 777.5 L 1749.7 791.8 L 1751.7 800.5 L 1751.5 805.5 L 1749.8 812.1 L 1746.4 818.5 L 1744.4 822.0 L 1743.8 824.6 L 1744.1 827.9 L 1747.1 834.2 L 1748.8 839.9 L 1749.5 846.5 L 1749.4 853.3 L 1748.1 861.1 L 1748.0 865.2 L 1748.9 868.9 L 1756.5 896.9 L 1757.9 900.5 L 1759.2 903.0 L 1761.4 905.0 L 1764.2 907.4 L 1772.0 913.7 L 1788.9 926.3 L 1791.8 928.1 L 1796.5 929.9 L 1802.2 931.2 L 1815.0 932.1 L 1825.2 932.9 L 1831.7 933.3" stroke="#000" stroke-width="0.5" stroke-opacity="0.35" fill="none" stroke-linecap="round" stroke-linejoin="round"/>
<path d="M 1861.2 1536.7 L 1855.2 1529.1 L 1836.7 1507.8 L 1773.5 1485.1 L 1755.5 1478.7 L 1735.1 1472.5 L 1715.2 1459.8 L 1705.2 1451.9 L 1670.4 1434.6 L 1631.6 1410.5 L 1620.4 1400.8 L 1618.3 1399.0 L 1575.8 1336.2 L 1555.1 1292.3 L 1544.0 1263.3 L 1524.6 1226.9 L 1518.3 1215.1 L 1509.7 1208.2 L 1486.8 1189.8 L 1432.5 1161.6 L 1386.7 1131.0 L 1376.8 1123.4 L 1341.4 1093.8 L 1322.1 1073.4 L 1307.7 1052.7 L 1305.3 1038.0 L 1309.0 1022.0 L 1313.9 999.2 L 1315.9 967.6 L 1322.2 934.0 L 1337.7 885.8 L 1367.3 778.9 L 1383.3 713.8 L 1393.9 669.1 L 1403.5 630.6" stroke="#000" stroke-width="1.3" stroke-opacity="0.8" fill="none" stroke-linecap="round" stroke-linejoin="round"/>
<path d="M 287.8 575.5 L 253.9 567.7 L 219.5 561.4 L 212.9 556.8 L 213.3 542.8 L 216.5 504.1 L 242.6 506.1 L 248.0 503.9 L 256.5 495.5 L 263.9 487.0 L 271.7 480.0 L 281.4 478.7 L 300.6 480.0 L 306.7 480.1" stroke="#000" stroke-width="1.3" stroke-opacity="0.8" fill="none" stroke-linecap="round" stroke-linejoin="round"/>
<path d="M 1128.7 97.8 L 1112.1 120.0 L 1157.9 163.3 L 1163.8 165.3 L 1168.7 163.4 L 1186.7 143.3" stroke="#000" stroke-width="0.7" stroke-opacity="0.55" fill="none" stroke-linecap="round" stroke-linejoin="round"/>
<path d="M 1014.3 287.5 L 1035.4 321.7 L 1039.7 323.6 L 1060.5 355.8 L 1063.9 360.5" stroke="#000" stroke-width="1.3" stroke-opacity="0.8" fill="none" stroke-linecap="round" stroke-linejoin="round"/>
<path d="M 852.1 358.6 L 851.2 355.0 L 849.7 349.1 L 851.5 342.2 L 854.0 339.2 L 856.5 337.7" stroke="#000" stroke-width="0.9" stroke-opacity="0.6" fill="none" stroke-linecap="round" stroke-linejoin="round"/>
<path d="M 852.0 336.1 L 850.7 336.8 L 850.1 337.3 L 844.5 341.7 L 843.1 345.8 L 846.9 354.1" stroke="#000" stroke-width="0.9" stroke-opacity="0.6" fill="none" stroke-linecap="round" stroke-linejoin="round"/>
<path d="M 1268.2 501.6 L 1252.2 474.1 L 1225.2 444.9" stroke="#000" stroke-width="0.7" stroke-opacity="0.55" fill="none" stroke-linecap="round" stroke-linejoin="round"/>
<path d="M 963.3 319.3 L 966.2 239.9 L 977.1 213.3" stroke="#000" stroke-width="1.3" stroke-opacity="0.8" fill="none" stroke-linecap="round" stroke-linejoin="round"/>
<path d="M 1019.0 358.8 L 1058.9 374.7" stroke="#000" stroke-width="1.3" stroke-opacity="0.8" fill="none" stroke-linecap="round" stroke-linejoin="round"/>
<path d="M 998.8 386.7 L 1005.8 388.1 L 1008.6 388.8 L 1056.2 410.5 L 1058.0 410.9 L 1059.8 410.8 L 1063.5 410.1 L 1066.2 409.8 L 1068.2 409.8 L 1070.1 410.2 L 1072.2 411.2 L 1073.9 412.4 L 1078.4 426.4" stroke="#000" stroke-width="1.3" stroke-opacity="0.8" fill="none" stroke-linecap="round" stroke-linejoin="round"/>
<path d="M 816.2 392.5 L 826.7 378.8 L 852.1 358.6" stroke="#000" stroke-width="1.3" stroke-opacity="0.8" fill="none" stroke-linecap="round" stroke-linejoin="round"/>
<path d="M 550.1 65.1 L 586.8 110.3" stroke="#000" stroke-width="0.7" stroke-opacity="0.55" fill="none" stroke-linecap="round" stroke-linejoin="round"/>
<path d="M 1445.8 262.4 L 1440.4 262.0 L 1437.9 261.7 L 1366.7 257.3 L 1365.1 257.3 L 1359.3 256.9" stroke="#000" stroke-width="1.3" stroke-opacity="0.8" fill="none" stroke-linecap="round" stroke-linejoin="round"/>
<path d="M 1377.9 167.6 L 1373.9 167.4 L 1361.3 166.9 L 1353.2 166.6 L 1338.0 165.8 L 1333.7 165.5" stroke="#000" stroke-width="1.3" stroke-opacity="0.8" fill="none" stroke-linecap="round" stroke-linejoin="round"/>
<path d="M 1333.7 165.5 L 1328.4 166.6 L 1278.1 158.0 L 1275.0 157.4" stroke="#000" stroke-width="1.3" stroke-opacity="0.8" fill="none" stroke-linecap="round" stroke-linejoin="round"/>
<path d="M 1299.2 346.9 L 1309.2 329.7 L 1322.6 312.9 L 1331.0 280.6 L 1338.3 256.1 L 1342.3 234.0 L 1352.4 208.6 L 1353.2 206.7 L 1354.0 187.1 L 1352.1 146.3 L 1346.7 122.2 L 1343.7 113.0 L 1339.6 99.9 L 1337.0 95.4 L 1329.7 82.1 L 1322.3 68.8 L 1308.9 48.7 L 1308.9 26.8 L 1310.8 1.3 L 1310.9 -0.5 L 1291.1 -27.9 L 1290.7 -29.7 L 1287.9 -42.7 L 1290.6 -59.4 L 1285.3 -82.2 L 1276.3 -119.6 L 1276.8 -151.0 L 1276.9 -152.3 L 1279.3 -178.3 L 1279.4 -179.6 L 1290.6 -216.0 L 1291.1 -217.4 L 1291.9 -240.6 L 1282.4 -261.8 L 1276.5 -290.8 L 1278.9 -317.5 L 1273.1 -344.3 L 1264.1 -359.9 L 1250.4 -373.3 L 1246.3 -389.0 L 1245.0 -400.7 L 1236.5 -414.1 L 1216.5 -418.6 L 1201.6 -423.4 L 1183.3 -465.8 L 1175.7 -486.8 L 1165.1 -505.9 L 1156.1 -521.9 L 1138.5 -558.9 L 1138.4 -590.9 L 1142.2 -616.1 L 1142.4 -617.5 L 1165.5 -636.7 L 1160.7 -665.1 L 1155.5 -697.8 L 1158.3 -748.0 L 1158.4 -750.2 L 1163.5 -794.5 L 1161.7 -823.2 L 1148.2 -852.0 L 1137.2 -865.7 L 1134.6 -868.4 L 1127.0 -876.4" stroke="#000" stroke-width="3.2" stroke-opacity="0.9" fill="none" stroke-linecap="round" stroke-linejoin="round"/>
<path d="M 1403.8 414.5 L 1407.9 386.9 L 1408.4 382.2 L 1411.3 363.6 L 1416.5 351.7 L 1420.6 337.6" stroke="#000" stroke-width="1.3" stroke-opacity="0.8" fill="none" stroke-linecap="round" stroke-linejoin="round"/>
<path d="M 1631.2 1204.6 L 1627.5 1181.0 L 1616.5 1163.5 L 1560.9 1071.1 L 1558.8 1063.4 L 1562.4 1055.2 L 1578.9 1037.2 L 1594.2 1027.1 L 1585.8 1018.5 L 1570.6 1017.0 L 1544.9 1010.0 L 1519.9 983.9 L 1469.7 933.2 L 1449.4 914.1 L 1439.3 910.5 L 1428.2 911.1 L 1411.8 921.1" stroke="#000" stroke-width="1.3" stroke-opacity="0.8" fill="none" stroke-linecap="round" stroke-linejoin="round"/>
<path d="M 802.1 84.0 L 819.5 22.1" stroke="#000" stroke-width="0.7" stroke-opacity="0.55" fill="none" stroke-linecap="round" stroke-linejoin="round"/>
<path d="M 745.3 117.2 L 752.6 102.7 L 764.5 84.9 L 787.2 58.9 L 790.2 54.5 L 791.4 49.3 L 789.7 20.6 L 790.1 16.5" stroke="#000" stroke-width="1.3" stroke-opacity="0.8" fill="none" stroke-linecap="round" stroke-linejoin="round"/>
<path d="M 376.4 1091.5 L 367.3 1079.2 L 364.9 1076.0" stroke="#000" stroke-width="1.3" stroke-opacity="0.8" fill="none" stroke-linecap="round" stroke-linejoin="round"/>
<path d="M 1261.0 390.5 L 1258.5 388.6 L 1257.0 387.6 L 1241.8 377.1" stroke="#000" stroke-width="1.3" stroke-opacity="0.8" fill="none" stroke-linecap="round" stroke-linejoin="round"/>
<path d="M 1176.7 307.4 L 1175.1 311.4 L 1164.6 337.9 L 1132.5 367.5 L 1131.1 368.8 L 1127.7 371.9" stroke="#000" stroke-width="1.3" stroke-opacity="0.8" fill="none" stroke-linecap="round" stroke-linejoin="round"/>
<path d="M 1008.2 530.7 L 1028.5 519.1 L 1048.3 513.0 L 1056.3 511.6 L 1080.8 510.9 L 1108.4 516.1 L 1136.5 530.4 L 1139.7 532.1 L 1163.5 549.1 L 1170.7 555.5 L 1195.6 576.3 L 1229.2 604.9 L 1263.0 628.9" stroke="#000" stroke-width="1.3" stroke-opacity="0.8" fill="none" stroke-linecap="round" stroke-linejoin="round"/>
<path d="M 1128.2 411.0 L 1133.6 404.6 L 1151.5 389.5 L 1154.7 386.9 L 1163.4 378.7" stroke="#000" stroke-width="1.3" stroke-opacity="0.8" fill="none" stroke-linecap="round" stroke-linejoin="round"/>
<path d="M 940.3 566.7 L 969.6 625.0 L 988.0 655.4 L 1002.0 702.6 L 1023.8 732.3 L 1064.5 757.4 L 1083.0 782.6 L 1094.9 798.7 L 1145.6 833.5 L 1172.5 843.6 L 1194.1 851.6 L 1221.2 859.3 L 1264.6 848.6 L 1303.8 843.7 L 1314.9 851.1 L 1328.0 875.0 L 1337.7 885.8" stroke="#000" stroke-width="1.3" stroke-opacity="0.8" fill="none" stroke-linecap="round" stroke-linejoin="round"/>
<path d="M 940.3 566.7 L 928.6 551.7 L 899.3 539.8 L 869.5 527.2 L 833.0 504.9 L 800.4 484.5 L 777.0 461.0 L 757.6 434.0" stroke="#000" stroke-width="1.3" stroke-opacity="0.8" fill="none" stroke-linecap="round" stroke-linejoin="round"/>
<path d="M 1078.4 426.4 L 1090.8 424.6 L 1121.1 411.6 L 1128.2 411.0" stroke="#000" stroke-width="1.3" stroke-opacity="0.8" fill="none" stroke-linecap="round" stroke-linejoin="round"/>
<path d="M 984.3 454.0 L 978.1 451.6 L 965.7 442.5 L 954.7 434.9 L 936.5 425.2" stroke="#000" stroke-width="1.3" stroke-opacity="0.8" fill="none" stroke-linecap="round" stroke-linejoin="round"/>
<path d="M 1008.2 530.7 L 973.0 547.8 L 966.0 551.8 L 964.4 552.7 L 958.0 556.5 L 940.3 566.7" stroke="#000" stroke-width="1.3" stroke-opacity="0.8" fill="none" stroke-linecap="round" stroke-linejoin="round"/>
<path d="M 1078.4 426.4 L 1083.8 440.0 L 1084.7 441.4 L 1086.1 442.6 L 1087.9 443.9 L 1090.4 444.9 L 1127.2 451.2 L 1130.9 451.8 L 1134.6 452.5" stroke="#000" stroke-width="1.3" stroke-opacity="0.8" fill="none" stroke-linecap="round" stroke-linejoin="round"/>
<path d="M 1149.1 486.7 L 1158.1 484.5" stroke="#000" stroke-width="0.5" stroke-opacity="0.35" fill="none" stroke-linecap="round" stroke-linejoin="round"/>
<path d="M 995.1 450.9 L 984.3 454.0" stroke="#000" stroke-width="1.3" stroke-opacity="0.8" fill="none" stroke-linecap="round" stroke-linejoin="round"/>
<path d="M 1158.1 484.5 L 1185.1 478.4" stroke="#000" stroke-width="0.5" stroke-opacity="0.35" fill="none" stroke-linecap="round" stroke-linejoin="round"/>
<path d="M 995.1 450.9 L 1008.8 446.5 L 1045.8 432.1 L 1078.4 426.4" stroke="#000" stroke-width="1.3" stroke-opacity="0.8" fill="none" stroke-linecap="round" stroke-linejoin="round"/>
<path d="M 1358.3 681.9 L 1351.9 676.5 L 1332.2 660.4 L 1317.0 654.0 L 1304.8 651.3 L 1296.0 647.9 L 1290.5 644.7 L 1284.4 641.1 L 1275.3 635.7 L 1263.0 628.9" stroke="#000" stroke-width="1.3" stroke-opacity="0.8" fill="none" stroke-linecap="round" stroke-linejoin="round"/>
<path d="M 1139.7 532.1 L 1088.7 599.2 L 1083.6 605.9" stroke="#000" stroke-width="1.3" stroke-opacity="0.8" fill="none" stroke-linecap="round" stroke-linejoin="round"/>
<path d="M 1261.0 390.5 L 1258.8 393.6 L 1229.0 439.1 L 1225.2 444.9" stroke="#000" stroke-width="1.3" stroke-opacity="0.8" fill="none" stroke-linecap="round" stroke-linejoin="round"/>
<path d="M 1127.2 604.0 L 1152.6 627.9" stroke="#000" stroke-width="1.3" stroke-opacity="0.8" fill="none" stroke-linecap="round" stroke-linejoin="round"/>
<path d="M 1108.4 516.1 L 1115.3 497.7 L 1131.6 503.6" stroke="#000" stroke-width="1.3" stroke-opacity="0.8" fill="none" stroke-linecap="round" stroke-linejoin="round"/>
<path d="M 1152.6 627.9 L 1164.1 637.4 L 1166.1 642.8" stroke="#000" stroke-width="0.7" stroke-opacity="0.55" fill="none" stroke-linecap="round" stroke-linejoin="round"/>
<path d="M 1132.6 651.4 L 1137.4 645.8 L 1152.6 627.9 L 1159.1 620.0 L 1168.1 609.2" stroke="#000" stroke-width="1.3" stroke-opacity="0.8" fill="none" stroke-linecap="round" stroke-linejoin="round"/>
<path d="M 1225.2 444.9 L 1215.5 458.7 L 1197.5 484.4 L 1195.1 488.6 L 1163.5 549.1" stroke="#000" stroke-width="1.3" stroke-opacity="0.8" fill="none" stroke-linecap="round" stroke-linejoin="round"/>
<path d="M 1258.8 393.6 L 1275.3 407.1 L 1283.8 416.2 L 1291.6 423.8 L 1301.1 432.4 L 1308.5 435.0 L 1313.4 438.5 L 1320.1 448.0 L 1323.7 454.3 L 1327.9 461.4 L 1340.8 482.5 L 1348.2 494.5 L 1357.7 506.9 L 1352.9 513.9 L 1351.3 520.4 L 1349.2 532.6 L 1342.8 541.0 L 1334.0 553.9 L 1327.5 562.4 L 1322.1 571.9 L 1316.7 581.7 L 1316.0 584.1 L 1314.2 590.1 L 1313.6 592.2 L 1308.9 599.7 L 1301.4 607.5 L 1290.8 619.9 L 1283.8 628.5 L 1275.3 635.7" stroke="#000" stroke-width="0.5" stroke-opacity="0.35" fill="none" stroke-linecap="round" stroke-linejoin="round"/>
<path d="M 1015.0 1477.0 L 1015.0 1453.7 L 1018.4 1436.1 L 1023.2 1425.5 L 1029.1 1411.5 L 1033.0 1396.1 L 1036.7 1384.2 L 1079.2 1357.3 L 1115.1 1333.6 L 1135.9 1302.9 L 1147.8 1276.8 L 1147.8 1248.2 L 1140.8 1240.4 L 1131.4 1225.7 L 1137.2 1215.9 L 1170.6 1213.2 L 1193.4 1195.3 L 1206.7 1181.2 L 1211.3 1176.7 L 1237.1 1156.9 L 1246.0 1146.8 L 1260.7 1117.7 L 1285.5 1068.4 L 1298.4 1042.3 L 1305.3 1038.0" stroke="#000" stroke-width="1.3" stroke-opacity="0.8" fill="none" stroke-linecap="round" stroke-linejoin="round"/>
<path d="M 1383.0 659.4 L 1340.7 630.2" stroke="#000" stroke-width="1.3" stroke-opacity="0.8" fill="none" stroke-linecap="round" stroke-linejoin="round"/>
<path d="M 1498.1 807.5 L 1430.3 831.5" stroke="#000" stroke-width="1.3" stroke-opacity="0.8" fill="none" stroke-linecap="round" stroke-linejoin="round"/>
<path d="M 1298.4 1042.3 L 1276.2 1034.3 L 1226.6 1017.7 L 1204.2 1005.8 L 1187.9 993.9 L 1180.9 987.7 L 1178.3 980.4 L 1178.4 971.4 L 1177.0 964.8 L 1172.0 962.1 L 1159.6 960.4 L 1147.4 957.9 L 1139.0 955.1 L 1132.2 949.4 L 1122.7 939.1 L 1108.5 933.0" stroke="#000" stroke-width="1.3" stroke-opacity="0.8" fill="none" stroke-linecap="round" stroke-linejoin="round"/>
<path d="M 1609.6 929.4 L 1604.5 914.9 L 1606.2 903.0 L 1606.1 892.0 L 1603.6 885.9 L 1589.7 866.8 L 1576.7 856.8 L 1557.9 838.8 L 1537.4 826.2 L 1519.3 815.1 L 1498.1 807.5" stroke="#000" stroke-width="1.3" stroke-opacity="0.8" fill="none" stroke-linecap="round" stroke-linejoin="round"/>
<path d="M 1358.3 681.9 L 1383.3 713.8" stroke="#000" stroke-width="1.3" stroke-opacity="0.8" fill="none" stroke-linecap="round" stroke-linejoin="round"/>
<path d="M 1420.7 724.6 L 1413.1 716.0 L 1406.6 707.4 L 1405.8 695.9 L 1407.2 685.1 L 1402.9 676.0 L 1396.6 670.3 L 1393.9 669.1" stroke="#000" stroke-width="1.3" stroke-opacity="0.8" fill="none" stroke-linecap="round" stroke-linejoin="round"/>
<path d="M 1409.2 612.7 L 1401.4 610.0 L 1359.1 595.3" stroke="#000" stroke-width="0.7" stroke-opacity="0.55" fill="none" stroke-linecap="round" stroke-linejoin="round"/>
<path d="M 1498.1 807.5 L 1480.9 785.1 L 1445.5 742.8 L 1420.7 724.6" stroke="#000" stroke-width="1.3" stroke-opacity="0.8" fill="none" stroke-linecap="round" stroke-linejoin="round"/>
<path d="M 1333.7 165.5 L 1330.5 117.7 L 1325.5 103.0 L 1324.9 101.5 L 1321.6 94.7" stroke="#000" stroke-width="1.3" stroke-opacity="0.8" fill="none" stroke-linecap="round" stroke-linejoin="round"/>
<path d="M 1254.7 136.2 L 1259.3 144.4 L 1258.9 147.7 L 1253.3 190.8 L 1252.9 193.7" stroke="#000" stroke-width="1.3" stroke-opacity="0.8" fill="none" stroke-linecap="round" stroke-linejoin="round"/>
<path d="M 1362.9 220.9 L 1368.2 223.1 L 1372.6 223.7 L 1420.7 225.7 L 1433.9 228.5 L 1445.7 231.3" stroke="#000" stroke-width="1.3" stroke-opacity="0.8" fill="none" stroke-linecap="round" stroke-linejoin="round"/>
<path d="M 1325.1 200.0 L 1328.2 201.7 L 1347.5 212.6" stroke="#000" stroke-width="1.3" stroke-opacity="0.8" fill="none" stroke-linecap="round" stroke-linejoin="round"/>
<path d="M 1291.5 302.3 L 1294.8 298.4 L 1312.2 277.0 L 1323.0 257.0 L 1344.5 218.3 L 1346.0 215.2 L 1347.5 212.6" stroke="#000" stroke-width="1.3" stroke-opacity="0.8" fill="none" stroke-linecap="round" stroke-linejoin="round"/>
<path d="M 1292.3 305.9 L 1302.7 314.8 L 1300.6 318.1 L 1280.1 309.1 L 1292.3 305.9" stroke="#000" stroke-width="0.7" stroke-opacity="0.55" fill="none" stroke-linecap="round" stroke-linejoin="round"/>
<path d="M 1151.5 389.5 L 1143.6 383.6 L 1127.7 371.9" stroke="#000" stroke-width="1.3" stroke-opacity="0.8" fill="none" stroke-linecap="round" stroke-linejoin="round"/>
<path d="M 1093.3 383.0 L 1094.2 380.0 L 1100.8 359.7 L 1103.4 354.3" stroke="#000" stroke-width="1.3" stroke-opacity="0.8" fill="none" stroke-linecap="round" stroke-linejoin="round"/>
<path d="M 1058.9 374.7 L 1083.7 384.6 L 1086.6 385.6" stroke="#000" stroke-width="1.3" stroke-opacity="0.8" fill="none" stroke-linecap="round" stroke-linejoin="round"/>
<path d="M 1071.8 338.3 L 1063.9 360.5 L 1058.9 374.7" stroke="#000" stroke-width="1.3" stroke-opacity="0.8" fill="none" stroke-linecap="round" stroke-linejoin="round"/>
<path d="M 1241.8 377.1 L 1243.7 373.1 L 1260.3 340.8 L 1260.9 339.7 L 1262.3 336.9 L 1264.4 332.4 L 1276.8 306.3" stroke="#000" stroke-width="1.3" stroke-opacity="0.8" fill="none" stroke-linecap="round" stroke-linejoin="round"/>
<path d="M 1024.1 424.5 L 1001.3 413.1 L 982.9 403.1" stroke="#000" stroke-width="1.3" stroke-opacity="0.8" fill="none" stroke-linecap="round" stroke-linejoin="round"/>
<path d="M 1140.5 259.6 L 1144.4 260.2 L 1161.3 263.0 L 1165.6 263.8 L 1209.2 271.7" stroke="#000" stroke-width="1.3" stroke-opacity="0.8" fill="none" stroke-linecap="round" stroke-linejoin="round"/>
<path d="M 1308.3 254.3 L 1291.2 278.6 L 1285.5 271.9 L 1286.5 270.3 L 1299.0 253.0 L 1299.4 251.1 L 1300.8 249.5 L 1308.3 254.3" stroke="#000" stroke-width="0.7" stroke-opacity="0.55" fill="none" stroke-linecap="round" stroke-linejoin="round"/>
<path d="M 1148.7 295.7 L 1152.8 297.3 L 1172.9 305.8 L 1176.7 307.4 L 1180.5 308.7 L 1203.3 316.7 L 1258.4 335.5 L 1262.3 336.9 L 1266.7 339.2 L 1280.5 344.8 L 1283.3 346.0 L 1284.0 346.3 L 1285.0 346.7 L 1286.7 347.5" stroke="#000" stroke-width="1.3" stroke-opacity="0.8" fill="none" stroke-linecap="round" stroke-linejoin="round"/>
<path d="M 1140.5 259.6 L 1136.6 259.0 L 1130.8 258.1 L 1107.6 238.8 L 1100.9 233.3" stroke="#000" stroke-width="1.3" stroke-opacity="0.8" fill="none" stroke-linecap="round" stroke-linejoin="round"/>
<path d="M 961.4 185.2 L 890.8 180.7 L 863.3 179.5" stroke="#000" stroke-width="1.3" stroke-opacity="0.8" fill="none" stroke-linecap="round" stroke-linejoin="round"/>
<path d="M 890.8 180.7 L 882.4 210.8 L 854.8 206.5" stroke="#000" stroke-width="1.3" stroke-opacity="0.8" fill="none" stroke-linecap="round" stroke-linejoin="round"/>
<path d="M 961.4 185.2 L 958.1 194.7 L 955.2 202.9" stroke="#000" stroke-width="1.3" stroke-opacity="0.8" fill="none" stroke-linecap="round" stroke-linejoin="round"/>
<path d="M 863.3 179.5 L 887.4 132.3 L 956.8 84.1 L 960.1 82.2" stroke="#000" stroke-width="1.3" stroke-opacity="0.8" fill="none" stroke-linecap="round" stroke-linejoin="round"/>
<path d="M 769.8 294.9 L 773.8 286.9 L 809.5 263.3 L 847.6 253.5" stroke="#000" stroke-width="1.3" stroke-opacity="0.8" fill="none" stroke-linecap="round" stroke-linejoin="round"/>
<path d="M 847.6 253.5 L 862.1 244.2 L 862.9 240.2 L 856.7 232.3 L 855.6 223.0 L 854.8 206.5 L 856.0 201.7 L 863.3 179.5" stroke="#000" stroke-width="1.3" stroke-opacity="0.8" fill="none" stroke-linecap="round" stroke-linejoin="round"/>
<path d="M 955.2 202.9 L 943.9 228.4 L 948.0 241.7 L 944.9 257.5 L 929.2 331.1 L 930.7 337.3" stroke="#000" stroke-width="1.3" stroke-opacity="0.8" fill="none" stroke-linecap="round" stroke-linejoin="round"/>
<path d="M 745.3 117.2 L 722.3 140.9 L 696.7 161.3" stroke="#000" stroke-width="1.3" stroke-opacity="0.8" fill="none" stroke-linecap="round" stroke-linejoin="round"/>
<path d="M 703.0 336.1 L 725.8 337.3 L 739.7 342.4 L 749.2 344.0 L 756.0 348.5 L 764.5 350.1 L 774.3 358.5 L 779.7 369.2 L 785.1 386.3 L 793.6 403.4 L 801.1 411.7 L 805.5 416.5 L 819.4 427.2 L 835.3 434.3 L 850.4 439.8 L 856.0 441.9 L 868.2 449.9 L 875.0 461.4 L 875.7 461.8 L 889.6 469.4 L 900.1 478.5 L 908.2 487.9 L 913.8 494.3 L 915.0 495.6 L 917.1 497.5 L 927.9 507.1 L 937.0 522.3 L 943.8 532.2 L 946.1 535.9 L 949.6 541.4 L 956.3 552.9 L 961.8 566.0 L 963.7 568.1 L 970.9 576.0 L 979.4 591.4 L 985.2 603.1 L 986.2 605.0 L 994.6 614.5 L 998.7 628.8 L 999.2 630.0 L 1005.1 645.7 L 1012.3 657.3 L 1013.4 659.8 L 1015.9 665.5 L 1021.4 677.9 L 1032.3 687.5 L 1043.5 697.5 L 1059.7 709.9 L 1067.2 719.0 L 1081.8 725.3 L 1084.2 726.8 L 1107.4 746.1 L 1122.1 756.5 L 1132.6 768.0 L 1139.7 776.0 L 1146.3 777.4 L 1155.7 779.4 L 1175.3 779.9 L 1193.3 779.6 L 1204.5 779.2 L 1215.3 769.2 L 1221.8 761.1 L 1224.1 753.6 L 1234.0 734.8 L 1235.7 728.2 L 1236.0 720.7 L 1244.2 702.5" stroke="#000" stroke-width="3.2" stroke-opacity="0.9" fill="none" stroke-linecap="round" stroke-linejoin="round"/>
<path d="M 1144.1 206.1 L 1150.3 214.2 L 1174.0 224.4" stroke="#000" stroke-width="1.3" stroke-opacity="0.8" fill="none" stroke-linecap="round" stroke-linejoin="round"/>
<path d="M 1214.2 626.5 L 1199.9 642.2 L 1197.0 646.3 L 1183.1 665.5 L 1177.3 673.6" stroke="#000" stroke-width="1.3" stroke-opacity="0.8" fill="none" stroke-linecap="round" stroke-linejoin="round"/>
<path d="M 1168.1 609.2 L 1175.1 600.8 L 1191.1 581.6 L 1195.6 576.3" stroke="#000" stroke-width="1.3" stroke-opacity="0.8" fill="none" stroke-linecap="round" stroke-linejoin="round"/>
<path d="M 745.3 309.3 L 783.3 328.5" stroke="#000" stroke-width="1.3" stroke-opacity="0.8" fill="none" stroke-linecap="round" stroke-linejoin="round"/>
<path d="M 717.2 393.5 L 740.2 373.3 L 747.0 367.0" stroke="#000" stroke-width="1.3" stroke-opacity="0.8" fill="none" stroke-linecap="round" stroke-linejoin="round"/>
<path d="M 691.6 261.4 L 690.3 268.1 L 685.6 293.8" stroke="#000" stroke-width="1.3" stroke-opacity="0.8" fill="none" stroke-linecap="round" stroke-linejoin="round"/>
<path d="M 1102.1 -196.9 L 1103.7 -185.6 L 1104.8 -177.8 L 1105.7 -158.9 L 1104.3 -125.7 L 1102.1 -101.7 L 1095.9 -63.4 L 1088.8 -46.8 L 1078.6 -30.3 L 1061.2 -7.7 L 1051.9 13.3 L 1036.9 45.1 L 1033.7 52.5 L 1031.8 56.4 L 1029.1 60.6 L 1024.5 66.0" stroke="#000" stroke-width="1.3" stroke-opacity="0.8" fill="none" stroke-linecap="round" stroke-linejoin="round"/>
<path d="M 1039.1 185.8 L 1068.6 196.6 L 1071.3 197.6" stroke="#000" stroke-width="1.3" stroke-opacity="0.8" fill="none" stroke-linecap="round" stroke-linejoin="round"/>
<path d="M 628.1 338.6 L 619.9 365.2 L 610.7 391.1" stroke="#000" stroke-width="1.3" stroke-opacity="0.8" fill="none" stroke-linecap="round" stroke-linejoin="round"/>
<path d="M 635.8 262.8 L 640.5 268.9 L 653.6 285.0 L 657.0 288.9 L 666.4 290.5 L 685.6 293.8 L 726.0 314.5 L 733.4 320.9" stroke="#000" stroke-width="1.3" stroke-opacity="0.8" fill="none" stroke-linecap="round" stroke-linejoin="round"/>
<path d="M 705.2 343.5 L 646.4 316.0" stroke="#000" stroke-width="1.3" stroke-opacity="0.8" fill="none" stroke-linecap="round" stroke-linejoin="round"/>
<path d="M 646.4 316.0 L 642.3 311.8 L 638.8 308.2 L 635.5 298.2 L 645.1 290.1 L 657.0 288.9" stroke="#000" stroke-width="1.3" stroke-opacity="0.8" fill="none" stroke-linecap="round" stroke-linejoin="round"/>
<path d="M 481.6 187.0 L 477.9 189.6 L 458.3 251.9 L 451.2 283.9 L 450.6 314.0 L 441.5 337.4 L 426.4 352.9 L 391.0 366.2 L 343.0 382.6 L 308.3 388.3 L 299.3 393.0 L 295.1 397.3" stroke="#000" stroke-width="1.3" stroke-opacity="0.8" fill="none" stroke-linecap="round" stroke-linejoin="round"/>
<path d="M 546.6 484.4 L 571.5 465.2 L 600.0 449.1 L 624.1 413.9" stroke="#000" stroke-width="1.3" stroke-opacity="0.8" fill="none" stroke-linecap="round" stroke-linejoin="round"/>
<path d="M 705.2 343.5 L 700.2 344.6 L 694.4 346.5 L 690.5 350.0 L 684.8 366.4 L 678.4 387.5" stroke="#000" stroke-width="1.3" stroke-opacity="0.8" fill="none" stroke-linecap="round" stroke-linejoin="round"/>
<path d="M 640.9 46.2 L 658.3 62.6 L 661.5 70.1 L 683.0 90.3 L 706.6 113.3" stroke="#000" stroke-width="1.3" stroke-opacity="0.8" fill="none" stroke-linecap="round" stroke-linejoin="round"/>
<path d="M 678.4 387.5 L 695.0 385.6 L 708.7 388.4 L 717.2 393.5 L 741.6 419.0 L 755.1 431.0 L 757.6 434.0" stroke="#000" stroke-width="1.3" stroke-opacity="0.8" fill="none" stroke-linecap="round" stroke-linejoin="round"/>
<path d="M 586.8 110.3 L 579.9 116.5 L 575.7 120.6 L 563.4 129.3 L 517.2 162.6 L 481.6 187.0" stroke="#000" stroke-width="1.3" stroke-opacity="0.8" fill="none" stroke-linecap="round" stroke-linejoin="round"/>
<path d="M 640.9 46.2 L 639.6 53.4 L 636.6 60.7 L 630.2 74.4 L 621.0 85.2 L 612.4 91.5 L 586.8 110.3" stroke="#000" stroke-width="1.3" stroke-opacity="0.8" fill="none" stroke-linecap="round" stroke-linejoin="round"/>
<path d="M 624.1 413.9 L 644.9 406.8 L 649.8 404.4 L 675.1 389.9 L 678.4 387.5" stroke="#000" stroke-width="1.3" stroke-opacity="0.8" fill="none" stroke-linecap="round" stroke-linejoin="round"/>
<path d="M 751.9 286.4 L 748.2 268.9 L 743.8 255.8 L 736.1 223.8 L 735.4 204.1 L 719.2 183.9 L 696.7 161.3" stroke="#000" stroke-width="1.3" stroke-opacity="0.8" fill="none" stroke-linecap="round" stroke-linejoin="round"/>
<path d="M 422.4 1351.5 L 456.3 1328.0 L 481.4 1299.9 L 505.4 1268.3 L 524.1 1246.7 L 549.2 1223.6 L 559.1 1220.9 L 579.3 1213.8 L 600.0 1200.9 L 625.1 1186.0 L 675.3 1168.0 L 705.1 1148.6 L 718.2 1138.0 L 724.3 1131.0 L 731.4 1122.9 L 753.7 1111.7 L 769.7 1104.7 L 777.8 1109.5 L 789.3 1109.9 L 798.0 1110.2 L 820.9 1114.4 L 840.7 1121.9 L 864.8 1131.2 L 888.3 1137.6 L 916.1 1143.2 L 927.3 1146.3 L 948.8 1143.9 L 977.6 1137.6 L 1002.4 1131.5 L 1052.6 1134.4 L 1067.1 1135.3 L 1091.2 1136.8 L 1117.1 1140.2 L 1139.7 1150.0 L 1149.6 1159.2 L 1166.9 1164.3 L 1176.2 1166.0 L 1192.6 1174.4 L 1200.6 1174.3 L 1206.7 1181.2" stroke="#000" stroke-width="0.5" stroke-opacity="0.35" fill="none" stroke-linecap="round" stroke-linejoin="round"/>
<path d="M 541.2 696.1 L 529.4 702.9 L 510.9 707.2 L 488.7 705.8 L 474.5 703.6" stroke="#000" stroke-width="0.5" stroke-opacity="0.35" fill="none" stroke-linecap="round" stroke-linejoin="round"/>
<path d="M 356.7 1071.0 L 345.8 1068.9 L 334.8 1065.1 L 322.0 1059.8" stroke="#000" stroke-width="1.3" stroke-opacity="0.8" fill="none" stroke-linecap="round" stroke-linejoin="round"/>
<path d="M 562.9 1728.7 L 583.9 1708.7 L 598.5 1688.9 L 604.9 1671.4 L 611.9 1646.8 L 615.1 1616.8 L 616.1 1592.8 L 615.3 1569.2 L 613.9 1557.7 L 609.3 1545.8 L 603.9 1528.2 L 595.9 1502.1 L 581.2 1465.8 L 570.9 1432.6 L 566.5 1413.3 L 564.9 1400.5 L 565.8 1386.0 L 570.4 1359.5 L 574.4 1335.1 L 573.9 1314.9 L 572.0 1284.9 L 564.6 1242.4 L 559.1 1220.9 L 558.7 1219.2 L 552.6 1203.1 L 540.9 1183.2 L 529.2 1162.0 L 519.3 1143.4 L 505.3 1125.8 L 491.6 1101.4 L 483.4 1080.9 L 478.1 1074.9 L 470.3 1081.5 L 456.2 1089.2" stroke="#000" stroke-width="0.5" stroke-opacity="0.35" fill="none" stroke-linecap="round" stroke-linejoin="round"/>
<path d="M 1318.2 326.3 L 1310.2 319.1" stroke="#000" stroke-width="1.3" stroke-opacity="0.8" fill="none" stroke-linecap="round" stroke-linejoin="round"/>
<path d="M 1310.2 319.1 L 1306.3 315.5 L 1304.8 314.2" stroke="#000" stroke-width="1.3" stroke-opacity="0.8" fill="none" stroke-linecap="round" stroke-linejoin="round"/>
<path d="M 1359.4 219.0 L 1362.9 220.9" stroke="#000" stroke-width="1.3" stroke-opacity="0.8" fill="none" stroke-linecap="round" stroke-linejoin="round"/>
<path d="M 1347.5 212.6 L 1359.4 219.0" stroke="#000" stroke-width="1.3" stroke-opacity="0.8" fill="none" stroke-linecap="round" stroke-linejoin="round"/>
<path d="M 438.6 965.7 L 441.9 976.5 L 442.1 994.3 L 444.3 1005.0 L 451.4 1015.0 L 456.5 1024.8 L 455.7 1040.9 L 455.3 1049.9 L 456.0 1075.0 L 456.2 1089.2 L 451.1 1103.1 L 444.6 1112.4 L 443.0 1120.6" stroke="#000" stroke-width="1.3" stroke-opacity="0.8" fill="none" stroke-linecap="round" stroke-linejoin="round"/>
<path d="M 478.1 1074.9 L 484.7 1062.6 L 492.9 1047.7 L 485.5 1038.9 L 477.0 1038.7 L 455.7 1040.9" stroke="#000" stroke-width="1.3" stroke-opacity="0.8" fill="none" stroke-linecap="round" stroke-linejoin="round"/>
<path d="M 293.8 1168.9 L 303.6 1150.9 L 317.0 1134.0 L 327.0 1120.4 L 334.5 1105.0 L 338.5 1090.2 L 343.4 1071.9" stroke="#000" stroke-width="0.5" stroke-opacity="0.35" fill="none" stroke-linecap="round" stroke-linejoin="round"/>
<path d="M 1432.1 472.5 L 1443.8 480.2 L 1457.0 491.6 L 1465.5 497.8 L 1477.7 503.6 L 1486.2 503.3 L 1491.4 502.6 L 1499.7 501.6" stroke="#000" stroke-width="1.3" stroke-opacity="0.8" fill="none" stroke-linecap="round" stroke-linejoin="round"/>
<path d="M 984.2 38.0 L 985.8 24.8 L 983.5 -4.0 L 974.3 -20.3" stroke="#000" stroke-width="0.5" stroke-opacity="0.35" fill="none" stroke-linecap="round" stroke-linejoin="round"/>
<path d="M 1263.7 260.5 L 1283.7 271.0 L 1285.5 271.9" stroke="#000" stroke-width="0.7" stroke-opacity="0.55" fill="none" stroke-linecap="round" stroke-linejoin="round"/>
<path d="M 1219.9 688.6 L 1219.7 694.6 L 1218.4 744.1" stroke="#000" stroke-width="0.7" stroke-opacity="0.55" fill="none" stroke-linecap="round" stroke-linejoin="round"/>
<path d="M 1219.9 688.6 L 1214.6 693.2 L 1197.4 708.2 L 1193.0 715.6 L 1198.1 747.8" stroke="#000" stroke-width="0.7" stroke-opacity="0.55" fill="none" stroke-linecap="round" stroke-linejoin="round"/>
<path d="M 1185.8 676.5 L 1181.3 682.6 L 1141.1 738.6 L 1137.7 743.8" stroke="#000" stroke-width="0.7" stroke-opacity="0.55" fill="none" stroke-linecap="round" stroke-linejoin="round"/>
<path d="M 1111.4 633.2 L 1104.2 640.8 L 1078.2 668.3" stroke="#000" stroke-width="0.7" stroke-opacity="0.55" fill="none" stroke-linecap="round" stroke-linejoin="round"/>
<path d="M 1280.3 238.4 L 1297.7 249.9 L 1299.4 251.1" stroke="#000" stroke-width="0.7" stroke-opacity="0.55" fill="none" stroke-linecap="round" stroke-linejoin="round"/>
<path d="M 286.1 577.9 L 289.4 592.4 L 287.3 604.9 L 275.6 643.8 L 272.2 648.2 L 259.2 661.5 L 253.4 673.8 L 251.9 690.7 L 253.6 705.5 L 267.2 745.3 L 272.9 765.6 L 275.8 783.8 L 276.1 790.5 L 280.4 793.8 L 315.5 799.7" stroke="#000" stroke-width="0.5" stroke-opacity="0.35" fill="none" stroke-linecap="round" stroke-linejoin="round"/>
<path d="M 862.8 418.3 L 883.0 440.9 L 931.9 496.0" stroke="#000" stroke-width="0.5" stroke-opacity="0.35" fill="none" stroke-linecap="round" stroke-linejoin="round"/>
<path d="M 461.8 26.0 L 459.9 39.5 L 459.3 43.8 L 465.3 63.4 L 465.6 78.9 L 450.2 96.7 L 440.8 109.0 L 439.0 124.8 L 437.7 128.7 L 428.6 147.1 L 440.0 155.9 L 458.5 172.2 L 481.6 187.0" stroke="#000" stroke-width="1.3" stroke-opacity="0.8" fill="none" stroke-linecap="round" stroke-linejoin="round"/>
<path d="M 706.6 113.3 L 661.0 153.9" stroke="#000" stroke-width="1.3" stroke-opacity="0.8" fill="none" stroke-linecap="round" stroke-linejoin="round"/>
<path d="M 834.5 31.0 L 831.1 49.2 L 828.6 67.6" stroke="#000" stroke-width="0.7" stroke-opacity="0.55" fill="none" stroke-linecap="round" stroke-linejoin="round"/>
<path d="M 1045.2 83.3 L 1042.8 87.6 L 1026.5 112.3" stroke="#000" stroke-width="1.3" stroke-opacity="0.8" fill="none" stroke-linecap="round" stroke-linejoin="round"/>
<path d="M 1086.3 168.2 L 1085.4 173.5 L 1071.3 197.6 L 1056.1 220.0" stroke="#000" stroke-width="1.3" stroke-opacity="0.8" fill="none" stroke-linecap="round" stroke-linejoin="round"/>
<path d="M 1420.6 337.6 L 1424.0 325.5 L 1426.9 311.1 L 1430.4 295.0 L 1434.4 280.4 L 1437.9 261.7" stroke="#000" stroke-width="1.3" stroke-opacity="0.8" fill="none" stroke-linecap="round" stroke-linejoin="round"/>
<path d="M 1362.9 220.9 L 1365.8 214.6 L 1373.0 199.4 L 1377.5 184.0 L 1378.2 173.1 L 1377.9 167.6" stroke="#000" stroke-width="1.3" stroke-opacity="0.8" fill="none" stroke-linecap="round" stroke-linejoin="round"/>
<path d="M 1214.4 619.1 L 1213.0 617.9 L 1190.6 597.6 L 1187.1 594.5 L 1156.5 628.6 L 1165.3 636.2 L 1167.4 642.0 L 1191.5 644.3 L 1194.7 643.9 L 1214.4 619.1" stroke="#000" stroke-width="1" stroke-opacity="0.2" fill="#000" fill-opacity="0.05" stroke-linecap="round" stroke-linejoin="round"/>
<path d="M 1150.4 635.2 L 1154.1 631.2 L 1162.7 638.4 L 1164.1 642.5 L 1162.8 643.7 L 1150.4 635.2" stroke="#000" stroke-width="1" stroke-opacity="0.2" fill="#000" fill-opacity="0.05" stroke-linecap="round" stroke-linejoin="round"/>
<path d="M 1200.3 587.5 L 1196.7 584.3 L 1187.1 594.5 L 1190.6 597.6 L 1200.3 587.5" stroke="#000" stroke-width="1" stroke-opacity="0.2" fill="#000" fill-opacity="0.05" stroke-linecap="round" stroke-linejoin="round"/>
<path d="M 883.0 440.9 L 905.1 419.1 L 910.1 414.1" stroke="#000" stroke-width="0.7" stroke-opacity="0.55" fill="none" stroke-linecap="round" stroke-linejoin="round"/>
<path d="M 1194.8 653.7 L 1187.7 662.3 L 1188.0 664.1 L 1188.4 666.9 L 1212.7 675.3 L 1215.3 673.0 L 1194.8 653.7" stroke="#000" stroke-width="1" stroke-opacity="0.2" fill="#000" fill-opacity="0.05" stroke-linecap="round" stroke-linejoin="round"/>
<path d="M 1090.5 612.7 L 1056.0 647.1 L 1078.2 668.3" stroke="#000" stroke-width="0.5" stroke-opacity="0.35" fill="none" stroke-linecap="round" stroke-linejoin="round"/>
<path d="M 948.5 407.7 L 937.9 423.2 L 936.5 425.2 L 926.9 433.0" stroke="#000" stroke-width="1.3" stroke-opacity="0.8" fill="none" stroke-linecap="round" stroke-linejoin="round"/>
<path d="M 1243.6 243.5 L 1241.4 253.3" stroke="#000" stroke-width="0.7" stroke-opacity="0.55" fill="none" stroke-linecap="round" stroke-linejoin="round"/>
<path d="M 322.0 1059.8 L 343.4 1071.9 L 351.6 1076.6 L 353.9 1077.9" stroke="#000" stroke-width="1.3" stroke-opacity="0.8" fill="none" stroke-linecap="round" stroke-linejoin="round"/>
<path d="M 376.4 1091.5 L 388.9 1100.3 L 411.5 1110.6 L 423.2 1120.4 L 435.4 1123.8 L 443.0 1120.6 L 451.0 1134.5 L 454.2 1146.4 L 453.2 1160.4 L 448.3 1187.6 L 442.7 1227.2 L 439.1 1253.2 L 438.4 1276.6 L 434.7 1308.3 L 427.3 1335.1 L 422.4 1351.5 L 413.5 1380.8 L 403.4 1392.0 L 380.5 1409.6 L 344.4 1431.3 L 308.7 1452.8 L 289.7 1462.5 L 286.7 1464.1 L 260.4 1468.7 L 244.4 1468.6 L 234.8 1463.5 L 225.1 1458.4 L 218.9 1458.8 L 171.1 1476.9 L 146.3 1487.7 L 125.4 1501.2 L 103.9 1514.7 L 86.3 1516.9 L 74.1 1515.7 L 61.5 1514.4 L 38.2 1514.5 L 25.0 1514.0 L 21.4 1513.1 L 14.7 1511.4 L 2.3 1512.9 L -3.6 1513.7 L -7.9 1514.3 L -13.7 1512.0 L -23.2 1503.4 L -42.3 1488.2 L -58.6 1482.0 L -76.9 1475.7 L -78.9 1474.2 L -86.1 1468.9 L -113.0 1449.9 L -134.5 1436.2" stroke="#000" stroke-width="1.3" stroke-opacity="0.8" fill="none" stroke-linecap="round" stroke-linejoin="round"/>
<path d="M 362.1 1071.2 L 371.2 1051.2 L 385.9 1034.0 L 401.0 1022.9 L 411.8 1008.2 L 415.4 995.3 L 423.2 977.8 L 426.7 974.0 L 438.6 965.7 L 455.2 937.0 L 481.5 910.6 L 500.8 894.7 L 512.0 886.2 L 512.3 886.0 L 522.8 872.3 L 528.3 859.9 L 544.2 838.4 L 557.3 817.0 L 557.4 804.8 L 550.5 777.9 L 545.6 720.9 L 541.2 696.1 L 533.7 666.9 L 534.5 630.6 L 530.9 590.6" stroke="#000" stroke-width="1.3" stroke-opacity="0.8" fill="none" stroke-linecap="round" stroke-linejoin="round"/>
<path d="M 81.7 2264.1 L 73.0 2247.8 L 66.5 2225.5 L 67.9 2210.8 L 80.0 2189.4 L 93.3 2166.5 L 104.3 2155.6 L 123.4 2139.5 L 149.6 2118.1 L 163.7 2101.7 L 182.1 2072.9 L 202.9 2035.7 L 206.9 2014.6 L 214.2 1994.6 L 229.7 1969.8 L 229.4 1946.1 L 220.4 1918.7 L 210.5 1877.6 L 208.3 1849.6 L 219.0 1820.0 L 227.7 1793.0 L 229.1 1771.0 L 227.2 1736.6 L 237.9 1699.4 L 247.7 1672.6 L 253.1 1641.3 L 251.4 1602.1 L 244.9 1564.1 L 235.1 1535.6 L 233.6 1498.6 L 238.4 1477.2 L 246.0 1461.2 L 255.3 1440.3 L 260.1 1418.6 L 260.1 1395.5 L 266.6 1367.0 L 279.3 1333.4 L 287.2 1315.1 L 294.5 1294.5 L 297.3 1277.6 L 291.4 1251.4 L 290.3 1235.1 L 295.4 1217.0 L 309.5 1199.0 L 324.4 1181.8 L 337.7 1159.8 L 344.1 1138.1 L 347.5 1107.9 L 353.2 1091.9 L 355.4 1085.7" stroke="#000" stroke-width="3.2" stroke-opacity="0.9" fill="none" stroke-linecap="round" stroke-linejoin="round"/>
<path d="M 1294.0 730.0 L 1280.4 732.0 L 1266.5 732.6 L 1256.5 730.9 L 1254.2 726.8 L 1258.3 709.5 L 1260.2 701.4" stroke="#000" stroke-width="1.3" stroke-opacity="0.8" fill="none" stroke-linecap="round" stroke-linejoin="round"/>
<path d="M 1518.1 772.6 L 1525.5 777.8 L 1519.3 815.1" stroke="#000" stroke-width="1.3" stroke-opacity="0.8" fill="none" stroke-linecap="round" stroke-linejoin="round"/>
<path d="M 1128.2 411.0 L 1128.2 420.4 L 1127.9 425.7 L 1128.0 429.0 L 1128.4 432.4 L 1129.3 435.8 L 1134.6 452.5 L 1138.4 464.0 L 1140.4 471.2 L 1141.5 475.4 L 1142.4 479.7 L 1143.5 485.6 L 1144.2 490.9 L 1144.4 497.2 L 1144.3 502.4 L 1143.9 508.3 L 1143.2 513.3 L 1141.7 521.4 L 1140.7 526.3 L 1139.7 532.1" stroke="#000" stroke-width="1.3" stroke-opacity="0.8" fill="none" stroke-linecap="round" stroke-linejoin="round"/>
<path d="M 1087.3 396.0 L 1085.0 397.6 L 1083.0 399.3 L 1081.4 401.0 L 1079.9 403.2 L 1077.7 406.5 L 1073.9 412.4" stroke="#000" stroke-width="1.3" stroke-opacity="0.8" fill="none" stroke-linecap="round" stroke-linejoin="round"/>
<path d="M 1128.2 411.0 L 1118.7 401.9 L 1115.6 399.3 L 1112.7 397.4 L 1109.9 396.1 L 1105.9 394.5 L 1101.8 393.5 L 1097.4 392.7" stroke="#000" stroke-width="1.3" stroke-opacity="0.8" fill="none" stroke-linecap="round" stroke-linejoin="round"/>
<path d="M 1144.4 465.1 L 1150.2 460.6" stroke="#000" stroke-width="0.5" stroke-opacity="0.35" fill="none" stroke-linecap="round" stroke-linejoin="round"/>
<path d="M 1223.0 363.4 L 1211.1 354.8 L 1196.9 344.5 L 1192.7 341.6" stroke="#000" stroke-width="0.7" stroke-opacity="0.55" fill="none" stroke-linecap="round" stroke-linejoin="round"/>
<path d="M 1203.3 316.7 L 1201.8 320.4 L 1192.7 341.6 L 1176.0 366.7 L 1163.4 378.7" stroke="#000" stroke-width="1.3" stroke-opacity="0.8" fill="none" stroke-linecap="round" stroke-linejoin="round"/>
<path d="M 1197.5 484.4 L 1191.4 478.2 L 1171.0 456.5" stroke="#000" stroke-width="1.3" stroke-opacity="0.8" fill="none" stroke-linecap="round" stroke-linejoin="round"/>
<path d="M 1171.0 456.5 L 1196.1 414.3" stroke="#000" stroke-width="1.3" stroke-opacity="0.8" fill="none" stroke-linecap="round" stroke-linejoin="round"/>
<path d="M 741.6 419.0 L 739.7 434.9 L 738.8 454.2 L 742.8 479.7" stroke="#000" stroke-width="1.3" stroke-opacity="0.8" fill="none" stroke-linecap="round" stroke-linejoin="round"/>
<path d="M 1499.7 501.6 L 1506.5 505.1 L 1512.1 511.4 L 1522.1 525.2 L 1526.6 531.3 L 1536.8 541.7 L 1560.7 559.3 L 1578.2 570.4 L 1585.6 572.0 L 1611.3 575.5 L 1619.7 576.6 L 1631.1 576.1 L 1634.2 576.0 L 1641.4 575.6 L 1659.6 576.7 L 1674.4 577.9 L 1681.4 580.9 L 1686.6 586.1 L 1691.8 595.6 L 1701.7 612.3 L 1709.8 624.0 L 1716.2 630.3 L 1721.4 633.7 L 1731.7 638.6 L 1742.8 640.9 L 1751.2 640.4 L 1756.3 640.2 L 1770.9 644.0 L 1783.7 648.7 L 1785.7 649.4 L 1793.4 652.1 L 1799.3 656.0 L 1810.4 665.4 L 1822.2 672.6 L 1829.9 678.5 L 1833.8 685.9 L 1837.2 689.5 L 1843.2 693.0 L 1856.2 695.6 L 1863.7 697.0 L 1868.3 697.5 L 1877.5 695.3 L 1896.1 687.4 L 1908.8 685.4 L 1916.5 685.6 L 1928.7 692.3 L 1944.0 699.5 L 1953.3 703.6 L 1960.6 709.2 L 1971.0 710.9 L 1979.0 710.4 L 1989.5 710.7 L 2002.1 712.3 L 2011.1 714.6 L 2019.0 713.7" stroke="#000" stroke-width="0.5" stroke-opacity="0.35" fill="none" stroke-linecap="round" stroke-linejoin="round"/>
<path d="M 1435.6 233.8 L 1442.3 234.2 L 1442.3 253.4 L 1434.8 253.4 L 1435.6 233.8" stroke="#000" stroke-width="0.7" stroke-opacity="0.55" fill="none" stroke-linecap="round" stroke-linejoin="round"/>
<path d="M 871.7 377.5 L 888.8 393.9 L 910.1 414.1 L 926.9 433.0 L 1008.2 530.7 L 1031.6 554.0 L 1083.6 605.9 L 1090.5 612.7 L 1098.8 620.9 L 1105.5 627.5 L 1111.4 633.2 L 1132.6 651.4 L 1144.2 659.8 L 1162.9 668.2 L 1177.3 673.6 L 1185.8 676.5 L 1205.8 683.8 L 1213.4 686.6 L 1219.9 688.6 L 1260.2 701.4 L 1272.4 703.3 L 1316.2 697.6 L 1338.7 691.0 L 1354.0 684.1 L 1358.3 681.9 L 1368.1 675.1 L 1378.3 664.7 L 1383.0 659.4 L 1396.0 643.1 L 1403.5 630.6 L 1407.3 618.6 L 1409.2 612.7 L 1422.6 562.6 L 1425.1 552.0 L 1435.3 514.0 L 1435.2 507.3 L 1432.5 480.5 L 1432.1 472.5 L 1430.5 451.0 L 1432.6 407.4 L 1434.4 386.8 L 1438.7 346.3 L 1445.5 294.3 L 1445.8 262.4 L 1445.8 255.5 L 1445.7 231.3 L 1447.9 172.6 L 1448.8 160.3 L 1450.8 143.4 L 1453.8 136.4 L 1463.1 118.4 L 1471.2 107.1 L 1498.5 68.3 L 1558.3 -16.2 L 1572.8 -36.7 L 1577.0 -42.7 L 1606.0 -83.7" stroke="#000" stroke-width="1.3" stroke-opacity="0.8" fill="none" stroke-linecap="round" stroke-linejoin="round"/>
<path d="M 1078.8 115.0 L 1072.9 115.1 L 1027.8 117.6" stroke="#000" stroke-width="0.7" stroke-opacity="0.55" fill="none" stroke-linecap="round" stroke-linejoin="round"/>
<path d="M 1071.8 338.3 L 1063.2 328.2 L 1051.5 309.2 L 1031.2 276.9" stroke="#000" stroke-width="1.3" stroke-opacity="0.8" fill="none" stroke-linecap="round" stroke-linejoin="round"/>
<path d="M 1103.4 354.3 L 1107.7 348.4 L 1123.5 335.2 L 1140.9 319.7 L 1148.7 295.7" stroke="#000" stroke-width="1.3" stroke-opacity="0.8" fill="none" stroke-linecap="round" stroke-linejoin="round"/>
<path d="M 1066.4 371.8 L 1087.8 380.6 L 1099.4 350.4 L 1102.4 345.9 L 1116.0 334.2 L 1102.7 319.1 L 1077.1 342.1 L 1070.5 361.5 L 1066.4 371.8" stroke="#000" stroke-width="1" stroke-opacity="0.2" fill="#000" fill-opacity="0.05" stroke-linecap="round" stroke-linejoin="round"/>
<path d="M 1107.5 311.8 L 1124.0 332.0 L 1130.5 326.8 L 1118.3 320.1 L 1107.5 311.8" stroke="#000" stroke-width="1" stroke-opacity="0.2" fill="#000" fill-opacity="0.05" stroke-linecap="round" stroke-linejoin="round"/>
<path d="M 1212.8 402.3 L 1235.2 420.0 L 1223.6 437.6 L 1202.9 415.4 L 1212.8 402.3" stroke="#000" stroke-width="1" stroke-opacity="0.2" fill="#000" fill-opacity="0.05" stroke-linecap="round" stroke-linejoin="round"/>
<path d="M 1257.4 268.1 L 1253.7 264.8 L 1241.4 253.3 L 1228.0 240.6 L 1206.9 219.9 L 1180.2 195.8 L 1171.5 187.9" stroke="#000" stroke-width="0.7" stroke-opacity="0.55" fill="none" stroke-linecap="round" stroke-linejoin="round"/>
<path d="M 1257.4 268.1 L 1287.6 298.5 L 1291.5 302.3" stroke="#000" stroke-width="0.7" stroke-opacity="0.55" fill="none" stroke-linecap="round" stroke-linejoin="round"/>
<path d="M 1354.9 221.1 L 1359.3 223.4 L 1355.6 259.0 L 1354.2 284.6 L 1352.5 316.0 L 1350.5 330.1 L 1348.1 336.8 L 1342.7 342.9 L 1332.1 333.6 L 1336.6 319.3 L 1339.4 300.8 L 1340.2 282.7 L 1347.6 247.8 L 1352.0 230.8 L 1354.9 221.1" stroke="#000" stroke-width="1" stroke-opacity="0.2" fill="#000" fill-opacity="0.05" stroke-linecap="round" stroke-linejoin="round"/>
<path d="M 1351.3 218.1 L 1348.1 216.2 L 1347.5 215.6 L 1337.2 234.7 L 1327.0 253.4 L 1330.5 261.1 L 1323.1 265.0 L 1333.1 270.4 L 1323.6 303.3 L 1313.0 313.9 L 1323.2 324.9 L 1327.8 318.0 L 1331.2 318.8 L 1334.7 304.7 L 1335.7 283.8 L 1344.0 245.4 L 1347.2 231.2 L 1351.3 218.1" stroke="#000" stroke-width="1" stroke-opacity="0.2" fill="#000" fill-opacity="0.05" stroke-linecap="round" stroke-linejoin="round"/>
<path d="M 1355.8 210.7 L 1352.4 208.6 L 1353.2 206.7 L 1354.0 187.1 L 1353.2 166.6 L 1352.1 146.3 L 1346.7 122.2 L 1344.3 114.7 L 1346.3 115.6 L 1347.3 117.3 L 1353.8 124.6 L 1357.0 143.1 L 1359.2 156.3 L 1359.1 163.2 L 1358.5 199.0 L 1355.8 210.7" stroke="#000" stroke-width="1" stroke-opacity="0.2" fill="#000" fill-opacity="0.05" stroke-linecap="round" stroke-linejoin="round"/>
<path d="M 1360.3 209.5 L 1363.1 210.8 L 1369.8 197.2 L 1373.7 180.1 L 1373.4 171.3 L 1361.4 171.3 L 1360.5 188.8 L 1360.5 202.8 L 1358.8 208.5 L 1360.3 209.5" stroke="#000" stroke-width="1" stroke-opacity="0.2" fill="#000" fill-opacity="0.05" stroke-linecap="round" stroke-linejoin="round"/>
<path d="M 1343.4 107.6 L 1349.9 113.4 L 1354.8 118.4 L 1361.4 124.0 L 1364.5 125.4 L 1366.8 119.5 L 1370.8 121.2 L 1370.9 130.5 L 1373.5 144.0 L 1374.3 163.8 L 1359.1 163.2 L 1359.2 156.3 L 1357.0 143.1 L 1353.8 124.6 L 1346.6 118.0 L 1345.9 116.5 L 1343.4 107.6" stroke="#000" stroke-width="1" stroke-opacity="0.2" fill="#000" fill-opacity="0.05" stroke-linecap="round" stroke-linejoin="round"/>
<path d="M 1077.7 107.3 L 1094.3 120.2 L 1113.1 136.7 L 1158.9 177.1 L 1171.5 187.9" stroke="#000" stroke-width="1.3" stroke-opacity="0.8" fill="none" stroke-linecap="round" stroke-linejoin="round"/>
<path d="M 1294.5 70.7 L 1283.4 54.8 L 1260.3 33.9 L 1248.0 46.9 L 1220.5 77.7 L 1244.1 103.8 L 1260.3 94.1 L 1266.6 90.3 L 1294.5 70.7" stroke="#000" stroke-width="0.7" stroke-opacity="0.55" fill="none" stroke-linecap="round" stroke-linejoin="round"/>
<path d="M 1266.6 90.3 L 1276.8 104.9 L 1285.0 116.4" stroke="#000" stroke-width="0.7" stroke-opacity="0.55" fill="none" stroke-linecap="round" stroke-linejoin="round"/>
<path d="M 1309.1 84.5 L 1276.8 104.9" stroke="#000" stroke-width="0.7" stroke-opacity="0.55" fill="none" stroke-linecap="round" stroke-linejoin="round"/>
<path d="M 818.1 393.9 L 826.7 401.7 L 829.5 403.1 L 848.5 422.4 L 878.3 393.9 L 881.7 397.2 L 862.8 418.3 L 883.0 440.9 L 931.9 496.0 L 966.0 551.8 L 958.0 556.5 L 946.1 535.9 L 934.8 518.1 L 927.9 507.1 L 917.1 497.5 L 915.0 495.6 L 913.8 494.3 L 908.2 487.9 L 900.1 478.5 L 889.6 469.4 L 875.7 461.8 L 875.0 461.4 L 868.2 449.9 L 856.0 441.9 L 850.4 439.8 L 835.3 434.3 L 819.4 427.2 L 805.5 416.5 L 801.1 411.7 L 818.1 393.9" stroke="#000" stroke-width="1" stroke-opacity="0.2" fill="#000" fill-opacity="0.05" stroke-linecap="round" stroke-linejoin="round"/>
<path d="M 1015.9 665.5 L 1020.3 663.8 L 1021.6 662.7 L 1024.0 662.7 L 1026.3 664.3 L 1031.1 663.0 L 1030.8 662.3 L 1033.7 659.6 L 1037.9 655.3 L 1046.4 649.7 L 1049.8 649.0 L 1056.0 647.1 L 1078.2 668.3 L 1077.9 690.8 L 1065.8 705.5 L 1061.4 711.0 L 1058.4 709.5 L 1046.1 698.7 L 1021.4 677.9 L 1015.9 665.5" stroke="#000" stroke-width="1" stroke-opacity="0.2" fill="#000" fill-opacity="0.05" stroke-linecap="round" stroke-linejoin="round"/>
<path d="M 973.8 574.2 L 972.3 570.9 L 970.6 565.9 L 968.2 559.1 L 968.4 556.9 L 966.0 551.8 L 958.0 556.5 L 961.8 566.0 L 970.9 576.0 L 972.0 574.2 L 973.8 574.2" stroke="#000" stroke-width="1" stroke-opacity="0.2" fill="#000" fill-opacity="0.05" stroke-linecap="round" stroke-linejoin="round"/>
<path d="M 1420.5 230.3 L 1380.6 227.7 L 1378.9 254.6 L 1418.7 257.1 L 1420.5 230.3" stroke="#000" stroke-width="1" stroke-opacity="0.2" fill="#000" fill-opacity="0.05" stroke-linecap="round" stroke-linejoin="round"/>
<path d="M 745.3 117.2 L 826.9 157.0 L 856.1 141.4 L 887.4 132.3" stroke="#000" stroke-width="1.3" stroke-opacity="0.8" fill="none" stroke-linecap="round" stroke-linejoin="round"/>
<path d="M 722.3 140.9 L 736.3 147.0" stroke="#000" stroke-width="1.3" stroke-opacity="0.8" fill="none" stroke-linecap="round" stroke-linejoin="round"/>
<path d="M 1208.7 165.4 L 1202.3 159.3 L 1186.7 143.3 L 1132.6 93.3 L 1128.7 97.8" stroke="#000" stroke-width="0.7" stroke-opacity="0.55" fill="none" stroke-linecap="round" stroke-linejoin="round"/>
<path d="M 1128.7 97.8 L 1124.3 94.0 L 1118.2 88.7" stroke="#000" stroke-width="0.7" stroke-opacity="0.55" fill="none" stroke-linecap="round" stroke-linejoin="round"/>
<path d="M 1537.4 826.2 L 1551.7 799.5 L 1571.6 777.7" stroke="#000" stroke-width="0.5" stroke-opacity="0.35" fill="none" stroke-linecap="round" stroke-linejoin="round"/>
<path d="M 956.5 39.2 L 958.9 79.5 L 960.1 82.2" stroke="#000" stroke-width="1.3" stroke-opacity="0.8" fill="none" stroke-linecap="round" stroke-linejoin="round"/>
<path d="M 1017.1 195.3 L 1018.5 192.6 L 1022.3 188.5 L 1024.2 181.0 L 1024.7 169.5 L 1022.9 163.6 L 1020.8 158.1 L 1011.8 129.4 L 1012.8 109.0" stroke="#000" stroke-width="1.3" stroke-opacity="0.8" fill="none" stroke-linecap="round" stroke-linejoin="round"/>
<path d="M 1383.3 713.8 L 1420.7 724.6" stroke="#000" stroke-width="1.3" stroke-opacity="0.8" fill="none" stroke-linecap="round" stroke-linejoin="round"/>
<path d="M 1058.8 259.6 L 1103.6 311.7" stroke="#000" stroke-width="1.3" stroke-opacity="0.8" fill="none" stroke-linecap="round" stroke-linejoin="round"/>
<path d="M 1309.0 323.7 L 1295.4 345.0 L 1287.0 357.8 L 1281.3 368.4 L 1266.8 393.3 L 1176.8 526.1 L 1169.8 538.7 L 1168.0 545.0 L 1168.6 549.0 L 1172.1 552.7 L 1275.3 635.7 L 1308.9 599.7 L 1323.7 605.6 L 1351.7 596.8 L 1367.5 576.9 L 1385.2 568.8 L 1397.8 566.0 L 1422.6 562.6 L 1435.3 514.0 L 1435.2 507.3 L 1389.7 480.8 L 1371.5 453.5 L 1361.1 461.6 L 1352.1 462.9 L 1346.9 458.1 L 1339.5 440.1 L 1333.6 415.7 L 1330.0 399.2 L 1324.8 375.8 L 1318.9 349.5 L 1320.7 342.7 L 1324.6 337.5 L 1313.8 328.4 L 1309.0 323.7" stroke="#000" stroke-width="1" stroke-opacity="0.2" fill="#000" fill-opacity="0.05" stroke-linecap="round" stroke-linejoin="round"/>
<path d="M 332.0 512.0 L 304.1 553.2 L 287.8 575.5 L 286.1 577.9 L 222.5 665.2 L 206.1 695.7 L 201.5 711.6 L 201.7 734.2 L 204.1 747.7 L 205.5 755.2 L 241.2 842.2 L 250.4 898.6 L 249.0 917.9 L 248.8 927.4 L 246.9 938.8 L 242.8 963.0 L 228.1 997.6 L 224.4 1005.4 L 216.4 1022.3 L 199.6 1047.3 L 179.1 1069.6 L 173.6 1074.1 L 171.1 1076.1 L 87.7 1143.0 L 47.7 1175.3 L 26.0 1195.9 L -2.5 1225.9" stroke="#000" stroke-width="2.4" stroke-opacity="0.95" fill="none" stroke-linecap="round" stroke-linejoin="round"/>
<path d="M 721.5 273.7 L 691.6 261.4 L 671.7 257.4 L 652.4 257.9 L 635.8 262.8 L 625.4 267.0 L 611.0 275.8 L 599.4 284.9 L 523.1 350.0 L 499.7 368.2 L 384.2 449.9 L 362.6 470.9 L 332.0 512.0" stroke="#000" stroke-width="2.4" stroke-opacity="0.95" fill="none" stroke-linecap="round" stroke-linejoin="round"/>
<path d="M 1321.6 94.7 L 1316.6 97.6 L 1285.0 116.4 L 1268.0 127.5 L 1260.9 132.2 L 1254.7 136.2 L 1208.7 165.4 L 1185.2 180.4 L 1171.5 187.9 L 1156.5 197.9 L 1144.1 206.1 L 1100.9 233.3 L 1082.5 244.5 L 1075.0 249.3 L 1058.8 259.6 L 1053.0 263.1 L 1031.2 276.9 L 1014.3 287.5 L 1007.8 291.2 L 963.3 319.3 L 942.0 332.2 L 941.0 332.6 L 930.7 337.3 L 922.7 340.2 L 913.5 343.7 L 908.5 344.2" stroke="#000" stroke-width="2.4" stroke-opacity="0.95" fill="none" stroke-linecap="round" stroke-linejoin="round"/>
<path d="M 1127.7 371.9 L 1109.9 359.3 L 1108.4 358.3 L 1103.4 354.3" stroke="#000" stroke-width="1.3" stroke-opacity="0.8" fill="none" stroke-linecap="round" stroke-linejoin="round"/>
<path d="M 1183.5 406.9 L 1179.4 407.0 L 1168.4 427.7 L 1153.9 411.7 L 1156.6 408.8 L 1170.5 396.3 L 1170.5 392.7 L 1179.3 402.3 L 1183.5 406.9" stroke="#000" stroke-width="0.7" stroke-opacity="0.55" fill="none" stroke-linecap="round" stroke-linejoin="round"/>
<path d="M 1157.9 412.2 L 1165.7 416.8 L 1168.0 417.0 L 1170.7 416.3 L 1172.2 414.2 L 1172.9 412.1 L 1165.6 405.2 L 1165.0 403.3 L 1167.0 401.2 L 1169.7 400.4 L 1179.3 402.3" stroke="#000" stroke-width="0.5" stroke-opacity="0.35" fill="none" stroke-linecap="round" stroke-linejoin="round"/>
<path d="M 1118.7 401.9 L 1116.0 403.3 L 1107.3 406.6 L 1090.0 411.0 L 1080.5 407.4 L 1077.7 406.5" stroke="#000" stroke-width="0.7" stroke-opacity="0.55" fill="none" stroke-linecap="round" stroke-linejoin="round"/>
<path d="M 967.1 354.7 L 946.9 372.4" stroke="#000" stroke-width="1.3" stroke-opacity="0.8" fill="none" stroke-linecap="round" stroke-linejoin="round"/>
<path d="M 915.9 41.4 L 897.4 41.6 L 877.9 40.2 L 858.9 38.0 L 846.4 35.3 L 834.5 31.0 L 830.2 28.8 L 819.5 22.1 L 810.1 15.6 L 808.5 14.5" stroke="#000" stroke-width="1.3" stroke-opacity="0.8" fill="none" stroke-linecap="round" stroke-linejoin="round"/>
<path d="M 946.9 372.4 L 929.1 391.4" stroke="#000" stroke-width="1.3" stroke-opacity="0.8" fill="none" stroke-linecap="round" stroke-linejoin="round"/>
<path d="M -190.9 575.4 L -137.0 547.3 L -107.4 516.0 L -98.4 481.9 L -84.3 456.2 L -51.9 419.6 L -38.9 387.7 L -21.5 375.6 L 15.2 371.9 L 58.3 357.8 L 93.8 328.0 L 130.2 306.0 L 172.5 294.7 L 221.0 307.7 L 247.2 324.6 L 321.0 370.3 L 346.4 422.1 L 401.6 470.0 L 487.6 528.7" stroke="#000" stroke-width="3.2" stroke-opacity="0.9" fill="none" stroke-linecap="round" stroke-linejoin="round"/>
<path d="M 209.4 726.3 L 221.8 722.2 L 246.9 713.0 L 283.5 713.0 L 332.6 709.3 L 377.7 704.3 L 435.2 709.9 L 471.3 696.7 L 506.1 666.6" stroke="#000" stroke-width="3.2" stroke-opacity="0.9" fill="none" stroke-linecap="round" stroke-linejoin="round"/>
<path d="M 617.9 2217.9 L 636.2 2213.4 L 714.2 2196.2 L 774.6 2174.2 L 823.0 2157.0 L 872.9 2146.0 L 923.1 2116.4 L 953.6 2105.9 L 986.3 2091.8 L 1001.2 2072.1 L 1031.6 2018.2 L 1057.6 1967.5 L 1073.1 1918.2 L 1086.0 1873.9 L 1116.8 1820.3 L 1131.7 1796.9 L 1135.4 1780.0 L 1133.1 1763.1 L 1124.9 1742.0 L 1121.0 1716.0 L 1133.7 1688.1 L 1148.5 1660.3 L 1147.5 1633.1 L 1146.6 1583.9 L 1156.5 1526.3 L 1169.8 1472.7 L 1192.0 1437.8 L 1225.8 1393.5 L 1261.1 1352.3 L 1278.6 1334.3 L 1300.8 1306.1 L 1324.5 1284.4 L 1354.4 1266.4 L 1359.7 1259.6 L 1362.3 1242.1 L 1357.8 1214.2 L 1353.8 1194.2 L 1355.2 1180.1 L 1359.2 1167.7 L 1372.7 1159.5 L 1393.8 1151.9 L 1402.4 1146.9" stroke="#000" stroke-width="3.2" stroke-opacity="0.9" fill="none" stroke-linecap="round" stroke-linejoin="round"/>
<path d="M 1319.1 432.9 L 1312.3 408.8" stroke="#000" stroke-width="3.2" stroke-opacity="0.9" fill="none" stroke-linecap="round" stroke-linejoin="round"/>
<path d="M 1312.3 408.8 L 1304.6 408.7 L 1294.3 404.9 L 1287.2 396.7 L 1283.6 387.9 L 1284.5 374.9 L 1292.8 360.0 L 1299.2 346.9" stroke="#000" stroke-width="3.2" stroke-opacity="0.9" fill="none" stroke-linecap="round" stroke-linejoin="round"/>
<path d="M 1312.3 408.8 L 1311.3 383.8 L 1307.8 367.8 L 1299.2 346.9" stroke="#000" stroke-width="3.2" stroke-opacity="0.9" fill="none" stroke-linecap="round" stroke-linejoin="round"/>
<path d="M 642.4 1088.5 L 639.3 1067.1 L 638.1 1038.0 L 634.5 1010.7 L 625.3 970.5 L 615.2 948.2 L 601.1 909.9 L 581.2 875.4 L 558.4 860.4 L 544.1 847.7 L 524.0 826.7 L 503.4 805.6 L 487.6 792.3 L 479.5 776.2" stroke="#000" stroke-width="3.2" stroke-opacity="0.9" fill="none" stroke-linecap="round" stroke-linejoin="round"/>
<path d="M 487.6 528.7 L 530.7 429.4 L 703.0 336.1" stroke="#000" stroke-width="3.2" stroke-opacity="0.9" fill="none" stroke-linecap="round" stroke-linejoin="round"/>
<path d="M 1345.9 115.0 L 1347.3 115.5 L 1348.9 116.8 L 1353.8 124.6 L 1357.0 143.1 L 1359.2 156.3 L 1359.1 163.2 L 1358.5 199.0 L 1356.7 207.8 L 1355.8 210.7 L 1350.1 230.1 L 1343.6 258.2 L 1338.5 284.1 L 1337.2 304.9 L 1334.6 314.0 L 1332.3 322.2 L 1325.1 332.3" stroke="#000" stroke-width="0.5" stroke-opacity="0.35" fill="none" stroke-linecap="round" stroke-linejoin="round"/>
<path d="M 1325.1 332.3 L 1318.8 340.0 L 1316.3 348.6 L 1315.7 351.7 L 1315.8 354.0 L 1319.5 368.1 L 1321.7 376.3 L 1328.4 403.6 L 1333.1 425.0 L 1333.6 427.3 L 1335.1 433.8 L 1338.6 443.8 L 1340.3 449.0 L 1342.3 453.9 L 1344.7 459.1 L 1346.0 460.5 L 1349.2 464.0 L 1352.7 466.7 L 1355.7 469.9 L 1357.5 473.9 L 1358.0 477.1 L 1358.3 482.3 L 1358.3 484.8 L 1358.0 489.7 L 1357.9 491.4 L 1357.2 500.5 L 1357.3 501.3 L 1357.7 506.9 L 1363.2 511.4" stroke="#000" stroke-width="0.5" stroke-opacity="0.35" fill="none" stroke-linecap="round" stroke-linejoin="round"/>
<path d="M 1357.0 296.2 L 1353.0 296.6 L 1338.3 314.4 L 1334.6 314.0" stroke="#000" stroke-width="0.5" stroke-opacity="0.35" fill="none" stroke-linecap="round" stroke-linejoin="round"/>
<path d="M 1338.3 314.4 L 1339.7 322.6 L 1344.6 336.8 L 1353.4 341.9" stroke="#000" stroke-width="0.5" stroke-opacity="0.35" fill="none" stroke-linecap="round" stroke-linejoin="round"/>
<path d="M 1351.8 396.8 L 1328.4 403.6" stroke="#000" stroke-width="0.7" stroke-opacity="0.55" fill="none" stroke-linecap="round" stroke-linejoin="round"/>
<path d="M 1348.2 494.5 L 1350.2 494.9 L 1352.0 494.8 L 1354.6 493.5 L 1356.9 491.1 L 1358.0 489.7" stroke="#000" stroke-width="0.5" stroke-opacity="0.35" fill="none" stroke-linecap="round" stroke-linejoin="round"/>
<path d="M 1323.7 454.3 L 1318.3 457.7" stroke="#000" stroke-width="0.5" stroke-opacity="0.35" fill="none" stroke-linecap="round" stroke-linejoin="round"/>
<path d="M 1311.9 464.7 L 1313.5 465.1 L 1315.0 465.1 L 1316.5 464.6 L 1317.8 463.6 L 1318.6 462.3 L 1319.0 460.8 L 1318.9 459.2 L 1318.3 457.7 L 1317.2 456.5 L 1315.8 455.6 L 1314.1 455.4 L 1312.5 455.6 L 1311.0 456.4 L 1309.9 457.7 L 1309.3 459.2 L 1309.3 460.9 L 1309.7 462.5 L 1310.7 463.8 L 1311.9 464.7" stroke="#000" stroke-width="0.5" stroke-opacity="0.35" fill="none" stroke-linecap="round" stroke-linejoin="round"/>
<path d="M 1166.1 642.8 L 1197.0 646.3" stroke="#000" stroke-width="0.5" stroke-opacity="0.35" fill="none" stroke-linecap="round" stroke-linejoin="round"/>
<path d="M 1204.0 131.8 L 1229.2 107.8" stroke="#000" stroke-width="0.7" stroke-opacity="0.55" fill="none" stroke-linecap="round" stroke-linejoin="round"/>
<path d="M 1160.1 50.2 L 1157.7 48.0 L 1152.4 43.2" stroke="#000" stroke-width="0.7" stroke-opacity="0.55" fill="none" stroke-linecap="round" stroke-linejoin="round"/>
<path d="M 1254.7 136.2 L 1251.1 129.4 L 1229.2 107.8 L 1209.1 90.1" stroke="#000" stroke-width="0.7" stroke-opacity="0.55" fill="none" stroke-linecap="round" stroke-linejoin="round"/>
<path d="M 1201.3 87.7 L 1160.1 50.2 L 1153.6 60.4 L 1160.4 66.6 L 1192.6 96.2 L 1201.3 87.7" stroke="#000" stroke-width="0.7" stroke-opacity="0.55" fill="none" stroke-linecap="round" stroke-linejoin="round"/>
<path d="M 1220.5 77.7 L 1211.1 88.0 L 1209.1 90.1" stroke="#000" stroke-width="0.7" stroke-opacity="0.55" fill="none" stroke-linecap="round" stroke-linejoin="round"/>
<path d="M 1377.9 167.6 L 1377.2 158.6 L 1375.0 136.0 L 1372.9 127.1 L 1372.8 122.9 L 1375.3 115.7" stroke="#000" stroke-width="0.5" stroke-opacity="0.35" fill="none" stroke-linecap="round" stroke-linejoin="round"/>
<path d="M 1196.1 414.3 L 1201.0 407.0 L 1202.1 401.2 L 1200.5 394.1 L 1198.0 391.3 L 1194.3 387.0 L 1191.9 385.7 L 1180.4 397.2" stroke="#000" stroke-width="0.5" stroke-opacity="0.35" fill="none" stroke-linecap="round" stroke-linejoin="round"/>
<path d="M 1198.0 391.3 L 1219.8 388.4 L 1228.5 380.3 L 1232.9 374.0 L 1234.4 371.7" stroke="#000" stroke-width="0.5" stroke-opacity="0.35" fill="none" stroke-linecap="round" stroke-linejoin="round"/>
<path d="M 1191.9 385.7 L 1201.5 376.2 L 1207.2 361.1 L 1211.1 354.8" stroke="#000" stroke-width="0.5" stroke-opacity="0.35" fill="none" stroke-linecap="round" stroke-linejoin="round"/>
<path d="M 1179.3 402.3 L 1180.4 397.2" stroke="#000" stroke-width="0.5" stroke-opacity="0.35" fill="none" stroke-linecap="round" stroke-linejoin="round"/>
<path d="M 789.3 1109.9 L 794.5 1103.9 L 797.8 1097.7 L 800.4 1085.9 L 801.4 1076.9 L 801.6 1072.0 L 797.3 1063.8 L 795.0 1057.6 L 796.0 1049.1 L 796.0 1039.9 L 798.6 1030.9 L 805.0 1022.9 L 804.5 1015.0 L 806.3 1007.5 L 809.1 1001.3 L 807.0 995.9 L 802.9 988.5 L 802.5 987.4 L 800.9 982.8 L 803.7 977.7 L 803.2 973.6 L 800.1 969.0 L 795.7 965.1 L 795.2 958.9 L 795.7 955.1 L 799.3 949.7 L 800.9 942.5 L 798.6 938.1 L 796.5 932.0 L 797.8 926.8 L 797.8 922.5 L 796.8 917.8 L 798.1 914.0 L 794.5 910.4 L 786.2 903.2 L 784.0 901.5 L 783.0 896.4 L 786.3 888.1 L 790.9 879.6 L 790.6 871.9 L 791.2 865.1 L 790.2 856.9 L 789.2 849.7 L 790.8 843.7 L 790.4 839.4 L 796.0 823.8 L 800.0 831.6 L 803.2 834.1 L 803.9 834.2 L 809.7 830.4 L 821.0 829.6 L 825.3 829.6 L 832.7 827.7 L 839.7 829.2 L 851.8 828.1 L 860.3 823.4 L 862.6 822.5 L 868.5 820.3 L 888.7 819.5 L 898.9 822.2 L 910.9 822.6 L 920.3 826.5 L 926.1 840.7 L 940.1 850.8 L 942.5 851.8 L 964.6 861.0 L 983.0 878.8 L 1007.1 897.5 L 1034.2 906.7 L 1060.6 919.6 L 1064.8 921.7 L 1089.7 928.7 L 1108.5 933.0 L 1116.4 915.0 L 1129.4 903.0 L 1132.5 887.4 L 1136.2 862.8 L 1160.6 852.7 L 1172.5 843.6" stroke="#000" stroke-width="0.5" stroke-opacity="0.35" fill="none" stroke-linecap="round" stroke-linejoin="round"/>
<path d="M 1252.2 474.1 L 1262.1 467.5 L 1269.5 459.9 L 1277.0 453.9 L 1285.9 450.5 L 1294.9 449.2 L 1301.7 450.7 L 1311.0 456.4" stroke="#000" stroke-width="0.5" stroke-opacity="0.35" fill="none" stroke-linecap="round" stroke-linejoin="round"/>
<path d="M 1236.0 34.3 L 1206.1 67.5" stroke="#000" stroke-width="0.7" stroke-opacity="0.55" fill="none" stroke-linecap="round" stroke-linejoin="round"/>
<path d="M 1819.4 927.7 L 1817.8 922.0 L 1814.6 918.2 L 1811.8 917.6 L 1806.8 919.9 L 1798.8 922.2 L 1786.9 916.4 L 1770.4 907.5 L 1764.4 897.2 L 1763.5 882.5 L 1757.7 868.6 L 1753.0 849.1 L 1754.4 824.6 L 1756.6 813.0 L 1760.3 807.8 L 1762.2 803.6 L 1759.9 791.6 L 1744.1 768.8 L 1735.3 760.9 L 1728.4 759.1 L 1718.0 760.2 L 1703.7 745.6 L 1701.9 735.3 L 1703.9 726.0 L 1703.8 716.6 L 1698.4 710.7 L 1692.8 707.8 L 1686.4 707.7 L 1675.6 706.2 L 1670.0 701.2 L 1661.3 697.4 L 1652.1 695.0 L 1636.7 696.4 L 1626.2 694.1 L 1615.9 685.1 L 1606.0 673.5 L 1597.4 663.7 L 1594.5 649.0 L 1590.8 642.3 L 1581.8 639.0 L 1572.4 640.3 L 1561.4 644.6 L 1547.4 645.0 L 1533.0 644.4 L 1528.3 642.0 L 1526.4 638.2 L 1525.8 632.9 L 1529.1 628.2 L 1529.4 622.5 L 1512.5 611.5 L 1497.9 596.0 L 1475.2 580.6 L 1464.0 569.8 L 1449.5 559.1 L 1439.2 549.5 L 1436.2 547.5" stroke="#000" stroke-width="3.2" stroke-opacity="0.9" fill="none" stroke-linecap="round" stroke-linejoin="round"/>
<path d="M 1425.1 552.0 L 1431.9 555.8 L 1440.6 561.6 L 1447.3 567.4 L 1454.5 573.6" stroke="#000" stroke-width="1.3" stroke-opacity="0.8" fill="none" stroke-linecap="round" stroke-linejoin="round"/>
<path d="M 1356.2 485.1 L 1353.3 483.9 L 1334.3 459.9 L 1333.6 451.6 L 1333.0 450.6 L 1330.2 445.8 L 1327.0 442.0 L 1321.7 436.0 L 1319.1 432.9" stroke="#000" stroke-width="3.2" stroke-opacity="0.9" fill="none" stroke-linecap="round" stroke-linejoin="round"/>
<path d="M 1360.8 486.5 L 1356.2 485.1" stroke="#000" stroke-width="3.2" stroke-opacity="0.9" fill="none" stroke-linecap="round" stroke-linejoin="round"/>
<path d="M 1369.3 516.4 L 1391.6 528.0 L 1413.0 543.0 L 1425.1 552.0" stroke="#000" stroke-width="0.5" stroke-opacity="0.35" fill="none" stroke-linecap="round" stroke-linejoin="round"/>
<path d="M 1363.2 511.4 L 1369.3 516.4" stroke="#000" stroke-width="0.5" stroke-opacity="0.35" fill="none" stroke-linecap="round" stroke-linejoin="round"/>
<path d="M 1209.1 90.1 L 1201.3 87.7" stroke="#000" stroke-width="0.7" stroke-opacity="0.55" fill="none" stroke-linecap="round" stroke-linejoin="round"/>
<path d="M 878.6 159.5 L 887.9 154.3 L 933.3 134.9 L 944.0 145.1 L 949.3 153.7 L 950.9 169.7 L 962.6 172.5 L 957.0 182.2 L 869.7 176.2 L 878.6 159.5" stroke="#000" stroke-width="1" stroke-opacity="0.2" fill="#000" fill-opacity="0.05" stroke-linecap="round" stroke-linejoin="round"/>
<path d="M 870.7 174.3 L 881.3 171.6 L 888.0 169.8 L 902.4 167.2 L 919.7 165.0 L 927.6 166.9 L 928.1 174.2 L 929.0 179.8" stroke="#000" stroke-width="0.5" stroke-opacity="0.35" fill="none" stroke-linecap="round" stroke-linejoin="round"/>
<path d="M 881.3 171.6 L 884.1 162.4 L 890.7 156.6 L 926.2 143.0 L 935.9 151.5 L 931.0 158.3 L 927.6 166.9" stroke="#000" stroke-width="0.5" stroke-opacity="0.35" fill="none" stroke-linecap="round" stroke-linejoin="round"/>
<path d="M 919.7 114.1 L 890.3 135.0 L 870.7 174.3 L 870.1 175.7 L 891.9 177.2 L 929.0 179.8 L 957.1 181.6 L 961.7 173.1" stroke="#000" stroke-width="0.5" stroke-opacity="0.35" fill="none" stroke-linecap="round" stroke-linejoin="round"/>
<path d="M 890.8 180.7 L 891.9 177.2" stroke="#000" stroke-width="0.5" stroke-opacity="0.35" fill="none" stroke-linecap="round" stroke-linejoin="round"/>
<path d="M 1522.1 525.2 L 1523.1 538.6 L 1525.8 548.4 L 1531.6 557.8 L 1539.2 573.0 L 1548.6 580.2 L 1561.2 587.8 L 1574.6 598.5 L 1583.1 605.2 L 1592.9 613.3 L 1608.1 621.8 L 1621.1 629.8 L 1634.1 639.2 L 1643.5 645.5 L 1653.7 657.1 L 1661.8 662.5 L 1673.8 679.7 L 1688.5 691.2 L 1698.2 697.8 L 1704.2 706.1 L 1711.6 708.6 L 1716.3 717.2 L 1717.5 725.5 L 1723.0 738.2 L 1724.7 747.3" stroke="#000" stroke-width="0.5" stroke-opacity="0.35" fill="none" stroke-linecap="round" stroke-linejoin="round"/>
<path d="M 1316.5 670.0 L 1308.2 668.2 L 1303.7 667.7 L 1295.0 666.5 L 1285.2 681.7 L 1281.3 684.6 L 1280.7 686.6 L 1287.9 684.1 L 1325.4 677.3 L 1329.6 677.9 L 1328.7 675.6 L 1324.4 674.5 L 1316.5 670.0" stroke="#000" stroke-width="0.7" stroke-opacity="0.55" fill="none" stroke-linecap="round" stroke-linejoin="round"/>
<path d="M 1161.2 453.1 L 1150.2 460.6" stroke="#000" stroke-width="0.5" stroke-opacity="0.35" fill="none" stroke-linecap="round" stroke-linejoin="round"/>
<path d="M 979.4 1498.5 L 980.3 1486.4 L 983.0 1474.8 L 983.0 1465.4 L 977.1 1461.3 L 955.8 1454.9 L 943.7 1457.0 L 928.4 1461.3 L 913.0 1466.7 L 885.3 1485.6 L 867.8 1489.1 L 853.5 1489.9 L 833.1 1490.7 L 817.8 1491.8 L 812.1 1484.2 L 808.6 1469.4 L 808.1 1454.3 L 810.2 1442.5 L 814.5 1430.4 L 830.1 1390.8 L 824.8 1374.3 L 814.3 1351.1 L 796.8 1309.3" stroke="#000" stroke-width="0.5" stroke-opacity="0.35" fill="none" stroke-linecap="round" stroke-linejoin="round"/>
<path d="M 796.8 1309.3 L 790.1 1294.7 L 789.0 1287.6 L 791.4 1282.6 L 792.3 1276.8 L 791.3 1274.2 L 786.7 1269.7 L 781.2 1266.9 L 776.0 1262.8 L 761.7 1236.8 L 750.3 1209.3 L 749.2 1199.7 L 748.6 1193.4 L 746.7 1188.8 L 731.7 1161.7 L 727.8 1143.2 L 724.7 1132.9 L 724.3 1131.0" stroke="#000" stroke-width="0.5" stroke-opacity="0.35" fill="none" stroke-linecap="round" stroke-linejoin="round"/>
<path d="M 1601.1 876.0 L 1601.6 873.1 L 1604.7 859.9 L 1617.4 835.9 L 1625.5 814.5 L 1638.5 806.0 L 1651.2 795.6 L 1670.4 779.5 L 1682.2 768.0 L 1693.8 757.7 L 1694.2 757.1" stroke="#000" stroke-width="3.2" stroke-opacity="0.9" fill="none" stroke-linecap="round" stroke-linejoin="round"/>
<path d="M 1599.4 886.8 L 1601.1 876.0" stroke="#000" stroke-width="3.2" stroke-opacity="0.9" fill="none" stroke-linecap="round" stroke-linejoin="round"/>
<path d="M 1571.1 1012.7 L 1574.0 1004.5 L 1592.8 937.1 L 1598.8 890.9 L 1599.4 886.8" stroke="#000" stroke-width="3.2" stroke-opacity="0.9" fill="none" stroke-linecap="round" stroke-linejoin="round"/>
<path d="M 1411.1 1141.9 L 1424.8 1133.9 L 1448.0 1123.1 L 1480.1 1100.0 L 1536.8 1057.2 L 1559.0 1037.5 L 1568.0 1021.7 L 1568.3 1020.8" stroke="#000" stroke-width="3.2" stroke-opacity="0.9" fill="none" stroke-linecap="round" stroke-linejoin="round"/>
<path d="M 1402.4 1146.9 L 1411.1 1141.9" stroke="#000" stroke-width="3.2" stroke-opacity="0.9" fill="none" stroke-linecap="round" stroke-linejoin="round"/>
<path d="M 1304.8 314.2 L 1285.0 346.7 L 1269.8 371.9 L 1258.5 388.6 L 1256.6 391.5 L 1258.8 393.6" stroke="#000" stroke-width="0.5" stroke-opacity="0.35" fill="none" stroke-linecap="round" stroke-linejoin="round"/>
<path d="M 295.1 397.3 L 298.5 406.5 L 309.0 447.8 L 306.7 480.1 L 306.3 494.7 L 304.1 519.3 L 300.2 541.0 L 304.1 553.2" stroke="#000" stroke-width="1.3" stroke-opacity="0.8" fill="none" stroke-linecap="round" stroke-linejoin="round"/>
<path d="M 354.4 1073.2 L 353.7 1074.7 L 353.6 1076.3 L 353.9 1077.9 L 354.6 1079.3 L 355.6 1080.4 L 356.8 1081.2 L 358.3 1081.6 L 359.8 1081.7 L 361.4 1081.2 L 362.8 1080.4 L 363.9 1079.2 L 364.6 1077.6 L 364.9 1076.0 L 364.5 1074.1 L 363.6 1072.4 L 362.1 1071.2 L 360.4 1070.5 L 358.5 1070.4 L 356.7 1071.0 L 355.4 1071.9 L 354.4 1073.2" stroke="#000" stroke-width="1.3" stroke-opacity="0.8" fill="none" stroke-linecap="round" stroke-linejoin="round"/>
<path d="M 613.5 155.7 L 591.7 130.8 L 579.9 116.5" stroke="#000" stroke-width="1.3" stroke-opacity="0.8" fill="none" stroke-linecap="round" stroke-linejoin="round"/>
<path d="M 517.7 -25.3 L 521.7 -11.9 L 520.0 37.2 L 522.1 59.9 L 530.8 80.6 L 563.4 129.3" stroke="#000" stroke-width="1.3" stroke-opacity="0.8" fill="none" stroke-linecap="round" stroke-linejoin="round"/>
<path d="M 359.8 1081.7 L 376.4 1091.5" stroke="#000" stroke-width="1.3" stroke-opacity="0.8" fill="none" stroke-linecap="round" stroke-linejoin="round"/>
<path d="M 1352.0 359.2 L 1333.5 340.6 L 1325.1 332.3 L 1318.2 326.3" stroke="#000" stroke-width="1.3" stroke-opacity="0.8" fill="none" stroke-linecap="round" stroke-linejoin="round"/>
<path d="M 808.5 14.5 L 804.5 10.6 L 801.7 8.1 L 800.2 6.5 L 799.2 5.4 L 798.0 3.9" stroke="#000" stroke-width="1.3" stroke-opacity="0.8" fill="none" stroke-linecap="round" stroke-linejoin="round"/>
<path d="M 789.6 7.2 L 790.0 9.1 L 790.3 10.6 L 790.3 12.5 L 790.1 16.5 L 790.6 14.7 L 791.8 11.9 L 792.8 10.0 L 793.5 8.6" stroke="#000" stroke-width="1.3" stroke-opacity="0.8" fill="none" stroke-linecap="round" stroke-linejoin="round"/>
<path d="M 1291.5 302.3 L 1276.8 306.3" stroke="#000" stroke-width="0.7" stroke-opacity="0.55" fill="none" stroke-linecap="round" stroke-linejoin="round"/>
<path d="M 1420.6 337.6 L 1355.9 312.1" stroke="#000" stroke-width="0.9" stroke-opacity="0.6" fill="none" stroke-linecap="round" stroke-linejoin="round"/>
<path d="M 1268.3 198.6 L 1269.2 194.6 L 1271.5 179.4" stroke="#000" stroke-width="1.3" stroke-opacity="0.8" fill="none" stroke-linecap="round" stroke-linejoin="round"/>
<path d="M 1209.2 271.7 L 1241.3 277.3" stroke="#000" stroke-width="0.7" stroke-opacity="0.55" fill="none" stroke-linecap="round" stroke-linejoin="round"/>
<path d="M 1296.1 217.7 L 1280.3 238.4 L 1263.7 260.5" stroke="#000" stroke-width="0.7" stroke-opacity="0.55" fill="none" stroke-linecap="round" stroke-linejoin="round"/>
<path d="M 1252.9 193.7 L 1243.6 243.5" stroke="#000" stroke-width="0.7" stroke-opacity="0.55" fill="none" stroke-linecap="round" stroke-linejoin="round"/>
<path d="M 1217.9 246.6 L 1228.0 240.6" stroke="#000" stroke-width="0.7" stroke-opacity="0.55" fill="none" stroke-linecap="round" stroke-linejoin="round"/>
<path d="M 1268.4 145.6 L 1263.7 145.3 L 1258.9 147.7" stroke="#000" stroke-width="1.3" stroke-opacity="0.8" fill="none" stroke-linecap="round" stroke-linejoin="round"/>
<path d="M 1304.8 314.2 L 1303.4 312.9 L 1291.5 302.3" stroke="#000" stroke-width="1.3" stroke-opacity="0.8" fill="none" stroke-linecap="round" stroke-linejoin="round"/>
<path d="M 1328.2 685.5 L 1325.4 677.3" stroke="#000" stroke-width="0.5" stroke-opacity="0.35" fill="none" stroke-linecap="round" stroke-linejoin="round"/>
<path d="M 1288.8 692.4 L 1287.9 684.1" stroke="#000" stroke-width="0.5" stroke-opacity="0.35" fill="none" stroke-linecap="round" stroke-linejoin="round"/>
<path d="M 1146.2 240.5 L 1141.9 254.8 L 1140.5 259.6" stroke="#000" stroke-width="1.3" stroke-opacity="0.8" fill="none" stroke-linecap="round" stroke-linejoin="round"/>
<path d="M 1241.8 377.1 L 1234.4 371.7 L 1223.0 363.4" stroke="#000" stroke-width="0.7" stroke-opacity="0.55" fill="none" stroke-linecap="round" stroke-linejoin="round"/>
<path d="M 794.6 8.4 L 796.7 9.0 L 799.1 9.8 L 801.9 11.0 L 808.5 14.5" stroke="#000" stroke-width="1.3" stroke-opacity="0.8" fill="none" stroke-linecap="round" stroke-linejoin="round"/>
<path d="M 1159.7 451.3 L 1161.2 453.1 L 1185.1 478.4 L 1187.8 481.6 L 1192.4 487.0" stroke="#000" stroke-width="0.5" stroke-opacity="0.35" fill="none" stroke-linecap="round" stroke-linejoin="round"/>
<path d="M 1161.7 449.8 L 1159.7 451.3" stroke="#000" stroke-width="0.5" stroke-opacity="0.35" fill="none" stroke-linecap="round" stroke-linejoin="round"/>
<path d="M 1163.7 448.3 L 1161.7 449.8" stroke="#000" stroke-width="0.5" stroke-opacity="0.35" fill="none" stroke-linecap="round" stroke-linejoin="round"/>
<path d="M 1146.3 522.4 L 1147.6 516.3 L 1148.4 507.5 L 1148.9 496.0 L 1149.1 486.7 L 1146.9 474.3 L 1144.4 465.1" stroke="#000" stroke-width="0.5" stroke-opacity="0.35" fill="none" stroke-linecap="round" stroke-linejoin="round"/>
<path d="M 1141.5 475.4 L 1144.2 474.8" stroke="#000" stroke-width="0.5" stroke-opacity="0.35" fill="none" stroke-linecap="round" stroke-linejoin="round"/>
<path d="M 1144.2 474.8 L 1146.9 474.3" stroke="#000" stroke-width="0.5" stroke-opacity="0.35" fill="none" stroke-linecap="round" stroke-linejoin="round"/>
<path d="M 1097.4 392.7 L 1095.1 390.6 L 1094.2 388.8 L 1093.7 386.8 L 1093.3 383.0" stroke="#000" stroke-width="1.3" stroke-opacity="0.8" fill="none" stroke-linecap="round" stroke-linejoin="round"/>
<path d="M 1086.6 385.6 L 1089.1 385.4 L 1090.4 385.0 L 1091.7 384.3 L 1093.3 383.0" stroke="#000" stroke-width="1.3" stroke-opacity="0.8" fill="none" stroke-linecap="round" stroke-linejoin="round"/>
<path d="M 1086.6 385.6 L 1088.0 388.2 L 1088.6 390.4 L 1088.6 392.5 L 1087.3 396.0" stroke="#000" stroke-width="1.3" stroke-opacity="0.8" fill="none" stroke-linecap="round" stroke-linejoin="round"/>
<path d="M 1097.4 392.7 L 1094.5 393.1 L 1092.2 393.8 L 1089.9 394.6 L 1087.3 396.0" stroke="#000" stroke-width="1.3" stroke-opacity="0.8" fill="none" stroke-linecap="round" stroke-linejoin="round"/>
<path d="M 1189.6 479.9 L 1187.8 481.6" stroke="#000" stroke-width="0.5" stroke-opacity="0.35" fill="none" stroke-linecap="round" stroke-linejoin="round"/>
<path d="M 1191.4 478.2 L 1189.6 479.9" stroke="#000" stroke-width="0.5" stroke-opacity="0.35" fill="none" stroke-linecap="round" stroke-linejoin="round"/>
<path d="M 1195.1 488.6 L 1192.4 487.0" stroke="#000" stroke-width="0.5" stroke-opacity="0.35" fill="none" stroke-linecap="round" stroke-linejoin="round"/>
<path d="M 1141.7 521.4 L 1143.6 521.8" stroke="#000" stroke-width="0.5" stroke-opacity="0.35" fill="none" stroke-linecap="round" stroke-linejoin="round"/>
<path d="M 1143.6 521.8 L 1146.3 522.4" stroke="#000" stroke-width="0.5" stroke-opacity="0.35" fill="none" stroke-linecap="round" stroke-linejoin="round"/>
<path d="M 1285.7 537.0 L 1288.4 534.2 L 1289.6 532.2 L 1290.5 528.3 L 1290.4 525.9 L 1289.7 522.6 L 1287.5 519.1 L 1284.8 516.6 L 1282.3 515.5 L 1279.2 514.7 L 1275.9 515.0 L 1272.3 516.2 L 1268.9 518.7 L 1267.5 520.5 L 1266.6 522.1 L 1266.1 523.6 L 1265.6 526.3 L 1265.7 528.2 L 1266.1 530.5 L 1266.8 532.4 L 1267.9 534.4 L 1270.0 536.7 L 1272.7 538.6 L 1275.2 539.4 L 1278.9 539.7 L 1282.7 538.9 L 1285.7 537.0" stroke="#000" stroke-width="0.5" stroke-opacity="0.35" fill="none" stroke-linecap="round" stroke-linejoin="round"/>
<path d="M 1306.8 545.8 L 1304.4 543.2 L 1302.3 541.7 L 1299.4 540.4 L 1296.5 540.1 L 1293.6 540.1 L 1290.7 540.8 L 1288.3 541.8 L 1286.1 543.3 L 1283.4 546.0 L 1281.6 549.4 L 1280.4 553.0 L 1280.2 556.0 L 1280.3 558.8 L 1281.0 561.5 L 1282.2 564.2 L 1284.1 566.8" stroke="#000" stroke-width="0.5" stroke-opacity="0.35" fill="none" stroke-linecap="round" stroke-linejoin="round"/>
<path d="M 1263.1 509.0 L 1268.2 501.6" stroke="#000" stroke-width="0.5" stroke-opacity="0.35" fill="none" stroke-linecap="round" stroke-linejoin="round"/>
<path d="M 1266.1 523.6 L 1265.5 521.5 L 1265.3 515.6 L 1263.1 509.0" stroke="#000" stroke-width="0.5" stroke-opacity="0.35" fill="none" stroke-linecap="round" stroke-linejoin="round"/>
<path d="M 1284.1 566.8 L 1286.7 568.7 L 1290.0 570.6 L 1292.9 571.7 L 1296.2 572.2 L 1299.7 572.2 L 1302.2 571.6 L 1305.0 570.5 L 1307.5 569.0 L 1309.0 567.8 L 1310.9 565.0" stroke="#000" stroke-width="0.5" stroke-opacity="0.35" fill="none" stroke-linecap="round" stroke-linejoin="round"/>
<path d="M 1310.9 565.0 L 1312.8 560.5 L 1313.7 556.4 L 1313.8 553.3 L 1313.6 550.8 L 1313.0 547.9 L 1311.7 545.3 L 1309.6 542.9" stroke="#000" stroke-width="0.5" stroke-opacity="0.35" fill="none" stroke-linecap="round" stroke-linejoin="round"/>
<path d="M 1310.9 565.0 L 1318.7 569.8 L 1322.1 571.9" stroke="#000" stroke-width="0.5" stroke-opacity="0.35" fill="none" stroke-linecap="round" stroke-linejoin="round"/>
<path d="M 1290.5 528.3 L 1292.2 532.5 L 1293.7 534.8 L 1296.6 537.9 L 1299.4 540.4" stroke="#000" stroke-width="0.5" stroke-opacity="0.35" fill="none" stroke-linecap="round" stroke-linejoin="round"/>
<path d="M 1340.8 482.5 L 1336.4 482.4 L 1331.9 482.4 L 1330.0 483.6 L 1326.3 485.9 L 1324.0 488.5 L 1321.5 492.1 L 1320.2 496.4 L 1319.3 498.8 L 1317.9 501.5 L 1315.7 503.9 L 1313.0 505.5 L 1309.9 506.6 L 1305.5 506.1 L 1302.3 504.7 L 1297.1 501.5 L 1293.5 499.7 L 1290.0 499.0 L 1286.3 499.4 L 1283.4 500.3 L 1276.1 503.1" stroke="#000" stroke-width="0.5" stroke-opacity="0.35" fill="none" stroke-linecap="round" stroke-linejoin="round"/>
<path d="M 1276.1 503.1 L 1268.2 501.6" stroke="#000" stroke-width="0.5" stroke-opacity="0.35" fill="none" stroke-linecap="round" stroke-linejoin="round"/>
<path d="M 1289.4 562.2 L 1284.1 566.8 L 1277.3 573.4" stroke="#000" stroke-width="0.5" stroke-opacity="0.35" fill="none" stroke-linecap="round" stroke-linejoin="round"/>
<path d="M 1301.2 558.7 L 1305.9 561.8 L 1310.9 565.0" stroke="#000" stroke-width="0.5" stroke-opacity="0.35" fill="none" stroke-linecap="round" stroke-linejoin="round"/>
<path d="M 1301.2 558.7 L 1301.9 557.0 L 1302.0 555.4 L 1301.7 553.8 L 1300.8 552.2 L 1299.3 551.1 L 1297.6 550.5 L 1295.9 550.5 L 1294.3 551.0 L 1293.0 551.7 L 1292.1 552.8" stroke="#000" stroke-width="0.5" stroke-opacity="0.35" fill="none" stroke-linecap="round" stroke-linejoin="round"/>
<path d="M 1283.4 546.0 L 1288.9 550.3 L 1292.1 552.8" stroke="#000" stroke-width="0.5" stroke-opacity="0.35" fill="none" stroke-linecap="round" stroke-linejoin="round"/>
<path d="M 1305.9 561.8 L 1303.5 563.9 L 1300.3 565.4 L 1297.8 565.8 L 1294.7 565.5 L 1291.9 564.5 L 1289.4 562.2 L 1287.7 559.0 L 1287.1 556.3 L 1287.5 553.7 L 1288.9 550.3" stroke="#000" stroke-width="0.5" stroke-opacity="0.35" fill="none" stroke-linecap="round" stroke-linejoin="round"/>
<path d="M 1318.7 569.8 L 1315.8 574.4 L 1313.8 576.2 L 1310.8 578.1 L 1307.2 579.8 L 1303.5 581.1 L 1299.9 581.8 L 1295.9 582.0 L 1291.5 581.6 L 1287.6 580.6 L 1283.9 579.0 L 1280.6 577.0 L 1277.3 573.4" stroke="#000" stroke-width="0.5" stroke-opacity="0.35" fill="none" stroke-linecap="round" stroke-linejoin="round"/>
<path d="M 1309.6 542.9 L 1306.8 545.8" stroke="#000" stroke-width="0.5" stroke-opacity="0.35" fill="none" stroke-linecap="round" stroke-linejoin="round"/>
<path d="M 1288.3 523.3 L 1286.9 522.0 L 1285.1 520.8 L 1283.0 520.3 L 1281.0 520.5 L 1278.9 521.4 L 1277.2 522.9 L 1275.8 525.3" stroke="#000" stroke-width="0.5" stroke-opacity="0.35" fill="none" stroke-linecap="round" stroke-linejoin="round"/>
<path d="M 1275.8 525.3 L 1266.6 522.1" stroke="#000" stroke-width="0.5" stroke-opacity="0.35" fill="none" stroke-linecap="round" stroke-linejoin="round"/>
<path d="M 1289.7 522.6 L 1288.3 523.3" stroke="#000" stroke-width="0.5" stroke-opacity="0.35" fill="none" stroke-linecap="round" stroke-linejoin="round"/>
<path d="M 852.0 336.1 L 846.2 334.0 L 821.9 322.8 L 811.9 316.2 L 805.8 312.7 L 769.8 294.9 L 762.0 291.0 L 751.9 286.4 L 721.5 273.7" stroke="#000" stroke-width="2.4" stroke-opacity="0.95" fill="none" stroke-linecap="round" stroke-linejoin="round"/>
<path d="M 846.9 354.1 L 852.1 358.6" stroke="#000" stroke-width="0.9" stroke-opacity="0.6" fill="none" stroke-linecap="round" stroke-linejoin="round"/>
<path d="M 826.7 378.8 L 795.9 346.5" stroke="#000" stroke-width="1.3" stroke-opacity="0.8" fill="none" stroke-linecap="round" stroke-linejoin="round"/>
<path d="M 1252.5 688.2 L 1284.8 648.3 L 1284.4 641.1 L 1283.5 634.6 L 1299.8 616.8 L 1309.2 606.5 L 1315.0 598.2 L 1318.8 593.0 L 1319.4 592.1 L 1325.2 580.6 L 1335.3 576.2 L 1343.1 570.4 L 1341.4 561.7 L 1349.9 549.5 L 1361.4 534.9 L 1366.2 516.6 L 1367.5 506.5" stroke="#000" stroke-width="3.2" stroke-opacity="0.9" fill="none" stroke-linecap="round" stroke-linejoin="round"/>
<path d="M 1244.2 702.5 L 1252.5 688.2" stroke="#000" stroke-width="3.2" stroke-opacity="0.9" fill="none" stroke-linecap="round" stroke-linejoin="round"/>
<path d="M 1420.6 537.5 L 1415.0 534.0 L 1391.7 519.6 L 1379.9 512.6 L 1367.5 506.5 L 1364.8 491.9 L 1360.8 486.5" stroke="#000" stroke-width="3.2" stroke-opacity="0.9" fill="none" stroke-linecap="round" stroke-linejoin="round"/>
<path d="M 1436.2 547.5 L 1420.6 537.5" stroke="#000" stroke-width="3.2" stroke-opacity="0.9" fill="none" stroke-linecap="round" stroke-linejoin="round"/>
<path d="M 360.8 1061.3 L 361.4 1054.8 L 383.7 1026.0 L 395.0 1002.9 L 392.0 979.9 L 384.3 961.2 L 378.0 950.8 L 375.9 934.6 L 380.6 921.5 L 392.3 897.9 L 401.5 884.1 L 402.6 875.2 L 405.6 860.1 L 418.3 839.7 L 433.5 824.1 L 452.9 808.7 L 473.0 783.6 L 479.5 776.2 L 496.1 746.3 L 504.1 729.8 L 510.6 713.8 L 512.3 702.0 L 510.9 687.8 L 506.1 666.6 L 496.4 653.4 L 483.9 640.4 L 478.3 623.8 L 477.9 609.1 L 483.5 588.8 L 483.9 575.3 L 481.4 557.1 L 487.6 528.7" stroke="#000" stroke-width="3.2" stroke-opacity="0.9" fill="none" stroke-linecap="round" stroke-linejoin="round"/>
<path d="M 355.4 1085.7 L 359.9 1073.1 L 360.8 1061.3" stroke="#000" stroke-width="3.2" stroke-opacity="0.9" fill="none" stroke-linecap="round" stroke-linejoin="round"/>
<path d="M 1060.6 919.6 L 1059.1 926.7 L 1060.7 938.8 L 1058.2 944.2 L 1046.6 939.9 L 1011.0 922.0 L 987.7 913.3 L 961.4 903.3 L 945.2 895.1 L 935.4 884.7 L 915.6 865.0 L 902.7 857.0 L 888.6 858.0 L 867.6 856.9 L 848.0 846.6 L 826.7 838.6 L 813.6 835.7 L 803.9 834.2" stroke="#000" stroke-width="0.5" stroke-opacity="0.35" fill="none" stroke-linecap="round" stroke-linejoin="round"/>
<path d="M 862.6 822.5 L 864.4 829.5 L 873.2 831.7 L 880.8 832.3 L 889.1 837.9 L 899.1 848.6 L 902.7 857.0" stroke="#000" stroke-width="0.5" stroke-opacity="0.35" fill="none" stroke-linecap="round" stroke-linejoin="round"/>
<path d="M 769.7 1104.7 L 781.0 1086.8 L 784.5 1070.6 L 784.6 1055.2 L 789.6 1035.4 L 795.0 1006.3 L 802.5 987.4" stroke="#000" stroke-width="0.5" stroke-opacity="0.35" fill="none" stroke-linecap="round" stroke-linejoin="round"/>
<path d="M 1060.7 938.8 L 1062.0 953.3 L 1059.6 969.1 L 1059.1 986.3 L 1061.8 1007.4 L 1060.4 1029.9 L 1108.4 1068.3 L 1110.5 1076.6 L 1095.5 1083.5 L 1086.4 1120.4 L 1067.1 1135.3" stroke="#000" stroke-width="0.5" stroke-opacity="0.35" fill="none" stroke-linecap="round" stroke-linejoin="round"/>
<path d="M 942.5 851.8 L 1005.4 819.4 L 1083.0 782.6" stroke="#000" stroke-width="0.5" stroke-opacity="0.35" fill="none" stroke-linecap="round" stroke-linejoin="round"/>
<path d="M 1647.2 397.4 L 1626.2 419.3 L 1630.6 444.8 L 1633.3 454.7 L 1635.8 464.0 L 1616.3 496.3 L 1610.9 517.8 L 1590.7 524.6 L 1611.3 575.5" stroke="#000" stroke-width="0.5" stroke-opacity="0.35" fill="none" stroke-linecap="round" stroke-linejoin="round"/>
<path d="M 1523.6 330.9 L 1569.5 391.6 L 1598.8 489.5 L 1642.9 519.4 L 1655.7 528.1 L 1703.2 561.0 L 1719.8 594.2 L 1742.8 640.9" stroke="#000" stroke-width="0.5" stroke-opacity="0.35" fill="none" stroke-linecap="round" stroke-linejoin="round"/>
<path d="M 908.5 344.2 L 893.1 345.7 L 882.1 344.7 L 866.9 341.1 L 856.5 337.7 L 852.0 336.1" stroke="#000" stroke-width="2.4" stroke-opacity="0.95" fill="none" stroke-linecap="round" stroke-linejoin="round"/>
<path d="M 852.1 358.6 L 855.3 361.7 L 863.4 369.0 L 871.7 377.5" stroke="#000" stroke-width="1.3" stroke-opacity="0.8" fill="none" stroke-linecap="round" stroke-linejoin="round"/>
  
    <g stroke="#000" fill="none" stroke-width="2.9952">
      <circle cx="936" cy="702" r="16.848"/>
      <circle cx="936" cy="702" r="3.744" fill="#000" stroke="none"/>
    </g>
  <rect width="100%" height="100%" fill="url(#vignette)"/>
  
    <g transform="translate(1776, 116)" stroke="#000" stroke-width="2.2464" fill="#000">
      <line x1="0" y1="37.44" x2="0" y2="-37.44"/>
      <path d="M 0 -37.44 L 13.104 -13.104 L 0 -22.464 L -13.104 -13.104 Z"/>
      <text x="0" y="59.44" text-anchor="middle" font-family="Georgia, serif" font-size="22.464000000000002">N</text>
    </g>
  <rect x="66" y="66" width="1740" height="1272" fill="none" stroke="#000" stroke-width="2" stroke-opacity="0.7"/>
  <rect x="74" y="74" width="1724" height="1256" fill="none" stroke="#000" stroke-width="1" stroke-opacity="0.4"/>
  
</svg>