<svg xmlns="http://www.w3.org/2000/svg" width="1872" height="1404" viewBox="0 0 1872 1404">
  <defs>
    <radialGradient id="vignette" cx="50%" cy="50%" r="954.72" gradientUnits="userSpaceOnUse">
      <stop offset="55%" stop-color="#fff" stop-opacity="0"/>
      <stop offset="100%" stop-color="#fff" stop-opacity="1"/>
    </radialGradient>
  </defs>
  <rect width="100%" height="100%" fill="#fff"/>
  <path d="M 1696.0 337.7 L 1665.4 542.5 L 1664.0 550.7 L 1610.9 888.8" stroke="#000" stroke-width="1.3" stroke-opacity="0.8" fill="none" stroke-linecap="round" stroke-linejoin="round"/>
<path d="M 998.1 1160.5 L 1004.6 1160.2 L 1173.7 1165.1 L 1391.8 1169.5 L 1398.0 1169.7 L 1608.0 1178.7 L 1790.0 1185.6 L 2111.3 1193.8 L 2233.7 1200.8 L 2240.0 1201.0 L 2382.3 1216.5 L 2558.7 1244.7 L 2632.6 1256.6 L 2663.6 1261.5" stroke="#000" stroke-width="1.3" stroke-opacity="0.8" fill="none" stroke-linecap="round" stroke-linejoin="round"/>
<path d="M 2355.8 326.7 L 2034.3 283.7 L 1916.6 267.9 L 1714.0 236.3 L 1468.2 201.1 L 1184.7 160.7" stroke="#000" stroke-width="1.3" stroke-opacity="0.8" fill="none" stroke-linecap="round" stroke-linejoin="round"/>
<path d="M 989.9 854.9 L 1069.1 860.2 L 1075.3 860.8 L 1187.5 866.3 L 1400.3 881.2 L 1406.1 881.4 L 1610.9 888.8 L 1814.6 900.0 L 1988.3 908.4 L 2260.3 922.7 L 2266.6 923.6" stroke="#000" stroke-width="1.3" stroke-opacity="0.8" fill="none" stroke-linecap="round" stroke-linejoin="round"/>
<path d="M 1696.0 337.7 L 1458.4 305.1" stroke="#000" stroke-width="1.3" stroke-opacity="0.8" fill="none" stroke-linecap="round" stroke-linejoin="round"/>
<path d="M 1398.0 1169.7 L 1406.1 881.4 L 1422.6 514.2 L 1423.3 505.5 L 1458.4 305.1 L 1470.6 211.8 L 1468.2 201.1" stroke="#000" stroke-width="1.3" stroke-opacity="0.8" fill="none" stroke-linecap="round" stroke-linejoin="round"/>
<path d="M 1173.7 1165.1 L 1187.5 866.3 L 1248.9 535.1 L 1257.1 490.9 L 1258.5 482.0" stroke="#000" stroke-width="1.3" stroke-opacity="0.8" fill="none" stroke-linecap="round" stroke-linejoin="round"/>
<path d="M 1361.2 2193.3 L 1361.0 2186.8 L 1366.2 2066.8 L 1372.0 1930.4 L 1375.9 1839.5 L 1384.8 1583.0 L 1389.1 1448.7 L 1398.0 1169.7" stroke="#000" stroke-width="1.3" stroke-opacity="0.8" fill="none" stroke-linecap="round" stroke-linejoin="round"/>
<path d="M 1173.7 1165.1 L 1165.4 1409.3 L 1163.2 1430.7 L 1151.6 1557.0 L 1124.9 1812.2" stroke="#000" stroke-width="1.3" stroke-opacity="0.8" fill="none" stroke-linecap="round" stroke-linejoin="round"/>
<path d="M 968.3 853.4 L 989.9 854.9" stroke="#000" stroke-width="1.3" stroke-opacity="0.8" fill="none" stroke-linecap="round" stroke-linejoin="round"/>
<path d="M -385.9 636.6 L -98.4 665.3 L 128.0 689.0 L 163.0 693.2 L 195.7 696.3 L 228.5 699.5 L 261.9 702.6 L 295.7 705.5 L 395.2 715.0" stroke="#000" stroke-width="1.3" stroke-opacity="0.8" fill="none" stroke-linecap="round" stroke-linejoin="round"/>
<path d="M 406.1 605.3 L 307.4 596.0 L 272.7 592.7 L 239.8 590.0 L 207.6 586.3 L 173.6 583.2 L 139.9 579.5 L 37.5 567.5" stroke="#000" stroke-width="1.3" stroke-opacity="0.8" fill="none" stroke-linecap="round" stroke-linejoin="round"/>
<path d="M 137.4 1886.4 L 194.9 1812.1 L 223.1 1761.6 L 269.2 1621.1 L 290.6 1554.7 L 330.3 1511.2 L 401.5 1459.3 L 487.6 1409.6 L 491.5 1390.7 L 519.8 1056.8 L 534.1 906.8 L 543.2 810.6 L 566.6 509.3 L 501.6 502.9 L 417.2 493.2 L 369.7 488.6 L 283.2 482.2 L 250.0 478.7 L 184.9 472.8 L 151.2 470.0 L -76.6 445.3" stroke="#000" stroke-width="1.3" stroke-opacity="0.8" fill="none" stroke-linecap="round" stroke-linejoin="round"/>
<path d="M 417.2 493.2 L 406.1 605.3 L 395.2 715.0 L 386.7 796.1" stroke="#000" stroke-width="1.3" stroke-opacity="0.8" fill="none" stroke-linecap="round" stroke-linejoin="round"/>
<path d="M 471.3 804.5 L 543.2 810.6 L 621.5 818.7 L 664.1 822.3 L 787.5 835.0 L 963.3 852.9 L 968.3 853.4" stroke="#000" stroke-width="1.3" stroke-opacity="0.8" fill="none" stroke-linecap="round" stroke-linejoin="round"/>
<path d="M 510.5 407.3 L 501.6 502.9 L 490.3 613.6 L 479.4 724.2 L 471.3 804.5" stroke="#000" stroke-width="1.3" stroke-opacity="0.8" fill="none" stroke-linecap="round" stroke-linejoin="round"/>
<path d="M 283.2 482.2 L 272.7 592.7 L 261.9 702.6 L 252.4 790.9 L 242.5 892.4" stroke="#000" stroke-width="1.3" stroke-opacity="0.8" fill="none" stroke-linecap="round" stroke-linejoin="round"/>
<path d="M 1528.8 -1996.4 L 1522.0 -1938.7 L 1474.4 -1706.1 L 1335.2 -829.1 L 1331.5 -806.7 L 1286.2 -520.2 L 1234.9 -195.6 L 1178.6 159.8 L 1130.4 464.8 L 1129.4 471.4 L 1093.4 712.4 L 1069.1 860.2 L 1056.9 934.7 L 1018.8 1097.0 L 1000.0 1154.6 L 998.1 1160.5 L 973.5 1236.0 L 865.5 1524.3 L 759.6 1762.3 L 652.3 2051.6 L 649.1 2058.1 L 640.1 2076.3" stroke="#000" stroke-width="3.6" stroke-opacity="1" fill="none" stroke-linecap="round" stroke-linejoin="round"/>
<path d="M 889.7 429.8 L 784.2 413.2 L 726.5 396.9 L 681.4 379.5 L 641.6 352.2 L 602.6 316.5 L 523.1 206.4 L 428.4 89.1 L 406.0 68.4 L 344.7 23.7 L 309.4 6.2 L 297.1 0.1 L 227.3 -23.8 L 183.4 -36.5 L 112.3 -57.2 L 44.3 -90.1 L 7.9 -100.5" stroke="#000" stroke-width="2.4" stroke-opacity="0.95" fill="none" stroke-linecap="round" stroke-linejoin="round"/>
<path d="M 0.2 -76.9 L 37.5 -66.5 L 109.2 -49.8 L 182.2 -27.8 L 288.5 4.3 L 349.6 35.9 L 406.3 82.1 L 407.7 83.2 L 424.6 97.0 L 489.5 178.5 L 514.6 211.2 L 525.3 225.2 L 596.4 321.0 L 637.4 358.1 L 678.5 385.7 L 702.9 395.9 L 736.6 410.0 L 779.3 422.9 L 839.6 431.7 L 851.8 433.5 L 888.4 438.2" stroke="#000" stroke-width="2.4" stroke-opacity="0.95" fill="none" stroke-linecap="round" stroke-linejoin="round"/>
<path d="M 3072.2 745.2 L 2668.9 684.4 L 2310.6 635.8 L 2300.6 634.1 L 1864.6 571.4 L 1665.4 542.5 L 1423.3 505.5 L 1416.1 504.7 L 1258.5 482.0 L 1136.4 465.9 L 1130.4 464.8 L 922.7 434.6" stroke="#000" stroke-width="2.4" stroke-opacity="0.95" fill="none" stroke-linecap="round" stroke-linejoin="round"/>
<path d="M 923.1 442.7 L 1129.4 471.4 L 1135.4 472.3 L 1257.1 490.9 L 1415.3 512.7 L 1422.6 514.2 L 1664.0 550.7 L 1863.6 578.2 L 2299.6 644.2 L 2308.5 645.4 L 2657.4 692.6 L 3066.5 752.4" stroke="#000" stroke-width="2.4" stroke-opacity="0.95" fill="none" stroke-linecap="round" stroke-linejoin="round"/>
<path d="M 1464.0 315.2 L 1473.1 312.5 L 1682.4 344.3 L 1659.7 519.6 L 1651.3 523.2 L 1439.1 492.1 L 1435.1 486.8 L 1464.0 315.2" stroke="#000" stroke-width="1" stroke-opacity="0.2" fill="#000" fill-opacity="0.05" stroke-linecap="round" stroke-linejoin="round"/>
<path d="M 514.6 211.2 L 523.1 206.4 L 535.3 82.9" stroke="#000" stroke-width="0.7" stroke-opacity="0.55" fill="none" stroke-linecap="round" stroke-linejoin="round"/>
<path d="M 738.4 189.4 L 737.9 153.2" stroke="#000" stroke-width="0.5" stroke-opacity="0.35" fill="none" stroke-linecap="round" stroke-linejoin="round"/>
<path d="M 888.4 438.2 L 923.1 442.7" stroke="#000" stroke-width="2.4" stroke-opacity="0.95" fill="none" stroke-linecap="round" stroke-linejoin="round"/>
<path d="M 1468.2 201.1 L 1462.7 210.6 L 1448.1 304.0 L 1416.1 504.7 L 1415.3 512.7 L 1400.3 881.2 L 1391.8 1169.5" stroke="#000" stroke-width="1.3" stroke-opacity="0.8" fill="none" stroke-linecap="round" stroke-linejoin="round"/>
<path d="M 654.1 2079.0 L 663.6 2061.5 L 664.1 2059.8 L 665.9 2055.4 L 746.0 1857.3 L 746.4 1856.2 L 779.8 1770.5 L 780.3 1769.1 L 871.7 1525.3 L 979.3 1238.0 L 1004.6 1160.2 L 1024.7 1098.7 L 1062.9 935.9 L 1075.3 860.8 L 1099.5 713.3 L 1135.4 472.3 L 1136.4 465.9 L 1184.7 160.7 L 1240.7 -193.8 L 1292.2 -519.1 L 1337.5 -805.7 L 1343.1 -827.7 L 1348.0 -862.0 L 1480.2 -1703.6 L 1528.1 -1937.8 L 1535.0 -1997.3" stroke="#000" stroke-width="3.6" stroke-opacity="1" fill="none" stroke-linecap="round" stroke-linejoin="round"/>
<path d="M 1391.8 1169.5 L 1380.3 1448.4 L 1376.0 1582.4 L 1369.1 1838.7 L 1365.2 1929.0 L 1354.4 2185.7 L 1353.3 2191.9" stroke="#000" stroke-width="1.3" stroke-opacity="0.8" fill="none" stroke-linecap="round" stroke-linejoin="round"/>
<path d="M 922.7 434.6 L 889.7 429.8" stroke="#000" stroke-width="2.4" stroke-opacity="0.95" fill="none" stroke-linecap="round" stroke-linejoin="round"/>
<path d="M 1248.9 535.1 L 1144.8 518.5" stroke="#000" stroke-width="1.3" stroke-opacity="0.8" fill="none" stroke-linecap="round" stroke-linejoin="round"/>
<path d="M 963.3 852.9 L 960.8 883.9 L 851.9 1088.3 L 743.9 1222.3 L 640.7 1313.3 L 487.6 1409.6" stroke="#000" stroke-width="1.3" stroke-opacity="0.8" fill="none" stroke-linecap="round" stroke-linejoin="round"/>
<path d="M 287.4 794.4 L 291.7 741.7 L 295.7 705.5 L 307.4 596.0" stroke="#000" stroke-width="1.3" stroke-opacity="0.8" fill="none" stroke-linecap="round" stroke-linejoin="round"/>
<path d="M 608.4 747.8 L 611.0 718.1 L 614.8 667.0 L 620.1 605.2 L 626.9 514.2" stroke="#000" stroke-width="1.3" stroke-opacity="0.8" fill="none" stroke-linecap="round" stroke-linejoin="round"/>
<path d="M 566.6 509.3 L 626.9 514.2 L 661.8 517.4 L 689.7 519.7 L 761.7 525.4 L 748.2 670.6 L 747.6 678.3 L 676.0 671.7 L 649.2 669.2 L 614.8 667.0" stroke="#000" stroke-width="1.3" stroke-opacity="0.8" fill="none" stroke-linecap="round" stroke-linejoin="round"/>
<path d="M 664.1 822.3 L 667.8 792.5 L 672.7 730.4 L 676.0 671.7 L 682.1 610.7 L 686.8 547.1 L 689.7 519.7 L 698.5 412.3 L 702.9 395.9" stroke="#000" stroke-width="1.3" stroke-opacity="0.8" fill="none" stroke-linecap="round" stroke-linejoin="round"/>
<path d="M 661.8 517.4 L 649.2 669.2" stroke="#000" stroke-width="1.3" stroke-opacity="0.8" fill="none" stroke-linecap="round" stroke-linejoin="round"/>
<path d="M 827.5 584.1 L 832.3 532.2 L 833.0 511.0 L 834.5 504.8 L 839.6 431.7" stroke="#000" stroke-width="1.3" stroke-opacity="0.8" fill="none" stroke-linecap="round" stroke-linejoin="round"/>
<path d="M 407.7 83.2 L 406.6 84.4 L 401.5 166.3 L 397.9 203.9 L 397.1 222.9 L 393.1 246.3 L 385.4 310.3 L 381.4 367.7 L 369.7 488.6" stroke="#000" stroke-width="1.3" stroke-opacity="0.8" fill="none" stroke-linecap="round" stroke-linejoin="round"/>
<path d="M 106.5 1963.0 L 165.4 1875.6 L 232.9 1767.6 L 267.8 1659.3 L 295.3 1567.6 L 324.5 1527.7 L 411.9 1471.0 L 623.6 1335.7 L 709.1 1268.1 L 864.5 1109.7 L 946.4 934.2 L 973.5 894.3 L 979.4 871.7 L 976.9 847.8 L 967.9 788.2 L 914.2 485.0 L 836.2 -14.0 L 776.8 -373.8 L 770.5 -455.2 L 746.4 -638.0 L 731.0 -678.6 L 700.2 -726.6 L 508.2 -940.0 L 478.4 -996.0 L 478.8 -1050.7 L 553.4 -1429.8 L 577.7 -1468.9 L 656.4 -1550.2 L 858.3 -1730.4 L 1053.1 -1910.5 L 1092.6 -1937.0 L 1151.9 -1952.9 L 1570.5 -2013.9 L 1661.3 -2056.8 L 1741.9 -2128.4 L 1774.8 -2190.4 L 1872.7 -2336.8 L 1927.4 -2388.9 L 1976.0 -2411.2 L 2487.1 -2536.2 L 2685.7 -2661.2 L 2799.1 -2735.7 L 2878.3 -2820.9 L 2917.8 -2886.3 L 2995.1 -2973.5 L 3085.2 -3059.8 L 3101.1 -3081.8 L 3143.8 -3195.3 L 3205.5 -3408.4 L 3204.3 -3493.6 L 3182.7 -3649.0 L 3148.9 -4060.5" stroke="#000" stroke-width="3.2" stroke-opacity="0.9" fill="none" stroke-linecap="round" stroke-linejoin="round"/>
<path d="M 118.8 776.8 L 153.3 781.6 L 186.4 785.3 L 218.9 788.1 L 252.4 790.9 L 287.4 794.4 L 289.7 794.6 L 363.0 800.2 L 386.7 796.1 L 423.7 799.8 L 471.3 804.5" stroke="#000" stroke-width="1.3" stroke-opacity="0.8" fill="none" stroke-linecap="round" stroke-linejoin="round"/>
<path d="M 519.8 1056.8 L 626.6 1042.9 L 690.9 1034.6 L 776.7 1023.4 L 782.6 1001.1 L 788.5 990.6 L 804.3 963.6 L 807.6 947.6 L 803.0 940.8 L 778.2 938.5 L 696.6 931.0 L 635.0 925.4 L 559.9 918.6" stroke="#000" stroke-width="1.3" stroke-opacity="0.8" fill="none" stroke-linecap="round" stroke-linejoin="round"/>
<path d="M 778.2 938.5 L 787.5 835.0" stroke="#000" stroke-width="1.3" stroke-opacity="0.8" fill="none" stroke-linecap="round" stroke-linejoin="round"/>
<path d="M 696.6 931.0 L 687.6 981.7 L 690.9 1034.6" stroke="#000" stroke-width="1.3" stroke-opacity="0.8" fill="none" stroke-linecap="round" stroke-linejoin="round"/>
<path d="M 635.0 925.4 L 632.2 956.2 L 625.0 974.2 L 615.6 1004.2 L 616.1 1014.2 L 626.1 1040.8 L 626.6 1042.9" stroke="#000" stroke-width="1.3" stroke-opacity="0.8" fill="none" stroke-linecap="round" stroke-linejoin="round"/>
<path d="M 923.5 455.8 L 1079.2 477.2 L 1098.8 489.4 L 1103.7 503.4 L 1045.6 833.2 L 1038.9 846.6 L 1030.4 847.8 L 985.2 841.7 L 923.5 455.8" stroke="#000" stroke-width="1" stroke-opacity="0.2" fill="#000" fill-opacity="0.05" stroke-linecap="round" stroke-linejoin="round"/>
<path d="M 289.7 794.6 L 286.3 828.1" stroke="#000" stroke-width="0.7" stroke-opacity="0.55" fill="none" stroke-linecap="round" stroke-linejoin="round"/>
<path d="M 415.0 893.7 L 515.5 904.7 L 534.1 906.8" stroke="#000" stroke-width="0.7" stroke-opacity="0.55" fill="none" stroke-linecap="round" stroke-linejoin="round"/>
<path d="M 423.7 799.8 L 415.0 893.7 L 412.6 921.5 L 411.6 928.9 L 411.3 934.7 L 413.8 949.2 L 413.8 953.1 L 400.0 1011.7" stroke="#000" stroke-width="0.7" stroke-opacity="0.55" fill="none" stroke-linecap="round" stroke-linejoin="round"/>
<path d="M 523.8 823.6 L 515.5 904.7" stroke="#000" stroke-width="0.7" stroke-opacity="0.55" fill="none" stroke-linecap="round" stroke-linejoin="round"/>
  
    <g stroke="#000" fill="none" stroke-width="2.9952">
      <circle cx="936" cy="702" r="16.848"/>
      <circle cx="936" cy="702" r="3.744" fill="#000" stroke="none"/>
    </g>
  <rect width="100%" height="100%" fill="url(#vignette)"/>
  
    <g transform="translate(1776, 116)" stroke="#000" stroke-width="2.2464" fill="#000">
      <line x1="0" y1="37.44" x2="0" y2="-37.44"/>
      <path d="M 0 -37.44 L 13.104 -13.104 L 0 -22.464 L -13.104 -13.104 Z"/>
      <text x="0" y="59.44" text-anchor="middle" font-family="Georgia, serif" font-size="22.464000000000002">N</text>
    </g>
  <rect x="66" y="66" width="1740" height="1272" fill="none" stroke="#000" stroke-width="2" stroke-opacity="0.7"/>
  <rect x="74" y="74" width="1724" height="1256" fill="none" stroke="#000" stroke-width="1" stroke-opacity="0.4"/>
  
</svg>