<svg xmlns="http://www.w3.org/2000/svg" width="1872" height="1404" viewBox="0 0 1872 1404">
  <defs>
    <radialGradient id="vignette" cx="50%" cy="50%" r="954.72" gradientUnits="userSpaceOnUse">
      <stop offset="55%" stop-color="#fff" stop-opacity="0"/>
      <stop offset="100%" stop-color="#fff" stop-opacity="1"/>
    </radialGradient>
  </defs>
  <rect width="100%" height="100%" fill="#fff"/>
  <path d="M -5920.1 -16917.0 L -5927.6 -16839.7 L -5934.7 -16774.5 L -5939.9 -16728.5 L -5948.2 -16655.0 L -5957.1 -16575.7 L -5971.2 -16410.7 L -5975.9 -16366.5 L -5969.9 -16302.0 L -5955.3 -16198.7 L -5950.3 -16151.2 L -5944.6 -16129.2 L -5892.5 -15979.7 L -5876.6 -15930.1 L -5868.8 -15898.0 L -5863.2 -15798.9 L -5842.9 -15701.9 L -5784.4 -15421.0 L -5760.3 -15300.7 L -5730.2 -15157.7 L -5677.3 -14907.2 L -5620.9 -14644.6 L -5568.3 -14414.3 L -5522.3 -14244.3 L -5460.8 -14026.1 L -5404.2 -13827.6 L -5373.7 -13719.4 L -5344.2 -13612.9 L -5266.7 -13340.0 L -5245.1 -13269.5 L -5215.4 -13178.7 L -5189.8 -13097.2 L -5176.1 -13053.4 L -5149.7 -12974.2 L -5147.8 -12968.9 L -5135.0 -12934.2 L -5116.3 -12913.6 L -5087.4 -12886.9 L -5082.9 -12882.8 L -5029.1 -12833.2 L -4996.5 -12796.9 L -4962.5 -12751.5 L -4857.8 -12599.0 L -4841.0 -12573.9 L -4816.6 -12537.8 L -4778.2 -12489.1 L -4735.7 -12442.4 L -4389.9 -12084.5 L -4188.7 -11875.4 L -4164.5 -11850.3 L -4098.0 -11781.4 L -4047.5 -11728.8 L -4029.3 -11703.6 L -4010.8 -11671.5 L -3936.1 -11533.5 L -3828.0 -11333.9 L -3433.0 -10621.2 L -3229.3 -10255.3 L -3124.2 -10068.7 L -3073.9 -9978.8 L -3042.8 -9923.7 L -3035.2 -9910.1 L -3028.0 -9897.3 L -2991.3 -9832.7 L -2976.9 -9802.3 L -2954.2 -9713.3 L -2883.0 -9419.0 L -2749.6 -8928.3 L -2733.9 -8873.6 L -2672.5 -8648.8 L -2628.4 -8485.6 L -2588.3 -8337.5 L -2584.1 -8321.9 L -2545.5 -8174.0 L -2506.0 -8029.5 L -2474.4 -7904.1 L -2433.3 -7746.4 L -2392.9 -7590.9 L -2353.6 -7443.2 L -2311.1 -7278.6 L -2269.9 -7122.3 L -2229.5 -6970.5 L -2218.3 -6926.0 L -2208.0 -6907.3 L -2160.2 -6835.8 L -2101.7 -6737.4 L -2085.5 -6712.0 L -2003.1 -6582.8 L -1969.3 -6534.0 L -1947.0 -6498.0 L -1894.3 -6421.4 L -1860.9 -6368.1 L -1849.7 -6347.2 L -1823.0 -6276.2 L -1763.1 -6122.7 L -1706.6 -5972.9 L -1597.9 -5691.1 L -1592.4 -5676.8 L -1534.6 -5524.2 L -1445.7 -5291.5 L -1355.7 -5053.1 L -1329.7 -4983.1 L -1262.0 -4800.3 L -999.2 -4098.4 L -855.6 -3719.0 L -636.3 -3152.2 L -528.0 -2871.3 L -503.1 -2806.7 L -463.6 -2704.6 L -452.3 -2675.2 L -439.1 -2640.7 L -405.5 -2532.4 L -370.8 -2420.0 L -332.0 -2292.1 L -316.7 -2252.8 L -276.9 -2181.1 L -58.9 -1789.8 L 163.2 -1393.8 L 371.1 -1020.3 L 493.8 -800.3 L 581.8 -642.4 L 660.4 -501.9 L 744.5 -353.2 L 828.6 -201.7 L 895.5 -83.8 L 921.8 -37.4 L 1004.8 113.1" stroke="#000" stroke-width="2.4" stroke-opacity="0.95" fill="none" stroke-linecap="round" stroke-linejoin="round"/>
<path d="M 1004.8 113.1 L 997.2 116.4 L 971.2 115.8 L 680.1 95.3 L 517.8 87.6 L 499.9 88.2 L 455.9 99.2 L 402.0 117.0 L 334.5 142.8 L 260.6 171.5 L 181.4 202.0 L 152.8 210.4 L 133.1 210.6 L 115.2 203.9" stroke="#000" stroke-width="2.4" stroke-opacity="0.95" fill="none" stroke-linecap="round" stroke-linejoin="round"/>
<path d="M 1308.4 645.0 L 1275.2 589.9 L 1224.2 498.5 L 1200.4 455.3 L 1166.3 395.8 L 1114.6 302.1 L 1055.3 202.3 L 1004.8 113.1" stroke="#000" stroke-width="2.4" stroke-opacity="0.95" fill="none" stroke-linecap="round" stroke-linejoin="round"/>
<path d="M 9080.2 -5948.2 L 9065.5 -5942.3 L 9057.6 -5937.6 L 9042.6 -5922.6 L 9010.7 -5887.3 L 9000.0 -5875.4 L 8974.1 -5847.0 L 8932.6 -5801.5 L 8852.6 -5714.1 L 8764.4 -5617.0 L 8762.2 -5617.2 L 8718.4 -5564.8 L 8703.8 -5549.5 L 8681.5 -5530.7 L 8662.2 -5514.8 L 8629.3 -5489.1 L 8608.5 -5472.9 L 8509.5 -5393.9 L 8416.6 -5323.9 L 8295.3 -5234.9 L 8234.1 -5188.4 L 8179.6 -5146.3 L 8157.1 -5129.0 L 8150.5 -5123.2 L 8146.4 -5117.0 L 8140.7 -5106.6 L 8129.7 -5084.1 L 8065.9 -4956.9 L 8052.0 -4928.5 L 8030.8 -4881.5 L 8022.0 -4867.9 L 8014.4 -4858.4 L 8004.6 -4850.3 L 7987.8 -4838.2 L 7901.4 -4781.4 L 7819.1 -4725.2 L 7740.1 -4671.9 L 7657.4 -4616.9 L 7575.4 -4561.7 L 7486.6 -4503.1 L 7418.9 -4457.8 L 7206.8 -4314.4 L 7185.6 -4300.1 L 6949.0 -4140.7 L 6487.6 -3828.5 L 6458.1 -3807.6 L 6442.1 -3792.8 L 6418.9 -3767.1 L 6371.8 -3714.9 L 6233.6 -3562.4 L 6079.1 -3391.5 L 6055.1 -3365.0 L 5861.3 -3150.9 L 5714.3 -2988.7 L 5635.5 -2901.1 L 5581.9 -2839.8 L 5506.6 -2752.9 L 5474.6 -2713.4 L 5448.5 -2678.6 L 5438.9 -2665.7 L 5428.4 -2656.3 L 5410.8 -2644.6 L 5357.2 -2614.1 L 5309.9 -2587.2 L 5271.6 -2565.4 L 5203.7 -2526.4 L 5162.1 -2503.0 L 5150.9 -2493.8 L 5141.2 -2481.8 L 5123.7 -2453.9 L 5097.2 -2409.6 L 5068.6 -2361.9 L 5018.4 -2279.0 L 5007.0 -2262.8 L 4992.4 -2249.1 L 4980.9 -2238.8 L 4946.2 -2212.1 L 4862.7 -2145.3 L 4760.9 -2063.5 L 4649.3 -1974.9 L 4607.1 -1941.3 L 4574.3 -1912.4 L 4536.9 -1875.9 L 4485.0 -1826.3 L 4456.6 -1803.4 L 4414.1 -1771.7 L 4328.0 -1709.0 L 4255.9 -1654.2 L 4183.5 -1600.9 L 4104.1 -1541.7 L 4020.8 -1480.5 L 3979.3 -1449.1 L 3944.2 -1423.8 L 3921.0 -1407.5 L 3889.6 -1388.1 L 3865.7 -1373.2 L 3847.7 -1362.0 L 3787.0 -1323.4 L 3715.1 -1277.9 L 3636.2 -1227.4 L 3602.9 -1204.9 L 3584.3 -1190.0 L 3548.6 -1159.5 L 3484.8 -1103.2 L 3418.2 -1045.5 L 3384.3 -1018.2 L 3353.7 -997.5 L 3329.5 -982.7 L 3289.8 -961.4 L 3173.9 -902.1 L 3070.1 -850.5 L 2980.7 -807.0 L 2957.3 -795.2 L 2936.9 -780.5 L 2916.3 -763.0 L 2887.4 -736.9 L 2836.6 -689.1 L 2747.2 -605.8 L 2655.6 -520.9 L 2559.2 -431.2 L 2476.0 -353.3 L 2402.8 -282.7 L 2329.5 -213.7 L 2310.4 -195.7 L 2212.8 -102.4 L 2115.7 -10.4 L 2050.3 52.3 L 1991.4 108.6 L 1943.7 154.2 L 1851.0 241.0 L 1823.3 270.0 L 1817.1 283.6 L 1808.2 288.3 L 1789.4 304.9 L 1717.0 368.9 L 1681.7 400.7 L 1655.3 427.2 L 1639.8 438.8 L 1619.3 455.8 L 1602.6 473.8 L 1582.0 500.6 L 1556.5 527.7 L 1527.6 552.9 L 1503.4 572.4 L 1495.6 580.6 L 1488.2 589.7 L 1478.6 598.5 L 1470.4 601.8 L 1468.6 602.6 L 1446.4 603.6 L 1390.4 602.4 L 1369.0 604.0 L 1355.6 608.2 L 1339.8 617.5 L 1329.5 626.0 L 1319.2 635.4 L 1308.4 645.0" stroke="#000" stroke-width="2.4" stroke-opacity="0.95" fill="none" stroke-linecap="round" stroke-linejoin="round"/>
<path d="M 872.6 1377.7 L 855.6 1355.5 L 826.0 1310.4 L 769.7 1220.4 L 765.2 1217.0 L 759.1 1212.5 L 738.2 1205.3 L 687.0 1198.3 L 656.3 1189.6 L 608.9 1172.6 L 567.0 1147.4 L 542.1 1136.4 L 529.3 1132.8 L 511.8 1132.6 L 492.5 1136.2 L 477.5 1142.9 L 422.0 1165.0 L 338.9 1195.2 L 287.0 1213.4 L 246.5 1219.3 L 220.7 1224.9 L 148.6 1247.7 L 131.4 1251.9 L 99.9 1255.6 L 32.4 1262.4 L -9.2 1268.6 L -45.1 1274.8 L -108.5 1291.5 L -172.5 1307.8 L -240.2 1328.2 L -281.4 1337.7 L -325.6 1349.9 L -372.6 1367.8 L -424.2 1385.2 L -499.7 1408.4 L -574.1 1428.9 L -626.8 1440.1 L -677.0 1451.5 L -756.7 1477.3 L -792.8 1490.6 L -806.1 1494.3 L -820.5 1503.8 L -836.0 1513.9 L -849.8 1520.7 L -867.8 1527.4 L -899.3 1530.8 L -904.4 1532.6 L -904.0 1541.2 L -905.2 1551.3 L -910.3 1556.8 L -923.0 1558.6 L -974.1 1564.9 L -1051.1 1574.1 L -1089.4 1581.2 L -1104.2 1585.9 L -1132.7 1596.9 L -1162.2 1610.3 L -1181.2 1621.2 L -1227.8 1653.9 L -1264.9 1672.6 L -1335.0 1711.0 L -1366.7 1728.2 L -1406.5 1740.7 L -1466.4 1764.3 L -1504.1 1772.6 L -1533.9 1782.5 L -1565.6 1796.1 L -1639.8 1825.2 L -1691.5 1843.7 L -1752.1 1859.9 L -1799.0 1874.0 L -1825.8 1879.3 L -1865.0 1881.0 L -1901.7 1878.4 L -1935.9 1890.6 L -1980.4 1910.2 L -2036.2 1936.0 L -2077.2 1943.4 L -2102.8 1944.0 L -2131.4 1946.0 L -2148.0 1949.1 L -2165.1 1949.1 L -2184.4 1945.7 L -2203.8 1931.0 L -2218.0 1916.9 L -2234.4 1901.8 L -2245.7 1897.3 L -2254.8 1897.7 L -2269.6 1901.0 L -2292.9 1909.5 L -2381.1 1947.6 L -2421.8 1963.0 L -2433.6 1968.6 L -2441.3 1984.3 L -2443.6 1998.0 L -2450.6 2004.5 L -2457.6 2010.5 L -2465.6 2014.6 L -2477.6 2016.8 L -2488.6 2015.2 L -2499.1 2036.6 L -2510.6 2059.9 L -2512.1 2087.9 L -2529.3 2113.2 L -2546.8 2144.6 L -2553.4 2161.2 L -2555.5 2175.7 L -2556.7 2191.7 L -2569.7 2195.6 L -2591.7 2194.1 L -2613.7 2186.8 L -2633.9 2181.1 L -2647.5 2175.4 L -2662.6 2171.1 L -2671.6 2213.7 L -2678.0 2242.0 L -2687.9 2269.5 L -2710.8 2284.9 L -2727.7 2302.7 L -2758.8 2343.4 L -2797.4 2359.0 L -2858.0 2371.7 L -2920.0 2393.9 L -2981.6 2417.8 L -3045.8 2462.3 L -3087.4 2494.5 L -3155.4 2537.4 L -3228.3 2591.4 L -3263.1 2617.8 L -3280.3 2625.3 L -3300.4 2630.4 L -3326.4 2647.7 L -3380.6 2691.2 L -3420.4 2724.0 L -3463.3 2767.5 L -3509.1 2818.5 L -3523.2 2823.2 L -3533.9 2820.9 L -3549.2 2811.9 L -3572.0 2796.8 L -3583.6 2792.1 L -3596.8 2791.6 L -3605.7 2795.7 L -3613.4 2802.7" stroke="#000" stroke-width="1.3" stroke-opacity="0.8" fill="none" stroke-linecap="round" stroke-linejoin="round"/>
<path d="M 765.2 1217.0 L 790.1 1205.9 L 807.9 1194.1 L 823.6 1187.3 L 840.6 1182.5 L 911.5 1184.4 L 926.2 1183.9 L 936.7 1181.7 L 962.0 1155.8 L 970.5 1147.1 L 994.7 1127.0 L 1018.3 1096.3 L 1031.4 1086.8 L 1051.5 1075.6" stroke="#000" stroke-width="1.3" stroke-opacity="0.8" fill="none" stroke-linecap="round" stroke-linejoin="round"/>
<path d="M 959.1 785.9 L 924.3 773.5 L 909.0 778.8 L 826.6 828.5 L 810.4 834.3 L 798.0 836.4 L 723.0 838.5 L 557.7 831.4 L 409.4 846.4 L 292.6 840.6 L 247.1 833.5 L -46.6 799.3 L -204.4 769.9 L -364.1 766.4 L -511.8 767.2 L -595.0 762.3 L -721.8 737.0 L -810.4 735.8 L -896.8 716.3 L -920.8 715.3 L -929.9 714.4 L -944.2 711.1 L -958.1 704.3 L -998.7 697.7 L -1038.4 693.3 L -1159.2 687.5 L -1289.8 670.7 L -1387.4 662.5 L -1506.5 639.5 L -1599.7 628.1 L -1682.1 622.7 L -1704.9 612.9 L -1728.1 610.7 L -1818.2 615.8 L -1841.1 615.4 L -1875.7 619.8 L -1880.3 625.2 L -1918.0 636.8" stroke="#000" stroke-width="1.3" stroke-opacity="0.8" fill="none" stroke-linecap="round" stroke-linejoin="round"/>
<path d="M 1390.5 1121.0 L 1362.1 1111.5 L 1337.1 1105.2 L 1322.6 1097.6 L 1313.0 1083.5 L 1312.4 1078.7 L 1269.1 1022.8" stroke="#000" stroke-width="1.3" stroke-opacity="0.8" fill="none" stroke-linecap="round" stroke-linejoin="round"/>
<path d="M 1674.4 1255.6 L 1643.4 1243.5 L 1581.9 1207.6 L 1510.4 1179.4 L 1500.9 1180.6 L 1492.2 1180.6 L 1418.0 1153.5 L 1390.5 1121.0 L 1397.1 1077.3 L 1410.9 1037.1" stroke="#000" stroke-width="1.3" stroke-opacity="0.8" fill="none" stroke-linecap="round" stroke-linejoin="round"/>
<path d="M 1200.4 455.3 L 1187.7 475.6 L 1185.0 494.3 L 1178.8 534.3 L 1180.3 578.8 L 1175.3 579.8 L 1137.2 584.2 L 1078.2 608.2 L 1072.6 610.9 L 1052.7 634.9 L 1002.5 728.3 L 993.3 741.2 L 980.9 750.0 L 976.5 753.8 L 970.9 759.4 L 959.1 785.9 L 957.2 794.4 L 957.6 808.0 L 963.4 817.4 L 972.6 823.4 L 1061.6 864.0 L 1071.5 870.2 L 1075.5 876.8 L 1076.3 883.6 L 1061.2 951.6 L 1055.8 978.1 L 1046.9 994.0 L 1034.1 1017.0 L 1035.7 1052.4 L 1049.6 1067.1 L 1051.5 1075.6 L 1064.3 1084.5 L 1086.3 1089.9 L 1100.1 1089.7 L 1112.3 1083.1 L 1177.4 1075.6 L 1202.9 1069.2 L 1256.7 1037.5 L 1269.1 1022.8 L 1272.4 984.9 L 1276.2 976.6 L 1294.2 977.5 L 1301.7 976.1" stroke="#000" stroke-width="1.3" stroke-opacity="0.8" fill="none" stroke-linecap="round" stroke-linejoin="round"/>
<path d="M 1470.4 601.8 L 1493.8 605.3 L 1580.4 603.2 L 1668.0 602.8 L 1676.9 604.7 L 1762.7 626.6 L 1818.3 631.0" stroke="#000" stroke-width="1.3" stroke-opacity="0.8" fill="none" stroke-linecap="round" stroke-linejoin="round"/>
<path d="M 1100.1 1089.7 L 1061.6 1231.6 L 1054.8 1235.9 L 1035.9 1271.4 L 1016.5 1367.1" stroke="#000" stroke-width="1.3" stroke-opacity="0.8" fill="none" stroke-linecap="round" stroke-linejoin="round"/>
<path d="M 1308.4 645.0 L 1310.0 647.5 L 1331.1 683.6 L 1339.0 701.8 L 1340.7 729.3 L 1334.5 772.5 L 1329.3 805.6 L 1324.6 837.4 L 1319.1 885.4 L 1310.8 927.7 L 1304.3 968.2 L 1301.7 976.1 L 1305.0 977.3 L 1314.1 981.7 L 1351.5 1002.2 L 1401.4 1032.5 L 1403.7 1033.6 L 1410.9 1037.1 L 1422.3 1042.0 L 1443.5 1047.7 L 1489.8 1059.9 L 1558.2 1077.7 L 1586.2 1086.9 L 1599.0 1093.2 L 1623.2 1110.8 L 1651.7 1129.5 L 1656.7 1154.4 L 1664.0 1196.7 L 1674.4 1255.6 L 1677.8 1283.7 L 1678.7 1292.1 L 1681.1 1314.1 L 1683.0 1338.7 L 1673.7 1338.0 L 1666.4 1337.3 L 1642.5 1335.4 L 1611.8 1337.0 L 1496.3 1345.0 L 1350.1 1357.6 L 1202.7 1371.9 L 1119.9 1378.7 L 1080.8 1384.5 L 1040.9 1394.8 L 1020.6 1400.1 L 1010.9 1424.2 L 1006.2 1436.2 L 999.8 1452.7 L 995.5 1463.6 L 987.8 1483.3 L 971.7 1538.9 L 957.0 1589.7 L 949.9 1632.2 L 946.0 1667.7 L 947.2 1698.1 L 949.7 1779.9 L 953.8 1970.0 L 952.5 2019.1 L 942.8 2084.1 L 929.3 2163.9 L 900.2 2321.9 L 872.7 2519.4 L 871.2 2529.1 L 870.0 2536.9" stroke="#000" stroke-width="2.4" stroke-opacity="0.95" fill="none" stroke-linecap="round" stroke-linejoin="round"/>
<path d="M 876.7 1395.8 L 872.6 1377.7" stroke="#000" stroke-width="1.3" stroke-opacity="0.8" fill="none" stroke-linecap="round" stroke-linejoin="round"/>
<path d="M 1018.9 1390.7 L 882.8 1401.8 L 879.4 1400.2 L 877.3 1398.3 L 876.7 1395.8" stroke="#000" stroke-width="1.3" stroke-opacity="0.8" fill="none" stroke-linecap="round" stroke-linejoin="round"/>
<path d="M 1020.6 1400.1 L 1018.9 1390.7 L 1016.2 1375.1 L 1016.5 1367.1 L 1010.8 1365.5 L 1001.7 1365.2 L 987.1 1367.0 L 947.9 1370.6 L 923.7 1372.3 L 916.9 1373.1 L 896.2 1375.5 L 881.8 1376.8 L 872.6 1377.7" stroke="#000" stroke-width="1.3" stroke-opacity="0.8" fill="none" stroke-linecap="round" stroke-linejoin="round"/>
<path d="M 909.0 778.8 L 887.9 765.8 L 874.8 751.1 L 849.7 712.6 L 776.6 621.2" stroke="#000" stroke-width="1.3" stroke-opacity="0.8" fill="none" stroke-linecap="round" stroke-linejoin="round"/>
<path d="M 133.1 210.6 L 149.3 227.5 L 464.1 403.2 L 640.2 497.6 L 705.6 537.4 L 761.9 591.6 L 776.6 621.2" stroke="#000" stroke-width="0.5" stroke-opacity="0.35" fill="none" stroke-linecap="round" stroke-linejoin="round"/>
<path d="M 1403.7 1033.6 L 1419.2 1004.6 L 1430.8 970.9 L 1442.7 931.2" stroke="#000" stroke-width="1.3" stroke-opacity="0.8" fill="none" stroke-linecap="round" stroke-linejoin="round"/>
<path d="M 1399.4 991.5 L 1419.2 1004.6 L 1443.8 1013.5 L 1477.4 1022.4 L 1509.1 1032.2" stroke="#000" stroke-width="1.3" stroke-opacity="0.8" fill="none" stroke-linecap="round" stroke-linejoin="round"/>
<path d="M 1072.6 610.9 L 1079.8 613.6 L 1088.6 619.6 L 1106.7 634.9 L 1118.6 644.1 L 1128.9 649.0 L 1139.8 654.5" stroke="#000" stroke-width="1.3" stroke-opacity="0.8" fill="none" stroke-linecap="round" stroke-linejoin="round"/>
<path d="M 980.9 750.0 L 999.0 751.3 L 1016.9 752.0 L 1031.5 753.6 L 1034.2 752.4 L 1036.2 749.2 L 1042.3 739.9 L 1046.8 735.5 L 1049.8 733.1 L 1053.9 732.4 L 1059.6 733.8 L 1096.0 746.6" stroke="#000" stroke-width="1.3" stroke-opacity="0.8" fill="none" stroke-linecap="round" stroke-linejoin="round"/>
<path d="M 1046.9 994.0 L 1029.6 991.2 L 1016.0 990.2 L 986.9 989.2" stroke="#000" stroke-width="1.3" stroke-opacity="0.8" fill="none" stroke-linecap="round" stroke-linejoin="round"/>
<path d="M 962.0 1155.8 L 971.5 1182.3 L 972.4 1195.2 L 962.8 1226.3 L 947.5 1263.1 L 940.9 1289.6 L 931.4 1310.8 L 916.9 1373.1" stroke="#000" stroke-width="1.3" stroke-opacity="0.8" fill="none" stroke-linecap="round" stroke-linejoin="round"/>
<path d="M 942.5 732.7 L 980.9 750.0" stroke="#000" stroke-width="1.3" stroke-opacity="0.8" fill="none" stroke-linecap="round" stroke-linejoin="round"/>
<path d="M 944.9 699.2 L 1002.5 728.3" stroke="#000" stroke-width="1.3" stroke-opacity="0.8" fill="none" stroke-linecap="round" stroke-linejoin="round"/>
  
    <g stroke="#000" fill="none" stroke-width="2.9952">
      <circle cx="936" cy="702" r="16.848"/>
      <circle cx="936" cy="702" r="3.744" fill="#000" stroke="none"/>
    </g>
  <rect width="100%" height="100%" fill="url(#vignette)"/>
  
    <g transform="translate(1776, 116)" stroke="#000" stroke-width="2.2464" fill="#000">
      <line x1="0" y1="37.44" x2="0" y2="-37.44"/>
      <path d="M 0 -37.44 L 13.104 -13.104 L 0 -22.464 L -13.104 -13.104 Z"/>
      <text x="0" y="59.44" text-anchor="middle" font-family="Georgia, serif" font-size="22.464000000000002">N</text>
    </g>
  <rect x="66" y="66" width="1740" height="1272" fill="none" stroke="#000" stroke-width="2" stroke-opacity="0.7"/>
  <rect x="74" y="74" width="1724" height="1256" fill="none" stroke="#000" stroke-width="1" stroke-opacity="0.4"/>
  
</svg>