<svg xmlns="http://www.w3.org/2000/svg" width="1872" height="1404" viewBox="0 0 1872 1404">
  <defs>
    <radialGradient id="vignette" cx="50%" cy="50%" r="954.72" gradientUnits="userSpaceOnUse">
      <stop offset="55%" stop-color="#fff" stop-opacity="0"/>
      <stop offset="100%" stop-color="#fff" stop-opacity="1"/>
    </radialGradient>
    <pattern id="hatch" patternUnits="userSpaceOnUse" width="9" height="9" patternTransform="rotate(45)">
      <line x1="0" y1="0" x2="0" y2="9" stroke="#000" stroke-width="0.9" stroke-opacity="0.4"/>
    </pattern>
  </defs>
  <rect width="100%" height="100%" fill="#fff"/>
  <path d="M 469.0 1160.7 L 470.9 1176.6 L 476.6 1186.4 L 487.9 1188.2 L 497.6 1191.7 L 511.4 1192.0 L 534.5 1190.9 L 558.0 1192.0 L 575.8 1195.0 L 588.5 1185.7 L 598.6 1167.4 L 600.2 1160.3 L 600.6 1149.5 L 599.2 1135.0 L 591.7 1124.0 L 582.2 1120.3 L 574.1 1116.4 L 566.0 1115.3 L 560.2 1116.9 L 556.3 1120.2 L 551.5 1119.5 L 547.8 1121.9 L 542.4 1118.9 L 520.8 1119.9 L 512.2 1120.0 L 505.8 1121.1 L 490.5 1118.5 L 482.0 1117.4 L 475.1 1120.9 L 472.0 1127.1 L 468.3 1136.4 L 471.7 1145.2 L 467.8 1151.7 L 469.5 1155.7 L 469.0 1160.7 Z" fill="#9a9a9a" stroke="#000" stroke-width="1.4"/>
<path d="M 1000.7 179.3 L 989.5 172.4 L 973.3 166.8 L 964.6 184.9 L 974.5 201.7 L 993.2 224.1 L 1019.4 250.8 L 1056.1 276.3 L 1066.0 255.2 L 1024.3 200.4 L 1000.7 179.3 Z" fill="#9a9a9a" stroke="#000" stroke-width="1.4"/>
  <path d="M 922.9 128.8 L 871.2 85.9 L 818.3 34.2 L 775.4 26.2 L 670.2 49.8 L 644.7 39.2 L 644.7 67.2 L 625.4 77.2 L 598.0 78.4 L 565.0 100.2 L 511.5 194.8 L 469.8 221.6 L 470.4 253.3 L 569.7 282.4 L 650.9 306.2 L 860.6 360.4 L 881.5 336.8 L 899.2 316.8 L 972.0 249.0 L 927.9 181.7 L 922.9 128.8 Z" fill="url(#hatch)" stroke="#000" stroke-width="0.8" stroke-opacity="0.5"/>
<path d="M 437.8 463.4 L 514.4 333.9 L 543.2 340.4 L 554.1 331.2 L 574.1 322.7 L 622.7 337.6 L 689.4 371.0 L 609.2 498.5 L 578.0 502.3 L 546.7 536.8 L 437.8 463.4 Z" fill="url(#hatch)" stroke="#000" stroke-width="0.8" stroke-opacity="0.5"/>
<path d="M 658.6 1204.9 L 622.0 1251.3 L 811.3 1400.4 L 843.2 1400.1 L 867.4 1369.3 L 658.6 1204.9 Z" fill="url(#hatch)" stroke="#000" stroke-width="0.8" stroke-opacity="0.5"/>
<path d="M 1243.8 979.4 L 1228.3 1000.6 L 1246.8 1014.0 L 1262.2 992.8 L 1243.8 979.4 Z" fill="url(#hatch)" stroke="#000" stroke-width="0.8" stroke-opacity="0.5"/>
  
  <path d="M 1413.8 2244.4 L 1415.0 2192.7 L 1415.6 2136.7 L 1415.6 2096.4 L 1416.3 2039.3 L 1416.8 2021.5 L 1417.5 1997.9 L 1418.7 1958.0 L 1419.0 1920.6 L 1418.7 1894.4 L 1420.7 1828.2 L 1421.7 1739.6 L 1423.9 1702.7 L 1423.2 1675.6 L 1424.5 1634.9 L 1425.0 1579.1 L 1426.0 1526.1 L 1425.3 1482.9 L 1419.0 1433.6 L 1410.4 1379.7 L 1406.2 1353.1 L 1400.9 1318.3 L 1393.5 1268.5 L 1377.4 1164.7 L 1362.5 1062.9 L 1350.5 982.3 L 1339.1 907.0 L 1335.7 884.8 L 1325.9 815.9 L 1321.2 782.3 L 1308.2 702.4 L 1301.6 656.9 L 1288.5 569.5 L 1273.3 472.0" stroke="#000" stroke-width="2" fill="none" stroke-linecap="round" stroke-linejoin="round" />
<path d="M 1413.8 2244.4 L 1415.0 2192.7 L 1415.6 2136.7 L 1415.6 2096.4 L 1416.3 2039.3 L 1416.8 2021.5 L 1417.5 1997.9 L 1418.7 1958.0 L 1419.0 1920.6 L 1418.7 1894.4 L 1420.7 1828.2 L 1421.7 1739.6 L 1423.9 1702.7 L 1423.2 1675.6 L 1424.5 1634.9 L 1425.0 1579.1 L 1426.0 1526.1 L 1425.3 1482.9 L 1419.0 1433.6 L 1410.4 1379.7 L 1406.2 1353.1 L 1400.9 1318.3 L 1393.5 1268.5 L 1377.4 1164.7 L 1362.5 1062.9 L 1350.5 982.3 L 1339.1 907.0 L 1335.7 884.8 L 1325.9 815.9 L 1321.2 782.3 L 1308.2 702.4 L 1301.6 656.9 L 1288.5 569.5 L 1273.3 472.0" stroke="#000" stroke-width="6" fill="none" stroke-linecap="round" stroke-linejoin="round" stroke-dasharray="2 26"/>
<path d="M 1269.9 489.4 L 1264.7 453.3 L 1257.6 409.0 L 1251.6 368.6 L 1244.3 319.2 L 1243.5 306.9 L 1242.3 295.5 L 1238.9 283.1 L 1231.9 257.7 L 1223.4 230.4" stroke="#000" stroke-width="2" fill="none" stroke-linecap="round" stroke-linejoin="round" />
<path d="M 1269.9 489.4 L 1264.7 453.3 L 1257.6 409.0 L 1251.6 368.6 L 1244.3 319.2 L 1243.5 306.9 L 1242.3 295.5 L 1238.9 283.1 L 1231.9 257.7 L 1223.4 230.4" stroke="#000" stroke-width="6" fill="none" stroke-linecap="round" stroke-linejoin="round" stroke-dasharray="2 26"/>
<path d="M 1223.4 230.4 L 1210.2 201.8 L 1193.1 163.1" stroke="#000" stroke-width="2" fill="none" stroke-linecap="round" stroke-linejoin="round" />
<path d="M 1223.4 230.4 L 1210.2 201.8 L 1193.1 163.1" stroke="#000" stroke-width="6" fill="none" stroke-linecap="round" stroke-linejoin="round" stroke-dasharray="2 26"/>
<path d="M 1210.2 201.8 L 1195.1 158.6 L 1187.5 128.8 L 1183.8 99.6 L 1187.1 67.1 L 1192.3 35.4 L 1198.5 13.9 L 1212.7 -23.8 L 1234.4 -77.8 L 1253.6 -128.6 L 1269.9 -174.2 L 1274.6 -193.5 L 1275.6 -204.6 L 1274.0 -229.5 L 1269.5 -253.5 L 1259.9 -289.7 L 1250.7 -317.1 L 1239.0 -353.7" stroke="#000" stroke-width="2" fill="none" stroke-linecap="round" stroke-linejoin="round" />
<path d="M 1210.2 201.8 L 1195.1 158.6 L 1187.5 128.8 L 1183.8 99.6 L 1187.1 67.1 L 1192.3 35.4 L 1198.5 13.9 L 1212.7 -23.8 L 1234.4 -77.8 L 1253.6 -128.6 L 1269.9 -174.2 L 1274.6 -193.5 L 1275.6 -204.6 L 1274.0 -229.5 L 1269.5 -253.5 L 1259.9 -289.7 L 1250.7 -317.1 L 1239.0 -353.7" stroke="#000" stroke-width="6" fill="none" stroke-linecap="round" stroke-linejoin="round" stroke-dasharray="2 26"/>
  <path d="M 455.0 1197.6 L 441.8 1166.2 L 439.8 1160.4 L 429.3 1147.0 L 411.0 1135.5 L 391.1 1127.8 L 389.0 1127.5 L 384.5 1135.5 L 381.2 1136.8 L 336.6 1122.8 L 259.1 1096.1 L 249.8 1094.9 L 241.9 1097.4" stroke="#000" stroke-width="1.1" fill="none" stroke-linecap="round" stroke-linejoin="round" stroke-opacity="0.75"/>
<path d="M 577.7 1427.5 L 669.6 1315.0 L 680.8 1301.3" stroke="#000" stroke-width="1.1" fill="none" stroke-linecap="round" stroke-linejoin="round" stroke-opacity="0.75"/>
<path d="M 653.4 1494.1 L 745.2 1377.4 L 669.6 1315.0" stroke="#000" stroke-width="1.1" fill="none" stroke-linecap="round" stroke-linejoin="round" stroke-opacity="0.75"/>
<path d="M 745.2 1377.4 L 823.2 1437.0" stroke="#000" stroke-width="1.1" fill="none" stroke-linecap="round" stroke-linejoin="round" stroke-opacity="0.75"/>
<path d="M 1215.9 647.5 L 1245.2 670.9 L 1246.2 679.5 L 1246.7 688.4 L 1246.2 700.0 L 1243.8 710.7 L 1216.0 746.3" stroke="#000" stroke-width="1.1" fill="none" stroke-linecap="round" stroke-linejoin="round" stroke-opacity="0.75"/>
<path d="M 748.0 1053.7 L 739.9 1036.6 L 728.7 1026.3 L 707.9 1013.0" stroke="#000" stroke-width="1.1" fill="none" stroke-linecap="round" stroke-linejoin="round" stroke-opacity="0.75"/>
<path d="M 1054.5 316.7 L 1006.2 364.8" stroke="#000" stroke-width="1.1" fill="none" stroke-linecap="round" stroke-linejoin="round" stroke-opacity="0.75"/>
<path d="M 1013.3 371.7 L 1006.2 364.8" stroke="#000" stroke-width="1.1" fill="none" stroke-linecap="round" stroke-linejoin="round" stroke-opacity="0.75"/>
<path d="M 1054.5 316.7 L 1066.8 328.6" stroke="#000" stroke-width="1.1" fill="none" stroke-linecap="round" stroke-linejoin="round" stroke-opacity="0.75"/>
<path d="M 1006.2 364.8 L 979.6 338.4 L 979.0 337.1 L 979.0 335.6 L 979.4 334.3 L 1025.0 292.4 L 1026.7 291.6 L 1028.7 291.5 L 1030.4 292.0 L 1054.5 316.7" stroke="#000" stroke-width="1.1" fill="none" stroke-linecap="round" stroke-linejoin="round" stroke-opacity="0.75"/>
<path d="M 742.4 -29.5 L 758.0 -9.5 L 763.1 -1.6 L 767.3 6.4 L 768.3 18.1 L 762.6 174.8" stroke="#000" stroke-width="1.1" fill="none" stroke-linecap="round" stroke-linejoin="round" stroke-opacity="0.75"/>
<path d="M 695.8 815.6 L 702.3 819.6 L 736.4 840.8" stroke="#000" stroke-width="1.1" fill="none" stroke-linecap="round" stroke-linejoin="round" stroke-opacity="0.75"/>
<path d="M 702.3 819.6 L 735.0 768.0" stroke="#000" stroke-width="1.1" fill="none" stroke-linecap="round" stroke-linejoin="round" stroke-opacity="0.75"/>
<path d="M 603.0 1033.1 L 608.1 1037.4 L 611.8 1041.5 L 614.0 1045.5 L 615.6 1050.5 L 619.0 1079.5" stroke="#000" stroke-width="1.1" fill="none" stroke-linecap="round" stroke-linejoin="round" stroke-opacity="0.75"/>
<path d="M 1083.2 410.7 L 1032.4 387.7" stroke="#000" stroke-width="1.1" fill="none" stroke-linecap="round" stroke-linejoin="round" stroke-opacity="0.75"/>
  <path d="M 856.2 799.7 L 892.3 825.1 L 942.3 860.5 L 947.6 864.1 L 955.2 869.4 L 1054.6 942.1" stroke="#000" stroke-width="0.8" fill="none" stroke-linecap="round" stroke-linejoin="round" stroke-opacity="0.5" stroke-dasharray="4 5"/>
<path d="M 951.5 858.3 L 1014.7 903.0 L 1060.3 935.3" stroke="#000" stroke-width="0.8" fill="none" stroke-linecap="round" stroke-linejoin="round" stroke-opacity="0.5" stroke-dasharray="4 5"/>
<path d="M 951.5 858.3 L 895.7 820.7" stroke="#000" stroke-width="0.8" fill="none" stroke-linecap="round" stroke-linejoin="round" stroke-opacity="0.5" stroke-dasharray="4 5"/>
<path d="M 860.9 793.0 L 898.2 817.3 L 895.7 820.7 L 892.3 825.1" stroke="#000" stroke-width="0.8" fill="none" stroke-linecap="round" stroke-linejoin="round" stroke-opacity="0.5" stroke-dasharray="4 5"/>
<path d="M 860.9 793.0 L 856.2 799.7" stroke="#000" stroke-width="0.8" fill="none" stroke-linecap="round" stroke-linejoin="round" stroke-opacity="0.5" stroke-dasharray="4 5"/>
<path d="M 262.5 390.6 L 322.2 434.8 L 360.7 463.2" stroke="#000" stroke-width="0.8" fill="none" stroke-linecap="round" stroke-linejoin="round" stroke-opacity="0.5" stroke-dasharray="4 5"/>
<path d="M 360.7 463.2 L 365.4 466.9" stroke="#000" stroke-width="0.8" fill="none" stroke-linecap="round" stroke-linejoin="round" stroke-opacity="0.5" stroke-dasharray="4 5"/>
<path d="M 365.4 466.9 L 444.1 530.1 L 461.9 542.1 L 584.0 624.7" stroke="#000" stroke-width="0.8" fill="none" stroke-linecap="round" stroke-linejoin="round" stroke-opacity="0.5" stroke-dasharray="4 5"/>
<path d="M 584.0 624.7 L 590.6 629.0 L 598.1 633.3" stroke="#000" stroke-width="0.8" fill="none" stroke-linecap="round" stroke-linejoin="round" stroke-opacity="0.5" stroke-dasharray="4 5"/>
<path d="M 598.1 633.3 L 683.7 689.4 L 756.1 736.2 L 846.2 796.4 L 847.3 797.1" stroke="#000" stroke-width="0.8" fill="none" stroke-linecap="round" stroke-linejoin="round" stroke-opacity="0.5" stroke-dasharray="4 5"/>
<path d="M 847.3 797.1 L 849.3 798.5 L 853.5 801.2" stroke="#000" stroke-width="0.8" fill="none" stroke-linecap="round" stroke-linejoin="round" stroke-opacity="0.5" stroke-dasharray="4 5"/>
<path d="M 853.5 801.2 L 856.2 799.7" stroke="#000" stroke-width="0.8" fill="none" stroke-linecap="round" stroke-linejoin="round" stroke-opacity="0.5" stroke-dasharray="4 5"/>
<path d="M 280.3 368.1 L 338.3 414.3 L 377.1 445.2 L 420.4 480.2 L 477.8 519.9 L 495.2 531.9 L 573.5 586.5 L 667.8 647.2" stroke="#000" stroke-width="0.8" fill="none" stroke-linecap="round" stroke-linejoin="round" stroke-opacity="0.5" stroke-dasharray="4 5"/>
<path d="M 667.8 647.2 L 674.5 651.8" stroke="#000" stroke-width="0.8" fill="none" stroke-linecap="round" stroke-linejoin="round" stroke-opacity="0.5" stroke-dasharray="4 5"/>
<path d="M 674.5 651.8 L 767.2 714.3" stroke="#000" stroke-width="0.8" fill="none" stroke-linecap="round" stroke-linejoin="round" stroke-opacity="0.5" stroke-dasharray="4 5"/>
<path d="M 767.2 714.3 L 771.1 716.8 L 774.1 718.8" stroke="#000" stroke-width="0.8" fill="none" stroke-linecap="round" stroke-linejoin="round" stroke-opacity="0.5" stroke-dasharray="4 5"/>
<path d="M 774.1 718.8 L 860.2 775.3 L 862.4 776.8 L 881.8 789.1 L 911.9 808.5 L 956.3 837.8" stroke="#000" stroke-width="0.8" fill="none" stroke-linecap="round" stroke-linejoin="round" stroke-opacity="0.5" stroke-dasharray="4 5"/>
<path d="M 956.3 837.8 L 962.6 841.8 L 967.2 844.5" stroke="#000" stroke-width="0.8" fill="none" stroke-linecap="round" stroke-linejoin="round" stroke-opacity="0.5" stroke-dasharray="4 5"/>
<path d="M 967.2 844.5 L 1025.7 886.8 L 1035.0 893.5" stroke="#000" stroke-width="0.8" fill="none" stroke-linecap="round" stroke-linejoin="round" stroke-opacity="0.5" stroke-dasharray="4 5"/>
<path d="M 1035.0 893.5 L 1037.2 894.9 L 1039.2 896.4" stroke="#000" stroke-width="0.8" fill="none" stroke-linecap="round" stroke-linejoin="round" stroke-opacity="0.5" stroke-dasharray="4 5"/>
<path d="M 1039.2 896.4 L 1067.6 916.0 L 1070.1 916.2 L 1072.7 913.6 L 1076.1 908.8 L 1154.8 960.7" stroke="#000" stroke-width="0.8" fill="none" stroke-linecap="round" stroke-linejoin="round" stroke-opacity="0.5" stroke-dasharray="4 5"/>
<path d="M 1154.8 960.7 L 1160.1 964.3 L 1166.3 968.5" stroke="#000" stroke-width="0.8" fill="none" stroke-linecap="round" stroke-linejoin="round" stroke-opacity="0.5" stroke-dasharray="4 5"/>
<path d="M 1166.3 968.5 L 1186.6 984.0 L 1194.2 982.5 L 1248.9 1021.2 L 1280.2 979.5" stroke="#000" stroke-width="0.8" fill="none" stroke-linecap="round" stroke-linejoin="round" stroke-opacity="0.5" stroke-dasharray="4 5"/>
<path d="M 338.3 414.3 L 336.2 417.0 L 324.1 432.5 L 322.2 434.8" stroke="#000" stroke-width="0.8" fill="none" stroke-linecap="round" stroke-linejoin="round" stroke-opacity="0.5" stroke-dasharray="4 5"/>
<path d="M 461.9 542.1 L 463.3 540.1 L 475.4 523.3 L 477.8 519.9" stroke="#000" stroke-width="0.8" fill="none" stroke-linecap="round" stroke-linejoin="round" stroke-opacity="0.5" stroke-dasharray="4 5"/>
<path d="M 860.2 775.3 L 858.2 778.4 L 847.8 794.0 L 846.2 796.4" stroke="#000" stroke-width="0.8" fill="none" stroke-linecap="round" stroke-linejoin="round" stroke-opacity="0.5" stroke-dasharray="4 5"/>
<path d="M 1025.7 886.8 L 1023.9 889.5 L 1014.7 903.0" stroke="#000" stroke-width="0.8" fill="none" stroke-linecap="round" stroke-linejoin="round" stroke-opacity="0.5" stroke-dasharray="4 5"/>
  <path d="M 1200.0 1660.5 L 1150.3 1612.9 L 1097.2 1536.8 L 990.1 1443.4 L 875.8 1361.4" stroke="#000" stroke-width="2" fill="none" stroke-linecap="round" stroke-linejoin="round" />
<path d="M 1200.5 1401.4 L 1145.8 1355.9 L 1063.0 1287.9 L 1015.9 1249.2 L 977.8 1220.3 L 881.8 1149.6 L 850.7 1113.5 L 748.0 1053.7 L 724.7 1045.3" stroke="#000" stroke-width="2" fill="none" stroke-linecap="round" stroke-linejoin="round" />
<path d="M 1179.6 1509.2 L 1064.3 1369.2 L 1038.0 1344.1 L 971.0 1289.6 L 942.4 1271.0" stroke="#000" stroke-width="2" fill="none" stroke-linecap="round" stroke-linejoin="round" />
<path d="M 1327.4 1122.6 L 1252.3 1225.2 L 1249.3 1229.2 L 1178.8 1321.0 L 1145.8 1355.9" stroke="#000" stroke-width="2" fill="none" stroke-linecap="round" stroke-linejoin="round" />
<path d="M 1392.2 1947.0 L 1314.5 1946.4 L 1311.3 1946.4 L 1203.3 1947.3 L 1100.3 1953.6 L 990.7 1968.2 L 957.7 1972.5 L 896.1 1985.6 L 881.9 1984.5 L 875.1 1981.1 L 864.0 1968.5 L 725.7 1797.4 L 622.0 1667.4 L 567.9 1600.8 L 522.0 1544.8 L 490.4 1506.8 L 472.7 1479.8 L 471.6 1420.0 L 471.8 1360.1 L 471.9 1349.7 L 469.5 1233.9 L 468.3 1216.5 L 466.7 1206.9 L 464.7 1195.5" stroke="#000" stroke-width="2" fill="none" stroke-linecap="round" stroke-linejoin="round" />
<path d="M 1565.1 405.7 L 1544.3 412.9 L 1457.5 426.5 L 1373.3 440.0 L 1331.2 437.5" stroke="#000" stroke-width="2" fill="none" stroke-linecap="round" stroke-linejoin="round" />
<path d="M 1408.7 1089.0 L 1635.3 1018.5" stroke="#000" stroke-width="2" fill="none" stroke-linecap="round" stroke-linejoin="round" />
<path d="M 1365.3 868.6 L 1339.1 907.0 L 1327.8 922.9 L 1303.7 956.8 L 1273.8 998.8 L 1247.8 1035.6" stroke="#000" stroke-width="2" fill="none" stroke-linecap="round" stroke-linejoin="round" />
<path d="M 550.3 691.5 L 312.4 533.8 L 242.5 491.0" stroke="#000" stroke-width="2" fill="none" stroke-linecap="round" stroke-linejoin="round" />
<path d="M 697.9 804.4 L 698.0 808.5 L 695.8 815.6 L 689.5 828.2 L 683.9 840.2 L 661.7 893.0 L 642.1 941.4 L 606.5 1026.6 L 603.0 1033.1 L 594.8 1045.1 L 586.8 1052.6 L 576.5 1060.2 L 559.6 1068.8 L 495.0 1097.0 L 486.7 1100.4 L 478.0 1102.7 L 461.6 1106.8" stroke="#000" stroke-width="2" fill="none" stroke-linecap="round" stroke-linejoin="round" />
<path d="M 478.3 955.9 L 394.5 973.4 L 341.5 987.4 L 338.2 989.2 L 336.6 992.5 L 331.6 1034.2 L 324.5 1051.0 L 312.3 1069.8" stroke="#000" stroke-width="2" fill="none" stroke-linecap="round" stroke-linejoin="round" />
<path d="M 266.0 606.2 L 281.4 581.9 L 312.4 533.8 L 347.2 486.7 L 364.6 462.6 L 375.2 447.3" stroke="#000" stroke-width="2" fill="none" stroke-linecap="round" stroke-linejoin="round" />
<path d="M 529.1 724.9 L 548.3 735.0 L 570.0 744.1 L 610.8 762.0 L 680.4 790.0 L 689.2 795.2 L 694.6 799.8 L 697.9 804.4" stroke="#000" stroke-width="2" fill="none" stroke-linecap="round" stroke-linejoin="round" />
<path d="M 432.9 816.4 L 437.7 806.8 L 438.9 802.4 L 438.9 799.1 L 436.5 795.8 L 427.3 789.3 L 362.3 751.8 L 238.3 673.4" stroke="#000" stroke-width="2" fill="none" stroke-linecap="round" stroke-linejoin="round" />
<path d="M 997.3 428.4 L 1008.7 422.5 L 1013.9 418.9 L 1018.1 412.9 L 1030.9 390.4 L 1032.4 387.7 L 1066.8 328.6 L 1086.8 309.2 L 1099.8 297.9 L 1108.4 293.0 L 1119.4 290.1 L 1136.7 289.1 L 1196.8 287.5 L 1202.7 286.7 L 1205.6 285.0 L 1210.6 280.3" stroke="#000" stroke-width="2" fill="none" stroke-linecap="round" stroke-linejoin="round" />
<path d="M 854.1 365.2 L 846.2 379.2 L 756.4 508.6 L 668.0 654.4" stroke="#000" stroke-width="2" fill="none" stroke-linecap="round" stroke-linejoin="round" />
<path d="M 1180.5 509.2 L 962.6 841.8 L 960.5 845.0 L 951.5 858.3 L 947.6 864.1 L 906.2 925.4 L 853.4 1003.6" stroke="#000" stroke-width="2" fill="none" stroke-linecap="round" stroke-linejoin="round" />
<path d="M 508.7 762.5 L 276.2 613.5 L 266.0 606.2 L 170.0 540.9" stroke="#000" stroke-width="2" fill="none" stroke-linecap="round" stroke-linejoin="round" />
<path d="M 466.2 1068.7 L 391.1 1071.6 L 387.4 1072.6 L 385.1 1075.2 L 379.9 1096.7" stroke="#000" stroke-width="2" fill="none" stroke-linecap="round" stroke-linejoin="round" />
<path d="M 269.4 365.4 L 336.2 417.0 L 375.2 447.3 L 417.0 482.8 L 475.4 523.3 L 601.9 611.0 L 668.0 654.4 L 767.9 721.3 L 797.6 738.9 L 858.2 778.4 L 861.0 780.2 L 879.8 792.2 L 960.5 845.0 L 974.9 854.5 L 1023.9 889.5 L 1035.0 897.5 L 1068.7 921.6 L 1072.2 924.1 L 1090.0 934.2 L 1135.8 959.3 L 1145.6 964.9 L 1155.8 971.1 L 1158.4 972.8 L 1187.3 993.1 L 1247.8 1035.6" stroke="#000" stroke-width="2" fill="none" stroke-linecap="round" stroke-linejoin="round" />
<path d="M 747.4 942.5 L 770.3 955.4 L 803.4 974.5 L 853.4 1003.6 L 962.5 1066.2 L 1010.8 1093.9 L 1041.3 1111.4 L 1048.7 1116.0 L 1148.1 1172.6" stroke="#000" stroke-width="2" fill="none" stroke-linecap="round" stroke-linejoin="round" />
<path d="M 1247.8 1035.6 L 1292.9 1068.5 L 1306.8 1081.1 L 1315.6 1092.4 L 1322.0 1105.0 L 1327.4 1122.6 L 1334.0 1145.5 L 1357.9 1249.8 L 1366.2 1284.9 L 1370.3 1311.6 L 1373.9 1337.8 L 1374.5 1380.0 L 1374.8 1395.5 L 1373.8 1564.8 L 1373.8 1600.5 L 1376.9 1664.1 L 1383.9 1703.0 L 1389.7 1753.1 L 1390.7 1768.5 L 1391.2 1828.7 L 1391.4 1852.3 L 1392.2 1947.0 L 1392.1 2022.0 L 1392.9 2125.7 L 1393.1 2152.5 L 1393.1 2203.6 L 1391.5 2221.2 L 1389.1 2236.0 L 1385.2 2250.4 L 1379.9 2266.1 L 1374.1 2280.0 L 1365.7 2296.0" stroke="#000" stroke-width="2" fill="none" stroke-linecap="round" stroke-linejoin="round" />
<path d="M 1365.3 868.6 L 1375.5 856.0 L 1385.7 845.9 L 1399.9 838.0 L 1426.7 826.4 L 1456.1 815.8 L 1478.3 806.8 L 1535.2 778.3 L 1560.7 763.5" stroke="#000" stroke-width="2" fill="none" stroke-linecap="round" stroke-linejoin="round" />
<path d="M 1087.5 1478.6 L 1057.0 1449.6 L 1018.7 1383.0 L 924.1 1295.7" stroke="#000" stroke-width="2" fill="none" stroke-linecap="round" stroke-linejoin="round" />
<path d="M 1310.9 761.1 L 1304.1 763.0 L 1300.7 764.6 L 1297.7 768.1 L 1276.4 799.8 L 1234.8 857.2 L 1200.8 903.0 L 1160.1 964.3 L 1155.8 971.1 L 1131.6 1004.3 L 1117.6 1023.6 L 1048.7 1116.0" stroke="#000" stroke-width="2" fill="none" stroke-linecap="round" stroke-linejoin="round" />
<path d="M 1035.0 897.5 L 1037.2 894.9 L 1051.4 878.2 L 1109.1 799.1 L 1161.6 727.3 L 1215.9 647.5 L 1249.1 598.7 L 1256.5 588.4" stroke="#000" stroke-width="2" fill="none" stroke-linecap="round" stroke-linejoin="round" />
<path d="M 1868.8 729.6 L 1572.4 803.9" stroke="#000" stroke-width="2" fill="none" stroke-linecap="round" stroke-linejoin="round" />
<path d="M 1384.1 952.4 L 1601.5 902.5 L 1784.3 859.5 L 1871.7 836.1 L 1893.4 815.7 L 1906.3 797.1" stroke="#000" stroke-width="2" fill="none" stroke-linecap="round" stroke-linejoin="round" />
<path d="M 1365.3 868.6 L 1372.6 895.1 L 1377.2 917.5 L 1380.1 932.2 L 1384.1 952.4 L 1406.5 1076.6 L 1408.7 1089.0 L 1416.2 1151.4" stroke="#000" stroke-width="2" fill="none" stroke-linecap="round" stroke-linejoin="round" />
<path d="M 1535.2 778.3 L 1542.8 777.7 L 1549.4 778.3 L 1553.4 780.5 L 1558.7 783.3 L 1562.4 787.0 L 1565.8 791.1 L 1570.2 796.3" stroke="#000" stroke-width="2" fill="none" stroke-linecap="round" stroke-linejoin="round" />
<path d="M 1524.1 -8.1 L 1525.8 118.1 L 1525.4 253.3 L 1544.3 412.9 L 1552.7 487.3 L 1593.9 602.1 L 1610.7 662.5 L 1629.1 728.6" stroke="#000" stroke-width="2" fill="none" stroke-linecap="round" stroke-linejoin="round" />
<path d="M 971.3 418.5 L 959.5 430.4 L 854.4 579.4 L 788.3 672.2 L 776.8 702.9 L 773.9 709.9 L 771.1 716.8 L 767.9 721.3" stroke="#000" stroke-width="2" fill="none" stroke-linecap="round" stroke-linejoin="round" />
<path d="M 1560.7 763.5 L 1570.2 796.3 L 1572.4 803.9 L 1601.5 902.5 L 1635.3 1018.5" stroke="#000" stroke-width="2" fill="none" stroke-linecap="round" stroke-linejoin="round" />
<path d="M 464.7 1195.5 L 455.0 1197.6 L 395.6 1208.7 L 349.1 1217.6 L 295.3 1230.3 L 268.6 1235.3 L 244.0 1242.3 L 210.9 1255.8 L 186.2 1270.3 L 163.4 1285.6 L 140.3 1304.3 L 87.4 1346.7 L 75.2 1357.6 L 47.4 1378.9 L 35.3 1386.6 L -4.8 1398.9" stroke="#000" stroke-width="2" fill="none" stroke-linecap="round" stroke-linejoin="round" />
<path d="M 767.9 721.3 L 757.3 734.5" stroke="#000" stroke-width="2" fill="none" stroke-linecap="round" stroke-linejoin="round" />
<path d="M 258.0 383.6 L 324.1 432.5 L 364.6 462.6 L 446.2 528.2 L 451.1 532.2 L 463.3 540.1 L 585.2 620.2 L 593.3 624.9 L 757.3 734.5 L 847.8 794.0 L 850.9 796.0" stroke="#000" stroke-width="2" fill="none" stroke-linecap="round" stroke-linejoin="round" />
<path d="M 747.4 942.5 L 781.1 887.5 L 795.1 881.9 L 849.3 798.5 L 850.9 796.0 L 861.0 780.2" stroke="#000" stroke-width="2" fill="none" stroke-linecap="round" stroke-linejoin="round" />
<path d="M 1357.9 385.9 L 1373.3 440.0 L 1478.3 806.8" stroke="#000" stroke-width="2" fill="none" stroke-linecap="round" stroke-linejoin="round" />
<path d="M 1204.3 1668.8 L 1218.8 1610.1 L 1228.8 1574.4 L 1244.1 1452.1 L 1256.4 1338.8 L 1257.1 1246.9 L 1252.3 1225.2" stroke="#000" stroke-width="2" fill="none" stroke-linecap="round" stroke-linejoin="round" />
<path d="M 1365.3 868.6 L 1355.2 822.7 L 1338.2 726.5 L 1311.3 575.1 L 1307.6 545.8 L 1308.5 530.3 L 1315.1 494.9 L 1331.2 437.5" stroke="#000" stroke-width="2" fill="none" stroke-linecap="round" stroke-linejoin="round" />
<path d="M 1319.9 316.1 L 1323.3 335.2 L 1332.6 388.4 L 1331.2 437.5" stroke="#000" stroke-width="2" fill="none" stroke-linecap="round" stroke-linejoin="round" />
<path d="M 1357.9 385.9 L 1332.6 388.4" stroke="#000" stroke-width="2" fill="none" stroke-linecap="round" stroke-linejoin="round" />
<path d="M 1327.8 922.9 L 1325.6 895.0 L 1320.5 865.2 L 1321.8 852.3 L 1320.2 816.1 L 1316.3 788.3 L 1312.2 766.4 L 1310.9 761.1 L 1310.3 751.0 L 1303.2 701.7 L 1294.5 671.3 L 1284.4 639.7 L 1264.3 602.8 L 1256.5 588.4 L 1251.6 579.3 L 1233.7 548.9 L 1212.9 527.9 L 1200.7 516.6 L 1195.6 513.3 L 1187.0 509.4 L 1184.1 509.3 L 1180.5 509.2 L 1096.8 455.7 L 1088.8 452.4 L 1080.2 450.7 L 1068.7 450.4 L 1044.5 451.1 L 1038.6 449.4 L 1035.6 448.5 L 997.3 428.4 L 981.6 424.1 L 971.3 418.5 L 968.6 410.9 L 964.6 405.6 L 957.9 401.4 L 943.8 395.7 L 864.7 367.6 L 854.1 365.2 L 758.7 338.3 L 469.5 254.9 L 343.3 231.4" stroke="#000" stroke-width="2" fill="none" stroke-linecap="round" stroke-linejoin="round" />
<path d="M 1249.1 598.7 L 1264.3 602.8" stroke="#000" stroke-width="2" fill="none" stroke-linecap="round" stroke-linejoin="round" />
<path d="M 1273.8 998.8 L 1285.2 1002.4 L 1293.3 1002.7 L 1300.7 998.6 L 1308.0 987.9 L 1312.0 981.0 L 1311.3 973.5 L 1308.5 964.4 L 1303.7 956.8" stroke="#000" stroke-width="2" fill="none" stroke-linecap="round" stroke-linejoin="round" />
<path d="M 207.8 722.1 L 238.3 673.4 L 241.4 668.1 L 276.2 613.5" stroke="#000" stroke-width="2" fill="none" stroke-linecap="round" stroke-linejoin="round" />
<path d="M 483.9 893.4 L 268.3 870.3 L 190.9 862.0 L 168.5 855.2 L 87.6 830.5 L 76.4 827.1 L -34.9 782.9 L -103.4 774.7 L -117.6 769.9" stroke="#000" stroke-width="2" fill="none" stroke-linecap="round" stroke-linejoin="round" />
<path d="M 241.4 668.1 L 136.3 600.5" stroke="#000" stroke-width="2" fill="none" stroke-linecap="round" stroke-linejoin="round" />
<path d="M 268.3 870.3 L 272.0 833.0 L 272.6 820.8 L 272.0 812.4" stroke="#000" stroke-width="2" fill="none" stroke-linecap="round" stroke-linejoin="round" />
<path d="M 758.7 338.3 L 750.3 353.8 L 734.7 376.4" stroke="#000" stroke-width="2" fill="none" stroke-linecap="round" stroke-linejoin="round" />
<path d="M 879.8 792.2 L 881.8 789.1 L 890.1 775.6 L 892.3 772.2 L 892.4 769.5 L 890.9 768.0 L 884.8 762.9 L 877.3 757.8 L 875.6 754.8 L 875.4 752.1 L 879.0 746.3 L 887.0 736.5 L 900.1 714.6 L 930.4 668.0 L 983.7 591.0 L 1014.5 543.7 L 1053.3 487.9 L 1065.9 469.3 L 1080.2 450.7" stroke="#000" stroke-width="2" fill="none" stroke-linecap="round" stroke-linejoin="round" />
<path d="M 701.9 472.7 L 686.9 481.4 L 652.1 501.4 L 645.3 505.2 L 640.9 506.9 L 636.4 506.8 L 631.7 504.1 L 624.8 495.7" stroke="#000" stroke-width="2" fill="none" stroke-linecap="round" stroke-linejoin="round" />
<path d="M 854.4 579.4 L 761.3 513.3 L 756.4 508.6 L 737.3 496.4 L 701.9 472.7 L 676.7 455.3" stroke="#000" stroke-width="2" fill="none" stroke-linecap="round" stroke-linejoin="round" />
<path d="M 1048.7 1116.0 L 1020.1 1158.6 L 983.2 1212.8 L 977.8 1220.3 L 942.4 1271.0 L 924.1 1295.7 L 875.8 1361.4 L 845.3 1401.4" stroke="#000" stroke-width="2" fill="none" stroke-linecap="round" stroke-linejoin="round" />
<path d="M 1148.1 1172.6 L 1249.3 1229.2" stroke="#000" stroke-width="2" fill="none" stroke-linecap="round" stroke-linejoin="round" />
<path d="M 1148.1 1172.6 L 1063.0 1287.9" stroke="#000" stroke-width="2" fill="none" stroke-linecap="round" stroke-linejoin="round" />
<path d="M 661.7 893.0 L 725.7 929.9 L 747.4 942.5" stroke="#000" stroke-width="2" fill="none" stroke-linecap="round" stroke-linejoin="round" />
<path d="M 885.7 1408.8 L 875.8 1361.4" stroke="#000" stroke-width="2" fill="none" stroke-linecap="round" stroke-linejoin="round" />
<path d="M 482.3 844.7 L 484.1 834.7 L 487.7 822.5 L 493.4 805.9 L 499.1 790.7 L 508.7 762.5 L 529.1 724.9 L 550.3 691.5 L 590.6 629.0 L 593.3 624.9 L 601.9 611.0" stroke="#000" stroke-width="2" fill="none" stroke-linecap="round" stroke-linejoin="round" />
<path d="M 1247.8 1035.6 L 1148.1 1172.6" stroke="#000" stroke-width="2" fill="none" stroke-linecap="round" stroke-linejoin="round" />
<path d="M 1215.0 284.2 L 1217.9 278.4 L 1219.4 274.5 L 1219.4 268.1 L 1216.2 245.6 L 1213.5 233.4 L 1208.0 214.9 L 1197.7 200.7 L 1177.9 160.1 L 1173.0 140.8 L 1169.6 121.3 L 1167.9 103.6 L 1168.0 80.6 L 1174.9 43.0 L 1180.9 27.0" stroke="#000" stroke-width="2" fill="none" stroke-linecap="round" stroke-linejoin="round" />
<path d="M 1065.9 469.3 L 1054.2 460.6 L 1038.6 449.4" stroke="#000" stroke-width="2" fill="none" stroke-linecap="round" stroke-linejoin="round" />
<path d="M 1184.1 509.3 L 1189.0 502.3 L 1192.2 500.3 L 1197.5 499.8 L 1201.9 498.6 L 1205.5 495.1 L 1215.3 480.8 L 1224.8 471.2 L 1231.1 465.3 L 1236.4 458.6 L 1243.9 448.5 L 1249.0 441.3 L 1251.8 434.8 L 1252.8 427.9 L 1252.6 418.4 L 1249.7 388.1 L 1246.2 364.4 L 1242.4 343.0 L 1239.7 325.8 L 1237.1 317.6 L 1233.8 311.2 L 1225.7 301.1 L 1223.5 296.1 L 1223.1 293.2 L 1223.5 289.9" stroke="#000" stroke-width="2" fill="none" stroke-linecap="round" stroke-linejoin="round" />
  

  <path d="M 464.7 1195.5 L 462.3 1183.1 L 459.9 1168.1 L 458.1 1152.1 L 457.7 1140.7 L 458.6 1127.2 L 461.6 1106.8 L 466.2 1068.7 L 478.3 955.9 L 481.8 916.8 L 483.9 893.4 L 484.9 870.1 L 484.8 858.3 L 483.7 850.4 L 482.3 844.7" stroke="#000" stroke-width="5" fill="none" stroke-linecap="round" stroke-linejoin="round" />
<path d="M 117.8 641.8 L 117.9 660.0 L 121.6 670.8 L 127.8 681.5 L 138.1 691.5 L 206.1 721.4 L 207.8 722.1 L 371.8 792.3 L 432.9 816.4 L 458.0 825.9 L 464.8 829.1 L 469.8 832.2 L 474.6 836.3 L 482.3 844.7" stroke="#000" stroke-width="5" fill="none" stroke-linecap="round" stroke-linejoin="round" />
<path d="M 464.7 1195.5 L 475.8 1201.4 L 495.8 1209.2 L 528.9 1219.3 L 574.5 1231.0 L 586.7 1234.4 L 598.0 1239.1 L 605.8 1245.3 L 680.8 1301.3 L 803.0 1403.0" stroke="#000" stroke-width="5" fill="none" stroke-linecap="round" stroke-linejoin="round" />
<path d="M 848.1 -100.2 L 855.5 -89.4 L 948.4 23.1 L 1037.4 126.4 L 1210.6 280.3 L 1215.0 284.2 L 1223.5 289.9 L 1231.1 293.6 L 1242.3 295.5 L 1256.7 294.6 L 1270.0 295.0 L 1282.8 296.9 L 1297.6 301.2 L 1309.3 308.4 L 1319.9 316.1 L 1331.6 320.3 L 1417.7 334.4 L 1426.2 337.3" stroke="#000" stroke-width="5" fill="none" stroke-linecap="round" stroke-linejoin="round" />
<path d="M 1426.2 337.3 L 1432.3 347.6 L 1457.5 426.5 L 1537.8 688.4 L 1560.7 763.5" stroke="#000" stroke-width="5" fill="none" stroke-linecap="round" stroke-linejoin="round" />
<path d="M 885.7 1408.8 L 883.1 1406.1 L 878.4 1403.3 L 873.1 1400.1 L 866.2 1398.0 L 859.7 1398.0 L 854.2 1398.4 L 845.3 1401.4" stroke="#000" stroke-width="5" fill="none" stroke-linecap="round" stroke-linejoin="round" />
<path d="M 1560.7 763.5 L 1588.8 747.5 L 1629.1 728.6 L 1692.2 698.9 L 1774.3 676.7 L 1832.5 659.7 L 1865.5 650.1 L 1923.3 634.6 L 1944.2 627.3 L 1955.4 624.5 L 2003.1 612.3 L 2036.6 603.0 L 2070.8 594.4 L 2103.2 586.1 L 2181.2 566.3 L 2243.2 550.0 L 2350.7 522.8 L 2382.5 514.6 L 2429.4 502.5 L 2479.4 488.5 L 2517.4 478.4 L 2572.8 462.3 L 2604.4 454.6 L 2650.0 443.1 L 2664.2 439.5 L 2733.6 421.9 L 2743.8 419.4 L 2745.5 419.7 L 2768.9 416.4 L 2847.5 431.1 L 2861.7 433.8 L 2938.9 450.4 L 3052.0 474.8 L 3229.5 517.2 L 3266.5 525.4 L 3299.1 529.8 L 3330.9 532.1 L 3442.4 534.6 L 3503.3 519.1 L 3546.6 509.5 L 3637.0 486.2 L 3782.6 446.1 L 3815.4 437.6 L 3929.3 410.3 L 3934.2 409.3 L 4031.0 388.3 L 4147.3 365.1 L 4234.2 352.3 L 4290.8 342.6 L 4341.3 333.9 L 4384.6 338.7 L 4475.2 361.8 L 4497.9 366.6 L 4549.0 436.3" stroke="#000" stroke-width="5" fill="none" stroke-linecap="round" stroke-linejoin="round" />
<path d="M 464.7 1195.5 L 462.3 1183.1 L 459.9 1168.1 L 458.1 1152.1 L 457.7 1140.7 L 458.6 1127.2 L 461.6 1106.8 L 466.2 1068.7 L 478.3 955.9 L 481.8 916.8 L 483.9 893.4 L 484.9 870.1 L 484.8 858.3 L 483.7 850.4 L 482.3 844.7" stroke="#fff" stroke-width="2.2" fill="none" stroke-linecap="round" stroke-linejoin="round"/>
<path d="M 117.8 641.8 L 117.9 660.0 L 121.6 670.8 L 127.8 681.5 L 138.1 691.5 L 206.1 721.4 L 207.8 722.1 L 371.8 792.3 L 432.9 816.4 L 458.0 825.9 L 464.8 829.1 L 469.8 832.2 L 474.6 836.3 L 482.3 844.7" stroke="#fff" stroke-width="2.2" fill="none" stroke-linecap="round" stroke-linejoin="round"/>
<path d="M 464.7 1195.5 L 475.8 1201.4 L 495.8 1209.2 L 528.9 1219.3 L 574.5 1231.0 L 586.7 1234.4 L 598.0 1239.1 L 605.8 1245.3 L 680.8 1301.3 L 803.0 1403.0" stroke="#fff" stroke-width="2.2" fill="none" stroke-linecap="round" stroke-linejoin="round"/>
<path d="M 848.1 -100.2 L 855.5 -89.4 L 948.4 23.1 L 1037.4 126.4 L 1210.6 280.3 L 1215.0 284.2 L 1223.5 289.9 L 1231.1 293.6 L 1242.3 295.5 L 1256.7 294.6 L 1270.0 295.0 L 1282.8 296.9 L 1297.6 301.2 L 1309.3 308.4 L 1319.9 316.1 L 1331.6 320.3 L 1417.7 334.4 L 1426.2 337.3" stroke="#fff" stroke-width="2.2" fill="none" stroke-linecap="round" stroke-linejoin="round"/>
<path d="M 1426.2 337.3 L 1432.3 347.6 L 1457.5 426.5 L 1537.8 688.4 L 1560.7 763.5" stroke="#fff" stroke-width="2.2" fill="none" stroke-linecap="round" stroke-linejoin="round"/>
<path d="M 885.7 1408.8 L 883.1 1406.1 L 878.4 1403.3 L 873.1 1400.1 L 866.2 1398.0 L 859.7 1398.0 L 854.2 1398.4 L 845.3 1401.4" stroke="#fff" stroke-width="2.2" fill="none" stroke-linecap="round" stroke-linejoin="round"/>
<path d="M 1560.7 763.5 L 1588.8 747.5 L 1629.1 728.6 L 1692.2 698.9 L 1774.3 676.7 L 1832.5 659.7 L 1865.5 650.1 L 1923.3 634.6 L 1944.2 627.3 L 1955.4 624.5 L 2003.1 612.3 L 2036.6 603.0 L 2070.8 594.4 L 2103.2 586.1 L 2181.2 566.3 L 2243.2 550.0 L 2350.7 522.8 L 2382.5 514.6 L 2429.4 502.5 L 2479.4 488.5 L 2517.4 478.4 L 2572.8 462.3 L 2604.4 454.6 L 2650.0 443.1 L 2664.2 439.5 L 2733.6 421.9 L 2743.8 419.4 L 2745.5 419.7 L 2768.9 416.4 L 2847.5 431.1 L 2861.7 433.8 L 2938.9 450.4 L 3052.0 474.8 L 3229.5 517.2 L 3266.5 525.4 L 3299.1 529.8 L 3330.9 532.1 L 3442.4 534.6 L 3503.3 519.1 L 3546.6 509.5 L 3637.0 486.2 L 3782.6 446.1 L 3815.4 437.6 L 3929.3 410.3 L 3934.2 409.3 L 4031.0 388.3 L 4147.3 365.1 L 4234.2 352.3 L 4290.8 342.6 L 4341.3 333.9 L 4384.6 338.7 L 4475.2 361.8 L 4497.9 366.6 L 4549.0 436.3" stroke="#fff" stroke-width="2.2" fill="none" stroke-linecap="round" stroke-linejoin="round"/>
  
    <g stroke="#000" fill="none" stroke-width="2.9952">
      <circle cx="936" cy="702" r="16.848" fill="#fff" fill-opacity="0.7"/>
      <circle cx="936" cy="702" r="3.744" fill="#000" stroke="none"/>
    </g>
  <rect width="100%" height="100%" fill="url(#vignette)"/>
  
    <g transform="translate(1776, 116)" stroke="#000" stroke-width="2.2464" fill="#000">
      <line x1="0" y1="37.44" x2="0" y2="-37.44"/>
      <path d="M 0 -37.44 L 13.104 -13.104 L 0 -22.464 L -13.104 -13.104 Z"/>
      <text x="0" y="59.44" text-anchor="middle" font-family="Georgia, serif" font-size="22.464000000000002">N</text>
    </g>
  
    <g stroke="#000" stroke-width="2.2464" fill="#000" font-family="Georgia, serif">
      <line x1="96" y1="1308" x2="291" y2="1308"/>
      <line x1="96" y1="1301" x2="96" y2="1315"/>
      <line x1="193.5" y1="1304" x2="193.5" y2="1312"/>
      <line x1="291" y1="1301" x2="291" y2="1315"/>
      <text x="193.5" y="1294" text-anchor="middle" font-size="20.592" stroke="none">250 m</text>
    </g>
  <rect x="66" y="66" width="1740" height="1272" fill="none" stroke="#000" stroke-width="2" stroke-opacity="0.7"/>
  <rect x="74" y="74" width="1724" height="1256" fill="none" stroke="#000" stroke-width="1" stroke-opacity="0.4"/>
  
</svg>