<svg xmlns="http://www.w3.org/2000/svg" width="1872" height="1404" viewBox="0 0 1872 1404">
  <defs>
    <radialGradient id="vignette" cx="50%" cy="50%" r="954.72" gradientUnits="userSpaceOnUse">
      <stop offset="55%" stop-color="#fff" stop-opacity="0"/>
      <stop offset="100%" stop-color="#fff" stop-opacity="1"/>
    </radialGradient>
    <pattern id="hatch" patternUnits="userSpaceOnUse" width="9" height="9" patternTransform="rotate(45)">
      <line x1="0" y1="0" x2="0" y2="9" stroke="#000" stroke-width="0.9" stroke-opacity="0.4"/>
    </pattern>
  </defs>
  <rect width="100%" height="100%" fill="#fff"/>
  <path d="M 1497.5 457.4 L 1519.6 455.8 L 1510.2 472.6 L 1518.0 476.7 L 1522.1 486.9 L 1526.6 593.5 L 1498.3 581.6 L 1484.8 554.5 L 1482.7 463.5 L 1497.5 457.4 Z" fill="#9a9a9a" stroke="#000" stroke-width="1.4"/>
<path d="M 1497.4 640.9 L 1508.0 635.2 L 1524.9 679.5 L 1511.3 683.6 L 1502.3 681.9 L 1495.3 648.3 L 1497.4 640.9 Z" fill="#9a9a9a" stroke="#000" stroke-width="1.4"/>
  
  
  
  <path d="M 962.4 92.5 L 952.7 88.7 L 935.3 88.9 L 875.6 88.3 L 633.0 84.0 L 607.6 83.7 L 564.7 83.2 L 557.2 81.5 L 550.5 77.5 L 544.3 68.4 L 541.5 60.8 L 542.8 -41.6 L 543.6 -67.6 L 545.9 -145.7 L 546.2 -156.4 L 546.4 -235.7 L 546.5 -266.1 L 543.9 -269.4 L 535.2 -272.1" stroke="#000" stroke-width="1.1" fill="none" stroke-linecap="round" stroke-linejoin="round" stroke-opacity="0.75"/>
<path d="M 607.6 83.7 L 607.5 94.4" stroke="#000" stroke-width="1.1" fill="none" stroke-linecap="round" stroke-linejoin="round" stroke-opacity="0.75"/>
<path d="M 506.6 212.8 L 511.5 -138.2" stroke="#000" stroke-width="1.1" fill="none" stroke-linecap="round" stroke-linejoin="round" stroke-opacity="0.75"/>
<path d="M 950.1 122.4 L 875.3 120.3 L 855.4 120.2 L 669.4 117.2 L 611.8 116.3 L 607.7 116.3 L 542.7 115.2" stroke="#000" stroke-width="1.1" fill="none" stroke-linecap="round" stroke-linejoin="round" stroke-opacity="0.75"/>
<path d="M 982.1 840.5 L 951.6 823.5 L 950.9 822.5 L 950.3 821.2 L 943.4 804.6 L 942.8 802.2 L 946.5 792.8 L 946.6 790.8 L 945.8 789.2 L 909.0 771.6 L 907.5 770.6 L 883.3 752.2 L 882.6 751.5 L 882.1 750.6 L 880.9 748.2" stroke="#000" stroke-width="1.1" fill="none" stroke-linecap="round" stroke-linejoin="round" stroke-opacity="0.75"/>
<path d="M 1018.5 741.2 L 1011.6 760.8 L 1011.0 764.0 L 1011.1 768.3 L 1011.5 772.5 L 1011.2 775.7 L 982.1 840.5 L 978.6 849.2 L 978.1 852.6 L 977.9 865.5 L 977.0 868.6 L 966.3 889.9 L 965.2 894.0 L 964.9 897.5 L 961.9 926.5 L 959.4 963.7" stroke="#000" stroke-width="1.1" fill="none" stroke-linecap="round" stroke-linejoin="round" stroke-opacity="0.75"/>
<path d="M 877.7 382.9 L 857.2 374.3" stroke="#000" stroke-width="1.1" fill="none" stroke-linecap="round" stroke-linejoin="round" stroke-opacity="0.75"/>
<path d="M 897.9 50.8 L 1016.6 46.7 L 1029.7 51.0" stroke="#000" stroke-width="1.1" fill="none" stroke-linecap="round" stroke-linejoin="round" stroke-opacity="0.75"/>
<path d="M 611.7 155.0 L 623.2 155.1 L 629.5 155.4 L 635.3 156.6 L 642.0 159.5 L 655.7 164.7 L 659.8 167.3 L 662.8 170.3 L 668.5 177.1 L 670.9 179.4 L 672.8 180.5 L 677.9 181.9 L 685.0 182.4 L 702.4 182.5 L 713.1 182.6 L 726.6 182.7 L 735.6 183.0 L 745.7 183.3 L 756.3 183.4" stroke="#000" stroke-width="1.1" fill="none" stroke-linecap="round" stroke-linejoin="round" stroke-opacity="0.75"/>
<path d="M 325.3 383.0 L 430.9 383.8 L 435.0 381.9 L 437.6 378.8 L 438.4 373.9 L 438.3 272.9 L 437.1 220.1 L 436.9 212.0" stroke="#000" stroke-width="1.1" fill="none" stroke-linecap="round" stroke-linejoin="round" stroke-opacity="0.75"/>
<path d="M 324.5 270.4 L 438.3 272.9 L 447.6 273.2 L 458.2 273.4" stroke="#000" stroke-width="1.1" fill="none" stroke-linecap="round" stroke-linejoin="round" stroke-opacity="0.75"/>
<path d="M 868.2 411.0 L 877.7 382.9 L 900.5 315.4 L 919.7 258.7" stroke="#000" stroke-width="1.1" fill="none" stroke-linecap="round" stroke-linejoin="round" stroke-opacity="0.75"/>
<path d="M 610.6 203.9 L 614.8 204.0 L 619.7 204.3 L 623.0 204.1 L 626.7 203.6 L 629.9 201.6 L 631.5 199.2 L 632.4 193.5 L 635.3 156.6" stroke="#000" stroke-width="1.1" fill="none" stroke-linecap="round" stroke-linejoin="round" stroke-opacity="0.75"/>
<path d="M 376.1 414.5 L 376.1 468.7 L 373.3 495.5" stroke="#000" stroke-width="1.1" fill="none" stroke-linecap="round" stroke-linejoin="round" stroke-opacity="0.75"/>
<path d="M 456.5 433.1 L 448.9 432.9 L 433.4 432.5 L 430.7 431.7 L 428.7 430.2 L 426.1 427.6 L 423.5 424.6 L 419.5 420.2 L 415.5 416.4 L 412.3 414.8 L 408.9 414.4 L 376.1 414.5 L 232.5 420.4" stroke="#000" stroke-width="1.1" fill="none" stroke-linecap="round" stroke-linejoin="round" stroke-opacity="0.75"/>
<path d="M 338.5 531.2 L 321.3 537.0 L 296.8 543.8 L 290.0 545.7 L 281.6 551.7 L 271.5 560.9 L 259.2 574.3 L 249.4 586.5 L 245.9 594.6 L 242.6 617.1 L 242.1 634.3 L 243.0 664.7 L 244.2 689.8" stroke="#000" stroke-width="1.1" fill="none" stroke-linecap="round" stroke-linejoin="round" stroke-opacity="0.75"/>
<path d="M 455.9 492.9 L 447.8 493.2 L 432.1 493.8 L 405.8 494.8 L 373.3 495.5 L 348.0 496.6 L 333.2 497.0 L 302.9 498.3 L 275.3 502.2 L 268.6 501.1 L 264.6 499.5 L 262.6 496.7 L 261.4 493.4 L 261.6 485.0 L 261.1 480.2 L 259.8 477.0 L 257.5 475.4 L 254.5 474.7 L 220.7 474.4" stroke="#000" stroke-width="1.1" fill="none" stroke-linecap="round" stroke-linejoin="round" stroke-opacity="0.75"/>
<path d="M 329.1 210.9 L 328.3 220.5 L 324.5 270.4 L 324.3 374.6 L 325.3 383.0 L 329.1 395.1 L 331.5 398.9 L 333.9 400.5 L 337.8 401.3 L 399.8 402.3" stroke="#000" stroke-width="1.1" fill="none" stroke-linecap="round" stroke-linejoin="round" stroke-opacity="0.75"/>
<path d="M 885.2 1269.6 L 866.1 1261.8" stroke="#000" stroke-width="1.1" fill="none" stroke-linecap="round" stroke-linejoin="round" stroke-opacity="0.75"/>
<path d="M 795.5 814.4 L 791.2 819.7 L 788.1 827.0 L 785.6 828.9 L 783.6 828.1 L 750.0 808.5" stroke="#000" stroke-width="1.1" fill="none" stroke-linecap="round" stroke-linejoin="round" stroke-opacity="0.75"/>
<path d="M 700.5 938.4 L 678.4 941.0" stroke="#000" stroke-width="1.1" fill="none" stroke-linecap="round" stroke-linejoin="round" stroke-opacity="0.75"/>
<path d="M 824.8 924.0 L 813.2 925.3 L 802.7 925.9 L 760.9 914.5 L 756.3 915.7 L 752.6 917.0 L 747.0 920.2 L 741.5 928.3 L 737.4 929.5 L 732.4 928.3 L 713.6 918.3 L 710.6 918.5 L 708.7 920.6 L 700.5 938.4 L 695.9 947.0 L 695.1 951.1 L 695.2 956.2 L 701.1 1024.6 L 699.3 1031.8 L 696.0 1038.4 L 690.3 1049.9 L 658.1 1134.5 L 654.3 1138.9 L 648.9 1139.2 L 610.0 1131.2 L 604.9 1128.6 L 602.5 1121.5 L 605.3 1114.0 L 631.5 1043.1 L 634.8 1037.9 L 639.2 1036.3 L 652.7 1036.3 L 696.0 1038.4" stroke="#000" stroke-width="1.1" fill="none" stroke-linecap="round" stroke-linejoin="round" stroke-opacity="0.75"/>
<path d="M 514.5 1232.3 L 519.0 1271.2" stroke="#000" stroke-width="1.1" fill="none" stroke-linecap="round" stroke-linejoin="round" stroke-opacity="0.75"/>
<path d="M 284.5 -93.0 L 374.1 -91.7 L 485.5 -90.6 L 488.9 -89.8 L 491.1 -87.6 L 492.2 -85.7 L 492.3 -83.9 L 488.4 159.5 L 488.1 161.7 L 487.6 163.8 L 486.6 165.0 L 485.1 166.2 L 483.4 167.0 L 480.7 167.1 L 361.8 164.4 L 283.5 162.2 L 280.6 159.3 L 279.0 154.0 L 279.1 138.5 L 279.2 133.7 L 279.8 94.6 L 284.5 -93.0" stroke="#000" stroke-width="1.1" fill="none" stroke-linecap="round" stroke-linejoin="round" stroke-opacity="0.75"/>
<path d="M 1372.1 511.6 L 1461.5 511.0" stroke="#000" stroke-width="1.1" fill="none" stroke-linecap="round" stroke-linejoin="round" stroke-opacity="0.75"/>
<path d="M 1226.2 1030.6 L 1225.6 992.6" stroke="#000" stroke-width="1.1" fill="none" stroke-linecap="round" stroke-linejoin="round" stroke-opacity="0.75"/>
<path d="M 964.9 897.5 L 962.4 897.4 L 959.3 896.9 L 955.6 895.4 L 952.4 893.8 L 941.0 886.0 L 939.8 885.7 L 938.7 885.8 L 937.7 886.2 L 936.8 886.9 L 931.7 894.2" stroke="#000" stroke-width="1.1" fill="none" stroke-linecap="round" stroke-linejoin="round" stroke-opacity="0.75"/>
<path d="M 822.4 777.3 L 825.3 777.5 L 827.6 777.5 L 829.9 777.1 L 832.1 776.1 L 834.4 774.2 L 837.3 770.9 L 843.3 764.5 L 845.4 762.3 L 848.7 758.6 L 851.1 756.6 L 854.0 754.7 L 857.2 752.6 L 862.0 750.5 L 867.0 748.9 L 871.6 748.1 L 876.7 748.9 L 879.4 748.7 L 880.9 748.2" stroke="#000" stroke-width="1.1" fill="none" stroke-linecap="round" stroke-linejoin="round" stroke-opacity="0.75"/>
<path d="M 1180.7 1299.7 L 1182.4 1346.8" stroke="#000" stroke-width="1.1" fill="none" stroke-linecap="round" stroke-linejoin="round" stroke-opacity="0.75"/>
<path d="M 1244.3 1243.3 L 1243.0 1185.9" stroke="#000" stroke-width="1.1" fill="none" stroke-linecap="round" stroke-linejoin="round" stroke-opacity="0.75"/>
<path d="M 1125.6 1209.5 L 1088.5 1215.2" stroke="#000" stroke-width="1.1" fill="none" stroke-linecap="round" stroke-linejoin="round" stroke-opacity="0.75"/>
<path d="M 1430.5 815.7 L 1418.4 816.9 L 1402.2 817.0 L 1399.6 817.1 L 1397.2 817.6 L 1395.9 818.9 L 1395.1 820.8 L 1394.9 824.2 L 1394.9 834.8" stroke="#000" stroke-width="1.1" fill="none" stroke-linecap="round" stroke-linejoin="round" stroke-opacity="0.75"/>
<path d="M 1450.6 811.2 L 1451.9 787.1 L 1450.2 726.2" stroke="#000" stroke-width="1.1" fill="none" stroke-linecap="round" stroke-linejoin="round" stroke-opacity="0.75"/>
<path d="M 1134.7 683.5 L 1130.3 682.4 L 1127.1 682.2 L 1125.9 683.0 L 1124.5 686.5 L 1116.8 712.6" stroke="#000" stroke-width="1.1" fill="none" stroke-linecap="round" stroke-linejoin="round" stroke-opacity="0.75"/>
<path d="M 456.0 484.6 L 447.9 484.8 L 435.0 485.0 L 431.7 484.8 L 428.2 484.0 L 405.7 477.8 L 390.8 473.9 L 376.1 468.7" stroke="#000" stroke-width="1.1" fill="none" stroke-linecap="round" stroke-linejoin="round" stroke-opacity="0.75"/>
<path d="M 1260.0 516.3 L 1263.2 528.1 L 1266.5 539.5 L 1267.4 549.0 L 1267.1 559.5 L 1264.2 571.9 L 1262.1 593.1 L 1262.5 596.0 L 1263.5 599.4 L 1266.1 601.3 L 1299.6 598.4" stroke="#000" stroke-width="1.1" fill="none" stroke-linecap="round" stroke-linejoin="round" stroke-opacity="0.75"/>
<path d="M 1015.8 1073.0 L 1009.7 1086.9 L 1005.8 1090.8" stroke="#000" stroke-width="1.1" fill="none" stroke-linecap="round" stroke-linejoin="round" stroke-opacity="0.75"/>
<path d="M 405.8 494.8 L 405.7 477.8" stroke="#000" stroke-width="1.1" fill="none" stroke-linecap="round" stroke-linejoin="round" stroke-opacity="0.75"/>
<path d="M 431.7 484.8 L 432.1 493.8" stroke="#000" stroke-width="1.1" fill="none" stroke-linecap="round" stroke-linejoin="round" stroke-opacity="0.75"/>
<path d="M 415.5 416.4 L 414.9 422.3 L 415.1 425.2 L 416.2 427.9 L 417.9 430.0 L 420.9 431.8 L 424.3 432.5 L 433.4 432.5" stroke="#000" stroke-width="1.1" fill="none" stroke-linecap="round" stroke-linejoin="round" stroke-opacity="0.75"/>
<path d="M 900.5 315.4 L 929.7 324.6 L 935.2 326.3" stroke="#000" stroke-width="1.1" fill="none" stroke-linecap="round" stroke-linejoin="round" stroke-opacity="0.75"/>
<path d="M 760.9 914.5 L 749.2 909.4 L 746.8 905.6 L 745.9 898.6 L 747.1 890.1 L 749.6 885.5 L 752.2 880.9 L 758.1 870.5" stroke="#000" stroke-width="1.1" fill="none" stroke-linecap="round" stroke-linejoin="round" stroke-opacity="0.75"/>
<path d="M 749.6 885.5 L 728.0 874.8" stroke="#000" stroke-width="1.1" fill="none" stroke-linecap="round" stroke-linejoin="round" stroke-opacity="0.75"/>
<path d="M 272.8 826.4 L 298.3 825.3" stroke="#000" stroke-width="1.1" fill="none" stroke-linecap="round" stroke-linejoin="round" stroke-opacity="0.75"/>
<path d="M 607.8 106.7 L 607.7 116.3" stroke="#000" stroke-width="1.1" fill="none" stroke-linecap="round" stroke-linejoin="round" stroke-opacity="0.75"/>
<path d="M 931.4 188.1 L 932.0 207.8 L 975.1 208.7" stroke="#000" stroke-width="1.1" fill="none" stroke-linecap="round" stroke-linejoin="round" stroke-opacity="0.75"/>
  <path d="M 249.4 586.5 L 240.2 581.2 L 232.6 574.4 L 227.8 566.8 L 225.9 559.7 L 224.5 551.9 L 223.1 546.5 L 220.1 538.4 L 215.2 528.9 L 208.7 518.0 L 199.8 510.2 L 177.8 493.6 L 161.4 480.0 L 135.9 464.1 L 123.6 451.1 L 117.8 447.1 L 102.4 440.5 L 92.7 435.3 L 79.8 426.6 L 72.4 424.8 L 41.0 424.6" stroke="#000" stroke-width="0.8" fill="none" stroke-linecap="round" stroke-linejoin="round" stroke-opacity="0.5" stroke-dasharray="4 5"/>
  <path d="M -1666.9 480.6 L -1663.0 482.1 L -1656.3 483.5 L -1611.3 481.7 L -1510.4 478.8 L -1469.8 478.4 L -1443.3 478.1 L -1421.0 477.9 L -1351.8 477.3 L -1304.9 473.6 L -1302.7 473.6 L -1282.0 472.7 L -1261.5 471.9 L -1242.5 471.1 L -1225.0 470.2 L -1183.5 468.2 L -1163.2 467.2 L -1154.3 468.0 L -1149.7 468.1 L -1042.1 464.9 L -1013.6 464.0 L -986.9 463.2 L -982.3 463.1 L -963.5 462.6 L -958.4 462.4 L -797.8 457.6 L -779.3 457.1 L -733.3 455.7 L -717.6 455.3 L -705.6 454.9 L -677.3 454.1 L -672.6 453.9 L -665.5 453.7 L -646.5 453.1 L -634.7 452.9 L -608.8 452.1 L -590.8 451.3 L -566.9 450.4 L -553.4 450.9 L -543.1 450.7 L -532.8 451.5 L -518.7 454.5 L -497.7 460.4 L -461.3 468.9 L -453.8 470.2 L -443.2 471.7 L -415.9 472.7 L -395.8 473.5 L -288.9 473.8 L -225.8 473.8 L -167.6 475.3 L -153.9 477.0 L -138.4 480.0 L -128.0 483.1 L -110.2 489.5 L -103.0 493.1 L -89.7 499.7 L -47.4 523.7 L 6.9 557.4 L 97.7 613.8 L 142.8 642.1 L 159.0 651.5 L 177.2 662.6 L 197.1 675.1 L 226.3 685.4 L 244.2 689.8 L 255.8 692.7 L 260.9 692.6 L 302.6 692.0 L 348.8 691.2 L 365.9 690.9 L 375.8 690.8 L 386.1 690.4 L 413.0 688.5 L 442.0 687.5 L 490.6 685.4 L 561.3 681.8 L 598.2 680.7 L 645.3 678.2 L 652.2 677.6 L 738.9 676.1 L 801.3 714.2 L 810.8 719.1" stroke="#000" stroke-width="2" fill="none" stroke-linecap="round" stroke-linejoin="round" />
<path d="M 458.8 212.2 L 458.2 273.4 L 456.7 414.7 L 456.5 433.1 L 456.0 484.6 L 455.9 492.9 L 455.8 497.0 L 457.0 499.7 L 460.0 501.2 L 463.4 501.8 L 490.3 501.9" stroke="#000" stroke-width="2" fill="none" stroke-linecap="round" stroke-linejoin="round" />
<path d="M 530.8 106.6 L 530.4 132.0 L 527.2 206.6 L 526.2 209.2 L 524.9 210.9 L 522.7 212.4 L 519.8 212.7 L 516.4 212.8 L 511.0 212.8" stroke="#000" stroke-width="2" fill="none" stroke-linecap="round" stroke-linejoin="round" />
<path d="M 607.5 94.4 L 607.8 106.7" stroke="#000" stroke-width="2" fill="none" stroke-linecap="round" stroke-linejoin="round" />
<path d="M 874.9 97.6 L 875.6 88.3 L 876.8 49.8 L 876.1 -20.7 L 877.5 -100.2 L 878.2 -139.6 L 880.2 -256.5 L 886.2 -286.0" stroke="#000" stroke-width="2" fill="none" stroke-linecap="round" stroke-linejoin="round" />
<path d="M 511.0 212.8 L 506.6 212.8 L 458.8 212.2 L 436.9 212.0 L 360.7 211.2 L 329.1 210.9 L 307.5 210.6 L 235.5 209.9 L 183.0 209.3 L 152.9 209.0 L 99.9 208.4 L 89.7 208.3 L 8.2 207.5 L -100.4 206.3 L -113.6 205.7 L -119.9 203.8 L -122.4 200.1 L -124.0 193.6 L -124.4 182.9 L -121.9 90.4" stroke="#000" stroke-width="2" fill="none" stroke-linecap="round" stroke-linejoin="round" />
<path d="M 557.8 106.7 L 549.6 109.4 L 542.7 115.2 L 541.1 116.6 L 535.9 123.2 L 530.4 132.0" stroke="#000" stroke-width="2" fill="none" stroke-linecap="round" stroke-linejoin="round" />
<path d="M 982.5 187.0 L 975.2 170.3" stroke="#000" stroke-width="2" fill="none" stroke-linecap="round" stroke-linejoin="round" />
<path d="M 1071.5 67.6 L 1074.8 65.8 L 1077.6 64.1 L 1081.3 63.2 L 1086.8 62.5 L 1145.8 61.2 L 1322.2 63.8 L 1372.1 64.9 L 1379.3 64.7 L 1553.2 67.9" stroke="#000" stroke-width="2" fill="none" stroke-linecap="round" stroke-linejoin="round" />
<path d="M 1607.0 209.1 L 1568.2 211.2 L 1536.4 212.8 L 1517.3 213.9 L 1485.2 215.8 L 1452.5 217.7 L 1434.3 218.8 L 1401.3 218.4 L 1381.4 216.8 L 1373.6 216.3 L 1346.2 214.5 L 1188.6 213.5" stroke="#000" stroke-width="2" fill="none" stroke-linecap="round" stroke-linejoin="round" />
<path d="M 1145.8 61.2 L 1147.7 14.9 L 1148.8 12.0 L 1202.3 -136.6 L 1206.6 -143.6 L 1211.5 -146.6 L 1267.1 -146.6 L 1320.6 -147.4 L 1373.2 -149.2" stroke="#000" stroke-width="2" fill="none" stroke-linecap="round" stroke-linejoin="round" />
<path d="M 1821.5 82.0 L 1812.7 81.9 L 1610.7 77.7 L 1599.8 77.5 L 1577.0 77.2 L 1553.1 76.9 L 1455.8 75.5 L 1451.8 75.6 L 1441.2 75.7 L 1405.4 76.3 L 1379.8 76.7 L 1375.1 76.6 L 1359.1 76.2 L 1189.9 72.0" stroke="#000" stroke-width="2" fill="none" stroke-linecap="round" stroke-linejoin="round" />
<path d="M 842.6 1816.0 L 842.5 1812.6 L 842.2 1798.2 L 841.8 1779.0 L 842.5 1745.9 L 842.7 1734.8 L 842.9 1726.7 L 844.2 1671.2 L 845.0 1654.7 L 851.9 1578.7 L 856.8 1533.6 L 859.0 1513.6 L 863.2 1475.5 L 865.0 1458.6 L 868.9 1421.9 L 872.9 1383.6 L 879.5 1321.5 L 880.5 1311.4 L 881.5 1301.3 L 885.2 1269.6 L 886.9 1254.2 L 891.2 1215.7 L 892.0 1191.7 L 891.2 1181.7 L 887.9 1142.1 L 882.8 1102.9 L 881.5 1097.4 L 876.3 1074.8 L 854.5 1008.1 L 844.7 978.2 L 842.8 973.2 L 828.9 935.0 L 824.8 924.0 L 809.1 881.0 L 799.2 844.8 L 797.4 833.4 L 795.5 814.4 L 794.9 782.9 L 795.4 764.5 L 796.0 744.6 L 801.3 714.2 L 813.8 672.3 L 830.3 619.8 L 832.3 613.6 L 846.4 570.8 L 854.7 548.1 L 894.3 440.0 L 901.7 419.7 L 927.2 350.1" stroke="#000" stroke-width="2" fill="none" stroke-linecap="round" stroke-linejoin="round" />
<path d="M 962.8 329.6 L 923.9 434.4 L 893.9 514.9 L 852.3 636.4 L 848.4 646.9 L 840.6 664.7 L 836.3 674.6 L 830.3 698.0 L 829.5 703.3 L 825.5 727.1 L 824.0 735.9 L 822.6 770.5 L 822.4 777.3 L 822.9 784.2 L 823.0 788.2 L 823.3 805.5 L 825.5 825.7 L 826.9 832.2 L 832.3 857.6 L 850.7 916.2 L 854.3 928.6 L 858.8 944.3 L 896.4 1054.0 L 906.2 1090.8 L 910.1 1105.3 L 915.3 1141.8 L 918.1 1179.6 L 918.0 1185.6 L 917.9 1205.4 L 916.0 1226.5 L 914.5 1241.1 L 911.9 1266.0 L 909.7 1287.8 L 907.5 1309.3 L 904.7 1335.6 L 898.3 1397.7 L 895.1 1428.8 L 877.2 1599.1 L 873.0 1646.2 L 871.3 1677.5 L 873.2 1764.6" stroke="#000" stroke-width="2" fill="none" stroke-linecap="round" stroke-linejoin="round" />
<path d="M 1018.5 741.2 L 1043.4 756.6 L 1057.9 771.4 L 1060.9 774.1 L 1067.9 780.4 L 1071.3 783.3 L 1076.4 786.8 L 1085.3 791.9 L 1103.3 799.6 L 1118.0 807.9 L 1123.4 811.5 L 1129.6 816.5 L 1147.7 828.5 L 1161.7 835.8 L 1173.5 842.2 L 1218.2 862.9 L 1221.9 864.5 L 1260.9 881.1 L 1264.0 883.6 L 1264.7 886.0 L 1266.1 934.2 L 1267.5 936.2 L 1269.3 936.6 L 1274.0 936.7 L 1276.3 937.6 L 1277.4 939.1 L 1277.5 990.7" stroke="#000" stroke-width="2" fill="none" stroke-linecap="round" stroke-linejoin="round" />
<path d="M 1139.6 750.5 L 1140.6 700.8 L 1139.5 698.0 L 1135.6 692.4 L 1134.8 689.9 L 1134.6 689.2 L 1134.5 688.6 L 1134.2 687.8 L 1134.3 686.3 L 1134.7 683.5 L 1137.4 673.7 L 1137.8 671.0 L 1137.6 669.8 L 1136.9 668.5 L 1134.1 666.6 L 1086.7 641.4 L 1115.7 582.0 L 1119.0 575.2 L 1135.3 544.1 L 1178.7 474.0 L 1180.1 471.8 L 1200.2 440.5 L 1204.8 434.8 L 1209.1 431.4 L 1213.8 428.2 L 1217.6 426.9 L 1220.1 426.0 L 1222.9 424.1 L 1224.0 422.6 L 1224.8 420.2" stroke="#000" stroke-width="2" fill="none" stroke-linecap="round" stroke-linejoin="round" />
<path d="M 880.9 748.2 L 882.1 747.5 L 882.6 746.8 L 882.9 746.3 L 886.5 736.6 L 901.2 703.5 L 904.4 696.8 L 907.1 690.9 L 912.7 679.0 L 928.7 659.1 L 930.0 658.5 L 931.3 658.7 L 935.4 662.3 L 963.2 683.5 L 964.2 684.5 L 970.3 695.2 L 971.4 697.0 L 972.3 698.0 L 973.4 698.6 L 1000.9 710.6 L 1014.1 716.4 L 1016.6 717.7 L 1017.8 719.3 L 1018.0 721.0 L 1017.6 722.6 L 1016.3 725.4 L 1013.8 731.4 L 1013.3 734.2 L 1013.6 736.3 L 1015.0 738.5 L 1018.5 741.2" stroke="#000" stroke-width="2" fill="none" stroke-linecap="round" stroke-linejoin="round" />
<path d="M 886.5 736.6 L 879.0 712.7 L 877.6 710.3 L 836.3 674.6" stroke="#000" stroke-width="2" fill="none" stroke-linecap="round" stroke-linejoin="round" />
<path d="M 260.9 692.6 L 257.2 722.7 L 255.3 738.7 L 255.6 740.8 L 256.4 742.5 L 259.1 744.1 L 267.0 745.9 L 269.8 748.6 L 270.9 751.9 L 271.5 759.2 L 271.5 769.5 L 272.1 777.3 L 272.3 803.3 L 272.3 809.9 L 272.3 817.5 L 272.8 826.4 L 273.4 837.2 L 274.3 857.3 L 275.7 878.9 L 274.1 882.7 L 271.4 884.5 L 267.2 884.5 L 264.8 886.8 L 264.5 888.0 L 263.8 890.2 L 264.0 892.6 L 265.8 914.4 L 268.0 942.1" stroke="#000" stroke-width="2" fill="none" stroke-linecap="round" stroke-linejoin="round" />
<path d="M 845.3 631.5 L 852.3 636.4 L 862.1 643.4 L 871.4 650.2 L 897.2 670.5 L 912.7 679.0" stroke="#000" stroke-width="2" fill="none" stroke-linecap="round" stroke-linejoin="round" />
<path d="M 935.4 662.3 L 938.6 649.1 L 939.3 639.3 L 938.3 629.4 L 935.9 614.8 L 933.0 593.7 L 933.1 584.5 L 933.5 576.1 L 936.1 556.0 L 937.6 543.9 L 938.5 532.7 L 938.8 525.5 L 938.5 512.6" stroke="#000" stroke-width="2" fill="none" stroke-linecap="round" stroke-linejoin="round" />
<path d="M 1033.2 581.1 L 1032.2 613.4 L 1032.0 613.8 L 1031.7 613.9 L 980.6 613.5 L 975.8 613.4 L 971.7 613.0 L 967.6 612.4 L 964.1 610.7 L 956.4 606.1 L 949.3 602.4 L 942.0 598.0 L 933.0 593.7" stroke="#000" stroke-width="2" fill="none" stroke-linecap="round" stroke-linejoin="round" />
<path d="M 1044.9 149.8 L 1046.7 157.6 L 1048.1 168.6 L 1047.5 176.6 L 1043.7 192.3 L 1043.0 197.5 L 1041.8 213.9 L 1042.1 227.5 L 1043.1 251.8 L 1043.5 263.9 L 1043.6 275.3 L 1038.0 301.2 L 1032.8 320.0 L 1029.9 329.3 L 1027.0 336.3 L 1023.3 344.5 L 1019.3 352.0 L 1011.3 367.0 L 987.5 417.5 L 977.6 434.6 L 959.9 467.3 L 953.6 480.7 L 938.5 512.6 L 911.7 561.9 L 901.6 580.0 L 881.4 613.8 L 862.1 643.4" stroke="#000" stroke-width="2" fill="none" stroke-linecap="round" stroke-linejoin="round" />
<path d="M 1137.1 998.2 L 1132.9 950.5 L 1132.3 945.3 L 1131.2 942.4 L 1128.1 937.7 L 1126.8 934.7 L 1126.4 931.5 L 1125.6 907.2 L 1124.8 904.6 L 1123.2 902.9 L 1120.6 901.8 L 1101.9 901.2 L 1100.0 900.4 L 1098.8 899.3 L 1098.1 897.9 L 1097.7 894.8 L 1096.3 880.1 L 1096.1 879.6 L 1096.0 879.0 L 1095.6 878.6 L 1094.7 878.1 L 1089.7 878.3 L 1088.8 878.1 L 1088.0 877.4 L 1087.6 876.6 L 1086.6 849.9" stroke="#000" stroke-width="2" fill="none" stroke-linecap="round" stroke-linejoin="round" />
<path d="M 1520.5 709.4 L 1521.0 706.4 L 1522.6 703.6 L 1525.6 701.3 L 1530.1 700.7 L 1566.4 700.4 L 1575.6 700.0 L 1635.2 696.8 L 1635.7 696.9 L 1636.0 697.1 L 1636.2 697.4 L 1643.1 799.4 L 1644.0 863.1 L 1643.9 864.9 L 1643.0 866.3 L 1641.6 867.0 L 1616.2 868.0" stroke="#000" stroke-width="2" fill="none" stroke-linecap="round" stroke-linejoin="round" />
<path d="M 386.1 690.4 L 383.9 645.0 L 374.1 622.3 L 372.2 615.0 L 372.4 605.1 L 376.1 597.6 L 381.9 589.9 L 388.9 581.1 L 391.4 577.1 L 394.1 569.9 L 396.2 558.7 L 396.7 552.5 L 398.0 549.0 L 400.4 546.9 L 403.8 545.8 L 426.1 540.6 L 440.0 536.8 L 443.6 533.8 L 445.2 530.0 L 445.4 524.5 L 444.9 511.7 L 445.6 507.4 L 446.7 505.2 L 449.3 503.5 L 457.0 499.7" stroke="#000" stroke-width="2" fill="none" stroke-linecap="round" stroke-linejoin="round" />
<path d="M 742.6 752.1 L 729.5 755.4 L 702.0 764.4 L 689.9 768.3 L 668.2 773.2 L 653.3 776.4 L 640.9 779.1 L 629.0 785.0 L 617.0 792.2 L 602.2 803.2 L 595.4 812.4 L 588.1 819.7 L 579.1 824.9 L 571.8 827.0" stroke="#000" stroke-width="2" fill="none" stroke-linecap="round" stroke-linejoin="round" />
<path d="M 652.2 677.6 L 652.0 665.1 L 649.3 652.5 L 647.9 635.0 L 647.4 613.3 L 646.6 596.6 L 646.2 582.2 L 645.8 561.2 L 645.4 550.2 L 645.1 542.2 L 643.2 495.7 L 641.1 452.8 L 638.5 404.5" stroke="#000" stroke-width="2" fill="none" stroke-linecap="round" stroke-linejoin="round" />
<path d="M 611.8 116.3 L 611.7 155.0 L 611.8 171.1 L 610.6 203.9 L 609.8 228.8 L 613.0 235.7 L 621.7 240.0 L 633.3 241.5 L 658.4 241.7 L 695.2 242.9 L 739.2 242.9 L 777.8 241.3 L 819.1 238.4 L 843.6 237.3 L 859.9 234.5 L 868.0 230.0 L 872.9 225.1 L 876.0 218.4 L 876.9 192.5 L 876.3 155.8 L 875.3 120.3" stroke="#000" stroke-width="2" fill="none" stroke-linecap="round" stroke-linejoin="round" />
<path d="M 658.4 241.7 L 658.6 258.2 L 659.0 269.3 L 659.7 290.7 L 660.4 302.4 L 661.0 317.8 L 661.5 329.4 L 662.1 338.2 L 662.3 341.0 L 662.8 345.2 L 663.3 347.5 L 664.5 348.4 L 667.2 348.6 L 684.5 348.5 L 695.5 348.3 L 704.5 347.8 L 716.0 347.2 L 729.2 346.9 L 738.3 346.7 L 746.1 346.2 L 752.4 346.4 L 759.2 347.8 L 764.5 350.0 L 768.9 350.4 L 783.4 347.9" stroke="#000" stroke-width="2" fill="none" stroke-linecap="round" stroke-linejoin="round" />
<path d="M 745.1 514.8 L 800.7 512.7" stroke="#000" stroke-width="2" fill="none" stroke-linecap="round" stroke-linejoin="round" />
<path d="M 744.1 479.9 L 799.7 478.7 L 817.4 478.3" stroke="#000" stroke-width="2" fill="none" stroke-linecap="round" stroke-linejoin="round" />
<path d="M 660.4 302.4 L 704.1 300.4" stroke="#000" stroke-width="2" fill="none" stroke-linecap="round" stroke-linejoin="round" />
<path d="M 646.2 582.2 L 650.1 582.0 L 671.6 581.2" stroke="#000" stroke-width="2" fill="none" stroke-linecap="round" stroke-linejoin="round" />
<path d="M 742.0 445.0 L 789.2 442.5 L 833.9 441.1 L 850.5 440.7 L 894.3 440.0" stroke="#000" stroke-width="2" fill="none" stroke-linecap="round" stroke-linejoin="round" />
<path d="M 740.2 696.7 L 742.3 701.5 L 745.3 705.9 L 750.6 711.9 L 753.0 715.4 L 755.3 720.3 L 758.4 731.2 L 764.2 755.4" stroke="#000" stroke-width="2" fill="none" stroke-linecap="round" stroke-linejoin="round" />
<path d="M 738.9 676.1 L 750.5 675.5 L 813.8 672.3 L 823.0 675.8" stroke="#000" stroke-width="2" fill="none" stroke-linecap="round" stroke-linejoin="round" />
<path d="M 372.4 605.1 L 368.0 593.8 L 366.6 588.0 L 365.6 581.3 L 365.0 564.9 L 365.7 558.0 L 370.7 552.2 L 382.0 546.5 L 391.4 545.3 L 400.4 546.9" stroke="#000" stroke-width="2" fill="none" stroke-linecap="round" stroke-linejoin="round" />
<path d="M 740.2 696.7 L 710.6 700.9 L 706.0 706.1 L 701.5 719.0 L 695.5 729.5 L 689.6 735.0 L 682.6 738.1 L 673.0 737.3 L 659.7 737.5 L 651.7 735.8 L 646.9 730.5" stroke="#000" stroke-width="2" fill="none" stroke-linecap="round" stroke-linejoin="round" />
<path d="M 696.3 541.5 L 678.5 541.7 L 668.8 541.7 L 662.8 542.0 L 654.8 542.0 L 650.5 542.1 L 649.2 542.2 L 645.1 542.2" stroke="#000" stroke-width="2" fill="none" stroke-linecap="round" stroke-linejoin="round" />
<path d="M 777.8 241.3 L 777.6 272.5 L 777.9 286.1 L 778.5 312.2 L 779.7 336.9 L 780.2 342.3 L 781.5 346.4 L 783.4 347.9 L 786.8 348.8 L 793.0 349.0 L 845.8 344.8" stroke="#000" stroke-width="2" fill="none" stroke-linecap="round" stroke-linejoin="round" />
<path d="M 302.6 692.0 L 301.5 643.5 L 301.5 617.4" stroke="#000" stroke-width="2" fill="none" stroke-linecap="round" stroke-linejoin="round" />
<path d="M 1043.6 275.3 L 1164.7 269.8 L 1165.2 272.4 L 1165.3 281.7 L 1166.4 299.7 L 1167.4 313.9 L 1169.7 326.3 L 1170.7 332.3 L 1173.8 344.8 L 1173.4 354.2 L 1169.1 362.0 L 1164.8 365.5 L 1159.2 367.4 L 1134.0 368.2 L 1127.9 370.0 L 1125.4 374.7 L 1124.8 391.1" stroke="#000" stroke-width="2" fill="none" stroke-linecap="round" stroke-linejoin="round" />
<path d="M 842.8 973.2 L 832.3 980.9 L 826.1 986.3 L 805.5 992.2 L 778.4 995.2 L 744.3 990.0 L 742.8 988.9 L 741.9 986.5 L 742.2 982.1 L 742.8 978.6 L 744.0 969.0 L 744.3 966.8" stroke="#000" stroke-width="2" fill="none" stroke-linecap="round" stroke-linejoin="round" />
<path d="M 881.5 1097.4 L 854.1 1094.8 L 847.5 1095.5 L 843.2 1098.3 L 830.7 1115.7 L 814.9 1140.7 L 812.5 1143.2 L 808.0 1144.0 L 779.9 1136.3 L 767.4 1135.2 L 713.3 1140.0 L 692.2 1141.9 L 681.6 1179.8 L 679.9 1182.9 L 677.1 1187.3 L 662.1 1219.1" stroke="#000" stroke-width="2" fill="none" stroke-linecap="round" stroke-linejoin="round" />
<path d="M 1152.9 1259.6 L 1138.4 1240.9 L 1135.2 1235.3 L 1132.8 1229.3 L 1125.6 1209.5 L 1124.7 1206.9 L 1112.0 1173.9 L 1101.3 1153.5 L 1099.5 1149.2 L 1098.7 1145.9 L 1098.5 1141.8 L 1100.8 1128.7 L 1100.4 1121.5 L 1099.7 1116.3 L 1098.2 1111.2 L 1086.7 1090.9 L 1084.5 1086.8 L 1078.6 1073.8 L 1067.1 1052.0 L 1065.0 1048.1 L 1063.5 1046.4 L 1061.6 1044.7 L 1025.2 1017.1 L 1022.8 1014.6 L 1020.8 1011.8 L 1019.8 1009.8 L 1019.5 1007.2 L 1021.5 995.4" stroke="#000" stroke-width="2" fill="none" stroke-linecap="round" stroke-linejoin="round" />
<path d="M 713.3 1140.0 L 705.4 1177.4 L 695.2 1215.1 L 691.7 1228.1 L 691.4 1229.1 L 676.7 1276.5 L 653.3 1270.6 L 645.6 1267.6 L 617.5 1257.0 L 613.8 1255.5 L 609.3 1254.6 L 579.4 1250.6 L 575.6 1250.2 L 572.9 1249.9 L 569.9 1247.2 L 567.8 1243.4 L 566.4 1237.9 L 565.9 1234.2 L 566.3 1230.4 L 568.4 1226.3 L 572.3 1220.9 L 576.7 1215.7 L 581.6 1208.8 L 591.6 1192.9 L 596.9 1184.3" stroke="#000" stroke-width="2" fill="none" stroke-linecap="round" stroke-linejoin="round" />
<path d="M 1528.4 978.2 L 1527.1 929.8" stroke="#000" stroke-width="2" fill="none" stroke-linecap="round" stroke-linejoin="round" />
<path d="M 886.9 1254.2 L 851.4 1241.9 L 847.6 1242.1 L 845.3 1243.9 L 836.5 1278.9 L 835.6 1286.5 L 835.6 1289.0 L 835.4 1297.3 L 835.0 1309.1 L 834.9 1314.4 L 834.6 1323.9" stroke="#000" stroke-width="2" fill="none" stroke-linecap="round" stroke-linejoin="round" />
<path d="M 705.4 1177.4 L 755.2 1183.1" stroke="#000" stroke-width="2" fill="none" stroke-linecap="round" stroke-linejoin="round" />
<path d="M 442.0 687.5 L 446.8 760.0 L 445.8 766.5 L 442.9 773.7 L 442.0 777.1 L 441.5 781.3 L 442.6 794.9 L 443.2 799.8 L 442.5 802.1 L 441.1 803.2 L 439.3 803.6 L 419.8 804.7 L 384.4 806.5 L 380.0 809.4 L 378.6 812.5 L 381.0 880.6" stroke="#000" stroke-width="2" fill="none" stroke-linecap="round" stroke-linejoin="round" />
<path d="M 1344.2 1090.3 L 1421.8 1089.3 L 1449.6 1088.9" stroke="#000" stroke-width="2" fill="none" stroke-linecap="round" stroke-linejoin="round" />
<path d="M 1061.6 1044.7 L 1132.2 1040.6" stroke="#000" stroke-width="2" fill="none" stroke-linecap="round" stroke-linejoin="round" />
<path d="M 1501.8 979.3 L 1511.1 1191.2" stroke="#000" stroke-width="2" fill="none" stroke-linecap="round" stroke-linejoin="round" />
<path d="M 647.9 635.0 L 582.4 637.3" stroke="#000" stroke-width="2" fill="none" stroke-linecap="round" stroke-linejoin="round" />
<path d="M 498.4 821.5 L 497.0 822.3 L 459.1 824.1" stroke="#000" stroke-width="2" fill="none" stroke-linecap="round" stroke-linejoin="round" />
<path d="M 1290.2 991.0 L 1290.9 1029.1" stroke="#000" stroke-width="2" fill="none" stroke-linecap="round" stroke-linejoin="round" />
<path d="M 1086.7 1090.9 L 1155.2 1088.7 L 1168.9 1088.0" stroke="#000" stroke-width="2" fill="none" stroke-linecap="round" stroke-linejoin="round" />
<path d="M 1254.9 992.7 L 1257.5 1080.4" stroke="#000" stroke-width="2" fill="none" stroke-linecap="round" stroke-linejoin="round" />
<path d="M 881.5 1301.3 L 835.4 1297.3" stroke="#000" stroke-width="2" fill="none" stroke-linecap="round" stroke-linejoin="round" />
<path d="M 826.9 832.2 L 868.5 834.6" stroke="#000" stroke-width="2" fill="none" stroke-linecap="round" stroke-linejoin="round" />
<path d="M 496.1 790.9 L 451.5 792.7" stroke="#000" stroke-width="2" fill="none" stroke-linecap="round" stroke-linejoin="round" />
<path d="M 1200.2 440.5 L 1099.8 445.5" stroke="#000" stroke-width="2" fill="none" stroke-linecap="round" stroke-linejoin="round" />
<path d="M 413.0 688.5 L 411.1 615.1" stroke="#000" stroke-width="2" fill="none" stroke-linecap="round" stroke-linejoin="round" />
<path d="M 1448.5 981.4 L 1452.3 1056.1" stroke="#000" stroke-width="2" fill="none" stroke-linecap="round" stroke-linejoin="round" />
<path d="M 1342.3 1042.0 L 1280.5 1044.0" stroke="#000" stroke-width="2" fill="none" stroke-linecap="round" stroke-linejoin="round" />
<path d="M 891.2 1181.7 L 862.9 1183.2" stroke="#000" stroke-width="2" fill="none" stroke-linecap="round" stroke-linejoin="round" />
<path d="M 375.8 690.8 L 375.9 697.4 L 376.4 783.0" stroke="#000" stroke-width="2" fill="none" stroke-linecap="round" stroke-linejoin="round" />
<path d="M 808.0 1144.0 L 791.9 1178.3 L 789.3 1186.8 L 784.3 1238.1 L 782.0 1247.7" stroke="#000" stroke-width="2" fill="none" stroke-linecap="round" stroke-linejoin="round" />
<path d="M 1162.0 1277.8 L 1165.7 1285.3 L 1171.2 1292.3 L 1180.7 1299.7 L 1183.1 1301.6 L 1198.1 1309.6 L 1201.2 1310.6 L 1205.7 1310.8 L 1210.0 1309.4 L 1223.0 1303.6 L 1229.2 1302.8 L 1232.5 1304.2 L 1235.5 1306.5 L 1239.0 1312.6 L 1242.9 1319.0 L 1247.2 1321.9 L 1255.6 1323.7 L 1264.6 1323.3 L 1269.5 1322.0 L 1274.6 1318.8 L 1281.5 1314.1 L 1288.8 1305.4 L 1293.9 1294.6 L 1294.7 1290.4 L 1294.5 1286.7 L 1292.5 1283.1 L 1278.9 1269.6 L 1277.1 1267.1" stroke="#000" stroke-width="2" fill="none" stroke-linecap="round" stroke-linejoin="round" />
<path d="M 877.9 1423.2 L 868.9 1421.9 L 821.7 1417.0 L 815.7 1416.3 L 807.4 1415.3 L 804.4 1414.4 L 802.0 1413.1 L 801.0 1411.1 L 800.5 1408.2 L 798.3 1379.7" stroke="#000" stroke-width="2" fill="none" stroke-linecap="round" stroke-linejoin="round" />
<path d="M 1342.9 1066.1 L 1344.2 1090.3 L 1347.8 1158.4" stroke="#000" stroke-width="2" fill="none" stroke-linecap="round" stroke-linejoin="round" />
<path d="M 598.2 680.7 L 598.7 687.5 L 600.7 715.7 L 600.5 719.7 L 598.6 723.8 L 595.7 726.0 L 562.7 728.3 L 558.0 728.7 L 555.0 730.2 L 553.7 732.5 L 554.4 781.7 L 553.6 786.6 L 552.3 789.2 L 521.8 807.6" stroke="#000" stroke-width="2" fill="none" stroke-linecap="round" stroke-linejoin="round" />
<path d="M 676.7 1276.5 L 707.2 1281.1 L 717.1 1283.0" stroke="#000" stroke-width="2" fill="none" stroke-linecap="round" stroke-linejoin="round" />
<path d="M 1486.1 979.5 L 1484.0 920.6 L 1483.8 913.8 L 1404.9 914.9" stroke="#000" stroke-width="2" fill="none" stroke-linecap="round" stroke-linejoin="round" />
<path d="M 822.9 784.2 L 834.0 787.0 L 835.3 787.1 L 836.6 787.0 L 838.1 786.9 L 839.7 786.5 L 844.8 784.7 L 847.2 784.6 L 849.8 785.6 L 891.2 813.7" stroke="#000" stroke-width="2" fill="none" stroke-linecap="round" stroke-linejoin="round" />
<path d="M 1278.9 1269.6 L 1335.7 1267.8" stroke="#000" stroke-width="2" fill="none" stroke-linecap="round" stroke-linejoin="round" />
<path d="M 490.6 685.4 L 496.1 790.9 L 498.8 819.7 L 498.4 821.5" stroke="#000" stroke-width="2" fill="none" stroke-linecap="round" stroke-linejoin="round" />
<path d="M 1339.9 988.5 L 1342.3 1042.0 L 1342.9 1066.1 L 1284.9 1067.0" stroke="#000" stroke-width="2" fill="none" stroke-linecap="round" stroke-linejoin="round" />
<path d="M 572.9 1249.9 L 553.9 1259.5 L 521.7 1270.3 L 519.0 1271.2 L 503.4 1276.7 L 482.8 1281.2" stroke="#000" stroke-width="2" fill="none" stroke-linecap="round" stroke-linejoin="round" />
<path d="M 882.2 1384.6 L 872.9 1383.6 L 830.7 1379.9 L 826.3 1378.3 L 822.6 1375.8 L 819.6 1373.1 L 817.1 1369.7 L 805.2 1337.8" stroke="#000" stroke-width="2" fill="none" stroke-linecap="round" stroke-linejoin="round" />
<path d="M 1199.4 993.0 L 1202.1 1035.4 L 1202.6 1049.8 L 1204.9 1074.9 L 1207.8 1112.5 L 1208.2 1114.4 L 1209.2 1115.8 L 1211.0 1116.8 L 1214.0 1117.3 L 1268.2 1113.8" stroke="#000" stroke-width="2" fill="none" stroke-linecap="round" stroke-linejoin="round" />
<path d="M 1517.3 213.9 L 1521.2 326.6 L 1522.9 387.2 L 1523.6 410.3 L 1525.1 431.3 L 1524.5 446.6 L 1532.8 597.0 L 1535.0 635.1 L 1535.0 672.3 L 1535.8 684.0 L 1561.8 685.0 L 1564.7 685.6 L 1567.1 687.9" stroke="#000" stroke-width="2" fill="none" stroke-linecap="round" stroke-linejoin="round" />
<path d="M 990.1 990.1 L 990.5 1029.9 L 989.6 1032.9 L 988.2 1034.8 L 986.9 1036.6 L 981.7 1043.5 L 973.4 1056.6 L 965.8 1069.3 L 961.9 1075.9" stroke="#000" stroke-width="2" fill="none" stroke-linecap="round" stroke-linejoin="round" />
<path d="M 906.2 1090.8 L 956.0 1093.0 L 961.9 1075.9" stroke="#000" stroke-width="2" fill="none" stroke-linecap="round" stroke-linejoin="round" />
<path d="M 1652.2 900.7 L 1613.3 902.8 L 1587.9 903.9 L 1561.9 905.7" stroke="#000" stroke-width="2" fill="none" stroke-linecap="round" stroke-linejoin="round" />
<path d="M 572.3 1220.9 L 593.0 1221.6 L 598.4 1220.6 L 602.9 1219.2 L 609.5 1214.3 L 624.1 1197.2 L 629.4 1190.3 L 637.9 1175.8 L 653.7 1151.2 L 657.9 1147.6 L 663.9 1146.1 L 692.2 1141.9" stroke="#000" stroke-width="2" fill="none" stroke-linecap="round" stroke-linejoin="round" />
<path d="M 1524.5 446.6 L 1542.8 460.6 L 1553.3 469.4 L 1559.8 475.8 L 1567.0 485.2 L 1572.9 491.2 L 1579.1 495.8 L 1588.5 497.9 L 1594.4 499.1 L 1605.3 500.1 L 1649.8 498.4 L 1652.1 499.8 L 1653.6 502.9 L 1654.5 508.5 L 1656.9 529.0 L 1656.5 533.3 L 1655.8 537.6 L 1655.2 544.3 L 1655.5 546.7 L 1656.3 549.0 L 1657.9 552.4 L 1657.0 553.8 L 1655.4 555.4 L 1654.6 556.8 L 1654.2 559.7 L 1654.5 576.2 L 1653.7 581.3 L 1650.7 586.9 L 1646.2 591.8 L 1642.1 594.4 L 1635.5 596.6 L 1624.6 597.8 L 1611.1 598.2 L 1605.9 599.0 L 1602.9 600.5 L 1601.7 601.8 L 1600.9 604.8 L 1601.5 632.4 L 1600.0 635.4 L 1596.3 638.2 L 1584.2 641.6 L 1563.1 641.8 L 1552.0 641.6 L 1542.4 638.9 L 1535.0 635.1" stroke="#000" stroke-width="2" fill="none" stroke-linecap="round" stroke-linejoin="round" />
<path d="M 918.0 1185.6 L 931.5 1188.3 L 967.2 1204.9 L 969.0 1205.0 L 970.0 1204.3 L 970.8 1203.6 L 971.6 1202.0 L 972.1 1200.5 L 972.2 1189.0 L 973.1 1168.5 L 973.5 1166.7 L 974.1 1165.2 L 977.0 1162.0 L 1006.6 1132.9 L 1022.9 1111.4 L 1040.2 1085.1 L 1046.9 1074.8 L 1065.0 1048.1" stroke="#000" stroke-width="2" fill="none" stroke-linecap="round" stroke-linejoin="round" />
<path d="M 830.7 1115.7 L 858.9 1121.8 L 882.9 1135.8" stroke="#000" stroke-width="2" fill="none" stroke-linecap="round" stroke-linejoin="round" />
<path d="M 348.8 691.2 L 355.2 829.0 L 353.5 834.4 L 348.2 835.8 L 316.9 836.4 L 305.3 837.1" stroke="#000" stroke-width="2" fill="none" stroke-linecap="round" stroke-linejoin="round" />
<path d="M 975.2 170.3 L 964.7 149.1 L 959.4 138.5 L 950.1 122.4 L 944.7 115.6 L 939.4 111.0" stroke="#000" stroke-width="2" fill="none" stroke-linecap="round" stroke-linejoin="round" />
<path d="M 720.7 1425.0 L 720.9 1419.0 L 722.3 1413.7 L 725.8 1408.7 L 754.9 1368.0 L 773.5 1343.1 L 780.9 1333.0 L 782.4 1330.7 L 782.5 1328.9 L 782.0 1326.5 L 782.8 1309.9 L 781.9 1307.6 L 779.8 1306.1 L 775.2 1305.1 L 751.0 1299.9 L 750.3 1298.7 L 750.4 1296.8 L 760.5 1261.3" stroke="#000" stroke-width="2" fill="none" stroke-linecap="round" stroke-linejoin="round" />
<path d="M 645.6 1267.6 L 652.7 1253.0 L 652.9 1251.6 L 652.8 1250.1 L 650.6 1245.4 L 649.7 1243.1 L 649.9 1241.1 L 662.1 1219.1" stroke="#000" stroke-width="2" fill="none" stroke-linecap="round" stroke-linejoin="round" />
<path d="M 1643.1 799.4 L 1530.6 803.1 L 1526.2 802.9 L 1523.8 801.0 L 1523.1 798.5 L 1522.8 794.9 L 1520.5 709.4" stroke="#000" stroke-width="2" fill="none" stroke-linecap="round" stroke-linejoin="round" />
<path d="M 1591.4 940.3 L 1592.5 976.5" stroke="#000" stroke-width="2" fill="none" stroke-linecap="round" stroke-linejoin="round" />
<path d="M 1567.9 929.1 L 1569.3 976.5" stroke="#000" stroke-width="2" fill="none" stroke-linecap="round" stroke-linejoin="round" />
<path d="M 1551.5 905.8 L 1561.9 905.7" stroke="#000" stroke-width="2" fill="none" stroke-linecap="round" stroke-linejoin="round" />
<path d="M 1561.9 905.7 L 1561.6 861.7 L 1559.8 834.3" stroke="#000" stroke-width="2" fill="none" stroke-linecap="round" stroke-linejoin="round" />
<path d="M 1587.8 833.4 L 1587.9 903.9" stroke="#000" stroke-width="2" fill="none" stroke-linecap="round" stroke-linejoin="round" />
<path d="M 1567.1 687.9 L 1574.8 687.1 L 1581.6 685.2 L 1585.5 675.0 L 1619.3 667.3 L 1621.7 666.4 L 1623.7 663.7 L 1622.4 646.3 L 1620.2 643.2 L 1601.5 632.4" stroke="#000" stroke-width="2" fill="none" stroke-linecap="round" stroke-linejoin="round" />
<path d="M 858.8 944.3 L 925.6 956.2 L 953.0 961.1 L 959.4 963.7 L 964.1 967.3 L 978.8 980.0 L 984.6 986.4 L 990.1 990.1 L 997.5 992.4 L 1003.6 993.5 L 1021.5 995.4 L 1025.2 995.4 L 1070.6 996.5 L 1137.1 998.2 L 1150.5 997.1 L 1178.4 994.3 L 1199.4 993.0 L 1225.6 992.6 L 1254.9 992.7 L 1277.5 990.7 L 1290.2 991.0 L 1339.9 988.5 L 1372.2 986.2 L 1397.9 984.1 L 1418.6 982.6 L 1448.5 981.4 L 1462.1 980.7 L 1486.1 979.5 L 1490.5 979.4 L 1501.8 979.3 L 1528.4 978.2 L 1569.3 976.5 L 1592.5 976.5 L 1598.2 976.4 L 1616.8 975.4 L 1659.8 972.4 L 1719.5 969.7 L 1725.0 969.6 L 1758.2 968.6 L 1816.8 966.1 L 1878.9 963.8 L 1933.8 964.0 L 1966.5 963.9" stroke="#000" stroke-width="2" fill="none" stroke-linecap="round" stroke-linejoin="round" />
<path d="M 956.3 99.4 L 962.4 92.5 L 967.5 89.9 L 994.4 78.5 L 1004.6 73.9 L 1026.4 61.9" stroke="#000" stroke-width="2" fill="none" stroke-linecap="round" stroke-linejoin="round" />
<path d="M 316.9 836.4 L 317.9 856.3 L 321.0 914.0 L 322.2 938.2" stroke="#000" stroke-width="2" fill="none" stroke-linecap="round" stroke-linejoin="round" />
<path d="M 418.8 762.5 L 413.0 688.5" stroke="#000" stroke-width="2" fill="none" stroke-linecap="round" stroke-linejoin="round" />
<path d="M 1164.7 269.8 L 1171.5 248.9 L 1155.5 248.0 L 1149.2 248.1 L 1141.6 248.4 L 1123.5 248.7 L 1053.7 251.2 L 1043.1 251.8" stroke="#000" stroke-width="2" fill="none" stroke-linecap="round" stroke-linejoin="round" />
<path d="M 1224.8 420.2 L 1220.1 350.5 L 1218.6 333.3 L 1216.4 324.1 L 1169.7 326.3" stroke="#000" stroke-width="2" fill="none" stroke-linecap="round" stroke-linejoin="round" />
<path d="M 1380.6 613.2 L 1384.3 607.8 L 1387.6 605.3 L 1397.1 602.5 L 1406.0 602.6 L 1532.8 597.0" stroke="#000" stroke-width="2" fill="none" stroke-linecap="round" stroke-linejoin="round" />
<path d="M 1523.6 410.3 L 1473.3 412.9 L 1368.4 418.2 L 1281.4 422.1 L 1274.8 422.4 L 1262.4 421.8 L 1240.1 422.8 L 1224.0 422.6" stroke="#000" stroke-width="2" fill="none" stroke-linecap="round" stroke-linejoin="round" />
<path d="M 1483.8 913.8 L 1481.8 888.3 L 1480.2 881.4 L 1478.3 874.7 L 1476.9 866.9 L 1476.1 859.9 L 1475.3 854.5 L 1469.1 820.5 L 1467.6 816.5 L 1465.2 813.3 L 1459.6 811.0 L 1453.2 810.6 L 1450.6 811.2 L 1438.0 814.5 L 1433.5 815.8 L 1430.5 815.7 L 1427.1 814.6 L 1425.5 812.8 L 1424.8 810.7 L 1426.0 769.1 L 1424.5 763.1 L 1421.7 758.6 L 1418.3 754.1 L 1402.5 737.5 L 1378.1 709.1 L 1377.3 707.6 L 1375.8 705.0 L 1375.0 699.9 L 1375.5 690.4 L 1377.5 682.2 L 1378.8 670.1 L 1379.7 660.3 L 1381.3 633.6 L 1381.2 628.8 L 1380.4 623.4 L 1380.6 613.2" stroke="#000" stroke-width="2" fill="none" stroke-linecap="round" stroke-linejoin="round" />
<path d="M 1492.7 1042.2 L 1490.5 979.4" stroke="#000" stroke-width="2" fill="none" stroke-linecap="round" stroke-linejoin="round" />
<path d="M 1467.4 1069.6 L 1462.1 980.7" stroke="#000" stroke-width="2" fill="none" stroke-linecap="round" stroke-linejoin="round" />
<path d="M 1151.4 1031.7 L 1150.5 997.1" stroke="#000" stroke-width="2" fill="none" stroke-linecap="round" stroke-linejoin="round" />
<path d="M 1178.4 994.3 L 1178.2 944.3 L 1177.1 898.9" stroke="#000" stroke-width="2" fill="none" stroke-linecap="round" stroke-linejoin="round" />
<path d="M 1035.7 894.7 L 1068.6 895.1 L 1097.7 894.8" stroke="#000" stroke-width="2" fill="none" stroke-linecap="round" stroke-linejoin="round" />
<path d="M 1173.5 842.2 L 1196.1 802.8 L 1198.8 796.5 L 1200.2 794.4 L 1201.9 793.3 L 1205.6 792.9 L 1227.9 793.2 L 1229.3 792.9 L 1230.6 792.3 L 1231.4 791.0 L 1231.5 787.9 L 1231.9 773.8 L 1228.6 730.0 L 1228.5 728.2 L 1227.9 726.0 L 1227.4 724.7 L 1227.1 723.6 L 1226.4 722.3 L 1225.0 697.4" stroke="#000" stroke-width="2" fill="none" stroke-linecap="round" stroke-linejoin="round" />
<path d="M 1218.2 862.9 L 1231.7 837.7 L 1232.9 836.6 L 1234.7 836.0 L 1237.1 835.9 L 1275.1 845.5 L 1280.3 846.2 L 1285.4 846.4 L 1290.3 846.4 L 1310.5 845.9 L 1313.5 845.1 L 1315.1 843.7 L 1315.6 839.9 L 1314.3 753.6" stroke="#000" stroke-width="2" fill="none" stroke-linecap="round" stroke-linejoin="round" />
<path d="M 1025.7 963.8 L 1025.2 995.4" stroke="#000" stroke-width="2" fill="none" stroke-linecap="round" stroke-linejoin="round" />
<path d="M 750.5 675.5 L 750.5 670.2 L 750.5 612.9 L 750.1 596.7 L 749.8 590.8 L 749.9 584.1" stroke="#000" stroke-width="2" fill="none" stroke-linecap="round" stroke-linejoin="round" />
<path d="M 987.5 1446.9 L 987.0 1426.7 L 986.7 1399.4 L 986.4 1372.0" stroke="#000" stroke-width="2" fill="none" stroke-linecap="round" stroke-linejoin="round" />
<path d="M 919.0 1337.0 L 904.7 1335.6" stroke="#000" stroke-width="2" fill="none" stroke-linecap="round" stroke-linejoin="round" />
<path d="M 1080.1 1326.2 L 1078.6 1303.5" stroke="#000" stroke-width="2" fill="none" stroke-linecap="round" stroke-linejoin="round" />
<path d="M 1078.6 1303.5 L 1076.8 1283.0" stroke="#000" stroke-width="2" fill="none" stroke-linecap="round" stroke-linejoin="round" />
<path d="M 907.5 1309.3 L 985.1 1306.4 L 1024.6 1305.0 L 1042.8 1304.5 L 1078.6 1303.5 L 1141.1 1299.7 L 1143.3 1298.8 L 1144.2 1296.2 L 1143.7 1281.3 L 1144.2 1279.0 L 1146.4 1278.3 L 1159.0 1277.9 L 1162.0 1277.8" stroke="#000" stroke-width="2" fill="none" stroke-linecap="round" stroke-linejoin="round" />
<path d="M 1152.9 1259.6 L 1162.0 1277.8" stroke="#000" stroke-width="2" fill="none" stroke-linecap="round" stroke-linejoin="round" />
<path d="M 1277.1 1267.1 L 1266.9 1257.8 L 1255.6 1249.4 L 1247.4 1244.3 L 1244.3 1243.3 L 1237.2 1240.7 L 1224.8 1238.5 L 1212.3 1238.0 L 1198.4 1238.8 L 1185.5 1241.7 L 1172.1 1245.6 L 1162.8 1250.3 L 1152.9 1259.6" stroke="#000" stroke-width="2" fill="none" stroke-linecap="round" stroke-linejoin="round" />
<path d="M 1277.1 1267.1 L 1279.4 1264.7 L 1280.6 1262.2 L 1280.9 1258.4 L 1278.1 1178.5" stroke="#000" stroke-width="2" fill="none" stroke-linecap="round" stroke-linejoin="round" />
<path d="M 1358.8 329.0 L 1360.5 349.7 L 1360.5 351.7 L 1359.7 353.1 L 1359.0 354.3 L 1357.3 355.3 L 1327.0 356.1 L 1325.0 355.0 L 1324.4 352.5 L 1324.1 332.9 L 1324.9 331.2 L 1326.3 330.4 L 1329.2 330.0 L 1358.8 329.0 L 1373.9 328.3" stroke="#000" stroke-width="2" fill="none" stroke-linecap="round" stroke-linejoin="round" />
<path d="M 1373.9 328.3 L 1460.4 323.5" stroke="#000" stroke-width="2" fill="none" stroke-linecap="round" stroke-linejoin="round" />
<path d="M 1371.1 274.6 L 1373.9 328.3 L 1376.1 398.8 L 1376.5 401.9 L 1377.5 404.0 L 1379.3 405.6 L 1382.0 406.0 L 1455.0 402.3 L 1459.1 401.6 L 1461.6 400.5 L 1463.1 399.0 L 1463.9 396.1 L 1463.9 393.0 L 1460.4 323.5 L 1458.5 273.6 L 1457.8 270.8 L 1456.4 268.9 L 1454.2 267.5 L 1451.8 267.4 L 1386.7 268.5 L 1376.1 269.1 L 1374.4 269.2 L 1372.5 270.0 L 1371.5 272.1 L 1371.1 274.6" stroke="#000" stroke-width="2" fill="none" stroke-linecap="round" stroke-linejoin="round" />
<path d="M 1505.1 405.1 L 1473.1 407.0 L 1470.5 406.7 L 1467.8 405.4 L 1465.6 404.1 L 1461.6 400.5" stroke="#000" stroke-width="2" fill="none" stroke-linecap="round" stroke-linejoin="round" />
<path d="M 1028.7 1259.4 L 911.9 1266.0" stroke="#000" stroke-width="2" fill="none" stroke-linecap="round" stroke-linejoin="round" />
<path d="M 965.8 1069.3 L 941.8 1058.5" stroke="#000" stroke-width="2" fill="none" stroke-linecap="round" stroke-linejoin="round" />
<path d="M 1030.1 639.3 L 1034.4 622.7 L 1034.5 618.8 L 1033.7 616.6 L 1032.0 613.8" stroke="#000" stroke-width="2" fill="none" stroke-linecap="round" stroke-linejoin="round" />
<path d="M 738.3 346.7 L 739.4 372.5 L 741.0 412.9 L 742.0 429.4 L 742.0 445.0 L 743.1 461.2 L 743.3 468.6 L 744.1 479.9 L 743.9 490.7 L 745.1 514.8 L 747.6 559.8" stroke="#000" stroke-width="2" fill="none" stroke-linecap="round" stroke-linejoin="round" />
<path d="M 777.6 272.5 L 808.4 271.0 L 827.9 269.5 L 837.2 269.3 L 839.6 270.4 L 841.0 272.0 L 841.6 276.2 L 842.2 283.1 L 845.8 344.8 L 847.2 368.2 L 849.5 403.7 L 849.9 419.4 L 850.5 440.7" stroke="#000" stroke-width="2" fill="none" stroke-linecap="round" stroke-linejoin="round" />
<path d="M 1086.7 641.4 L 1076.4 638.3 L 1071.7 638.1 L 1067.1 638.8 L 1063.8 642.3 L 1050.8 666.6 L 1046.8 671.2 L 1037.6 678.4 L 1037.0 678.8 L 1029.1 684.7 L 1021.4 685.4 L 1016.3 684.7 L 1010.8 683.3" stroke="#000" stroke-width="2" fill="none" stroke-linecap="round" stroke-linejoin="round" />
<path d="M 1140.6 700.8 L 1160.7 699.5 L 1178.9 699.5 L 1225.0 697.4 L 1242.4 696.3" stroke="#000" stroke-width="2" fill="none" stroke-linecap="round" stroke-linejoin="round" />
<path d="M 1217.4 944.1 L 1225.2 943.8 L 1256.5 942.5 L 1259.6 942.4 L 1261.9 941.6 L 1262.9 940.9 L 1263.9 940.0 L 1267.5 936.2" stroke="#000" stroke-width="2" fill="none" stroke-linecap="round" stroke-linejoin="round" />
<path d="M 978.8 980.0 L 990.5 961.8 L 998.1 951.2 L 1003.1 943.7 L 1013.8 925.4" stroke="#000" stroke-width="2" fill="none" stroke-linecap="round" stroke-linejoin="round" />
<path d="M 777.9 286.1 L 842.2 283.1" stroke="#000" stroke-width="2" fill="none" stroke-linecap="round" stroke-linejoin="round" />
<path d="M 1372.1 511.6 L 1362.4 508.2 L 1355.7 506.0 L 1320.1 499.1 L 1311.5 499.1 L 1280.6 502.1 L 1271.1 504.2 L 1264.3 505.7 L 1260.0 516.3" stroke="#000" stroke-width="2" fill="none" stroke-linecap="round" stroke-linejoin="round" />
<path d="M 1264.3 505.7 L 1262.6 485.8 L 1266.8 480.5 L 1271.2 470.0 L 1276.2 459.2 L 1279.1 448.0 L 1280.8 440.9 L 1281.4 433.6 L 1281.4 422.1" stroke="#000" stroke-width="2" fill="none" stroke-linecap="round" stroke-linejoin="round" />
<path d="M 1188.4 -271.3 L 1182.2 -254.4 L 1123.6 -94.2 L 1059.9 66.2 L 1058.6 69.3 L 1057.6 72.5 L 1048.5 100.0 L 1043.2 117.0 L 1034.8 137.5 L 962.8 329.6" stroke="#000" stroke-width="2" fill="none" stroke-linecap="round" stroke-linejoin="round" />
<path d="M 927.2 350.1 L 935.2 326.3 L 975.1 208.7 L 982.5 187.0 L 1007.0 114.4 L 1019.0 81.4 L 1026.4 61.9 L 1029.7 51.0 L 1032.2 42.9 L 1065.6 -38.2 L 1093.7 -108.7 L 1124.0 -194.8 L 1142.6 -245.8 L 1153.2 -277.4 L 1159.0 -292.1 L 1173.4 -329.0" stroke="#000" stroke-width="2" fill="none" stroke-linecap="round" stroke-linejoin="round" />
<path d="M 511.0 212.8 L 513.4 210.3 L 515.0 207.2 L 515.5 205.4 L 515.9 203.8 L 516.4 201.1 L 518.6 106.6" stroke="#000" stroke-width="2" fill="none" stroke-linecap="round" stroke-linejoin="round" />
<path d="M 1189.9 72.0 L 1188.6 213.5" stroke="#000" stroke-width="2" fill="none" stroke-linecap="round" stroke-linejoin="round" />
<path d="M 891.2 1215.7 L 870.1 1215.7 L 869.3 1215.8 L 868.5 1216.1 L 868.1 1216.4 L 867.6 1217.1 L 864.8 1222.8 L 864.5 1223.2 L 864.0 1223.4 L 863.4 1223.5 L 862.9 1223.4 L 835.8 1209.7" stroke="#000" stroke-width="2" fill="none" stroke-linecap="round" stroke-linejoin="round" />
<path d="M 986.4 1372.0 L 985.3 1333.3 L 985.1 1306.4" stroke="#000" stroke-width="2" fill="none" stroke-linecap="round" stroke-linejoin="round" />
<path d="M 956.0 1093.0 L 960.5 1094.0 L 963.6 1095.8 L 965.4 1097.0 L 966.0 1098.2 L 966.2 1099.5 L 966.1 1104.8 L 966.4 1139.4" stroke="#000" stroke-width="2" fill="none" stroke-linecap="round" stroke-linejoin="round" />
<path d="M 986.2 1084.9 L 986.8 1084.9 L 987.4 1084.9 L 988.0 1084.8 L 988.8 1084.8 L 1001.3 1086.9 L 1002.3 1087.3 L 1003.4 1088.1 L 1004.8 1089.4 L 1005.8 1090.8 L 1006.4 1092.2 L 1006.8 1093.9 L 1004.9 1109.2 L 1003.9 1115.3" stroke="#000" stroke-width="2" fill="none" stroke-linecap="round" stroke-linejoin="round" />
<path d="M 868.1 686.5 L 862.6 682.2 L 855.4 675.9 L 850.0 671.3 L 840.6 664.7" stroke="#000" stroke-width="2" fill="none" stroke-linecap="round" stroke-linejoin="round" />
<path d="M 907.1 690.9 L 908.6 694.6 L 909.5 695.7 L 911.4 697.2 L 915.8 701.5 L 916.3 702.7 L 916.6 704.3 L 917.0 706.0 L 917.6 707.1 L 924.0 712.1 L 924.7 713.1 L 925.0 714.5 L 926.2 720.7 L 926.7 722.4 L 927.4 723.8 L 928.8 725.6 L 930.2 726.8 L 940.5 733.2" stroke="#000" stroke-width="2" fill="none" stroke-linecap="round" stroke-linejoin="round" />
<path d="M 829.5 703.3 L 854.4 720.3 L 861.5 725.1 L 867.7 730.5 L 870.2 732.6 L 871.7 734.2 L 878.6 742.7 L 879.6 744.6 L 880.1 746.0 L 880.9 748.2" stroke="#000" stroke-width="2" fill="none" stroke-linecap="round" stroke-linejoin="round" />
<path d="M 1030.1 639.3 L 1010.8 683.3 L 1009.5 686.2 L 1000.9 710.6" stroke="#000" stroke-width="2" fill="none" stroke-linecap="round" stroke-linejoin="round" />
<path d="M 986.7 1399.4 L 1030.2 1400.0 L 1031.4 1400.2 L 1033.3 1400.4 L 1036.0 1400.2 L 1037.7 1400.0 L 1039.3 1399.5 L 1040.8 1398.6 L 1042.4 1398.0 L 1047.9 1397.1 L 1049.1 1396.6 L 1050.2 1396.2 L 1051.3 1395.9 L 1079.0 1392.9" stroke="#000" stroke-width="2" fill="none" stroke-linecap="round" stroke-linejoin="round" />
<path d="M 988.2 1034.8 L 991.1 1036.6 L 992.4 1036.9 L 996.4 1037.3 L 1000.5 1037.5 L 1002.8 1038.5 L 1005.6 1040.9 L 1006.9 1042.6 L 1007.6 1044.8 L 1005.1 1063.9 L 1005.3 1066.4 L 1006.1 1068.4 L 1008.9 1070.7 L 1015.8 1073.0" stroke="#000" stroke-width="2" fill="none" stroke-linecap="round" stroke-linejoin="round" />
<path d="M 835.6 1286.5 L 829.1 1286.5 L 822.1 1286.3 L 815.2 1285.5 L 812.8 1285.1 L 806.2 1282.9 L 804.0 1282.2 L 795.8 1280.5 L 794.8 1279.4 L 794.7 1277.9 L 796.2 1268.8" stroke="#000" stroke-width="2" fill="none" stroke-linecap="round" stroke-linejoin="round" />
<path d="M 805.2 1337.8 L 802.4 1334.2 L 800.1 1330.9 L 799.3 1328.2 L 798.8 1325.7 L 799.5 1323.1 L 801.8 1319.0 L 803.2 1317.3 L 804.4 1316.1 L 807.1 1315.4 L 834.9 1314.4" stroke="#000" stroke-width="2" fill="none" stroke-linecap="round" stroke-linejoin="round" />
<path d="M 695.2 1215.1 L 711.5 1219.0 L 715.4 1219.8 L 720.6 1220.5 L 723.7 1221.1 L 745.4 1227.6 L 758.3 1231.1 L 772.1 1234.8 L 776.5 1236.1 L 784.3 1238.1" stroke="#000" stroke-width="2" fill="none" stroke-linecap="round" stroke-linejoin="round" />
<path d="M 758.3 1231.1 L 747.1 1266.1" stroke="#000" stroke-width="2" fill="none" stroke-linecap="round" stroke-linejoin="round" />
<path d="M 265.8 914.4 L 321.0 914.0" stroke="#000" stroke-width="2" fill="none" stroke-linecap="round" stroke-linejoin="round" />
<path d="M 961.9 1075.9 L 986.2 1084.9" stroke="#000" stroke-width="2" fill="none" stroke-linecap="round" stroke-linejoin="round" />
<path d="M 662.1 1219.1 L 691.4 1229.1" stroke="#000" stroke-width="2" fill="none" stroke-linecap="round" stroke-linejoin="round" />
<path d="M 1084.5 1086.8 L 1065.8 1107.7" stroke="#000" stroke-width="2" fill="none" stroke-linecap="round" stroke-linejoin="round" />
<path d="M 1137.6 669.8 L 1139.8 665.8 L 1140.7 662.2 L 1140.4 641.3 L 1139.1 618.2" stroke="#000" stroke-width="2" fill="none" stroke-linecap="round" stroke-linejoin="round" />
<path d="M 1196.1 802.8 L 1190.5 798.8 L 1188.0 798.2 L 1184.9 798.0 L 1183.2 798.0 L 1182.1 798.3 L 1180.9 798.6 L 1179.5 798.9 L 1178.4 799.5 L 1177.1 800.3 L 1176.3 801.8 L 1161.7 835.8" stroke="#000" stroke-width="2" fill="none" stroke-linecap="round" stroke-linejoin="round" />
<path d="M 1225.2 943.8 L 1221.3 900.3 L 1220.6 897.8 L 1219.3 895.1 L 1215.2 890.9 L 1210.5 887.2 L 1209.7 886.0 L 1209.4 884.3 L 1211.2 881.3 L 1221.9 864.5" stroke="#000" stroke-width="2" fill="none" stroke-linecap="round" stroke-linejoin="round" />
<path d="M 1377.3 707.6 L 1359.6 737.3 L 1357.1 739.8 L 1353.0 741.8 L 1347.7 742.9 L 1327.9 742.7" stroke="#000" stroke-width="2" fill="none" stroke-linecap="round" stroke-linejoin="round" />
<path d="M 1231.9 773.8 L 1225.1 769.5 L 1220.3 767.5 L 1211.3 764.3 L 1206.9 763.4" stroke="#000" stroke-width="2" fill="none" stroke-linecap="round" stroke-linejoin="round" />
<path d="M 1168.9 1088.0 L 1170.6 1115.3" stroke="#000" stroke-width="2" fill="none" stroke-linecap="round" stroke-linejoin="round" />
<path d="M 1159.0 1277.9 L 1161.8 1321.3" stroke="#000" stroke-width="2" fill="none" stroke-linecap="round" stroke-linejoin="round" />
<path d="M 1037.6 678.4 L 1044.5 684.9 L 1048.5 688.3 L 1049.4 689.4 L 1050.3 690.3 L 1051.4 692.0 L 1052.6 693.2 L 1054.2 694.3 L 1071.4 701.4" stroke="#000" stroke-width="2" fill="none" stroke-linecap="round" stroke-linejoin="round" />
<path d="M 1070.6 996.5 L 1069.4 947.9" stroke="#000" stroke-width="2" fill="none" stroke-linecap="round" stroke-linejoin="round" />
<path d="M 1060.9 774.1 L 1074.2 753.9 L 1075.1 752.7 L 1076.7 751.7 L 1078.0 751.6 L 1079.1 751.9 L 1083.8 754.3 L 1090.6 756.8 L 1092.6 756.9 L 1095.1 756.9 L 1097.7 757.3 L 1108.0 761.0" stroke="#000" stroke-width="2" fill="none" stroke-linecap="round" stroke-linejoin="round" />
<path d="M 1484.0 920.6 L 1509.6 918.7" stroke="#000" stroke-width="2" fill="none" stroke-linecap="round" stroke-linejoin="round" />
<path d="M 1535.8 684.0 L 1427.0 690.2" stroke="#000" stroke-width="2" fill="none" stroke-linecap="round" stroke-linejoin="round" />
<path d="M 1372.2 986.2 L 1372.4 1031.7" stroke="#000" stroke-width="2" fill="none" stroke-linecap="round" stroke-linejoin="round" />
<path d="M 1418.6 982.6 L 1422.0 1082.0" stroke="#000" stroke-width="2" fill="none" stroke-linecap="round" stroke-linejoin="round" />
<path d="M 643.2 495.7 L 614.9 496.4 L 604.4 496.8 L 594.9 496.9 L 543.6 499.4 L 515.4 501.2 L 490.3 501.9" stroke="#000" stroke-width="2" fill="none" stroke-linecap="round" stroke-linejoin="round" />
<path d="M 490.6 685.4 L 490.5 678.7 L 487.3 614.6 L 486.3 584.6" stroke="#000" stroke-width="2" fill="none" stroke-linecap="round" stroke-linejoin="round" />
<path d="M 1115.7 582.0 L 1087.4 581.7 L 1064.4 581.9 L 1039.0 581.5 L 1033.2 581.1 L 1021.9 580.5 L 986.5 579.0" stroke="#000" stroke-width="2" fill="none" stroke-linecap="round" stroke-linejoin="round" />
<path d="M 959.9 467.3 L 977.7 468.3 L 1013.7 468.2 L 1039.2 467.5 L 1052.0 467.1 L 1055.4 466.4 L 1059.4 463.8 L 1060.7 461.6 L 1061.6 458.3 L 1062.3 453.4 L 1063.4 450.9 L 1064.7 448.8 L 1066.8 447.1 L 1070.4 446.5 L 1086.7 445.9 L 1099.8 445.5" stroke="#000" stroke-width="2" fill="none" stroke-linecap="round" stroke-linejoin="round" />
<path d="M 1059.4 463.8 L 1062.2 511.3" stroke="#000" stroke-width="2" fill="none" stroke-linecap="round" stroke-linejoin="round" />
<path d="M 953.6 480.7 L 968.7 481.6 L 976.4 481.6 L 983.5 481.3 L 988.9 481.4 L 992.4 482.3 L 994.5 484.0 L 995.2 487.1 L 995.4 512.8 L 996.0 517.3 L 997.0 519.8 L 999.8 521.0 L 1003.0 521.4 L 1045.6 520.3" stroke="#000" stroke-width="2" fill="none" stroke-linecap="round" stroke-linejoin="round" />
<path d="M 987.5 417.5 L 1039.5 420.0" stroke="#000" stroke-width="2" fill="none" stroke-linecap="round" stroke-linejoin="round" />
<path d="M 1019.3 352.0 L 1080.0 350.5" stroke="#000" stroke-width="2" fill="none" stroke-linecap="round" stroke-linejoin="round" />
<path d="M 1032.8 320.0 L 1097.4 318.2" stroke="#000" stroke-width="2" fill="none" stroke-linecap="round" stroke-linejoin="round" />
<path d="M 832.3 613.6 L 819.8 607.9 L 813.0 602.4 L 805.4 595.8 L 803.3 591.1 L 802.1 582.4 L 801.5 549.4 L 801.0 524.8 L 800.7 512.7 L 799.7 478.7" stroke="#000" stroke-width="2" fill="none" stroke-linecap="round" stroke-linejoin="round" />
<path d="M 801.5 549.4 L 838.3 548.5 L 854.7 548.1" stroke="#000" stroke-width="2" fill="none" stroke-linecap="round" stroke-linejoin="round" />
<path d="M 838.3 548.5 L 836.7 499.7" stroke="#000" stroke-width="2" fill="none" stroke-linecap="round" stroke-linejoin="round" />
<path d="M 1044.9 149.8 L 1043.9 146.6 L 1042.4 144.0 L 1034.8 137.5" stroke="#000" stroke-width="2" fill="none" stroke-linecap="round" stroke-linejoin="round" />
<path d="M 1380.8 235.6 L 1386.1 244.1 L 1386.3 251.0 L 1386.7 268.5" stroke="#000" stroke-width="2" fill="none" stroke-linecap="round" stroke-linejoin="round" />
<path d="M 1171.5 248.9 L 1188.8 248.5" stroke="#000" stroke-width="2" fill="none" stroke-linecap="round" stroke-linejoin="round" />
<path d="M 1216.4 324.1 L 1217.0 297.7 L 1215.6 280.9 L 1209.9 265.3 L 1200.4 253.4 L 1188.8 248.5 L 1188.6 213.5" stroke="#000" stroke-width="2" fill="none" stroke-linecap="round" stroke-linejoin="round" />
<path d="M 1178.7 474.0 L 1206.3 474.7 L 1226.0 476.0 L 1238.7 477.6 L 1259.7 484.9 L 1262.6 485.8" stroke="#000" stroke-width="2" fill="none" stroke-linecap="round" stroke-linejoin="round" />
<path d="M 1086.7 445.9 L 1089.2 491.5" stroke="#000" stroke-width="2" fill="none" stroke-linecap="round" stroke-linejoin="round" />
<path d="M 1522.9 387.2 L 1535.9 379.2 L 1548.0 373.0 L 1564.9 367.0 L 1576.0 363.9 L 1580.7 361.5 L 1584.9 357.3 L 1589.3 347.1 L 1594.9 331.7 L 1596.8 323.0 L 1597.7 312.6 L 1599.6 304.7 L 1603.2 296.4 L 1605.7 290.0 L 1606.1 280.9 L 1606.6 255.0 L 1608.7 232.8" stroke="#000" stroke-width="2" fill="none" stroke-linecap="round" stroke-linejoin="round" />
<path d="M 1372.1 511.6 L 1370.3 488.2 L 1368.4 418.2" stroke="#000" stroke-width="2" fill="none" stroke-linecap="round" stroke-linejoin="round" />
<path d="M 1119.0 575.2 L 1133.4 582.9 L 1135.1 583.1 L 1136.6 582.5 L 1140.1 576.3 L 1148.1 561.1 L 1151.5 557.1 L 1154.2 555.5 L 1157.4 554.8 L 1166.3 554.7 L 1192.6 553.8 L 1212.9 551.4 L 1218.7 548.4 L 1231.0 540.1 L 1260.0 516.3" stroke="#000" stroke-width="2" fill="none" stroke-linecap="round" stroke-linejoin="round" />
<path d="M 1026.4 61.9 L 1059.9 66.2 L 1071.5 67.6" stroke="#000" stroke-width="2" fill="none" stroke-linecap="round" stroke-linejoin="round" />
<path d="M 1135.3 544.1 L 1154.2 555.5" stroke="#000" stroke-width="2" fill="none" stroke-linecap="round" stroke-linejoin="round" />
<path d="M 1180.1 471.8 L 1112.3 475.3" stroke="#000" stroke-width="2" fill="none" stroke-linecap="round" stroke-linejoin="round" />
<path d="M 832.7 934.0 L 841.3 931.8 L 849.9 929.6" stroke="#000" stroke-width="2" fill="none" stroke-linecap="round" stroke-linejoin="round" />
<path d="M 854.5 1008.1 L 862.7 1004.2" stroke="#000" stroke-width="2" fill="none" stroke-linecap="round" stroke-linejoin="round" />
<path d="M 257.2 722.7 L 247.8 735.0 L 241.6 745.2 L 240.2 778.8 L 170.3 781.9 L 150.8 778.1" stroke="#000" stroke-width="2" fill="none" stroke-linecap="round" stroke-linejoin="round" />
<path d="M 1042.8 1304.5 L 1041.3 1283.4" stroke="#000" stroke-width="2" fill="none" stroke-linecap="round" stroke-linejoin="round" />
<path d="M 1042.8 1304.5 L 1044.9 1326.5" stroke="#000" stroke-width="2" fill="none" stroke-linecap="round" stroke-linejoin="round" />
<path d="M 880.5 1311.4 L 835.0 1309.1" stroke="#000" stroke-width="2" fill="none" stroke-linecap="round" stroke-linejoin="round" />
<path d="M 1078.6 1073.8 L 1127.6 1071.7" stroke="#000" stroke-width="2" fill="none" stroke-linecap="round" stroke-linejoin="round" />
<path d="M 1031.9 1080.4 L 1040.2 1085.1" stroke="#000" stroke-width="2" fill="none" stroke-linecap="round" stroke-linejoin="round" />
<path d="M 1155.2 1088.7 L 1157.5 1116.3" stroke="#000" stroke-width="2" fill="none" stroke-linecap="round" stroke-linejoin="round" />
<path d="M 1190.7 1075.7 L 1204.9 1074.9" stroke="#000" stroke-width="2" fill="none" stroke-linecap="round" stroke-linejoin="round" />
<path d="M 1380.8 235.6 L 1375.6 244.4 L 1375.8 250.8 L 1376.1 269.1" stroke="#000" stroke-width="2" fill="none" stroke-linecap="round" stroke-linejoin="round" />
<path d="M 1381.4 216.8 L 1380.8 235.6" stroke="#000" stroke-width="2" fill="none" stroke-linecap="round" stroke-linejoin="round" />
<path d="M 1574.8 687.1 L 1575.2 694.3 L 1575.3 695.9 L 1575.6 700.0" stroke="#000" stroke-width="2" fill="none" stroke-linecap="round" stroke-linejoin="round" />
<path d="M 1566.4 700.4 L 1566.6 697.4 L 1566.7 696.0 L 1567.1 687.9" stroke="#000" stroke-width="2" fill="none" stroke-linecap="round" stroke-linejoin="round" />
<path d="M 1011.3 367.0 L 1075.0 364.5" stroke="#000" stroke-width="2" fill="none" stroke-linecap="round" stroke-linejoin="round" />
<path d="M 956.4 577.1 L 933.5 576.1" stroke="#000" stroke-width="2" fill="none" stroke-linecap="round" stroke-linejoin="round" />
<path d="M 301.5 617.4 L 303.5 606.8 L 311.1 580.8 L 315.3 567.4" stroke="#000" stroke-width="2" fill="none" stroke-linecap="round" stroke-linejoin="round" />
<path d="M 365.9 690.9 L 365.4 679.5 L 364.7 660.7" stroke="#000" stroke-width="2" fill="none" stroke-linecap="round" stroke-linejoin="round" />
<path d="M 738.9 676.1 L 739.3 682.4 L 740.2 696.7" stroke="#000" stroke-width="2" fill="none" stroke-linecap="round" stroke-linejoin="round" />
<path d="M 795.4 764.5 L 784.5 763.9 L 779.1 762.7 L 773.6 760.6 L 764.2 755.4 L 759.1 751.3 L 755.4 749.5 L 752.0 749.7 L 742.6 752.1" stroke="#000" stroke-width="2" fill="none" stroke-linecap="round" stroke-linejoin="round" />
<path d="M 562.7 728.3 L 561.5 702.7" stroke="#000" stroke-width="2" fill="none" stroke-linecap="round" stroke-linejoin="round" />
<path d="M 645.3 678.2 L 645.5 721.6" stroke="#000" stroke-width="2" fill="none" stroke-linecap="round" stroke-linejoin="round" />
<path d="M 419.8 804.7 L 420.0 820.0" stroke="#000" stroke-width="2" fill="none" stroke-linecap="round" stroke-linejoin="round" />
<path d="M 317.9 856.3 L 274.3 857.3" stroke="#000" stroke-width="2" fill="none" stroke-linecap="round" stroke-linejoin="round" />
<path d="M 272.1 777.3 L 302.4 776.1" stroke="#000" stroke-width="2" fill="none" stroke-linecap="round" stroke-linejoin="round" />
<path d="M 272.3 803.3 L 250.2 803.6" stroke="#000" stroke-width="2" fill="none" stroke-linecap="round" stroke-linejoin="round" />
<path d="M 264.0 892.6 L 254.8 892.6" stroke="#000" stroke-width="2" fill="none" stroke-linecap="round" stroke-linejoin="round" />
<path d="M 274.3 857.3 L 228.7 857.5 L 227.0 858.0 L 225.7 860.2 L 225.4 863.2" stroke="#000" stroke-width="2" fill="none" stroke-linecap="round" stroke-linejoin="round" />
<path d="M 927.8 364.1 L 927.2 350.1" stroke="#000" stroke-width="2" fill="none" stroke-linecap="round" stroke-linejoin="round" />
<path d="M 962.8 329.6 L 947.1 349.9" stroke="#000" stroke-width="2" fill="none" stroke-linecap="round" stroke-linejoin="round" />
<path d="M 923.9 434.4 L 915.4 432.2" stroke="#000" stroke-width="2" fill="none" stroke-linecap="round" stroke-linejoin="round" />
<path d="M 823.0 788.2 L 811.5 788.0" stroke="#000" stroke-width="2" fill="none" stroke-linecap="round" stroke-linejoin="round" />
<path d="M 909.7 1287.8 L 900.8 1286.9" stroke="#000" stroke-width="2" fill="none" stroke-linecap="round" stroke-linejoin="round" />
<path d="M 849.9 929.6 L 851.9 929.1 L 854.3 928.6" stroke="#000" stroke-width="2" fill="none" stroke-linecap="round" stroke-linejoin="round" />
<path d="M 828.9 935.0 L 832.7 934.0" stroke="#000" stroke-width="2" fill="none" stroke-linecap="round" stroke-linejoin="round" />
<path d="M 1189.9 72.0 L 1099.8 72.2 L 1096.1 72.3 L 1085.3 72.4 L 1080.4 72.1 L 1076.0 70.9 L 1071.5 67.6" stroke="#000" stroke-width="2" fill="none" stroke-linecap="round" stroke-linejoin="round" />
  <path d="M 2274.7 -1185.7 L 2187.1 -1133.8 L 2118.3 -1093.0 L 2030.3 -1040.9 L 1933.4 -986.6 L 1877.4 -954.0 L 1555.0 -771.5 L 1513.6 -751.2 L 1403.1 -697.3 L 1365.2 -669.4 L 1340.8 -645.2 L 1326.1 -627.4 L 1301.3 -589.5 L 1272.2 -530.5 L 1202.4 -343.7 L 1191.3 -314.4 L 1054.2 60.0" stroke="#000" stroke-width="7" fill="none" stroke-linecap="round" stroke-linejoin="round" />
<path d="M 851.2 2032.2 L 856.4 1836.9 L 856.0 1823.3 L 856.0 1822.6 L 854.3 1764.5 L 853.8 1745.5 L 853.4 1732.0 L 854.3 1659.7 L 861.2 1580.6 L 866.1 1533.8 L 872.0 1476.9 L 872.4 1473.6 L 877.9 1423.2 L 882.2 1384.6 L 893.0 1287.1 L 899.1 1218.0 L 899.7 1173.9 L 898.1 1144.2 L 890.4 1095.5 L 880.3 1056.2 L 869.5 1023.7 L 862.7 1004.2 L 837.2 931.6 L 816.4 868.3 L 807.0 827.5 L 804.2 807.0 L 803.3 788.9 L 804.5 770.9 L 805.9 745.0 L 810.8 719.1" stroke="#000" stroke-width="7" fill="none" stroke-linecap="round" stroke-linejoin="round" />
<path d="M 1054.2 60.0 L 1030.5 125.7" stroke="#000" stroke-width="7" fill="none" stroke-linecap="round" stroke-linejoin="round" />
<path d="M 1044.5 59.1 L 1194.1 -348.4 L 1262.6 -532.4 L 1292.6 -597.0 L 1313.7 -629.6 L 1331.8 -653.4 L 1363.8 -685.0 L 1398.8 -709.9 L 1437.5 -732.1 L 1451.8 -739.3 L 1481.0 -752.5 L 1546.6 -784.2 L 1619.9 -825.8 L 1716.4 -880.7 L 1732.6 -889.9 L 1763.6 -907.5 L 1854.3 -959.0 L 1868.8 -967.5 L 1900.7 -986.1 L 1980.4 -1032.7 L 2038.7 -1066.8 L 2043.1 -1069.0 L 2068.3 -1083.5 L 2253.1 -1187.9 L 2299.8 -1215.7" stroke="#000" stroke-width="7" fill="none" stroke-linecap="round" stroke-linejoin="round" />
<path d="M 1019.5 124.1 L 1044.5 59.1" stroke="#000" stroke-width="7" fill="none" stroke-linecap="round" stroke-linejoin="round" />
<path d="M 991.2 194.5 L 1019.5 124.1" stroke="#000" stroke-width="7" fill="none" stroke-linecap="round" stroke-linejoin="round" />
<path d="M 1030.5 125.7 L 962.3 308.1 L 947.1 349.9 L 915.4 432.2 L 899.9 472.4 L 845.3 631.5 L 826.7 685.7 L 817.2 722.7 L 813.1 747.4 L 811.9 771.9 L 811.7 781.0 L 811.5 788.0 L 811.5 790.2 L 812.9 808.3 L 815.0 825.2 L 823.9 865.8 L 844.2 929.2 L 876.3 1022.7 L 887.2 1055.5 L 896.7 1093.2 L 904.9 1142.4 L 908.1 1173.3 L 906.5 1217.5 L 900.8 1286.9 L 900.6 1289.3 L 880.1 1474.7 L 868.2 1582.3 L 861.5 1660.0 L 861.4 1731.4 L 863.0 1764.5" stroke="#000" stroke-width="7" fill="none" stroke-linecap="round" stroke-linejoin="round" />
<path d="M 810.8 719.1 L 820.4 683.5 L 823.0 675.8 L 825.1 669.4 L 892.0 470.3 L 927.8 364.1 L 991.2 194.5" stroke="#000" stroke-width="7" fill="none" stroke-linecap="round" stroke-linejoin="round" />
<path d="M 2274.7 -1185.7 L 2187.1 -1133.8 L 2118.3 -1093.0 L 2030.3 -1040.9 L 1933.4 -986.6 L 1877.4 -954.0 L 1555.0 -771.5 L 1513.6 -751.2 L 1403.1 -697.3 L 1365.2 -669.4 L 1340.8 -645.2 L 1326.1 -627.4 L 1301.3 -589.5 L 1272.2 -530.5 L 1202.4 -343.7 L 1191.3 -314.4 L 1054.2 60.0" stroke="#fff" stroke-width="3.2" fill="none" stroke-linecap="round" stroke-linejoin="round"/>
<path d="M 851.2 2032.2 L 856.4 1836.9 L 856.0 1823.3 L 856.0 1822.6 L 854.3 1764.5 L 853.8 1745.5 L 853.4 1732.0 L 854.3 1659.7 L 861.2 1580.6 L 866.1 1533.8 L 872.0 1476.9 L 872.4 1473.6 L 877.9 1423.2 L 882.2 1384.6 L 893.0 1287.1 L 899.1 1218.0 L 899.7 1173.9 L 898.1 1144.2 L 890.4 1095.5 L 880.3 1056.2 L 869.5 1023.7 L 862.7 1004.2 L 837.2 931.6 L 816.4 868.3 L 807.0 827.5 L 804.2 807.0 L 803.3 788.9 L 804.5 770.9 L 805.9 745.0 L 810.8 719.1" stroke="#fff" stroke-width="3.2" fill="none" stroke-linecap="round" stroke-linejoin="round"/>
<path d="M 1054.2 60.0 L 1030.5 125.7" stroke="#fff" stroke-width="3.2" fill="none" stroke-linecap="round" stroke-linejoin="round"/>
<path d="M 1044.5 59.1 L 1194.1 -348.4 L 1262.6 -532.4 L 1292.6 -597.0 L 1313.7 -629.6 L 1331.8 -653.4 L 1363.8 -685.0 L 1398.8 -709.9 L 1437.5 -732.1 L 1451.8 -739.3 L 1481.0 -752.5 L 1546.6 -784.2 L 1619.9 -825.8 L 1716.4 -880.7 L 1732.6 -889.9 L 1763.6 -907.5 L 1854.3 -959.0 L 1868.8 -967.5 L 1900.7 -986.1 L 1980.4 -1032.7 L 2038.7 -1066.8 L 2043.1 -1069.0 L 2068.3 -1083.5 L 2253.1 -1187.9 L 2299.8 -1215.7" stroke="#fff" stroke-width="3.2" fill="none" stroke-linecap="round" stroke-linejoin="round"/>
<path d="M 1019.5 124.1 L 1044.5 59.1" stroke="#fff" stroke-width="3.2" fill="none" stroke-linecap="round" stroke-linejoin="round"/>
<path d="M 991.2 194.5 L 1019.5 124.1" stroke="#fff" stroke-width="3.2" fill="none" stroke-linecap="round" stroke-linejoin="round"/>
<path d="M 1030.5 125.7 L 962.3 308.1 L 947.1 349.9 L 915.4 432.2 L 899.9 472.4 L 845.3 631.5 L 826.7 685.7 L 817.2 722.7 L 813.1 747.4 L 811.9 771.9 L 811.7 781.0 L 811.5 788.0 L 811.5 790.2 L 812.9 808.3 L 815.0 825.2 L 823.9 865.8 L 844.2 929.2 L 876.3 1022.7 L 887.2 1055.5 L 896.7 1093.2 L 904.9 1142.4 L 908.1 1173.3 L 906.5 1217.5 L 900.8 1286.9 L 900.6 1289.3 L 880.1 1474.7 L 868.2 1582.3 L 861.5 1660.0 L 861.4 1731.4 L 863.0 1764.5" stroke="#fff" stroke-width="3.2" fill="none" stroke-linecap="round" stroke-linejoin="round"/>
<path d="M 810.8 719.1 L 820.4 683.5 L 823.0 675.8 L 825.1 669.4 L 892.0 470.3 L 927.8 364.1 L 991.2 194.5" stroke="#fff" stroke-width="3.2" fill="none" stroke-linecap="round" stroke-linejoin="round"/>
  <path d="M 1043.2 117.0 L 1007.0 114.4 L 939.4 111.0 L 906.1 109.7 L 665.7 107.3 L 607.8 106.7" stroke="#000" stroke-width="5" fill="none" stroke-linecap="round" stroke-linejoin="round" />
<path d="M 518.3 93.5 L 530.9 93.3 L 560.4 93.7 L 607.5 94.4 L 663.8 95.3 L 874.9 97.6 L 907.9 98.0 L 951.9 100.1" stroke="#000" stroke-width="5" fill="none" stroke-linecap="round" stroke-linejoin="round" />
<path d="M 951.9 100.1 L 956.3 99.4 L 971.8 96.8 L 1002.9 86.4 L 1019.0 81.4 L 1035.1 92.3 L 1048.5 100.0" stroke="#000" stroke-width="5" fill="none" stroke-linecap="round" stroke-linejoin="round" />
<path d="M 607.8 106.7 L 557.8 106.7 L 530.8 106.6 L 518.6 106.6" stroke="#000" stroke-width="5" fill="none" stroke-linecap="round" stroke-linejoin="round" />
<path d="M 1043.2 117.0 L 1007.0 114.4 L 939.4 111.0 L 906.1 109.7 L 665.7 107.3 L 607.8 106.7" stroke="#fff" stroke-width="2.2" fill="none" stroke-linecap="round" stroke-linejoin="round"/>
<path d="M 518.3 93.5 L 530.9 93.3 L 560.4 93.7 L 607.5 94.4 L 663.8 95.3 L 874.9 97.6 L 907.9 98.0 L 951.9 100.1" stroke="#fff" stroke-width="2.2" fill="none" stroke-linecap="round" stroke-linejoin="round"/>
<path d="M 951.9 100.1 L 956.3 99.4 L 971.8 96.8 L 1002.9 86.4 L 1019.0 81.4 L 1035.1 92.3 L 1048.5 100.0" stroke="#fff" stroke-width="2.2" fill="none" stroke-linecap="round" stroke-linejoin="round"/>
<path d="M 607.8 106.7 L 557.8 106.7 L 530.8 106.6 L 518.6 106.6" stroke="#fff" stroke-width="2.2" fill="none" stroke-linecap="round" stroke-linejoin="round"/>
  
    <g stroke="#000" fill="none" stroke-width="2.9952">
      <circle cx="936" cy="702" r="16.848" fill="#fff" fill-opacity="0.7"/>
      <circle cx="936" cy="702" r="3.744" fill="#000" stroke="none"/>
    </g>
  <rect width="100%" height="100%" fill="url(#vignette)"/>
  
    <g transform="translate(1776, 116)" stroke="#000" stroke-width="2.2464" fill="#000">
      <line x1="0" y1="37.44" x2="0" y2="-37.44"/>
      <path d="M 0 -37.44 L 13.104 -13.104 L 0 -22.464 L -13.104 -13.104 Z"/>
      <text x="0" y="59.44" text-anchor="middle" font-family="Georgia, serif" font-size="22.464000000000002">N</text>
    </g>
  
    <g stroke="#000" stroke-width="2.2464" fill="#000" font-family="Georgia, serif">
      <line x1="96" y1="1308" x2="291" y2="1308"/>
      <line x1="96" y1="1301" x2="96" y2="1315"/>
      <line x1="193.5" y1="1304" x2="193.5" y2="1312"/>
      <line x1="291" y1="1301" x2="291" y2="1315"/>
      <text x="193.5" y="1294" text-anchor="middle" font-size="20.592" stroke="none">250 m</text>
    </g>
  <rect x="66" y="66" width="1740" height="1272" fill="none" stroke="#000" stroke-width="2" stroke-opacity="0.7"/>
  <rect x="74" y="74" width="1724" height="1256" fill="none" stroke="#000" stroke-width="1" stroke-opacity="0.4"/>
  
</svg>