<svg xmlns="http://www.w3.org/2000/svg" xmlns:xlink="http://www.w3.org/1999/xlink" width="2340" height="1404" viewBox="0 0 2340 1404">
  <defs>
    <pattern id="hatch" patternUnits="userSpaceOnUse" width="9" height="9" patternTransform="rotate(45)">
      <line x1="0" y1="0" x2="0" y2="9" stroke="#000" stroke-width="0.9" stroke-opacity="0.4"/>
    </pattern>
    <g id="mapart">
      
      
      
      
      <path d="M 208.1 841.7 L 211.9 858.6 L 217.9 875.7 L 224.8 890.4 L 235.4 909.4" stroke="#000" stroke-width="1.1" fill="none" stroke-linecap="round" stroke-linejoin="round" stroke-opacity="0.75"/>
<path d="M 1232.9 287.2 L 1302.7 436.3 L 1330.0 494.5" stroke="#000" stroke-width="1.1" fill="none" stroke-linecap="round" stroke-linejoin="round" stroke-opacity="0.75"/>
<path d="M 214.5 1050.7 L 293.9 1064.5 L 308.6 1067.1 L 315.2 1058.2 L 318.3 1045.5 L 327.8 1035.6 L 340.1 1034.3 L 364.3 1037.0" stroke="#000" stroke-width="1.1" fill="none" stroke-linecap="round" stroke-linejoin="round" stroke-opacity="0.75"/>
<path d="M 327.8 1035.6 L 341.1 1022.4 L 360.4 1014.9" stroke="#000" stroke-width="1.1" fill="none" stroke-linecap="round" stroke-linejoin="round" stroke-opacity="0.75"/>
<path d="M 231.2 912.8 L 241.5 941.2 L 250.3 969.8" stroke="#000" stroke-width="1.1" fill="none" stroke-linecap="round" stroke-linejoin="round" stroke-opacity="0.75"/>
<path d="M 182.5 951.5 L 198.5 975.6 L 209.2 990.8" stroke="#000" stroke-width="1.1" fill="none" stroke-linecap="round" stroke-linejoin="round" stroke-opacity="0.75"/>
<path d="M 95.5 949.8 L 98.7 1011.7" stroke="#000" stroke-width="1.1" fill="none" stroke-linecap="round" stroke-linejoin="round" stroke-opacity="0.75"/>
<path d="M 186.3 948.5 L 202.8 953.4 L 212.7 954.7 L 218.8 952.0 L 222.7 946.9 L 222.4 936.8 L 217.8 923.4" stroke="#000" stroke-width="1.1" fill="none" stroke-linecap="round" stroke-linejoin="round" stroke-opacity="0.75"/>
<path d="M 1355.7 101.9 L 1200.1 106.2 L 1196.4 102.0 L 1195.7 96.2 L 1195.5 53.1" stroke="#000" stroke-width="1.1" fill="none" stroke-linecap="round" stroke-linejoin="round" stroke-opacity="0.75"/>
<path d="M 1351.1 232.5 L 1413.1 358.0" stroke="#000" stroke-width="1.1" fill="none" stroke-linecap="round" stroke-linejoin="round" stroke-opacity="0.75"/>
<path d="M 1302.7 436.3 L 1332.2 424.4 L 1338.5 423.3 L 1345.2 425.2 L 1364.7 433.7" stroke="#000" stroke-width="1.1" fill="none" stroke-linecap="round" stroke-linejoin="round" stroke-opacity="0.75"/>
<path d="M 1083.5 366.8 L 1094.8 385.2 L 1098.8 389.3 L 1103.0 393.8 L 1170.6 543.1 L 1171.4 547.9 L 1170.0 552.2 L 1169.8 556.5 L 1178.9 578.8" stroke="#000" stroke-width="1.1" fill="none" stroke-linecap="round" stroke-linejoin="round" stroke-opacity="0.75"/>
<path d="M 1121.2 363.5 L 1145.4 412.5" stroke="#000" stroke-width="1.1" fill="none" stroke-linecap="round" stroke-linejoin="round" stroke-opacity="0.75"/>
<path d="M 1114.7 350.5 L 1121.2 363.5" stroke="#000" stroke-width="1.1" fill="none" stroke-linecap="round" stroke-linejoin="round" stroke-opacity="0.75"/>
<path d="M 1646.0 93.4 L 1649.8 100.8" stroke="#000" stroke-width="1.1" fill="none" stroke-linecap="round" stroke-linejoin="round" stroke-opacity="0.75"/>
<path d="M 1649.8 100.8 L 1672.4 141.3 L 1704.5 208.1 L 1733.9 271.0" stroke="#000" stroke-width="1.1" fill="none" stroke-linecap="round" stroke-linejoin="round" stroke-opacity="0.75"/>
<path d="M 1590.5 265.2 L 1596.1 270.5 L 1603.3 276.4 L 1609.8 277.3 L 1614.7 275.6 L 1616.8 270.5 L 1614.9 265.7 L 1608.9 261.5 L 1601.2 261.0 L 1590.5 265.2" stroke="#000" stroke-width="1.1" fill="none" stroke-linecap="round" stroke-linejoin="round" stroke-opacity="0.75"/>
<path d="M 1550.7 136.3 L 1554.9 145.5 L 1559.6 156.1 L 1562.1 164.7 L 1562.4 172.9 L 1559.1 180.8 L 1551.9 192.2 L 1547.7 200.6 L 1547.9 205.9 L 1551.7 215.7 L 1563.3 241.7 L 1570.0 254.5 L 1577.0 260.1 L 1584.4 263.3 L 1590.5 265.2" stroke="#000" stroke-width="1.1" fill="none" stroke-linecap="round" stroke-linejoin="round" stroke-opacity="0.75"/>
      
      <path d="M 148.5 976.6 L 145.7 978.6 L 127.9 991.9 L 98.7 1011.7 L 73.7 1027.8 L 55.3 1038.9 L 30.3 1053.3 L 23.4 1057.3 L 7.8 1066.5 L -19.8 1080.8 L -57.4 1099.8 L -68.9 1105.3 L -90.2 1115.6 L -115.3 1127.6 L -149.1 1145.0 L -180.7 1161.2 L -207.6 1175.3 L -244.8 1193.9 L -285.9 1214.4 L -326.3 1234.6 L -349.9 1246.4 L -385.9 1264.3 L -434.0 1287.9 L -480.7 1310.9 L -495.0 1318.6 L -508.2 1325.9 L -518.8 1332.1 L -530.9 1339.6 L -545.1 1348.6 L -553.2 1353.9 L -563.7 1361.2 L -574.2 1369.4 L -583.2 1377.3 L -588.4 1381.8 L -594.0 1387.3 L -604.6 1398.0 L -616.0 1410.2 L -640.9 1439.6 L -670.8 1475.6 L -704.8 1515.7 L -728.3 1542.5 L -741.8 1558.8 L -754.7 1574.5 L -767.4 1590.4 L -779.5 1605.5 L -792.7 1622.1 L -805.5 1638.0 L -822.8 1659.0 L -838.2 1676.3 L -851.7 1692.5 L -865.1 1708.2 L -888.3 1734.7 L -907.9 1758.2 L -921.0 1773.4 L -944.0 1798.3 L -967.6 1825.2 L -989.4 1850.3 L -1016.1 1883.8 L -1051.4 1927.5 L -1075.7 1957.6 L -1102.7 1989.8 L -1108.9 1997.2 L -1164.3 2061.9 L -1190.2 2092.6 L -1218.6 2125.3 L -1242.7 2151.6 L -1269.2 2178.3 L -1289.1 2198.2 L -1313.3 2219.2 L -1336.1 2239.9 L -1393.1 2290.2 L -1440.7 2331.3 L -1470.4 2358.3 L -1499.9 2383.7 L -1519.5 2401.2 L -1539.6 2418.6 L -1561.5 2437.9 L -1593.9 2465.6 L -1612.9 2482.3 L -1628.8 2494.8 L -1642.9 2506.2 L -1656.4 2517.0 L -1666.8 2525.1 L -1676.8 2532.6 L -1680.2 2535.0 L -1690.9 2542.9 L -1703.4 2551.4 L -1719.6 2562.5 L -1755.7 2585.1 L -1778.5 2599.6 L -1801.8 2614.6 L -1910.1 2681.2 L -1934.2 2696.4 L -1960.7 2713.6 L -2010.3 2742.8 L -2025.2 2752.4 L -2052.0 2769.4 L -2077.6 2784.8 L -2088.0 2791.1 L -2131.9 2818.7 L -2162.8 2837.5 L -2201.2 2861.3 L -2256.3 2895.3 L -2297.2 2921.6 L -2340.6 2948.2 L -2380.4 2972.9 L -2417.3 2995.9 L -2454.0 3017.6 L -2497.6 3045.0 L -2531.0 3066.2 L -2554.3 3080.0 L -2584.8 3098.2 L -2613.7 3117.1 L -2636.3 3132.3 L -2653.0 3145.4 L -2671.6 3160.0 L -2704.2 3187.6 L -2733.1 3210.7 L -2778.5 3250.1 L -2803.8 3271.9 L -2814.7 3281.1 L -2840.1 3303.1 L -2858.1 3318.2 L -2873.1 3331.1 L -2894.0 3347.9 L -2913.6 3364.7 L -2931.8 3379.8 L -2948.0 3394.2 L -2969.1 3411.5 L -3047.9 3478.4 L -3061.9 3490.4 L -3099.7 3522.7 L -3145.1 3557.9 L -3177.1 3584.7 L -3198.2 3602.6 L -3227.0 3627.1 L -3256.5 3652.2 L -3275.0 3664.8 L -3276.9 3671.7 L -3287.7 3681.3 L -3317.4 3707.8 L -3319.4 3709.6 L -3327.1 3714.1 L -3333.9 3716.4 L -3336.7 3716.7 L -3340.5 3714.1 L -3345.8 3708.7 L -3347.2 3707.2 L -3348.4 3704.0" stroke="#000" stroke-width="2" fill="none" stroke-linecap="round" stroke-linejoin="round" />
<path d="M 148.5 976.6 L 154.4 972.4 L 166.9 963.7 L 182.5 951.5 L 186.3 948.5 L 203.1 935.0 L 217.8 923.4 L 231.2 912.8 L 235.4 909.4 L 263.9 886.8 L 274.4 878.2 L 278.7 874.7 L 291.3 864.5 L 325.0 838.1 L 368.1 805.2 L 381.6 794.6 L 440.8 752.2 L 444.0 749.9 L 457.4 740.5 L 499.5 712.4 L 532.2 690.0 L 547.1 680.4 L 576.6 661.5 L 604.7 642.1 L 633.4 623.2 L 654.4 608.5 L 713.5 568.1 L 727.1 559.2 L 754.5 541.9 L 782.9 525.5 L 816.0 507.0 L 855.5 485.9 L 874.3 476.3 L 886.7 469.6 L 936.0 443.1 L 977.0 422.2 L 986.2 417.8 L 1016.9 402.0 L 1083.5 366.8 L 1114.7 350.5 L 1189.5 310.3 L 1232.9 287.2 L 1280.9 264.3 L 1351.1 232.5 L 1374.7 219.4 L 1550.7 136.3 L 1605.4 110.5 L 1646.0 93.4 L 1727.1 52.6 L 1806.9 14.6 L 1897.4 -28.6 L 1926.9 -42.6 L 1963.7 -60.5 L 1997.8 -78.0 L 2025.7 -91.1 L 2055.8 -105.1 L 2076.5 -114.3 L 2090.9 -120.6 L 2129.3 -138.3 L 2161.4 -154.4 L 2196.1 -170.3 L 2204.1 -173.9 L 2231.4 -186.4 L 2276.8 -206.9 L 2313.2 -226.3 L 2334.0 -236.6 L 2377.7 -256.8 L 2407.0 -269.9 L 2422.9 -276.2 L 2439.9 -283.6 L 2460.7 -292.9 L 2486.4 -306.2 L 2508.6 -317.9 L 2520.7 -323.6 L 2546.2 -334.7 L 2574.5 -347.0 L 2599.3 -359.7 L 2618.9 -368.6 L 2628.9 -372.5 L 2640.9 -377.3 L 2663.9 -386.7 L 2674.0 -391.3 L 2681.8 -394.9 L 2701.8 -404.9 L 2718.6 -412.7 L 2757.2 -431.1 L 2772.2 -438.8 L 2798.7 -452.2 L 2816.7 -462.1 L 2828.9 -468.3 L 2977.6 -550.6 L 2989.5 -559.9 L 3003.6 -569.2 L 3019.2 -580.6 L 3036.3 -592.3 L 3046.9 -598.9 L 3056.0 -603.8 L 3068.2 -608.1 L 3101.4 -622.0 L 3124.0 -632.5 L 3153.9 -648.4 L 3191.0 -669.0 L 3201.9 -676.0 L 3210.5 -680.9 L 3219.4 -685.2 L 3226.9 -688.1 L 3235.8 -691.1 L 3246.8 -696.1 L 3256.6 -700.3 L 3269.5 -706.4 L 3284.5 -714.1 L 3307.1 -724.3 L 3317.2 -729.6 L 3337.1 -739.0 L 3356.3 -747.3 L 3374.2 -753.7 L 3392.7 -760.1 L 3408.2 -765.3 L 3419.5 -769.0 L 3437.6 -774.4 L 3463.4 -781.9 L 3500.3 -792.6 L 3523.1 -799.1 L 3553.0 -807.8 L 3570.9 -814.0 L 3591.2 -824.4 L 3602.3 -831.3 L 3612.3 -839.2 L 3645.5 -865.8 L 3654.8 -873.8 L 3667.5 -882.9 L 3679.1 -892.0 L 3690.2 -899.7 L 3697.8 -904.5 L 3709.0 -912.2 L 3719.0 -918.7 L 3730.9 -926.0 L 3741.2 -933.3 L 3749.6 -938.3 L 3757.9 -943.1 L 3765.0 -948.3 L 3773.5 -953.9 L 3783.6 -960.4 L 3796.3 -970.0 L 3810.0 -980.1 L 3819.4 -987.3 L 3830.4 -995.9 L 3842.8 -1007.1 L 3853.7 -1016.2 L 3865.9 -1026.7 L 3878.2 -1036.1 L 3888.3 -1044.0 L 3900.5 -1052.3 L 3911.9 -1061.2 L 3925.9 -1070.9 L 3944.4 -1087.6 L 3966.6 -1105.4 L 3982.5 -1117.7 L 3995.2 -1128.8 L 4010.7 -1142.2 L 4024.0 -1152.5 L 4035.4 -1161.8 L 4049.0 -1172.4 L 4061.1 -1182.5 L 4069.1 -1187.9 L 4076.2 -1192.8 L 4083.4 -1198.8 L 4090.8 -1204.7 L 4099.4 -1211.9 L 4109.6 -1221.0 L 4118.9 -1231.0 L 4130.2 -1242.6 L 4138.1 -1250.4 L 4142.6 -1254.8 L 4148.3 -1260.8 L 4157.2 -1270.2 L 4164.0 -1277.6 L 4169.8 -1283.1 L 4176.3 -1289.1 L 4185.7 -1298.0 L 4191.7 -1303.3 L 4198.0 -1309.2 L 4203.2 -1314.2 L 4206.8 -1317.9 L 4209.7 -1320.8 L 4213.6 -1325.1 L 4217.5 -1329.1 L 4222.1 -1334.5 L 4227.7 -1340.1 L 4233.4 -1346.3 L 4238.4 -1351.7 L 4244.0 -1356.9 L 4249.4 -1361.7 L 4254.7 -1366.4 L 4258.9 -1370.3 L 4264.5 -1375.7 L 4268.9 -1380.2 L 4273.3 -1384.5 L 4277.9 -1389.1 L 4281.8 -1393.2 L 4286.0 -1397.7 L 4290.0 -1401.6 L 4296.3 -1408.2 L 4301.4 -1412.9 L 4304.4 -1415.5 L 4307.6 -1418.5 L 4311.6 -1421.9 L 4315.4 -1425.6 L 4319.4 -1429.0 L 4322.0 -1431.3 L 4326.9 -1435.7 L 4331.6 -1439.5 L 4334.4 -1441.9 L 4339.2 -1446.1 L 4377.7 -1478.6 L 4383.1 -1483.0 L 4463.1 -1558.9 L 4477.3 -1572.4 L 4495.9 -1590.9 L 4508.4 -1605.0 L 4523.2 -1618.8 L 4540.9 -1637.3 L 4556.9 -1652.5 L 4576.6 -1670.7 L 4586.6 -1679.3 L 4594.7 -1687.7 L 4606.3 -1696.7 L 4618.5 -1707.4 L 4631.8 -1718.0 L 4642.5 -1728.5 L 4659.1 -1741.3 L 4677.6 -1759.0 L 4688.3 -1768.0 L 4705.0 -1781.8 L 4716.9 -1792.4 L 4730.8 -1804.8 L 4744.3 -1816.4 L 4755.2 -1825.5 L 4766.2 -1834.8 L 4777.6 -1843.8 L 4790.9 -1854.3 L 4801.3 -1861.5 L 4810.0 -1868.0 L 4817.9 -1873.9 L 4824.2 -1878.9 L 4829.6 -1883.6 L 4839.1 -1890.1 L 4853.7 -1902.5 L 4863.7 -1910.6 L 4873.9 -1919.3 L 4881.4 -1926.6 L 4897.9 -1940.7 L 4911.5 -1952.8 L 4922.5 -1963.0 L 4939.6 -1976.8 L 4948.2 -1983.1 L 4960.8 -1993.7 L 4968.6 -1999.0 L 4974.5 -2003.9 L 4985.4 -2013.1 L 4994.2 -2020.6 L 5001.0 -2025.7 L 5011.9 -2031.3 L 5032.5 -2042.6 L 5047.8 -2053.1 L 5045.4 -2095.4 L 5043.7 -2120.5 L 5042.5 -2132.6 L 5042.4 -2140.9 L 5042.9 -2142.8 L 5044.0 -2147.1 L 5048.5 -2151.9 L 5055.3 -2156.3 L 5063.6 -2158.4 L 5071.1 -2158.8 L 5083.3 -2159.9 L 5101.3 -2161.1 L 5112.9 -2163.5 L 5123.2 -2167.6 L 5130.1 -2170.2 L 5137.6 -2172.2 L 5149.9 -2175.0 L 5172.7 -2181.9 L 5205.0 -2192.8 L 5227.1 -2200.8 L 5245.9 -2206.5 L 5270.4 -2215.5 L 5275.0 -2217.2 L 5322.1 -2235.8 L 5393.3 -2265.5 L 5461.7 -2295.4 L 5505.7 -2314.5 L 5542.5 -2330.5 L 5570.3 -2341.0 L 5581.5 -2346.3 L 5586.8 -2348.8 L 5618.6 -2362.0 L 5649.2 -2375.3 L 5676.7 -2388.2 L 5706.0 -2401.7 L 5724.4 -2410.3 L 5741.5 -2417.5 L 5748.7 -2420.6 L 5774.5 -2430.2 L 5780.7 -2432.5 L 5794.0 -2438.1 L 5825.5 -2451.2 L 5848.5 -2461.0 L 5874.4 -2471.9 L 5894.0 -2480.4 L 5914.5 -2490.0" stroke="#000" stroke-width="2" fill="none" stroke-linecap="round" stroke-linejoin="round" />
<path d="M 145.7 978.6 L 145.3 978.0 L 144.9 977.5 L 144.5 977.0 L 144.0 976.3 L 143.3 975.3 L 142.5 974.6 L 141.3 973.4 L 140.2 972.2 L 139.1 971.1 L 138.2 970.1 L 137.3 968.8 L 136.5 967.5 L 135.2 964.7 L 134.7 963.6 L 133.8 960.9 L 132.4 956.9" stroke="#000" stroke-width="2" fill="none" stroke-linecap="round" stroke-linejoin="round" />
<path d="M 98.7 1011.7 L 102.0 1030.8 L 103.1 1037.0 L 103.7 1061.7 L 103.3 1075.8 L 102.4 1086.8 L 101.5 1098.0 L 99.7 1109.7 L 96.5 1120.7 L 91.6 1128.9 L 81.6 1142.6 L 73.3 1151.6 L 61.9 1162.7 L 54.7 1170.5 L 50.8 1176.7 L 43.7 1194.1 L 37.9 1212.6 L 27.3 1245.6 L 25.2 1254.2 L 22.6 1266.5 L 59.4 1274.3 L 64.8 1276.0 L 67.9 1277.5 L 70.5 1279.3 L 72.6 1282.4 L 73.3 1285.9 L 73.8 1290.0 L 73.7 1294.0 L 72.9 1298.4 L 64.0 1314.6 L 43.3 1361.2 L 37.2 1376.1 L -15.0 1403.8 L -26.1 1414.4 L -46.6 1478.0 L -48.6 1498.0" stroke="#000" stroke-width="2" fill="none" stroke-linecap="round" stroke-linejoin="round" />
<path d="M 84.9 44.9 L 77.5 46.3 L 65.8 48.2 L 52.5 50.0 L 38.3 51.1 L 23.9 52.0 L 6.6 52.6 L -13.7 53.9 L -47.7 57.3 L -108.8 63.8 L -208.3 72.0 L -265.7 76.3 L -279.5 77.3 L -407.8 88.0 L -424.6 89.7 L -578.2 104.9 L -637.4 109.9 L -691.6 115.2 L -749.4 119.1 L -819.7 124.6 L -889.6 131.0 L -921.1 133.1 L -968.3 137.0 L -1073.8 142.7 L -1191.8 150.6 L -1198.4 151.0 L -1362.1 161.6" stroke="#000" stroke-width="2" fill="none" stroke-linecap="round" stroke-linejoin="round" />
<path d="M -485.8 1478.4 L -468.6 1464.0 L -442.9 1442.8 L -429.2 1430.2 L -416.0 1417.3 L -390.3 1393.7 L -385.6 1389.7 L -381.9 1387.3 L -377.5 1384.9 L -362.1 1376.8 L -347.5 1369.0 L -336.6 1363.7 L -324.4 1358.0 L -297.1 1345.5 L -265.4 1331.7 L -252.7 1324.4 L -237.3 1316.5 L -231.5 1313.5 L -224.8 1309.7 L -210.3 1300.6 L -195.6 1291.0 L -183.3 1282.9 L -179.4 1280.6 L -174.7 1279.2 L -157.1 1275.2 L -140.2 1269.9 L -127.3 1265.8 L -113.0 1260.7 L -101.4 1256.6 L -92.1 1252.9 L -78.9 1247.1 L -69.5 1242.0 L -59.3 1236.4 L -49.7 1231.3" stroke="#000" stroke-width="2" fill="none" stroke-linecap="round" stroke-linejoin="round" />
<path d="M 22.6 1266.5 L 14.7 1266.2 L 10.2 1266.1 L 5.7 1265.2 L -2.2 1262.7 L -7.9 1260.0 L -12.8 1257.3 L -19.7 1253.5 L -28.2 1248.8 L -32.8 1245.8 L -40.8 1239.6 L -47.0 1235.0 L -49.7 1231.3 L -51.4 1226.0 L -53.1 1220.5 L -57.2 1211.2 L -64.1 1195.3 L -70.8 1178.6 L -83.0 1153.0 L -85.3 1148.3 L -86.4 1145.9 L -88.0 1143.7 L -91.1 1141.9 L -97.8 1140.4 L -104.5 1138.1 L -110.0 1134.5 L -115.3 1127.6" stroke="#000" stroke-width="2" fill="none" stroke-linecap="round" stroke-linejoin="round" />
<path d="M -1657.6 684.6 L -1626.5 682.8 L -1584.1 680.2 L -1543.3 678.4 L -1489.3 677.2 L -1455.2 677.9 L -1366.8 673.6 L -1249.5 666.7 L -1164.5 663.6 L -1130.8 662.4 L -1094.6 660.4 L -1016.5 657.4 L -963.3 654.0 L -908.6 649.9 L -839.3 643.2 L -799.3 639.3 L -765.0 636.3 L -732.3 634.2 L -703.1 631.8 L -662.4 627.2 L -629.4 624.5 L -565.5 619.9 L -542.1 616.9 L -531.0 615.5 L -467.5 610.7 L -432.0 608.8 L -404.0 605.9 L -357.1 603.0 L -310.4 599.4 L -274.1 595.2 L -250.7 592.9 L -230.0 591.7 L -220.4 591.2 L -188.9 590.2 L -168.0 591.4 L -165.0 591.7 L -162.7 591.6" stroke="#000" stroke-width="2" fill="none" stroke-linecap="round" stroke-linejoin="round" />
<path d="M -162.7 591.6 L -162.8 592.5 L -162.8 593.8 L -162.8 595.1 L -162.9 596.7 L -163.1 599.5 L -163.6 602.6 L -164.7 605.9 L -168.5 615.3 L -172.2 622.9 L -176.5 632.0 L -181.2 644.2 L -184.3 650.5 L -186.7 655.1 L -192.2 663.5 L -206.2 681.4 L -212.6 690.9 L -218.9 699.6 L -239.5 727.3 L -264.6 759.7 L -278.2 778.8 L -291.0 798.8 L -310.5 832.4 L -324.0 858.9 L -332.7 873.3 L -341.2 884.9 L -348.9 892.7 L -360.3 902.1" stroke="#000" stroke-width="2" fill="none" stroke-linecap="round" stroke-linejoin="round" />
<path d="M 1488.4 -521.8 L 1401.5 -517.2 L 1347.8 -515.5 L 1282.6 -510.8 L 1229.3 -505.6 L 1194.1 -502.5 L 1161.9 -501.6 L 1135.3 -501.0 L 1107.1 -498.3 L 1037.3 -494.0 L 1006.1 -494.2 L 978.4 -494.2 L 944.3 -493.2 L 934.7 -492.9 L 858.1 -490.3 L 819.0 -488.2 L 785.7 -487.6 L 753.5 -486.4 L 715.5 -487.3 L 699.4 -485.8 L 690.6 -484.2 L 685.9 -482.0 L 678.3 -477.4 L 670.7 -473.9 L 664.0 -472.6 L 658.3 -472.3 L 647.4 -470.8 L 637.3 -467.9 L 627.3 -463.5 L 621.9 -460.2 L 617.4 -456.7 L 612.4 -450.3 L 608.5 -446.0 L 603.4 -441.9 L 597.5 -438.6 L 591.0 -436.3 L 584.3 -434.7 L 578.3 -434.1 L 573.6 -431.6 L 568.6 -427.8 L 566.5 -426.8 L 562.7 -426.0 L 558.3 -426.1 L 553.6 -427.6 L 548.1 -430.7 L 542.6 -433.4 L 530.4 -436.4 L 519.5 -439.3 L 503.2 -446.7 L 494.9 -449.3 L 482.4 -451.7 L 470.4 -451.1 L 443.7 -449.2 L 407.9 -445.3 L 351.4 -440.2 L 314.9 -436.3 L 289.6 -430.8 L 267.4 -427.4 L 249.3 -425.9 L 238.8 -424.8 L 224.3 -422.3 L 215.4 -421.5 L 206.0 -419.9 L 196.6 -418.0 L 189.3 -416.3 L 182.4 -414.8 L 176.9 -413.8 L 170.9 -413.1 L 162.3 -412.1 L 155.1 -411.4 L 140.5 -409.8 L 130.1 -408.7 L 119.6 -408.0 L 106.8 -406.9 L 85.7 -404.6 L 71.7 -403.1 L 32.5 -402.4 L 15.9 -402.1 L -3.7 -402.8 L -17.9 -403.1 L -35.6 -402.8 L -79.0 -400.5 L -126.5 -397.7 L -169.3 -395.5 L -205.1 -392.6 L -268.9 -387.7 L -282.6 -386.4 L -299.4 -385.4 L -314.2 -384.5 L -348.5 -382.3 L -422.0 -375.9 L -458.4 -372.7 L -489.4 -370.0 L -514.9 -368.9 L -546.5 -368.5 L -567.5 -367.3 L -587.8 -366.2 L -637.5 -362.8 L -668.7 -359.9 L -718.7 -356.5 L -765.5 -353.4 L -792.4 -350.9 L -846.5 -348.6 L -889.2 -344.4 L -925.6 -342.7 L -952.0 -340.8 L -965.4 -340.1 L -988.8 -338.0 L -1003.4 -336.7 L -1030.2 -335.4 L -1048.9 -333.8 L -1065.9 -332.1 L -1079.5 -330.6 L -1094.7 -329.1 L -1109.1 -327.9 L -1128.7 -326.1 L -1138.6 -325.8 L -1151.4 -325.7 L -1167.9 -324.8 L -1190.6 -322.5 L -1202.0 -321.7 L -1222.8 -320.1 L -1234.2 -319.7 L -1249.8 -319.4" stroke="#000" stroke-width="2" fill="none" stroke-linecap="round" stroke-linejoin="round" />
<path d="M 127.9 991.9 L 132.5 984.0 L 133.3 981.3 L 134.1 978.1 L 134.5 974.8 L 134.6 972.2 L 134.6 970.9 L 134.7 969.6 L 134.8 967.9 L 135.0 966.9 L 135.1 966.0 L 135.2 964.7" stroke="#000" stroke-width="2" fill="none" stroke-linecap="round" stroke-linejoin="round" />
<path d="M 138.4 962.5 L 140.0 962.9 L 140.9 963.2 L 141.8 963.4 L 142.8 963.7 L 143.8 964.0 L 145.7 964.7 L 148.1 965.3 L 150.6 965.6 L 153.2 965.8 L 156.7 965.8 L 159.5 965.5 L 166.9 963.7" stroke="#000" stroke-width="2" fill="none" stroke-linecap="round" stroke-linejoin="round" />
<path d="M 547.1 680.4 L 593.1 751.6 L 613.0 784.0 L 621.4 799.8 L 625.9 809.5 L 629.7 818.4 L 635.9 836.8 L 638.5 853.8 L 639.5 888.4 L 638.4 919.4 L 638.0 931.3 L 637.1 960.5 L 636.7 998.8 L 637.8 1017.0 L 640.3 1030.9 L 644.1 1043.8 L 650.0 1058.1 L 660.5 1075.1 L 669.8 1088.2 L 678.5 1098.3 L 695.0 1112.5 L 713.0 1123.1 L 735.5 1132.8 L 754.2 1136.8 L 767.5 1138.0 L 786.6 1137.8 L 803.8 1135.2 L 821.3 1130.0 L 841.8 1120.2 L 854.6 1111.5 L 859.9 1102.8 L 861.7 1094.7 L 861.4 1088.8 L 859.4 1081.9 L 855.6 1074.3 L 850.3 1067.8 L 840.5 1058.2 L 817.1 1039.2 L 790.3 1020.2 L 778.5 1012.2 L 765.2 1004.8 L 756.6 1001.7 L 733.9 996.5" stroke="#000" stroke-width="2" fill="none" stroke-linecap="round" stroke-linejoin="round" />
<path d="M 629.7 818.4 L 750.0 762.6 L 778.8 750.1 L 809.0 739.3 L 845.8 726.9 L 850.2 725.8 L 855.2 724.7 L 859.9 724.7 L 863.9 725.9 L 868.8 729.0 L 877.2 733.8 L 887.9 740.1 L 913.2 756.6 L 931.8 766.7 L 945.2 774.5" stroke="#000" stroke-width="2" fill="none" stroke-linecap="round" stroke-linejoin="round" />
<path d="M 750.0 762.6 L 712.6 695.0" stroke="#000" stroke-width="2" fill="none" stroke-linecap="round" stroke-linejoin="round" />
<path d="M 665.2 725.0 L 678.8 715.4 L 688.7 708.9 L 704.4 699.7 L 711.2 695.9 L 712.6 695.0 L 713.8 693.6 L 715.4 691.3 L 718.3 686.7 L 719.2 685.3 L 720.5 683.3 L 721.8 681.9 L 724.3 680.3 L 755.6 665.9" stroke="#000" stroke-width="2" fill="none" stroke-linecap="round" stroke-linejoin="round" />
<path d="M 721.8 681.9 L 700.0 646.8" stroke="#000" stroke-width="2" fill="none" stroke-linecap="round" stroke-linejoin="round" />
<path d="M 639.5 888.4 L 696.7 890.3 L 699.1 890.3 L 701.3 890.3 L 703.2 889.8 L 704.5 888.8 L 705.6 887.1 L 706.7 886.1 L 708.5 885.2 L 710.2 884.8 L 717.3 884.0 L 724.2 883.5 L 730.1 883.1 L 732.5 883.1 L 734.8 883.1 L 735.8 883.5 L 736.5 884.2 L 737.6 885.8 L 738.4 887.4 L 741.8 896.4 L 744.6 903.9 L 748.9 915.7 L 751.9 923.2 L 752.6 925.1 L 753.3 928.0 L 753.5 930.1 L 753.6 945.1 L 754.2 958.8 L 754.7 968.7 L 754.9 970.7 L 755.5 972.4 L 756.4 974.3 L 757.8 975.9 L 759.1 977.2 L 760.5 978.3 L 762.7 980.6 L 763.6 982.4 L 764.5 985.7 L 765.1 988.7 L 765.2 1004.8" stroke="#000" stroke-width="2" fill="none" stroke-linecap="round" stroke-linejoin="round" />
<path d="M 752.6 925.1 L 759.3 928.0 L 764.1 930.2 L 769.1 932.9 L 774.1 935.8 L 778.6 938.3 L 783.5 940.1 L 789.0 942.2 L 797.0 944.2 L 806.6 946.1 L 813.8 947.6 L 821.6 948.9 L 832.5 950.8 L 838.0 951.6 L 857.6 953.8" stroke="#000" stroke-width="2" fill="none" stroke-linecap="round" stroke-linejoin="round" />
<path d="M 838.0 951.6 L 838.3 989.3 L 842.3 1012.9 L 847.2 1023.8 L 850.5 1031.5 L 853.2 1040.8 L 855.1 1053.8 L 855.6 1074.3" stroke="#000" stroke-width="2" fill="none" stroke-linecap="round" stroke-linejoin="round" />
<path d="M 735.8 883.5 L 735.4 869.2 L 735.6 868.0 L 736.5 866.6 L 737.3 865.6 L 738.2 865.0 L 740.5 864.2 L 742.8 863.8 L 745.7 863.4 L 758.3 861.9 L 768.9 860.8 L 774.1 859.9 L 777.0 859.2 L 780.6 858.4 L 783.4 857.6 L 785.8 857.0 L 789.3 856.5 L 793.8 856.1 L 801.6 855.2 L 809.7 854.4 L 813.5 853.7 L 815.2 853.1 L 816.1 852.4 L 817.0 851.3 L 818.0 850.0 L 820.3 846.2 L 822.9 840.6 L 823.5 837.9 L 824.0 835.1 L 824.6 830.0 L 824.9 826.3 L 825.9 824.6 L 827.9 822.1 L 829.5 821.1" stroke="#000" stroke-width="2" fill="none" stroke-linecap="round" stroke-linejoin="round" />
<path d="M 806.1 822.1 L 829.5 821.1 L 832.9 820.1 L 836.4 819.2 L 838.9 818.7 L 842.3 818.4 L 847.0 818.4 L 852.3 818.8 L 857.0 819.8 L 861.6 820.9 L 870.4 824.4 L 878.3 827.5 L 887.6 830.6 L 893.7 832.6 L 897.4 833.8 L 900.0 834.3 L 902.5 834.6 L 905.4 834.4 L 909.5 834.0 L 917.6 833.4 L 933.4 832.7 L 950.2 832.2 L 965.7 828.7 L 981.8 825.0 L 985.3 820.4 L 1003.4 788.1 L 1014.6 772.0 L 1025.3 762.3 L 1052.0 740.2 L 1070.4 721.8 L 1073.0 716.2 L 1072.3 712.0 L 1057.6 705.1" stroke="#000" stroke-width="2" fill="none" stroke-linecap="round" stroke-linejoin="round" />
<path d="M 900.0 834.3 L 895.6 878.5" stroke="#000" stroke-width="2" fill="none" stroke-linecap="round" stroke-linejoin="round" />
<path d="M 809.0 739.3 L 791.2 638.8 L 790.8 635.3 L 790.8 632.4 L 791.6 629.9 L 801.9 610.1 L 811.2 590.3" stroke="#000" stroke-width="2" fill="none" stroke-linecap="round" stroke-linejoin="round" />
<path d="M 801.9 610.1 L 897.6 658.6 L 961.0 689.9" stroke="#000" stroke-width="2" fill="none" stroke-linecap="round" stroke-linejoin="round" />
<path d="M 863.9 725.9 L 880.0 693.8 L 897.6 658.6" stroke="#000" stroke-width="2" fill="none" stroke-linecap="round" stroke-linejoin="round" />
<path d="M 754.5 541.9 L 763.0 550.5 L 768.0 555.3 L 774.0 560.5 L 782.0 565.6 L 793.5 570.3 L 869.0 610.2 L 930.2 641.8 L 1057.6 705.1" stroke="#000" stroke-width="2" fill="none" stroke-linecap="round" stroke-linejoin="round" />
<path d="M 638.4 919.4 L 555.2 925.9 L 527.2 927.7 L 472.4 934.2 L 430.7 939.8 L 424.3 924.4 L 412.7 899.7 L 400.6 872.7 L 387.1 842.6 L 377.6 823.1 L 368.1 805.2" stroke="#000" stroke-width="2" fill="none" stroke-linecap="round" stroke-linejoin="round" />
<path d="M 472.4 934.2 L 464.7 823.6 L 463.3 806.8 L 457.4 740.5" stroke="#000" stroke-width="2" fill="none" stroke-linecap="round" stroke-linejoin="round" />
<path d="M 527.2 927.7 L 518.1 804.2 L 515.5 766.2" stroke="#000" stroke-width="2" fill="none" stroke-linecap="round" stroke-linejoin="round" />
<path d="M 463.3 806.8 L 518.1 804.2" stroke="#000" stroke-width="2" fill="none" stroke-linecap="round" stroke-linejoin="round" />
<path d="M 430.7 939.8 L 432.1 955.9 L 433.0 980.3 L 432.0 1004.1 L 431.6 1060.2 L 430.1 1106.9 L 428.5 1133.8 L 427.1 1164.1" stroke="#000" stroke-width="2" fill="none" stroke-linecap="round" stroke-linejoin="round" />
<path d="M 555.2 925.9 L 561.1 972.9 L 566.0 1032.0 L 573.0 1130.4" stroke="#000" stroke-width="2" fill="none" stroke-linecap="round" stroke-linejoin="round" />
<path d="M 713.5 568.1 L 711.8 530.8 L 711.0 518.1 L 707.8 490.1 L 704.2 434.0 L 702.9 397.1 L 701.1 376.0 L 695.4 341.4 L 694.6 332.7 L 687.4 266.2" stroke="#000" stroke-width="2" fill="none" stroke-linecap="round" stroke-linejoin="round" />
<path d="M 694.6 332.7 L 769.9 323.0 L 822.4 319.1" stroke="#000" stroke-width="2" fill="none" stroke-linecap="round" stroke-linejoin="round" />
<path d="M 874.3 476.3 L 868.1 460.1 L 863.0 444.3 L 856.9 425.0 L 852.3 411.3 L 850.7 404.0 L 849.9 397.9 L 849.5 391.2 L 849.4 358.9 L 848.7 334.1" stroke="#000" stroke-width="2" fill="none" stroke-linecap="round" stroke-linejoin="round" />
<path d="M 810.7 137.0 L 810.6 155.6 L 810.9 161.6 L 811.3 168.7 L 811.6 176.5 L 811.6 185.4 L 812.3 196.6 L 812.5 205.8 L 812.9 217.9 L 814.8 242.2 L 816.6 259.1 L 818.4 270.7 L 820.2 282.6 L 821.6 293.7 L 822.3 302.2 L 822.4 310.3 L 822.4 319.1 L 823.9 329.1 L 825.0 331.7 L 827.2 333.2 L 829.6 333.6 L 832.5 334.2 L 841.0 334.2 L 848.7 334.1 L 886.4 330.3 L 888.9 329.4 L 890.6 328.6 L 892.0 327.2 L 892.2 325.6 L 892.1 323.2 L 886.7 293.1" stroke="#000" stroke-width="2" fill="none" stroke-linecap="round" stroke-linejoin="round" />
<path d="M 977.0 422.2 L 976.7 380.2 L 976.1 347.6 L 975.9 330.7 L 976.1 321.8 L 976.6 307.7 L 976.7 270.1 L 976.7 250.3" stroke="#000" stroke-width="2" fill="none" stroke-linecap="round" stroke-linejoin="round" />
<path d="M 976.1 321.8 L 1013.2 323.3 L 1054.3 325.1" stroke="#000" stroke-width="2" fill="none" stroke-linecap="round" stroke-linejoin="round" />
<path d="M 2025.7 -91.1 L 2039.1 -66.6 L 2047.4 -50.3 L 2053.7 -37.0 L 2054.9 -34.9 L 2056.0 -32.0 L 2056.0 -29.3 L 2055.7 -27.0 L 2054.6 -24.9 L 2052.6 -22.9 L 2049.6 -20.6 L 2046.4 -19.3 L 2044.1 -17.7 L 2041.3 -15.3 L 1964.8 85.6 L 1962.1 88.6 L 1960.8 91.7 L 1960.8 94.6 L 1961.4 98.3 L 1962.3 101.5 L 2004.9 192.2 L 2027.0 240.7 L 2036.8 260.0 L 2043.0 272.3" stroke="#000" stroke-width="2" fill="none" stroke-linecap="round" stroke-linejoin="round" />
<path d="M 1743.2 -114.9 L 1741.9 -124.8 L 1742.4 -134.6 L 1743.6 -138.6 L 1744.5 -140.9 L 1745.2 -144.0 L 1745.7 -148.6 L 1746.5 -155.2 L 1747.1 -161.8 L 1747.5 -168.3 L 1748.0 -172.1 L 1748.8 -175.5 L 1749.7 -179.2 L 1750.4 -184.4 L 1750.6 -188.2 L 1750.3 -192.7 L 1749.7 -197.5 L 1748.4 -203.4 L 1747.0 -210.4 L 1747.1 -215.6 L 1748.2 -220.6 L 1749.1 -230.2 L 1749.3 -239.1 L 1749.3 -250.1 L 1749.0 -259.7 L 1748.9 -266.4 L 1749.5 -276.8 L 1750.0 -285.6 L 1750.6 -295.5 L 1750.7 -300.7 L 1750.4 -304.0 L 1750.1 -306.8 L 1749.5 -309.5 L 1748.9 -312.7 L 1748.5 -316.2 L 1748.5 -318.1 L 1748.8 -319.4 L 1748.9 -320.6 L 1751.0 -321.0 L 1753.2 -321.4 L 1755.8 -321.4 L 1758.8 -321.0 L 1765.1 -319.9 L 1772.6 -318.7 L 1779.1 -318.3 L 1782.8 -318.3 L 1785.5 -318.3 L 1788.0 -318.7 L 1789.9 -319.3 L 1792.2 -320.2 L 1794.4 -320.7 L 1797.8 -320.8 L 1802.5 -320.8 L 1808.7 -320.4 L 1812.7 -320.1 L 1817.0 -319.8 L 1822.3 -319.9 L 1828.6 -320.0 L 1836.0 -320.7 L 1846.4 -321.4 L 1857.1 -322.5 L 1875.4 -324.9 L 1886.1 -326.3 L 1899.1 -327.9 L 1911.9 -330.0 L 1923.9 -332.3 L 1963.0 -337.3 L 1996.3 -340.8 L 2032.8 -344.8 L 2055.9 -345.7 L 2066.3 -346.2 L 2070.9 -345.1 L 2073.9 -342.1 L 2075.1 -336.2" stroke="#000" stroke-width="2" fill="none" stroke-linecap="round" stroke-linejoin="round" />
<path d="M 1727.1 52.6 L 1726.6 40.3 L 1726.2 29.0 L 1726.2 18.9 L 1725.2 8.8 L 1724.2 -0.6 L 1723.0 -7.2 L 1722.0 -13.8 L 1721.1 -24.1 L 1719.9 -30.7 L 1718.1 -37.9 L 1718.0 -44.0 L 1718.2 -49.1 L 1718.5 -53.5 L 1718.5 -58.6 L 1717.8 -64.1 L 1716.7 -70.8 L 1715.6 -76.0 L 1714.7 -81.8 L 1714.4 -91.0 L 1714.8 -100.9 L 1715.3 -107.3 L 1716.3 -111.0 L 1718.0 -114.9" stroke="#000" stroke-width="2" fill="none" stroke-linecap="round" stroke-linejoin="round" />
<path d="M 2090.9 -120.6 L 2088.8 -144.0 L 2087.8 -168.0 L 2084.4 -206.3 L 2082.6 -232.7 L 2078.1 -283.2 L 2076.4 -305.2 L 2074.8 -328.8 L 2075.1 -336.2" stroke="#000" stroke-width="2" fill="none" stroke-linecap="round" stroke-linejoin="round" />
<path d="M 342.7 -202.3 L 342.3 -193.1 L 343.1 -180.5 L 344.1 -168.2 L 345.1 -159.2 L 346.4 -151.0 L 347.2 -143.3 L 347.9 -134.0 L 347.4 -124.5 L 348.4 -113.1 L 349.1 -100.3 L 350.2 -80.9 L 351.9 -65.5 L 353.4 -52.2 L 356.0 -38.1 L 357.2 -25.5 L 357.9 -16.1 L 357.9 -8.6 L 357.7 -6.5 L 357.6 -4.3 L 357.5 -1.6 L 355.1 -1.2 L 352.8 -0.9 L 350.2 -0.7 L 336.2 0.3 L 324.0 1.5 L 312.1 3.0 L 294.1 4.9 L 278.5 6.1 L 268.6 6.6 L 261.7 7.3 L 254.5 8.2 L 248.4 9.3 L 243.1 10.8 L 239.1 12.1 L 231.7 14.8 L 226.2 17.1 L 220.0 19.8 L 215.0 22.1 L 208.9 25.0 L 197.8 29.6 L 181.7 35.4 L 166.1 39.3 L 144.4 42.6 L 118.9 45.1 L 85.1 49.1" stroke="#000" stroke-width="2" fill="none" stroke-linecap="round" stroke-linejoin="round" />
<path d="M 95.3 779.6 L 91.6 779.6 L 89.9 779.6 L 87.8 779.6 L 84.9 779.4 L 82.7 779.2 L 80.9 779.1 L 78.6 779.1 L 76.1 779.2 L 71.5 779.4 L 63.6 780.0 L 48.5 781.3 L 29.5 782.2 L 25.6 782.2 L 21.4 782.1 L 12.5 780.8 L 7.3 779.6 L 4.0 778.4 L 1.4 777.7 L -0.4 777.6 L -2.7 778.2 L -5.2 779.4 L -9.7 780.8 L -13.2 781.3 L -16.7 781.6 L -20.4 781.3 L -24.9 780.9 L -28.4 779.8 L -31.9 778.5 L -35.2 776.9 L -38.1 775.6 L -43.5 772.1 L -47.9 769.8 L -51.0 768.4 L -54.0 768.0 L -59.0 767.8 L -70.4 767.7 L -98.8 766.5 L -117.4 765.3" stroke="#000" stroke-width="2" fill="none" stroke-linecap="round" stroke-linejoin="round" />
<path d="M 114.1 924.3 L 111.4 925.3 L 109.4 925.9 L 106.5 926.5 L 103.8 927.1 L 100.7 927.5 L 97.6 927.9 L 90.9 928.6 L 84.2 929.3 L 75.1 930.0 L 69.6 930.2 L 61.2 930.3 L 44.3 930.2 L 28.4 930.6 L 15.6 930.7 L 4.0 930.4 L -2.6 930.1 L -10.0 929.7 L -18.1 929.4 L -26.6 928.8 L -32.7 928.2 L -38.5 927.5 L -42.1 926.9 L -45.8 926.7 L -49.8 926.3 L -56.1 925.7 L -107.9 916.0 L -130.6 911.1 L -137.3 910.8 L -148.2 907.9 L -166.3 904.6 L -194.2 901.3 L -232.3 899.6" stroke="#000" stroke-width="2" fill="none" stroke-linecap="round" stroke-linejoin="round" />
<path d="M -143.2 586.5 L -128.2 585.1 L -106.0 582.1 L -85.9 579.5 L -61.4 576.2 L -35.4 572.8 L -14.4 570.2 L 7.2 567.8 L 37.5 563.8 L 57.4 561.9 L 78.6 559.5 L 92.9 558.2" stroke="#000" stroke-width="2" fill="none" stroke-linecap="round" stroke-linejoin="round" />
<path d="M -162.7 591.6 L -158.8 591.8 L -155.2 591.4 L -152.6 590.7 L -149.7 590.0 L -147.4 589.2 L -145.4 588.2 L -143.2 586.5 L -140.5 583.3 L -136.5 577.4 L -133.2 572.4 L -131.5 569.2 L -130.4 565.9 L -129.2 560.6 L -127.1 551.3 L -124.8 541.8 L -122.1 532.0 L -120.4 524.9 L -119.5 522.0 L -118.5 520.0 L -117.3 518.0 L -114.7 516.0 L -107.4 511.3 L -89.6 500.2 L -78.8 493.6 L -66.6 486.5 L -51.3 477.8 L -32.3 467.5 L -5.1 452.1 L 0.2 448.9 L 4.7 446.5 L 10.2 444.3 L 21.5 439.9 L 37.2 433.6 L 50.2 428.5 L 61.6 424.4 L 77.5 418.8 L 92.8 413.9" stroke="#000" stroke-width="2" fill="none" stroke-linecap="round" stroke-linejoin="round" />
<path d="M 1323.6 -100.6 L 1336.8 -100.6 L 1350.9 -100.8 L 1375.5 -102.2 L 1401.5 -103.7 L 1426.9 -105.1 L 1438.6 -106.4 L 1446.2 -106.9 L 1460.6 -107.7 L 1476.5 -108.8 L 1492.3 -110.3 L 1500.7 -111.1 L 1527.4 -112.5 L 1572.3 -115.4 L 1613.0 -116.7 L 1635.4 -118.0 L 1660.7 -118.4 L 1675.6 -117.9 L 1686.9 -117.3 L 1693.8 -117.0 L 1704.4 -116.6 L 1718.0 -114.9" stroke="#000" stroke-width="2" fill="none" stroke-linecap="round" stroke-linejoin="round" />
<path d="M 1302.1 -304.4 L 1302.2 -305.2 L 1302.5 -306.9 L 1302.9 -308.6 L 1303.1 -309.4 L 1303.4 -311.0 L 1305.9 -311.3 L 1308.2 -311.6 L 1310.8 -311.9 L 1312.8 -312.2 L 1315.0 -312.4 L 1318.2 -312.6 L 1324.6 -313.0 L 1330.1 -313.5 L 1336.9 -314.2 L 1345.6 -315.1 L 1350.9 -315.6 L 1354.6 -315.9 L 1357.4 -315.8 L 1362.0 -315.6 L 1367.8 -315.3 L 1371.6 -315.2 L 1380.1 -315.2 L 1384.4 -315.2 L 1389.1 -315.1 L 1391.0 -315.2 L 1393.2 -315.5 L 1395.4 -315.9 L 1397.2 -316.1 L 1400.5 -316.4 L 1406.0 -317.1 L 1413.4 -317.5 L 1421.2 -317.5 L 1429.7 -317.7 L 1437.0 -317.8 L 1444.8 -318.4 L 1450.9 -319.0 L 1457.5 -319.9 L 1463.5 -320.2 L 1471.0 -320.2 L 1496.1 -320.1 L 1520.8 -321.5 L 1532.5 -321.2 L 1546.5 -321.1 L 1566.4 -321.8 L 1586.2 -322.0 L 1608.7 -321.6 L 1614.6 -321.2 L 1623.5 -320.5 L 1632.5 -320.5 L 1644.5 -320.6 L 1656.3 -319.9 L 1664.1 -319.4 L 1668.4 -319.0 L 1672.7 -318.6 L 1677.0 -318.6 L 1684.4 -318.6 L 1695.9 -318.7 L 1711.1 -318.8 L 1724.2 -318.0 L 1734.2 -318.3 L 1741.7 -318.2 L 1748.5 -318.1" stroke="#000" stroke-width="2" fill="none" stroke-linecap="round" stroke-linejoin="round" />
<path d="M 1374.7 219.4 L 1371.5 208.7 L 1369.4 198.1 L 1368.0 189.0 L 1365.8 177.9 L 1364.2 167.4 L 1362.1 156.9 L 1360.3 147.7 L 1358.7 139.4 L 1357.3 130.1 L 1355.8 118.8 L 1355.3 107.1 L 1355.7 101.9 L 1355.7 93.8 L 1354.9 86.5 L 1353.8 78.4 L 1352.0 69.5 L 1350.0 61.1 L 1346.4 41.3 L 1343.3 27.9 L 1340.2 12.1 L 1337.6 -2.8 L 1334.7 -17.4 L 1332.4 -29.7 L 1330.6 -40.1 L 1329.0 -49.3 L 1327.1 -58.4 L 1325.4 -70.0 L 1324.7 -81.2 L 1323.8 -95.2 L 1323.6 -100.6 L 1323.4 -104.7 L 1322.7 -113.0 L 1322.2 -120.7 L 1321.0 -128.8 L 1319.1 -135.8 L 1317.8 -140.6 L 1316.3 -145.5 L 1315.7 -150.2 L 1315.5 -155.1 L 1315.5 -160.5 L 1315.4 -165.8 L 1315.3 -172.0 L 1314.8 -177.3 L 1313.6 -187.6 L 1313.0 -194.6 L 1312.4 -198.7 L 1312.0 -202.8 L 1311.9 -207.2 L 1311.5 -215.2 L 1311.7 -225.1 L 1311.7 -232.5 L 1311.3 -238.3 L 1311.0 -243.2 L 1311.0 -247.3 L 1310.8 -250.8 L 1310.6 -254.9 L 1310.3 -258.1 L 1309.8 -261.1 L 1309.1 -264.4 L 1308.2 -268.9 L 1307.7 -271.2 L 1307.2 -273.6 L 1307.0 -276.2 L 1306.8 -278.0 L 1306.6 -279.3 L 1306.2 -281.0 L 1305.5 -282.7 L 1304.7 -284.6 L 1304.0 -286.4 L 1303.5 -288.6 L 1303.1 -291.2 L 1302.7 -293.7 L 1302.4 -296.3 L 1302.2 -298.4 L 1302.0 -300.1 L 1302.0 -302.4 L 1302.1 -304.4 L 1300.7 -304.5 L 1299.2 -304.4 L 1297.1 -304.5 L 1291.3 -304.7 L 1279.0 -305.0 L 1267.9 -305.2 L 1263.8 -305.0 L 1261.2 -305.0 L 1259.4 -305.0 L 1257.7 -305.3 L 1256.0 -306.0 L 1251.8 -307.3 L 1247.2 -307.8 L 1242.3 -307.8 L 1235.6 -307.6 L 1228.0 -307.1 L 1224.0 -306.9 L 1220.7 -307.4 L 1216.4 -308.5 L 1212.7 -308.9 L 1208.3 -308.7 L 1202.8 -308.3 L 1194.5 -307.9 L 1189.1 -307.7 L 1185.8 -307.6 L 1180.5 -307.5 L 1175.7 -307.2 L 1172.4 -306.5 L 1169.3 -305.2 L 1166.2 -304.1 L 1162.2 -303.3 L 1157.6 -302.8 L 1147.8 -301.9 L 1128.1 -300.6 L 1103.6 -299.0 L 1068.9 -297.2 L 1050.1 -296.8 L 1031.9 -295.7 L 1016.3 -294.7 L 999.7 -293.9 L 983.1 -293.0 L 968.7 -291.9 L 953.6 -290.3 L 945.0 -289.6 L 926.4 -289.2 L 910.4 -288.3 L 895.6 -286.9 L 879.4 -285.3 L 867.3 -284.3 L 862.6 -284.2 L 858.7 -284.4 L 855.1 -284.6 L 850.4 -285.2 L 846.1 -286.0 L 839.8 -286.7 L 834.5 -286.6 L 803.3 -283.9 L 794.0 -283.3 L 772.0 -281.5 L 753.9 -280.6 L 749.6 -280.3 L 745.2 -280.3 L 734.6 -280.8 L 718.6 -281.1 L 699.3 -280.9 L 686.8 -281.0 L 672.6 -280.5 L 666.1 -280.2 L 662.7 -279.9 L 661.0 -279.7 L 658.4 -279.2 L 656.1 -278.5 L 653.6 -277.4 L 651.3 -276.0 L 649.5 -274.5 L 648.1 -273.0 L 647.3 -271.0 L 647.0 -268.8 L 647.7 -261.8 L 648.7 -253.9 L 650.6 -237.2 L 650.9 -234.8 L 651.0 -231.8 L 650.7 -230.0 L 650.0 -227.9 L 649.4 -226.4 L 647.8 -225.2 L 645.5 -224.7 L 643.2 -224.5 L 629.5 -224.0 L 612.4 -223.6 L 585.5 -221.5 L 544.4 -218.4 L 506.0 -216.2 L 475.4 -213.5 L 434.4 -209.1 L 390.8 -206.6 L 355.5 -203.8 L 342.7 -202.3 L 319.9 -199.9 L 292.3 -196.6 L 265.3 -194.3 L 236.9 -193.2 L 209.7 -192.7 L 181.7 -191.9 L 159.1 -192.4 L 139.2 -193.6 L 122.7 -194.7 L 99.6 -195.9 L 78.4 -197.2" stroke="#000" stroke-width="2" fill="none" stroke-linecap="round" stroke-linejoin="round" />
<path d="M 85.9 67.8 L 98.4 78.6 L 103.7 83.7 L 110.2 90.5 L 114.2 94.7 L 116.7 97.8 L 118.8 101.3 L 123.1 107.8 L 131.5 121.4 L 141.6 136.2 L 150.2 148.7 L 159.2 159.6 L 166.5 167.4 L 169.9 171.1 L 175.4 178.7 L 183.0 189.4 L 191.2 202.4 L 203.7 221.9 L 217.4 243.1 L 231.3 263.3 L 246.5 284.3 L 259.8 302.4 L 280.0 325.3 L 289.0 335.8 L 297.9 347.6 L 307.9 361.6 L 315.7 375.6 L 320.4 380.3 L 325.1 384.2 L 334.1 389.5 L 342.6 396.2 L 347.9 402.1 L 354.2 409.6 L 363.3 420.6 L 369.8 429.3 L 375.6 436.4 L 381.7 442.4 L 388.0 447.7 L 395.9 452.3 L 406.4 455.9 L 415.1 459.2 L 423.4 463.3 L 433.4 469.4 L 444.5 476.3 L 455.6 485.2 L 468.6 494.4 L 480.1 501.2 L 490.7 508.2 L 505.5 517.9 L 512.6 521.5 L 520.1 526.4 L 528.6 533.5 L 540.1 547.2 L 546.1 554.9 L 554.4 565.7 L 558.9 571.4 L 563.6 578.2 L 568.9 586.6 L 574.6 594.1 L 576.9 595.9 L 580.2 597.4 L 583.6 598.1 L 586.4 598.0 L 588.9 597.2 L 591.6 595.7 L 596.0 592.8 L 599.5 590.8 L 606.0 587.8 L 610.9 585.6 L 615.1 583.6 L 619.1 581.8 L 622.0 580.8 L 625.0 579.7 L 627.8 579.2 L 630.0 579.2 L 632.4 579.5 L 634.4 580.8 L 636.6 582.8 L 639.3 586.2 L 642.3 590.8 L 645.6 596.2 L 654.4 608.5" stroke="#000" stroke-width="2" fill="none" stroke-linecap="round" stroke-linejoin="round" />
<path d="M 1303.4 -311.0 L 1302.9 -314.0 L 1302.6 -317.8 L 1302.3 -321.6 L 1301.6 -327.1 L 1300.4 -333.5 L 1299.2 -340.5 L 1298.7 -345.8 L 1298.2 -352.9 L 1297.9 -356.7 L 1296.8 -362.3 L 1296.2 -365.1 L 1295.8 -367.7 L 1295.9 -371.8 L 1296.0 -375.9 L 1295.8 -380.1 L 1295.5 -383.4 L 1294.6 -390.2 L 1294.1 -398.3 L 1292.7 -413.0 L 1291.6 -426.9 L 1290.4 -440.0 L 1282.6 -510.8" stroke="#000" stroke-width="2" fill="none" stroke-linecap="round" stroke-linejoin="round" />
<path d="M 1718.0 -114.9 L 1722.1 -114.4 L 1725.7 -114.1 L 1728.7 -114.0 L 1732.6 -114.0 L 1737.2 -114.1 L 1743.2 -114.9 L 1754.9 -117.0 L 1771.4 -119.2 L 1777.1 -120.5 L 1782.1 -120.9 L 1787.1 -121.1 L 1794.3 -121.2 L 1803.3 -121.9 L 1821.3 -123.1 L 1831.6 -124.5 L 1838.1 -126.2 L 1843.7 -127.3 L 1850.1 -127.7 L 1859.3 -128.4 L 1869.7 -129.7 L 1877.3 -131.3 L 1883.3 -132.3 L 1894.4 -133.7 L 1907.6 -134.9 L 1929.0 -137.0 L 1968.0 -138.4 L 2002.0 -139.9 L 2033.5 -141.7 L 2067.0 -143.1 L 2088.8 -144.0" stroke="#000" stroke-width="2" fill="none" stroke-linecap="round" stroke-linejoin="round" />
<path d="M 1748.9 -320.6 L 1750.2 -325.8 L 1751.2 -329.9 L 1752.3 -333.8 L 1753.4 -338.3 L 1753.8 -340.7 L 1754.2 -343.8 L 1754.6 -347.4 L 1754.8 -349.5 L 1754.7 -352.8 L 1754.1 -356.1 L 1753.4 -359.4 L 1752.2 -363.9 L 1751.3 -368.4 L 1750.9 -373.1 L 1751.0 -380.5 L 1751.6 -388.5 L 1752.5 -396.7 L 1753.2 -405.7 L 1753.8 -411.7 L 1754.3 -415.9 L 1754.6 -418.2 L 1754.4 -421.2 L 1753.8 -424.3 L 1753.0 -426.9 L 1752.1 -430.6 L 1750.6 -437.1 L 1750.7 -447.6 L 1746.0 -484.2 L 1743.1 -521.2 L 1743.3 -527.0 L 1744.7 -530.9 L 1745.4 -534.6 L 1746.2 -543.4 L 1746.4 -557.3 L 1746.2 -562.6 L 1745.6 -564.8 L 1743.7 -567.3 L 1740.7 -571.5 L 1739.9 -574.4 L 1739.7 -577.3 L 1740.7 -585.1 L 1745.3 -606.5 L 1745.5 -611.4 L 1745.9 -617.6 L 1744.6 -642.9 L 1744.7 -652.4 L 1745.1 -655.4 L 1746.1 -658.9 L 1746.2 -660.3 L 1745.4 -662.5 L 1743.0 -668.6 L 1740.8 -675.6 L 1739.5 -682.9 L 1739.1 -698.9 L 1741.0 -716.4 L 1740.6 -755.3 L 1736.5 -782.7 L 1735.6 -787.8 L 1735.8 -791.9 L 1737.3 -796.4 L 1738.1 -799.7 L 1738.4 -805.5 L 1737.9 -829.7 L 1734.6 -894.1 L 1735.2 -907.9 L 1734.6 -917.7 L 1733.4 -924.6 L 1732.0 -928.4 L 1730.7 -933.1 L 1729.8 -938.5 L 1727.2 -988.5 L 1728.1 -1006.9 L 1727.4 -1024.4 L 1726.3 -1047.6 L 1724.3 -1101.9 L 1726.2 -1133.2 L 1725.6 -1163.2 L 1725.1 -1213.2 L 1725.6 -1274.3 L 1723.8 -1348.6 L 1723.5 -1393.8 L 1722.8 -1425.9 L 1722.8 -1466.5 L 1722.2 -1497.3 L 1721.0 -1536.7 L 1715.9 -1606.7 L 1712.6 -1658.5 L 1710.2 -1754.7 L 1706.9 -1822.3 L 1703.8 -1870.0 L 1701.7 -1927.2 L 1693.3 -2013.3 L 1688.5 -2067.4 L 1684.9 -2136.5 L 1682.7 -2211.2 L 1678.6 -2324.6 L 1673.0 -2358.8 L 1668.7 -2412.5 L 1663.9 -2491.5 L 1662.4 -2496.2 L 1659.6 -2498.7 L 1655.9 -2499.0 L 1625.5 -2495.4 L 1587.4 -2487.3 L 1502.8 -2471.8 L 1436.8 -2464.9 L 1348.0 -2459.0 L 1193.6 -2450.0 L 1099.0 -2441.4 L 914.9 -2428.3 L 707.0 -2409.5 L 582.4 -2395.8 L 452.2 -2381.8 L 384.5 -2376.7 L 295.0 -2366.0 L 145.1 -2352.1 L 7.9 -2337.9" stroke="#000" stroke-width="2" fill="none" stroke-linecap="round" stroke-linejoin="round" />
<path d="M 130.4 953.8 L 132.0 956.3 L 132.4 956.9" stroke="#000" stroke-width="2" fill="none" stroke-linecap="round" stroke-linejoin="round" />
<path d="M 132.4 956.9 L 135.2 959.4 L 137.1 961.2 L 138.4 962.5 L 139.6 963.6 L 140.7 964.7 L 142.1 966.3 L 143.7 968.2 L 144.8 970.1 L 145.9 972.0 L 146.6 973.3 L 147.1 974.2 L 147.5 974.9 L 147.9 975.6 L 148.5 976.6" stroke="#000" stroke-width="2" fill="none" stroke-linecap="round" stroke-linejoin="round" />
<path d="M -24.7 -3206.9 L -14.1 -2925.2 L -3.0 -2629.6 L 7.6 -2346.1 L 7.9 -2337.9 L 16.0 -2083.3 L 24.2 -1839.8 L 33.9 -1568.4 L 42.7 -1290.5 L 51.9 -1062.1 L 50.3 -1030.7 L 56.0 -938.2 L 58.5 -822.6 L 65.0 -611.8 L 71.7 -403.1 L 78.3 -199.7 L 78.4 -197.2 L 79.3 -171.1 L 81.9 -76.8 L 83.3 -7.5 L 84.9 44.9 L 85.1 49.1 L 85.9 67.8 L 86.6 84.0 L 88.0 116.6 L 89.1 165.7 L 90.1 201.4 L 91.3 244.3 L 92.3 278.5 L 92.1 291.7 L 91.8 312.7 L 92.0 352.4 L 92.2 370.7 L 92.8 413.9 L 92.8 416.8 L 93.9 469.6 L 94.5 500.3 L 93.4 536.7 L 93.2 545.2 L 92.9 558.2 L 92.7 585.8 L 93.1 612.0 L 93.3 638.5 L 94.1 676.9 L 94.7 712.3 L 95.0 750.8 L 95.3 779.6 L 95.4 785.6 L 96.2 814.1 L 97.7 841.4 L 98.3 855.9 L 99.3 865.9 L 100.5 876.5 L 102.6 887.2 L 105.6 898.9 L 109.1 910.2 L 114.1 924.3 L 120.3 936.5 L 126.7 947.0 L 130.4 953.8" stroke="#000" stroke-width="2" fill="none" stroke-linecap="round" stroke-linejoin="round" />
<path d="M 805.8 -75.1 L 806.3 -69.7 L 807.0 -62.7 L 808.3 -53.3 L 810.4 -37.4 L 811.3 -29.2 L 812.2 -21.0 L 812.6 -7.8 L 812.6 9.2 L 812.8 29.3 L 812.7 50.2 L 812.6 69.9 L 812.4 88.6 L 812.8 108.4 L 813.1 117.5 L 813.3 125.3 L 812.9 130.6 L 811.4 135.5 L 810.7 137.0 L 808.9 138.1 L 806.7 138.8 L 804.3 139.1 L 793.1 140.0 L 775.9 140.3 L 747.1 142.3 L 717.0 143.2 L 696.9 143.8 L 688.5 144.2 L 683.8 144.3 L 682.2 144.7 L 680.5 145.6 L 679.7 146.9 L 679.5 148.2 L 679.6 155.0 L 679.8 165.0 L 679.8 171.3 L 679.0 179.0 L 678.3 181.5 L 677.2 183.2 L 675.9 185.0 L 673.7 186.3 L 670.7 187.6 L 667.2 189.0 L 663.5 190.2 L 659.1 191.0 L 656.0 191.6 L 651.3 192.2 L 640.2 193.1 L 620.8 194.0 L 610.5 194.2 L 596.6 194.2 L 585.6 194.2 L 573.4 194.6 L 557.6 195.6 L 536.1 197.8 L 495.1 200.9 L 474.3 201.3 L 450.5 202.2 L 427.9 203.2 L 403.3 204.3 L 389.0 204.8 L 380.6 205.5 L 378.2 205.6 L 376.1 205.1 L 374.6 203.8 L 373.8 202.1 L 373.0 198.6 L 372.3 194.4 L 371.8 187.2 L 371.9 181.9 L 371.7 178.5 L 372.4 174.2 L 373.1 170.5 L 372.7 167.1 L 371.6 162.5 L 370.7 159.5 L 369.4 155.9 L 368.3 150.0 L 368.1 144.6 L 368.5 133.8 L 369.5 120.8 L 369.7 109.0 L 369.4 95.8 L 368.3 82.4 L 365.9 66.9 L 363.6 49.7 L 361.0 31.8 L 358.3 8.0 L 357.5 -1.6 L 369.1 -1.8 L 380.6 -2.0 L 398.4 -2.8 L 432.5 -5.6 L 453.5 -6.7 L 480.8 -7.9 L 507.7 -9.4 L 531.4 -10.6 L 558.4 -12.1 L 584.1 -13.8 L 612.8 -15.4 L 649.3 -17.4 L 655.7 -18.1 L 660.7 -19.1 L 665.4 -22.2 L 667.0 -25.7 L 667.7 -30.1 L 667.4 -39.3 L 665.2 -69.6 L 662.9 -105.5 L 659.1 -137.1 L 654.2 -175.5 L 651.3 -199.0 L 647.8 -225.2" stroke="#000" stroke-width="2" fill="none" stroke-linecap="round" stroke-linejoin="round" />
<path d="M 95.0 750.8 L 133.8 748.1 L 152.2 747.4 L 168.8 746.9 L 195.3 746.3 L 210.5 746.1 L 236.2 745.2 L 241.4 745.1 L 245.6 745.5 L 249.3 746.7 L 251.4 748.4 L 252.9 751.8 L 253.9 756.6 L 254.1 760.7 L 254.3 765.8 L 254.8 790.3 L 255.1 808.1 L 255.8 830.0 L 256.3 840.8 L 257.3 846.6 L 258.8 851.9 L 261.7 857.3 L 267.2 866.9 L 274.4 878.2" stroke="#000" stroke-width="2" fill="none" stroke-linecap="round" stroke-linejoin="round" />
<path d="M 239.1 12.1 L 235.4 23.3 L 230.3 37.0 L 226.1 47.4 L 220.9 62.9 L 216.7 73.0 L 211.9 82.5 L 208.7 88.6 L 203.8 97.2 L 198.6 107.2 L 194.2 116.2 L 188.7 127.8 L 183.9 137.1 L 181.0 143.4 L 177.1 151.3 L 173.9 156.5 L 169.7 162.2 L 166.5 167.4" stroke="#000" stroke-width="2" fill="none" stroke-linecap="round" stroke-linejoin="round" />
<path d="M 953.6 -290.3 L 954.9 -276.6 L 955.4 -269.7 L 955.7 -262.6 L 955.7 -255.1 L 955.0 -248.7 L 954.3 -241.0 L 953.7 -234.6 L 953.2 -228.5 L 953.2 -222.7 L 953.2 -217.3 L 953.0 -211.7 L 952.5 -201.6 L 952.6 -191.0 L 953.0 -182.7 L 953.9 -174.3 L 954.4 -168.8 L 955.0 -161.9 L 955.4 -157.6 L 955.9 -152.7 L 956.6 -148.4 L 957.2 -144.2 L 957.5 -140.8 L 957.5 -137.2 L 957.4 -132.3 L 957.5 -129.1 L 957.9 -123.9 L 958.4 -118.8 L 960.4 -105.0 L 960.8 -100.9 L 960.8 -96.2 L 960.0 -90.5 L 958.3 -85.8 L 954.3 -81.0 L 951.4 -78.9 L 947.7 -77.8" stroke="#000" stroke-width="2" fill="none" stroke-linecap="round" stroke-linejoin="round" />
<path d="M 805.8 -75.1 L 802.4 -123.6 L 801.0 -147.4 L 799.8 -172.3 L 799.0 -203.1 L 797.5 -223.2 L 795.5 -249.4 L 794.0 -283.3" stroke="#000" stroke-width="2" fill="none" stroke-linecap="round" stroke-linejoin="round" />
<path d="M 665.2 -69.6 L 687.8 -70.4 L 712.6 -71.6 L 751.1 -73.4 L 805.8 -75.1 L 848.1 -76.8 L 871.8 -78.2 L 886.3 -79.1 L 901.4 -79.4 L 912.6 -79.3 L 929.4 -78.3 L 947.7 -77.8" stroke="#000" stroke-width="2" fill="none" stroke-linecap="round" stroke-linejoin="round" />
<path d="M 1189.1 -307.7 L 1178.7 -315.7 L 1171.5 -321.1 L 1163.3 -328.9 L 1156.7 -336.2 L 1148.4 -346.1 L 1143.2 -350.8 L 1140.7 -352.9 L 1138.6 -354.7 L 1136.0 -357.9 L 1133.1 -362.9 L 1127.1 -371.2 L 1123.6 -374.7 L 1120.6 -377.7 L 1118.5 -379.8 L 1116.8 -382.1 L 1115.7 -385.5 L 1115.0 -389.3 L 1114.3 -396.5 L 1113.7 -403.4 L 1113.2 -413.9 L 1111.5 -433.4 L 1107.1 -498.3" stroke="#000" stroke-width="2" fill="none" stroke-linecap="round" stroke-linejoin="round" />
<path d="M 1960.8 91.7 L 1953.3 94.5 L 1931.4 102.2 L 1897.6 112.6 L 1865.9 121.3 L 1838.2 128.8" stroke="#000" stroke-width="2" fill="none" stroke-linecap="round" stroke-linejoin="round" />
<path d="M 1088.5 -712.5 L 1088.2 -704.3 L 1088.2 -697.1 L 1089.0 -686.2 L 1090.5 -674.5 L 1097.0 -620.7 L 1101.9 -552.4 L 1107.1 -498.3" stroke="#000" stroke-width="2" fill="none" stroke-linecap="round" stroke-linejoin="round" />
<path d="M 934.3 -705.8 L 936.2 -649.0 L 938.1 -580.9 L 944.3 -493.2" stroke="#000" stroke-width="2" fill="none" stroke-linecap="round" stroke-linejoin="round" />
<path d="M 785.7 -487.6 L 784.8 -511.7 L 783.3 -539.3 L 782.3 -553.2 L 781.5 -566.5 L 776.5 -593.9 L 773.3 -627.4 L 773.0 -657.5 L 773.3 -676.0 L 773.0 -683.1 L 772.3 -689.2 L 772.0 -697.7" stroke="#000" stroke-width="2" fill="none" stroke-linecap="round" stroke-linejoin="round" />
<path d="M 2204.1 -173.9 L 2307.5 29.7" stroke="#000" stroke-width="2" fill="none" stroke-linecap="round" stroke-linejoin="round" />
<path d="M 2076.5 -114.3 L 2193.1 138.4" stroke="#000" stroke-width="2" fill="none" stroke-linecap="round" stroke-linejoin="round" />
<path d="M 1605.4 110.5 L 1632.4 155.2 L 1648.8 166.1 L 1659.2 180.9 L 1707.4 284.3 L 1725.7 330.0" stroke="#000" stroke-width="2" fill="none" stroke-linecap="round" stroke-linejoin="round" />
<path d="M 92.0 352.4 L -71.9 373.8 L -94.1 376.4" stroke="#000" stroke-width="2" fill="none" stroke-linecap="round" stroke-linejoin="round" />
<path d="M 92.1 291.7 L 66.0 291.7 L 57.9 298.0 L 51.2 296.5 L 29.8 300.6 L 1.7 305.4 L -17.2 312.8 L -29.4 317.2" stroke="#000" stroke-width="2" fill="none" stroke-linecap="round" stroke-linejoin="round" />
<path d="M 203.8 551.6 L 168.1 549.6 L 134.5 547.9 L 123.1 545.6 L 108.1 544.3 L 93.2 545.2" stroke="#000" stroke-width="2" fill="none" stroke-linecap="round" stroke-linejoin="round" />
<path d="M 329.0 446.5 L 327.5 492.6 L 326.5 532.2 L 325.5 587.0 L 325.4 612.0 L 329.0 623.8 L 335.4 632.4 L 349.1 639.9 L 359.5 640.1 L 362.8 640.9 L 364.7 642.5 L 366.0 646.0 L 366.8 664.5 L 366.4 679.6 L 368.3 684.3 L 373.0 686.4 L 380.5 687.9 L 395.7 689.1 L 406.3 693.6 L 411.9 699.8 L 422.4 714.7 L 444.0 749.9" stroke="#000" stroke-width="2" fill="none" stroke-linecap="round" stroke-linejoin="round" />
<path d="M 297.9 347.6 L 287.0 356.8 L 277.7 367.3 L 272.8 378.4 L 269.6 390.7 L 269.6 411.3 L 273.7 423.3 L 276.1 433.9 L 278.3 448.4 L 274.9 461.1 L 268.6 474.1 L 263.4 479.2 L 254.7 480.4 L 242.8 476.4 L 228.1 475.6 L 205.3 474.2 L 184.4 478.0 L 156.1 482.2 L 139.6 488.0 L 131.1 491.8 L 120.4 495.2 L 109.6 497.9 L 94.5 500.3" stroke="#000" stroke-width="2" fill="none" stroke-linecap="round" stroke-linejoin="round" />
<path d="M -183.3 1282.9 L -175.4 1290.4 L -171.3 1297.1 L -167.3 1305.7 L -163.8 1317.9 L -161.0 1334.9 L -158.1 1341.4 L -148.5 1359.8 L -146.7 1366.3 L -144.9 1373.3 L -142.1 1375.2 L -138.6 1375.5 L -134.4 1372.7 L -126.5 1365.7 L -115.6 1360.8 L -96.9 1357.6 L -84.5 1354.0 L -68.1 1344.6 L -31.5 1322.8 L -16.2 1311.9 L -9.0 1304.1 L 10.2 1266.1" stroke="#000" stroke-width="2" fill="none" stroke-linecap="round" stroke-linejoin="round" />
<path d="M 2055.8 -105.1 L 2069.0 -77.7 L 2077.6 -65.2 L 2087.1 -59.2 L 2096.2 -54.8 L 2099.4 -53.2 L 2102.3 -50.8 L 2109.0 -38.1 L 2124.7 -1.8 L 2140.9 31.4 L 2153.5 59.9 L 2168.5 92.3 L 2185.5 130.1 L 2189.4 140.3 L 2190.9 143.0" stroke="#000" stroke-width="2" fill="none" stroke-linecap="round" stroke-linejoin="round" />
<path d="M 214.5 1050.7 L 102.0 1030.8" stroke="#000" stroke-width="2" fill="none" stroke-linecap="round" stroke-linejoin="round" />
<path d="M 886.7 469.6 L 909.0 486.3 L 923.9 498.6 L 941.1 514.7 L 954.6 532.6 L 961.8 547.9 L 971.6 576.3 L 978.1 588.4 L 986.2 597.2 L 999.9 606.5 L 1009.0 607.0 L 1015.3 603.9 L 1025.5 602.8" stroke="#000" stroke-width="2" fill="none" stroke-linecap="round" stroke-linejoin="round" />
<path d="M 793.5 570.3 L 868.1 525.4" stroke="#000" stroke-width="2" fill="none" stroke-linecap="round" stroke-linejoin="round" />
<path d="M 869.0 610.2 L 906.7 583.0" stroke="#000" stroke-width="2" fill="none" stroke-linecap="round" stroke-linejoin="round" />
<path d="M 834.6 671.6 L 880.0 693.8" stroke="#000" stroke-width="2" fill="none" stroke-linecap="round" stroke-linejoin="round" />
<path d="M 931.8 766.7 L 991.3 701.8 L 994.6 700.7 L 998.8 702.0 L 1014.8 714.8" stroke="#000" stroke-width="2" fill="none" stroke-linecap="round" stroke-linejoin="round" />
<path d="M 70.5 1279.3 L 104.4 1291.8" stroke="#000" stroke-width="2" fill="none" stroke-linecap="round" stroke-linejoin="round" />
<path d="M 37.2 1376.1 L 32.5 1402.1 L 31.6 1416.7 L 32.1 1432.1 L 34.4 1450.5 L 38.3 1469.5 L 48.8 1497.4 L 73.9 1554.2" stroke="#000" stroke-width="2" fill="none" stroke-linecap="round" stroke-linejoin="round" />
<path d="M -19.8 1080.8 L -25.8 1067.7 L -34.7 1027.2" stroke="#000" stroke-width="2" fill="none" stroke-linecap="round" stroke-linejoin="round" />
<path d="M 23.4 1057.3 L 5.1 967.4" stroke="#000" stroke-width="2" fill="none" stroke-linecap="round" stroke-linejoin="round" />
<path d="M -53.1 1220.5 L -18.7 1203.2 L -3.5 1190.3 L -4.4 1180.1 L -9.7 1167.5" stroke="#000" stroke-width="2" fill="none" stroke-linecap="round" stroke-linejoin="round" />
<path d="M -107.9 916.0 L -112.2 931.6 L -113.7 941.6 L -117.3 969.3" stroke="#000" stroke-width="2" fill="none" stroke-linecap="round" stroke-linejoin="round" />
<path d="M 195.3 746.3 L 195.7 784.5 L 196.7 787.0 L 199.1 788.0 L 213.0 788.3" stroke="#000" stroke-width="2" fill="none" stroke-linecap="round" stroke-linejoin="round" />
      

      

    </g>
    <clipPath id="frame-clip">
      <rect x="94" y="94" width="2152" height="1216"/>
    </clipPath>
    
    <linearGradient id="fadeL" x1="0" y1="0" x2="1" y2="0">
      <stop offset="0" stop-color="#000"/><stop offset="1" stop-color="#000" stop-opacity="0"/>
    </linearGradient>
    <linearGradient id="fadeR" x1="1" y1="0" x2="0" y2="0">
      <stop offset="0" stop-color="#000"/><stop offset="1" stop-color="#000" stop-opacity="0"/>
    </linearGradient>
    <linearGradient id="fadeT" x1="0" y1="0" x2="0" y2="1">
      <stop offset="0" stop-color="#000"/><stop offset="1" stop-color="#000" stop-opacity="0"/>
    </linearGradient>
    <linearGradient id="fadeB" x1="0" y1="1" x2="0" y2="0">
      <stop offset="0" stop-color="#000"/><stop offset="1" stop-color="#000" stop-opacity="0"/>
    </linearGradient>
    <mask id="edge-fade" maskUnits="userSpaceOnUse" x="0" y="0" width="2340" height="1404">
      <rect width="2340" height="1404" fill="#fff"/>
      <rect x="0" y="0" width="94" height="1404" fill="url(#fadeL)"/>
      <rect x="2246" y="0" width="94" height="1404" fill="url(#fadeR)"/>
      <rect x="0" y="0" width="2340" height="94" fill="url(#fadeT)"/>
      <rect x="0" y="1310" width="2340" height="94" fill="url(#fadeB)"/>
      <rect x="94" y="94" width="2152" height="1216" fill="#000"/>
    </mask>
  </defs>
  <rect width="100%" height="100%" fill="#fff"/>
  <g mask="url(#edge-fade)">
    <use xlink:href="#mapart" href="#mapart"/>
  </g>
  <g clip-path="url(#frame-clip)">
    <use xlink:href="#mapart" href="#mapart"/>
    
    <g stroke="#000" fill="none" stroke-width="2.9952">
      <circle cx="1170" cy="702" r="16.848" fill="#fff" fill-opacity="0.7"/>
      <circle cx="1170" cy="702" r="3.744" fill="#000" stroke="none"/>
    </g>
  </g>
  
    <g transform="translate(2206, 154)" stroke="#000" stroke-width="2.2464" fill="#000">
      <line x1="0" y1="37.44" x2="0" y2="-37.44"/>
      <path d="M 0 -37.44 L 13.104 -13.104 L 0 -22.464 L -13.104 -13.104 Z"/>
      <text x="0" y="59.44" text-anchor="middle" font-family="Georgia, serif" font-size="22.464000000000002">N</text>
    </g>
  
    <g stroke="#000" stroke-width="2.2464" fill="#000" font-family="Georgia, serif">
      <line x1="134" y1="1270" x2="329" y2="1270"/>
      <line x1="134" y1="1263" x2="134" y2="1277"/>
      <line x1="231.5" y1="1266" x2="231.5" y2="1274"/>
      <line x1="329" y1="1263" x2="329" y2="1277"/>
      <text x="231.5" y="1256" text-anchor="middle" font-size="20.592" stroke="none">250 m</text>
    </g>
  <rect x="94" y="94" width="2152" height="1216" fill="none" stroke="#000" stroke-width="2" stroke-opacity="0.7"/>
  <rect x="102" y="102" width="2136" height="1200" fill="none" stroke="#000" stroke-width="1" stroke-opacity="0.4"/>
  
</svg>