<svg xmlns="http://www.w3.org/2000/svg" width="1872" height="1404" viewBox="0 0 1872 1404">
  <defs>
    <radialGradient id="vignette" cx="50%" cy="50%" r="954.72" gradientUnits="userSpaceOnUse">
      <stop offset="55%" stop-color="#fff" stop-opacity="0"/>
      <stop offset="100%" stop-color="#fff" stop-opacity="1"/>
    </radialGradient>
    <pattern id="hatch" patternUnits="userSpaceOnUse" width="9" height="9" patternTransform="rotate(45)">
      <line x1="0" y1="0" x2="0" y2="9" stroke="#000" stroke-width="0.9" stroke-opacity="0.4"/>
    </pattern>
  </defs>
  <rect width="100%" height="100%" fill="#fff"/>
  
  <path d="M 790.9 110.8 L 794.3 114.7 L 810.8 142.7 L 822.3 157.1 L 831.1 163.2 L 840.5 167.3 L 849.7 170.3 L 850.8 168.7 L 849.1 103.5 L 819.5 107.0 L 820.1 111.0 L 819.1 114.6 L 817.4 116.8 L 815.1 118.4 L 811.8 119.3 L 809.5 119.2 L 807.6 118.6 L 805.4 117.4 L 803.9 115.8 L 802.3 112.3 L 802.1 108.9 L 790.9 110.8 Z" fill="url(#hatch)" stroke="#000" stroke-width="0.8" stroke-opacity="0.5"/>
<path d="M 964.0 318.1 L 866.7 337.1 L 887.9 408.8 L 908.6 428.9 L 929.5 457.3 L 924.6 516.6 L 963.6 518.3 L 963.9 535.5 L 1065.8 572.7 L 1231.8 569.6 L 1234.8 522.5 L 1215.1 535.8 L 1205.3 515.7 L 1204.3 489.3 L 1233.6 493.7 L 1234.8 487.4 L 1236.2 478.6 L 1254.0 480.0 L 1282.5 481.4 L 1300.4 465.7 L 1313.1 443.8 L 1369.5 468.3 L 1404.4 436.4 L 1401.0 424.2 L 1395.9 415.3 L 1403.9 410.7 L 1402.3 400.0 L 1403.7 367.9 L 1413.8 368.4 L 1412.5 302.0 L 1303.7 292.7 L 1301.5 316.6 L 1286.2 315.7 L 1283.6 357.7 L 1235.5 368.2 L 1194.6 360.1 L 1192.8 345.6 L 1179.0 322.1 L 1138.7 293.7 L 1091.6 280.8 L 1029.6 321.7 L 964.0 318.1 Z" fill="url(#hatch)" stroke="#000" stroke-width="0.8" stroke-opacity="0.5"/>
  <path d="M -5260.7 -392.6 L -5203.2 -376.2 L -5137.0 -351.2 L -5075.7 -321.3 L -5037.2 -289.1 L -5009.3 -268.1 L -4975.3 -254.5 L -4890.9 -230.1 L -4819.6 -209.7 L -4788.0 -193.1 L -4749.3 -175.8 L -4716.5 -168.1 L -4661.7 -156.1 L -4622.9 -142.4 L -4600.6 -138.2 L -4580.4 -131.2 L -4510.8 -109.9 L -4454.6 -92.6 L -4429.3 -80.3 L -4383.5 -47.0 L -4362.1 -34.9 L -4334.1 -26.2 L -4301.9 -23.8 L -4284.5 -29.9 L -4274.2 -39.1 L -4264.2 -56.8 L -4246.6 -68.9 L -4232.0 -67.4 L -4209.6 -56.8 L -4191.0 -34.6 L -4174.9 -11.6 L -4154.2 10.1 L -4096.7 64.0 L -4054.1 110.4 L -4013.6 137.4 L -3988.4 158.7 L -3990.0 173.9 L -4004.1 188.1 L -4008.7 210.1 L -3991.6 250.6 L -3952.5 270.1 L -3930.5 269.3 L -3821.9 239.2 L -3768.5 230.8 L -3738.6 227.8 L -3716.6 227.4 L -3685.5 228.3 L -3665.7 232.0 L -3648.8 238.2 L -3629.6 249.6 L -3613.2 260.3 L -3592.8 278.8 L -3557.9 318.4 L -3525.7 343.6 L -3499.2 355.7 L -3444.5 373.1 L -3396.0 386.6 L -3364.6 397.8 L -3327.4 416.5 L -3289.8 437.8 L -3249.0 456.8 L -3211.4 473.6 L -3185.7 487.3 L -3157.3 495.7 L -3038.3 515.8 L -2989.9 522.8 L -2953.4 523.0 L -2930.0 522.6 L -2912.3 524.7 L -2900.5 534.2 L -2881.9 546.4 L -2870.8 552.6 L -2847.4 565.1 L -2825.4 575.6 L -2805.9 582.2 L -2779.3 582.2 L -2763.7 580.8 L -2750.5 580.9 L -2738.6 583.9 L -2722.0 601.0 L -2706.4 614.3 L -2672.2 635.8 L -2640.3 647.2 L -2614.5 651.9 L -2584.2 649.8 L -2546.1 641.4 L -2519.8 629.0 L -2491.8 623.9 L -2467.2 622.4 L -2441.7 627.3 L -2424.8 637.8 L -2399.8 655.1 L -2381.0 667.4 L -2347.6 682.2 L -2317.7 686.5 L -2275.6 684.8 L -2223.1 679.1 L -2186.9 678.5 L -2158.9 683.4 L -2118.2 703.1 L -2094.6 712.4 L -2073.2 714.5 L -2037.5 714.4 L -2017.8 710.0 L -1993.1 702.8 L -1973.9 696.6 L -1956.4 692.6 L -1935.4 691.9 L -1902.9 699.6 L -1870.7 711.5 L -1803.6 740.3 L -1796.6 743.4 L -1740.5 759.7 L -1718.7 763.7 L -1665.8 761.8 L -1609.0 755.3 L -1591.4 749.5 L -1545.4 730.5 L -1485.1 694.6 L -1447.6 673.7 L -1414.6 662.6 L -1340.2 648.2 L -1279.6 650.1 L -1267.1 654.1 L -1253.2 654.5 L -1235.8 649.8 L -1223.0 646.8 L -1203.3 649.8 L -1184.3 656.3 L -1166.7 665.8 L -1087.3 706.2 L -916.8 810.3 L -845.9 852.7 L -776.6 882.7 L -716.4 911.1 L -663.2 924.3 L -618.5 923.4 L -598.9 917.6 L -566.3 887.7 L -553.3 883.8 L -540.4 882.7 L -528.3 884.5 L -458.2 906.7 L -408.3 919.2 L -285.5 931.2 L -248.2 933.9 L -172.4 913.9 L -138.7 904.5 L -118.0 894.2 L -104.0 885.4 L -86.5 879.1 L -64.6 874.2 L -24.2 872.6 L -6.1 877.3 L 17.6 896.2 L 25.4 899.9 L 41.0 898.0 L 64.2 891.6 L 104.6 884.8 L 127.7 882.9 L 163.7 874.6 L 182.1 864.1 L 209.4 854.4 L 231.6 853.0 L 268.1 846.6 L 321.4 845.6 L 350.2 849.1 L 384.6 840.8 L 508.3 774.2 L 528.8 767.6 L 562.8 761.2 L 633.5 760.7 L 679.1 767.1 L 746.7 783.7 L 785.0 791.8 L 840.8 800.5 L 900.9 823.1 L 968.9 837.3 L 1032.4 844.0 L 1340.6 908.7 L 1385.2 914.4 L 1414.7 911.7 L 1467.2 898.0 L 1525.9 881.7 L 1584.6 848.5 L 1639.8 829.9 L 1777.9 800.6 L 1808.0 793.6 L 1832.3 781.1 L 1847.9 766.4 L 1852.6 758.7 L 1855.9 750.6 L 1862.5 744.3 L 1872.7 737.6 L 1886.0 731.7 L 1903.6 727.4 L 1923.0 726.0 L 1995.6 703.8 L 2073.1 678.2 L 2142.0 656.6 L 2183.2 636.8 L 2223.7 617.3 L 2348.6 567.1 L 2428.1 537.3 L 2479.5 522.8 L 2557.7 495.3 L 2656.2 457.2 L 2804.2 398.1 L 2938.7 357.0 L 2981.3 347.2 L 3005.7 343.0 L 3028.9 334.2 L 3056.5 318.4 L 3086.7 282.3 L 3118.5 268.8 L 3153.0 235.6 L 3176.4 218.8 L 3195.7 202.7 L 3223.1 179.1 L 3255.3 157.8 L 3305.7 116.2 L 3391.9 38.3 L 3475.0 -35.2 L 3514.0 -66.2 L 3547.2 -84.8 L 3580.0 -91.2 L 3581.9 -91.8 L 3640.3 -110.0 L 3703.9 -147.5 L 3803.3 -244.7 L 3831.2 -279.6 L 3854.1 -292.1 L 3884.4 -298.7 L 3917.8 -298.3 L 3983.6 -301.3 L 4049.4 -312.6 L 4105.6 -321.4 L 4166.1 -334.0 L 4224.9 -359.5 L 4303.2 -358.1 L 4350.5 -366.5 L 4424.6 -389.4 L 4494.8 -410.6 L 4528.4 -422.0 L 4541.0 -429.4 L 4553.6 -438.3 L 4560.4 -446.3 L 4565.1 -455.0 L 4568.6 -459.0 L 4573.1 -473.7 L 4581.1 -498.8 L 4588.9 -523.5 L 4600.3 -536.6 L 4613.7 -544.6 L 4625.3 -548.2 L 4639.8 -550.5 L 4654.2 -552.1 L 4663.4 -556.3 L 4671.5 -561.6 L 4678.7 -571.0 L 4682.9 -584.4 L 4684.6 -610.2 L 4687.2 -621.5 L 4690.1 -629.1 L 4697.1 -636.7 L 4707.6 -640.3 L 4744.3 -647.8 L 4776.9 -656.9 L 4809.4 -669.4 L 4824.5 -671.8 L 4843.9 -672.0 L 4863.9 -668.9 L 4884.5 -662.5 L 4904.5 -655.0 L 4931.7 -652.3 L 4941.6 -653.3 L 4964.7 -645.0 L 5006.4 -631.0 L 5039.7 -619.3 L 5057.7 -613.3 L 5074.7 -614.1 L 5097.4 -619.5 L 5166.1 -642.5 L 5231.2 -673.9 L 5241.2 -677.8 L 5255.7 -680.3 L 5273.7 -681.4 L 5291.5 -679.7 L 5302.9 -680.8 L 5320.2 -686.7 L 5345.2 -693.5 L 5373.0 -702.8 L 5396.4 -705.9 L 5418.6 -706.7 L 5447.0 -702.8 L 5475.9 -698.4 L 5512.0 -693.0 L 5532.9 -692.8 L 5550.1 -695.0 L 5576.8 -701.7 L 5593.2 -705.0 L 5610.2 -708.6 L 5621.6 -709.2 L 5633.5 -706.4 L 5644.2 -699.6 L 5713.1 -636.9 L 5747.7 -608.1 L 5763.4 -594.4 L 5776.7 -581.3 L 5792.9 -563.5 L 5808.7 -544.6 L 5827.6 -520.2 L 5842.5 -497.8 L 5851.5 -481.0 L 5861.5 -469.0 L 5877.4 -450.7 L 5900.7 -424.6 L 5916.1 -400.3 L 5921.6 -391.2 L 5931.0 -380.6 L 5954.1 -363.7 L 5980.0 -347.3 L 6000.1 -336.6 L 6020.9 -321.1 L 6051.7 -297.8 L 6093.1 -259.2 L 6127.6 -234.1 L 6149.9 -227.7 L 6162.4 -221.3 L 6173.5 -211.9 L 6182.9 -199.7 L 6189.3 -187.1 L 6196.0 -174.0 L 6203.0 -168.5 L 6216.6 -164.9 L 6244.7 -165.2 L 6288.9 -175.2 L 6313.9 -179.6 L 6332.3 -181.6 L 6351.1 -181.9 L 6376.5 -181.9 L 6397.6 -179.9 L 6421.0 -173.5 L 6439.9 -165.2 L 6455.7 -155.4 L 6470.2 -149.3 L 6483.5 -145.2 L 6495.8 -142.9 L 6512.4 -142.9 L 6535.8 -146.0 L 6549.7 -152.9 L 6560.5 -156.3 L 6576.4 -158.2 L 6595.8 -156.8 L 6608.9 -151.0 L 6623.7 -147.9 L 6643.7 -145.4 L 6680.9 -143.5 L 6713.4 -138.7 L 6731.5 -133.5 L 6748.8 -127.4 L 6766.8 -116.8 L 6781.0 -105.7 L 6799.4 -87.6 L 6809.9 -83.7 L 6825.9 -75.2 L 6850.0 -67.4 L 6871.3 -63.3 L 6881.9 -64.6 L 6889.4 -65.4 L 6898.1 -69.3 L 6910.4 -72.8 L 6925.7 -76.2 L 6943.5 -71.0 L 6959.5 -62.8 L 6975.1 -50.4 L 6988.0 -39.0 L 6993.2 -32.7 L 7001.5 -28.7 L 7042.1 -26.5 L 7062.4 -27.6 L 7074.4 -30.1 L 7092.7 -43.1 L 7109.8 -57.0 L 7134.1 -81.2 L 7154.4 -113.2 L 7166.2 -135.7 L 7172.8 -146.8 L 7178.4 -152.1 L 7184.8 -155.7 L 7190.9 -154.9 L 7202.8 -151.8 L 7212.8 -147.9 L 7225.3 -146.8 L 7244.5 -147.4 L 7270.3 -156.4 L 7294.3 -166.9 L 7319.3 -174.6 L 7360.9 -189.5 L 7382.7 -195.2 L 7410.8 -200.9 L 7429.7 -202.7 L 7449.7 -201.9 L 7469.8 -202.3 L 7493.4 -199.1 L 7528.1 -198.0 L 7545.7 -197.7 L 7566.5 -197.2 L 7582.9 -193.8 L 7592.9 -186.0 L 7601.2 -174.3 L 7608.2 -164.1 L 7620.2 -152.7 L 7631.6 -145.4 L 7654.1 -137.9 L 7686.5 -133.6 L 7721.4 -122.9 L 7736.7 -120.5 L 7748.9 -117.9 L 7759.2 -118.2 L 7768.6 -122.4 L 7777.8 -129.3 L 7789.2 -141.8 L 7801.5 -161.8 L 7811.7 -180.2 L 7822.0 -190.2 L 7834.3 -195.8 L 7843.2 -195.8 L 7892.8 -181.7 L 7960.0 -102.3 L 8140.9 -75.8 L 8227.9 -220.6 L 8273.2 -251.8 L 8322.3 -250.6 L 8335.3 -228.7 L 8330.7 -166.7 L 8319.8 -89.8 L 8358.2 -29.7 L 8461.2 -20.3 L 8554.7 -15.9 L 8637.3 -29.7 L 8667.0 -118.8 L 8662.0 -149.3 L 8600.3 -160.1 L 8532.2 -141.3 L 8458.3 -144.2 L 8427.1 -189.1 L 8417.7 -234.8 L 8426.4 -274.7 L 8440.7 -304.7 L 8463.3 -331.7 L 8499.0 -349.6 L 8531.5 -355.9 L 8555.2 -355.7 L 8569.7 -354.3 L 8580.7 -337.5 L 8602.2 -299.7 L 8626.7 -273.7 L 8652.7 -272.2 L 8691.6 -285.9 L 8733.0 -306.4 L 8772.6 -346.6 L 8870.1 -448.0 L 8919.3 -512.6 L 8951.8 -569.9 L 8985.5 -639.4 L 9012.1 -656.3 L 9041.5 -661.9 L 9066.7 -675.7 L 9111.8 -725.0 L 9152.5 -785.2 L 9185.5 -808.3 L 9216.3 -813.9 L 9260.6 -807.7 L 9304.4 -795.2 L 9330.8 -785.9 L 9350.6 -765.7 L 9357.7 -737.6 L 9359.3 -691.1 L 9369.4 -666.6 L 9385.8 -651.9 L 9408.4 -645.6 L 9438.1 -650.9 L 9468.9 -678.7 L 9497.3 -713.5 L 9554.6 -751.0 L 9687.8 -812.6 L 9798.2 -904.4 L 9827.9 -946.5 L 9844.2 -987.4 L 9853.3 -1026.5 L 9860.4 -1063.9 L 9854.1 -1101.0 L 9844.5 -1126.1 L 9842.9 -1156.0 L 9847.4 -1185.6 L 9863.2 -1211.8 L 9878.8 -1231.4 L 9894.4 -1238.5 L 9913.9 -1241.8 L 9940.9 -1231.6 L 9982.3 -1215.7 L 10022.5 -1207.6 L 10071.7 -1197.5 L 10106.3 -1190.7 L 10142.5 -1188.3 L 10156.7 -1195.1 L 10165.0 -1212.0 L 10183.7 -1267.1 L 10196.4 -1292.5 L 10218.2 -1334.1 L 10250.0 -1399.7 L 10275.9 -1456.5 L 10305.1 -1535.2 L 10323.9 -1559.1 L 10344.6 -1581.9 L 10358.9 -1592.5 L 10375.9 -1599.7 L 10400.0 -1601.8 L 10434.4 -1599.8 L 10454.8 -1599.3 L 10467.6 -1602.0 L 10479.9 -1625.8 L 10482.9 -1650.7 L 10489.4 -1712.7 L 10479.8 -1744.8 L 10456.4 -1761.8 L 10431.2 -1790.1 L 10404.8 -1808.6 L 10354.3 -1819.1 L 10319.3 -1817.7 L 10298.3 -1821.9 L 10277.0 -1838.3 L 10263.8 -1863.3 L 10252.2 -1903.7 L 10249.3 -1929.7 L 10251.0 -1950.7 L 10258.7 -1991.6 L 10255.7 -2017.9 L 10243.9 -2041.3 L 10212.4 -2067.0 L 10159.9 -2106.1 L 10144.4 -2133.0 L 10141.7 -2152.5 L 10148.4 -2169.9 L 10168.5 -2188.8 L 10200.1 -2199.7 L 10228.1 -2221.4 L 10251.5 -2247.4 L 10262.7 -2271.1 L 10266.8 -2299.7 L 10260.6 -2322.2 L 10258.1 -2337.7 L 10263.4 -2366.3 L 10280.8 -2423.6 L 10297.5 -2477.0 L 10301.1 -2509.0 L 10296.7 -2530.1 L 10272.8 -2574.3 L 10256.4 -2574.3 L 10237.6 -2567.0 L 10223.2 -2599.3 L 10223.6 -2638.9 L 10209.7 -2711.4 L 10211.4 -2783.4 L 10235.4 -2856.5 L 10248.8 -2895.3 L 10258.8 -2923.4 L 10263.9 -2945.5 L 10260.2 -2985.0 L 10255.8 -3003.7 L 10235.7 -3008.8 L 10211.3 -3023.8 L 10199.2 -3103.8 L 10194.2 -3128.2 L 10182.1 -3161.4 L 10163.4 -3192.8 L 10134.2 -3234.3 L 10102.4 -3259.1 L 10054.9 -3272.1 L 9996.6 -3251.4 L 9979.2 -3271.1 L 9972.0 -3302.4 L 9961.5 -3340.4 L 9948.2 -3378.3 L 9936.1 -3405.0 L 9919.7 -3449.6 L 9896.9 -3486.6 L 9873.9 -3518.3 L 9828.1 -3549.8 L 9766.7 -3558.4 L 9746.2 -3555.1 L 9733.9 -3544.1 L 9738.0 -3526.5 L 9748.7 -3497.1 L 9748.4 -3463.1 L 9730.2 -3452.1 L 9709.4 -3446.7 L 9673.8 -3461.1 L 9619.7 -3507.7 L 9585.7 -3571.1 L 9560.8 -3629.2 L 9533.8 -3671.7 L 9514.9 -3696.2 L 9476.9 -3730.2 L 9441.7 -3744.1 L 9404.8 -3737.1 L 9376.6 -3735.5 L 9341.0 -3750.6 L 9325.8 -3774.4 L 9304.9 -3809.1 L 9293.5 -3841.8 L 9292.3 -3879.1 L 9291.0 -3932.6 L 9277.9 -3974.3 L 9259.9 -3998.9 L 9218.6 -4026.3 L 9203.0 -4059.4 L 9193.6 -4109.3 L 9177.6 -4139.2 L 9132.6 -4171.9 L 9096.2 -4208.7 L 9085.5 -4232.8 L 9078.6 -4256.5 L 9088.8 -4303.6 L 9124.6 -4356.6 L 9138.3 -4420.5 L 9142.9 -4466.9 L 9116.6 -4535.5 L 9096.6 -4590.2 L 9093.3 -4629.6 L 9098.6 -4653.6 L 9102.9 -4670.8 L 9112.2 -4683.0 L 9134.9 -4703.4 L 9159.9 -4710.3 L 9192.8 -4737.4 L 9218.4 -4749.4 L 9256.3 -4758.3 L 9277.5 -4767.3 L 9291.4 -4783.0 L 9288.2 -4810.5 L 9291.5 -4829.9 L 9308.8 -4851.3 L 9332.6 -4868.2 L 9337.1 -4891.8 L 9331.4 -4908.8 L 9309.6 -4906.5 L 9268.1 -4919.4 L 9233.3 -4939.4 L 9210.8 -4981.1 L 9211.6 -5009.4 L 9239.4 -5032.3 L 9268.5 -5058.0 L 9268.5 -5076.0 L 9243.9 -5126.7 L 9251.3 -5164.3 L 9265.2 -5186.0 L 9294.7 -5193.8 L 9322.1 -5184.4 L 9343.4 -5169.6 L 9384.4 -5172.5 L 9407.7 -5199.1 L 9434.7 -5233.0 L 9463.8 -5255.1 L 9463.8 -5296.0 L 9480.1 -5333.2 L 9498.6 -5347.9 L 9530.9 -5379.0 L 9541.9 -5431.7 L 9559.5 -5480.0 L 9549.3 -5533.1 L 9525.2 -5573.2 L 9503.5 -5598.1 L 9490.8 -5628.8 L 9492.8 -5653.7 L 9509.6 -5667.6 L 9526.0 -5688.5 L 9539.1 -5708.5 L 9565.3 -5722.0 L 9590.3 -5730.2 L 9617.3 -5709.3 L 9636.1 -5686.8 L 9648.0 -5659.0 L 9649.6 -5639.4 L 9623.0 -5616.1 L 9591.1 -5589.5 L 9591.1 -5565.0 L 9608.7 -5544.1 L 9634.5 -5538.8 L 9662.3 -5551.1 L 9679.1 -5567.0 L 9714.7 -5576.4 L 9738.0 -5591.6 L 9754.4 -5618.2 L 9758.1 -5669.3 L 9758.9 -5699.5 L 9743.3 -5728.5 L 9735.6 -5752.7 L 9745.4 -5774.7 L 9756.0 -5790.7 L 9740.1 -5818.1 L 9721.7 -5865.1 L 9708.6 -5911.7 L 9709.4 -5953.0 L 9724.1 -5995.5 L 9751.5 -6021.2 L 9830.6 -6065.9 L 9847.0 -6094.3 L 9838.4 -6144.8 L 9812.1 -6190.3 L 9771.5 -6228.8 L 9753.6 -6285.7 L 9747.9 -6316.3 L 9730.9 -6329.1 L 9703.1 -6341.2 L 9696.7 -6360.4 L 9712.3 -6385.3 L 9769.6 -6409.0 L 9798.9 -6413.5 L 9837.6 -6412.0 L 9877.8 -6403.9 L 9945.6 -6385.6 L 9979.8 -6372.0 L 10008.0 -6352.9 L 10030.5 -6331.7 L 10051.4 -6313.2 L 10069.5 -6313.6 L 10122.6 -6326.9 L 10150.4 -6343.3 L 10169.7 -6362.5 L 10181.8 -6381.0 L 10178.9 -6415.1 L 10141.9 -6484.9 L 10118.2 -6514.5 L 10109.0 -6531.9 L 10105.5 -6545.2 L 10110.7 -6559.8 L 10127.6 -6582.3 L 10151.1 -6605.8 L 10191.3 -6608.9 L 10217.3 -6591.6 L 10266.1 -6551.1 L 10297.1 -6513.8 L 10325.8 -6494.2 L 10358.7 -6479.6 L 10408.8 -6474.6 L 10447.1 -6494.2 L 10459.4 -6517.9 L 10462.6 -6570.7 L 10452.6 -6621.7 L 10462.6 -6648.5 L 10512.3 -6676.3 L 10595.3 -6690.4 L 10668.7 -6691.8 L 10744.8 -6686.8 L 10787.7 -6676.3 L 10841.9 -6646.3 L 10901.6 -6631.3 L 10956.4 -6637.2 L 10986.9 -6655.8 L 10992.8 -6674.5 L 10993.3 -6707.7 L 10950.4 -6753.3 L 10935.8 -6789.2 L 10944.0 -6819.3 L 10964.6 -6837.5 L 11038.4 -6848.9 L 11104.5 -6842.9 L 11151.9 -6826.6 L 11255.0 -6791.5 L 11306.9 -6738.7 L 11341.6 -6710.9 L 11390.8 -6712.3 L 11441.4 -6719.1 L 11469.2 -6704.1 L 11500.7 -6669.5 L 11547.2 -6643.1 L 11596.0 -6648.1 L 11642.0 -6665.9 L 11679.4 -6697.7 L 11695.4 -6727.3 L 11694.9 -6778.3 L 11670.3 -6832.0 L 11684.4 -6876.2 L 11715.0 -6900.8 L 11773.8 -6906.7 L 11864.1 -6909.4 L 11904.2 -6926.2 L 11930.2 -6932.2 L 11963.4 -6938.1 L 12033.2 -7028.2 L 12075.1 -7049.6 L 12109.8 -7065.1 L 12167.2 -7058.3 L 12183.2 -7026.4 L 12200.1 -6989.5 L 12245.7 -6966.3 L 12273.0 -6950.4 L 12276.7 -6931.7 L 12267.5 -6889.8 L 12255.7 -6874.1 L 12253.8 -6849.8 L 12251.2 -6824.5 L 12265.0 -6801.7 L 12307.3 -6752.7 L 12332.8 -6709.2 L 12359.0 -6684.2 L 12377.3 -6674.9 L 12401.6 -6674.5 L 12421.9 -6682.5 L 12439.6 -6698.7 L 12443.9 -6719.0 L 12463.1 -6745.2 L 12465.3 -6767.1 L 12459.1 -6781.7 L 12447.4 -6816.5 L 12441.0 -6846.2 L 12446.7 -6863.9 L 12454.0 -6877.1 L 12462.6 -6896.2 L 12477.2 -6907.2 L 12499.5 -6913.4 L 12527.0 -6915.8 L 12569.8 -6901.4 L 12591.9 -6881.7 L 12611.0 -6850.4 L 12636.8 -6807.5 L 12680.9 -6777.6 L 12753.5 -6738.7 L 12803.7 -6710.9 L 12824.5 -6701.2 L 12849.2 -6697.8 L 12886.9 -6710.8 L 12917.0 -6727.0 L 12934.1 -6742.3 L 12941.3 -6753.4 L 12941.8 -6782.7 L 12945.4 -6801.7 L 12954.0 -6818.6 L 12974.2 -6861.7 L 13019.8 -6890.3 L 13142.4 -6924.0 L 13240.0 -6918.1 L 13303.4 -6929.4 L 13369.5 -6914.0 L 13439.2 -6903.9 L 13580.5 -6871.2 L 13677.2 -6856.6 L 13745.1 -6861.6 L 13809.0 -6880.3 L 13876.0 -6914.0 L 13957.6 -6915.8 L 14000.0 -6909.4 L 14046.0 -6881.6 L 14086.3 -6834.6 L 14124.8 -6787.5 L 14179.6 -6744.4 L 14223.3 -6713.0 L 14257.6 -6681.3 L 14287.2 -6673.6 L 14360.6 -6625.8 L 14419.4 -6613.5 L 14580.6 -6581.8 L 14707.5 -6570.7 L 14768.7 -6545.1 L 14814.3 -6510.7 L 14862.1 -6465.9 L 14934.5 -6403.5 L 14982.0 -6338.4 L 14984.7 -6290.6 L 14978.8 -6240.6 L 14966.5 -6199.1 L 14969.6 -6156.3 L 14987.9 -6131.3 L 15026.6 -6107.6 L 15065.4 -6108.5 L 15121.9 -6136.3 L 15151.1 -6141.8 L 15176.6 -6127.2 L 15192.6 -6105.3 L 15236.9 -6063.6 L 15270.2 -6053.2 L 15299.3 -6030.4 L 15320.0 -5990.1 L 15346.6 -5953.1 L 15363.3 -5931.4 L 15388.6 -5909.6 L 15428.7 -5900.8 L 15470.7 -5892.9 L 15522.0 -5879.8 L 15568.2 -5864.5 L 15624.2 -5841.6 L 15672.2 -5818.3 L 15726.8 -5808.5 L 15791.2 -5790.4 L 15836.0 -5787.6 L 15895.3 -5800.6 L 15928.4 -5821.1 L 16010.5 -5825.3 L 16046.0 -5808.1 L 16132.3 -5817.9 L 16170.1 -5826.2 L 16223.3 -5818.8 L 16267.1 -5789.4 L 16316.1 -5749.8 L 16349.7 -5712.5 L 16378.6 -5677.1 L 16398.2 -5670.8 L 16437.4 -5662.2 L 16586.4 -5725.9 L 16645.1 -5749.2 L 16679.7 -5754.7 L 16722.2 -5762.5 L 16771.9 -5766.3 L 16829.2 -5769.3 L 16872.2 -5806.7 L 16895.1 -5848.0 L 16916.6 -5855.3 L 16973.8 -5832.1 L 17043.1 -5830.8 L 17109.4 -5858.7 L 17152.1 -5892.3 L 17195.1 -5908.2 L 17244.2 -5908.2 L 17313.1 -5894.8 L 17374.2 -5871.6 L 17458.2 -5828.6 L 17504.2 -5787.8 L 17523.2 -5751.7 L 17581.3 -5731.4 L 17665.2 -5717.3 L 17681.6 -5699.2 L 17722.9 -5680.3 L 17734.2 -5665.7 L 17784.3 -5641.3 L 17921.4 -5621.0 L 17956.3 -5621.7 L 17991.0 -5601.9 L 18008.8 -5605.0 L 18064.8 -5614.9 L 18136.2 -5670.0 L 18169.4 -5691.5 L 18240.4 -5685.4 L 18306.3 -5684.6 L 18354.9 -5688.4 L 18397.1 -5702.3 L 18456.9 -5730.0 L 18485.9 -5735.1 L 18525.5 -5756.1 L 18556.2 -5787.2 L 18571.7 -5835.9 L 18554.9 -5870.8 L 18538.9 -5891.4 L 18543.1 -5919.1 L 18579.7 -5914.5 L 18631.0 -5909.4 L 18658.8 -5936.7 L 18684.5 -5985.0 L 18695.0 -6048.5 L 18710.6 -6083.8 L 18735.4 -6099.3 L 18752.2 -6087.1 L 18766.5 -6057.7 L 18770.7 -6029.2 L 18770.3 -5969.1 L 18785.9 -5933.8 L 18779.5 -5902.3 L 18776.2 -5862.0 L 18775.3 -5806.5 L 18764.4 -5765.7 L 18775.3 -5736.3 L 18801.4 -5701.4 L 18852.7 -5688.0 L 18887.2 -5693.0 L 18915.4 -5724.6 L 18938.1 -5749.8 L 18951.6 -5742.6 L 18960.9 -5717.8 L 18982.3 -5706.1 L 18991.6 -5724.6 L 19013.9 -5760.7 L 19041.6 -5780.4 L 19054.7 -5802.7 L 19057.2 -5831.3 L 19043.3 -5868.0 L 18990.5 -5930.5 L 18961.6 -5936.9 L 18948.2 -5969.6 L 18942.4 -6014.5 L 18957.1 -6047.9 L 19005.3 -6072.3 L 19045.1 -6054.9 L 19076.0 -6022.9 L 19106.2 -5972.2 L 19147.9 -5945.9 L 19196.1 -5953.6 L 19266.1 -5986.3 L 19323.9 -6003.6 L 19355.4 -6067.1 L 19379.1 -6128.1 L 19435.0 -6166.5 L 19489.0 -6167.2 L 19534.6 -6171.7 L 19568.6 -6207.6 L 19611.0 -6264.1 L 19626.4 -6323.7 L 19656.6 -6339.7 L 19685.5 -6383.4 L 19666.3 -6410.3 L 19643.1 -6417.3 L 19626.4 -6448.8 L 19601.4 -6459.7 L 19589.8 -6483.4 L 19598.2 -6536.0 L 19627.1 -6569.4 L 19681.7 -6597.6 L 19754.9 -6570.0 L 19844.8 -6546.9 L 19906.5 -6543.7 L 19940.5 -6560.4 L 20039.4 -6628.4 L 20102.4 -6634.8 L 20161.5 -6650.8 L 20242.4 -6712.4 L 20286.7 -6722.0 L 20344.5 -6678.4 L 20383.1 -6693.8 L 20426.7 -6729.7 L 20461.2 -6725.3 L 20553.3 -6713.7 L 20624.6 -6731.6 L 20697.8 -6782.3 L 20909.8 -6829.8 L 21036.3 -6824.6 L 21140.3 -6815.0 L 21219.4 -6838.7 L 21271.4 -6769.5 L 21382.5 -6772.0 L 21444.2 -6774.0 L 21528.9 -6739.3 L 21611.2 -6691.9 L 21659.3 -6575.8 L 21785.9 -6494.3 L 21947.7 -6394.9 L 22157.1 -6284.6 L 22257.3 -6255.1 L 22351.1 -6253.8 L 22434.0 -6286.5 L 22556.0 -6289.7 L 22635.6 -6256.3 L 22696.7 -6182.6 L 22760.9 -6092.1 L 22886.1 -6044.0 L 22991.5 -6071.0 L 23118.0 -6119.1 L 23221.4 -6165.9 L 23350.5 -6174.9 L 23468.8 -6167.9 L 23583.7 -6151.2 L 23714.1 -6112.0 L 23777.0 -6058.8 L 23847.0 -6001.1 L 23905.5 -6019.7 L 24030.7 -6046.0 L 24143.1 -6089.6 L 24217.0 -6157.6 L 24309.5 -6197.3 L 24402.0 -6197.3 L 24499.6 -6165.3 L 24550.4 -6148.6 L 24610.7 -6169.1 L 24676.3 -6200.5 L 24712.2 -6244.8 L 24722.5 -6313.4 L 24770.0 -6328.2 L 24800.9 -6316.0 L 24851.0 -6240.3 L 24910.0 -6141.5 L 24935.1 -6087.6 L 24988.8 -6107.8 L 25003.6 -6159.0 L 25074.8 -6150.2 L 25143.1 -6088.0 L 25175.4 -6137.0 L 25224.2 -6162.9 L 25262.3 -6209.8 L 25197.6 -6262.4 L 25198.1 -6350.8 L 25259.8 -6395.8 L 25313.8 -6428.4 L 25384.8 -6424.0 L 25427.4 -6405.8 L 25484.5 -6387.6 L 25522.8 -6365.1 L 25542.9 -6296.8 L 25540.4 -6259.8 L 25558.6 -6248.5 L 25613.2 -6251.6 L 25692.3 -6251.6 L 25762.6 -6296.8 L 25777.7 -6366.9 L 25849.2 -6417.7 L 25867.8 -6479.1 L 25892.3 -6504.9 L 25919.7 -6543.9 L 25919.7 -6591.0 L 25914.0 -6691.2 L 25881.1 -6748.8 L 25869.8 -6784.9 L 25866.7 -6825.4 L 25873.1 -6852.1 L 25890.9 -6883.5 L 25913.2 -6889.0 L 25997.3 -6878.4 L 26085.2 -6845.2 L 26141.3 -6832.0 L 26184.0 -6837.0 L 26207.1 -6884.9 L 26220.1 -6956.3 L 26232.8 -7029.3 L 26197.8 -7071.6 L 26124.7 -7071.1 L 26086.2 -7107.5 L 26097.3 -7162.2 L 26117.2 -7213.6 L 26122.7 -7256.0 L 26117.2 -7298.3 L 26128.9 -7334.8 L 26145.2 -7354.6 L 26216.4 -7386.7 L 26238.4 -7402.3 L 26331.2 -7419.2 L 26368.3 -7408.6 L 26414.7 -7332.1 L 26440.5 -7285.1 L 26542.1 -7195.1 L 26623.4 -7174.3 L 26678.3 -7198.0 L 26711.9 -7259.9 L 26781.8 -7247.5 L 26844.1 -7258.8 L 26914.5 -7336.2 L 26925.1 -7391.2 L 26914.5 -7447.2 L 26915.3 -7455.6 L 27025.4 -7519.4 L 27038.4 -7561.5 L 27030.6 -7695.3 L 27046.9 -7751.0 L 27024.3 -7793.9 L 26947.2 -7790.6 L 26890.8 -7809.5 L 26855.2 -7845.4 L 26835.0 -7912.3 L 26843.7 -8001.3 L 26864.4 -8044.6 L 26901.3 -8092.2 L 26980.6 -8241.6 L 27036.5 -8301.6 L 27109.2 -8347.8 L 27157.4 -8488.2 L 27198.0 -8647.6 L 27313.5 -8752.8 L 27425.0 -8871.1 L 27609.8 -8960.8 L 27744.3 -9019.4 L 27815.6 -9063.6 L 27930.6 -9350.7 L 27970.8 -9418.4 L 28003.9 -9512.1 L 28046.4 -9593.3 L 28108.1 -9659.1 L 28176.5 -9725.6 L 28218.1 -9779.2 L 28236.9 -9848.6 L 28233.2 -9904.3 L 28250.5 -9941.5 L 28291.6 -9956.0 L 28338.0 -9972.7 L 28394.5 -9985.2 L 28431.2 -10018.7 L 28445.7 -10058.2 L 28436.0 -10091.7 L 28412.4 -10112.5 L 28402.5 -10158.4 L 28391.1 -10182.9 L 28410.9 -10206.2 L 28421.6 -10227.7 L 28436.9 -10232.2 L 28453.3 -10228.2 L 28466.8 -10213.9 L 28488.2 -10201.0 L 28527.0 -10198.5 L 28553.5 -10222.3 L 28552.5 -10283.4 L 28530.9 -10318.2 L 28514.7 -10335.6 L 28499.9 -10373.0 L 28499.2 -10402.5 L 28499.2 -10427.7 L 28501.9 -10459.5 L 28535.0 -10478.0 L 28579.4 -10470.6 L 28595.6 -10500.6 L 28610.3 -10527.3 L 28618.5 -10548.0 L 28614.6 -10597.3 L 28622.1 -10628.7 L 28632.0 -10635.9 L 28646.6 -10630.7 L 28684.4 -10631.5 L 28705.7 -10628.9 L 28730.3 -10637.1 L 28762.4 -10647.4 L 28786.7 -10637.3 L 28822.4 -10621.7 L 28859.7 -10605.5 L 28885.4 -10606.2 L 28900.3 -10613.7 L 28896.1 -10655.7 L 28892.7 -10683.8 L 28883.5 -10729.9 L 28867.7 -10760.8 L 28842.5 -10784.9 L 28799.0 -10824.8 L 28777.2 -10867.2 L 28767.6 -10888.4 L 28768.4 -10914.2 L 28775.3 -10952.2 L 28797.9 -11025.6 L 28812.9 -11053.9 L 28841.6 -11073.3 L 28888.2 -11088.5 L 28944.9 -11086.6 L 29000.3 -11090.2 L 29053.4 -11099.2 L 29093.4 -11112.4 L 29121.8 -11128.0 L 29159.5 -11161.8 L 29183.1 -11200.4 L 29199.6 -11240.2 L 29202.2 -11268.7 L 29196.8 -11305.9 L 29166.4 -11366.1 L 29136.4 -11404.8 L 29110.5 -11424.2 L 29083.1 -11435.4 L 29073.7 -11446.5 L 29075.3 -11470.2 L 29092.2 -11487.2 L 29119.9 -11507.2 L 29158.3 -11541.8 L 29194.3 -11582.3 L 29213.1 -11624.6 L 29217.7 -11650.5 L 29205.9 -11682.3 L 29204.9 -11712.0 L 29210.2 -11732.9 L 29238.9 -11768.8 L 29257.2 -11805.1 L 29264.7 -11823.9 L 29270.7 -11839.9 L 29262.0 -11870.3 L 29238.5 -11889.0 L 29221.5 -11896.4 L 29200.7 -11897.4 L 29169.9 -11901.1 L 29149.4 -11897.1 L 29120.0 -11899.1 L 29094.2 -11924.1 L 29065.3 -11990.4 L 29053.2 -12010.5 L 29055.4 -12045.8 L 29050.7 -12065.1 L 29050.7 -12086.5 L 29049.0 -12106.7 L 29046.5 -12129.6 L 29040.5 -12165.9 L 29034.2 -12188.3 L 29027.2 -12200.7 L 29017.2 -12209.7 L 29000.1 -12220.4 L 28981.8 -12225.5 L 28949.8 -12255.5 L 28929.1 -12270.2 L 28919.3 -12285.1 L 28897.5 -12302.4 L 28872.4 -12323.6 L 28845.5 -12340.1 L 28828.7 -12358.4 L 28811.8 -12373.3 L 28795.7 -12388.8 L 28787.9 -12402.9 L 28775.4 -12422.0 L 28768.8 -12442.0 L 28761.9 -12473.2 L 28748.6 -12498.6 L 28746.1 -12503.6 L 28733.6 -12511.8 L 28688.1 -12526.8 L 28649.3 -12539.5 L 28619.1 -12564.6 L 28601.3 -12589.0 L 28578.5 -12616.7 L 28580.5 -12629.3 L 28588.3 -12641.6 L 28613.1 -12651.6 L 28632.5 -12658.3 L 28654.3 -12672.3 L 28673.8 -12691.1 L 28681.3 -12702.4 L 28685.2 -12720.1 L 28681.3 -12731.5 L 28673.6 -12741.2 L 28668.2 -12741.2 L 28652.1 -12754.6 L 28635.1 -12779.3 L 28631.0 -12800.0 L 28638.0 -12833.0 L 28628.3 -12863.8 L 28626.0 -12898.7 L 28633.9 -12936.9 L 28632.7 -12970.8 L 28624.7 -12995.4 L 28616.3 -13011.7 L 28605.9 -13021.8 L 28590.2 -13024.8 L 28577.8 -13014.4 L 28574.7 -12998.5 L 28573.4 -12984.4 L 28562.7 -12975.0 L 28546.0 -12972.3 L 28536.2 -12979.2 L 28530.7 -13008.0 L 28533.8 -13052.8 L 28527.2 -13069.2 L 28512.7 -13083.5 L 28484.3 -13078.3 L 28459.1 -13098.4 L 28449.0 -13115.5 L 28405.7 -13134.6 L 28381.4 -13136.3 L 28365.2 -13129.3 L 28325.4 -13143.6 L 28301.1 -13164.4 L 28295.0 -13188.5 L 28298.1 -13220.2 L 28317.4 -13252.5 L 28341.3 -13265.3 L 28347.1 -13297.9 L 28335.2 -13340.6 L 28313.4 -13349.3 L 28291.8 -13341.0 L 28265.9 -13331.9 L 28247.1 -13331.3 L 28233.7 -13346.8 L 28228.9 -13371.4 L 28252.2 -13410.6 L 28259.7 -13432.9 L 28247.9 -13451.8 L 28233.2 -13456.8 L 28181.6 -13460.7 L 28167.4 -13480.1 L 28166.2 -13500.6 L 28160.1 -13516.4 L 28170.1 -13543.6 L 28196.3 -13570.0 L 28203.7 -13604.5 L 28201.9 -13637.0 L 28212.5 -13729.9 L 28225.2 -13788.5 L 28221.4 -13829.4 L 28198.3 -13885.2 L 28176.3 -13905.8 L 28154.7 -13915.8 L 28126.5 -13945.1 L 28091.4 -13959.4 L 28053.6 -13952.6 L 28020.6 -13964.5 L 28007.0 -13980.6 L 28012.6 -13993.2 L 28033.8 -14015.7 L 28044.7 -14037.7 L 28041.4 -14065.0 L 28026.7 -14083.4 L 28017.2 -14104.4 L 28013.0 -14176.7 L 28015.0 -14211.5 L 28025.9 -14276.2 L 28048.9 -14311.7 L 28045.9 -14343.2 L 28032.2 -14360.1 L 28006.8 -14401.2" stroke="#6e6e6e" stroke-width="4.5" fill="none" stroke-linecap="round" stroke-linejoin="round" />
  
  <path d="M 1054.5 75.8 L 1059.6 153.2 L 1059.7 156.6" stroke="#000" stroke-width="1.1" fill="none" stroke-linecap="round" stroke-linejoin="round" stroke-opacity="0.75"/>
<path d="M 1510.7 561.2 L 1475.8 483.9 L 1473.3 478.3 L 1466.7 470.6 L 1462.0 469.3 L 1444.1 468.5 L 1384.8 467.8 L 1265.9 501.2" stroke="#000" stroke-width="1.1" fill="none" stroke-linecap="round" stroke-linejoin="round" stroke-opacity="0.75"/>
<path d="M 1218.7 274.5 L 1222.2 290.9 L 1215.9 309.2 L 1213.0 339.9" stroke="#000" stroke-width="1.1" fill="none" stroke-linecap="round" stroke-linejoin="round" stroke-opacity="0.75"/>
<path d="M 1155.1 301.6 L 1150.0 294.9 L 1148.9 286.7 L 1154.3 265.8" stroke="#000" stroke-width="1.1" fill="none" stroke-linecap="round" stroke-linejoin="round" stroke-opacity="0.75"/>
<path d="M 1191.1 323.7 L 1192.1 331.2 L 1194.0 338.9 L 1213.0 339.9" stroke="#000" stroke-width="1.1" fill="none" stroke-linecap="round" stroke-linejoin="round" stroke-opacity="0.75"/>
<path d="M 1256.6 336.0 L 1258.6 309.5 L 1285.2 309.8 L 1287.4 281.6" stroke="#000" stroke-width="1.1" fill="none" stroke-linecap="round" stroke-linejoin="round" stroke-opacity="0.75"/>
<path d="M 724.9 707.0 L 684.4 702.2 L 683.8 698.4 L 643.3 698.5 L 643.3 723.6 L 632.5 735.5 L 629.8 744.2" stroke="#000" stroke-width="1.1" fill="none" stroke-linecap="round" stroke-linejoin="round" stroke-opacity="0.75"/>
<path d="M 597.2 741.1 L 596.2 720.3 L 575.8 722.5" stroke="#000" stroke-width="1.1" fill="none" stroke-linecap="round" stroke-linejoin="round" stroke-opacity="0.75"/>
<path d="M 612.1 695.3 L 613.3 716.0 L 630.9 715.9 L 632.5 735.5" stroke="#000" stroke-width="1.1" fill="none" stroke-linecap="round" stroke-linejoin="round" stroke-opacity="0.75"/>
<path d="M 1050.2 1160.6 L 1032.6 1156.8 L 942.5 1156.8" stroke="#000" stroke-width="1.1" fill="none" stroke-linecap="round" stroke-linejoin="round" stroke-opacity="0.75"/>
<path d="M 1051.7 685.6 L 1053.0 675.8 L 1055.1 660.1 L 1057.8 627.2 L 1045.5 626.9 L 1044.2 604.6 L 1005.3 604.8 L 969.4 605.0 L 969.3 577.8 L 1044.0 577.5 L 1046.3 577.5" stroke="#000" stroke-width="1.1" fill="none" stroke-linecap="round" stroke-linejoin="round" stroke-opacity="0.75"/>
<path d="M 976.1 1336.9 L 977.5 1256.4" stroke="#000" stroke-width="1.1" fill="none" stroke-linecap="round" stroke-linejoin="round" stroke-opacity="0.75"/>
<path d="M 889.1 527.8 L 904.6 524.6 L 928.6 522.0 L 960.3 521.6 L 960.4 517.8 L 960.5 511.3" stroke="#000" stroke-width="1.1" fill="none" stroke-linecap="round" stroke-linejoin="round" stroke-opacity="0.75"/>
<path d="M 960.3 521.6 L 959.8 532.9 L 959.7 548.2 L 960.2 560.9 L 961.8 569.8 L 969.3 577.8" stroke="#000" stroke-width="1.1" fill="none" stroke-linecap="round" stroke-linejoin="round" stroke-opacity="0.75"/>
<path d="M 1498.9 315.3 L 1494.6 322.9 L 1495.7 343.5 L 1502.8 374.6 L 1510.6 394.2 L 1521.5 414.5 L 1530.4 417.4" stroke="#000" stroke-width="1.1" fill="none" stroke-linecap="round" stroke-linejoin="round" stroke-opacity="0.75"/>
<path d="M 250.2 382.4 L 283.9 380.4 L 301.2 379.7 L 321.9 376.9 L 336.3 376.7 L 353.5 376.6 L 358.7 384.3 L 373.3 382.0 L 378.3 379.2 L 394.4 378.8 L 395.0 387.0" stroke="#000" stroke-width="1.1" fill="none" stroke-linecap="round" stroke-linejoin="round" stroke-opacity="0.75"/>
<path d="M 321.9 376.9 L 324.5 457.8" stroke="#000" stroke-width="1.1" fill="none" stroke-linecap="round" stroke-linejoin="round" stroke-opacity="0.75"/>
<path d="M 358.7 384.3 L 359.4 456.9" stroke="#000" stroke-width="1.1" fill="none" stroke-linecap="round" stroke-linejoin="round" stroke-opacity="0.75"/>
<path d="M 382.0 302.8 L 364.4 300.1 L 360.5 301.4 L 358.3 304.7 L 357.6 309.2 L 353.5 376.6" stroke="#000" stroke-width="1.1" fill="none" stroke-linecap="round" stroke-linejoin="round" stroke-opacity="0.75"/>
<path d="M 382.0 302.8 L 399.0 305.1" stroke="#000" stroke-width="1.1" fill="none" stroke-linecap="round" stroke-linejoin="round" stroke-opacity="0.75"/>
<path d="M 818.9 92.0 L 816.7 85.2 L 809.6 66.9 L 803.5 52.2 L 799.5 49.9 L 792.2 49.7 L 770.5 55.3 L 765.2 58.6 L 763.6 61.4 L 762.7 67.0 L 770.2 89.3 L 773.8 94.9" stroke="#000" stroke-width="1.1" fill="none" stroke-linecap="round" stroke-linejoin="round" stroke-opacity="0.75"/>
<path d="M 418.3 336.1 L 433.4 337.6 L 489.8 342.2 L 518.6 346.8" stroke="#000" stroke-width="1.1" fill="none" stroke-linecap="round" stroke-linejoin="round" stroke-opacity="0.75"/>
<path d="M 518.6 346.8 L 517.8 326.0 L 518.7 316.0 L 522.4 277.7 L 524.5 256.5 L 525.6 244.9 L 530.8 193.2" stroke="#000" stroke-width="1.1" fill="none" stroke-linecap="round" stroke-linejoin="round" stroke-opacity="0.75"/>
<path d="M 395.1 455.9 L 398.1 458.8 L 399.7 462.5 L 400.3 468.3 L 399.6 510.3" stroke="#000" stroke-width="1.1" fill="none" stroke-linecap="round" stroke-linejoin="round" stroke-opacity="0.75"/>
<path d="M 1088.9 686.4 L 1091.3 749.3 L 1102.2 772.4 L 1104.8 789.1 L 1108.1 809.6 L 1113.2 815.1 L 1121.1 815.8 L 1130.2 811.5 L 1142.1 811.6 L 1179.5 819.1" stroke="#000" stroke-width="1.1" fill="none" stroke-linecap="round" stroke-linejoin="round" stroke-opacity="0.75"/>
<path d="M 948.8 1518.5 L 940.4 1504.4 L 935.4 1480.8 L 925.1 1444.1 L 913.5 1401.1" stroke="#000" stroke-width="1.1" fill="none" stroke-linecap="round" stroke-linejoin="round" stroke-opacity="0.75"/>
<path d="M 317.6 653.3 L 226.2 652.3 L 225.4 663.1 L 219.6 667.0 L 184.3 665.2 L 176.5 665.1" stroke="#000" stroke-width="1.1" fill="none" stroke-linecap="round" stroke-linejoin="round" stroke-opacity="0.75"/>
<path d="M 507.3 686.2 L 512.9 673.3 L 512.9 666.2 L 512.3 645.4" stroke="#000" stroke-width="1.1" fill="none" stroke-linecap="round" stroke-linejoin="round" stroke-opacity="0.75"/>
<path d="M 509.7 753.0 L 507.8 702.3 L 507.3 686.2 L 485.2 686.1 L 484.3 661.6 L 482.9 626.0" stroke="#000" stroke-width="1.1" fill="none" stroke-linecap="round" stroke-linejoin="round" stroke-opacity="0.75"/>
<path d="M 484.3 661.6 L 463.0 662.7 L 462.1 640.9 L 437.8 641.9 L 438.5 659.4" stroke="#000" stroke-width="1.1" fill="none" stroke-linecap="round" stroke-linejoin="round" stroke-opacity="0.75"/>
<path d="M 446.6 776.0 L 443.3 737.3" stroke="#000" stroke-width="1.1" fill="none" stroke-linecap="round" stroke-linejoin="round" stroke-opacity="0.75"/>
<path d="M 317.6 653.3 L 343.9 652.4 L 387.4 652.6 L 406.2 633.6 L 404.2 596.6 L 396.7 596.0 L 390.2 595.9 L 383.8 596.1 L 383.5 599.5 L 384.6 623.3" stroke="#000" stroke-width="1.1" fill="none" stroke-linecap="round" stroke-linejoin="round" stroke-opacity="0.75"/>
<path d="M 507.8 702.3 L 531.7 701.9 L 531.9 697.7 L 547.3 697.6 L 546.7 676.9 L 527.0 677.0 L 525.2 659.9 L 512.9 666.2" stroke="#000" stroke-width="1.1" fill="none" stroke-linecap="round" stroke-linejoin="round" stroke-opacity="0.75"/>
<path d="M 485.2 686.1 L 486.2 711.5 L 472.9 712.4 L 458.2 712.8 L 458.1 708.7 L 434.1 709.3 L 434.0 688.6 L 445.5 688.4 L 445.5 684.2 L 461.0 684.1 L 461.5 693.1 L 473.5 693.3 L 485.2 686.1" stroke="#000" stroke-width="1.1" fill="none" stroke-linecap="round" stroke-linejoin="round" stroke-opacity="0.75"/>
<path d="M 1424.7 712.9 L 1418.9 758.8" stroke="#000" stroke-width="1.1" fill="none" stroke-linecap="round" stroke-linejoin="round" stroke-opacity="0.75"/>
<path d="M 1460.6 751.7 L 1460.8 793.8 L 1460.4 828.3 L 1450.1 828.7 L 1450.2 849.8 L 1465.9 848.0" stroke="#000" stroke-width="1.1" fill="none" stroke-linecap="round" stroke-linejoin="round" stroke-opacity="0.75"/>
<path d="M 743.6 924.2 L 769.1 925.9 L 826.6 929.7 L 823.8 942.9 L 822.9 947.1 L 821.5 966.9 L 817.8 1032.7 L 825.5 1033.9 L 837.0 1034.4 L 840.8 1033.4 L 843.6 1030.8 L 844.6 1027.5 L 846.3 992.0 L 847.3 972.8 L 845.5 969.1 L 841.2 967.0 L 821.5 966.9" stroke="#000" stroke-width="1.1" fill="none" stroke-linecap="round" stroke-linejoin="round" stroke-opacity="0.75"/>
<path d="M 737.2 1017.1 L 772.2 1023.3 L 773.9 1017.1 L 778.1 1014.8 L 785.7 1013.3 L 801.7 1009.1" stroke="#000" stroke-width="1.1" fill="none" stroke-linecap="round" stroke-linejoin="round" stroke-opacity="0.75"/>
<path d="M 822.9 947.1 L 799.5 946.5 L 778.7 945.3 L 777.6 971.6" stroke="#000" stroke-width="1.1" fill="none" stroke-linecap="round" stroke-linejoin="round" stroke-opacity="0.75"/>
<path d="M 769.1 925.9 L 767.3 972.1 L 776.1 978.8 L 797.5 979.6 L 799.5 946.5" stroke="#000" stroke-width="1.1" fill="none" stroke-linecap="round" stroke-linejoin="round" stroke-opacity="0.75"/>
<path d="M 1132.0 917.3 L 1130.8 932.3 L 1129.1 957.1" stroke="#000" stroke-width="1.1" fill="none" stroke-linecap="round" stroke-linejoin="round" stroke-opacity="0.75"/>
<path d="M 1230.3 1002.8 L 1231.0 969.2 L 1208.9 968.2" stroke="#000" stroke-width="1.1" fill="none" stroke-linecap="round" stroke-linejoin="round" stroke-opacity="0.75"/>
<path d="M 203.9 784.0 L 203.9 805.2 L 281.6 800.8 L 281.2 783.0 L 203.9 784.0 L 199.9 784.1" stroke="#000" stroke-width="1.1" fill="none" stroke-linecap="round" stroke-linejoin="round" stroke-opacity="0.75"/>
<path d="M 395.0 387.0 L 395.1 455.9" stroke="#000" stroke-width="1.1" fill="none" stroke-linecap="round" stroke-linejoin="round" stroke-opacity="0.75"/>
<path d="M 399.0 305.1 L 420.2 308.3 L 418.3 336.1 L 413.0 383.4 L 411.1 389.1 L 395.0 387.0" stroke="#000" stroke-width="1.1" fill="none" stroke-linecap="round" stroke-linejoin="round" stroke-opacity="0.75"/>
<path d="M 373.3 382.0 L 382.0 302.8" stroke="#000" stroke-width="1.1" fill="none" stroke-linecap="round" stroke-linejoin="round" stroke-opacity="0.75"/>
<path d="M 395.1 455.9 L 374.2 456.5 L 359.4 456.9 L 337.6 457.5 L 324.5 457.8 L 302.3 457.8 L 301.2 379.7" stroke="#000" stroke-width="1.1" fill="none" stroke-linecap="round" stroke-linejoin="round" stroke-opacity="0.75"/>
<path d="M 437.3 295.3 L 439.2 271.8 L 441.2 251.6 L 445.2 213.4 L 447.6 183.5 L 518.5 191.7 L 530.8 193.2 L 563.5 192.1 L 566.6 191.6 L 586.9 188.6 L 611.6 185.2" stroke="#000" stroke-width="1.1" fill="none" stroke-linecap="round" stroke-linejoin="round" stroke-opacity="0.75"/>
<path d="M 518.6 346.8 L 519.3 352.7 L 521.6 415.7" stroke="#000" stroke-width="1.1" fill="none" stroke-linecap="round" stroke-linejoin="round" stroke-opacity="0.75"/>
<path d="M 394.4 378.8 L 399.0 305.1" stroke="#000" stroke-width="1.1" fill="none" stroke-linecap="round" stroke-linejoin="round" stroke-opacity="0.75"/>
<path d="M 1374.2 932.7 L 1418.1 925.5 L 1469.2 913.7 L 1499.7 905.0 L 1526.3 893.7 L 1565.8 878.6 L 1604.9 867.7 L 1615.3 863.7 L 1632.9 860.7 L 1675.2 847.9 L 1692.1 840.3 L 1695.6 839.6 L 1699.6 839.5 L 1706.5 842.1 L 1711.3 844.1 L 1719.2 844.2 L 1733.2 843.8 L 1745.5 844.3" stroke="#000" stroke-width="1.1" fill="none" stroke-linecap="round" stroke-linejoin="round" stroke-opacity="0.75"/>
<path d="M 482.9 626.0 L 482.1 615.0 L 555.6 615.6" stroke="#000" stroke-width="1.1" fill="none" stroke-linecap="round" stroke-linejoin="round" stroke-opacity="0.75"/>
<path d="M 482.1 615.0 L 471.9 614.2 L 461.9 605.8 L 454.4 598.8 L 413.0 597.2 L 404.2 596.6" stroke="#000" stroke-width="1.1" fill="none" stroke-linecap="round" stroke-linejoin="round" stroke-opacity="0.75"/>
<path d="M 347.8 624.0 L 347.7 598.2 L 347.8 587.3" stroke="#000" stroke-width="1.1" fill="none" stroke-linecap="round" stroke-linejoin="round" stroke-opacity="0.75"/>
<path d="M 383.5 599.5 L 347.7 598.2" stroke="#000" stroke-width="1.1" fill="none" stroke-linecap="round" stroke-linejoin="round" stroke-opacity="0.75"/>
<path d="M 383.8 596.1 L 366.2 590.1 L 358.5 587.8 L 347.8 587.3" stroke="#000" stroke-width="1.1" fill="none" stroke-linecap="round" stroke-linejoin="round" stroke-opacity="0.75"/>
<path d="M 396.7 596.0 L 396.2 591.3 L 395.7 586.3 L 385.9 580.8 L 385.4 556.8 L 405.1 553.5 L 405.6 573.5 L 454.0 573.9 L 454.4 598.8" stroke="#000" stroke-width="1.1" fill="none" stroke-linecap="round" stroke-linejoin="round" stroke-opacity="0.75"/>
<path d="M 555.6 615.6 L 557.5 656.1 L 530.2 656.9 L 525.2 659.9" stroke="#000" stroke-width="1.1" fill="none" stroke-linecap="round" stroke-linejoin="round" stroke-opacity="0.75"/>
<path d="M 512.3 645.4 L 538.4 643.8" stroke="#000" stroke-width="1.1" fill="none" stroke-linecap="round" stroke-linejoin="round" stroke-opacity="0.75"/>
<path d="M 317.4 610.1 L 317.6 653.3" stroke="#000" stroke-width="1.1" fill="none" stroke-linecap="round" stroke-linejoin="round" stroke-opacity="0.75"/>
<path d="M 1237.2 1214.7 L 1241.3 1207.6 L 1254.7 1207.6" stroke="#000" stroke-width="1.1" fill="none" stroke-linecap="round" stroke-linejoin="round" stroke-opacity="0.75"/>
<path d="M 1560.3 793.2 L 1608.5 788.0 L 1601.4 733.6" stroke="#000" stroke-width="1.1" fill="none" stroke-linecap="round" stroke-linejoin="round" stroke-opacity="0.75"/>
<path d="M 1497.2 749.0 L 1499.1 761.8 L 1508.7 827.8 L 1513.0 830.8" stroke="#000" stroke-width="1.1" fill="none" stroke-linecap="round" stroke-linejoin="round" stroke-opacity="0.75"/>
<path d="M 1513.0 830.8 L 1532.4 828.7 L 1522.1 746.1" stroke="#000" stroke-width="1.1" fill="none" stroke-linecap="round" stroke-linejoin="round" stroke-opacity="0.75"/>
<path d="M 1571.5 965.0 L 1584.0 961.3 L 1594.6 958.2 L 1599.7 956.5 L 1592.2 932.1 L 1564.1 941.0" stroke="#000" stroke-width="1.1" fill="none" stroke-linecap="round" stroke-linejoin="round" stroke-opacity="0.75"/>
<path d="M 1499.7 905.0 L 1504.5 906.4 L 1510.6 908.2 L 1517.6 909.7 L 1526.2 910.3 L 1543.4 910.3 L 1547.9 909.5 L 1550.0 910.3 L 1552.1 912.9 L 1558.5 933.9" stroke="#000" stroke-width="1.1" fill="none" stroke-linecap="round" stroke-linejoin="round" stroke-opacity="0.75"/>
<path d="M 1326.5 882.0 L 1318.0 869.2 L 1311.0 864.2 L 1301.9 861.5 L 1294.7 855.2 L 1283.1 849.8" stroke="#000" stroke-width="1.1" fill="none" stroke-linecap="round" stroke-linejoin="round" stroke-opacity="0.75"/>
<path d="M 1282.7 856.2 L 1284.7 875.9" stroke="#000" stroke-width="1.1" fill="none" stroke-linecap="round" stroke-linejoin="round" stroke-opacity="0.75"/>
<path d="M 1540.4 996.4 L 1538.2 989.8 L 1537.5 987.6 L 1528.6 956.7" stroke="#000" stroke-width="1.1" fill="none" stroke-linecap="round" stroke-linejoin="round" stroke-opacity="0.75"/>
<path d="M 1290.4 955.5 L 1350.0 957.7" stroke="#000" stroke-width="1.1" fill="none" stroke-linecap="round" stroke-linejoin="round" stroke-opacity="0.75"/>
<path d="M 1288.4 953.4 L 1284.2 954.2 L 1275.2 956.4 L 1194.1 952.0" stroke="#000" stroke-width="1.1" fill="none" stroke-linecap="round" stroke-linejoin="round" stroke-opacity="0.75"/>
<path d="M 227.8 582.1 L 256.0 582.1 L 255.6 618.8" stroke="#000" stroke-width="1.1" fill="none" stroke-linecap="round" stroke-linejoin="round" stroke-opacity="0.75"/>
<path d="M 577.7 52.6 L 584.6 67.9 L 589.2 72.6 L 608.6 83.5 L 628.2 91.9 L 642.9 95.7 L 657.3 97.0 L 661.4 97.4" stroke="#000" stroke-width="1.1" fill="none" stroke-linecap="round" stroke-linejoin="round" stroke-opacity="0.75"/>
<path d="M 1473.3 478.3 L 1477.9 475.9 L 1510.0 459.4" stroke="#000" stroke-width="1.1" fill="none" stroke-linecap="round" stroke-linejoin="round" stroke-opacity="0.75"/>
<path d="M 976.1 296.0 L 972.6 293.3 L 967.2 293.2 L 960.8 290.5 L 947.1 277.1 L 941.1 271.6 L 922.8 265.8 L 904.9 261.9 L 901.9 261.9 L 898.4 263.3 L 894.0 266.5 L 892.3 268.9 L 891.1 273.4 L 888.9 282.8 L 885.5 298.2 L 885.4 302.4 L 885.3 308.1" stroke="#000" stroke-width="1.1" fill="none" stroke-linecap="round" stroke-linejoin="round" stroke-opacity="0.75"/>
<path d="M 964.9 275.7 L 972.7 277.2 L 976.1 296.0" stroke="#000" stroke-width="1.1" fill="none" stroke-linecap="round" stroke-linejoin="round" stroke-opacity="0.75"/>
<path d="M 599.2 425.9 L 603.8 374.4" stroke="#000" stroke-width="1.1" fill="none" stroke-linecap="round" stroke-linejoin="round" stroke-opacity="0.75"/>
<path d="M 577.2 355.5 L 519.3 352.7" stroke="#000" stroke-width="1.1" fill="none" stroke-linecap="round" stroke-linejoin="round" stroke-opacity="0.75"/>
<path d="M 626.1 328.2 L 628.5 353.0 L 670.1 356.7 L 696.1 354.0" stroke="#000" stroke-width="1.1" fill="none" stroke-linecap="round" stroke-linejoin="round" stroke-opacity="0.75"/>
<path d="M 668.6 253.0 L 679.2 197.3" stroke="#000" stroke-width="1.1" fill="none" stroke-linecap="round" stroke-linejoin="round" stroke-opacity="0.75"/>
<path d="M 857.3 721.6 L 908.8 723.9 L 918.2 670.1" stroke="#000" stroke-width="1.1" fill="none" stroke-linecap="round" stroke-linejoin="round" stroke-opacity="0.75"/>
<path d="M 1457.8 422.3 L 1455.0 428.7 L 1456.0 434.6 L 1459.8 439.7 L 1468.0 441.3 L 1532.5 439.2 L 1542.5 455.5" stroke="#000" stroke-width="1.1" fill="none" stroke-linecap="round" stroke-linejoin="round" stroke-opacity="0.75"/>
<path d="M 1457.2 394.7 L 1486.1 393.5" stroke="#000" stroke-width="1.1" fill="none" stroke-linecap="round" stroke-linejoin="round" stroke-opacity="0.75"/>
<path d="M 1456.1 355.0 L 1477.6 354.0" stroke="#000" stroke-width="1.1" fill="none" stroke-linecap="round" stroke-linejoin="round" stroke-opacity="0.75"/>
<path d="M 1521.5 414.5 L 1507.4 433.2 L 1505.8 433.2 L 1466.7 432.9 L 1460.0 428.2 L 1457.8 422.3 L 1457.3 397.4 L 1457.2 394.7 L 1456.1 355.0 L 1456.0 351.3 L 1457.0 308.6 L 1457.2 296.7" stroke="#000" stroke-width="1.1" fill="none" stroke-linecap="round" stroke-linejoin="round" stroke-opacity="0.75"/>
<path d="M 1470.3 652.5 L 1515.0 658.4" stroke="#000" stroke-width="1.1" fill="none" stroke-linecap="round" stroke-linejoin="round" stroke-opacity="0.75"/>
<path d="M 566.6 191.6 L 564.8 216.6 L 556.8 231.0 L 555.4 248.7 L 550.0 301.0 L 568.8 303.1" stroke="#000" stroke-width="1.1" fill="none" stroke-linecap="round" stroke-linejoin="round" stroke-opacity="0.75"/>
<path d="M 568.2 327.1 L 568.8 303.1 L 567.9 284.8 L 566.7 250.1 L 555.4 248.7 L 525.6 244.9" stroke="#000" stroke-width="1.1" fill="none" stroke-linecap="round" stroke-linejoin="round" stroke-opacity="0.75"/>
<path d="M 518.7 316.0 L 529.4 316.7 L 533.4 324.6 L 568.2 327.1 L 586.9 328.5" stroke="#000" stroke-width="1.1" fill="none" stroke-linecap="round" stroke-linejoin="round" stroke-opacity="0.75"/>
<path d="M 337.6 457.5 L 336.3 376.7" stroke="#000" stroke-width="1.1" fill="none" stroke-linecap="round" stroke-linejoin="round" stroke-opacity="0.75"/>
<path d="M 374.2 456.5 L 373.3 382.0" stroke="#000" stroke-width="1.1" fill="none" stroke-linecap="round" stroke-linejoin="round" stroke-opacity="0.75"/>
<path d="M 370.7 285.3 L 437.3 295.3" stroke="#000" stroke-width="1.1" fill="none" stroke-linecap="round" stroke-linejoin="round" stroke-opacity="0.75"/>
<path d="M 466.0 274.0 L 462.4 328.3 L 477.8 329.5 L 482.6 275.0" stroke="#000" stroke-width="1.1" fill="none" stroke-linecap="round" stroke-linejoin="round" stroke-opacity="0.75"/>
<path d="M 522.4 277.7 L 511.1 276.7 L 482.6 275.0 L 466.0 274.0 L 460.9 273.7 L 439.2 271.8" stroke="#000" stroke-width="1.1" fill="none" stroke-linecap="round" stroke-linejoin="round" stroke-opacity="0.75"/>
<path d="M 485.8 255.4 L 512.9 256.3 L 524.5 256.5" stroke="#000" stroke-width="1.1" fill="none" stroke-linecap="round" stroke-linejoin="round" stroke-opacity="0.75"/>
<path d="M 441.2 251.6 L 468.9 253.9 L 485.8 255.4" stroke="#000" stroke-width="1.1" fill="none" stroke-linecap="round" stroke-linejoin="round" stroke-opacity="0.75"/>
<path d="M 468.9 253.9 L 472.5 197.1 L 490.6 198.6 L 485.8 255.4" stroke="#000" stroke-width="1.1" fill="none" stroke-linecap="round" stroke-linejoin="round" stroke-opacity="0.75"/>
<path d="M 505.5 338.9 L 511.1 276.7 L 512.9 256.3 L 517.8 202.1" stroke="#000" stroke-width="1.1" fill="none" stroke-linecap="round" stroke-linejoin="round" stroke-opacity="0.75"/>
<path d="M 1077.4 686.5 L 1077.5 719.2" stroke="#000" stroke-width="1.1" fill="none" stroke-linecap="round" stroke-linejoin="round" stroke-opacity="0.75"/>
<path d="M 986.9 905.9 L 984.7 940.8 L 983.3 962.9" stroke="#000" stroke-width="1.1" fill="none" stroke-linecap="round" stroke-linejoin="round" stroke-opacity="0.75"/>
<path d="M 984.7 940.8 L 895.6 936.3" stroke="#000" stroke-width="1.1" fill="none" stroke-linecap="round" stroke-linejoin="round" stroke-opacity="0.75"/>
<path d="M 929.4 946.9 L 895.5 944.8 L 880.1 944.1 L 882.1 899.5" stroke="#000" stroke-width="1.1" fill="none" stroke-linecap="round" stroke-linejoin="round" stroke-opacity="0.75"/>
<path d="M 895.6 936.3 L 895.5 944.8" stroke="#000" stroke-width="1.1" fill="none" stroke-linecap="round" stroke-linejoin="round" stroke-opacity="0.75"/>
<path d="M 880.1 944.1 L 823.8 942.9" stroke="#000" stroke-width="1.1" fill="none" stroke-linecap="round" stroke-linejoin="round" stroke-opacity="0.75"/>
<path d="M 885.3 899.9 L 886.3 875.8 L 888.7 839.5" stroke="#000" stroke-width="1.1" fill="none" stroke-linecap="round" stroke-linejoin="round" stroke-opacity="0.75"/>
<path d="M 862.0 875.2 L 886.3 875.8" stroke="#000" stroke-width="1.1" fill="none" stroke-linecap="round" stroke-linejoin="round" stroke-opacity="0.75"/>
<path d="M 619.0 559.0 L 607.6 613.1" stroke="#000" stroke-width="1.1" fill="none" stroke-linecap="round" stroke-linejoin="round" stroke-opacity="0.75"/>
<path d="M 1044.2 604.6 L 1044.1 581.0 L 1044.0 577.5" stroke="#000" stroke-width="1.1" fill="none" stroke-linecap="round" stroke-linejoin="round" stroke-opacity="0.75"/>
<path d="M 1045.5 626.9 L 1005.9 627.9 L 1005.3 604.8" stroke="#000" stroke-width="1.1" fill="none" stroke-linecap="round" stroke-linejoin="round" stroke-opacity="0.75"/>
<path d="M 1449.2 748.6 L 1448.3 762.6 L 1401.6 773.3 L 1412.3 808.8 L 1434.0 807.3 L 1433.9 788.7" stroke="#000" stroke-width="1.1" fill="none" stroke-linecap="round" stroke-linejoin="round" stroke-opacity="0.75"/>
<path d="M 1499.1 829.1 L 1477.1 832.1 L 1478.8 850.3" stroke="#000" stroke-width="1.1" fill="none" stroke-linecap="round" stroke-linejoin="round" stroke-opacity="0.75"/>
<path d="M 1499.1 761.8 L 1490.3 763.0 L 1499.1 829.1 L 1508.7 827.8" stroke="#000" stroke-width="1.1" fill="none" stroke-linecap="round" stroke-linejoin="round" stroke-opacity="0.75"/>
<path d="M 488.1 480.9 L 491.7 402.2" stroke="#000" stroke-width="1.1" fill="none" stroke-linecap="round" stroke-linejoin="round" stroke-opacity="0.75"/>
<path d="M 454.9 396.8 L 449.9 472.1" stroke="#000" stroke-width="1.1" fill="none" stroke-linecap="round" stroke-linejoin="round" stroke-opacity="0.75"/>
<path d="M 439.3 393.7 L 434.7 468.5" stroke="#000" stroke-width="1.1" fill="none" stroke-linecap="round" stroke-linejoin="round" stroke-opacity="0.75"/>
<path d="M 472.6 477.3 L 488.1 480.9 L 507.0 485.3" stroke="#000" stroke-width="1.1" fill="none" stroke-linecap="round" stroke-linejoin="round" stroke-opacity="0.75"/>
<path d="M 441.0 343.5 L 436.5 391.8" stroke="#000" stroke-width="1.1" fill="none" stroke-linecap="round" stroke-linejoin="round" stroke-opacity="0.75"/>
<path d="M 479.9 346.4 L 476.4 397.8" stroke="#000" stroke-width="1.1" fill="none" stroke-linecap="round" stroke-linejoin="round" stroke-opacity="0.75"/>
<path d="M 463.4 345.1 L 479.9 346.4 L 502.2 348.0 L 504.0 349.1 L 504.8 350.9 L 503.2 388.3" stroke="#000" stroke-width="1.1" fill="none" stroke-linecap="round" stroke-linejoin="round" stroke-opacity="0.75"/>
<path d="M 415.6 401.7 L 407.2 422.3 L 406.5 424.5 L 406.0 427.5 L 404.2 450.2 L 404.2 452.1 L 405.1 454.0 L 406.9 456.5" stroke="#000" stroke-width="1.1" fill="none" stroke-linecap="round" stroke-linejoin="round" stroke-opacity="0.75"/>
<path d="M 410.6 461.7 L 415.6 401.7 L 416.6 389.9 L 417.6 387.7 L 420.1 386.7 L 423.5 387.0 L 427.9 387.4 L 430.3 387.9 L 432.8 389.2 L 436.5 391.8 L 439.3 393.7 L 442.1 395.4 L 445.6 396.3 L 454.9 396.8 L 459.5 397.0 L 476.4 397.8 L 472.6 477.3 L 449.9 472.1 L 434.7 468.5 L 411.7 463.2 L 410.6 461.7 L 406.9 456.5 L 399.7 462.5" stroke="#000" stroke-width="1.1" fill="none" stroke-linecap="round" stroke-linejoin="round" stroke-opacity="0.75"/>
<path d="M 459.5 397.0 L 463.4 345.1 L 441.0 343.5 L 431.1 342.7 L 428.3 343.1 L 427.4 345.6 L 423.5 387.0" stroke="#000" stroke-width="1.1" fill="none" stroke-linecap="round" stroke-linejoin="round" stroke-opacity="0.75"/>
<path d="M 1470.2 874.1 L 1437.9 876.3 L 1412.4 883.3 L 1390.3 887.5 L 1370.2 888.5 L 1351.2 886.7 L 1326.5 882.0 L 1303.0 877.4" stroke="#000" stroke-width="1.1" fill="none" stroke-linecap="round" stroke-linejoin="round" stroke-opacity="0.75"/>
<path d="M 798.6 762.7 L 782.9 761.6 L 765.7 762.0" stroke="#000" stroke-width="1.1" fill="none" stroke-linecap="round" stroke-linejoin="round" stroke-opacity="0.75"/>
<path d="M 1303.0 877.4 L 1284.7 875.9" stroke="#000" stroke-width="1.1" fill="none" stroke-linecap="round" stroke-linejoin="round" stroke-opacity="0.75"/>
<path d="M 1372.7 160.0 L 1373.0 162.8 L 1378.7 231.9" stroke="#000" stroke-width="1.1" fill="none" stroke-linecap="round" stroke-linejoin="round" stroke-opacity="0.75"/>
<path d="M 1057.8 627.2 L 1065.8 621.4 L 1070.2 616.7 L 1070.4 583.3 L 1067.9 581.2 L 1062.3 580.7 L 1044.1 581.0" stroke="#000" stroke-width="1.1" fill="none" stroke-linecap="round" stroke-linejoin="round" stroke-opacity="0.75"/>
  <path d="M 1303.0 877.4 L 1292.0 923.0" stroke="#000" stroke-width="0.8" fill="none" stroke-linecap="round" stroke-linejoin="round" stroke-opacity="0.5" stroke-dasharray="4 5"/>
<path d="M 1210.5 158.1 L 1060.7 167.1 L 968.4 171.5 L 865.8 181.1 L 858.1 179.5 L 852.7 175.3 L 850.9 172.7 L 849.7 171.0 L 847.9 166.5 L 845.9 159.8 L 835.0 132.5 L 823.4 91.9 L 811.8 51.5 L 804.9 40.7 L 796.0 40.4 L 794.0 35.3 L 788.1 17.9" stroke="#000" stroke-width="0.8" fill="none" stroke-linecap="round" stroke-linejoin="round" stroke-opacity="0.5" stroke-dasharray="4 5"/>
<path d="M 1378.0 326.2 L 1380.9 319.4 L 1383.1 290.1 L 1378.7 231.9" stroke="#000" stroke-width="0.8" fill="none" stroke-linecap="round" stroke-linejoin="round" stroke-opacity="0.5" stroke-dasharray="4 5"/>
<path d="M 1284.7 875.9 L 1271.7 874.6 L 1227.1 866.4 L 1184.4 855.8 L 1181.0 857.9 L 1128.1 845.6 L 1092.4 835.9 L 1062.6 827.7 L 1016.7 820.5 L 983.6 811.8 L 956.1 800.2 L 938.5 800.2 L 925.7 798.9 L 914.2 801.9 L 883.7 792.1 L 857.8 784.8 L 847.5 781.9 L 823.4 772.5 L 809.2 763.3 L 798.6 762.7" stroke="#000" stroke-width="0.8" fill="none" stroke-linecap="round" stroke-linejoin="round" stroke-opacity="0.5" stroke-dasharray="4 5"/>
<path d="M 847.9 166.5 L 854.3 166.2 L 961.9 158.8 L 1034.9 154.5 L 1059.6 153.2 L 1209.6 143.5 L 1210.4 143.4 L 1226.4 142.5 L 1355.3 135.1 L 1364.8 134.6 L 1368.0 134.5 L 1371.3 134.3 L 1376.9 134.1 L 1380.7 133.9 L 1388.1 133.5 L 1506.1 127.1" stroke="#000" stroke-width="0.8" fill="none" stroke-linecap="round" stroke-linejoin="round" stroke-opacity="0.5" stroke-dasharray="4 5"/>
<path d="M 756.2 802.7 L 750.2 811.1 L 748.0 821.7" stroke="#000" stroke-width="0.8" fill="none" stroke-linecap="round" stroke-linejoin="round" stroke-opacity="0.5" stroke-dasharray="4 5"/>
<path d="M 765.7 762.0 L 756.2 802.7" stroke="#000" stroke-width="0.8" fill="none" stroke-linecap="round" stroke-linejoin="round" stroke-opacity="0.5" stroke-dasharray="4 5"/>
<path d="M 771.3 615.4 L 765.6 640.1 L 753.8 690.0 L 753.3 759.7" stroke="#000" stroke-width="0.8" fill="none" stroke-linecap="round" stroke-linejoin="round" stroke-opacity="0.5" stroke-dasharray="4 5"/>
<path d="M 333.9 867.3 L 348.5 868.5 L 365.5 866.1 L 385.6 858.9 L 409.7 850.2 L 431.6 838.6 L 457.0 825.0 L 506.2 798.2 L 523.7 789.9 L 542.1 786.2 L 566.3 781.4 L 595.4 781.5 L 617.8 782.4 L 631.1 788.6 L 639.4 792.4 L 647.2 794.5 L 674.4 794.9 L 700.6 796.0 L 718.3 798.4 L 732.1 802.1" stroke="#000" stroke-width="0.8" fill="none" stroke-linecap="round" stroke-linejoin="round" stroke-opacity="0.5" stroke-dasharray="4 5"/>
<path d="M 1279.8 384.5 L 1302.9 382.1 L 1316.7 374.8 L 1329.7 364.1 L 1344.7 347.1 L 1365.3 329.8 L 1378.0 326.2" stroke="#000" stroke-width="0.8" fill="none" stroke-linecap="round" stroke-linejoin="round" stroke-opacity="0.5" stroke-dasharray="4 5"/>
<path d="M 1371.9 146.8 L 1372.7 160.0" stroke="#000" stroke-width="0.8" fill="none" stroke-linecap="round" stroke-linejoin="round" stroke-opacity="0.5" stroke-dasharray="4 5"/>
<path d="M 1092.1 366.6 L 1066.9 355.6 L 1062.0 355.2 L 1056.6 356.1 L 1051.7 358.9 L 1043.9 368.9 L 1031.6 386.9 L 1019.4 401.9 L 1007.9 409.6 L 993.4 427.6 L 985.1 448.4 L 979.0 489.7 L 975.0 509.3 L 976.0 520.8 L 977.4 526.4 L 980.9 531.8 L 987.5 535.5 L 1003.0 543.5 L 1018.9 548.8 L 1038.3 553.2 L 1049.3 554.4 L 1055.4 555.1 L 1062.5 554.0 L 1069.5 551.3 L 1073.5 546.6 L 1093.7 472.3 L 1096.6 462.4 L 1100.1 449.4 L 1117.5 385.9 L 1092.1 366.6" stroke="#000" stroke-width="0.8" fill="none" stroke-linecap="round" stroke-linejoin="round" stroke-opacity="0.5" stroke-dasharray="4 5"/>
<path d="M 1093.7 472.3 L 1102.6 473.9 L 1108.0 474.8 L 1158.1 483.5 L 1179.9 485.2 L 1191.0 486.0 L 1199.2 482.5 L 1234.8 487.4 L 1253.3 488.9" stroke="#000" stroke-width="0.8" fill="none" stroke-linecap="round" stroke-linejoin="round" stroke-opacity="0.5" stroke-dasharray="4 5"/>
<path d="M 1117.5 385.9 L 1120.1 377.6 L 1123.3 371.3 L 1131.2 368.0 L 1141.2 368.7 L 1150.5 370.8 L 1211.5 401.1 L 1244.7 417.5 L 1264.9 427.5 L 1309.9 452.3 L 1354.8 468.9" stroke="#000" stroke-width="0.8" fill="none" stroke-linecap="round" stroke-linejoin="round" stroke-opacity="0.5" stroke-dasharray="4 5"/>
<path d="M 732.1 802.1 L 750.2 811.1 L 783.0 818.8 L 797.9 822.9 L 818.6 826.2 L 835.2 826.9 L 863.9 832.9 L 888.7 839.5 L 906.0 844.0 L 932.1 846.5 L 997.1 860.8 L 1027.8 866.5 L 1045.5 872.7 L 1108.3 884.1 L 1164.0 898.6 L 1215.7 909.5 L 1250.3 914.2 L 1265.4 918.3 L 1272.5 921.0 L 1292.0 923.0" stroke="#000" stroke-width="0.8" fill="none" stroke-linecap="round" stroke-linejoin="round" stroke-opacity="0.5" stroke-dasharray="4 5"/>
<path d="M 1273.0 393.3 L 1266.3 392.0 L 1223.5 383.6 L 1220.6 384.6 L 1218.8 385.5 L 1217.8 387.4 L 1211.5 401.1" stroke="#000" stroke-width="0.8" fill="none" stroke-linecap="round" stroke-linejoin="round" stroke-opacity="0.5" stroke-dasharray="4 5"/>
<path d="M 1151.7 998.4 L 1151.9 996.7 L 1154.0 975.2" stroke="#000" stroke-width="0.8" fill="none" stroke-linecap="round" stroke-linejoin="round" stroke-opacity="0.5" stroke-dasharray="4 5"/>
<path d="M 1042.7 997.1 L 1117.6 1001.6 L 1131.8 998.6 L 1151.7 998.4 L 1183.9 997.6" stroke="#000" stroke-width="0.8" fill="none" stroke-linecap="round" stroke-linejoin="round" stroke-opacity="0.5" stroke-dasharray="4 5"/>
<path d="M 1253.3 488.9 L 1262.9 495.9 L 1253.6 565.4 L 1253.8 574.4 L 1256.5 584.3 L 1259.8 590.5 L 1264.5 597.4 L 1271.4 603.7 L 1276.4 607.2 L 1278.5 609.2 L 1280.7 613.7 L 1283.6 620.4 L 1288.6 628.3 L 1294.9 644.8" stroke="#000" stroke-width="0.8" fill="none" stroke-linecap="round" stroke-linejoin="round" stroke-opacity="0.5" stroke-dasharray="4 5"/>
<path d="M 1262.9 495.9 L 1354.8 468.9 L 1363.5 467.1" stroke="#000" stroke-width="0.8" fill="none" stroke-linecap="round" stroke-linejoin="round" stroke-opacity="0.5" stroke-dasharray="4 5"/>
<path d="M 347.6 248.7 L 350.6 252.6 L 352.3 257.7 L 353.3 266.3 L 353.3 275.5 L 356.2 284.0 L 361.2 289.1 L 367.1 289.1 L 370.7 285.3" stroke="#000" stroke-width="0.8" fill="none" stroke-linecap="round" stroke-linejoin="round" stroke-opacity="0.5" stroke-dasharray="4 5"/>
<path d="M 798.5 729.8 L 809.1 730.0" stroke="#000" stroke-width="0.8" fill="none" stroke-linecap="round" stroke-linejoin="round" stroke-opacity="0.5" stroke-dasharray="4 5"/>
<path d="M 798.6 762.7 L 798.6 752.6 L 798.5 729.8 L 798.4 711.8" stroke="#000" stroke-width="0.8" fill="none" stroke-linecap="round" stroke-linejoin="round" stroke-opacity="0.5" stroke-dasharray="4 5"/>
<path d="M 765.7 707.1 L 798.4 711.8 L 831.1 713.9" stroke="#000" stroke-width="0.8" fill="none" stroke-linecap="round" stroke-linejoin="round" stroke-opacity="0.5" stroke-dasharray="4 5"/>
<path d="M 1292.0 923.0 L 1290.8 927.8" stroke="#000" stroke-width="0.8" fill="none" stroke-linecap="round" stroke-linejoin="round" stroke-opacity="0.5" stroke-dasharray="4 5"/>
<path d="M 1142.1 316.1 L 1143.4 328.6 L 1131.2 368.0" stroke="#000" stroke-width="0.8" fill="none" stroke-linecap="round" stroke-linejoin="round" stroke-opacity="0.5" stroke-dasharray="4 5"/>
<path d="M 1150.0 294.9 L 1137.0 298.1 L 1133.7 303.0 L 1142.1 316.1" stroke="#000" stroke-width="0.8" fill="none" stroke-linecap="round" stroke-linejoin="round" stroke-opacity="0.5" stroke-dasharray="4 5"/>
<path d="M 1059.7 156.6 L 1060.1 158.7 L 1060.2 161.7 L 1060.7 167.1 L 1061.0 179.4 L 1065.3 221.2 L 1072.0 242.1" stroke="#000" stroke-width="0.8" fill="none" stroke-linecap="round" stroke-linejoin="round" stroke-opacity="0.5" stroke-dasharray="4 5"/>
<path d="M 334.3 92.4 L 353.4 88.1 L 383.9 82.9 L 410.8 80.1 L 444.1 77.6 L 482.1 77.4 L 511.5 76.5 L 525.3 78.1 L 557.0 82.9 L 601.2 87.6 L 628.2 91.9 L 693.1 73.0 L 691.5 68.8 L 750.7 51.0 L 771.6 42.4 L 794.0 35.3" stroke="#000" stroke-width="0.8" fill="none" stroke-linecap="round" stroke-linejoin="round" stroke-opacity="0.5" stroke-dasharray="4 5"/>
<path d="M 1865.1 764.1 L 1865.9 766.0 L 1893.2 831.8 L 1893.6 834.0 L 1893.0 836.0 L 1891.5 837.7 L 1881.6 843.0 L 1872.5 847.9 L 1871.0 845.4 L 1839.3 861.6 L 1818.1 872.4 L 1741.5 912.3 L 1696.5 934.7 L 1659.7 952.0 L 1620.0 965.3 L 1598.9 971.6 L 1567.4 981.0 L 1538.2 989.8 L 1521.0 994.9 L 1489.7 1010.1 L 1458.3 1027.1 L 1398.6 1052.7 L 1340.2 1077.6" stroke="#000" stroke-width="0.8" fill="none" stroke-linecap="round" stroke-linejoin="round" stroke-opacity="0.5" stroke-dasharray="4 5"/>
<path d="M 1587.8 973.0 L 1584.0 961.3 L 1582.7 957.0" stroke="#000" stroke-width="0.8" fill="none" stroke-linecap="round" stroke-linejoin="round" stroke-opacity="0.5" stroke-dasharray="4 5"/>
<path d="M 1340.2 1077.6 L 1338.4 1078.3 L 1337.1 1078.1 L 1336.2 1077.4 L 1330.9 1063.1 L 1316.7 1022.3 L 1297.9 968.0 L 1350.0 957.7 L 1376.6 952.7 L 1397.9 949.0" stroke="#000" stroke-width="0.8" fill="none" stroke-linecap="round" stroke-linejoin="round" stroke-opacity="0.5" stroke-dasharray="4 5"/>
<path d="M 355.0 510.6 L 358.5 587.8" stroke="#000" stroke-width="0.8" fill="none" stroke-linecap="round" stroke-linejoin="round" stroke-opacity="0.5" stroke-dasharray="4 5"/>
<path d="M 237.4 669.5 L 252.0 673.4 L 296.9 682.1 L 318.5 689.8 L 326.6 695.4 L 341.8 710.1 L 344.4 715.5 L 371.4 716.4 L 371.7 693.4" stroke="#000" stroke-width="0.8" fill="none" stroke-linecap="round" stroke-linejoin="round" stroke-opacity="0.5" stroke-dasharray="4 5"/>
<path d="M 371.4 716.4 L 401.7 716.8 L 402.7 714.4 L 408.4 714.1 L 417.6 714.6 L 427.9 713.2 L 432.5 710.8 L 434.1 709.3" stroke="#000" stroke-width="0.8" fill="none" stroke-linecap="round" stroke-linejoin="round" stroke-opacity="0.5" stroke-dasharray="4 5"/>
<path d="M 343.9 652.4 L 343.9 659.1 L 343.2 706.3 L 344.4 715.5" stroke="#000" stroke-width="0.8" fill="none" stroke-linecap="round" stroke-linejoin="round" stroke-opacity="0.5" stroke-dasharray="4 5"/>
<path d="M 1111.8 465.0 L 1186.6 476.0 L 1192.2 476.8 L 1199.2 482.5" stroke="#000" stroke-width="0.8" fill="none" stroke-linecap="round" stroke-linejoin="round" stroke-opacity="0.5" stroke-dasharray="4 5"/>
<path d="M 1046.3 577.5 L 1044.4 568.2 L 1045.1 566.2 L 1049.3 554.4" stroke="#000" stroke-width="0.8" fill="none" stroke-linecap="round" stroke-linejoin="round" stroke-opacity="0.5" stroke-dasharray="4 5"/>
<path d="M 1179.9 485.2 L 1175.7 502.9 L 1167.5 581.2 L 1104.8 570.4 L 1069.5 551.3" stroke="#000" stroke-width="0.8" fill="none" stroke-linecap="round" stroke-linejoin="round" stroke-opacity="0.5" stroke-dasharray="4 5"/>
<path d="M 1244.7 417.5 L 1186.6 476.0" stroke="#000" stroke-width="0.8" fill="none" stroke-linecap="round" stroke-linejoin="round" stroke-opacity="0.5" stroke-dasharray="4 5"/>
<path d="M 1316.7 374.8 L 1330.7 380.8 L 1340.1 387.8 L 1344.8 394.5 L 1347.8 406.3 L 1352.2 419.0 L 1365.3 436.4" stroke="#000" stroke-width="0.8" fill="none" stroke-linecap="round" stroke-linejoin="round" stroke-opacity="0.5" stroke-dasharray="4 5"/>
<path d="M 1062.0 355.2 L 1058.4 341.5" stroke="#000" stroke-width="0.8" fill="none" stroke-linecap="round" stroke-linejoin="round" stroke-opacity="0.5" stroke-dasharray="4 5"/>
<path d="M 1102.6 473.9 L 1105.8 458.3 L 1100.1 449.4" stroke="#000" stroke-width="0.8" fill="none" stroke-linecap="round" stroke-linejoin="round" stroke-opacity="0.5" stroke-dasharray="4 5"/>
<path d="M 1105.8 458.3 L 1110.1 461.4 L 1111.4 463.9 L 1111.8 465.0 L 1112.1 468.0 L 1111.9 470.1 L 1110.7 472.1 L 1108.0 474.8" stroke="#000" stroke-width="0.8" fill="none" stroke-linecap="round" stroke-linejoin="round" stroke-opacity="0.5" stroke-dasharray="4 5"/>
<path d="M 925.7 798.9 L 908.9 785.2 L 900.6 778.0 L 889.8 775.2 L 877.3 776.3 L 857.8 784.8" stroke="#000" stroke-width="0.8" fill="none" stroke-linecap="round" stroke-linejoin="round" stroke-opacity="0.5" stroke-dasharray="4 5"/>
<path d="M 770.5 111.7 L 769.7 130.7 L 768.1 147.4" stroke="#000" stroke-width="0.8" fill="none" stroke-linecap="round" stroke-linejoin="round" stroke-opacity="0.5" stroke-dasharray="4 5"/>
<path d="M 767.5 94.9 L 768.5 98.6 L 770.6 106.7 L 770.5 111.7" stroke="#000" stroke-width="0.8" fill="none" stroke-linecap="round" stroke-linejoin="round" stroke-opacity="0.5" stroke-dasharray="4 5"/>
<path d="M 768.1 147.4 L 764.8 156.9" stroke="#000" stroke-width="0.8" fill="none" stroke-linecap="round" stroke-linejoin="round" stroke-opacity="0.5" stroke-dasharray="4 5"/>
<path d="M 613.8 98.6 L 611.0 102.7" stroke="#000" stroke-width="0.8" fill="none" stroke-linecap="round" stroke-linejoin="round" stroke-opacity="0.5" stroke-dasharray="4 5"/>
<path d="M 611.0 102.7 L 608.4 135.1" stroke="#000" stroke-width="0.8" fill="none" stroke-linecap="round" stroke-linejoin="round" stroke-opacity="0.5" stroke-dasharray="4 5"/>
<path d="M 608.4 135.1 L 607.9 141.7" stroke="#000" stroke-width="0.8" fill="none" stroke-linecap="round" stroke-linejoin="round" stroke-opacity="0.5" stroke-dasharray="4 5"/>
<path d="M 732.1 802.1 L 740.6 809.2 L 745.1 815.0 L 748.0 821.7" stroke="#000" stroke-width="0.8" fill="none" stroke-linecap="round" stroke-linejoin="round" stroke-opacity="0.5" stroke-dasharray="4 5"/>
<path d="M 1253.3 488.9 L 1254.0 480.0" stroke="#000" stroke-width="0.8" fill="none" stroke-linecap="round" stroke-linejoin="round" stroke-opacity="0.5" stroke-dasharray="4 5"/>
<path d="M 1254.0 480.0 L 1264.9 427.5 L 1273.0 393.3 L 1279.8 384.5" stroke="#000" stroke-width="0.8" fill="none" stroke-linecap="round" stroke-linejoin="round" stroke-opacity="0.5" stroke-dasharray="4 5"/>
<path d="M 1279.8 384.5 L 1273.5 385.2 L 1269.6 388.1 L 1266.3 392.0 L 1261.4 399.1 L 1254.5 405.5 L 1244.7 417.5" stroke="#000" stroke-width="0.8" fill="none" stroke-linecap="round" stroke-linejoin="round" stroke-opacity="0.5" stroke-dasharray="4 5"/>
<path d="M 1378.0 326.2 L 1367.7 403.6 L 1366.0 424.1 L 1365.3 436.4" stroke="#000" stroke-width="0.8" fill="none" stroke-linecap="round" stroke-linejoin="round" stroke-opacity="0.5" stroke-dasharray="4 5"/>
<path d="M 1371.9 146.8 L 1210.5 158.1" stroke="#000" stroke-width="0.8" fill="none" stroke-linecap="round" stroke-linejoin="round" stroke-opacity="0.5" stroke-dasharray="4 5"/>
<path d="M 1365.3 436.4 L 1363.5 467.1" stroke="#000" stroke-width="0.8" fill="none" stroke-linecap="round" stroke-linejoin="round" stroke-opacity="0.5" stroke-dasharray="4 5"/>
  <path d="M 1479.5 49.1 L 1466.8 49.6 L 1428.9 51.9 L 1372.8 55.2 L 1369.6 55.6 L 1367.8 55.8 L 1366.2 56.0 L 1364.6 56.1 L 1208.1 66.6" stroke="#000" stroke-width="2" fill="none" stroke-linecap="round" stroke-linejoin="round" />
<path d="M 1288.5 647.0 L 1290.3 674.7 L 1283.5 768.9 L 1284.0 811.6 L 1283.1 849.8 L 1282.7 856.2" stroke="#000" stroke-width="2" fill="none" stroke-linecap="round" stroke-linejoin="round" />
<path d="M 1018.4 1328.1 L 1015.9 1317.6 L 1007.7 1280.4 L 1008.6 1257.1 L 1011.2 1248.5 L 1031.5 1202.5" stroke="#000" stroke-width="2" fill="none" stroke-linecap="round" stroke-linejoin="round" />
<path d="M 2038.9 93.5 L 2030.1 94.2 L 1920.8 101.7 L 1794.8 110.6 L 1786.5 111.2 L 1780.9 111.5 L 1594.3 124.0 L 1506.6 130.0 L 1472.9 132.2 L 1443.9 133.8 L 1386.3 137.4 L 1381.1 137.7 L 1371.5 138.3 L 1364.6 138.7 L 1358.6 139.1 L 1314.5 141.8 L 1209.8 147.5" stroke="#000" stroke-width="2" fill="none" stroke-linecap="round" stroke-linejoin="round" />
<path d="M 806.5 177.5 L 794.6 231.7" stroke="#000" stroke-width="2" fill="none" stroke-linecap="round" stroke-linejoin="round" />
<path d="M 658.0 1214.9 L 646.9 1213.3 L 636.7 1209.9 L 473.8 1119.1 L 458.1 1110.6 L 443.3 1104.7 L 442.2 1104.3 L 426.3 1100.8 L 406.4 1098.8 L 185.9 1102.7 L 173.4 1102.6 L 68.2 1102.7 L 9.8 1101.9 L -26.9 1101.3 L -48.5 1100.3" stroke="#000" stroke-width="2" fill="none" stroke-linecap="round" stroke-linejoin="round" />
<path d="M 1288.5 647.0 L 1259.6 657.3 L 1233.9 664.8 L 1197.1 672.1 L 1168.8 676.6 L 1140.8 681.7 L 1116.7 684.2 L 1088.9 686.4 L 1077.4 686.5 L 1071.0 686.5 L 1051.7 685.6 L 1003.3 682.3 L 961.1 678.5 L 937.3 674.9 L 918.2 670.1 L 900.0 664.2 L 893.6 662.3 L 771.3 615.4 L 726.7 596.5 L 681.1 579.7 L 631.0 562.7 L 619.0 559.0 L 588.0 549.2 L 560.4 540.8 L 534.1 534.6 L 476.1 523.1 L 433.3 515.0 L 415.5 512.1 L 399.6 510.3" stroke="#000" stroke-width="2" fill="none" stroke-linecap="round" stroke-linejoin="round" />
<path d="M 1031.5 1202.5 L 1067.1 1205.0 L 1157.3 1205.1 L 1205.0 1207.6 L 1217.9 1210.5 L 1237.2 1214.7 L 1260.9 1222.0 L 1279.4 1224.5 L 1304.0 1226.7 L 1407.1 1227.0 L 1423.2 1228.5 L 1431.3 1229.3 L 1449.9 1231.9 L 1466.7 1235.1 L 1484.0 1239.3 L 1508.2 1246.3 L 1533.9 1252.2 L 1561.9 1256.4 L 1638.0 1265.0 L 1643.8 1263.9 L 1648.5 1261.6" stroke="#000" stroke-width="2" fill="none" stroke-linecap="round" stroke-linejoin="round" />
<path d="M 720.7 515.4 L 710.1 489.8 L 702.2 459.9 L 701.1 435.7 L 701.0 433.5 L 700.3 420.8 L 695.9 379.2 L 694.3 357.9 L 696.1 354.0 L 700.4 344.7 L 697.9 319.6 L 689.0 275.8 L 689.4 257.9 L 693.3 200.1 L 689.3 151.4" stroke="#000" stroke-width="2" fill="none" stroke-linecap="round" stroke-linejoin="round" />
<path d="M 773.8 94.9 L 776.6 100.1 L 781.1 108.2 L 799.6 142.2 L 810.0 160.0 L 824.9 172.0 L 827.1 173.1 L 829.2 174.1 L 836.9 176.6" stroke="#000" stroke-width="2" fill="none" stroke-linecap="round" stroke-linejoin="round" />
<path d="M 794.6 231.7 L 763.3 222.0 L 693.3 200.1 L 679.2 197.3 L 664.0 194.6 L 635.6 192.0 L 621.4 187.7 L 611.6 185.2" stroke="#000" stroke-width="2" fill="none" stroke-linecap="round" stroke-linejoin="round" />
<path d="M 1610.8 514.0 L 1612.9 521.8 L 1634.5 603.2 L 1649.6 656.1 L 1661.2 704.1 L 1665.9 725.2" stroke="#000" stroke-width="2" fill="none" stroke-linecap="round" stroke-linejoin="round" />
<path d="M 1634.5 603.2 L 1551.7 617.7 L 1480.3 615.7" stroke="#000" stroke-width="2" fill="none" stroke-linecap="round" stroke-linejoin="round" />
<path d="M 1838.8 699.3 L 1832.4 702.4 L 1822.0 706.1 L 1665.9 725.2 L 1617.1 731.5 L 1601.4 733.6 L 1564.2 738.6 L 1522.1 746.1 L 1497.2 749.0 L 1460.6 751.7 L 1454.2 750.4 L 1449.2 748.6" stroke="#000" stroke-width="2" fill="none" stroke-linecap="round" stroke-linejoin="round" />
<path d="M 1598.3 501.4 L 1597.9 512.0 L 1594.8 517.3" stroke="#000" stroke-width="2" fill="none" stroke-linecap="round" stroke-linejoin="round" />
<path d="M 806.5 177.5 L 810.0 160.0" stroke="#000" stroke-width="2" fill="none" stroke-linecap="round" stroke-linejoin="round" />
<path d="M 1318.8 636.3 L 1353.7 717.8 L 1357.8 722.6 L 1365.0 723.8" stroke="#000" stroke-width="2" fill="none" stroke-linecap="round" stroke-linejoin="round" />
<path d="M 1594.8 517.3 L 1602.2 517.1 L 1610.8 514.0" stroke="#000" stroke-width="2" fill="none" stroke-linecap="round" stroke-linejoin="round" />
<path d="M 1055.3 239.0 L 1072.0 242.1 L 1147.5 263.7 L 1154.3 265.8 L 1186.7 270.9 L 1218.7 274.5" stroke="#000" stroke-width="2" fill="none" stroke-linecap="round" stroke-linejoin="round" />
<path d="M 1209.8 147.5 L 1059.7 156.6 L 1035.2 158.2 L 1028.5 158.6 L 861.5 168.7" stroke="#000" stroke-width="2" fill="none" stroke-linecap="round" stroke-linejoin="round" />
<path d="M 765.7 762.0 L 753.3 759.7 L 735.0 758.2 L 629.8 744.2 L 597.2 741.1 L 545.8 746.2 L 509.7 753.0 L 476.9 762.9 L 446.6 776.0 L 374.7 807.1 L 350.0 816.3 L 330.6 819.5 L 245.5 826.1 L 221.0 828.2 L 201.0 827.6 L 189.6 825.8 L 178.5 821.4 L 167.1 822.7 L 154.4 824.0 L 97.4 826.7 L -72.3 827.1 L -189.9 829.6 L -287.2 831.4 L -311.1 831.2 L -316.8 831.4 L -341.8 832.4 L -431.2 834.2 L -460.2 834.8 L -471.0 834.1 L -479.7 830.9 L -487.4 826.3 L -494.3 817.2" stroke="#000" stroke-width="2" fill="none" stroke-linecap="round" stroke-linejoin="round" />
<path d="M 1896.7 1180.6 L 1824.4 1189.1 L 1762.7 1196.2 L 1753.6 1196.7 L 1731.9 1197.8 L 1693.8 1199.6 L 1664.6 1199.0 L 1516.2 1177.4 L 1421.3 1166.3 L 1297.2 1156.6" stroke="#000" stroke-width="2" fill="none" stroke-linecap="round" stroke-linejoin="round" />
<path d="M 1031.5 1202.5 L 987.1 1200.3 L 965.0 1199.0 L 950.0 1199.1 L 706.5 1211.2 L 682.6 1212.6 L 658.0 1214.9" stroke="#000" stroke-width="2" fill="none" stroke-linecap="round" stroke-linejoin="round" />
<path d="M 806.5 177.5 L 829.5 176.8 L 836.9 176.6" stroke="#000" stroke-width="2" fill="none" stroke-linecap="round" stroke-linejoin="round" />
<path d="M 1211.3 168.2 L 1364.6 160.4 L 1372.7 160.0 L 1502.3 150.6 L 1782.0 131.0 L 1789.4 130.5 L 1792.0 130.4 L 1922.9 123.3 L 2040.4 117.0" stroke="#000" stroke-width="2" fill="none" stroke-linecap="round" stroke-linejoin="round" />
<path d="M 398.7 864.8 L 410.9 892.4 L 417.8 905.6 L 430.2 946.6 L 439.2 991.7 L 445.9 1044.9 L 449.3 1085.1 L 448.5 1093.7 L 443.3 1104.7 L 438.0 1110.2 L 436.5 1115.7 L 443.8 1246.8 L 448.6 1341.1 L 449.3 1349.9 L 450.3 1356.0 L 452.0 1359.3 L 455.2 1362.0" stroke="#000" stroke-width="2" fill="none" stroke-linecap="round" stroke-linejoin="round" />
<path d="M 1228.6 761.3 L 1230.1 820.6" stroke="#000" stroke-width="2" fill="none" stroke-linecap="round" stroke-linejoin="round" />
<path d="M 1449.2 748.6 L 1446.9 740.8 L 1455.3 708.4 L 1467.7 662.4 L 1470.3 652.5 L 1480.3 615.7 L 1490.4 571.3" stroke="#000" stroke-width="2" fill="none" stroke-linecap="round" stroke-linejoin="round" />
<path d="M 1196.8 814.3 L 1215.8 821.9 L 1230.1 820.6 L 1284.0 811.6" stroke="#000" stroke-width="2" fill="none" stroke-linecap="round" stroke-linejoin="round" />
<path d="M 576.3 840.0 L 575.5 848.7 L 571.8 864.8 L 566.0 891.1 L 565.9 900.6 L 566.3 911.1 L 567.3 926.1 L 562.6 936.9 L 556.5 940.5 L 554.5 949.5 L 554.4 962.7 L 554.2 982.3 L 556.0 988.3 L 561.2 993.7 L 575.8 1004.3 L 626.1 1036.3 L 649.6 1045.1 L 675.4 1048.4 L 736.0 1050.2 L 736.6 1079.5 L 737.7 1085.7 L 763.4 1086.0 L 789.3 1087.6 L 824.5 1089.5 L 840.7 1087.9 L 858.3 1087.1 L 894.2 1087.3 L 921.7 1089.9 L 943.1 1094.2 L 956.5 1101.2 L 966.2 1106.2 L 977.0 1108.1 L 985.8 1106.9 L 1012.7 1102.6 L 1065.5 1089.7" stroke="#000" stroke-width="2" fill="none" stroke-linecap="round" stroke-linejoin="round" />
<path d="M 410.9 892.4 L 294.8 960.9" stroke="#000" stroke-width="2" fill="none" stroke-linecap="round" stroke-linejoin="round" />
<path d="M 566.0 891.1 L 744.6 905.9" stroke="#000" stroke-width="2" fill="none" stroke-linecap="round" stroke-linejoin="round" />
<path d="M 1304.4 1002.2 L 1230.3 1002.8 L 1066.4 1006.0 L 1049.1 1005.8 L 1036.7 1004.4 L 944.5 995.5 L 852.9 992.3" stroke="#000" stroke-width="2" fill="none" stroke-linecap="round" stroke-linejoin="round" />
<path d="M 748.0 821.7 L 747.5 866.5 L 747.2 891.2 L 744.6 905.9 L 743.6 924.2 L 740.9 971.3 L 737.2 1017.1 L 736.0 1050.2" stroke="#000" stroke-width="2" fill="none" stroke-linecap="round" stroke-linejoin="round" />
<path d="M 740.9 971.3 L 709.6 966.7 L 678.3 965.2 L 623.2 966.6" stroke="#000" stroke-width="2" fill="none" stroke-linecap="round" stroke-linejoin="round" />
<path d="M 1285.1 927.6 L 1284.8 936.7 L 1285.5 944.0 L 1286.3 949.0 L 1288.4 953.4 L 1290.4 955.5 L 1291.9 958.0 L 1294.7 967.4 L 1299.6 984.8 L 1304.4 1002.2 L 1308.0 1008.2 L 1311.6 1017.9 L 1323.5 1050.9 L 1328.1 1064.7 L 1332.8 1076.1 L 1337.3 1084.3 L 1341.2 1089.8" stroke="#000" stroke-width="2" fill="none" stroke-linecap="round" stroke-linejoin="round" />
<path d="M 455.2 1362.0 L 459.5 1362.6 L 470.0 1361.2 L 496.3 1356.1 L 507.6 1353.9 L 522.1 1352.7 L 611.2 1357.9 L 681.1 1359.6 L 801.8 1346.8 L 926.6 1339.8 L 976.1 1336.9 L 1018.4 1328.1 L 1179.2 1299.5 L 1207.8 1297.1 L 1234.4 1294.7 L 1270.3 1299.7 L 1305.5 1310.7 L 1323.1 1313.4 L 1349.5 1310.5 L 1356.5 1310.7 L 1397.0 1312.1 L 1439.9 1319.6 L 1484.3 1337.1 L 1507.8 1344.5 L 1636.9 1341.2 L 1648.5 1341.5" stroke="#000" stroke-width="2" fill="none" stroke-linecap="round" stroke-linejoin="round" />
<path d="M 1304.0 1226.7 L 1297.2 1156.6 L 1293.5 1133.2 L 1289.4 1107.1" stroke="#000" stroke-width="2" fill="none" stroke-linecap="round" stroke-linejoin="round" />
<path d="M 926.6 1339.8 L 923.6 1357.9 L 916.4 1381.4 L 913.5 1401.1 L 913.2 1419.9" stroke="#000" stroke-width="2" fill="none" stroke-linecap="round" stroke-linejoin="round" />
<path d="M 1205.0 1207.6 L 1202.8 1151.9" stroke="#000" stroke-width="2" fill="none" stroke-linecap="round" stroke-linejoin="round" />
<path d="M 1407.1 1227.0 L 1421.3 1166.3 L 1424.5 1148.7 L 1423.7 1113.4 L 1412.4 1072.8 L 1407.7 1057.5" stroke="#000" stroke-width="2" fill="none" stroke-linecap="round" stroke-linejoin="round" />
<path d="M 1423.7 1113.4 L 1551.8 1116.5 L 1676.6 1118.8" stroke="#000" stroke-width="2" fill="none" stroke-linecap="round" stroke-linejoin="round" />
<path d="M 692.5 1468.4 L 687.8 1407.5 L 681.1 1359.6 L 675.0 1342.4 L 668.5 1319.2 L 666.6 1294.8" stroke="#000" stroke-width="2" fill="none" stroke-linecap="round" stroke-linejoin="round" />
<path d="M 1179.2 1299.5 L 1180.5 1329.9 L 1183.0 1352.6 L 1184.5 1372.9 L 1185.0 1390.2 L 1188.4 1403.5 L 1210.6 1398.1 L 1236.8 1409.4" stroke="#000" stroke-width="2" fill="none" stroke-linecap="round" stroke-linejoin="round" />
<path d="M 184.1 973.2 L 217.2 962.2 L 225.9 958.1 L 245.8 946.5 L 264.5 939.8 L 282.8 926.6 L 342.5 896.2 L 349.6 889.5 L 352.9 884.4 L 358.1 879.7 L 366.5 875.5 L 377.1 874.3 L 386.9 871.5 L 398.7 864.8 L 426.8 852.4 L 446.8 842.8 L 464.3 838.0 L 484.8 834.0 L 504.9 833.0 L 543.0 836.1 L 576.3 840.0 L 662.1 849.5 L 684.8 848.4 L 695.7 849.4 L 747.5 866.5" stroke="#000" stroke-width="2" fill="none" stroke-linecap="round" stroke-linejoin="round" />
<path d="M 747.2 891.2 L 882.1 899.5 L 885.3 899.9 L 986.9 905.9 L 1039.7 909.1 L 1132.0 917.3 L 1285.1 927.6 L 1290.8 927.8 L 1374.2 932.7 L 1381.5 936.7 L 1386.6 941.0 L 1393.3 943.1 L 1401.9 943.3 L 1412.6 941.0 L 1436.5 934.7 L 1481.4 924.5" stroke="#000" stroke-width="2" fill="none" stroke-linecap="round" stroke-linejoin="round" />
<path d="M 853.0 183.4 L 856.9 186.3 L 869.0 189.3 L 1003.2 182.4 L 1061.0 179.4 L 1211.3 168.2" stroke="#000" stroke-width="2" fill="none" stroke-linecap="round" stroke-linejoin="round" />
<path d="M 861.5 168.7 L 854.4 169.0 L 853.4 172.8 L 852.7 175.3 L 852.3 178.9 L 853.0 183.4" stroke="#000" stroke-width="2" fill="none" stroke-linecap="round" stroke-linejoin="round" />
<path d="M 794.6 231.7 L 792.9 245.3 L 793.0 262.4 L 796.5 281.8 L 803.3 296.5 L 813.1 311.3 L 817.7 317.0 L 825.6 323.1 L 838.3 331.1 L 844.4 336.9 L 848.0 347.0 L 851.2 361.4 L 875.6 465.1 L 889.1 527.8 L 895.6 563.6 L 896.0 583.7 L 896.0 601.9 L 896.5 630.4 L 896.5 646.4 L 895.4 654.7 L 893.6 662.3" stroke="#000" stroke-width="2" fill="none" stroke-linecap="round" stroke-linejoin="round" />
<path d="M 701.1 435.7 L 660.5 432.5 L 599.2 425.9 L 521.6 415.7" stroke="#000" stroke-width="2" fill="none" stroke-linecap="round" stroke-linejoin="round" />
<path d="M 1022.9 -7.4 L 1028.9 77.5 L 1034.9 154.5 L 1035.2 158.2" stroke="#000" stroke-width="2" fill="none" stroke-linecap="round" stroke-linejoin="round" />
<path d="M 1895.5 839.5 L 1893.0 840.9 L 1883.2 846.2 L 1870.7 853.4 L 1825.3 878.8 L 1783.2 902.4 L 1751.7 918.2 L 1719.7 933.6 L 1666.4 958.3 L 1646.9 964.2 L 1623.7 971.2 L 1608.6 976.0 L 1601.0 978.3 L 1593.8 980.4 L 1540.4 996.4 L 1537.5 997.3 L 1522.1 1002.3 L 1502.1 1010.2 L 1407.7 1057.5 L 1370.5 1076.0 L 1341.2 1089.8 L 1324.1 1097.6 L 1304.9 1103.4 L 1289.4 1107.1 L 1211.0 1121.7 L 1204.2 1122.9 L 1135.1 1135.2 L 1087.1 1145.5 L 1072.3 1149.4 L 1059.7 1153.6 L 1051.8 1158.3" stroke="#000" stroke-width="2" fill="none" stroke-linecap="round" stroke-linejoin="round" />
<path d="M 1051.8 1158.3 L 1059.1 1147.0 L 1060.3 1143.4 L 1062.2 1137.2 L 1064.8 1122.5 L 1065.5 1109.3 L 1065.5 1089.7 L 1066.3 1015.6 L 1066.4 1006.0" stroke="#000" stroke-width="2" fill="none" stroke-linecap="round" stroke-linejoin="round" />
<path d="M 1051.8 1158.3 L 1050.2 1160.6 L 1038.0 1184.9 L 1031.5 1202.5" stroke="#000" stroke-width="2" fill="none" stroke-linecap="round" stroke-linejoin="round" />
<path d="M 992.1 378.3 L 940.1 376.8 L 935.7 378.3 L 934.6 381.6 L 934.4 386.0 L 933.7 390.4 L 922.6 407.9 L 923.0 410.9 L 925.1 413.0 L 928.6 413.4 L 931.5 410.9 L 945.8 393.8 L 948.0 393.3 L 950.5 393.8 L 955.1 398.1 L 957.8 400.0 L 960.9 400.6 L 964.7 398.4 L 972.8 389.4 L 974.5 388.5 L 976.6 388.4 L 990.0 393.4 L 992.1 395.5 L 992.8 397.9 L 993.0 401.5 L 992.3 405.2 L 989.6 408.2 L 984.3 410.2 L 979.3 412.2 L 970.4 413.8 L 965.4 413.8 L 958.5 415.6 L 946.4 421.7 L 940.2 423.7 L 934.5 425.9 L 933.5 429.1 L 934.8 432.1 L 937.6 433.9 L 945.0 433.9 L 971.0 434.2 L 973.1 435.9 L 974.6 439.0 L 974.9 444.9 L 972.8 452.4 L 969.3 457.9 L 965.9 459.9 L 962.5 459.6 L 956.9 456.2 L 952.5 445.0 L 949.9 442.9 L 944.5 442.0 L 938.5 444.9 L 937.1 449.4 L 938.9 469.5 L 940.6 472.9 L 944.3 473.7 L 952.1 473.8 L 957.5 474.1 L 960.0 474.8 L 962.2 477.9 L 962.0 482.6 L 962.1 487.5 L 963.6 489.9 L 966.8 490.9 L 969.2 490.0 L 970.6 488.1 L 973.8 476.0 L 977.1 456.6 L 981.5 442.7 L 996.0 416.6 L 1013.2 392.4 L 1013.7 390.2 L 1011.5 387.5 L 1008.7 386.3 L 1005.7 387.5 L 1002.6 387.8 L 999.5 386.5 L 997.8 383.2 L 995.8 380.2 L 992.1 378.3" stroke="#000" stroke-width="2" fill="none" stroke-linecap="round" stroke-linejoin="round" />
<path d="M 179.8 1247.7 L 190.4 1255.9 L 198.1 1260.6 L 206.5 1264.5 L 216.2 1266.7 L 225.9 1267.8 L 252.0 1267.5 L 287.7 1264.4 L 322.0 1260.5 L 443.8 1246.8 L 533.4 1240.6 L 614.5 1230.2 L 624.3 1227.7 L 658.0 1214.9" stroke="#000" stroke-width="2" fill="none" stroke-linecap="round" stroke-linejoin="round" />
<path d="M 773.8 94.9 L 769.9 94.9 L 767.5 94.9 L 734.3 95.1 L 706.3 95.2 L 699.4 95.2 L 661.4 97.4 L 630.0 98.3 L 613.8 98.6" stroke="#000" stroke-width="2" fill="none" stroke-linecap="round" stroke-linejoin="round" />
<path d="M 845.9 23.7 L 851.3 89.1 L 854.3 166.2 L 854.4 169.0" stroke="#000" stroke-width="2" fill="none" stroke-linecap="round" stroke-linejoin="round" />
<path d="M 611.6 185.2 L 613.5 160.3 L 607.9 141.7 L 599.1 134.3 L 583.2 126.9 L 562.1 117.1 L 543.5 109.2 L 528.6 104.9" stroke="#000" stroke-width="2" fill="none" stroke-linecap="round" stroke-linejoin="round" />
<path d="M 1208.1 66.6 L 1204.6 66.8 L 1054.5 75.8 L 1028.9 77.5 L 851.3 89.1 L 823.4 91.9 L 818.9 92.0 L 773.8 94.9" stroke="#000" stroke-width="2" fill="none" stroke-linecap="round" stroke-linejoin="round" />
<path d="M 1036.7 1004.4 L 1039.7 909.1" stroke="#000" stroke-width="2" fill="none" stroke-linecap="round" stroke-linejoin="round" />
<path d="M 710.1 489.8 L 523.1 473.0 L 520.2 471.8 L 519.6 469.2 L 521.6 415.7" stroke="#000" stroke-width="2" fill="none" stroke-linecap="round" stroke-linejoin="round" />
<path d="M 693.3 200.1 L 758.0 154.6 L 761.6 157.0 L 764.8 156.9 L 763.3 222.0" stroke="#000" stroke-width="2" fill="none" stroke-linecap="round" stroke-linejoin="round" />
<path d="M 1055.3 239.0 L 1052.5 247.2 L 1050.3 266.1 L 1046.9 277.5 L 1044.4 281.1 L 1037.7 284.7 L 1021.9 287.6 L 997.3 288.7 L 976.1 296.0 L 968.6 302.1 L 961.5 305.3" stroke="#000" stroke-width="2" fill="none" stroke-linecap="round" stroke-linejoin="round" />
<path d="M 853.8 7.3 L 849.1 10.0 L 846.6 13.3 L 845.7 17.1 L 845.9 23.7" stroke="#000" stroke-width="2" fill="none" stroke-linecap="round" stroke-linejoin="round" />
<path d="M 852.3 178.9 L 843.7 178.1 L 836.9 176.6" stroke="#000" stroke-width="2" fill="none" stroke-linecap="round" stroke-linejoin="round" />
<path d="M 556.5 940.5 L 516.3 939.1" stroke="#000" stroke-width="2" fill="none" stroke-linecap="round" stroke-linejoin="round" />
<path d="M 1072.3 1149.4 L 1065.3 1149.2 L 1062.4 1147.4 L 1060.3 1143.4" stroke="#000" stroke-width="2" fill="none" stroke-linecap="round" stroke-linejoin="round" />
<path d="M 1412.4 1072.8 L 1592.1 1031.9 L 1603.3 1029.1 L 1675.7 1007.3" stroke="#000" stroke-width="2" fill="none" stroke-linecap="round" stroke-linejoin="round" />
<path d="M 350.0 816.3 L 344.0 795.2 L 340.0 763.3 L 335.8 759.9 L 226.4 734.8 L 176.5 736.1" stroke="#000" stroke-width="2" fill="none" stroke-linecap="round" stroke-linejoin="round" />
<path d="M 399.6 510.3 L 380.7 509.6 L 355.0 510.6 L 330.3 512.0 L 306.9 514.1 L 274.6 518.1 L 260.2 519.2 L 245.9 518.8 L 235.1 518.1 L 220.9 514.1 L 200.4 507.5 L 184.8 502.1 L 178.3 499.8" stroke="#000" stroke-width="2" fill="none" stroke-linecap="round" stroke-linejoin="round" />
<path d="M 1475.0 -34.6 L 1367.5 -27.9 L 1365.2 -27.7 L 1361.8 -27.6 L 1360.0 -27.5 L 1302.5 -24.4 L 1203.2 -19.0 L 1201.2 -18.9 L 1035.6 -8.2 L 1022.9 -7.4 L 882.9 0.5 L 869.1 2.6 L 853.8 7.3" stroke="#000" stroke-width="2" fill="none" stroke-linecap="round" stroke-linejoin="round" />
<path d="M 874.9 236.0 L 841.8 227.8 L 831.5 226.9 L 819.3 227.3 L 805.4 230.5 L 800.7 232.0 L 794.6 231.7" stroke="#000" stroke-width="2" fill="none" stroke-linecap="round" stroke-linejoin="round" />
<path d="M 1365.0 723.8 L 1424.7 712.9 L 1455.3 708.4 L 1539.1 693.4 L 1593.3 675.6 L 1649.6 656.1 L 1686.8 645.9 L 1690.6 645.0 L 1716.5 638.6 L 1738.6 632.8 L 1782.2 620.7 L 1786.6 619.5" stroke="#000" stroke-width="2" fill="none" stroke-linecap="round" stroke-linejoin="round" />
<path d="M 701.0 433.5 L 789.1 432.6" stroke="#000" stroke-width="2" fill="none" stroke-linecap="round" stroke-linejoin="round" />
<path d="M 162.5 906.6 L 169.5 899.0 L 184.3 882.8 L 195.5 877.1 L 208.2 876.6 L 231.6 874.0 L 265.6 871.7 L 301.8 868.8 L 319.2 868.3 L 333.9 867.3" stroke="#000" stroke-width="2" fill="none" stroke-linecap="round" stroke-linejoin="round" />
<path d="M 1294.9 644.8 L 1288.5 647.0" stroke="#000" stroke-width="2" fill="none" stroke-linecap="round" stroke-linejoin="round" />
<path d="M 1594.8 517.3 L 1588.4 521.6 L 1581.2 525.6 L 1510.7 561.2 L 1490.4 571.3 L 1463.4 582.7 L 1396.8 607.1 L 1318.8 636.3 L 1294.9 644.8" stroke="#000" stroke-width="2" fill="none" stroke-linecap="round" stroke-linejoin="round" />
<path d="M 522.1 1352.7 L 563.4 1313.0 L 629.5 1279.8" stroke="#000" stroke-width="2" fill="none" stroke-linecap="round" stroke-linejoin="round" />
  

  <path d="M 1611.1 489.0 L 1600.5 486.2 L 1588.0 478.0 L 1575.0 464.8 L 1551.9 433.7 L 1531.8 403.9 L 1517.4 376.3 L 1510.9 353.8 L 1507.9 334.4 L 1504.6 300.1 L 1492.5 157.6" stroke="#000" stroke-width="5" fill="none" stroke-linecap="round" stroke-linejoin="round" />
<path d="M 1602.1 492.6 L 1599.3 496.6 L 1598.3 501.4 L 1599.2 506.2 L 1601.9 510.3 L 1606.0 513.1 L 1610.8 514.0 L 1615.6 513.1 L 1619.6 510.5 L 1622.3 506.5 L 1623.3 501.9 L 1622.5 497.1 L 1619.9 492.9 L 1615.6 489.8 L 1611.1 489.0 L 1606.2 489.9 L 1602.1 492.6" stroke="#000" stroke-width="5" fill="none" stroke-linecap="round" stroke-linejoin="round" />
<path d="M 1485.3 157.8 L 1497.9 300.3 L 1498.9 315.3 L 1502.1 343.4 L 1504.3 358.3 L 1508.4 374.3 L 1515.9 392.4 L 1530.4 417.4 L 1552.1 444.7 L 1590.1 494.3 L 1598.3 501.4" stroke="#000" stroke-width="5" fill="none" stroke-linecap="round" stroke-linejoin="round" />
<path d="M 1218.7 274.5 L 1287.4 281.6 L 1383.1 290.1 L 1457.2 296.7 L 1493.9 300.0 L 1497.9 300.3" stroke="#000" stroke-width="5" fill="none" stroke-linecap="round" stroke-linejoin="round" />
<path d="M 1200.0 -165.2 L 1200.1 -134.3 L 1200.2 -114.4 L 1200.2 -110.4 L 1200.3 -105.4 L 1201.0 -73.1 L 1201.2 -25.6 L 1201.2 -18.9 L 1204.6 66.8 L 1209.6 143.5 L 1209.8 147.5 L 1210.0 149.9 L 1210.1 152.3 L 1210.5 158.1 L 1211.3 168.2 L 1218.7 274.5" stroke="#000" stroke-width="5" fill="none" stroke-linecap="round" stroke-linejoin="round" />
<path d="M 1611.1 489.0 L 1600.5 486.2 L 1588.0 478.0 L 1575.0 464.8 L 1551.9 433.7 L 1531.8 403.9 L 1517.4 376.3 L 1510.9 353.8 L 1507.9 334.4 L 1504.6 300.1 L 1492.5 157.6" stroke="#fff" stroke-width="2.2" fill="none" stroke-linecap="round" stroke-linejoin="round"/>
<path d="M 1602.1 492.6 L 1599.3 496.6 L 1598.3 501.4 L 1599.2 506.2 L 1601.9 510.3 L 1606.0 513.1 L 1610.8 514.0 L 1615.6 513.1 L 1619.6 510.5 L 1622.3 506.5 L 1623.3 501.9 L 1622.5 497.1 L 1619.9 492.9 L 1615.6 489.8 L 1611.1 489.0 L 1606.2 489.9 L 1602.1 492.6" stroke="#fff" stroke-width="2.2" fill="none" stroke-linecap="round" stroke-linejoin="round"/>
<path d="M 1485.3 157.8 L 1497.9 300.3 L 1498.9 315.3 L 1502.1 343.4 L 1504.3 358.3 L 1508.4 374.3 L 1515.9 392.4 L 1530.4 417.4 L 1552.1 444.7 L 1590.1 494.3 L 1598.3 501.4" stroke="#fff" stroke-width="2.2" fill="none" stroke-linecap="round" stroke-linejoin="round"/>
<path d="M 1218.7 274.5 L 1287.4 281.6 L 1383.1 290.1 L 1457.2 296.7 L 1493.9 300.0 L 1497.9 300.3" stroke="#fff" stroke-width="2.2" fill="none" stroke-linecap="round" stroke-linejoin="round"/>
<path d="M 1200.0 -165.2 L 1200.1 -134.3 L 1200.2 -114.4 L 1200.2 -110.4 L 1200.3 -105.4 L 1201.0 -73.1 L 1201.2 -25.6 L 1201.2 -18.9 L 1204.6 66.8 L 1209.6 143.5 L 1209.8 147.5 L 1210.0 149.9 L 1210.1 152.3 L 1210.5 158.1 L 1211.3 168.2 L 1218.7 274.5" stroke="#fff" stroke-width="2.2" fill="none" stroke-linecap="round" stroke-linejoin="round"/>
  
    <g stroke="#000" fill="none" stroke-width="2.9952">
      <circle cx="936" cy="702" r="16.848" fill="#fff" fill-opacity="0.7"/>
      <circle cx="936" cy="702" r="3.744" fill="#000" stroke="none"/>
    </g>
  <rect width="100%" height="100%" fill="url(#vignette)"/>
  
    <g transform="translate(1776, 116)" stroke="#000" stroke-width="2.2464" fill="#000">
      <line x1="0" y1="37.44" x2="0" y2="-37.44"/>
      <path d="M 0 -37.44 L 13.104 -13.104 L 0 -22.464 L -13.104 -13.104 Z"/>
      <text x="0" y="59.44" text-anchor="middle" font-family="Georgia, serif" font-size="22.464000000000002">N</text>
    </g>
  
    <g stroke="#000" stroke-width="2.2464" fill="#000" font-family="Georgia, serif">
      <line x1="96" y1="1308" x2="291" y2="1308"/>
      <line x1="96" y1="1301" x2="96" y2="1315"/>
      <line x1="193.5" y1="1304" x2="193.5" y2="1312"/>
      <line x1="291" y1="1301" x2="291" y2="1315"/>
      <text x="193.5" y="1294" text-anchor="middle" font-size="20.592" stroke="none">250 m</text>
    </g>
  <rect x="66" y="66" width="1740" height="1272" fill="none" stroke="#000" stroke-width="2" stroke-opacity="0.7"/>
  <rect x="74" y="74" width="1724" height="1256" fill="none" stroke="#000" stroke-width="1" stroke-opacity="0.4"/>
  
</svg>