<svg xmlns="http://www.w3.org/2000/svg" width="1872" height="1404" viewBox="0 0 1872 1404">
  <defs>
    <radialGradient id="vignette" cx="50%" cy="50%" r="954.72" gradientUnits="userSpaceOnUse">
      <stop offset="55%" stop-color="#fff" stop-opacity="0"/>
      <stop offset="100%" stop-color="#fff" stop-opacity="1"/>
    </radialGradient>
    <pattern id="hatch" patternUnits="userSpaceOnUse" width="9" height="9" patternTransform="rotate(45)">
      <line x1="0" y1="0" x2="0" y2="9" stroke="#000" stroke-width="0.9" stroke-opacity="0.4"/>
    </pattern>
  </defs>
  <rect width="100%" height="100%" fill="#fff"/>
  
  
  <path d="M 1046.4 611.7 L 943.9 545.7 L 914.1 529.8 L 866.4 497.3 L 849.2 485.5 L 833.9 480.1 L 819.0 475.7" stroke="#6e6e6e" stroke-width="4.5" fill="none" stroke-linecap="round" stroke-linejoin="round" />
<path d="M 794.4 483.8 L 778.5 478.4 L 762.9 478.1 L 749.0 481.4 L 736.5 489.9 L 732.8 498.0 L 729.7 508.5 L 732.8 514.9 L 744.6 524.1 L 755.5 533.9 L 762.9 543.3" stroke="#6e6e6e" stroke-width="4.5" fill="none" stroke-linecap="round" stroke-linejoin="round" />
<path d="M 970.3 -34.8 L 982.5 -12.1 L 998.4 22.4 L 1012.2 57.2 L 1021.7 81.9 L 1026.1 94.8 L 1026.1 99.2 L 1023.7 102.5 L 1017.6 103.2 L 1007.8 102.5 L 998.7 104.2 L 995.7 107.3 L 993.3 116.8 L 991.3 121.8 L 985.5 124.5 L 979.4 133.3 L 978.7 143.8 L 980.5 156.6" stroke="#6e6e6e" stroke-width="4.5" fill="none" stroke-linecap="round" stroke-linejoin="round" />
<path d="M 2454.4 -4437.5 L 2474.0 -4383.5 L 2509.6 -4318.9 L 2600.0 -4109.2 L 2655.0 -3983.1 L 2677.3 -3932.5 L 2709.9 -3858.3 L 2697.5 -3780.2 L 2605.6 -3716.5 L 2608.5 -3698.9 L 2617.5 -3682.2 L 2627.0 -3673.2 L 2638.9 -3664.1 L 2645.1 -3652.7 L 2643.2 -3647.5 L 2637.5 -3642.7 L 2624.6 -3642.7 L 2613.7 -3637.0 L 2606.1 -3627.9 L 2594.7 -3618.4 L 2581.8 -3610.3 L 2578.5 -3602.7 L 2581.8 -3592.2 L 2585.1 -3585.1 L 2585.1 -3578.4 L 2581.8 -3571.3 L 2575.6 -3563.2 L 2564.2 -3554.6 L 2566.6 -3544.2 L 2574.2 -3537.0 L 2578.9 -3526.1 L 2573.2 -3519.4 L 2563.7 -3516.1 L 2552.3 -3518.0 L 2545.1 -3513.7 L 2549.0 -3504.6 L 2558.0 -3491.8 L 2568.5 -3473.7 L 2577.0 -3461.3 L 2579.4 -3451.8 L 2583.2 -3442.3 L 2597.5 -3421.8 L 2606.6 -3412.3 L 2619.9 -3404.7 L 2628.5 -3399.4 L 2634.2 -3390.4 L 2634.6 -3380.4 L 2638.0 -3372.3 L 2647.0 -3366.6 L 2661.8 -3361.8 L 2671.8 -3361.3 L 2683.7 -3359.4 L 2683.7 -3370.4 L 2688.9 -3380.9 L 2695.6 -3388.0 L 2706.5 -3389.4 L 2714.6 -3386.6 L 2717.5 -3378.5 L 2713.7 -3372.3 L 2707.5 -3368.0 L 2702.3 -3362.3 L 2710.3 -3359.0 L 2723.7 -3357.5 L 2732.2 -3349.4 L 2741.8 -3339.0 L 2758.4 -3322.3 L 2760.3 -3310.9 L 2758.9 -3301.4 L 2765.1 -3297.1 L 2779.9 -3297.6 L 2785.6 -3303.7 L 2797.0 -3306.1 L 2809.8 -3301.4 L 2812.2 -3289.0 L 2809.8 -3283.3 L 2801.3 -3277.6 L 2790.8 -3272.8 L 2790.3 -3262.3 L 2801.8 -3246.1 L 2818.4 -3233.8 L 2848.9 -3232.8 L 2860.3 -3235.7 L 2867.9 -3238.0 L 2871.7 -3233.3 L 2867.5 -3225.2 L 2863.2 -3218.5 L 2851.8 -3218.2 L 2844.0 -3216.1 L 2837.7 -3211.1 L 2837.4 -3206.9 L 2841.2 -3201.6 L 2849.3 -3196.7 L 2855.3 -3190.8 L 2859.9 -3184.1 L 2862.0 -3178.1 L 2861.6 -3164.7 L 2862.7 -3136.6 L 2862.7 -3123.6 L 2860.2 -3114.4 L 2857.4 -3107.4 L 2856.7 -3101.1 L 2858.5 -3094.7 L 2862.3 -3089.8 L 2865.5 -3083.5 L 2863.4 -3078.2 L 2855.6 -3076.4 L 2847.6 -3076.1 L 2841.9 -3072.2 L 2841.2 -3066.6 L 2843.7 -3057.5 L 2865.5 -3026.5 L 2947.4 -2922.4 L 2966.8 -2894.3 L 2997.0 -2842.2 L 3017.8 -2791.9 L 3026.9 -2756.1 L 3029.0 -2730.4 L 3027.6 -2712.5 L 3017.1 -2688.5 L 3003.0 -2651.3 L 2986.8 -2613.3 L 2967.5 -2576.0 L 2941.8 -2532.8 L 2915.8 -2485.6 L 2896.1 -2450.1 L 2876.4 -2412.5 L 2864.4 -2393.5 L 2834.5 -2318.2 L 2790.2 -2207.4 L 2769.5 -2158.6 L 2761.0 -2130.4 L 2756.1 -2089.6 L 2755.8 -2052.7 L 2760.0 -1970.1 L 2759.6 -1902.9 L 2756.8 -1847.3 L 2752.6 -1824.8 L 2740.6 -1779.4 L 2726.9 -1738.7 L 2716.4 -1711.6 L 2709.3 -1683.8 L 2702.3 -1653.9 L 2702.7 -1628.2 L 2705.1 -1614.2 L 2710.4 -1594.5 L 2715.3 -1583.6 L 2719.9 -1572.3 L 2726.6 -1554.7 L 2732.9 -1538.2 L 2737.8 -1527.6 L 2741.3 -1516.7 L 2750.5 -1499.9 L 2754.7 -1491.4 L 2755.1 -1486.1 L 2754.4 -1479.1 L 2753.7 -1474.5 L 2755.8 -1468.6 L 2757.9 -1463.6 L 2762.5 -1450.6 L 2771.2 -1436.2 L 2776.9 -1423.2 L 2779.7 -1412.3 L 2782.8 -1399.3 L 2789.9 -1382.0 L 2797.6 -1359.9 L 2813.8 -1331.4 L 2824.3 -1316.3 L 2835.3 -1303.3 L 2847.9 -1289.9 L 2865.7 -1276.2 L 2877.8 -1272.5 L 2890.1 -1257.6 L 2901.5 -1242.5 L 2908.5 -1228.5 L 2911.5 -1213.4 L 2904.9 -1205.9 L 2873.2 -1171.7 L 2865.1 -1158.7 L 2853.9 -1142.5 L 2849.7 -1130.9 L 2843.3 -1108.4 L 2839.5 -1097.5 L 2836.0 -1094.4 L 2831.4 -1094.4 L 2825.4 -1093.3 L 2821.9 -1087.7 L 2821.5 -1081.7 L 2822.9 -1076.4 L 2830.3 -1064.8 L 2840.5 -1050.1 L 2845.1 -1036.0 L 2845.1 -1029.3 L 2842.6 -1025.8 L 2836.3 -1025.1 L 2829.6 -1026.8 L 2821.5 -1028.3 L 2816.6 -1026.8 L 2810.6 -1022.6 L 2800.4 -1009.3 L 2781.4 -982.2 L 2779.3 -976.6 L 2778.3 -972.0 L 2779.0 -966.0 L 2780.7 -960.7 L 2785.3 -946.3 L 2785.3 -939.3 L 2782.5 -935.1 L 2776.5 -931.5 L 2765.3 -923.4 L 2757.2 -918.5 L 2748.7 -917.5 L 2741.7 -919.9 L 2734.3 -927.3 L 2724.8 -931.2 L 2715.7 -929.1 L 2705.5 -922.4 L 2701.3 -913.6 L 2703.0 -905.9 L 2708.3 -899.9 L 2721.3 -892.1 L 2737.1 -885.8 L 2745.9 -883.0 L 2751.9 -879.1 L 2753.3 -873.5 L 2753.3 -863.3 L 2751.5 -852.1 L 2748.0 -836.9 L 2747.7 -822.2 L 2751.9 -804.9 L 2752.3 -799.3 L 2751.2 -796.1 L 2747.3 -794.0 L 2741.0 -792.3 L 2727.6 -789.1 L 2716.4 -783.5 L 2701.3 -772.6 L 2692.1 -762.7 L 2677.7 -743.7 L 2665.4 -731.4 L 2658.4 -721.9 L 2652.4 -708.6 L 2647.1 -696.6 L 2639.7 -686.8 L 2632.3 -679.0 L 2626.0 -676.6 L 2614.0 -675.9 L 2598.6 -673.4 L 2589.4 -670.9 L 2583.8 -663.5 L 2579.6 -652.7 L 2576.4 -639.3 L 2571.1 -625.6 L 2562.3 -612.2 L 2551.8 -596.4 L 2545.1 -579.5 L 2540.2 -562.3 L 2540.5 -552.8 L 2544.8 -544.7 L 2549.0 -538.0 L 2559.9 -530.3 L 2568.3 -523.9 L 2581.3 -507.8 L 2602.1 -472.9 L 2617.2 -439.5 L 2627.1 -416.0 L 2634.8 -380.1 L 2642.9 -335.8 L 2643.9 -323.8 L 2640.1 -313.6 L 2632.9 -300.3 L 2622.0 -281.8 L 2616.1 -266.0 L 2610.5 -243.9 L 2599.3 -197.7 L 2598.6 -185.8 L 2599.3 -167.2 L 2600.7 -138.5 L 2600.3 -108.8 L 2599.6 -85.6 L 2596.8 -69.2 L 2587.4 -46.4 L 2576.9 -25.8 L 2570.2 -12.1 L 2563.5 2.3 L 2560.7 19.8 L 2557.6 49.2 L 2553.6 77.8 L 2550.8 93.1 L 2546.9 112.2 L 2541.8 124.3 L 2536.7 127.5 L 2532.6 125.9 L 2527.3 120.5 L 2521.5 121.0 L 2506.7 120.6 L 2472.6 124.0 L 2421.5 135.0 L 2395.9 137.5 L 2390.2 141.4 L 2384.8 148.5 L 2361.0 198.0 L 2345.7 231.0 L 2337.4 237.0 L 2326.7 237.0 L 2312.3 231.0 L 2279.8 218.0 L 2241.8 207.8 L 2205.6 193.4 L 2115.8 147.7 L 2005.0 106.6 L 1891.6 93.1 L 1835.0 97.9 L 1736.4 101.9 L 1637.7 98.5 L 1603.6 101.5 L 1562.0 105.2 L 1511.6 106.6 L 1481.5 105.2 L 1461.1 100.2 L 1448.0 92.4 L 1437.5 84.6 L 1421.9 69.4 L 1399.9 51.8 L 1373.2 28.8 L 1363.7 19.3 L 1357.6 10.2 L 1349.9 3.4 L 1341.1 -0.3 L 1331.6 -2.0 L 1324.5 -2.7 L 1310.3 -1.7 L 1297.1 1.1 L 1280.8 1.4 L 1273.4 0.7 L 1265.6 -3.7 L 1262.6 -6.7 L 1261.6 -11.8 L 1261.9 -20.9 L 1263.9 -30.4 L 1268.0 -41.2 L 1270.0 -52.1 L 1269.0 -58.8 L 1265.6 -63.2 L 1261.9 -68.0 L 1255.5 -71.7 L 1246.0 -72.7 L 1238.9 -72.0 L 1231.1 -66.6 L 1224.3 -58.5 L 1217.9 -43.9 L 1214.2 -24.3 L 1212.8 -9.1 L 1209.8 3.4 L 1208.1 6.8 L 1194.6 22.7 L 1171.6 47.7 L 1159.1 57.9 L 1138.4 66.3 L 1119.1 76.5 L 1094.4 94.8 L 1071.4 112.7 L 1054.2 127.6 L 1037.3 140.8 L 1023.1 147.9 L 1000.7 153.6 L 980.5 156.6 L 972.7 157.7 L 949.0 163.4 L 925.3 173.2 L 901.3 182.0 L 891.1 186.1 L 880.0 194.9 L 877.6 201.0 L 878.6 208.8 L 883.3 217.6 L 891.1 223.0 L 901.6 228.1 L 907.7 237.2 L 909.4 245.0 L 907.4 255.5 L 903.6 267.6 L 885.0 291.6 L 876.9 300.1 L 857.1 331.3 L 848.5 361.8 L 839.1 386.1 L 838.6 406.9 L 836.6 432.7 L 827.7 458.5 L 819.0 475.7 L 797.0 519.4 L 742.5 620.0 L 719.7 667.1 L 672.5 733.2 L 662.7 746.8 L 509.6 924.7 L 456.9 969.8 L 412.2 1025.2 L 403.8 1051.1 L 396.5 1082.4 L 430.2 1154.6 L 427.1 1204.4 L 396.7 1215.9 L 349.2 1236.5 L 285.4 1163.7 L 240.9 1149.3 L 194.9 1188.7 L 202.1 1247.0 L 204.6 1270.1 L 234.7 1336.1 L 185.3 1361.3 L 169.5 1411.6 L 159.3 1450.7 L 152.8 1555.0 L 177.9 1597.8 L 222.6 1625.8 L 263.6 1637.9 L 301.8 1657.4 L 313.9 1676.1 L 328.8 1722.6 L 328.8 1758.0 L 324.1 1794.3 L 316.7 1839.0 L 304.6 1912.6 L 268.2 1975.0 L 221.7 2051.4 L 153.7 2117.5 L 115.5 2173.4 L 81.0 2252.5 L 82.9 2331.7 L 114.6 2451.8 L 107.5 2484.8 L 99.7 2521.7 L 72.7 2608.3 L 30.2 2729.7 L 19.6 2760.1 L -6.5 2840.2 L -84.7 3063.7 L -84.7 3065.5 L -110.8 3234.1 L -112.1 3253.5 L -161.6 4009.6 L -221.2 4257.0 L -290.4 4544.3 L -351.8 4682.3 L -525.1 5071.9 L -625.7 5391.3 L -665.5 5498.6 L -899.2 6128.8 L -1012.1 6432.3 L -1016.4 6492.1 L -1029.8 6681.2 L -1063.3 7199.9 L -1091.0 7540.2 L -1096.8 7611.1 L -1239.7 7888.1 L -1333.3 8154.6 L -1277.3 8409.5 L -1205.4 8676.5 L -1054.4 9192.7 L -821.5 10289.1 L -640.2 10932.7 L -545.0 11271.0 L -460.2 11455.7 L -190.3 12043.9 L -106.9 12225.5 L 132.2 12836.4" stroke="#6e6e6e" stroke-width="4.5" fill="none" stroke-linecap="round" stroke-linejoin="round" />
<path d="M 672.5 733.2 L 658.8 718.5 L 656.3 700.5 L 642.6 682.4 L 607.6 675.7 L 572.2 678.2 L 550.8 693.4 L 553.3 737.6 L 558.0 764.1 L 550.2 771.5 L 540.9 774.6 L 526.8 770.5 L 496.4 762.0 L 476.2 770.7 L 446.0 770.7 L 420.6 759.3 L 394.1 755.3 L 375.2 776.8 L 366.3 808.4 L 351.2 843.7 L 322.1 869.0 L 318.3 918.3 L 351.2 953.6 L 387.8 949.5 L 411.8 941.4 L 424.9 930.4 L 442.2 925.7 L 451.2 928.1 L 463.2 932.6 L 466.0 952.0 L 456.9 969.8" stroke="#6e6e6e" stroke-width="4.5" fill="none" stroke-linecap="round" stroke-linejoin="round" />
  
  <path d="M 1029.6 203.3 L 1033.3 203.5 L 1037.4 204.4 L 1044.4 206.6 L 1060.7 211.3 L 1066.6 211.9 L 1072.2 211.7 L 1078.8 210.3 L 1085.0 207.8 L 1092.3 202.4 L 1116.6 174.0 L 1125.9 160.0" stroke="#000" stroke-width="1.1" fill="none" stroke-linecap="round" stroke-linejoin="round" stroke-opacity="0.75"/>
<path d="M 1142.9 131.4 L 1150.2 143.1 L 1170.2 166.0" stroke="#000" stroke-width="1.1" fill="none" stroke-linecap="round" stroke-linejoin="round" stroke-opacity="0.75"/>
<path d="M 1159.8 105.8 L 1135.1 114.3 L 1116.2 126.1" stroke="#000" stroke-width="1.1" fill="none" stroke-linecap="round" stroke-linejoin="round" stroke-opacity="0.75"/>
<path d="M 1350.8 763.7 L 1365.6 758.5 L 1397.1 747.6 L 1412.7 740.8 L 1454.9 722.9" stroke="#000" stroke-width="1.1" fill="none" stroke-linecap="round" stroke-linejoin="round" stroke-opacity="0.75"/>
<path d="M 1288.0 1011.2 L 1293.2 1004.6 L 1299.2 998.7 L 1302.8 993.9 L 1302.8 988.3 L 1301.2 982.8 L 1301.5 977.3 L 1304.5 972.6 L 1309.9 966.9 L 1312.1 962.8 L 1313.6 955.8 L 1313.9 942.7" stroke="#000" stroke-width="1.1" fill="none" stroke-linecap="round" stroke-linejoin="round" stroke-opacity="0.75"/>
<path d="M 1273.8 1004.9 L 1279.9 1007.8 L 1288.0 1011.2 L 1292.5 1018.2 L 1308.5 1051.7 L 1333.0 1096.1" stroke="#000" stroke-width="1.1" fill="none" stroke-linecap="round" stroke-linejoin="round" stroke-opacity="0.75"/>
<path d="M 1308.8 1109.5 L 1278.7 1057.3 L 1274.8 1055.0 L 1271.6 1054.3 L 1267.6 1054.1 L 1262.8 1055.4 L 1236.9 1068.3 L 1233.9 1070.8 L 1231.2 1073.2 L 1230.3 1077.0 L 1231.4 1082.1 L 1242.1 1100.4 L 1250.1 1112.2 L 1256.6 1121.7 L 1264.5 1135.5" stroke="#000" stroke-width="1.1" fill="none" stroke-linecap="round" stroke-linejoin="round" stroke-opacity="0.75"/>
<path d="M 1404.0 259.8 L 1395.8 266.9 L 1393.4 269.2 L 1391.2 273.0 L 1390.4 275.4 L 1388.8 278.2 L 1386.0 279.9 L 1375.8 287.6" stroke="#000" stroke-width="1.1" fill="none" stroke-linecap="round" stroke-linejoin="round" stroke-opacity="0.75"/>
<path d="M 1713.9 674.6 L 1568.7 535.0" stroke="#000" stroke-width="1.1" fill="none" stroke-linecap="round" stroke-linejoin="round" stroke-opacity="0.75"/>
<path d="M 1426.0 267.1 L 1430.8 253.6 L 1442.9 231.7 L 1447.3 225.1" stroke="#000" stroke-width="1.1" fill="none" stroke-linecap="round" stroke-linejoin="round" stroke-opacity="0.75"/>
<path d="M 1330.7 160.2 L 1320.0 166.0 L 1311.4 171.6 L 1306.0 176.0 L 1300.5 179.2 L 1294.3 179.2 L 1289.8 176.4 L 1287.7 167.5 L 1288.1 165.5 L 1290.9 165.0" stroke="#000" stroke-width="1.1" fill="none" stroke-linecap="round" stroke-linejoin="round" stroke-opacity="0.75"/>
<path d="M 1689.0 748.2 L 1655.1 738.8 L 1636.6 727.3 L 1632.0 718.5" stroke="#000" stroke-width="1.1" fill="none" stroke-linecap="round" stroke-linejoin="round" stroke-opacity="0.75"/>
<path d="M 1366.4 717.4 L 1368.2 718.7 L 1369.1 719.4 L 1369.4 720.0 L 1369.7 720.6 L 1368.7 725.5 L 1366.2 739.5 L 1364.2 748.0 L 1363.5 751.5 L 1363.1 755.4 L 1364.1 757.2 L 1364.8 757.9 L 1365.6 758.5" stroke="#000" stroke-width="1.1" fill="none" stroke-linecap="round" stroke-linejoin="round" stroke-opacity="0.75"/>
<path d="M 1531.4 376.2 L 1536.8 372.8 L 1538.7 370.1 L 1538.6 368.8 L 1538.3 367.7 L 1538.0 365.2 L 1538.2 364.1 L 1538.8 363.1 L 1541.8 360.0 L 1547.4 353.8" stroke="#000" stroke-width="1.1" fill="none" stroke-linecap="round" stroke-linejoin="round" stroke-opacity="0.75"/>
<path d="M 1163.7 407.5 L 1192.6 430.1 L 1193.8 430.5 L 1194.8 430.4 L 1196.0 430.1 L 1197.5 430.3 L 1198.4 430.7 L 1200.9 432.8" stroke="#000" stroke-width="1.1" fill="none" stroke-linecap="round" stroke-linejoin="round" stroke-opacity="0.75"/>
<path d="M 1312.3 299.3 L 1312.7 297.7 L 1313.9 290.9 L 1313.6 288.1 L 1312.2 285.5 L 1309.2 280.0 L 1298.8 263.1" stroke="#000" stroke-width="1.1" fill="none" stroke-linecap="round" stroke-linejoin="round" stroke-opacity="0.75"/>
  <path d="M 1264.5 1135.5 L 1238.1 1150.6 L 1233.9 1151.5 L 1230.8 1151.2 L 1228.4 1147.5 L 1223.7 1139.0 L 1201.1 1097.6 L 1182.4 1064.3 L 1161.6 1027.5 L 1160.0 1023.0 L 1161.5 1019.0 L 1165.3 1016.5 L 1210.8 1004.7 L 1255.1 994.4 L 1260.0 995.1 L 1266.0 999.0 L 1273.8 1004.9" stroke="#000" stroke-width="0.8" fill="none" stroke-linecap="round" stroke-linejoin="round" stroke-opacity="0.5" stroke-dasharray="4 5"/>
<path d="M 1210.8 1004.7 L 1217.7 955.4 L 1220.7 949.8 L 1225.8 946.2 L 1229.9 941.0 L 1234.1 930.6" stroke="#000" stroke-width="0.8" fill="none" stroke-linecap="round" stroke-linejoin="round" stroke-opacity="0.5" stroke-dasharray="4 5"/>
<path d="M 214.1 -314.4 L 546.6 145.0 L 567.0 181.0 L 570.6 212.1 L 595.4 231.2 L 626.6 247.5 L 654.8 257.4 L 685.5 268.8 L 709.8 271.7 L 725.6 257.9 L 739.5 244.0 L 739.5 219.3" stroke="#000" stroke-width="0.8" fill="none" stroke-linecap="round" stroke-linejoin="round" stroke-opacity="0.5" stroke-dasharray="4 5"/>
  <path d="M 1264.5 1135.5 L 1308.8 1109.5 L 1333.0 1096.1 L 1395.3 1059.5 L 1456.8 1032.0 L 1500.6 1006.9 L 1550.8 969.6 L 1592.8 932.4 L 1637.0 876.0 L 1653.8 843.4 L 1678.9 778.3 L 1689.0 748.2 L 1713.9 674.6 L 1728.7 630.7 L 1743.2 587.8" stroke="#000" stroke-width="2" fill="none" stroke-linecap="round" stroke-linejoin="round" />
<path d="M 1233.2 -118.2 L 1230.2 -105.4 L 1229.9 -97.8 L 1230.6 -92.0 L 1230.7 -84.5 L 1228.8 -81.1 L 1225.6 -74.7 L 1222.3 -69.2 L 1217.6 -62.5 L 1213.5 -48.5 L 1209.2 -34.5 L 1206.1 -24.8 L 1201.8 -13.2 L 1189.5 -2.6 L 1176.5 6.7 L 1168.3 12.3 L 1163.2 16.5 L 1151.8 28.6 L 1142.7 36.7 L 1093.8 65.4" stroke="#000" stroke-width="2" fill="none" stroke-linecap="round" stroke-linejoin="round" />
<path d="M 1391.6 255.1 L 1312.3 299.3 L 1190.7 367.1 L 1184.4 372.7 L 1163.7 407.5 L 1146.7 436.2 L 1139.2 450.6 L 1110.6 505.6 L 1087.3 549.9 L 1048.2 623.9 L 1000.9 716.8" stroke="#000" stroke-width="2" fill="none" stroke-linecap="round" stroke-linejoin="round" />
<path d="M 2573.0 838.5 L 2553.6 833.7 L 2546.7 833.0 L 2538.2 833.6 L 2530.7 835.7 L 2523.3 837.2 L 2514.9 836.3 L 2413.9 806.1 L 2401.7 802.7 L 2365.1 792.6 L 2350.0 788.7 L 2306.3 778.5 L 2196.9 753.8 L 2195.0 753.3 L 2172.2 748.0 L 2147.7 742.4 L 2080.6 726.8 L 2075.6 725.6 L 2019.0 711.7 L 1987.7 701.2 L 1980.8 698.9 L 1895.6 658.8 L 1875.7 650.6 L 1849.0 639.5 L 1796.4 616.9 L 1781.8 608.9 L 1743.2 587.8 L 1698.0 533.7 L 1668.4 498.2 L 1666.0 495.3 L 1634.5 456.5 L 1597.2 410.5 L 1594.1 406.7 L 1564.4 372.7 L 1557.1 364.3 L 1549.4 355.5 L 1547.4 353.8 L 1482.2 298.3 L 1465.3 285.2 L 1460.7 281.4 L 1441.7 272.3 L 1426.0 267.1 L 1404.0 259.8 L 1391.6 255.1 L 1379.9 243.5 L 1360.4 215.8 L 1330.7 160.2 L 1328.9 156.9 L 1278.2 71.7 L 1244.4 29.5 L 1229.2 12.9 L 1225.1 8.5" stroke="#000" stroke-width="2" fill="none" stroke-linecap="round" stroke-linejoin="round" />
<path d="M 1558.2 541.1 L 1552.8 530.2 L 1525.1 487.5 L 1507.5 463.5 L 1493.3 446.6 L 1472.6 424.9 L 1464.4 417.9 L 1455.4 406.7 L 1441.5 390.4 L 1439.2 386.4 L 1438.8 382.7 L 1440.5 378.6 L 1447.6 373.5 L 1460.5 364.7 L 1464.2 362.4 L 1464.9 358.6 L 1462.8 355.2 L 1457.8 352.2 L 1429.4 340.9 L 1428.0 337.0 L 1428.9 334.2 L 1465.3 285.2" stroke="#000" stroke-width="2" fill="none" stroke-linecap="round" stroke-linejoin="round" />
<path d="M 1374.2 438.5 L 1395.5 445.9 L 1408.4 453.4 L 1425.7 466.6 L 1456.1 495.0" stroke="#000" stroke-width="2" fill="none" stroke-linecap="round" stroke-linejoin="round" />
<path d="M 1425.7 466.6 L 1464.4 417.9" stroke="#000" stroke-width="2" fill="none" stroke-linecap="round" stroke-linejoin="round" />
<path d="M 1139.2 450.6 L 1123.5 442.5 L 1117.8 440.2 L 1114.1 441.2 L 1108.0 451.3 L 1103.6 459.8 L 1099.2 461.5 L 1092.4 459.8 L 1086.0 455.4 L 1045.7 415.1" stroke="#000" stroke-width="2" fill="none" stroke-linecap="round" stroke-linejoin="round" />
<path d="M 1142.3 -130.5 L 1132.5 -137.6 L 1122.9 -143.7 L 1101.2 -155.4 L 1087.8 -162.0 L 1075.6 -165.5 L 1060.0 -171.4 L 1045.5 -177.3 L 1024.4 -187.7 L 1001.5 -200.4 L 991.3 -203.7 L 984.7 -205.6 L 980.9 -206.1 L 976.7 -205.6 L 971.3 -204.5 L 966.0 -201.6 L 960.9 -197.6 L 954.0 -191.1 L 947.3 -185.0 L 940.5 -178.3 L 932.6 -172.5 L 925.8 -168.7 L 918.4 -167.1 L 907.7 -164.4 L 903.2 -162.3 L 898.6 -159.1 L 897.5 -157.4 L 897.2 -155.7 L 897.7 -145.9 L 898.6 -138.9 L 899.2 -135.8 L 898.2 -129.9 L 895.6 -126.0 L 891.6 -121.7 L 885.1 -114.2 L 882.8 -110.5 L 883.0 -107.3 L 886.5 -98.7 L 888.2 -90.0 L 893.0 -72.1 L 898.2 -58.8 L 903.3 -44.2 L 909.3 -26.2 L 914.5 -4.6 L 916.0 4.3" stroke="#000" stroke-width="2" fill="none" stroke-linecap="round" stroke-linejoin="round" />
<path d="M 1411.5 602.6 L 1558.2 541.1 L 1562.3 539.7 L 1568.7 535.0 L 1634.5 456.5" stroke="#000" stroke-width="2" fill="none" stroke-linecap="round" stroke-linejoin="round" />
<path d="M 1125.9 160.0 L 1142.9 131.4 L 1146.4 125.6 L 1159.8 105.8 L 1184.1 70.2 L 1229.2 12.9" stroke="#000" stroke-width="2" fill="none" stroke-linecap="round" stroke-linejoin="round" />
<path d="M 1045.7 415.1 L 1043.3 411.1 L 1042.7 407.0 L 1043.3 400.9 L 1052.8 363.4 L 1054.5 354.9 L 1054.9 349.2 L 1053.2 344.8 L 1047.8 338.0" stroke="#000" stroke-width="2" fill="none" stroke-linecap="round" stroke-linejoin="round" />
<path d="M 1454.9 722.9 L 1433.8 821.2" stroke="#000" stroke-width="2" fill="none" stroke-linecap="round" stroke-linejoin="round" />
<path d="M 1454.9 722.9 L 1480.7 712.7 L 1503.0 701.5 L 1520.2 693.5 L 1526.0 691.1 L 1529.3 687.1 L 1532.0 679.3 L 1534.4 660.7 L 1537.0 644.6 L 1541.1 626.7 L 1546.7 607.7 L 1552.0 589.2 L 1556.9 575.2 L 1559.9 555.3 L 1559.6 548.5 L 1558.2 541.1" stroke="#000" stroke-width="2" fill="none" stroke-linecap="round" stroke-linejoin="round" />
  

  

  
    <g stroke="#000" fill="none" stroke-width="2.9952">
      <circle cx="936" cy="702" r="16.848" fill="#fff" fill-opacity="0.7"/>
      <circle cx="936" cy="702" r="3.744" fill="#000" stroke="none"/>
    </g>
  <rect width="100%" height="100%" fill="url(#vignette)"/>
  
    <g transform="translate(1776, 116)" stroke="#000" stroke-width="2.2464" fill="#000">
      <line x1="0" y1="37.44" x2="0" y2="-37.44"/>
      <path d="M 0 -37.44 L 13.104 -13.104 L 0 -22.464 L -13.104 -13.104 Z"/>
      <text x="0" y="59.44" text-anchor="middle" font-family="Georgia, serif" font-size="22.464000000000002">N</text>
    </g>
  
    <g stroke="#000" stroke-width="2.2464" fill="#000" font-family="Georgia, serif">
      <line x1="96" y1="1308" x2="291" y2="1308"/>
      <line x1="96" y1="1301" x2="96" y2="1315"/>
      <line x1="193.5" y1="1304" x2="193.5" y2="1312"/>
      <line x1="291" y1="1301" x2="291" y2="1315"/>
      <text x="193.5" y="1294" text-anchor="middle" font-size="20.592" stroke="none">250 m</text>
    </g>
  <rect x="66" y="66" width="1740" height="1272" fill="none" stroke="#000" stroke-width="2" stroke-opacity="0.7"/>
  <rect x="74" y="74" width="1724" height="1256" fill="none" stroke="#000" stroke-width="1" stroke-opacity="0.4"/>
  
</svg>