<svg xmlns="http://www.w3.org/2000/svg" width="1872" height="1404" viewBox="0 0 1872 1404">
  <defs>
    <radialGradient id="vignette" cx="50%" cy="50%" r="954.72" gradientUnits="userSpaceOnUse">
      <stop offset="55%" stop-color="#fff" stop-opacity="0"/>
      <stop offset="100%" stop-color="#fff" stop-opacity="1"/>
    </radialGradient>
    <pattern id="hatch" patternUnits="userSpaceOnUse" width="9" height="9" patternTransform="rotate(45)">
      <line x1="0" y1="0" x2="0" y2="9" stroke="#000" stroke-width="0.9" stroke-opacity="0.4"/>
    </pattern>
  </defs>
  <rect width="100%" height="100%" fill="#fff"/>
  
  <path d="M 1172.2 1314.0 L 1188.0 1318.1 L 1182.3 1348.7 L 1144.3 1348.7 L 1172.2 1314.0 Z" fill="url(#hatch)" stroke="#000" stroke-width="0.8" stroke-opacity="0.5"/>
  
  
  <path d="M 274.8 628.4 L 265.1 582.3" stroke="#000" stroke-width="1.1" fill="none" stroke-linecap="round" stroke-linejoin="round" stroke-opacity="0.75"/>
<path d="M 394.8 788.2 L 369.9 679.9" stroke="#000" stroke-width="1.1" fill="none" stroke-linecap="round" stroke-linejoin="round" stroke-opacity="0.75"/>
<path d="M 241.6 591.1 L 227.0 545.0 L 214.0 500.4" stroke="#000" stroke-width="1.1" fill="none" stroke-linecap="round" stroke-linejoin="round" stroke-opacity="0.75"/>
<path d="M 259.5 485.7 L 272.4 531.3 L 285.9 574.9" stroke="#000" stroke-width="1.1" fill="none" stroke-linecap="round" stroke-linejoin="round" stroke-opacity="0.75"/>
<path d="M 664.1 148.1 L 795.6 114.4" stroke="#000" stroke-width="1.1" fill="none" stroke-linecap="round" stroke-linejoin="round" stroke-opacity="0.75"/>
<path d="M 619.7 171.6 L 553.2 191.5 L 451.2 218.1" stroke="#000" stroke-width="1.1" fill="none" stroke-linecap="round" stroke-linejoin="round" stroke-opacity="0.75"/>
<path d="M 1007.0 1417.3 L 1012.0 1378.8" stroke="#000" stroke-width="1.1" fill="none" stroke-linecap="round" stroke-linejoin="round" stroke-opacity="0.75"/>
<path d="M 1349.3 1297.2 L 1309.2 1297.3 L 1312.6 1250.4" stroke="#000" stroke-width="1.1" fill="none" stroke-linecap="round" stroke-linejoin="round" stroke-opacity="0.75"/>
<path d="M 1424.6 1178.9 L 1426.8 1154.0 L 1427.9 1143.5" stroke="#000" stroke-width="1.1" fill="none" stroke-linecap="round" stroke-linejoin="round" stroke-opacity="0.75"/>
<path d="M 1319.9 978.5 L 1324.0 1000.1 L 1324.9 1008.6" stroke="#000" stroke-width="1.1" fill="none" stroke-linecap="round" stroke-linejoin="round" stroke-opacity="0.75"/>
<path d="M 1526.1 969.7 L 1523.6 950.6 L 1522.1 944.0" stroke="#000" stroke-width="1.1" fill="none" stroke-linecap="round" stroke-linejoin="round" stroke-opacity="0.75"/>
<path d="M 1575.8 952.6 L 1574.5 941.5 L 1567.6 927.8" stroke="#000" stroke-width="1.1" fill="none" stroke-linecap="round" stroke-linejoin="round" stroke-opacity="0.75"/>
<path d="M 1506.5 1030.9 L 1504.0 1011.9 L 1501.1 1000.2 L 1491.1 969.2 L 1488.4 961.2" stroke="#000" stroke-width="1.1" fill="none" stroke-linecap="round" stroke-linejoin="round" stroke-opacity="0.75"/>
<path d="M 1486.7 1008.3 L 1475.9 974.5 L 1474.5 968.5" stroke="#000" stroke-width="1.1" fill="none" stroke-linecap="round" stroke-linejoin="round" stroke-opacity="0.75"/>
<path d="M 1547.2 1005.8 L 1540.9 985.1 L 1536.3 967.7 L 1542.3 966.4 L 1549.0 965.5 L 1547.9 958.8 L 1543.3 935.8" stroke="#000" stroke-width="1.1" fill="none" stroke-linecap="round" stroke-linejoin="round" stroke-opacity="0.75"/>
<path d="M 1459.3 1042.7 L 1452.1 1018.6 L 1445.3 995.8 L 1442.0 984.7" stroke="#000" stroke-width="1.1" fill="none" stroke-linecap="round" stroke-linejoin="round" stroke-opacity="0.75"/>
<path d="M 1307.7 882.3 L 1309.2 896.4 L 1308.8 898.6 L 1310.5 926.7" stroke="#000" stroke-width="1.1" fill="none" stroke-linecap="round" stroke-linejoin="round" stroke-opacity="0.75"/>
<path d="M 1289.1 723.4 L 1291.6 736.5 L 1294.1 751.8" stroke="#000" stroke-width="1.1" fill="none" stroke-linecap="round" stroke-linejoin="round" stroke-opacity="0.75"/>
<path d="M 1627.1 693.3 L 1580.0 705.4" stroke="#000" stroke-width="1.1" fill="none" stroke-linecap="round" stroke-linejoin="round" stroke-opacity="0.75"/>
<path d="M 1287.2 322.2 L 1283.6 311.4" stroke="#000" stroke-width="1.1" fill="none" stroke-linecap="round" stroke-linejoin="round" stroke-opacity="0.75"/>
<path d="M 1329.0 295.9 L 1283.6 311.4 L 1265.3 317.7" stroke="#000" stroke-width="1.1" fill="none" stroke-linecap="round" stroke-linejoin="round" stroke-opacity="0.75"/>
<path d="M 935.0 100.0 L 867.1 104.6 L 813.5 107.1 L 795.9 107.6" stroke="#000" stroke-width="1.1" fill="none" stroke-linecap="round" stroke-linejoin="round" stroke-opacity="0.75"/>
<path d="M 1000.5 131.2 L 1086.7 125.0" stroke="#000" stroke-width="1.1" fill="none" stroke-linecap="round" stroke-linejoin="round" stroke-opacity="0.75"/>
<path d="M 989.3 430.5 L 1019.0 435.7 L 1055.4 440.7 L 1102.0 446.3" stroke="#000" stroke-width="1.1" fill="none" stroke-linecap="round" stroke-linejoin="round" stroke-opacity="0.75"/>
<path d="M 1103.4 387.7 L 1152.5 389.3" stroke="#000" stroke-width="1.1" fill="none" stroke-linecap="round" stroke-linejoin="round" stroke-opacity="0.75"/>
<path d="M 1043.5 629.6 L 1044.2 621.0 L 1053.1 558.2 L 1061.0 502.1" stroke="#000" stroke-width="1.1" fill="none" stroke-linecap="round" stroke-linejoin="round" stroke-opacity="0.75"/>
<path d="M 1057.3 386.5 L 1103.4 387.7" stroke="#000" stroke-width="1.1" fill="none" stroke-linecap="round" stroke-linejoin="round" stroke-opacity="0.75"/>
<path d="M 1057.1 391.0 L 1021.8 390.7 L 993.5 389.8" stroke="#000" stroke-width="1.1" fill="none" stroke-linecap="round" stroke-linejoin="round" stroke-opacity="0.75"/>
<path d="M 997.9 86.8 L 1090.8 81.2" stroke="#000" stroke-width="1.1" fill="none" stroke-linecap="round" stroke-linejoin="round" stroke-opacity="0.75"/>
<path d="M 1060.0 866.7 L 1061.3 899.3" stroke="#000" stroke-width="1.1" fill="none" stroke-linecap="round" stroke-linejoin="round" stroke-opacity="0.75"/>
<path d="M 944.9 498.6 L 980.1 499.8" stroke="#000" stroke-width="1.1" fill="none" stroke-linecap="round" stroke-linejoin="round" stroke-opacity="0.75"/>
<path d="M 1069.0 750.3 L 1087.5 748.0 L 1088.4 758.2" stroke="#000" stroke-width="1.1" fill="none" stroke-linecap="round" stroke-linejoin="round" stroke-opacity="0.75"/>
<path d="M 962.1 316.1 L 962.3 385.6" stroke="#000" stroke-width="1.1" fill="none" stroke-linecap="round" stroke-linejoin="round" stroke-opacity="0.75"/>
<path d="M 923.9 773.0 L 946.2 733.8" stroke="#000" stroke-width="1.1" fill="none" stroke-linecap="round" stroke-linejoin="round" stroke-opacity="0.75"/>
<path d="M 690.5 402.5 L 731.5 400.1" stroke="#000" stroke-width="1.1" fill="none" stroke-linecap="round" stroke-linejoin="round" stroke-opacity="0.75"/>
<path d="M 859.0 480.4 L 877.2 479.6" stroke="#000" stroke-width="1.1" fill="none" stroke-linecap="round" stroke-linejoin="round" stroke-opacity="0.75"/>
<path d="M 778.8 595.5 L 775.2 613.1 L 776.0 642.8 L 780.6 669.8 L 780.6 683.3 L 781.5 700.2 L 781.9 706.7 L 785.4 721.9 L 785.9 730.8" stroke="#000" stroke-width="1.1" fill="none" stroke-linecap="round" stroke-linejoin="round" stroke-opacity="0.75"/>
<path d="M 948.1 448.8 L 985.7 454.5" stroke="#000" stroke-width="1.1" fill="none" stroke-linecap="round" stroke-linejoin="round" stroke-opacity="0.75"/>
<path d="M 948.2 409.5 L 991.1 415.6" stroke="#000" stroke-width="1.1" fill="none" stroke-linecap="round" stroke-linejoin="round" stroke-opacity="0.75"/>
<path d="M 1058.7 765.1 L 1016.4 759.6" stroke="#000" stroke-width="1.1" fill="none" stroke-linecap="round" stroke-linejoin="round" stroke-opacity="0.75"/>
<path d="M 831.9 318.4 L 833.0 322.4 L 832.6 325.4 L 786.0 372.6 L 795.0 382.4 L 882.8 383.9" stroke="#000" stroke-width="1.1" fill="none" stroke-linecap="round" stroke-linejoin="round" stroke-opacity="0.75"/>
<path d="M 1093.3 1138.2 L 1068.0 1135.8 L 1040.7 1133.1" stroke="#000" stroke-width="1.1" fill="none" stroke-linecap="round" stroke-linejoin="round" stroke-opacity="0.75"/>
<path d="M 1117.2 1142.6 L 1123.6 1145.5 L 1130.1 1146.1 L 1141.8 1147.7 L 1155.7 1149.4" stroke="#000" stroke-width="1.1" fill="none" stroke-linecap="round" stroke-linejoin="round" stroke-opacity="0.75"/>
<path d="M 967.5 1184.3 L 984.6 1182.8 L 1008.8 1185.9 L 1027.2 1188.0 L 1034.1 1188.9" stroke="#000" stroke-width="1.1" fill="none" stroke-linecap="round" stroke-linejoin="round" stroke-opacity="0.75"/>
<path d="M 942.3 1191.7 L 940.3 1216.2 L 936.9 1216.6 L 918.1 1217.5 L 897.0 1218.2" stroke="#000" stroke-width="1.1" fill="none" stroke-linecap="round" stroke-linejoin="round" stroke-opacity="0.75"/>
<path d="M 980.4 823.5 L 975.0 831.5 L 972.0 836.9" stroke="#000" stroke-width="1.1" fill="none" stroke-linecap="round" stroke-linejoin="round" stroke-opacity="0.75"/>
<path d="M 1047.8 866.2 L 1047.3 872.1 L 1038.4 884.6" stroke="#000" stroke-width="1.1" fill="none" stroke-linecap="round" stroke-linejoin="round" stroke-opacity="0.75"/>
<path d="M 950.8 991.9 L 950.4 987.2 L 949.1 967.3 L 947.6 947.6" stroke="#000" stroke-width="1.1" fill="none" stroke-linecap="round" stroke-linejoin="round" stroke-opacity="0.75"/>
<path d="M 1152.1 874.9 L 1155.4 895.9 L 1158.8 921.5 L 1159.0 924.7" stroke="#000" stroke-width="1.1" fill="none" stroke-linecap="round" stroke-linejoin="round" stroke-opacity="0.75"/>
<path d="M 616.9 982.3 L 631.8 983.4 L 648.3 984.4 L 652.6 986.9 L 657.9 994.0 L 662.1 999.9 L 668.5 1005.3" stroke="#000" stroke-width="1.1" fill="none" stroke-linecap="round" stroke-linejoin="round" stroke-opacity="0.75"/>
<path d="M 724.8 1015.0 L 698.3 1016.4 L 681.7 1017.0 L 677.9 1017.0" stroke="#000" stroke-width="1.1" fill="none" stroke-linecap="round" stroke-linejoin="round" stroke-opacity="0.75"/>
<path d="M 735.8 1012.4 L 750.9 1011.8" stroke="#000" stroke-width="1.1" fill="none" stroke-linecap="round" stroke-linejoin="round" stroke-opacity="0.75"/>
<path d="M 733.0 1336.4 L 730.6 1331.4 L 730.0 1326.8 L 729.9 1320.7 L 728.7 1318.5" stroke="#000" stroke-width="1.1" fill="none" stroke-linecap="round" stroke-linejoin="round" stroke-opacity="0.75"/>
<path d="M 758.6 1001.0 L 811.0 1000.4 L 842.2 1003.0" stroke="#000" stroke-width="1.1" fill="none" stroke-linecap="round" stroke-linejoin="round" stroke-opacity="0.75"/>
<path d="M 598.3 997.4 L 616.3 998.2 L 616.9 982.3 L 601.2 981.3 L 600.0 981.3 L 599.1 981.2 L 598.8 987.1 L 598.3 997.4" stroke="#000" stroke-width="1.1" fill="none" stroke-linecap="round" stroke-linejoin="round" stroke-opacity="0.75"/>
<path d="M 623.2 967.2 L 618.1 963.5 L 591.7 960.4 L 584.8 959.4 L 574.5 950.8 L 574.9 947.1" stroke="#000" stroke-width="1.1" fill="none" stroke-linecap="round" stroke-linejoin="round" stroke-opacity="0.75"/>
<path d="M 432.5 1079.5 L 431.3 1062.4 L 430.6 1057.2" stroke="#000" stroke-width="1.1" fill="none" stroke-linecap="round" stroke-linejoin="round" stroke-opacity="0.75"/>
<path d="M 463.6 1016.7 L 463.6 1022.9 L 461.1 1025.7 L 461.7 1041.9 L 462.0 1055.5" stroke="#000" stroke-width="1.1" fill="none" stroke-linecap="round" stroke-linejoin="round" stroke-opacity="0.75"/>
<path d="M 829.1 1072.9 L 725.8 1078.9 L 719.2 1079.3" stroke="#000" stroke-width="1.1" fill="none" stroke-linecap="round" stroke-linejoin="round" stroke-opacity="0.75"/>
<path d="M 412.5 1193.5 L 418.2 1171.8 L 413.0 1170.4 L 406.7 1195.1 L 396.0 1192.5 L 393.3 1189.6 L 392.8 1187.3 L 398.5 1166.8 L 398.7 1164.2 L 400.5 1156.2 L 402.2 1153.6 L 408.4 1129.7 L 410.1 1125.9" stroke="#000" stroke-width="1.1" fill="none" stroke-linecap="round" stroke-linejoin="round" stroke-opacity="0.75"/>
<path d="M 598.8 987.1 L 594.6 986.8 L 590.0 986.4" stroke="#000" stroke-width="1.1" fill="none" stroke-linecap="round" stroke-linejoin="round" stroke-opacity="0.75"/>
<path d="M 600.0 981.3 L 600.2 977.5 L 596.1 966.1 L 591.7 960.4" stroke="#000" stroke-width="1.1" fill="none" stroke-linecap="round" stroke-linejoin="round" stroke-opacity="0.75"/>
<path d="M 614.6 1046.6 L 615.7 1029.7 L 614.9 1025.3 L 616.1 1008.8 L 616.2 1001.0 L 616.3 998.2" stroke="#000" stroke-width="1.1" fill="none" stroke-linecap="round" stroke-linejoin="round" stroke-opacity="0.75"/>
<path d="M 598.3 997.4 L 597.9 1001.9 L 597.4 1006.1 L 588.6 1005.2 L 589.9 987.1 L 590.0 986.4 L 591.1 971.5 L 591.7 960.4" stroke="#000" stroke-width="1.1" fill="none" stroke-linecap="round" stroke-linejoin="round" stroke-opacity="0.75"/>
<path d="M 466.3 1197.5 L 449.7 1203.2 L 443.2 1203.6" stroke="#000" stroke-width="1.1" fill="none" stroke-linecap="round" stroke-linejoin="round" stroke-opacity="0.75"/>
<path d="M 506.1 1032.4 L 508.6 1027.5 L 524.6 1026.5 L 531.0 1026.3" stroke="#000" stroke-width="1.1" fill="none" stroke-linecap="round" stroke-linejoin="round" stroke-opacity="0.75"/>
<path d="M 505.7 968.2 L 514.7 967.7 L 517.3 969.7 L 520.8 970.0 L 535.4 969.7" stroke="#000" stroke-width="1.1" fill="none" stroke-linecap="round" stroke-linejoin="round" stroke-opacity="0.75"/>
<path d="M 780.2 964.3 L 843.9 976.5" stroke="#000" stroke-width="1.1" fill="none" stroke-linecap="round" stroke-linejoin="round" stroke-opacity="0.75"/>
<path d="M 395.4 1074.8 L 372.3 1074.8 L 347.2 1072.4" stroke="#000" stroke-width="1.1" fill="none" stroke-linecap="round" stroke-linejoin="round" stroke-opacity="0.75"/>
<path d="M 545.4 595.0 L 541.7 601.1 L 547.3 644.4 L 551.9 671.1 L 557.0 701.9 L 557.5 704.8 L 556.1 707.0 L 555.1 711.1 L 555.8 717.8 L 564.0 762.1 L 564.8 765.7" stroke="#000" stroke-width="1.1" fill="none" stroke-linecap="round" stroke-linejoin="round" stroke-opacity="0.75"/>
<path d="M 572.2 806.5 L 573.2 811.2 L 573.8 814.5 L 580.3 844.1 L 584.6 849.9 L 590.6 854.8" stroke="#000" stroke-width="1.1" fill="none" stroke-linecap="round" stroke-linejoin="round" stroke-opacity="0.75"/>
<path d="M 564.8 765.7 L 572.2 806.5" stroke="#000" stroke-width="1.1" fill="none" stroke-linecap="round" stroke-linejoin="round" stroke-opacity="0.75"/>
<path d="M 581.5 701.8 L 582.8 709.9 L 584.5 720.0 L 585.7 724.6 L 588.8 727.1 L 593.6 726.7 L 600.4 725.5 L 609.6 723.6" stroke="#000" stroke-width="1.1" fill="none" stroke-linecap="round" stroke-linejoin="round" stroke-opacity="0.75"/>
<path d="M 628.7 698.5 L 625.0 696.6 L 620.5 696.0 L 591.6 697.7 L 588.6 697.8 L 583.8 699.1 L 581.5 701.8" stroke="#000" stroke-width="1.1" fill="none" stroke-linecap="round" stroke-linejoin="round" stroke-opacity="0.75"/>
<path d="M 609.6 723.6 L 601.7 722.6 L 597.7 719.9 L 595.5 714.3 L 595.5 704.0 L 594.1 699.5 L 591.6 697.7" stroke="#000" stroke-width="1.1" fill="none" stroke-linecap="round" stroke-linejoin="round" stroke-opacity="0.75"/>
<path d="M 619.1 722.4 L 631.2 744.0" stroke="#000" stroke-width="1.1" fill="none" stroke-linecap="round" stroke-linejoin="round" stroke-opacity="0.75"/>
<path d="M 628.7 698.5 L 619.1 722.4" stroke="#000" stroke-width="1.1" fill="none" stroke-linecap="round" stroke-linejoin="round" stroke-opacity="0.75"/>
<path d="M 615.1 723.7 L 612.1 727.5 L 611.4 731.8 L 614.6 743.7 L 615.8 749.7 L 615.4 761.9 L 614.1 771.4 L 613.4 774.9 L 610.9 788.5 L 604.7 805.1 L 602.7 809.6 L 598.6 818.7 L 590.7 832.2 L 580.3 844.1" stroke="#000" stroke-width="1.1" fill="none" stroke-linecap="round" stroke-linejoin="round" stroke-opacity="0.75"/>
<path d="M 613.4 774.9 L 606.8 776.3 L 600.8 777.9 L 598.9 781.2 L 599.1 788.1 L 601.8 804.0 L 602.7 809.6" stroke="#000" stroke-width="1.1" fill="none" stroke-linecap="round" stroke-linejoin="round" stroke-opacity="0.75"/>
<path d="M 557.0 701.9 L 565.5 700.8 L 568.5 700.8" stroke="#000" stroke-width="1.1" fill="none" stroke-linecap="round" stroke-linejoin="round" stroke-opacity="0.75"/>
<path d="M 568.5 700.8 L 571.3 700.8 L 575.0 700.8" stroke="#000" stroke-width="1.1" fill="none" stroke-linecap="round" stroke-linejoin="round" stroke-opacity="0.75"/>
<path d="M 601.8 804.0 L 573.2 811.2" stroke="#000" stroke-width="1.1" fill="none" stroke-linecap="round" stroke-linejoin="round" stroke-opacity="0.75"/>
<path d="M 673.1 299.9 L 675.4 298.5 L 694.0 292.9 L 701.1 290.1 L 701.7 288.0 L 700.6 283.2 L 693.6 254.6 L 692.1 252.3 L 688.7 251.4 L 662.9 257.5 L 673.1 299.9" stroke="#000" stroke-width="1.1" fill="none" stroke-linecap="round" stroke-linejoin="round" stroke-opacity="0.75"/>
<path d="M 682.9 332.0 L 678.0 322.6 L 672.8 308.8 L 672.2 302.6 L 673.1 299.9" stroke="#000" stroke-width="1.1" fill="none" stroke-linecap="round" stroke-linejoin="round" stroke-opacity="0.75"/>
<path d="M 639.2 340.5 L 609.7 350.1 L 607.1 352.7 L 606.8 354.2 L 606.3 356.0 L 608.1 360.5 L 609.7 363.0 L 612.3 363.8 L 614.3 363.2 L 633.0 356.1" stroke="#000" stroke-width="1.1" fill="none" stroke-linecap="round" stroke-linejoin="round" stroke-opacity="0.75"/>
<path d="M 633.0 356.1 L 638.3 355.6 L 642.6 356.8 L 645.0 359.3 L 646.4 362.7 L 646.2 366.0" stroke="#000" stroke-width="1.1" fill="none" stroke-linecap="round" stroke-linejoin="round" stroke-opacity="0.75"/>
<path d="M 651.9 360.7 L 648.1 350.3" stroke="#000" stroke-width="1.1" fill="none" stroke-linecap="round" stroke-linejoin="round" stroke-opacity="0.75"/>
<path d="M 633.0 356.1 L 648.1 350.3" stroke="#000" stroke-width="1.1" fill="none" stroke-linecap="round" stroke-linejoin="round" stroke-opacity="0.75"/>
<path d="M 648.1 350.3 L 645.4 343.0 L 643.0 340.8 L 639.2 340.5" stroke="#000" stroke-width="1.1" fill="none" stroke-linecap="round" stroke-linejoin="round" stroke-opacity="0.75"/>
<path d="M 618.8 272.3 L 594.1 208.3 L 591.7 206.9 L 587.6 207.5 L 555.9 219.9 L 574.7 268.4 L 574.7 271.5 L 574.2 274.8 L 573.4 277.6 L 574.4 281.1 L 600.2 349.9 L 602.5 352.1 L 606.8 354.2" stroke="#000" stroke-width="1.1" fill="none" stroke-linecap="round" stroke-linejoin="round" stroke-opacity="0.75"/>
<path d="M 643.0 340.8 L 642.5 334.5 L 641.1 328.5 L 637.8 320.7 L 636.1 315.8 L 635.7 314.8" stroke="#000" stroke-width="1.1" fill="none" stroke-linecap="round" stroke-linejoin="round" stroke-opacity="0.75"/>
<path d="M 635.7 314.8 L 618.8 272.3" stroke="#000" stroke-width="1.1" fill="none" stroke-linecap="round" stroke-linejoin="round" stroke-opacity="0.75"/>
<path d="M 957.9 640.1 L 920.8 651.7 L 886.6 662.4" stroke="#000" stroke-width="1.1" fill="none" stroke-linecap="round" stroke-linejoin="round" stroke-opacity="0.75"/>
<path d="M 924.0 661.3 L 920.8 651.7" stroke="#000" stroke-width="1.1" fill="none" stroke-linecap="round" stroke-linejoin="round" stroke-opacity="0.75"/>
<path d="M 575.0 700.8 L 578.6 700.8 L 581.5 701.8" stroke="#000" stroke-width="1.1" fill="none" stroke-linecap="round" stroke-linejoin="round" stroke-opacity="0.75"/>
<path d="M 609.6 723.6 L 615.1 723.7 L 619.1 722.4" stroke="#000" stroke-width="1.1" fill="none" stroke-linecap="round" stroke-linejoin="round" stroke-opacity="0.75"/>
<path d="M 513.2 916.1 L 501.2 914.1 L 484.6 928.3 L 485.1 938.4" stroke="#000" stroke-width="1.1" fill="none" stroke-linecap="round" stroke-linejoin="round" stroke-opacity="0.75"/>
<path d="M 1363.8 940.4 L 1366.9 950.9 L 1371.7 949.5 L 1380.2 947.0" stroke="#000" stroke-width="1.1" fill="none" stroke-linecap="round" stroke-linejoin="round" stroke-opacity="0.75"/>
<path d="M 1365.4 926.7 L 1371.7 949.5" stroke="#000" stroke-width="1.1" fill="none" stroke-linecap="round" stroke-linejoin="round" stroke-opacity="0.75"/>
  <path d="M 501.8 667.1 L 504.3 670.7 L 516.2 669.3" stroke="#000" stroke-width="0.8" fill="none" stroke-linecap="round" stroke-linejoin="round" stroke-opacity="0.5" stroke-dasharray="4 5"/>
<path d="M 882.8 385.9 L 887.7 386.7 L 902.8 386.9 L 919.4 385.4 L 926.2 384.9" stroke="#000" stroke-width="0.8" fill="none" stroke-linecap="round" stroke-linejoin="round" stroke-opacity="0.5" stroke-dasharray="4 5"/>
<path d="M 560.1 1333.6 L 557.4 1332.7 L 555.6 1330.9 L 555.1 1329.3 L 555.0 1327.2 L 555.7 1325.0 L 557.1 1323.4 L 559.2 1322.5 L 599.3 1323.5 L 596.1 1327.1 L 665.3 1329.7 L 669.3 1325.9 L 671.6 1326.1 L 670.3 1328.7 L 669.9 1331.6 L 670.0 1335.0 L 670.6 1338.0 L 657.8 1337.5 L 595.3 1335.0 L 560.1 1333.6" stroke="#000" stroke-width="0.8" fill="none" stroke-linecap="round" stroke-linejoin="round" stroke-opacity="0.5" stroke-dasharray="4 5"/>
<path d="M 657.8 1337.5 L 665.3 1329.7" stroke="#000" stroke-width="0.8" fill="none" stroke-linecap="round" stroke-linejoin="round" stroke-opacity="0.5" stroke-dasharray="4 5"/>
<path d="M 680.4 1314.2 L 678.5 1314.2" stroke="#000" stroke-width="0.8" fill="none" stroke-linecap="round" stroke-linejoin="round" stroke-opacity="0.5" stroke-dasharray="4 5"/>
<path d="M 680.4 1314.2 L 684.4 1314.3" stroke="#000" stroke-width="0.8" fill="none" stroke-linecap="round" stroke-linejoin="round" stroke-opacity="0.5" stroke-dasharray="4 5"/>
<path d="M 678.5 1314.2 L 674.6 1315.0 L 667.2 1315.4 L 640.4 1314.3 L 600.1 1313.4" stroke="#000" stroke-width="0.8" fill="none" stroke-linecap="round" stroke-linejoin="round" stroke-opacity="0.5" stroke-dasharray="4 5"/>
<path d="M 684.4 1314.3 L 685.9 1316.5 L 725.1 1318.0" stroke="#000" stroke-width="0.8" fill="none" stroke-linecap="round" stroke-linejoin="round" stroke-opacity="0.5" stroke-dasharray="4 5"/>
  <path d="M 1087.2 20.2 L 1070.4 29.1 L 1062.2 31.9" stroke="#000" stroke-width="2" fill="none" stroke-linecap="round" stroke-linejoin="round" />
<path d="M 605.4 450.8 L 550.5 457.9 L 390.0 474.6 L 356.4 478.6" stroke="#000" stroke-width="2" fill="none" stroke-linecap="round" stroke-linejoin="round" />
<path d="M 1097.1 15.8 L 1093.4 16.3 L 1090.0 17.8 L 1087.2 20.2 L 1084.8 24.1 L 1083.9 28.5 L 1084.5 33.0 L 1085.5 34.9 L 1087.3 37.3 L 1089.9 40.0 L 1093.9 41.7 L 1098.3 42.0 L 1102.6 40.8 L 1105.4 39.1 L 1107.6 36.7 L 1109.2 33.8 L 1110.1 30.3 L 1109.9 26.7 L 1108.8 23.3 L 1106.9 20.3 L 1104.1 17.9 L 1100.7 16.4 L 1097.1 15.8" stroke="#000" stroke-width="2" fill="none" stroke-linecap="round" stroke-linejoin="round" />
<path d="M 408.5 995.6 L 392.7 990.9 L 382.0 986.3" stroke="#000" stroke-width="2" fill="none" stroke-linecap="round" stroke-linejoin="round" />
<path d="M 275.0 1271.6 L 282.7 1272.9 L 293.2 1277.5 L 324.4 1296.6 L 338.2 1304.1 L 350.2 1309.8 L 365.9 1316.0 L 371.1 1317.9 L 379.2 1320.8 L 393.8 1324.8 L 414.4 1330.4 L 419.9 1331.1 L 433.1 1332.8 L 441.9 1334.1 L 469.7 1335.4 L 513.7 1337.4 L 555.9 1338.1 L 558.2 1338.2 L 563.6 1338.3 L 620.0 1340.4 L 664.1 1342.0 L 675.7 1341.4 L 680.1 1341.2" stroke="#000" stroke-width="2" fill="none" stroke-linecap="round" stroke-linejoin="round" />
<path d="M 436.6 1406.0 L 451.5 1403.6 L 521.7 1391.6 L 529.3 1390.8 L 565.2 1385.3 L 594.0 1380.9 L 649.4 1372.4 L 696.6 1360.9 L 710.7 1357.5 L 734.4 1343.8" stroke="#000" stroke-width="2" fill="none" stroke-linecap="round" stroke-linejoin="round" />
<path d="M 449.0 809.2 L 496.2 801.2 L 543.2 793.4" stroke="#000" stroke-width="2" fill="none" stroke-linecap="round" stroke-linejoin="round" />
<path d="M 474.3 671.2 L 496.2 801.2 L 510.5 875.8 L 525.5 907.2" stroke="#000" stroke-width="2" fill="none" stroke-linecap="round" stroke-linejoin="round" />
<path d="M 377.2 938.6 L 240.3 939.2 L 179.4 940.5 L 99.9 939.2 L 6.1 938.0" stroke="#000" stroke-width="2" fill="none" stroke-linecap="round" stroke-linejoin="round" />
<path d="M 382.0 986.3 L 377.2 938.6" stroke="#000" stroke-width="2" fill="none" stroke-linecap="round" stroke-linejoin="round" />
<path d="M 226.9 596.9 L 264.3 756.8" stroke="#000" stroke-width="2" fill="none" stroke-linecap="round" stroke-linejoin="round" />
<path d="M 375.4 555.0 L 390.7 678.2" stroke="#000" stroke-width="2" fill="none" stroke-linecap="round" stroke-linejoin="round" />
<path d="M 425.1 675.7 L 449.0 809.2 L 461.0 875.1" stroke="#000" stroke-width="2" fill="none" stroke-linecap="round" stroke-linejoin="round" />
<path d="M 55.2 815.0 L 99.8 804.8 L 101.9 804.7 L 122.9 798.7 L 138.1 794.9 L 172.6 788.1 L 203.5 779.5 L 207.7 778.4 L 241.0 769.2 L 244.9 762.5" stroke="#000" stroke-width="2" fill="none" stroke-linecap="round" stroke-linejoin="round" />
<path d="M 21.2 739.4 L 37.4 728.9 L 81.8 700.0 L 112.3 678.9 L 142.4 658.0 L 175.0 631.0 L 202.2 610.2 L 221.7 599.5 L 226.9 596.9 L 241.6 591.1 L 265.1 582.3 L 285.9 574.9 L 313.9 565.0 L 327.2 561.9 L 348.2 556.9 L 367.1 555.6 L 375.4 555.0 L 388.6 554.2 L 424.3 551.8 L 466.6 549.9" stroke="#000" stroke-width="2" fill="none" stroke-linecap="round" stroke-linejoin="round" />
<path d="M 755.8 1344.8 L 752.7 1476.3 L 749.4 1570.4 L 749.9 1580.5 L 762.8 1592.0" stroke="#000" stroke-width="2" fill="none" stroke-linecap="round" stroke-linejoin="round" />
<path d="M -2.5 978.1 L 188.8 983.5 L 196.8 984.1 L 382.0 986.3" stroke="#000" stroke-width="2" fill="none" stroke-linecap="round" stroke-linejoin="round" />
<path d="M 382.0 986.3 L 385.0 1015.3" stroke="#000" stroke-width="2" fill="none" stroke-linecap="round" stroke-linejoin="round" />
<path d="M 441.5 674.6 L 424.3 551.8" stroke="#000" stroke-width="2" fill="none" stroke-linecap="round" stroke-linejoin="round" />
<path d="M 493.7 669.3 L 475.4 555.2" stroke="#000" stroke-width="2" fill="none" stroke-linecap="round" stroke-linejoin="round" />
<path d="M 493.7 669.3 L 501.8 667.1 L 531.3 620.3 L 527.3 584.9" stroke="#000" stroke-width="2" fill="none" stroke-linecap="round" stroke-linejoin="round" />
<path d="M 342.4 682.3 L 313.9 565.0" stroke="#000" stroke-width="2" fill="none" stroke-linecap="round" stroke-linejoin="round" />
<path d="M 312.1 685.8 L 342.4 682.3 L 369.9 679.9 L 390.7 678.2 L 425.1 675.7 L 441.5 674.6 L 474.3 671.2 L 493.7 669.3" stroke="#000" stroke-width="2" fill="none" stroke-linecap="round" stroke-linejoin="round" />
<path d="M 516.2 669.3 L 521.3 671.8 L 543.2 793.4 L 553.4 858.6 L 563.0 871.4 L 567.2 875.2" stroke="#000" stroke-width="2" fill="none" stroke-linecap="round" stroke-linejoin="round" />
<path d="M 110.1 533.7 L 134.2 526.0 L 158.8 518.5 L 200.2 504.9 L 214.0 500.4 L 259.5 485.7 L 334.3 461.3" stroke="#000" stroke-width="2" fill="none" stroke-linecap="round" stroke-linejoin="round" />
<path d="M 372.0 420.4 L 440.6 414.1 L 486.7 409.7 L 544.8 402.4 L 596.8 395.7" stroke="#000" stroke-width="2" fill="none" stroke-linecap="round" stroke-linejoin="round" />
<path d="M 611.4 505.9 L 424.4 526.2" stroke="#000" stroke-width="2" fill="none" stroke-linecap="round" stroke-linejoin="round" />
<path d="M 378.3 284.2 L 405.7 343.4 L 429.3 391.6 L 440.6 414.1" stroke="#000" stroke-width="2" fill="none" stroke-linecap="round" stroke-linejoin="round" />
<path d="M 417.4 250.8 L 454.7 313.4 L 477.5 358.5 L 483.2 371.5 L 486.7 409.7" stroke="#000" stroke-width="2" fill="none" stroke-linecap="round" stroke-linejoin="round" />
<path d="M 333.9 319.4 L 372.0 420.4 L 390.0 474.6" stroke="#000" stroke-width="2" fill="none" stroke-linecap="round" stroke-linejoin="round" />
<path d="M 46.6 231.2 L 56.0 238.8 L 74.6 253.5 L 154.4 319.7 L 202.7 359.2 L 245.3 392.4 L 285.5 424.0 L 334.3 461.3 L 356.4 478.6 L 392.1 507.0 L 409.0 517.7 L 424.4 526.2 L 466.6 549.9 L 475.4 555.2 L 527.3 584.9 L 545.4 595.0 L 593.4 623.6 L 603.9 631.9" stroke="#000" stroke-width="2" fill="none" stroke-linecap="round" stroke-linejoin="round" />
<path d="M 88.0 -160.3 L 114.4 -121.5 L 118.0 -117.2 L 139.3 -92.3 L 145.3 -85.2 L 172.1 -62.2 L 203.5 -46.1 L 243.8 -23.7 L 255.4 -17.8 L 268.1 -11.2 L 275.4 -7.7 L 312.8 11.7 L 317.1 14.0 L 339.2 27.0 L 347.3 40.7 L 363.5 68.2 L 370.5 80.2 L 377.1 91.7 L 391.3 116.4 L 395.8 124.7 L 402.2 136.5 L 425.5 179.4 L 440.0 203.4 L 443.8 209.6 L 451.2 218.1 L 475.4 245.9 L 534.2 317.3 L 576.4 369.4" stroke="#000" stroke-width="2" fill="none" stroke-linecap="round" stroke-linejoin="round" />
<path d="M 544.8 402.4 L 550.5 457.9" stroke="#000" stroke-width="2" fill="none" stroke-linecap="round" stroke-linejoin="round" />
<path d="M 277.3 323.7 L 303.1 305.1 L 328.7 286.7 L 392.4 239.6 L 440.0 203.4" stroke="#000" stroke-width="2" fill="none" stroke-linecap="round" stroke-linejoin="round" />
<path d="M 701.0 1458.1 L 696.6 1360.9" stroke="#000" stroke-width="2" fill="none" stroke-linecap="round" stroke-linejoin="round" />
<path d="M 860.5 1332.8 L 850.2 1336.3 L 832.6 1340.2" stroke="#000" stroke-width="2" fill="none" stroke-linecap="round" stroke-linejoin="round" />
<path d="M 734.4 1343.8 L 745.9 1344.4 L 755.8 1344.8 L 791.2 1345.8 L 819.9 1346.5" stroke="#000" stroke-width="2" fill="none" stroke-linecap="round" stroke-linejoin="round" />
<path d="M 1074.3 1420.7 L 1048.2 1403.1 L 1012.0 1378.8" stroke="#000" stroke-width="2" fill="none" stroke-linecap="round" stroke-linejoin="round" />
<path d="M 1012.0 1378.8 L 1014.4 1361.3 L 1016.5 1348.6 L 1018.6 1330.6 L 1020.3 1315.2 L 1022.5 1295.8 L 1024.8 1272.2 L 1025.6 1263.9" stroke="#000" stroke-width="2" fill="none" stroke-linecap="round" stroke-linejoin="round" />
<path d="M 860.4 1347.8 L 1016.5 1348.6 L 1137.4 1350.5" stroke="#000" stroke-width="2" fill="none" stroke-linecap="round" stroke-linejoin="round" />
<path d="M 850.2 1336.3 L 853.0 1347.4" stroke="#000" stroke-width="2" fill="none" stroke-linecap="round" stroke-linejoin="round" />
<path d="M 1197.2 1284.0 L 1177.7 1303.3 L 1137.4 1350.5" stroke="#000" stroke-width="2" fill="none" stroke-linecap="round" stroke-linejoin="round" />
<path d="M 831.6 1346.9 L 853.0 1347.4 L 860.4 1347.8" stroke="#000" stroke-width="2" fill="none" stroke-linecap="round" stroke-linejoin="round" />
<path d="M 849.0 1669.1 L 907.8 1604.1 L 960.5 1546.0 L 1019.9 1479.6 L 1020.4 1479.1 L 1074.3 1420.7 L 1075.4 1419.6 L 1137.4 1350.5" stroke="#000" stroke-width="2" fill="none" stroke-linecap="round" stroke-linejoin="round" />
<path d="M 1184.5 1351.0 L 1394.0 1352.1 L 1472.3 1354.1 L 1497.3 1354.4 L 1519.7 1355.8 L 1567.8 1361.4 L 1569.1 1361.3 L 1581.4 1359.9" stroke="#000" stroke-width="2" fill="none" stroke-linecap="round" stroke-linejoin="round" />
<path d="M 1177.7 1303.3 L 1192.5 1305.9" stroke="#000" stroke-width="2" fill="none" stroke-linecap="round" stroke-linejoin="round" />
<path d="M 1225.5 1010.0 L 1225.4 1011.3 L 1226.1 1014.9 L 1223.8 1023.1 L 1222.3 1028.2 L 1220.8 1036.5 L 1220.1 1047.2 L 1222.1 1071.9 L 1224.0 1096.2 L 1224.0 1111.7 L 1223.9 1114.9 L 1223.2 1129.5 L 1219.1 1150.8 L 1213.2 1184.6 L 1209.8 1209.7 L 1208.4 1224.0 L 1208.1 1238.3 L 1206.7 1248.0" stroke="#000" stroke-width="2" fill="none" stroke-linecap="round" stroke-linejoin="round" />
<path d="M 1229.4 1242.6 L 1220.8 1230.0 L 1208.4 1224.0" stroke="#000" stroke-width="2" fill="none" stroke-linecap="round" stroke-linejoin="round" />
<path d="M 1403.0 1260.2 L 1406.5 1225.8 L 1408.1 1212.3 L 1410.8 1182.8 L 1412.4 1166.7 L 1415.0 1141.7 L 1415.0 1126.1" stroke="#000" stroke-width="2" fill="none" stroke-linecap="round" stroke-linejoin="round" />
<path d="M 1595.4 1276.2 L 1490.9 1268.7 L 1403.0 1260.2 L 1328.1 1251.8 L 1312.6 1250.4 L 1229.4 1242.6 L 1217.8 1242.5 L 1212.7 1243.9 L 1206.7 1248.0" stroke="#000" stroke-width="2" fill="none" stroke-linecap="round" stroke-linejoin="round" />
<path d="M 1526.5 1224.4 L 1464.9 1217.8 L 1408.1 1212.3" stroke="#000" stroke-width="2" fill="none" stroke-linecap="round" stroke-linejoin="round" />
<path d="M 1426.1 1112.3 L 1443.9 1113.2 L 1483.9 1114.6 L 1520.9 1114.0 L 1532.9 1112.9 L 1547.1 1110.5 L 1555.9 1108.6 L 1576.9 1107.7 L 1582.4 1108.5 L 1606.7 1108.3 L 1622.7 1107.7" stroke="#000" stroke-width="2" fill="none" stroke-linecap="round" stroke-linejoin="round" />
<path d="M 1415.0 1126.1 L 1425.4 1113.3 L 1426.1 1112.3 L 1433.4 1102.9 L 1434.4 1098.3 L 1433.8 1081.0 L 1432.0 1062.5 L 1429.7 1052.1 L 1425.6 1034.9 L 1421.4 1016.0 L 1416.0 1003.5" stroke="#000" stroke-width="2" fill="none" stroke-linecap="round" stroke-linejoin="round" />
<path d="M 1527.0 1167.6 L 1491.5 1160.9 L 1454.1 1151.8 L 1433.9 1146.8 L 1427.9 1143.5 L 1419.5 1135.4 L 1415.0 1126.1" stroke="#000" stroke-width="2" fill="none" stroke-linecap="round" stroke-linejoin="round" />
<path d="M 1331.1 1008.4 L 1336.1 1004.2 L 1349.2 998.2 L 1363.7 992.9 L 1370.7 990.2 L 1376.3 989.4 L 1384.3 989.5" stroke="#000" stroke-width="2" fill="none" stroke-linecap="round" stroke-linejoin="round" />
<path d="M 1225.5 1010.0 L 1238.5 1008.6 L 1260.2 1009.7 L 1296.7 1009.8 L 1324.9 1008.6 L 1331.1 1008.4" stroke="#000" stroke-width="2" fill="none" stroke-linecap="round" stroke-linejoin="round" />
<path d="M 1298.9 1122.1 L 1301.7 1123.7 L 1306.8 1124.6 L 1313.1 1124.8 L 1328.4 1128.4 L 1350.1 1126.9 L 1375.1 1126.6 L 1404.6 1125.9 L 1415.0 1126.1" stroke="#000" stroke-width="2" fill="none" stroke-linecap="round" stroke-linejoin="round" />
<path d="M 1365.8 1084.7 L 1387.6 1083.3 L 1388.0 1079.9 L 1387.5 1072.2 L 1386.2 1065.9 L 1384.1 1061.8 L 1383.0 1057.0 L 1380.8 1039.5 L 1377.8 1021.3 L 1378.3 1015.6 L 1387.6 1012.7" stroke="#000" stroke-width="2" fill="none" stroke-linecap="round" stroke-linejoin="round" />
<path d="M 1384.3 989.5 L 1384.4 995.6 L 1386.2 1005.9 L 1387.6 1012.7 L 1416.0 1003.5 L 1413.9 992.7 L 1388.7 989.8 L 1384.3 989.5" stroke="#000" stroke-width="2" fill="none" stroke-linecap="round" stroke-linejoin="round" />
<path d="M 1298.9 1122.1 L 1305.2 1104.6 L 1314.1 1064.0 L 1320.5 1037.9 L 1331.1 1008.4" stroke="#000" stroke-width="2" fill="none" stroke-linecap="round" stroke-linejoin="round" />
<path d="M 1220.8 1230.0 L 1226.0 1224.0 L 1240.2 1207.2 L 1256.5 1187.8 L 1275.6 1159.0 L 1287.1 1141.6 L 1298.9 1122.1" stroke="#000" stroke-width="2" fill="none" stroke-linecap="round" stroke-linejoin="round" />
<path d="M 1413.9 992.7 L 1419.1 992.2 L 1441.0 985.2 L 1442.0 984.7 L 1474.5 968.5 L 1476.3 967.6 L 1488.4 961.2 L 1495.2 957.3 L 1522.1 944.0" stroke="#000" stroke-width="2" fill="none" stroke-linecap="round" stroke-linejoin="round" />
<path d="M 1660.6 893.4 L 1647.2 898.9 L 1619.0 910.6 L 1603.8 915.9 L 1567.6 927.8 L 1543.3 935.8 L 1522.1 944.0" stroke="#000" stroke-width="2" fill="none" stroke-linecap="round" stroke-linejoin="round" />
<path d="M 1208.6 921.8 L 1209.2 923.9 L 1214.7 946.0 L 1220.6 974.8 L 1225.1 1001.5 L 1225.5 1010.0" stroke="#000" stroke-width="2" fill="none" stroke-linecap="round" stroke-linejoin="round" />
<path d="M 1356.2 820.9 L 1363.3 814.2 L 1380.8 808.5 L 1386.8 807.2 L 1430.3 796.5 L 1469.7 784.1 L 1520.3 761.8 L 1563.6 744.6 L 1589.8 733.7 L 1599.5 732.7 L 1620.8 732.6 L 1633.0 734.4 L 1654.8 738.4 L 1667.0 737.4 L 1679.9 738.0" stroke="#000" stroke-width="2" fill="none" stroke-linecap="round" stroke-linejoin="round" />
<path d="M 1430.3 796.5 L 1436.3 818.7 L 1439.1 829.3 L 1445.7 851.7 L 1450.6 869.8 L 1457.3 890.9 L 1456.7 893.7 L 1455.5 898.6 L 1460.6 915.2 L 1462.5 922.7 L 1466.5 936.0 L 1470.0 949.3 L 1476.3 967.6" stroke="#000" stroke-width="2" fill="none" stroke-linecap="round" stroke-linejoin="round" />
<path d="M 1450.6 869.8 L 1487.7 857.7 L 1493.1 855.8 L 1536.4 839.1 L 1580.9 822.5 L 1600.4 814.8 L 1626.0 805.2 L 1648.8 796.4 L 1658.5 793.0" stroke="#000" stroke-width="2" fill="none" stroke-linecap="round" stroke-linejoin="round" />
<path d="M 1214.7 946.0 L 1220.6 942.5 L 1230.5 940.6 L 1236.3 937.9 L 1250.0 935.3 L 1263.8 933.9 L 1265.0 933.4 L 1265.6 932.8 L 1265.6 930.1 L 1269.2 929.1 L 1296.0 927.9 L 1310.5 926.7 L 1317.9 927.5 L 1344.5 928.9 L 1360.8 927.3 L 1365.4 926.7 L 1372.8 925.7" stroke="#000" stroke-width="2" fill="none" stroke-linecap="round" stroke-linejoin="round" />
<path d="M 1177.0 830.8 L 1195.3 823.9 L 1208.5 820.8 L 1222.0 818.3 L 1244.7 814.5 L 1250.8 813.5 L 1277.6 809.0 L 1296.7 805.5 L 1303.0 805.4 L 1320.1 806.8 L 1325.6 807.9 L 1330.2 809.9 L 1342.4 818.1 L 1350.5 820.7 L 1356.2 820.9" stroke="#000" stroke-width="2" fill="none" stroke-linecap="round" stroke-linejoin="round" />
<path d="M 1522.1 944.0 L 1516.8 926.2 L 1511.5 907.9 L 1502.7 883.5 L 1493.1 855.8 L 1486.0 833.0 L 1480.0 814.2 L 1475.0 799.5 L 1469.7 784.1" stroke="#000" stroke-width="2" fill="none" stroke-linecap="round" stroke-linejoin="round" />
<path d="M 1265.6 930.1 L 1264.2 922.6 L 1261.6 908.4 L 1257.7 876.9 L 1255.5 849.6 L 1250.8 813.5" stroke="#000" stroke-width="2" fill="none" stroke-linecap="round" stroke-linejoin="round" />
<path d="M 1356.2 820.9 L 1358.1 832.2 L 1362.7 857.7 L 1363.3 862.4 L 1362.6 872.7 L 1362.8 888.1 L 1363.4 893.2 L 1371.0 920.5 L 1372.8 925.7 L 1380.2 947.0 L 1384.9 958.4 L 1389.7 974.9 L 1388.7 989.8" stroke="#000" stroke-width="2" fill="none" stroke-linecap="round" stroke-linejoin="round" />
<path d="M 1707.6 629.0 L 1666.2 644.2 L 1625.0 659.3 L 1570.3 679.4" stroke="#000" stroke-width="2" fill="none" stroke-linecap="round" stroke-linejoin="round" />
<path d="M 1369.8 757.7 L 1363.9 735.5 L 1363.2 734.8 L 1361.5 734.7 L 1328.5 744.2 L 1321.1 746.2 L 1294.1 751.8 L 1288.7 752.8 L 1264.6 757.0 L 1196.4 769.4 L 1161.5 776.4" stroke="#000" stroke-width="2" fill="none" stroke-linecap="round" stroke-linejoin="round" />
<path d="M 1380.8 808.5 L 1376.7 793.6 L 1372.5 774.3 L 1369.8 757.7" stroke="#000" stroke-width="2" fill="none" stroke-linecap="round" stroke-linejoin="round" />
<path d="M 1332.9 766.6 L 1352.8 763.0 L 1369.8 757.7 L 1388.8 753.0 L 1400.7 750.0 L 1408.2 748.0 L 1416.2 746.2 L 1448.1 738.8" stroke="#000" stroke-width="2" fill="none" stroke-linecap="round" stroke-linejoin="round" />
<path d="M 1354.6 540.0 L 1363.7 580.7 L 1373.3 621.6" stroke="#000" stroke-width="2" fill="none" stroke-linecap="round" stroke-linejoin="round" />
<path d="M 1366.8 45.3 L 1373.0 85.6 L 1375.8 114.5 L 1376.7 139.1 L 1374.6 161.1" stroke="#000" stroke-width="2" fill="none" stroke-linecap="round" stroke-linejoin="round" />
<path d="M 1702.0 578.7 L 1618.5 611.2 L 1557.9 633.2" stroke="#000" stroke-width="2" fill="none" stroke-linecap="round" stroke-linejoin="round" />
<path d="M 1543.1 584.8 L 1599.2 564.5 L 1640.0 548.9 L 1681.5 533.2" stroke="#000" stroke-width="2" fill="none" stroke-linecap="round" stroke-linejoin="round" />
<path d="M 1530.9 550.6 L 1561.6 539.5 L 1611.3 520.9 L 1667.0 499.4" stroke="#000" stroke-width="2" fill="none" stroke-linecap="round" stroke-linejoin="round" />
<path d="M 1164.6 594.2 L 1163.5 647.2 L 1159.9 664.3 L 1157.0 690.9 L 1153.5 709.8 L 1152.8 718.1 L 1153.1 728.0 L 1156.6 749.2 L 1161.0 773.6 L 1161.5 776.4 L 1165.2 798.0 L 1168.6 811.0 L 1174.5 825.7 L 1177.0 830.8" stroke="#000" stroke-width="2" fill="none" stroke-linecap="round" stroke-linejoin="round" />
<path d="M 1341.9 712.2 L 1307.4 719.9 L 1289.1 723.4 L 1243.3 732.2 L 1212.7 738.9 L 1156.6 749.2" stroke="#000" stroke-width="2" fill="none" stroke-linecap="round" stroke-linejoin="round" />
<path d="M 1157.0 690.9 L 1170.7 693.0 L 1183.2 690.5 L 1191.6 685.6 L 1204.7 674.6 L 1218.4 661.8 L 1231.6 656.2 L 1239.8 653.2 L 1262.9 647.6 L 1326.1 632.8 L 1373.3 621.6 L 1388.7 618.0 L 1463.0 601.1 L 1542.1 581.8" stroke="#000" stroke-width="2" fill="none" stroke-linecap="round" stroke-linejoin="round" />
<path d="M 1310.4 591.5 L 1363.7 580.7 L 1425.7 569.6 L 1492.9 558.2 L 1530.9 550.6" stroke="#000" stroke-width="2" fill="none" stroke-linecap="round" stroke-linejoin="round" />
<path d="M 853.7 769.7 L 859.2 697.7 L 875.2 677.0 L 886.8 672.2 L 922.6 661.7 L 924.0 661.3 L 955.8 653.0 L 981.9 646.2 L 984.2 645.5 L 1004.1 640.2 L 1034.1 632.1 L 1043.5 629.6 L 1085.9 616.4 L 1124.9 604.8 L 1135.3 601.9 L 1164.6 594.2 L 1166.5 593.8 L 1192.7 586.8 L 1259.6 566.5 L 1328.7 546.9 L 1354.6 540.0 L 1378.6 533.0 L 1509.8 495.4 L 1533.4 488.8 L 1629.4 461.2 L 1644.4 461.5" stroke="#000" stroke-width="2" fill="none" stroke-linecap="round" stroke-linejoin="round" />
<path d="M 1373.2 728.4 L 1383.8 720.0 L 1397.8 710.1 L 1411.7 704.8 L 1424.1 701.2 L 1414.2 658.5 L 1456.3 649.1 L 1461.6 671.2 L 1503.6 662.7 L 1562.4 649.3" stroke="#000" stroke-width="2" fill="none" stroke-linecap="round" stroke-linejoin="round" />
<path d="M 1509.8 495.4 L 1488.5 434.0 L 1482.8 419.3 L 1465.3 373.3 L 1464.7 371.9 L 1451.2 336.5 L 1450.6 335.1 L 1440.2 305.9 L 1423.9 277.0 L 1408.8 251.5 L 1392.2 213.2 L 1382.0 187.3 L 1374.6 161.1" stroke="#000" stroke-width="2" fill="none" stroke-linecap="round" stroke-linejoin="round" />
<path d="M 1509.8 495.4 L 1530.9 550.6 L 1542.1 581.8 L 1542.9 584.0 L 1543.1 584.8 L 1552.2 612.4 L 1557.9 633.2 L 1562.4 649.3 L 1570.3 679.4 L 1580.0 705.4 L 1587.3 725.4 L 1589.8 733.7" stroke="#000" stroke-width="2" fill="none" stroke-linecap="round" stroke-linejoin="round" />
<path d="M 1465.3 373.3 L 1520.1 352.0 L 1581.4 329.3" stroke="#000" stroke-width="2" fill="none" stroke-linecap="round" stroke-linejoin="round" />
<path d="M 1451.2 336.5 L 1505.2 316.1 L 1564.5 293.2" stroke="#000" stroke-width="2" fill="none" stroke-linecap="round" stroke-linejoin="round" />
<path d="M 1550.6 366.4 L 1565.6 403.4" stroke="#000" stroke-width="2" fill="none" stroke-linecap="round" stroke-linejoin="round" />
<path d="M 1488.5 434.0 L 1529.1 418.0 L 1545.1 411.6 L 1565.6 403.4 L 1608.0 386.5" stroke="#000" stroke-width="2" fill="none" stroke-linecap="round" stroke-linejoin="round" />
<path d="M 1513.6 378.4 L 1529.1 418.0" stroke="#000" stroke-width="2" fill="none" stroke-linecap="round" stroke-linejoin="round" />
<path d="M 1113.7 75.1 L 1122.4 106.4 L 1142.9 177.1 L 1152.7 212.1 L 1168.2 268.1 L 1178.8 303.4 L 1186.5 333.3 L 1196.9 370.1 L 1204.8 396.7 L 1212.9 424.5" stroke="#000" stroke-width="2" fill="none" stroke-linecap="round" stroke-linejoin="round" />
<path d="M 1176.0 504.1 L 1183.0 503.3 L 1238.7 487.3 L 1283.3 474.5 L 1306.3 468.1" stroke="#000" stroke-width="2" fill="none" stroke-linecap="round" stroke-linejoin="round" />
<path d="M 1342.4 204.9 L 1357.4 241.6 L 1367.6 266.8" stroke="#000" stroke-width="2" fill="none" stroke-linecap="round" stroke-linejoin="round" />
<path d="M 1313.9 238.1 L 1331.0 280.4 L 1367.6 266.8 L 1408.8 251.5" stroke="#000" stroke-width="2" fill="none" stroke-linecap="round" stroke-linejoin="round" />
<path d="M 1238.7 487.3 L 1248.3 525.3 L 1259.6 566.5" stroke="#000" stroke-width="2" fill="none" stroke-linecap="round" stroke-linejoin="round" />
<path d="M 1207.4 437.0 L 1223.0 433.1 L 1240.6 428.8 L 1270.3 420.6 L 1291.9 414.9" stroke="#000" stroke-width="2" fill="none" stroke-linecap="round" stroke-linejoin="round" />
<path d="M 1166.5 593.8 L 1168.3 579.1 L 1170.6 550.6 L 1170.8 547.5 L 1175.6 507.0 L 1176.0 504.1 L 1178.4 495.0 L 1178.8 493.6" stroke="#000" stroke-width="2" fill="none" stroke-linecap="round" stroke-linejoin="round" />
<path d="M 1284.1 270.8 L 1288.1 267.3 L 1302.8 249.9 L 1313.9 238.1 L 1342.4 204.9 L 1359.5 183.4 L 1374.6 161.1" stroke="#000" stroke-width="2" fill="none" stroke-linecap="round" stroke-linejoin="round" />
<path d="M 1125.5 23.7 L 1111.4 21.0 L 1106.9 20.3" stroke="#000" stroke-width="2" fill="none" stroke-linecap="round" stroke-linejoin="round" />
<path d="M 1248.3 525.3 L 1207.1 539.0 L 1170.6 550.6" stroke="#000" stroke-width="2" fill="none" stroke-linecap="round" stroke-linejoin="round" />
<path d="M 1328.7 546.9 L 1317.1 504.8 L 1306.3 468.1" stroke="#000" stroke-width="2" fill="none" stroke-linecap="round" stroke-linejoin="round" />
<path d="M 1367.8 492.7 L 1370.6 504.5 L 1378.6 533.0" stroke="#000" stroke-width="2" fill="none" stroke-linecap="round" stroke-linejoin="round" />
<path d="M 1212.9 424.5 L 1217.3 414.3 L 1223.5 400.1" stroke="#000" stroke-width="2" fill="none" stroke-linecap="round" stroke-linejoin="round" />
<path d="M 1374.3 330.9 L 1330.6 346.2 L 1278.6 362.5" stroke="#000" stroke-width="2" fill="none" stroke-linecap="round" stroke-linejoin="round" />
<path d="M 1109.2 33.8 L 1125.5 23.7" stroke="#000" stroke-width="2" fill="none" stroke-linecap="round" stroke-linejoin="round" />
<path d="M 1154.8 394.5 L 1201.3 396.5 L 1204.8 396.7 L 1211.0 397.9 L 1223.5 400.1" stroke="#000" stroke-width="2" fill="none" stroke-linecap="round" stroke-linejoin="round" />
<path d="M 1217.3 414.3 L 1223.0 433.1 L 1228.2 451.4 L 1238.7 487.3" stroke="#000" stroke-width="2" fill="none" stroke-linecap="round" stroke-linejoin="round" />
<path d="M 1339.8 474.8 L 1360.0 467.6 L 1361.2 467.1 L 1399.2 451.9 L 1441.1 435.6 L 1482.8 419.3" stroke="#000" stroke-width="2" fill="none" stroke-linecap="round" stroke-linejoin="round" />
<path d="M 1306.3 468.1 L 1297.2 435.0 L 1291.9 414.9 L 1284.4 386.4 L 1278.6 362.5 L 1278.2 360.8 L 1265.3 317.7 L 1262.2 310.4" stroke="#000" stroke-width="2" fill="none" stroke-linecap="round" stroke-linejoin="round" />
<path d="M 837.4 70.0 L 816.6 65.1" stroke="#000" stroke-width="2" fill="none" stroke-linecap="round" stroke-linejoin="round" />
<path d="M 1102.0 -7.9 L 1095.6 6.4 L 1087.2 20.2" stroke="#000" stroke-width="2" fill="none" stroke-linecap="round" stroke-linejoin="round" />
<path d="M 1062.2 31.9 L 1056.8 34.4 L 1048.7 35.6 L 995.9 44.2 L 837.4 70.0" stroke="#000" stroke-width="2" fill="none" stroke-linecap="round" stroke-linejoin="round" />
<path d="M 1056.8 34.4 L 1060.9 34.4 L 1069.4 37.0 L 1074.9 38.8 L 1078.9 41.5 L 1082.9 45.3 L 1086.3 51.3 L 1091.8 61.1" stroke="#000" stroke-width="2" fill="none" stroke-linecap="round" stroke-linejoin="round" />
<path d="M 1062.2 31.9 L 1074.3 32.2 L 1079.8 33.1 L 1085.5 34.9" stroke="#000" stroke-width="2" fill="none" stroke-linecap="round" stroke-linejoin="round" />
<path d="M 1004.5 186.0 L 992.6 187.1 L 945.8 190.5 L 898.5 193.3 L 885.4 194.3 L 840.7 197.9" stroke="#000" stroke-width="2" fill="none" stroke-linecap="round" stroke-linejoin="round" />
<path d="M 1085.9 616.4 L 1087.5 604.3 L 1089.8 592.2 L 1094.8 558.0 L 1097.6 534.2 L 1098.5 527.9 L 1099.7 503.5" stroke="#000" stroke-width="2" fill="none" stroke-linecap="round" stroke-linejoin="round" />
<path d="M 1089.5 182.5 L 1091.8 204.4 L 1096.8 225.1 L 1105.0 255.6 L 1120.7 302.2 L 1126.6 319.5 L 1136.5 348.8 L 1152.5 389.3 L 1154.8 394.5" stroke="#000" stroke-width="2" fill="none" stroke-linecap="round" stroke-linejoin="round" />
<path d="M 1196.1 461.2 L 1187.0 460.5 L 1176.7 460.1" stroke="#000" stroke-width="2" fill="none" stroke-linecap="round" stroke-linejoin="round" />
<path d="M 1332.0 164.1 L 1283.8 166.7 L 1235.2 170.6 L 1188.7 173.7 L 1142.9 177.1 L 1092.3 178.7" stroke="#000" stroke-width="2" fill="none" stroke-linecap="round" stroke-linejoin="round" />
<path d="M 1004.1 640.2 L 1010.7 595.0 L 1015.8 555.6 L 1019.9 522.5 L 1022.0 500.8" stroke="#000" stroke-width="2" fill="none" stroke-linecap="round" stroke-linejoin="round" />
<path d="M 1106.1 315.4 L 1104.7 359.9 L 1103.4 387.7 L 1103.2 392.0 L 1102.0 446.3 L 1100.3 478.8 L 1099.7 503.5" stroke="#000" stroke-width="2" fill="none" stroke-linecap="round" stroke-linejoin="round" />
<path d="M 1159.0 65.9 L 1188.7 173.7 L 1190.2 182.0 L 1205.7 235.7 L 1220.3 291.3 L 1225.2 311.3 L 1236.8 349.7 L 1242.1 357.0" stroke="#000" stroke-width="2" fill="none" stroke-linecap="round" stroke-linejoin="round" />
<path d="M 995.9 44.2 L 997.9 86.8 L 1000.5 131.2 L 1004.5 186.0" stroke="#000" stroke-width="2" fill="none" stroke-linecap="round" stroke-linejoin="round" />
<path d="M 1091.8 61.1 L 1095.0 50.9 L 1102.6 40.8" stroke="#000" stroke-width="2" fill="none" stroke-linecap="round" stroke-linejoin="round" />
<path d="M 955.8 653.0 L 957.9 640.1 L 963.1 607.8 L 972.2 548.5 L 974.2 536.3 L 980.1 499.8 L 985.7 454.5 L 987.7 438.6 L 989.3 430.5 L 991.1 415.6 L 993.5 389.8 L 994.5 386.2 L 995.2 383.1 L 995.8 339.1 L 997.2 295.7 L 998.9 246.6 L 1003.3 190.5 L 1004.5 186.0 L 1016.2 184.5 L 1052.2 181.8 L 1085.4 179.3" stroke="#000" stroke-width="2" fill="none" stroke-linecap="round" stroke-linejoin="round" />
<path d="M 1175.6 507.0 L 1141.4 505.5 L 1099.7 503.5 L 1061.0 502.1 L 1053.0 501.8 L 1051.2 501.7 L 1022.0 500.8 L 1016.5 500.7 L 980.1 499.8" stroke="#000" stroke-width="2" fill="none" stroke-linecap="round" stroke-linejoin="round" />
<path d="M 1272.9 112.5 L 1279.8 146.5 L 1283.8 166.7 L 1288.3 188.2 L 1293.8 212.5 L 1302.8 249.9" stroke="#000" stroke-width="2" fill="none" stroke-linecap="round" stroke-linejoin="round" />
<path d="M 1178.4 495.0 L 1177.3 482.9 L 1176.7 460.1 L 1154.8 394.5" stroke="#000" stroke-width="2" fill="none" stroke-linecap="round" stroke-linejoin="round" />
<path d="M 1152.5 389.3 L 1148.1 397.6 L 1141.4 505.5 L 1135.3 601.9" stroke="#000" stroke-width="2" fill="none" stroke-linecap="round" stroke-linejoin="round" />
<path d="M 1266.1 277.8 L 1264.5 278.2 L 1245.6 283.8 L 1220.3 291.3 L 1178.8 303.4 L 1153.1 311.3 L 1126.6 319.5" stroke="#000" stroke-width="2" fill="none" stroke-linecap="round" stroke-linejoin="round" />
<path d="M 1053.0 501.8 L 1053.8 482.6 L 1055.3 445.0 L 1055.4 440.7 L 1057.1 391.0" stroke="#000" stroke-width="2" fill="none" stroke-linecap="round" stroke-linejoin="round" />
<path d="M 1203.0 54.8 L 1216.0 100.8 L 1224.8 135.0 L 1235.2 170.6 L 1244.3 205.9 L 1257.5 253.3 L 1262.5 270.8" stroke="#000" stroke-width="2" fill="none" stroke-linecap="round" stroke-linejoin="round" />
<path d="M 943.6 733.0 L 946.2 733.8 L 971.3 739.5 L 1017.6 751.6" stroke="#000" stroke-width="2" fill="none" stroke-linecap="round" stroke-linejoin="round" />
<path d="M 646.4 651.2 L 785.9 730.8 L 794.0 736.8 L 812.7 747.0 L 853.7 769.7" stroke="#000" stroke-width="2" fill="none" stroke-linecap="round" stroke-linejoin="round" />
<path d="M 1003.3 860.0 L 1031.6 880.0 L 1036.3 883.3 L 1038.4 884.6 L 1059.9 898.5 L 1061.3 899.3 L 1090.7 913.8 L 1096.2 916.8 L 1107.5 920.9 L 1122.5 925.3 L 1128.0 926.3 L 1133.3 926.7 L 1159.0 924.7 L 1164.2 924.0 L 1190.8 922.3 L 1208.6 921.8" stroke="#000" stroke-width="2" fill="none" stroke-linecap="round" stroke-linejoin="round" />
<path d="M 1135.3 601.9 L 1128.1 663.4 L 1126.0 676.6 L 1124.5 686.1 L 1120.3 713.1 L 1072.8 706.3" stroke="#000" stroke-width="2" fill="none" stroke-linecap="round" stroke-linejoin="round" />
<path d="M 747.3 587.2 L 779.2 589.9" stroke="#000" stroke-width="2" fill="none" stroke-linecap="round" stroke-linejoin="round" />
<path d="M 835.4 481.1 L 783.5 481.9 L 743.4 483.1 L 609.3 486.1" stroke="#000" stroke-width="2" fill="none" stroke-linecap="round" stroke-linejoin="round" />
<path d="M 859.2 697.7 L 862.2 675.0 L 869.2 602.5 L 872.6 569.1 L 874.4 530.0 L 877.2 479.6 L 883.3 393.5 L 882.8 385.9 L 882.8 383.9 L 883.8 332.3 L 884.7 254.7 L 885.4 194.3" stroke="#000" stroke-width="2" fill="none" stroke-linecap="round" stroke-linejoin="round" />
<path d="M 1067.8 738.7 L 1072.8 706.3 L 1073.6 701.2 L 1077.3 676.4 L 1079.1 663.9 L 1085.9 616.4" stroke="#000" stroke-width="2" fill="none" stroke-linecap="round" stroke-linejoin="round" />
<path d="M 926.2 384.9 L 962.3 385.6 L 994.5 386.2" stroke="#000" stroke-width="2" fill="none" stroke-linecap="round" stroke-linejoin="round" />
<path d="M 984.2 645.5 L 981.9 666.1 L 976.8 703.1 L 972.8 728.5 L 971.3 739.5" stroke="#000" stroke-width="2" fill="none" stroke-linecap="round" stroke-linejoin="round" />
<path d="M 874.4 530.0 L 926.2 534.0 L 974.2 536.3" stroke="#000" stroke-width="2" fill="none" stroke-linecap="round" stroke-linejoin="round" />
<path d="M 1017.6 751.6 L 1022.8 714.3 L 1028.5 675.7 L 1030.0 664.8 L 1034.1 632.1" stroke="#000" stroke-width="2" fill="none" stroke-linecap="round" stroke-linejoin="round" />
<path d="M 1157.0 690.9 L 1140.8 688.8 L 1124.5 686.1" stroke="#000" stroke-width="2" fill="none" stroke-linecap="round" stroke-linejoin="round" />
<path d="M 783.5 481.9 L 779.2 589.9 L 778.8 595.5 L 832.8 600.4 L 869.2 602.5 L 963.1 607.8" stroke="#000" stroke-width="2" fill="none" stroke-linecap="round" stroke-linejoin="round" />
<path d="M 955.8 653.0 L 956.5 666.0 L 952.3 686.9 L 947.2 713.9 L 943.6 733.0" stroke="#000" stroke-width="2" fill="none" stroke-linecap="round" stroke-linejoin="round" />
<path d="M 699.4 316.7 L 707.3 337.4 L 725.6 385.1 L 731.5 400.1 L 741.4 425.6 L 743.6 441.9 L 743.4 483.1 L 744.6 517.0 L 747.3 587.2" stroke="#000" stroke-width="2" fill="none" stroke-linecap="round" stroke-linejoin="round" />
<path d="M 660.6 444.5 L 743.6 441.9 L 767.7 441.6" stroke="#000" stroke-width="2" fill="none" stroke-linecap="round" stroke-linejoin="round" />
<path d="M 794.0 736.8 L 796.4 732.3 L 811.6 705.0 L 822.0 685.5 L 824.8 668.9 L 829.6 626.3 L 832.8 600.4 L 834.0 551.3 L 835.2 517.2 L 835.4 481.1" stroke="#000" stroke-width="2" fill="none" stroke-linecap="round" stroke-linejoin="round" />
<path d="M 1003.3 860.0 L 1004.9 840.7 L 1008.2 816.5 L 1012.4 786.2 L 1016.4 759.6 L 1017.6 751.6" stroke="#000" stroke-width="2" fill="none" stroke-linecap="round" stroke-linejoin="round" />
<path d="M 1096.2 916.8 L 1096.8 913.8 L 1097.3 901.8 L 1096.6 884.0 L 1095.5 865.2 L 1094.5 844.2 L 1094.0 834.3 L 1093.2 820.6 L 1092.4 807.5 L 1089.5 771.4 L 1088.4 758.2 L 1131.0 752.9 L 1156.6 749.2" stroke="#000" stroke-width="2" fill="none" stroke-linecap="round" stroke-linejoin="round" />
<path d="M 891.7 1088.4 L 890.8 1103.8 L 891.6 1120.1 L 892.1 1129.2 L 892.4 1135.6 L 893.9 1159.5 L 895.3 1181.5 L 895.5 1184.8 L 896.6 1205.8 L 897.0 1218.2 L 897.4 1230.1 L 898.0 1249.2 L 898.0 1249.7 L 899.6 1268.7 L 900.6 1287.5 L 901.2 1302.0 L 901.2 1313.8" stroke="#000" stroke-width="2" fill="none" stroke-linecap="round" stroke-linejoin="round" />
<path d="M 1105.6 1182.1 L 1121.9 1193.6 L 1126.8 1197.4 L 1143.4 1200.0 L 1146.2 1200.4 L 1158.0 1202.9 L 1182.9 1206.7 L 1205.9 1209.5 L 1209.8 1209.7" stroke="#000" stroke-width="2" fill="none" stroke-linecap="round" stroke-linejoin="round" />
<path d="M 1133.4 1269.3 L 1136.6 1253.2 L 1138.8 1246.0 L 1140.6 1236.0 L 1140.3 1231.6 L 1143.3 1217.2 L 1146.2 1200.4 L 1146.3 1199.6 L 1150.4 1176.7 L 1152.4 1166.4 L 1155.7 1149.4 L 1156.9 1142.6 L 1161.7 1117.4 L 1162.1 1110.8" stroke="#000" stroke-width="2" fill="none" stroke-linecap="round" stroke-linejoin="round" />
<path d="M 1044.5 1103.3 L 1119.1 1106.8 L 1147.4 1109.9 L 1162.1 1110.8 L 1167.6 1111.2 L 1198.1 1113.4 L 1223.9 1114.9" stroke="#000" stroke-width="2" fill="none" stroke-linecap="round" stroke-linejoin="round" />
<path d="M 1039.0 1146.9 L 1034.9 1146.4 L 1013.4 1143.6 L 979.5 1139.5 L 971.5 1138.5 L 965.3 1138.3 L 942.9 1135.3 L 911.4 1131.7 L 892.4 1129.2 L 892.1 1129.2 L 877.9 1127.8 L 844.3 1123.9 L 836.5 1121.8" stroke="#000" stroke-width="2" fill="none" stroke-linecap="round" stroke-linejoin="round" />
<path d="M 838.1 1083.5 L 891.7 1088.4 L 974.9 1095.7 L 1022.4 1100.7 L 1044.5 1103.3" stroke="#000" stroke-width="2" fill="none" stroke-linecap="round" stroke-linejoin="round" />
<path d="M 1197.2 1284.0 L 1179.3 1280.3 L 1150.0 1274.3 L 1133.4 1269.3 L 1124.9 1267.2 L 1105.6 1263.9 L 1095.9 1262.1 L 1079.8 1260.5 L 1055.3 1259.5 L 1038.6 1261.6 L 1025.6 1263.9 L 1015.4 1266.4 L 990.2 1272.4 L 982.9 1274.4 L 958.4 1286.1 L 955.7 1287.5 L 930.7 1299.5 L 904.1 1312.4 L 901.2 1313.8 L 879.0 1324.8 L 870.7 1328.4 L 860.5 1332.8" stroke="#000" stroke-width="2" fill="none" stroke-linecap="round" stroke-linejoin="round" />
<path d="M 958.4 1286.1 L 960.3 1265.3 L 962.8 1240.9 L 964.7 1215.3 L 967.1 1189.6 L 967.5 1184.3 L 969.2 1163.3 L 971.5 1138.5 L 971.5 1138.0 L 974.1 1112.0 L 974.9 1095.7" stroke="#000" stroke-width="2" fill="none" stroke-linecap="round" stroke-linejoin="round" />
<path d="M 1044.5 1103.3 L 1041.7 1123.9 L 1040.7 1133.1 L 1039.1 1146.1 L 1039.0 1146.9 L 1037.3 1160.3 L 1035.2 1178.5 L 1034.1 1188.9 L 1032.8 1201.1 L 1029.6 1224.1 L 1027.1 1243.7 L 1025.2 1255.9 L 1025.6 1263.9" stroke="#000" stroke-width="2" fill="none" stroke-linecap="round" stroke-linejoin="round" />
<path d="M 945.3 821.1 L 943.5 827.8 L 940.1 853.7 L 936.2 879.9 L 932.3 905.9 L 928.8 931.8 L 926.4 948.3" stroke="#000" stroke-width="2" fill="none" stroke-linecap="round" stroke-linejoin="round" />
<path d="M 908.0 799.5 L 906.5 809.9 L 904.2 827.1 L 900.8 852.1 L 897.4 875.0 L 893.7 901.9 L 889.8 928.1 L 886.4 950.0" stroke="#000" stroke-width="2" fill="none" stroke-linecap="round" stroke-linejoin="round" />
<path d="M 974.9 1095.7 L 975.7 1077.6 L 975.6 1051.1 L 975.3 1024.9 L 974.3 998.6 L 973.2 972.3 L 972.2 947.0 L 972.4 946.1 L 972.6 945.2 L 974.1 931.8 L 977.1 905.7 L 979.5 879.3 L 982.2 852.8 L 984.2 845.9" stroke="#000" stroke-width="2" fill="none" stroke-linecap="round" stroke-linejoin="round" />
<path d="M 826.0 1335.6 L 826.5 1318.5 L 828.0 1292.4 L 829.3 1266.3 L 830.6 1239.9 L 832.5 1213.5 L 832.8 1189.8 L 833.0 1185.8 L 833.7 1170.9 L 834.2 1159.4 L 835.9 1133.4 L 836.5 1121.8 L 837.7 1102.9 L 838.1 1083.5 L 838.6 1072.8 L 839.5 1055.5 L 840.2 1041.8" stroke="#000" stroke-width="2" fill="none" stroke-linecap="round" stroke-linejoin="round" />
<path d="M 1225.5 1010.0 L 1216.2 1012.7 L 1193.8 1013.9 L 1163.6 1014.9 L 1156.9 1015.4 L 1141.2 1016.5 L 1128.4 1017.3 L 1113.8 1018.1 L 1109.2 1019.5 L 1098.4 1020.2 L 1071.9 1021.4 L 1057.4 1022.3 L 1039.5 1023.0 L 1014.2 1023.6 L 1000.1 1023.7 L 975.3 1024.9 L 958.2 1026.1 L 943.4 1026.9 L 921.5 1028.5 L 905.8 1029.5 L 886.8 1030.7 L 865.2 1032.2 L 851.6 1032.3 L 847.6 1032.8" stroke="#000" stroke-width="2" fill="none" stroke-linecap="round" stroke-linejoin="round" />
<path d="M 866.0 1250.7 L 883.3 1249.8 L 898.0 1249.2" stroke="#000" stroke-width="2" fill="none" stroke-linecap="round" stroke-linejoin="round" />
<path d="M 836.5 1121.8 L 817.3 1120.6 L 806.8 1120.3 L 772.8 1118.3 L 739.6 1116.7 L 719.7 1116.0 L 712.1 1116.0 L 695.2 1115.0 L 689.3 1114.6 L 684.0 1114.3 L 670.5 1114.2" stroke="#000" stroke-width="2" fill="none" stroke-linecap="round" stroke-linejoin="round" />
<path d="M 1113.8 1018.1 L 1115.3 1039.9 L 1117.0 1061.8 L 1118.4 1087.6 L 1119.1 1106.8" stroke="#000" stroke-width="2" fill="none" stroke-linecap="round" stroke-linejoin="round" />
<path d="M 1162.1 1110.8 L 1161.8 1104.5 L 1161.7 1092.3 L 1162.9 1069.1 L 1163.5 1042.7 L 1163.7 1016.6 L 1163.6 1014.9 L 1163.0 1002.6 L 1163.5 970.1 L 1164.1 950.4 L 1164.2 924.0" stroke="#000" stroke-width="2" fill="none" stroke-linecap="round" stroke-linejoin="round" />
<path d="M 845.1 951.4 L 861.3 951.1 L 867.0 950.4 L 886.4 950.0 L 899.3 949.2 L 917.6 947.9 L 923.7 947.8 L 926.4 948.3 L 927.6 948.5 L 947.6 947.6 L 954.3 947.2 L 969.1 946.3 L 972.6 945.2 L 987.4 944.7 L 1007.1 944.1 L 1020.6 943.4 L 1034.3 942.6" stroke="#000" stroke-width="2" fill="none" stroke-linecap="round" stroke-linejoin="round" />
<path d="M 1113.8 1018.1 L 1112.6 994.2 L 1111.2 968.2 L 1110.1 941.8 L 1107.5 920.9" stroke="#000" stroke-width="2" fill="none" stroke-linecap="round" stroke-linejoin="round" />
<path d="M 672.1 1162.3 L 702.0 1163.4 L 721.0 1164.2 L 752.8 1166.1 L 773.2 1167.3" stroke="#000" stroke-width="2" fill="none" stroke-linecap="round" stroke-linejoin="round" />
<path d="M 862.2 1185.7 L 862.4 1189.1 L 863.8 1215.2 L 865.3 1240.7 L 866.0 1250.7 L 866.7 1258.7 L 868.6 1284.5 L 869.5 1306.8 L 870.7 1328.4" stroke="#000" stroke-width="2" fill="none" stroke-linecap="round" stroke-linejoin="round" />
<path d="M 594.3 909.5 L 757.7 935.8 L 845.1 951.4" stroke="#000" stroke-width="2" fill="none" stroke-linecap="round" stroke-linejoin="round" />
<path d="M 833.0 1185.8 L 852.2 1185.8 L 862.2 1185.7 L 882.2 1185.1 L 895.5 1184.8" stroke="#000" stroke-width="2" fill="none" stroke-linecap="round" stroke-linejoin="round" />
<path d="M 1031.6 880.0 L 1031.9 898.0 L 1033.6 923.9 L 1034.3 942.6 L 1034.9 950.2 L 1037.2 976.6 L 1038.5 1003.0 L 1039.5 1023.0 L 1039.7 1023.6 L 1040.8 1040.3 L 1042.4 1066.5 L 1043.8 1092.5 L 1044.5 1103.3" stroke="#000" stroke-width="2" fill="none" stroke-linecap="round" stroke-linejoin="round" />
<path d="M 833.3 1034.5 L 752.5 1038.9 L 726.8 1040.3 L 698.7 1042.0 L 691.7 1042.3 L 678.4 1043.2 L 675.6 1043.4 L 666.8 1044.0 L 640.7 1045.4 L 632.8 1045.9 L 614.6 1046.6" stroke="#000" stroke-width="2" fill="none" stroke-linecap="round" stroke-linejoin="round" />
<path d="M 773.2 1167.3 L 772.5 1184.2 L 771.6 1210.5 L 770.8 1236.7 L 769.8 1262.9 L 768.8 1289.1 L 767.3 1315.5 L 766.6 1326.1 L 766.1 1337.8" stroke="#000" stroke-width="2" fill="none" stroke-linecap="round" stroke-linejoin="round" />
<path d="M 670.1 1010.9 L 671.3 1018.5 L 672.7 1029.1 L 673.7 1036.7 L 675.6 1043.4" stroke="#000" stroke-width="2" fill="none" stroke-linecap="round" stroke-linejoin="round" />
<path d="M 667.6 964.9 L 585.8 954.8 L 574.9 947.1 L 570.2 939.2" stroke="#000" stroke-width="2" fill="none" stroke-linecap="round" stroke-linejoin="round" />
<path d="M 679.6 1322.9 L 676.9 1323.0 L 674.6 1325.5 L 673.8 1327.1 L 672.9 1329.5 L 672.6 1332.1 L 672.8 1334.5 L 674.0 1336.6 L 675.3 1338.1 L 677.1 1339.3 L 680.1 1341.2 L 683.2 1341.0 L 685.5 1339.7 L 687.7 1337.3 L 689.0 1335.1 L 689.8 1332.4 L 689.9 1329.3 L 688.1 1326.3 L 685.4 1323.6 L 682.8 1322.9 L 680.5 1322.9 L 679.6 1322.9" stroke="#000" stroke-width="2" fill="none" stroke-linecap="round" stroke-linejoin="round" />
<path d="M 668.5 1005.3 L 666.5 998.3 L 667.6 964.9" stroke="#000" stroke-width="2" fill="none" stroke-linecap="round" stroke-linejoin="round" />
<path d="M 676.9 1323.0 L 669.1 1322.5 L 594.8 1318.8 L 594.6 1318.8 L 563.0 1317.6 L 556.6 1318.7 L 537.3 1326.6 L 531.1 1327.7 L 499.9 1327.3 L 470.1 1326.8 L 438.7 1326.3 L 421.1 1324.0 L 415.0 1323.2 L 393.1 1318.2 L 373.4 1312.0 L 367.8 1310.2 L 343.4 1298.9 L 319.3 1285.5 L 295.3 1270.5 L 290.4 1266.0 L 286.1 1261.3" stroke="#000" stroke-width="2" fill="none" stroke-linecap="round" stroke-linejoin="round" />
<path d="M 752.5 1038.9 L 750.9 1011.8 L 749.7 975.1 L 757.7 935.8 L 761.9 912.5 L 767.9 883.4 L 782.8 831.2 L 785.2 802.1 L 788.7 757.2 L 791.4 744.0 L 794.0 736.8" stroke="#000" stroke-width="2" fill="none" stroke-linecap="round" stroke-linejoin="round" />
<path d="M 683.2 1341.0 L 685.8 1341.5 L 689.4 1342.1 L 698.7 1342.6 L 715.2 1342.9 L 734.4 1343.8" stroke="#000" stroke-width="2" fill="none" stroke-linecap="round" stroke-linejoin="round" />
<path d="M 678.4 1043.2 L 678.9 1028.9 L 678.2 1018.5 L 677.9 1017.0 L 670.1 1010.9" stroke="#000" stroke-width="2" fill="none" stroke-linecap="round" stroke-linejoin="round" />
<path d="M 721.0 1164.2 L 721.9 1180.8 L 723.2 1204.6 L 724.7 1224.8 L 726.0 1245.5 L 726.9 1258.7 L 726.1 1272.9 L 726.8 1285.4 L 727.2 1299.3 L 728.2 1312.9 L 728.7 1318.5 L 725.1 1322.4 L 719.3 1323.6 L 712.9 1323.6 L 700.3 1325.0" stroke="#000" stroke-width="2" fill="none" stroke-linecap="round" stroke-linejoin="round" />
<path d="M 666.8 1044.0 L 667.6 1052.5 L 668.8 1075.4 L 669.6 1097.9 L 670.5 1114.2 L 670.9 1138.3 L 672.1 1162.3 L 672.7 1181.0 L 674.8 1207.4 L 676.0 1233.2 L 677.5 1259.4 L 679.0 1285.8 L 680.4 1310.6 L 680.4 1314.2 L 680.3 1320.5 L 680.5 1322.9" stroke="#000" stroke-width="2" fill="none" stroke-linecap="round" stroke-linejoin="round" />
<path d="M 721.0 1164.2 L 720.3 1144.9 L 719.8 1133.9 L 719.7 1116.0 L 720.3 1111.8 L 719.9 1097.0 L 719.7 1089.8 L 719.2 1079.3 L 718.8 1073.7 L 708.3 1074.3 L 692.1 1074.5 L 668.8 1075.4" stroke="#000" stroke-width="2" fill="none" stroke-linecap="round" stroke-linejoin="round" />
<path d="M 812.9 889.9 L 767.9 883.4" stroke="#000" stroke-width="2" fill="none" stroke-linecap="round" stroke-linejoin="round" />
<path d="M 833.7 1170.9 L 815.4 1169.7 L 791.1 1168.4 L 773.2 1167.3" stroke="#000" stroke-width="2" fill="none" stroke-linecap="round" stroke-linejoin="round" />
<path d="M 614.6 1046.6 L 614.4 1049.8 L 612.6 1073.3 L 610.2 1099.8 L 608.7 1125.4 L 607.1 1151.7 L 605.1 1177.6 L 603.0 1202.5 L 601.3 1228.5 L 599.2 1254.9 L 597.6 1277.9 L 595.4 1304.1 L 594.8 1318.8" stroke="#000" stroke-width="2" fill="none" stroke-linecap="round" stroke-linejoin="round" />
<path d="M 627.7 786.1 L 785.2 802.1" stroke="#000" stroke-width="2" fill="none" stroke-linecap="round" stroke-linejoin="round" />
<path d="M 621.9 811.9 L 782.8 831.2" stroke="#000" stroke-width="2" fill="none" stroke-linecap="round" stroke-linejoin="round" />
<path d="M 430.6 1057.2 L 444.9 1056.5 L 462.0 1055.5 L 476.9 1054.7 L 477.9 1054.6 L 485.4 1054.1 L 502.9 1053.2 L 529.6 1051.4 L 532.5 1051.2 L 547.3 1050.2 L 559.0 1049.7 L 559.6 1049.7 L 565.1 1049.4 L 596.6 1048.1 L 608.0 1047.2 L 614.6 1046.6" stroke="#000" stroke-width="2" fill="none" stroke-linecap="round" stroke-linejoin="round" />
<path d="M 585.8 954.8 L 582.4 930.4" stroke="#000" stroke-width="2" fill="none" stroke-linecap="round" stroke-linejoin="round" />
<path d="M 536.6 940.5 L 535.4 969.7 L 531.0 1026.3 L 529.6 1051.4" stroke="#000" stroke-width="2" fill="none" stroke-linecap="round" stroke-linejoin="round" />
<path d="M 767.9 883.4 L 611.0 863.9" stroke="#000" stroke-width="2" fill="none" stroke-linecap="round" stroke-linejoin="round" />
<path d="M 631.2 744.0 L 788.7 757.2" stroke="#000" stroke-width="2" fill="none" stroke-linecap="round" stroke-linejoin="round" />
<path d="M 369.6 1212.4 L 367.0 1221.3 L 364.4 1231.5 L 363.0 1236.4 L 362.1 1241.4 L 362.5 1245.9 L 363.9 1251.1 L 366.3 1254.6 L 371.4 1257.9 L 388.7 1262.7 L 406.2 1267.8 L 414.4 1269.4 L 420.1 1268.5 L 424.8 1266.1 L 426.8 1263.9 L 427.6 1262.9 L 430.3 1252.3 L 436.2 1230.3 L 441.6 1209.6 L 443.2 1203.6 L 447.5 1187.2 L 454.2 1161.9 L 460.2 1140.4 L 464.0 1125.0" stroke="#000" stroke-width="2" fill="none" stroke-linecap="round" stroke-linejoin="round" />
<path d="M 464.0 1125.0 L 458.5 1125.4 L 431.9 1124.9 L 423.7 1125.1 L 418.7 1125.6 L 410.1 1125.9 L 396.2 1125.7 L 392.4 1128.7" stroke="#000" stroke-width="2" fill="none" stroke-linecap="round" stroke-linejoin="round" />
<path d="M 392.4 1128.7 L 382.6 1166.5 L 369.8 1211.8 L 369.6 1212.4 L 386.0 1216.6 L 415.8 1224.8 L 418.1 1225.3 L 436.2 1230.3" stroke="#000" stroke-width="2" fill="none" stroke-linecap="round" stroke-linejoin="round" />
<path d="M 464.0 1125.0 L 468.4 1124.8 L 484.5 1125.4 L 500.8 1125.7 L 533.8 1126.5 L 554.0 1126.4 L 554.9 1114.7 L 555.9 1101.1 L 557.0 1087.0 L 558.5 1064.5 L 559.3 1053.1 L 559.6 1049.7" stroke="#000" stroke-width="2" fill="none" stroke-linecap="round" stroke-linejoin="round" />
<path d="M 570.2 939.2 L 577.1 936.4 L 582.4 930.4 L 594.3 909.5 L 611.0 863.9 L 621.9 811.9" stroke="#000" stroke-width="2" fill="none" stroke-linecap="round" stroke-linejoin="round" />
<path d="M 594.6 392.6 L 595.5 394.3 L 596.8 395.7 L 597.6 396.3 L 598.5 396.8 L 600.2 397.3 L 601.9 397.4 L 603.6 397.1 L 605.2 396.5 L 606.4 395.6 L 607.5 394.5 L 608.2 393.3 L 608.9 391.4 L 609.0 389.5 L 608.6 387.6 L 607.8 385.9 L 606.5 384.4 L 605.0 383.4 L 603.3 382.7 L 601.4 382.5 L 599.4 382.9 L 597.6 383.7 L 596.0 385.0 L 594.9 386.7 L 594.2 388.6 L 594.1 390.7 L 594.6 392.6" stroke="#000" stroke-width="2" fill="none" stroke-linecap="round" stroke-linejoin="round" />
<path d="M 576.4 369.4 L 594.1 390.7" stroke="#000" stroke-width="2" fill="none" stroke-linecap="round" stroke-linejoin="round" />
<path d="M 628.2 382.6 L 617.8 384.3 L 606.5 384.4" stroke="#000" stroke-width="2" fill="none" stroke-linecap="round" stroke-linejoin="round" />
<path d="M 611.4 399.1 L 608.2 393.3" stroke="#000" stroke-width="2" fill="none" stroke-linecap="round" stroke-linejoin="round" />
<path d="M 598.5 396.8 L 601.2 405.5 L 604.5 416.3" stroke="#000" stroke-width="2" fill="none" stroke-linecap="round" stroke-linejoin="round" />
<path d="M 1137.4 1350.5 L 1184.5 1351.0" stroke="#000" stroke-width="2" fill="none" stroke-linecap="round" stroke-linejoin="round" />
<path d="M 1184.5 1351.0 L 1192.5 1305.9 L 1197.2 1284.0" stroke="#000" stroke-width="2" fill="none" stroke-linecap="round" stroke-linejoin="round" />
<path d="M 1177.0 830.8 L 1179.5 842.0 L 1189.3 869.0 L 1206.2 913.5 L 1208.6 921.8" stroke="#000" stroke-width="2" fill="none" stroke-linecap="round" stroke-linejoin="round" />
<path d="M 1178.8 493.6 L 1184.7 483.6 L 1196.1 461.2 L 1207.4 437.0 L 1212.9 424.5" stroke="#000" stroke-width="2" fill="none" stroke-linecap="round" stroke-linejoin="round" />
<path d="M 1157.2 1509.4 L 1157.6 1506.7 L 1162.6 1477.5 L 1164.1 1469.4 L 1164.4 1468.0 L 1166.8 1455.5 L 1172.6 1419.9 L 1177.2 1391.6 L 1184.5 1351.0" stroke="#000" stroke-width="2" fill="none" stroke-linecap="round" stroke-linejoin="round" />
<path d="M 853.7 769.7 L 908.0 799.5 L 945.3 821.1 L 951.7 824.6 L 972.0 836.9 L 984.2 845.9 L 1000.0 857.7 L 1003.3 860.0" stroke="#000" stroke-width="2" fill="none" stroke-linecap="round" stroke-linejoin="round" />
<path d="M 1206.7 1248.0 L 1203.5 1262.3 L 1199.5 1278.3 L 1197.2 1284.0" stroke="#000" stroke-width="2" fill="none" stroke-linecap="round" stroke-linejoin="round" />
<path d="M 841.1 1027.2 L 838.6 1027.5 L 836.5 1028.5 L 834.8 1030.1 L 833.7 1032.2 L 833.3 1034.5 L 833.6 1036.7 L 834.6 1038.7 L 836.1 1040.2 L 838.0 1041.3 L 840.2 1041.8" stroke="#000" stroke-width="2" fill="none" stroke-linecap="round" stroke-linejoin="round" />
<path d="M 841.1 1027.2 L 842.2 1003.0 L 843.9 976.5 L 845.1 951.4 L 853.7 769.7" stroke="#000" stroke-width="2" fill="none" stroke-linecap="round" stroke-linejoin="round" />
<path d="M 840.2 1041.8 L 842.4 1041.5 L 844.4 1040.6 L 846.1 1039.1 L 847.3 1037.2 L 847.8 1035.1 L 847.6 1032.8 L 846.7 1030.7 L 845.2 1029.0 L 843.2 1027.8 L 841.1 1027.2" stroke="#000" stroke-width="2" fill="none" stroke-linecap="round" stroke-linejoin="round" />
<path d="M 820.1 1338.6 L 766.1 1337.8 L 737.4 1337.2 L 733.0 1336.4 L 730.1 1335.9 L 700.3 1325.0 L 693.5 1324.2 L 685.4 1323.6" stroke="#000" stroke-width="2" fill="none" stroke-linecap="round" stroke-linejoin="round" />
<path d="M 825.6 1349.7 L 822.6 1414.7 L 820.7 1462.6 L 815.9 1512.3 L 809.4 1525.6 L 784.7 1562.3 L 762.8 1592.0" stroke="#000" stroke-width="2" fill="none" stroke-linecap="round" stroke-linejoin="round" />
<path d="M 820.6 1337.8 L 820.1 1338.6 L 819.3 1339.8 L 818.8 1342.2 L 819.0 1344.4 L 819.9 1346.5 L 821.5 1348.2 L 823.4 1349.3 L 825.6 1349.7 L 827.9 1349.4 L 829.9 1348.5 L 831.6 1346.9 L 832.6 1344.9 L 833.0 1342.5 L 832.6 1340.2 L 831.4 1338.1 L 829.5 1336.5 L 827.3 1335.6 L 826.0 1335.6 L 824.9 1335.6 L 822.6 1336.3 L 820.6 1337.8" stroke="#000" stroke-width="2" fill="none" stroke-linecap="round" stroke-linejoin="round" />
<path d="M 605.2 396.5 L 611.4 399.1" stroke="#000" stroke-width="2" fill="none" stroke-linecap="round" stroke-linejoin="round" />
<path d="M 601.4 382.5 L 576.4 369.4" stroke="#000" stroke-width="2" fill="none" stroke-linecap="round" stroke-linejoin="round" />
<path d="M 815.3 78.7 L 819.6 77.5 L 829.3 73.4 L 837.4 70.0" stroke="#000" stroke-width="2" fill="none" stroke-linecap="round" stroke-linejoin="round" />
<path d="M 1091.8 61.1 L 1091.0 79.3 L 1090.8 81.2 L 1086.7 125.0 L 1088.7 175.6" stroke="#000" stroke-width="2" fill="none" stroke-linecap="round" stroke-linejoin="round" />
<path d="M 1092.3 178.7 L 1092.0 177.7 L 1091.5 176.8 L 1090.7 176.1 L 1089.7 175.7 L 1088.7 175.6 L 1087.8 175.8 L 1087.0 176.2 L 1086.3 176.8 L 1085.8 177.5 L 1085.5 178.4 L 1085.4 179.3 L 1085.6 180.2 L 1086.0 181.1 L 1086.7 181.8 L 1087.6 182.3 L 1088.5 182.5 L 1089.5 182.5 L 1090.4 182.1 L 1091.3 181.5 L 1091.9 180.7 L 1092.2 179.8 L 1092.3 178.7" stroke="#000" stroke-width="2" fill="none" stroke-linecap="round" stroke-linejoin="round" />
<path d="M 373.0 899.9 L 377.2 938.6" stroke="#000" stroke-width="2" fill="none" stroke-linecap="round" stroke-linejoin="round" />
<path d="M 477.9 1054.6 L 478.2 1062.1 L 477.5 1072.7 L 475.3 1084.3 L 468.6 1109.1 L 464.0 1125.0" stroke="#000" stroke-width="2" fill="none" stroke-linecap="round" stroke-linejoin="round" />
<path d="M 570.2 939.2 L 536.6 940.5 L 482.4 940.4" stroke="#000" stroke-width="2" fill="none" stroke-linecap="round" stroke-linejoin="round" />
<path d="M 749.7 975.1 L 667.6 964.9" stroke="#000" stroke-width="2" fill="none" stroke-linecap="round" stroke-linejoin="round" />
<path d="M 670.1 1010.9 L 668.5 1005.3" stroke="#000" stroke-width="2" fill="none" stroke-linecap="round" stroke-linejoin="round" />
<path d="M 787.7 229.9 L 794.8 222.2 L 806.2 215.0 L 824.7 204.5 L 840.7 197.9" stroke="#000" stroke-width="2" fill="none" stroke-linecap="round" stroke-linejoin="round" />
<path d="M 840.7 197.9 L 794.5 197.3" stroke="#000" stroke-width="2" fill="none" stroke-linecap="round" stroke-linejoin="round" />
<path d="M 1223.5 400.1 L 1242.1 357.0 L 1249.6 339.8 L 1262.2 310.4 L 1267.2 299.4" stroke="#000" stroke-width="2" fill="none" stroke-linecap="round" stroke-linejoin="round" />
<path d="M 1265.2 282.9 L 1266.0 284.5 L 1267.3 285.8 L 1268.9 286.5 L 1270.8 286.8 L 1272.6 286.4 L 1274.2 285.4 L 1275.3 283.9 L 1276.0 282.1 L 1275.9 280.2 L 1275.3 278.5 L 1274.1 277.0 L 1272.6 276.0 L 1270.8 275.6 L 1269.0 275.8 L 1267.4 276.6 L 1266.4 277.5 L 1266.1 277.8 L 1265.2 279.4 L 1264.9 281.1 L 1265.2 282.9" stroke="#000" stroke-width="2" fill="none" stroke-linecap="round" stroke-linejoin="round" />
<path d="M 1267.2 299.4 L 1269.7 295.4 L 1272.2 290.9 L 1274.0 287.7 L 1275.3 283.9" stroke="#000" stroke-width="2" fill="none" stroke-linecap="round" stroke-linejoin="round" />
<path d="M 1266.0 284.5 L 1267.9 289.1 L 1268.2 294.0 L 1267.2 299.4" stroke="#000" stroke-width="2" fill="none" stroke-linecap="round" stroke-linejoin="round" />
<path d="M 1276.0 282.1 L 1277.8 278.2 L 1279.4 275.7 L 1282.1 273.4 L 1284.1 270.8" stroke="#000" stroke-width="2" fill="none" stroke-linecap="round" stroke-linejoin="round" />
<path d="M 1284.1 270.8 L 1279.6 272.2 L 1275.1 273.6 L 1272.7 274.4 L 1269.0 275.8" stroke="#000" stroke-width="2" fill="none" stroke-linecap="round" stroke-linejoin="round" />
<path d="M 1262.5 270.8 L 1264.5 278.2" stroke="#000" stroke-width="2" fill="none" stroke-linecap="round" stroke-linejoin="round" />
<path d="M 1269.0 275.8 L 1265.9 275.2 L 1264.5 274.2 L 1263.4 272.4 L 1262.5 270.8" stroke="#000" stroke-width="2" fill="none" stroke-linecap="round" stroke-linejoin="round" />
<path d="M 1057.1 391.0 L 1057.3 386.5 L 1058.5 363.8 L 1059.0 319.1" stroke="#000" stroke-width="2" fill="none" stroke-linecap="round" stroke-linejoin="round" />
<path d="M 1361.2 467.1 L 1366.8 488.1" stroke="#000" stroke-width="2" fill="none" stroke-linecap="round" stroke-linejoin="round" />
<path d="M 244.9 762.5 L 232.6 709.4" stroke="#000" stroke-width="2" fill="none" stroke-linecap="round" stroke-linejoin="round" />
<path d="M 264.3 756.8 L 263.2 761.0 L 261.9 763.5 L 241.0 769.2" stroke="#000" stroke-width="2" fill="none" stroke-linecap="round" stroke-linejoin="round" />
<path d="M 312.1 685.8 L 327.4 755.6" stroke="#000" stroke-width="2" fill="none" stroke-linecap="round" stroke-linejoin="round" />
<path d="M 625.3 612.6 L 623.4 618.6 L 621.2 622.1 L 617.9 624.8 L 613.7 626.1 L 609.4 626.5 L 604.2 626.1 L 593.4 623.6" stroke="#000" stroke-width="2" fill="none" stroke-linecap="round" stroke-linejoin="round" />
<path d="M 631.4 646.6 L 636.8 648.8 L 646.4 651.2" stroke="#000" stroke-width="2" fill="none" stroke-linecap="round" stroke-linejoin="round" />
<path d="M 646.4 651.2 L 638.3 643.1 L 633.5 639.5" stroke="#000" stroke-width="2" fill="none" stroke-linecap="round" stroke-linejoin="round" />
<path d="M 621.9 634.4 L 613.1 633.0 L 603.9 631.9" stroke="#000" stroke-width="2" fill="none" stroke-linecap="round" stroke-linejoin="round" />
<path d="M 603.9 631.9 L 613.8 638.5 L 618.5 643.8" stroke="#000" stroke-width="2" fill="none" stroke-linecap="round" stroke-linejoin="round" />
  <path d="M -247.9 292.6 L -217.9 282.8 L -194.1 274.7 L -165.4 262.3 L -138.2 249.5 L -113.7 234.1 L -85.9 214.7 L -63.6 196.7 L -10.7 142.4 L 131.0 -29.5 L 152.9 -53.5 L 169.8 -71.0 L 186.7 -85.3 L 202.9 -96.5 L 225.4 -110.4 L 247.7 -120.8 L 278.8 -129.7 L 302.5 -133.3 L 324.1 -134.3 L 348.7 -133.3 L 374.5 -127.7 L 395.7 -121.7 L 413.0 -115.2 L 439.7 -100.6 L 467.5 -81.6 L 523.2 -39.2 L 572.9 -2.7 L 609.6 17.8 L 624.1 23.3 L 661.5 33.6 L 713.7 39.7 L 751.4 40.9 L 788.8 39.9 L 820.6 37.2 L 889.5 31.2 L 919.8 25.5 L 937.0 20.4 L 952.7 14.5 L 971.3 6.6 L 989.1 -3.8 L 1006.5 -15.8 L 1024.7 -30.7 L 1042.8 -49.8 L 1067.1 -81.1 L 1079.5 -104.9 L 1097.7 -146.4 L 1124.2 -223.4 L 1139.8 -263.6 L 1155.1 -290.4 L 1166.2 -306.8 L 1179.6 -322.5 L 1193.5 -335.9 L 1209.6 -349.3 L 1223.5 -360.0 L 1246.1 -374.4 L 1279.3 -387.8 L 1293.9 -392.6" stroke="#000" stroke-width="7" fill="none" stroke-linecap="round" stroke-linejoin="round" />
<path d="M 1241.1 -379.7 L 1229.4 -373.4 L 1218.2 -366.4 L 1198.1 -350.8 L 1181.8 -336.8 L 1167.4 -321.8 L 1150.8 -301.5 L 1137.2 -277.7 L 1110.6 -214.8 L 1084.9 -148.0 L 1060.2 -95.1 L 1032.6 -53.6 L 996.4 -22.1 L 958.3 1.8 L 924.1 16.9 L 889.8 24.5 L 789.9 32.6 L 720.1 32.1 L 657.9 25.6 L 619.6 16.9 L 573.9 -5.7 L 515.7 -52.3 L 463.0 -94.1 L 416.3 -122.4 L 384.3 -134.2 L 360.1 -140.7 L 335.7 -143.8 L 308.3 -143.0 L 285.6 -139.2 L 254.2 -131.7 L 230.9 -122.5 L 205.7 -109.4 L 184.4 -94.2 L 165.1 -78.1 L 151.4 -65.0 L 127.5 -38.6 L 63.9 41.3 L -27.8 151.2 L -68.4 191.7 L -91.0 210.1 L -117.3 228.6 L -140.9 243.1 L -167.9 256.1 L -195.8 267.8 L -220.6 276.7 L -250.2 286.0" stroke="#000" stroke-width="7" fill="none" stroke-linecap="round" stroke-linejoin="round" />
<path d="M -247.9 292.6 L -217.9 282.8 L -194.1 274.7 L -165.4 262.3 L -138.2 249.5 L -113.7 234.1 L -85.9 214.7 L -63.6 196.7 L -10.7 142.4 L 131.0 -29.5 L 152.9 -53.5 L 169.8 -71.0 L 186.7 -85.3 L 202.9 -96.5 L 225.4 -110.4 L 247.7 -120.8 L 278.8 -129.7 L 302.5 -133.3 L 324.1 -134.3 L 348.7 -133.3 L 374.5 -127.7 L 395.7 -121.7 L 413.0 -115.2 L 439.7 -100.6 L 467.5 -81.6 L 523.2 -39.2 L 572.9 -2.7 L 609.6 17.8 L 624.1 23.3 L 661.5 33.6 L 713.7 39.7 L 751.4 40.9 L 788.8 39.9 L 820.6 37.2 L 889.5 31.2 L 919.8 25.5 L 937.0 20.4 L 952.7 14.5 L 971.3 6.6 L 989.1 -3.8 L 1006.5 -15.8 L 1024.7 -30.7 L 1042.8 -49.8 L 1067.1 -81.1 L 1079.5 -104.9 L 1097.7 -146.4 L 1124.2 -223.4 L 1139.8 -263.6 L 1155.1 -290.4 L 1166.2 -306.8 L 1179.6 -322.5 L 1193.5 -335.9 L 1209.6 -349.3 L 1223.5 -360.0 L 1246.1 -374.4 L 1279.3 -387.8 L 1293.9 -392.6" stroke="#fff" stroke-width="3.2" fill="none" stroke-linecap="round" stroke-linejoin="round"/>
<path d="M 1241.1 -379.7 L 1229.4 -373.4 L 1218.2 -366.4 L 1198.1 -350.8 L 1181.8 -336.8 L 1167.4 -321.8 L 1150.8 -301.5 L 1137.2 -277.7 L 1110.6 -214.8 L 1084.9 -148.0 L 1060.2 -95.1 L 1032.6 -53.6 L 996.4 -22.1 L 958.3 1.8 L 924.1 16.9 L 889.8 24.5 L 789.9 32.6 L 720.1 32.1 L 657.9 25.6 L 619.6 16.9 L 573.9 -5.7 L 515.7 -52.3 L 463.0 -94.1 L 416.3 -122.4 L 384.3 -134.2 L 360.1 -140.7 L 335.7 -143.8 L 308.3 -143.0 L 285.6 -139.2 L 254.2 -131.7 L 230.9 -122.5 L 205.7 -109.4 L 184.4 -94.2 L 165.1 -78.1 L 151.4 -65.0 L 127.5 -38.6 L 63.9 41.3 L -27.8 151.2 L -68.4 191.7 L -91.0 210.1 L -117.3 228.6 L -140.9 243.1 L -167.9 256.1 L -195.8 267.8 L -220.6 276.7 L -250.2 286.0" stroke="#fff" stroke-width="3.2" fill="none" stroke-linecap="round" stroke-linejoin="round"/>
  <path d="M 611.4 505.9 L 614.5 531.0 L 625.3 612.6 L 625.6 616.4" stroke="#000" stroke-width="5" fill="none" stroke-linecap="round" stroke-linejoin="round" />
<path d="M 806.2 81.8 L 809.4 81.8 L 812.4 80.8 L 813.9 79.9 L 815.3 78.7 L 816.9 76.8 L 817.9 74.5 L 818.4 72.1 L 818.4 69.6 L 817.7 67.2 L 816.6 65.1 L 815.0 63.2 L 813.1 61.8 L 810.0 60.7 L 806.8 60.4 L 803.6 61.2 L 800.8 62.9 L 798.6 65.4 L 797.3 68.4 L 797.0 71.1 L 797.3 73.8 L 798.5 76.7 L 800.5 79.1 L 803.2 80.9 L 806.2 81.8" stroke="#000" stroke-width="5" fill="none" stroke-linecap="round" stroke-linejoin="round" />
<path d="M 795.9 104.6 L 800.1 98.5 L 803.9 93.3 L 810.1 85.2 L 812.4 80.8" stroke="#000" stroke-width="5" fill="none" stroke-linecap="round" stroke-linejoin="round" />
<path d="M 668.3 -568.2 L 693.7 -467.1 L 701.2 -449.1 L 707.3 -434.5 L 721.3 -400.7 L 725.1 -393.3 L 733.9 -376.2 L 737.4 -369.3 L 750.9 -342.3 L 760.2 -318.6 L 762.3 -313.4 L 776.5 -268.4 L 778.2 -256.0 L 781.3 -225.2 L 784.6 -201.1 L 785.6 -193.0 L 795.8 -130.1 L 802.9 -71.9 L 798.1 43.0" stroke="#000" stroke-width="5" fill="none" stroke-linecap="round" stroke-linejoin="round" />
<path d="M 625.6 616.4 L 624.5 623.6 L 624.0 627.7 L 622.7 633.9" stroke="#000" stroke-width="5" fill="none" stroke-linecap="round" stroke-linejoin="round" />
<path d="M 627.3 658.4 L 628.7 698.5 L 631.2 744.0 L 627.7 786.1 L 621.9 811.9 L 611.5 828.8 L 590.6 854.8 L 580.6 864.5 L 567.2 875.2 L 525.5 907.2 L 513.2 916.1 L 489.9 934.8 L 485.1 938.4 L 482.4 940.4 L 408.5 995.6 L 385.0 1015.3 L 365.5 1033.5 L 358.3 1043.7 L 352.9 1054.8 L 347.2 1072.4 L 335.0 1112.7 L 320.2 1161.3 L 314.2 1180.3 L 307.6 1196.1 L 299.9 1208.7" stroke="#000" stroke-width="5" fill="none" stroke-linecap="round" stroke-linejoin="round" />
<path d="M 625.8 648.9 L 628.1 648.6 L 630.2 647.6 L 631.4 646.6 L 632.6 645.1 L 633.3 643.3 L 633.6 641.4 L 633.5 639.5 L 632.7 637.3 L 631.3 635.5 L 629.4 634.2 L 627.2 633.4 L 624.9 633.3 L 622.7 633.9 L 621.9 634.4 L 620.7 635.2 L 619.2 637.0 L 618.2 639.2 L 618.0 641.5 L 618.5 643.8 L 619.6 645.9 L 621.4 647.5 L 623.5 648.6 L 625.8 648.9" stroke="#000" stroke-width="5" fill="none" stroke-linecap="round" stroke-linejoin="round" />
<path d="M 795.9 104.6 L 795.9 107.6 L 795.6 114.4 L 794.9 160.0 L 794.5 197.3 L 792.9 214.4 L 787.7 229.9 L 778.9 243.8 L 763.0 259.1 L 699.4 316.7 L 682.9 332.0 L 651.9 360.7 L 646.2 366.0 L 628.2 382.6" stroke="#000" stroke-width="5" fill="none" stroke-linecap="round" stroke-linejoin="round" />
<path d="M 797.3 73.8 L 795.9 104.6" stroke="#000" stroke-width="5" fill="none" stroke-linecap="round" stroke-linejoin="round" />
<path d="M 813.1 61.8 L 808.7 56.2 L 798.1 43.0" stroke="#000" stroke-width="5" fill="none" stroke-linecap="round" stroke-linejoin="round" />
<path d="M 798.1 43.0 L 797.6 58.9 L 797.3 68.4" stroke="#000" stroke-width="5" fill="none" stroke-linecap="round" stroke-linejoin="round" />
<path d="M 604.5 416.3 L 605.4 450.8 L 609.3 486.1 L 611.4 505.9" stroke="#000" stroke-width="5" fill="none" stroke-linecap="round" stroke-linejoin="round" />
<path d="M 604.5 416.3 L 611.4 399.1 L 619.8 390.8 L 628.2 382.6" stroke="#000" stroke-width="5" fill="none" stroke-linecap="round" stroke-linejoin="round" />
<path d="M 631.3 635.5 L 629.7 626.3 L 628.2 621.7 L 625.6 616.4" stroke="#000" stroke-width="5" fill="none" stroke-linecap="round" stroke-linejoin="round" />
<path d="M 621.4 647.5 L 624.6 651.4 L 627.3 658.4" stroke="#000" stroke-width="5" fill="none" stroke-linecap="round" stroke-linejoin="round" />
<path d="M 627.3 658.4 L 628.6 652.7 L 630.2 647.6" stroke="#000" stroke-width="5" fill="none" stroke-linecap="round" stroke-linejoin="round" />
<path d="M 611.4 505.9 L 614.5 531.0 L 625.3 612.6 L 625.6 616.4" stroke="#fff" stroke-width="2.2" fill="none" stroke-linecap="round" stroke-linejoin="round"/>
<path d="M 806.2 81.8 L 809.4 81.8 L 812.4 80.8 L 813.9 79.9 L 815.3 78.7 L 816.9 76.8 L 817.9 74.5 L 818.4 72.1 L 818.4 69.6 L 817.7 67.2 L 816.6 65.1 L 815.0 63.2 L 813.1 61.8 L 810.0 60.7 L 806.8 60.4 L 803.6 61.2 L 800.8 62.9 L 798.6 65.4 L 797.3 68.4 L 797.0 71.1 L 797.3 73.8 L 798.5 76.7 L 800.5 79.1 L 803.2 80.9 L 806.2 81.8" stroke="#fff" stroke-width="2.2" fill="none" stroke-linecap="round" stroke-linejoin="round"/>
<path d="M 795.9 104.6 L 800.1 98.5 L 803.9 93.3 L 810.1 85.2 L 812.4 80.8" stroke="#fff" stroke-width="2.2" fill="none" stroke-linecap="round" stroke-linejoin="round"/>
<path d="M 668.3 -568.2 L 693.7 -467.1 L 701.2 -449.1 L 707.3 -434.5 L 721.3 -400.7 L 725.1 -393.3 L 733.9 -376.2 L 737.4 -369.3 L 750.9 -342.3 L 760.2 -318.6 L 762.3 -313.4 L 776.5 -268.4 L 778.2 -256.0 L 781.3 -225.2 L 784.6 -201.1 L 785.6 -193.0 L 795.8 -130.1 L 802.9 -71.9 L 798.1 43.0" stroke="#fff" stroke-width="2.2" fill="none" stroke-linecap="round" stroke-linejoin="round"/>
<path d="M 625.6 616.4 L 624.5 623.6 L 624.0 627.7 L 622.7 633.9" stroke="#fff" stroke-width="2.2" fill="none" stroke-linecap="round" stroke-linejoin="round"/>
<path d="M 627.3 658.4 L 628.7 698.5 L 631.2 744.0 L 627.7 786.1 L 621.9 811.9 L 611.5 828.8 L 590.6 854.8 L 580.6 864.5 L 567.2 875.2 L 525.5 907.2 L 513.2 916.1 L 489.9 934.8 L 485.1 938.4 L 482.4 940.4 L 408.5 995.6 L 385.0 1015.3 L 365.5 1033.5 L 358.3 1043.7 L 352.9 1054.8 L 347.2 1072.4 L 335.0 1112.7 L 320.2 1161.3 L 314.2 1180.3 L 307.6 1196.1 L 299.9 1208.7" stroke="#fff" stroke-width="2.2" fill="none" stroke-linecap="round" stroke-linejoin="round"/>
<path d="M 625.8 648.9 L 628.1 648.6 L 630.2 647.6 L 631.4 646.6 L 632.6 645.1 L 633.3 643.3 L 633.6 641.4 L 633.5 639.5 L 632.7 637.3 L 631.3 635.5 L 629.4 634.2 L 627.2 633.4 L 624.9 633.3 L 622.7 633.9 L 621.9 634.4 L 620.7 635.2 L 619.2 637.0 L 618.2 639.2 L 618.0 641.5 L 618.5 643.8 L 619.6 645.9 L 621.4 647.5 L 623.5 648.6 L 625.8 648.9" stroke="#fff" stroke-width="2.2" fill="none" stroke-linecap="round" stroke-linejoin="round"/>
<path d="M 795.9 104.6 L 795.9 107.6 L 795.6 114.4 L 794.9 160.0 L 794.5 197.3 L 792.9 214.4 L 787.7 229.9 L 778.9 243.8 L 763.0 259.1 L 699.4 316.7 L 682.9 332.0 L 651.9 360.7 L 646.2 366.0 L 628.2 382.6" stroke="#fff" stroke-width="2.2" fill="none" stroke-linecap="round" stroke-linejoin="round"/>
<path d="M 797.3 73.8 L 795.9 104.6" stroke="#fff" stroke-width="2.2" fill="none" stroke-linecap="round" stroke-linejoin="round"/>
<path d="M 813.1 61.8 L 808.7 56.2 L 798.1 43.0" stroke="#fff" stroke-width="2.2" fill="none" stroke-linecap="round" stroke-linejoin="round"/>
<path d="M 798.1 43.0 L 797.6 58.9 L 797.3 68.4" stroke="#fff" stroke-width="2.2" fill="none" stroke-linecap="round" stroke-linejoin="round"/>
<path d="M 604.5 416.3 L 605.4 450.8 L 609.3 486.1 L 611.4 505.9" stroke="#fff" stroke-width="2.2" fill="none" stroke-linecap="round" stroke-linejoin="round"/>
<path d="M 604.5 416.3 L 611.4 399.1 L 619.8 390.8 L 628.2 382.6" stroke="#fff" stroke-width="2.2" fill="none" stroke-linecap="round" stroke-linejoin="round"/>
<path d="M 631.3 635.5 L 629.7 626.3 L 628.2 621.7 L 625.6 616.4" stroke="#fff" stroke-width="2.2" fill="none" stroke-linecap="round" stroke-linejoin="round"/>
<path d="M 621.4 647.5 L 624.6 651.4 L 627.3 658.4" stroke="#fff" stroke-width="2.2" fill="none" stroke-linecap="round" stroke-linejoin="round"/>
<path d="M 627.3 658.4 L 628.6 652.7 L 630.2 647.6" stroke="#fff" stroke-width="2.2" fill="none" stroke-linecap="round" stroke-linejoin="round"/>
  
    <g stroke="#000" fill="none" stroke-width="2.9952">
      <circle cx="936" cy="702" r="16.848" fill="#fff" fill-opacity="0.7"/>
      <circle cx="936" cy="702" r="3.744" fill="#000" stroke="none"/>
    </g>
  <rect width="100%" height="100%" fill="url(#vignette)"/>
  
    <g transform="translate(1776, 116)" stroke="#000" stroke-width="2.2464" fill="#000">
      <line x1="0" y1="37.44" x2="0" y2="-37.44"/>
      <path d="M 0 -37.44 L 13.104 -13.104 L 0 -22.464 L -13.104 -13.104 Z"/>
      <text x="0" y="59.44" text-anchor="middle" font-family="Georgia, serif" font-size="22.464000000000002">N</text>
    </g>
  
    <g stroke="#000" stroke-width="2.2464" fill="#000" font-family="Georgia, serif">
      <line x1="96" y1="1308" x2="291" y2="1308"/>
      <line x1="96" y1="1301" x2="96" y2="1315"/>
      <line x1="193.5" y1="1304" x2="193.5" y2="1312"/>
      <line x1="291" y1="1301" x2="291" y2="1315"/>
      <text x="193.5" y="1294" text-anchor="middle" font-size="20.592" stroke="none">250 m</text>
    </g>
  <rect x="66" y="66" width="1740" height="1272" fill="none" stroke="#000" stroke-width="2" stroke-opacity="0.7"/>
  <rect x="74" y="74" width="1724" height="1256" fill="none" stroke="#000" stroke-width="1" stroke-opacity="0.4"/>
  
</svg>