<svg xmlns="http://www.w3.org/2000/svg" width="1872" height="1404" viewBox="0 0 1872 1404">
  <defs>
    <radialGradient id="vignette" cx="50%" cy="50%" r="954.72" gradientUnits="userSpaceOnUse">
      <stop offset="55%" stop-color="#fff" stop-opacity="0"/>
      <stop offset="100%" stop-color="#fff" stop-opacity="1"/>
    </radialGradient>
  </defs>
  <rect width="100%" height="100%" fill="#fff"/>
  <path d="M -4529.2 2154.0 L -4424.1 2086.5 L -4329.4 2115.0 L -4091.9 2189.0 L -3897.2 2151.4 L -3808.7 2090.5 L -3654.9 1798.6 L -3569.7 1721.5 L -3463.1 1750.0 L -3353.0 1843.6 L -3253.9 2124.5 L -3116.2 2267.7 L -3008.4 2402.0 L -2890.7 2514.8 L -2722.0 2556.8 L -2572.4 2566.1 L -2316.3 2532.9 L -2227.6 2486.7 L -2136.1 2372.3 L -2042.6 2284.3 L -2049.8 2213.6 L -2118.6 2139.2 L -2356.4 2069.4 L -2477.5 1915.2 L -2439.0 1772.0 L -2235.3 1733.5 L -2028.7 1690.6 L -1718.1 1501.5 L -1497.5 1394.9 L -1402.2 1348.1 L -1356.0 1323.3 L -1330.6 1291.7 L -1315.6 1265.0 L -1284.8 1181.5 L -1237.9 1090.5 L -1210.0 1045.9 L -1195.3 986.9 L -1174.4 958.0 L -1116.3 922.3 L -1065.9 902.6 L -977.0 857.5 L -820.0 814.8 L -683.3 790.4 L -574.2 765.5 L -199.6 607.1 L 82.6 613.2 L 178.1 587.8 L 348.4 585.1 L 580.9 470.2 L 1229.2 92.0 L 1398.4 -47.5 L 1508.9 -111.1 L 1885.4 -134.6 L 1986.8 -144.2 L 2110.7 -230.0 L 2108.9 -291.7 L 2081.5 -353.3 L 1894.3 -507.5 L 1841.0 -560.4 L 1824.7 -630.5 L 1873.4 -719.2 L 1993.0 -785.7 L 2333.7 -904.3 L 2434.8 -978.0 L 2474.7 -1089.6 L 2349.1 -1323.7 L 2152.1 -1605.6 L 2167.8 -1767.1" stroke="#000" stroke-width="3.2" stroke-opacity="0.9" fill="none" stroke-linecap="round" stroke-linejoin="round"/>
<path d="M -2064.9 3127.3 L -2054.3 3126.8 L -2002.2 3125.3 L -1946.8 3116.6 L -1900.1 3108.1 L -1866.6 3100.5 L -1821.6 3087.9 L -1754.4 3065.8 L -1698.4 3046.4 L -1612.7 3014.7 L -1489.8 2970.8 L -1381.4 2929.4 L -1169.0 2848.5 L -1127.0 2833.3 L -1079.4 2813.3 L -1045.6 2796.4 L -1001.0 2769.5 L -946.2 2731.4 L -906.3 2699.3 L -871.8 2669.0 L -820.9 2610.5 L -768.2 2537.3 L -750.3 2506.4 L -725.7 2458.7 L -694.0 2387.8 L -635.4 2262.8 L -580.8 2133.8 L -485.0 1929.9 L -447.4 1844.3 L -416.1 1785.3 L -383.9 1738.9 L -351.1 1697.0 L -301.4 1643.2 L -259.4 1605.5 L -164.0 1542.7 L -115.8 1519.4 L -73.1 1501.6 L -35.5 1490.7 L 6.8 1479.6 L 58.7 1470.4 L 148.2 1459.6 L 298.7 1447.5 L 360.0 1439.6 L 402.4 1431.8 L 450.5 1419.5 L 500.9 1402.0 L 551.5 1380.6 L 602.8 1355.8 L 643.3 1331.2 L 678.9 1306.3 L 702.6 1287.2 L 737.0 1256.3 L 753.6 1240.3 L 809.8 1182.5 L 915.2 1067.5 L 1027.8 938.6 L 1065.4 898.7" stroke="#000" stroke-width="3.6" stroke-opacity="1" fill="none" stroke-linecap="round" stroke-linejoin="round"/>
<path d="M 1039.5 913.9 L 1014.4 941.1 L 966.6 995.8 L 872.8 1101.5 L 808.3 1173.0 L 758.7 1223.8 L 719.9 1261.1 L 692.9 1284.1 L 663.0 1308.1 L 627.5 1331.1 L 596.0 1349.8 L 553.6 1371.2 L 499.1 1394.5 L 442.1 1414.2 L 400.6 1424.3 L 359.0 1431.9 L 295.6 1440.6 L 212.0 1446.4 L 147.5 1451.5 L 94.4 1457.2 L 33.6 1466.7 L -22.5 1478.6 L -65.0 1490.8 L -108.4 1507.4 L -155.2 1530.0 L -211.7 1562.9 L -246.5 1586.2 L -286.0 1618.0 L -324.9 1656.8 L -361.5 1697.5 L -389.6 1733.3 L -414.7 1769.6 L -433.5 1799.8 L -455.9 1842.7 L -473.3 1882.1 L -500.4 1946.1 L -536.0 2024.4 L -570.8 2093.8 L -590.6 2136.9 L -612.3 2186.6 L -645.8 2264.9 L -664.4 2307.8 L -683.4 2347.9 L -716.2 2417.3 L -748.2 2486.4 L -771.3 2527.0 L -793.1 2559.2 L -818.5 2593.8 L -851.7 2635.3 L -879.4 2664.8 L -909.9 2691.6 L -937.8 2715.0 L -976.9 2743.7 L -1015.7 2769.5 L -1057.4 2793.4 L -1111.3 2818.1 L -1184.2 2845.6 L -1281.5 2883.3 L -1343.8 2907.0 L -1417.1 2934.3 L -1514.5 2970.9 L -1645.0 3017.4 L -1763.6 3060.3 L -1832.9 3082.7 L -1887.8 3097.1 L -1940.3 3108.3 L -2009.7 3118.3 L -2063.2 3119.8" stroke="#000" stroke-width="3.6" stroke-opacity="1" fill="none" stroke-linecap="round" stroke-linejoin="round"/>
<path d="M 1636.3 120.9 L 1657.7 126.6 L 1671.2 133.4 L 1680.1 143.2 L 1686.7 154.2 L 1689.3 164.6 L 1689.3 176.1 L 1686.5 188.2 L 1679.6 200.2 L 1670.8 211.1 L 1635.1 244.4 L 1607.5 270.7 L 1578.5 300.9 L 1553.0 331.4 L 1523.2 367.0 L 1486.0 411.8 L 1418.9 487.8 L 1386.8 528.4" stroke="#000" stroke-width="0.9" stroke-opacity="0.6" fill="none" stroke-linecap="round" stroke-linejoin="round"/>
<path d="M 1360.4 142.1 L 1372.6 150.3 L 1383.4 165.4 L 1395.4 176.6 L 1416.0 185.0 L 1440.1 189.4 L 1469.6 182.3 L 1506.9 161.9" stroke="#000" stroke-width="0.9" stroke-opacity="0.6" fill="none" stroke-linecap="round" stroke-linejoin="round"/>
<path d="M 1502.5 152.3 L 1453.7 178.0 L 1437.6 183.2 L 1416.5 181.8 L 1400.5 176.3 L 1389.7 168.3 L 1382.7 160.2 L 1379.1 151.4 L 1384.9 136.3" stroke="#000" stroke-width="0.9" stroke-opacity="0.6" fill="none" stroke-linecap="round" stroke-linejoin="round"/>
<path d="M -1703.8 982.6 L -1468.2 1016.4 L -1348.6 1002.0 L -1246.9 951.0 L -1001.3 807.1 L -959.6 805.5 L -875.7 714.0 L -861.0 706.7 L -417.0 589.1 L -109.8 507.1 L -99.6 505.6 L -76.9 503.2 L 157.9 490.3 L 170.5 485.0 L 253.9 440.2 L 426.0 347.8 L 463.5 331.2" stroke="#000" stroke-width="1.3" stroke-opacity="0.8" fill="none" stroke-linecap="round" stroke-linejoin="round"/>
<path d="M -95.3 328.8 L 38.6 408.5 L 80.1 389.4 L 89.9 313.0 L 123.4 297.0 L 185.4 255.4 L 202.9 228.3 L 249.4 230.0 L 330.5 223.5 L 386.3 186.8 L 409.1 268.6 L 451.0 302.2 L 463.5 331.2 L 509.2 437.0 L 519.4 460.7" stroke="#000" stroke-width="1.3" stroke-opacity="0.8" fill="none" stroke-linecap="round" stroke-linejoin="round"/>
<path d="M -1039.4 1761.7 L -1005.4 1748.2 L -677.9 1611.5 L -547.6 1495.8 L -425.0 1392.2 L -340.5 1249.2 L -334.0 1235.8 L -274.8 1115.7 L -223.8 1064.6 L -89.5 979.8 L 212.5 785.5 L 306.1 722.0 L 363.1 684.9 L 454.2 625.5 L 479.0 615.5 L 574.7 575.9 L 612.8 563.9 L 697.4 528.3 L 748.0 510.5 L 789.5 495.9 L 836.3 465.6 L 972.1 359.9 L 1296.1 160.5 L 1360.4 142.1 L 1384.9 136.3 L 2140.1 -37.5 L 2275.8 -124.0 L 2316.6 -198.2 L 2375.2 -266.2 L 2396.4 -315.3 L 2423.2 -393.5 L 2446.8 -706.3 L 2485.5 -864.5 L 2534.9 -1066.4 L 2464.7 -1216.3 L 2368.1 -1408.3 L 2342.8 -1446.1 L 2279.3 -1540.5 L 2271.6 -1562.3" stroke="#000" stroke-width="2.4" stroke-opacity="0.95" fill="none" stroke-linecap="round" stroke-linejoin="round"/>
<path d="M 519.4 460.7 L 549.5 525.5" stroke="#000" stroke-width="1.3" stroke-opacity="0.8" fill="none" stroke-linecap="round" stroke-linejoin="round"/>
<path d="M 549.5 525.5 L 574.7 575.9" stroke="#000" stroke-width="1.3" stroke-opacity="0.8" fill="none" stroke-linecap="round" stroke-linejoin="round"/>
<path d="M 201.8 855.4 L 239.3 831.5 L 335.0 772.5 L 391.4 739.3 L 456.2 701.1 L 456.2 693.1 L 509.6 666.7 L 554.3 644.5 L 567.9 630.9 L 623.7 605.4" stroke="#000" stroke-width="1.3" stroke-opacity="0.8" fill="none" stroke-linecap="round" stroke-linejoin="round"/>
<path d="M 612.8 563.9 L 623.7 605.4 L 629.3 623.7" stroke="#000" stroke-width="1.3" stroke-opacity="0.8" fill="none" stroke-linecap="round" stroke-linejoin="round"/>
<path d="M 479.0 615.5 L 509.6 666.7" stroke="#000" stroke-width="1.3" stroke-opacity="0.8" fill="none" stroke-linecap="round" stroke-linejoin="round"/>
<path d="M 306.1 722.0 L 335.0 772.5" stroke="#000" stroke-width="1.3" stroke-opacity="0.8" fill="none" stroke-linecap="round" stroke-linejoin="round"/>
<path d="M 363.1 684.9 L 391.4 739.3 L 412.4 782.4" stroke="#000" stroke-width="1.3" stroke-opacity="0.8" fill="none" stroke-linecap="round" stroke-linejoin="round"/>
<path d="M 748.0 510.5 L 766.1 602.4 L 773.4 645.8 L 781.5 669.3 L 795.7 703.2 L 809.1 729.5 L 817.2 745.4 L 823.2 754.9 L 827.9 762.3" stroke="#000" stroke-width="1.3" stroke-opacity="0.8" fill="none" stroke-linecap="round" stroke-linejoin="round"/>
<path d="M 809.1 729.5 L 1101.7 662.6" stroke="#000" stroke-width="1.3" stroke-opacity="0.8" fill="none" stroke-linecap="round" stroke-linejoin="round"/>
<path d="M 827.9 762.3 L 846.0 774.4 L 864.1 784.4 L 901.8 792.9 L 913.2 796.6 L 927.4 806.7 L 946.5 814.6 L 964.5 817.3 L 971.6 817.5 L 981.3 821.8 L 993.9 833.6 L 997.4 835.1 L 1043.2 810.1 L 1092.3 781.9" stroke="#000" stroke-width="1.3" stroke-opacity="0.8" fill="none" stroke-linecap="round" stroke-linejoin="round"/>
<path d="M 827.9 762.3 L 817.8 780.7 L 806.5 789.7 L 778.4 833.0 L 772.7 841.8 L 734.2 836.7 L 711.9 832.0 L 684.6 820.2 L 674.4 813.0 L 660.6 808.7 L 642.7 806.4 L 629.5 788.4" stroke="#000" stroke-width="1.3" stroke-opacity="0.8" fill="none" stroke-linecap="round" stroke-linejoin="round"/>
<path d="M 772.7 841.8 L 779.2 847.2 L 784.2 847.2 L 796.4 839.0 L 811.4 835.6 L 836.1 834.6 L 855.2 832.1 L 861.1 833.6 L 865.7 839.7 L 865.7 848.5 L 862.8 874.4 L 862.5 890.9 L 868.7 903.1 L 875.7 914.3 L 891.6 929.0 L 901.8 940.5 L 909.7 956.2 L 917.7 968.1 L 921.6 975.6 L 921.6 1003.6 L 923.8 1014.5 L 927.4 1025.2" stroke="#000" stroke-width="1.3" stroke-opacity="0.8" fill="none" stroke-linecap="round" stroke-linejoin="round"/>
<path d="M 937.5 1050.1 L 941.9 1060.5 L 948.6 1071.5 L 962.9 1080.8 L 972.0 1083.7" stroke="#000" stroke-width="1.3" stroke-opacity="0.8" fill="none" stroke-linecap="round" stroke-linejoin="round"/>
<path d="M 927.4 1025.2 L 937.5 1050.1" stroke="#000" stroke-width="1.3" stroke-opacity="0.8" fill="none" stroke-linecap="round" stroke-linejoin="round"/>
<path d="M 972.0 1083.7 L 975.1 1089.0 L 973.3 1099.5 L 972.0 1105.1 L 978.7 1119.5 L 987.1 1132.5 L 994.8 1141.9 L 1007.1 1147.9 L 1021.6 1153.0 L 1032.9 1156.6 L 1050.0 1167.4 L 1101.7 1187.9 L 1146.6 1204.3 L 1162.2 1209.3 L 1171.4 1209.9 L 1186.7 1209.7 L 1193.7 1208.1 L 1201.2 1212.2 L 1208.3 1218.7 L 1213.1 1223.1 L 1227.3 1238.6 L 1232.1 1239.6 L 1243.8 1244.5 L 1257.6 1256.6 L 1266.7 1268.6 L 1271.6 1279.4 L 1275.0 1295.1 L 1274.8 1301.9 L 1276.0 1316.1 L 1277.5 1323.8 L 1281.2 1333.8 L 1287.7 1342.4 L 1296.4 1348.1 L 1307.6 1351.0 L 1315.5 1353.8 L 1330.9 1357.0 L 1363.6 1359.0 L 1375.6 1359.7 L 1388.4 1360.7 L 1405.2 1365.0 L 1423.3 1370.9 L 1433.4 1373.6 L 1446.7 1381.2 L 1460.8 1388.4 L 1472.3 1396.2 L 1479.5 1402.4 L 1484.7 1407.7 L 1499.1 1417.7 L 1508.9 1429.4 L 1514.7 1436.9 L 1516.0 1440.5 L 1514.3 1450.3 L 1508.0 1463.5 L 1507.7 1466.6 L 1507.9 1477.1 L 1508.7 1486.2 L 1508.3 1493.1 L 1505.7 1504.3 L 1504.6 1509.6 L 1505.1 1514.6 L 1508.1 1524.0 L 1514.1 1531.7 L 1522.4 1541.7 L 1530.1 1548.2 L 1536.7 1552.0 L 1548.6 1553.5 L 1562.9 1553.2 L 1574.8 1553.0 L 1583.4 1557.1 L 1589.7 1563.7 L 1593.0 1570.5 L 1602.1 1578.9 L 1609.8 1582.7 L 1620.3 1581.1 L 1626.9 1580.2 L 1633.9 1584.1 L 1641.5 1591.4 L 1648.8 1598.6 L 1656.8 1606.2 L 1659.9 1610.2 L 1664.4 1620.2 L 1666.7 1630.8 L 1669.6 1637.5 L 1673.2 1644.2 L 1676.8 1651.6 L 1678.2 1664.3 L 1679.7 1672.4 L 1685.0 1689.0 L 1684.3 1695.2 L 1681.6 1710.2 L 1681.2 1723.9 L 1684.8 1736.6 L 1687.5 1741.9 L 1696.7 1758.1 L 1705.0 1770.3 L 1711.5 1780.8 L 1714.0 1787.4 L 1715.3 1795.3 L 1716.0 1798.4 L 1718.6 1801.6 L 1724.0 1801.2 L 1736.0 1796.6 L 1745.7 1796.4 L 1759.2 1797.2 L 1768.9 1797.0 L 1773.3 1805.4 L 1774.7 1813.0 L 1778.6 1819.8 L 1789.9 1824.5 L 1803.4 1824.1 L 1815.2 1819.5 L 1821.1 1815.4 L 1831.7 1812.8 L 1843.0 1810.3 L 1853.7 1806.9 L 1858.7 1807.2 L 1863.5 1809.5 L 1864.9 1814.5 L 1867.6 1823.0 L 1869.1 1829.8 L 1870.6 1839.1 L 1874.3 1847.7 L 1879.3 1856.3 L 1883.4 1861.1 L 1891.7 1864.6 L 1898.3 1865.7 L 1904.0 1871.1 L 1904.7 1879.6 L 1906.3 1896.0 L 1904.7 1906.8 L 1898.2 1920.5 L 1893.7 1931.5 L 1890.8 1943.7 L 1888.4 1950.5 L 1885.7 1960.4 L 1887.4 1974.9 L 1890.5 1991.3 L 1890.8 1996.9 L 1889.0 2002.6 L 1884.5 2012.5 L 1882.2 2022.7 L 1878.7 2032.4 L 1875.0 2040.1 L 1872.6 2048.4 L 1870.0 2055.7 L 1868.0 2068.5 L 1865.2 2075.2 L 1862.6 2082.0 L 1861.3 2085.0 L 1861.4 2089.4 L 1864.1 2093.0 L 1874.9 2099.5 L 1883.5 2104.2 L 1884.4 2109.5 L 1882.8 2117.2 L 1879.7 2125.9 L 1877.8 2132.6 L 1875.6 2140.2 L 1875.0 2144.6 L 1876.0 2150.0 L 1880.8 2156.3 L 1883.7 2160.2 L 1883.8 2164.5 L 1881.9 2170.4 L 1881.0 2175.6 L 1881.9 2182.4 L 1880.8 2187.1 L 1878.3 2193.1 L 1874.7 2197.7 L 1876.9 2204.9 L 1882.4 2210.2 L 1887.4 2210.5 L 1896.3 2210.0 L 1909.7 2207.7 L 1917.7 2207.9 L 1921.3 2212.5 L 1923.6 2219.9 L 1926.4 2224.2 L 1932.6 2224.9 L 1937.8 2222.9 L 1944.3 2219.4 L 1951.4 2221.2 L 1958.0 2224.4 L 1962.2 2226.1 L 1968.9 2227.0 L 1977.5 2229.6 L 1985.5 2237.6 L 1989.4 2242.1 L 1996.0 2246.1 L 2001.8 2249.7 L 2007.4 2255.2 L 2009.1 2263.3 L 2010.7 2271.9 L 2012.0 2278.5 L 2013.5 2288.9 L 2018.6 2300.1 L 2020.6 2308.3 L 2022.1 2314.4 L 2022.4 2323.2 L 2027.0 2329.7 L 2034.4 2331.1 L 2045.8 2331.4 L 2055.3 2334.1 L 2066.3 2338.1 L 2072.4 2343.9 L 2074.4 2352.2 L 2078.8 2359.7 L 2083.8 2366.6 L 2089.3 2374.3 L 2091.1 2383.6 L 2095.2 2391.9 L 2094.9 2398.1 L 2092.1 2405.9 L 2084.9 2415.4 L 2079.7 2421.2 L 2073.4 2432.4 L 2069.9 2442.5 L 2069.7 2449.4 L 2073.2 2451.3 L 2081.6 2449.4 L 2092.9 2445.9 L 2099.5 2446.7 L 2102.3 2451.7 L 2106.1 2465.7 L 2110.7 2473.0 L 2121.3 2483.8 L 2127.6 2488.3 L 2136.8 2487.8 L 2142.9 2485.8 L 2148.9 2487.5 L 2156.0 2492.0 L 2161.3 2491.3 L 2163.1 2487.6 L 2164.5 2479.0 L 2164.5 2474.0 L 2165.8 2469.2 L 2169.0 2465.4 L 2179.3 2459.4 L 2188.5 2453.9 L 2200.4 2448.6 L 2206.8 2444.5 L 2212.3 2438.3 L 2217.5 2433.3 L 2223.9 2431.3 L 2230.3 2430.3 L 2234.6 2427.7 L 2237.4 2423.7 L 2239.2 2417.8 L 2239.2 2404.7 L 2238.9 2397.7 L 2241.8 2394.9 L 2244.7 2395.9 L 2246.3 2401.2 L 2246.9 2410.7 L 2250.4 2424.1 L 2249.8 2436.3 L 2248.4 2442.3 L 2241.5 2445.5 L 2237.7 2449.5 L 2235.9 2461.2 L 2238.6 2469.4 L 2245.2 2477.0 L 2252.2 2484.6 L 2258.7 2488.1 L 2270.0 2489.9 L 2280.4 2491.9 L 2289.0 2495.1 L 2301.4 2501.2 L 2316.8 2504.9 L 2329.2 2508.5 L 2337.2 2509.6 L 2349.1 2512.0 L 2355.3 2512.5 L 2370.8 2510.4 L 2378.8 2511.5 L 2388.9 2514.5 L 2394.9 2516.2 L 2396.1 2514.6 L 2396.5 2510.2 L 2397.0 2506.2 L 2398.2 2503.0 L 2403.5 2500.7 L 2410.1 2500.0 L 2424.7 2496.9 L 2442.3 2492.5 L 2455.8 2491.7 L 2465.8 2493.4 L 2475.2 2493.9 L 2481.8 2488.0 L 2487.5 2480.1 L 2498.1 2473.5 L 2505.0 2470.4 L 2515.5 2466.4 L 2525.5 2464.6 L 2537.3 2462.9 L 2548.3 2461.1 L 2550.9 2461.8 L 2550.6 2464.4 L 2546.5 2468.6 L 2539.7 2472.0 L 2536.9 2475.8 L 2533.4 2478.9 L 2534.0 2482.4 L 2536.4 2483.9 L 2544.9 2480.7 L 2553.9 2478.7 L 2560.5 2477.5 L 2565.7 2476.5 L 2570.5 2477.4 L 2572.0 2482.6 L 2574.2 2492.2 L 2577.8 2501.9 L 2578.4 2510.6 L 2577.0 2518.6 L 2573.4 2528.5 L 2571.0 2536.2 L 2569.2 2543.3 L 2565.3 2551.0 L 2561.5 2558.8 L 2561.1 2565.3 L 2564.2 2575.0 L 2568.4 2582.9 L 2571.1 2588.7 L 2575.5 2596.6 L 2578.4 2599.7 L 2580.4 2598.6 L 2581.8 2597.0 L 2581.3 2591.2 L 2580.5 2586.3 L 2581.5 2582.0 L 2583.3 2577.0 L 2586.5 2574.3 L 2595.2 2571.3 L 2602.8 2570.1 L 2611.2 2569.7 L 2621.2 2568.4 L 2627.9 2564.3 L 2633.8 2559.5 L 2637.7 2554.5 L 2641.4 2549.7 L 2647.9 2546.3 L 2656.3 2541.3 L 2660.5 2537.8 L 2665.9 2536.3 L 2667.4 2539.6 L 2663.5 2545.3 L 2658.0 2557.0 L 2658.2 2563.1 L 2658.1 2572.3 L 2654.0 2583.6 L 2648.5 2591.1 L 2642.5 2597.8 L 2638.4 2603.5 L 2638.8 2611.4 L 2640.8 2617.5 L 2646.4 2623.2 L 2650.9 2622.9 L 2651.5 2619.1 L 2652.8 2613.3 L 2657.3 2610.1 L 2665.1 2608.6 L 2676.2 2606.9 L 2682.3 2606.7 L 2684.4 2608.9 L 2682.4 2612.9 L 2677.5 2616.6 L 2675.2 2619.8 L 2675.5 2625.6 L 2678.8 2630.1 L 2682.4 2632.6 L 2690.5 2637.4 L 2695.6 2639.2 L 2701.7 2640.1 L 2712.6 2640.4 L 2724.4 2641.7 L 2737.3 2642.5 L 2747.2 2644.2 L 2756.1 2646.1 L 2763.5 2648.6 L 2770.7 2653.0 L 2775.1 2656.5 L 2778.3 2657.5 L 2780.9 2656.3" stroke="#000" stroke-width="1.3" stroke-opacity="0.8" fill="none" stroke-linecap="round" stroke-linejoin="round"/>
<path d="M 1208.3 1218.7 L 1215.0 1213.3 L 1227.5 1189.5 L 1235.0 1184.3 L 1242.4 1175.7 L 1255.2 1157.2 L 1267.2 1162.9 L 1273.9 1167.2 L 1282.0 1171.9 L 1304.3 1196.3 L 1333.8 1211.4 L 1345.9 1221.5 L 1358.1 1224.5 L 1368.4 1225.5 L 1376.5 1229.3 L 1388.3 1231.0 L 1418.4 1229.9 L 1438.0 1231.3 L 1439.4 1234.8 L 1434.9 1238.9 L 1416.9 1247.6 L 1404.0 1252.1 L 1398.2 1255.1 L 1398.1 1264.2 L 1411.3 1263.9 L 1439.5 1260.0 L 1453.3 1260.5 L 1461.1 1261.6 L 1476.0 1261.2 L 1489.1 1264.7 L 1506.9 1277.2 L 1520.2 1280.1 L 1534.6 1284.1 L 1549.5 1289.9 L 1569.0 1293.6 L 1606.6 1292.8 L 1633.2 1288.5 L 1657.3 1280.4 L 1687.3 1272.5 L 1712.6 1268.8 L 1729.2 1270.7 L 1747.1 1267.1 L 1760.9 1268.3 L 1777.3 1274.4 L 1793.9 1282.1 L 1822.4 1279.1 L 1840.6 1285.1 L 1878.4 1289.6 L 1908.1 1290.4 L 1942.5 1295.3 L 1972.3 1298.3 L 1986.8 1302.0 L 2010.4 1300.7 L 2024.5 1304.2 L 2034.0 1308.6 L 2044.9 1310.3 L 2044.9 1315.6 L 2040.3 1323.4 L 2029.5 1333.4 L 2019.9 1348.0 L 2012.6 1363.3 L 1995.9 1382.4 L 1985.9 1391.8 L 1981.0 1408.3 L 1974.5 1415.8 L 1968.2 1439.2 L 1970.0 1447.3 L 1982.8 1451.4 L 2000.3 1454.2 L 2024.0 1460.5 L 2040.3 1462.0 L 2064.7 1461.3 L 2083.0 1464.3 L 2098.1 1467.6 L 2116.3 1465.0 L 2126.9 1466.0 L 2138.0 1468.8 L 2147.9 1470.9 L 2164.5 1468.4 L 2175.6 1470.6 L 2181.7 1475.4 L 2195.7 1477.1 L 2208.0 1474.0 L 2221.8 1475.2 L 2238.3 1475.6 L 2245.8 1476.0 L 2263.5 1477.7 L 2280.2 1478.3 L 2288.9 1479.3 L 2300.4 1484.5 L 2315.7 1489.9 L 2323.5 1493.1 L 2329.4 1492.0 L 2338.3 1487.9 L 2343.1 1483.9 L 2350.1 1481.8 L 2356.1 1483.0 L 2362.0 1487.6 L 2373.8 1495.1 L 2386.8 1504.8 L 2396.3 1516.0 L 2404.4 1523.5 L 2418.1 1530.3 L 2429.9 1532.6 L 2439.8 1531.4 L 2453.3 1527.5 L 2463.1 1523.3 L 2472.4 1521.7 L 2478.2 1518.6 L 2485.3 1516.7 L 2496.7 1515.8 L 2507.9 1517.2 L 2520.2 1519.5 L 2527.0 1521.4 L 2534.9 1522.7 L 2546.6 1522.4 L 2555.8 1523.1 L 2566.8 1525.8 L 2583.7 1530.3 L 2606.3 1534.9 L 2615.3 1534.6 L 2627.3 1533.7 L 2631.7 1533.9 L 2638.3 1538.3 L 2641.4 1547.2 L 2645.7 1567.3 L 2649.0 1573.1 L 2661.5 1577.9 L 2696.4 1581.8 L 2719.7 1584.4 L 2726.7 1587.8 L 2736.2 1590.6 L 2743.6 1591.2 L 2754.1 1595.9 L 2763.8 1598.0 L 2803.2 1601.0 L 2811.8 1602.5 L 2820.3 1604.6 L 2826.9 1604.8 L 2834.6 1603.9 L 2845.4 1603.8 L 2864.6 1604.4 L 2876.5 1601.9 L 2896.1 1594.4 L 2909.0 1589.1 L 2920.5 1581.8 L 2937.0 1573.2 L 2946.4 1563.4 L 2955.2 1561.1 L 2958.6 1557.6 L 2964.4 1550.0 L 2973.6 1547.5 L 2982.0 1544.0 L 2984.2 1528.6 L 2991.4 1519.2 L 3002.1 1508.2 L 3017.4 1492.6 L 3026.2 1485.1 L 3036.6 1472.7 L 3042.5 1461.4 L 3048.5 1458.0 L 3057.2 1456.1 L 3069.5 1453.5 L 3076.2 1449.8 L 3082.4 1440.9 L 3093.0 1435.4 L 3119.9 1423.5 L 3124.9 1421.2 L 3132.4 1420.5 L 3143.4 1417.2 L 3156.7 1411.8 L 3168.0 1407.1 L 3182.3 1405.7 L 3198.2 1408.3 L 3219.3 1415.6 L 3231.1 1422.8 L 3236.5 1428.8 L 3254.6 1433.3 L 3262.8 1436.9 L 3269.9 1441.0 L 3276.6 1443.3 L 3279.9 1442.7 L 3282.5 1441.4 L 3290.6 1443.7 L 3301.8 1448.8 L 3310.8 1451.1 L 3317.3 1447.3 L 3325.0 1445.1 L 3335.1 1444.6 L 3342.5 1443.1 L 3351.1 1443.5 L 3362.5 1447.6 L 3378.3 1448.7 L 3397.5 1452.0 L 3422.7 1456.0 L 3438.7 1463.6 L 3476.4 1486.0 L 3489.3 1493.7 L 3502.0 1506.3 L 3514.6 1511.2 L 3545.8 1518.3 L 3573.1 1524.8 L 3585.3 1531.9 L 3602.4 1544.6 L 3607.3 1554.5 L 3612.5 1565.3 L 3621.9 1573.8 L 3639.6 1582.7 L 3649.8 1588.9 L 3657.1 1603.8 L 3656.8 1616.7 L 3663.0 1630.0 L 3675.1 1639.3 L 3677.7 1647.7 L 3680.0 1670.6 L 3678.3 1694.2 L 3681.8 1702.5 L 3690.6 1710.9 L 3692.7 1716.5 L 3690.0 1728.9 L 3692.1 1735.5 L 3698.8 1743.4 L 3711.9 1743.4 L 3735.2 1738.1 L 3758.3 1740.2 L 3769.1 1743.0 L 3784.6 1744.0 L 3797.1 1744.9 L 3806.6 1748.7 L 3815.2 1756.4 L 3842.8 1774.2 L 3867.8 1792.2 L 3871.3 1799.5 L 3872.2 1809.8 L 3869.9 1828.6 L 3874.6 1841.0 L 3881.6 1853.1 L 3902.3 1872.3 L 3911.1 1881.8 L 3915.3 1892.2 L 3917.9 1899.5 L 3923.6 1903.8 L 3928.0 1906.9 L 3932.4 1914.6 L 3931.2 1923.9 L 3938.6 1942.4 L 3945.2 1957.9 L 3948.5 1979.3 L 3950.6 1991.1 L 3946.3 2003.1 L 3938.0 2015.4" stroke="#000" stroke-width="1.3" stroke-opacity="0.8" fill="none" stroke-linecap="round" stroke-linejoin="round"/>
<path d="M 1065.4 898.7 L 1236.4 714.4 L 1348.1 585.3" stroke="#000" stroke-width="3.6" stroke-opacity="1" fill="none" stroke-linecap="round" stroke-linejoin="round"/>
<path d="M 1342.8 579.1 L 1229.2 709.8 L 1101.0 848.4 L 1059.9 892.8 L 1039.5 913.9" stroke="#000" stroke-width="3.6" stroke-opacity="1" fill="none" stroke-linecap="round" stroke-linejoin="round"/>
<path d="M 1348.1 585.3 L 1442.7 477.0 L 1543.3 368.8 L 1608.3 305.8 L 1661.2 262.3 L 1701.9 231.6 L 1752.1 198.9" stroke="#000" stroke-width="3.6" stroke-opacity="1" fill="none" stroke-linecap="round" stroke-linejoin="round"/>
<path d="M 1746.3 190.6 L 1703.5 218.6 L 1664.5 248.0 L 1618.8 285.1 L 1581.6 319.6 L 1548.8 352.2 L 1514.9 388.0 L 1479.6 425.8 L 1434.5 474.8 L 1386.8 528.4 L 1342.8 579.1" stroke="#000" stroke-width="3.6" stroke-opacity="1" fill="none" stroke-linecap="round" stroke-linejoin="round"/>
<path d="M 509.2 437.0 L 544.9 425.6 L 591.7 408.1 L 615.1 392.8 L 660.2 362.7 L 770.8 288.9 L 806.6 264.5" stroke="#000" stroke-width="1.3" stroke-opacity="0.8" fill="none" stroke-linecap="round" stroke-linejoin="round"/>
  
    <g stroke="#000" fill="none" stroke-width="2.9952">
      <circle cx="936" cy="702" r="16.848"/>
      <circle cx="936" cy="702" r="3.744" fill="#000" stroke="none"/>
    </g>
  <rect width="100%" height="100%" fill="url(#vignette)"/>
  
    <g transform="translate(1776, 116)" stroke="#000" stroke-width="2.2464" fill="#000">
      <line x1="0" y1="37.44" x2="0" y2="-37.44"/>
      <path d="M 0 -37.44 L 13.104 -13.104 L 0 -22.464 L -13.104 -13.104 Z"/>
      <text x="0" y="59.44" text-anchor="middle" font-family="Georgia, serif" font-size="22.464000000000002">N</text>
    </g>
  <rect x="66" y="66" width="1740" height="1272" fill="none" stroke="#000" stroke-width="2" stroke-opacity="0.7"/>
  <rect x="74" y="74" width="1724" height="1256" fill="none" stroke="#000" stroke-width="1" stroke-opacity="0.4"/>
  
</svg>