<svg xmlns="http://www.w3.org/2000/svg" width="1872" height="1404" viewBox="0 0 1872 1404">
  <defs>
    <radialGradient id="vignette" cx="50%" cy="50%" r="954.72" gradientUnits="userSpaceOnUse">
      <stop offset="55%" stop-color="#fff" stop-opacity="0"/>
      <stop offset="100%" stop-color="#fff" stop-opacity="1"/>
    </radialGradient>
  </defs>
  <rect width="100%" height="100%" fill="#fff"/>
  <path d="M 357.4 426.2 L 363.8 437.9 L 377.7 452.7 L 449.5 513.7" stroke="#000" stroke-width="1.3" stroke-opacity="0.8" fill="none" stroke-linecap="round" stroke-linejoin="round"/>
<path d="M 442.2 716.2 L 484.0 742.9" stroke="#000" stroke-width="1.3" stroke-opacity="0.8" fill="none" stroke-linecap="round" stroke-linejoin="round"/>
<path d="M -6160.2 828.1 L -6058.6 843.3 L -6015.6 852.9 L -5970.3 860.0 L -5948.8 870.5 L -5935.9 865.8 L -5916.8 853.8 L -5881.5 858.1 L -5845.7 846.7 L -5797.0 853.3 L -5773.6 849.5 L -5725.4 824.7 L -5708.2 820.4 L -5655.3 820.4 L -5623.3 817.1 L -5602.3 806.1 L -5565.5 770.8 L -5534.0 756.0 L -5514.0 744.0 L -5484.9 705.4 L -5474.3 676.3 L -5451.9 651.0 L -5408.0 618.0 L -5395.6 603.7 L -5377.5 523.5 L -5349.3 376.5 L -5338.8 304.9 L -5332.6 281.1 L -5298.7 241.9 L -5279.1 203.3 L -5217.1 99.7 L -5163.2 23.3 L -5097.8 -59.7 L -5045.7 -127.5 L -5026.7 -138.6 L -4993.2 -158.1 L -4974.6 -160.4 L -4961.7 -154.7 L -4930.7 -133.2 L -4869.1 -109.8 L -4822.8 -90.3 L -4804.2 -65.0 L -4783.7 -54.5 L -4755.5 -60.7 L -4730.0 -76.6 L -4715.7 -92.4 L -4709.7 -96.7 L -4697.4 -98.4 L -4686.1 -97.7 L -4675.4 -94.2 L -4653.2 -82.6 L -4618.3 -62.5 L -4591.2 -52.1 L -4579.4 -46.5 L -4565.6 -29.0 L -4538.9 5.1 L -4500.3 62.1 L -4475.9 92.3 L -4452.5 118.4 L -4431.1 136.0 L -4404.3 157.5 L -4374.8 182.8 L -4350.4 203.0 L -4338.8 211.4 L -4325.9 218.1 L -4302.5 224.3 L -4279.1 228.2 L -4254.3 235.9 L -4227.2 249.9 L -4213.9 255.5 L -4198.9 255.4 L -4124.4 242.4 L -4061.9 223.0 L -3958.2 180.9 L -3878.2 154.0 L -3775.0 127.2 L -3630.4 89.5 L -3555.2 69.4 L -3507.1 56.6 L -3483.7 49.5 L -3464.5 48.5 L -3453.4 50.9 L -3415.9 70.1 L -3365.3 93.0 L -3308.8 117.0 L -3285.7 122.8 L -3260.5 123.0 L -3241.7 118.9 L -3223.2 115.4 L -3205.2 118.4 L -3173.9 129.1 L -3146.9 137.6 L -3100.8 154.3 L -3075.1 165.8 L -3063.3 172.3 L -3054.1 179.7 L -3044.1 194.5 L -3031.4 213.5 L -3010.1 245.7 L -3001.8 258.8 L -2999.3 271.3 L -2995.1 301.4 L -2984.2 319.7 L -2974.0 331.7 L -2946.7 361.6 L -2924.3 380.1 L -2888.4 419.9 L -2848.6 464.1 L -2831.7 481.6 L -2795.4 502.7 L -2772.3 511.5 L -2762.1 515.9 L -2738.7 518.7 L -2712.1 520.7 L -2677.9 520.3 L -2650.1 523.1 L -2633.0 527.2 L -2623.1 530.7 L -2602.5 540.4 L -2581.9 549.9 L -2567.5 561.2 L -2536.1 595.0 L -2491.7 631.8 L -2459.7 658.6 L -2416.9 686.4 L -2402.3 697.7 L -2390.8 710.5 L -2354.9 773.4 L -2329.0 815.3 L -2306.8 843.5 L -2259.6 884.9 L -2198.5 942.7 L -2173.3 968.0 L -2159.7 974.0 L -2148.8 974.9 L -2079.6 950.8 L -2033.1 936.7 L -1998.6 930.7 L -1966.5 917.1 L -1930.8 893.7 L -1883.4 845.1 L -1869.5 829.6 L -1861.9 822.7 L -1836.0 816.0 L -1806.4 812.0 L -1746.4 811.8 L -1709.0 804.6 L -1680.5 799.3 L -1647.6 796.6 L -1645.3 796.5 L -1586.5 790.2 L -1545.7 786.8 L -1525.4 788.3 L -1507.0 792.4 L -1465.1 807.9 L -1426.5 817.6 L -1403.3 820.8 L -1387.1 821.6 L -1347.6 823.6 L -1288.4 827.5 L -1228.4 831.0 L -1201.4 829.1 L -1178.7 827.5 L -1159.5 830.8 L -1132.2 839.1 L -1118.1 845.6 L -1105.6 853.0 L -1088.2 864.8 L -1052.4 895.8 L -1004.9 923.1 L -949.2 947.8 L -923.5 954.8 L -910.8 956.6 L -902.2 955.7 L -878.8 949.7 L -859.4 945.1 L -840.2 945.3 L -822.9 946.9 L -808.5 952.9 L -792.5 962.2 L -775.2 967.7 L -759.9 968.9 L -744.0 966.8 L -722.3 957.8 L -715.5 953.5 L -704.4 946.9 L -691.4 942.4 L -669.1 934.1 L -646.0 927.5 L -639.5 925.9 L -628.7 924.5 L -602.8 923.3 L -573.7 921.2 L -541.3 915.2 L -509.8 909.9 L -464.5 907.6 L -435.8 905.3 L -405.9 913.8 L -397.2 919.8 L -372.2 935.1 L -347.6 942.5 L -295.6 953.6 L -252.0 963.2 L -212.5 963.3 L -164.2 949.9 L -88.6 922.1 L -38.1 904.7 L -11.0 895.3 L 103.4 865.9 L 201.9 847.2 L 231.3 840.3 L 308.6 822.5 L 372.1 811.5" stroke="#000" stroke-width="1.3" stroke-opacity="0.8" fill="none" stroke-linecap="round" stroke-linejoin="round"/>
<path d="M 308.9 569.3 L 345.2 610.6 L 381.9 650.7 L 388.8 657.8 L 416.4 691.0 L 442.2 716.2" stroke="#000" stroke-width="1.3" stroke-opacity="0.8" fill="none" stroke-linecap="round" stroke-linejoin="round"/>
<path d="M 1021.5 616.1 L 1023.2 622.8 L 1015.1 673.5 L 1006.7 711.8 L 1002.1 725.9 L 971.4 796.9 L 934.1 862.0 L 907.7 905.0" stroke="#000" stroke-width="1.3" stroke-opacity="0.8" fill="none" stroke-linecap="round" stroke-linejoin="round"/>
<path d="M 751.1 753.3 L 718.6 792.1 L 686.0 832.4 L 650.6 875.7 L 634.4 896.2" stroke="#000" stroke-width="1.3" stroke-opacity="0.8" fill="none" stroke-linecap="round" stroke-linejoin="round"/>
<path d="M 1143.6 575.7 L 1182.8 601.6" stroke="#000" stroke-width="1.3" stroke-opacity="0.8" fill="none" stroke-linecap="round" stroke-linejoin="round"/>
<path d="M 497.7 556.8 L 453.1 589.0" stroke="#000" stroke-width="1.3" stroke-opacity="0.8" fill="none" stroke-linecap="round" stroke-linejoin="round"/>
<path d="M 737.8 981.4 L 676.8 1051.8" stroke="#000" stroke-width="1.3" stroke-opacity="0.8" fill="none" stroke-linecap="round" stroke-linejoin="round"/>
<path d="M 926.7 682.0 L 970.3 699.6 L 1006.7 711.8" stroke="#000" stroke-width="1.3" stroke-opacity="0.8" fill="none" stroke-linecap="round" stroke-linejoin="round"/>
<path d="M 436.0 573.2 L 345.2 610.6 L 281.6 630.3 L 252.7 644.4 L 180.0 675.9" stroke="#000" stroke-width="1.3" stroke-opacity="0.8" fill="none" stroke-linecap="round" stroke-linejoin="round"/>
<path d="M 686.0 832.4 L 727.4 865.0 L 871.6 976.3" stroke="#000" stroke-width="1.3" stroke-opacity="0.8" fill="none" stroke-linecap="round" stroke-linejoin="round"/>
<path d="M 1023.2 622.8 L 1053.8 613.4 L 1073.4 608.0 L 1082.1 609.4 L 1103.5 626.8 L 1145.7 652.6" stroke="#000" stroke-width="1.3" stroke-opacity="0.8" fill="none" stroke-linecap="round" stroke-linejoin="round"/>
<path d="M 310.3 454.8 L 346.0 483.5 L 378.0 514.1 L 405.0 539.9 L 410.6 546.4" stroke="#000" stroke-width="1.3" stroke-opacity="0.8" fill="none" stroke-linecap="round" stroke-linejoin="round"/>
<path d="M 851.0 1077.4 L 842.0 1073.5 L 825.8 1061.7 L 805.7 1043.4 L 788.5 1028.4 L 737.8 981.4" stroke="#000" stroke-width="1.3" stroke-opacity="0.8" fill="none" stroke-linecap="round" stroke-linejoin="round"/>
<path d="M 578.7 618.0 L 484.0 742.9" stroke="#000" stroke-width="1.3" stroke-opacity="0.8" fill="none" stroke-linecap="round" stroke-linejoin="round"/>
<path d="M 1212.8 559.7 L 1182.8 601.6 L 1155.7 638.9 L 1145.7 652.6 L 1068.4 759.0 L 1052.5 780.6 L 1022.4 821.8 L 976.1 885.2" stroke="#000" stroke-width="1.3" stroke-opacity="0.8" fill="none" stroke-linecap="round" stroke-linejoin="round"/>
<path d="M 1028.8 736.8 L 1054.2 693.1 L 1103.5 626.8 L 1138.1 581.8" stroke="#000" stroke-width="1.3" stroke-opacity="0.8" fill="none" stroke-linecap="round" stroke-linejoin="round"/>
<path d="M 785.1 792.9 L 828.6 736.0 L 865.5 698.8 L 887.8 676.9" stroke="#000" stroke-width="1.3" stroke-opacity="0.8" fill="none" stroke-linecap="round" stroke-linejoin="round"/>
<path d="M -1630.8 -1057.5 L -1644.4 -1033.3 L -1659.0 -1014.1 L -1673.1 -992.8 L -1686.8 -963.4 L -1691.4 -947.7 L -1690.7 -917.6 L -1683.4 -897.0 L -1675.0 -876.5 L -1671.1 -867.8 L -1666.6 -861.3 L -1662.6 -855.9 L -1659.5 -849.0 L -1655.5 -823.9 L -1649.7 -800.3 L -1648.1 -789.4 L -1651.1 -774.1 L -1658.1 -754.5 L -1675.9 -717.9 L -1697.6 -677.7 L -1703.4 -668.0 L -1703.4 -660.6 L -1699.5 -651.8 L -1681.7 -610.3 L -1671.3 -587.0 L -1644.4 -542.6 L -1618.5 -500.5 L -1594.8 -467.8 L -1568.9 -445.0 L -1526.9 -421.8 L -1502.6 -406.5 L -1418.6 -356.3 L -1344.6 -316.1 L -1329.1 -307.3 L -1308.9 -303.1 L -1296.2 -299.9 L -1281.9 -291.5 L -1268.7 -286.5 L -1244.4 -283.7 L -1230.3 -278.8 L -1221.5 -271.2 L -1212.0 -250.8 L -1201.4 -213.3 L -1193.5 -192.5 L -1183.3 -175.6 L -1174.1 -163.1 L -1163.0 -152.3 L -1153.9 -146.7 L -1138.4 -143.0 L -1117.6 -143.0 L -1081.1 -144.2 L -1043.1 -153.0 L -1025.1 -158.7 L -1009.3 -162.0 L -997.5 -161.5 L -986.9 -160.6 L -966.3 -162.0 L -939.5 -166.4 L -917.7 -166.8 L -898.7 -163.1 L -882.8 -156.7 L -869.1 -146.5 L -858.5 -134.5 L -841.1 -104.4 L -806.0 -58.8 L -784.5 -44.7 L -775.4 -39.4 L -764.6 -36.8 L -753.2 -35.9 L -735.9 -34.7 L -722.0 -34.7 L -709.0 -32.2 L -685.4 -24.8 L -667.3 -17.9 L -658.1 -14.8 L -628.5 -3.0 L -599.6 6.0 L -587.6 8.5 L -576.0 9.2 L -553.6 5.5 L -541.8 6.2 L -526.3 7.6 L -511.0 10.8 L -495.0 17.8 L -477.4 23.1 L -467.0 23.8 L -439.0 19.2 L -408.5 15.5 L -347.9 9.9 L -329.8 10.6 L -319.4 14.5 L -287.3 32.1 L -265.3 41.4 L -253.5 47.2 L -242.6 55.5 L -231.0 64.3 L -204.0 91.3 L -174.4 122.1 L -148.9 149.7 L -139.2 159.1 L -122.8 167.2 L -95.5 176.3 L -79.3 180.2 L -45.3 194.8 L -25.6 212.6 L 10.5 264.4 L 26.9 288.7 L 38.3 306.5 L 63.2 330.3 L 85.2 349.1 L 103.7 360.0 L 141.9 372.4 L 172.9 378.0 L 212.4 386.4 L 255.3 402.3 L 305.9 416.7 L 325.1 422.0 L 357.4 426.2 L 412.1 434.0 L 460.0 440.0 L 488.0 443.7 L 504.1 449.8 L 535.7 465.0 L 557.2 473.8 L 576.5 478.9 L 594.9 481.2 L 620.2 483.8 L 628.5 484.4 L 667.8 483.4 L 684.2 483.3 L 728.8 484.3 L 777.1 484.0 L 853.1 484.4" stroke="#000" stroke-width="1.3" stroke-opacity="0.8" fill="none" stroke-linecap="round" stroke-linejoin="round"/>
<path d="M 537.2 1102.7 L 554.4 1114.6 L 565.3 1120.9 L 583.8 1129.0 L 605.3 1129.5 L 622.9 1120.7 L 660.0 1074.1" stroke="#000" stroke-width="1.3" stroke-opacity="0.8" fill="none" stroke-linecap="round" stroke-linejoin="round"/>
<path d="M 1009.2 384.3 L 952.3 351.4" stroke="#000" stroke-width="1.3" stroke-opacity="0.8" fill="none" stroke-linecap="round" stroke-linejoin="round"/>
<path d="M 1187.4 538.3 L 1212.8 559.7" stroke="#000" stroke-width="1.3" stroke-opacity="0.8" fill="none" stroke-linecap="round" stroke-linejoin="round"/>
<path d="M 1001.1 394.7 L 1040.1 423.6" stroke="#000" stroke-width="1.3" stroke-opacity="0.8" fill="none" stroke-linecap="round" stroke-linejoin="round"/>
<path d="M 667.3 285.5 L 551.3 434.1 L 535.7 465.0" stroke="#000" stroke-width="1.3" stroke-opacity="0.8" fill="none" stroke-linecap="round" stroke-linejoin="round"/>
<path d="M 1002.1 725.9 L 1028.8 736.8 L 1068.4 759.0" stroke="#000" stroke-width="1.3" stroke-opacity="0.8" fill="none" stroke-linecap="round" stroke-linejoin="round"/>
<path d="M 1025.4 250.2 L 1061.4 318.4 L 1072.2 337.1 L 1089.8 349.2" stroke="#000" stroke-width="1.3" stroke-opacity="0.8" fill="none" stroke-linecap="round" stroke-linejoin="round"/>
<path d="M 491.7 1164.4 L 480.4 1183.3 L 475.6 1186.7 L 469.3 1187.5 L 456.6 1182.7 L 421.8 1166.3" stroke="#000" stroke-width="1.3" stroke-opacity="0.8" fill="none" stroke-linecap="round" stroke-linejoin="round"/>
<path d="M 1165.9 67.1 L 1167.3 82.3 L 1163.0 102.7 L 1129.4 208.8 L 1093.9 334.4 L 1089.8 349.2 L 1084.2 366.9 L 1084.7 376.1 L 1088.9 382.4 L 1121.7 424.1" stroke="#000" stroke-width="1.3" stroke-opacity="0.8" fill="none" stroke-linecap="round" stroke-linejoin="round"/>
<path d="M 628.5 484.4 L 629.4 488.8 L 630.9 491.5 L 633.8 495.5 L 657.3 514.2 L 696.0 543.1 L 768.6 598.7" stroke="#000" stroke-width="1.3" stroke-opacity="0.8" fill="none" stroke-linecap="round" stroke-linejoin="round"/>
<path d="M 883.1 299.5 L 851.2 341.5 L 819.6 381.6 L 787.5 422.3 L 777.9 450.1 L 777.1 484.0" stroke="#000" stroke-width="1.3" stroke-opacity="0.8" fill="none" stroke-linecap="round" stroke-linejoin="round"/>
<path d="M 810.6 639.4 L 941.1 478.1 L 950.7 459.3 L 1001.1 394.7 L 1009.2 384.3 L 1038.1 337.3 L 1061.4 318.4" stroke="#000" stroke-width="1.3" stroke-opacity="0.8" fill="none" stroke-linecap="round" stroke-linejoin="round"/>
<path d="M 864.8 467.8 L 886.7 471.0 L 931.0 476.7 L 941.1 478.1 L 1008.7 484.2 L 1031.2 473.1 L 1121.7 424.1 L 1173.3 407.8 L 1344.6 366.6 L 1418.8 345.5 L 1561.5 307.0 L 1596.8 300.2 L 1608.7 300.2 L 1621.2 300.3 L 1650.3 304.9 L 1676.6 315.0 L 1698.3 328.1 L 1726.1 337.9 L 1757.8 352.1 L 1781.1 362.6 L 1799.9 376.3 L 1826.4 401.4 L 1852.5 423.9 L 1878.4 445.1 L 1898.7 463.1 L 1915.0 475.2 L 1929.7 484.0 L 1941.6 488.7 L 1956.7 492.4 L 1971.1 493.0 L 1992.1 490.9 L 2010.8 484.8 L 2028.8 473.9 L 2054.4 451.7 L 2068.4 433.2 L 2075.6 415.9 L 2079.7 401.4 L 2083.9 386.3 L 2091.9 376.3 L 2097.9 372.2 L 2108.1 366.7 L 2122.8 363.5 L 2150.4 361.7 L 2189.1 367.5 L 2230.1 375.3 L 2272.3 381.3 L 2297.9 380.8 L 2324.1 380.3 L 2358.8 376.6 L 2417.3 369.2 L 2488.8 362.7 L 2550.7 349.8 L 2575.0 345.5 L 2607.0 339.7 L 2619.3 335.0 L 2631.2 324.4 L 2649.0 304.4 L 2660.8 291.1 L 2680.1 272.5 L 2704.1 255.2 L 2726.4 245.1 L 2750.4 239.6 L 2775.1 237.0 L 2807.9 239.1 L 2845.3 245.9 L 2853.2 247.7 L 2868.0 251.2 L 2914.3 270.9 L 2962.4 291.0 L 2998.0 304.2 L 3016.1 307.9 L 3043.1 313.0 L 3063.5 314.1 L 3091.5 311.8 L 3127.7 304.9 L 3194.3 288.2 L 3232.3 285.4 L 3265.6 293.8 L 3351.7 308.6 L 3461.8 313.2 L 3544.2 310.4 L 3605.2 306.7 L 3684.8 313.2 L 3763.5 332.6 L 3891.2 356.7 L 3960.6 376.1 L 4016.1 393.7 L 4092.0 405.7 L 4153.1 419.6 L 4217.0 413.1 L 4243.9 414.7 L 4266.0 415.9 L 4315.6 427.5 L 4352.1 440.9 L 4411.3 465.9 L 4460.5 487.7 L 4499.2 503.8 L 4541.8 516.8 L 4573.4 518.2 L 4628.9 517.7 L 4704.7 514.9 L 4798.9 517.2 L 4822.2 517.7 L 4947.1 531.6 L 5028.6 540.8 L 5104.4 561.2 L 5301.6 571.4 L 5430.2 566.8 L 5527.4 567.7 L 5584.4 551.5 L 5602.3 546.4 L 5680.1 525.1 L 5752.3 510.3 L 5791.1 489.9 L 5803.7 480.4 L 5830.0 460.3 L 5855.9 448.3 L 5871.6 452.0 L 5892.0 481.6 L 5911.9 506.6 L 5927.3 513.5 L 5942.8 515.2 L 5957.3 513.8 L 5973.9 510.0 L 5992.4 504.2 L 6029.2 486.7 L 6072.0 464.6 L 6094.9 450.4 L 6101.8 446.2 L 6123.1 433.2 L 6155.5 416.6 L 6181.2 404.8 L 6204.9 398.4 L 6243.4 391.5 L 6276.6 384.8 L 6306.8 372.8 L 6345.7 350.1 L 6381.0 328.6 L 6408.7 311.5 L 6441.9 289.7" stroke="#000" stroke-width="1.3" stroke-opacity="0.8" fill="none" stroke-linecap="round" stroke-linejoin="round"/>
<path d="M 902.0 173.2 L 831.5 255.7 L 799.5 299.2 L 782.6 322.2 L 766.3 344.0 L 751.8 364.1 L 740.0 381.2 L 719.6 412.9" stroke="#000" stroke-width="1.3" stroke-opacity="0.8" fill="none" stroke-linecap="round" stroke-linejoin="round"/>
<path d="M 831.5 255.7 L 883.1 299.5 L 909.2 321.3 L 952.3 351.4" stroke="#000" stroke-width="1.3" stroke-opacity="0.8" fill="none" stroke-linecap="round" stroke-linejoin="round"/>
<path d="M 799.5 299.2 L 851.2 341.5" stroke="#000" stroke-width="1.3" stroke-opacity="0.8" fill="none" stroke-linecap="round" stroke-linejoin="round"/>
<path d="M 202.3 796.2 L 251.9 729.5" stroke="#000" stroke-width="1.3" stroke-opacity="0.8" fill="none" stroke-linecap="round" stroke-linejoin="round"/>
<path d="M 766.3 344.0 L 819.6 381.6" stroke="#000" stroke-width="1.3" stroke-opacity="0.8" fill="none" stroke-linecap="round" stroke-linejoin="round"/>
<path d="M 281.6 630.3 L 311.7 684.9 L 344.4 744.3" stroke="#000" stroke-width="1.3" stroke-opacity="0.8" fill="none" stroke-linecap="round" stroke-linejoin="round"/>
<path d="M 297.5 573.9 L 308.9 569.3 L 410.6 546.4" stroke="#000" stroke-width="1.3" stroke-opacity="0.8" fill="none" stroke-linecap="round" stroke-linejoin="round"/>
<path d="M 1025.4 250.2 L 1011.1 224.8 L 992.4 192.5 L 979.4 170.5 L 960.9 147.1 L 943.3 128.6 L 925.1 110.6 L 894.5 86.5 L 877.2 73.8 L 848.9 53.4 L 831.4 39.5 L 768.4 -4.7 L 674.7 -71.1 L 631.2 -101.6 L 600.5 -128.0 L 586.3 -143.7 L 572.0 -165.0 L 538.5 -224.0 L 489.4 -300.1 L 450.3 -365.1 L 426.3 -408.1 L 385.5 -472.7 L 356.6 -509.5 L 312.4 -559.2 L 260.1 -613.8 L 208.3 -671.0 L 156.0 -733.0 L 140.1 -752.4 L 87.1 -816.7 L 15.0 -902.2 L 7.5 -911.1 L -45.7 -970.3 L -50.4 -975.4 L -106.0 -1037.1 L -132.5 -1066.3 L -173.7 -1109.6 L -237.5 -1176.5 L -284.3 -1229.0 L -320.3 -1269.9 L -343.9 -1290.7 L -357.6 -1297.5 L -373.8 -1301.6 L -406.6 -1306.0 L -432.4 -1308.4 L -484.6 -1313.2 L -589.4 -1322.7 L -640.5 -1328.0 L -677.8 -1327.1 L -706.9 -1318.7 L -728.4 -1309.8 L -743.5 -1307.4 L -761.3 -1304.6 L -780.3 -1304.2 L -800.5 -1305.7 L -805.3 -1306.0 L -858.5 -1323.8 L -959.8 -1354.4 L -984.6 -1365.9 L -1000.5 -1378.9 L -1011.7 -1400.6 L -1039.2 -1442.0 L -1100.5 -1525.8 L -1132.2 -1567.9 L -1179.8 -1607.5 L -1224.3 -1635.0 L -1346.1 -1713.2 L -1381.2 -1736.8 L -1408.6 -1751.1 L -1428.5 -1757.1 L -1448.4 -1761.0 L -1471.8 -1765.7 L -1481.8 -1767.1 L -1556.5 -1776.6 L -1721.2 -1796.9 L -1784.1 -1805.1 L -1860.8 -1816.2 L -1905.1 -1820.4 L -1953.6 -1825.3 L -2054.5 -1840.6 L -2090.9 -1845.2 L -2141.4 -1845.4 L -2263.2 -1843.9 L -2339.8 -1844.4 L -2409.3 -1850.7 L -2443.2 -1857.0 L -2469.1 -1863.8 L -2488.2 -1875.8 L -2502.4 -1889.9 L -2525.8 -1917.3 L -2552.7 -1952.2 L -2592.0 -2003.4 L -2653.5 -2079.7 L -2760.6 -2218.7 L -2824.4 -2292.6 L -2847.7 -2305.4 L -2905.8 -2313.8 L -3076.7 -2334.2 L -3115.7 -2339.2 L -3180.4 -2347.4 L -3282.4 -2360.4 L -3382.2 -2370.3 L -3410.1 -2373.0 L -3453.3 -2377.1 L -3469.3 -2378.6 L -3493.7 -2391.3 L -3514.2 -2410.5 L -3571.1 -2498.9 L -3696.0 -2714.5 L -3707.1 -2758.0 L -3725.9 -2833.1 L -3727.5 -2839.4 L -3746.0 -2928.2 L -3769.1 -2999.5 L -3774.8 -3008.0 L -3787.6 -3027.3 L -3921.8 -3182.7 L -3987.5 -3213.3 L -4105.1 -3250.3 L -4156.9 -3266.0 L -4212.7 -3275.9 L -4250.4 -3282.7 L -4343.8 -3298.4 L -4379.9 -3314.1 L -4402.1 -3337.3 L -4434.5 -3408.5 L -4446.6 -3444.6 L -4448.4 -3496.4 L -4447.5 -3616.7 L -4464.1 -3625.0 L -4487.3 -3616.7 L -4516.0 -3601.9 L -4550.2 -3601.9 L -4603.0 -3614.9 L -4626.1 -3609.3 L -4647.4 -3574.1 L -4676.1 -3539.9 L -4698.3 -3519.5 L -4708.4 -3506.4 L -4715.9 -3502.9 L -4723.7 -3504.3" stroke="#000" stroke-width="2.4" stroke-opacity="0.95" fill="none" stroke-linecap="round" stroke-linejoin="round"/>
<path d="M 259.4 732.8 L 311.7 684.9 L 381.9 650.7" stroke="#000" stroke-width="1.3" stroke-opacity="0.8" fill="none" stroke-linecap="round" stroke-linejoin="round"/>
<path d="M 853.8 137.6 L 902.0 173.2 L 948.5 211.7" stroke="#000" stroke-width="1.3" stroke-opacity="0.8" fill="none" stroke-linecap="round" stroke-linejoin="round"/>
<path d="M 894.5 86.5 L 853.8 137.6" stroke="#000" stroke-width="1.3" stroke-opacity="0.8" fill="none" stroke-linecap="round" stroke-linejoin="round"/>
<path d="M 867.8 -3.7 L 912.9 32.3 L 971.5 80.1 L 1021.2 121.6" stroke="#000" stroke-width="1.3" stroke-opacity="0.8" fill="none" stroke-linecap="round" stroke-linejoin="round"/>
<path d="M 913.5 -65.1 L 958.5 -29.7 L 1019.5 11.4 L 1069.1 58.4" stroke="#000" stroke-width="1.3" stroke-opacity="0.8" fill="none" stroke-linecap="round" stroke-linejoin="round"/>
<path d="M 831.4 39.5 L 867.8 -3.7 L 913.5 -65.1 L 987.0 -161.2 L 1048.8 -241.9" stroke="#000" stroke-width="1.3" stroke-opacity="0.8" fill="none" stroke-linecap="round" stroke-linejoin="round"/>
<path d="M 971.5 80.1 L 1019.5 11.4 L 1090.1 -80.8 L 1137.8 -142.3 L 1184.9 -153.7" stroke="#000" stroke-width="1.3" stroke-opacity="0.8" fill="none" stroke-linecap="round" stroke-linejoin="round"/>
<path d="M 877.2 73.8 L 912.9 32.3 L 958.5 -29.7 L 1031.5 -125.9 L 1112.5 -232.7" stroke="#000" stroke-width="1.3" stroke-opacity="0.8" fill="none" stroke-linecap="round" stroke-linejoin="round"/>
<path d="M 5070.9 4498.0 L 4893.2 4519.1 L 4732.3 4540.4 L 4645.4 4541.7 L 4573.9 4537.9 L 4558.1 4537.0 L 4523.5 4535.2 L 4446.7 4530.8 L 4377.2 4504.0 L 4348.7 4493.1 L 4271.3 4463.3 L 4249.7 4451.1 L 4140.0 4349.4 L 4117.2 4328.5 L 4037.5 4255.8 L 4025.1 4244.4 L 4007.5 4222.4 L 3999.8 4196.0 L 3971.1 4085.9 L 3960.5 4062.0 L 3938.9 4026.8 L 3916.1 3999.3 L 3908.1 3991.0 L 3737.8 3814.7 L 3714.1 3775.9 L 3652.5 3675.1 L 3478.7 3387.6 L 3471.7 3361.5 L 3460.5 3280.3 L 3450.8 3211.1 L 3428.8 3060.3 L 3425.2 3043.0 L 3371.2 2952.0 L 3298.9 2876.0 L 3260.5 2838.2 L 3242.8 2817.3 L 3229.1 2799.2 L 3203.5 2755.4 L 3191.2 2735.3 L 3188.2 2730.5 L 3169.5 2700.4 L 3151.0 2679.3 L 3111.4 2646.0 L 3071.8 2620.6 L 3041.8 2606.3 L 3013.7 2594.4 L 2979.0 2574.4 L 2953.6 2555.2 L 2943.4 2543.3 L 2933.5 2526.0 L 2922.4 2513.5 L 2893.6 2500.7 L 2867.1 2493.1 L 2850.2 2484.5 L 2839.9 2472.8 L 2835.1 2454.8 L 2825.4 2429.3 L 2818.6 2404.2 L 2799.4 2334.1 L 2788.9 2258.1 L 2784.5 2229.5 L 2781.9 2202.7 L 2775.7 2184.3 L 2752.6 2162.7 L 2693.5 2118.3 L 2682.5 2103.2 L 2676.6 2073.5 L 2674.4 2053.1 L 2672.2 2032.4 L 2645.5 1958.3 L 2644.1 1954.3 L 2636.4 1930.2 L 2629.7 1917.7 L 2619.5 1905.0 L 2605.7 1892.0 L 2583.7 1869.6 L 2564.2 1845.8 L 2547.1 1823.8 L 2539.6 1809.7 L 2534.9 1796.7 L 2525.1 1771.7 L 2518.9 1746.7 L 2516.1 1729.6 L 2518.9 1715.3 L 2522.8 1698.1 L 2522.6 1682.2 L 2519.1 1673.2 L 2512.2 1660.9 L 2499.5 1647.7 L 2475.2 1619.9 L 2457.4 1598.7 L 2431.2 1549.6 L 2417.1 1524.2 L 2393.5 1481.4 L 2376.1 1432.8 L 2349.8 1358.7 L 2338.7 1331.7 L 2324.1 1311.5 L 2308.9 1298.2 L 2297.0 1282.4 L 2285.9 1262.9 L 2273.0 1236.6 L 2261.2 1223.6 L 2243.3 1210.2 L 2225.3 1198.2 L 2220.9 1192.5 L 2211.9 1180.8 L 2201.5 1158.1 L 2180.6 1110.9 L 2169.1 1083.6 L 2162.1 1071.8 L 2149.9 1056.3 L 2144.1 1043.8 L 2137.4 1018.4 L 2136.2 996.9 L 2132.3 986.7 L 2125.8 979.5 L 2112.3 964.8 L 2089.5 947.6 L 2041.7 904.8 L 2024.0 888.7 L 2005.5 864.9 L 1984.0 834.7 L 1954.4 798.4 L 1934.2 776.6 L 1915.7 761.8 L 1897.7 746.1 L 1862.9 719.9 L 1840.2 706.3 L 1826.1 700.4 L 1802.6 693.1 L 1764.7 684.4 L 1719.1 675.5 L 1706.4 673.9 L 1692.8 673.9 L 1647.2 675.1 L 1613.0 675.8 L 1600.2 673.2 L 1587.9 669.0 L 1571.0 660.7 L 1520.8 635.4 L 1452.7 603.5 L 1396.9 579.9 L 1320.9 546.5 L 1250.8 517.7 L 1235.4 511.3 L 1225.4 505.7 L 1207.3 496.7 L 1192.9 486.3 L 1179.9 476.8 L 1166.2 464.3 L 1154.9 452.8 L 1141.6 440.7 L 1121.7 424.1" stroke="#000" stroke-width="1.3" stroke-opacity="0.8" fill="none" stroke-linecap="round" stroke-linejoin="round"/>
<path d="M 667.8 483.4 L 664.5 445.9 L 662.2 412.4 L 668.1 383.4 L 678.7 362.9 L 712.1 322.2" stroke="#000" stroke-width="1.3" stroke-opacity="0.8" fill="none" stroke-linecap="round" stroke-linejoin="round"/>
<path d="M 1166.2 464.3 L 1096.8 521.4 L 1081.5 535.8 L 1055.5 561.5 L 1041.9 580.7 L 1021.5 616.1 L 957.9 647.1 L 941.5 658.6 L 930.8 668.8 L 926.7 682.0 L 913.5 728.5 L 910.2 788.8 L 907.7 905.0 L 910.8 973.0 L 913.0 987.4 L 919.5 1008.7 L 936.6 1039.5 L 958.8 1069.5 L 1011.8 1111.2 L 1037.5 1131.3 L 1053.0 1147.0 L 1067.1 1163.5 L 1082.6 1203.1 L 1091.8 1223.6 L 1098.4 1239.1 L 1126.8 1305.3 L 1188.3 1449.4 L 1205.5 1489.7 L 1223.3 1531.3 L 1228.6 1548.7 L 1230.0 1568.8 L 1235.8 1581.3 L 1282.0 1665.1 L 1304.9 1705.5 L 1333.9 1752.5 L 1346.2 1771.2 L 1347.5 1773.1 L 1359.6 1806.2 L 1376.9 1867.7 L 1405.4 1972.3 L 1416.0 2022.5 L 1423.6 2084.5 L 1427.6 2101.6 L 1435.2 2114.4 L 1461.8 2141.7 L 1471.5 2152.8 L 1474.8 2164.8 L 1465.3 2190.5 L 1447.5 2226.6 L 1422.7 2272.2 L 1402.6 2312.6 L 1388.5 2348.3 L 1379.9 2376.3 L 1368.3 2426.7 L 1360.0 2465.8 L 1354.2 2491.7 L 1347.3 2514.9 L 1335.3 2541.7 L 1319.1 2580.8 L 1309.3 2604.2 L 1304.7 2626.2 L 1303.1 2659.9 L 1301.9 2694.2 L 1302.2 2723.8 L 1306.3 2742.2 L 1311.0 2762.9 L 1321.1 2791.4 L 1351.0 2859.1 L 1360.6 2882.7 L 1399.0 2947.1" stroke="#000" stroke-width="1.3" stroke-opacity="0.8" fill="none" stroke-linecap="round" stroke-linejoin="round"/>
<path d="M 4328.6 -13914.5 L 4337.1 -13895.5 L 4344.3 -13873.1 L 4352.9 -13834.6 L 4354.0 -13822.6 L 4354.3 -13818.7 L 4360.7 -13748.2 L 4362.2 -13731.7 L 4378.7 -13568.1 L 4379.4 -13560.2 L 4391.3 -13405.4 L 4391.6 -13401.8 L 4389.7 -13385.5 L 4384.1 -13368.7 L 4376.2 -13352.0 L 4328.2 -13285.7 L 4199.8 -13099.0 L 4124.7 -12989.9 L 4051.9 -12880.2 L 4040.8 -12867.8 L 3975.8 -12819.9 L 3965.4 -12806.2 L 3957.7 -12790.0 L 3955.2 -12782.0 L 3936.7 -12722.4 L 3904.2 -12593.6 L 3881.7 -12521.9 L 3843.1 -12412.6 L 3719.4 -12050.2 L 3647.0 -11849.0 L 3601.9 -11722.6 L 3563.4 -11613.0 L 3557.4 -11595.7 L 3490.6 -11395.8 L 3479.5 -11364.4 L 3475.3 -11352.8 L 3461.8 -11295.7 L 3449.9 -11187.8 L 3447.4 -11133.4 L 3433.2 -11069.4 L 3431.7 -11062.6 L 3304.5 -10722.0 L 3182.3 -10394.9 L 3173.7 -10372.0 L 2889.5 -9611.2 L 2871.8 -9563.8 L 2854.8 -9520.9 L 2824.0 -9442.1 L 2810.0 -9406.1 L 2769.2 -9328.7 L 2730.9 -9256.1 L 2532.6 -8883.2 L 2402.7 -8638.9 L 2381.5 -8586.2 L 2369.4 -8527.9 L 2357.9 -8385.7 L 2357.0 -8354.9 L 2349.9 -8107.3 L 2345.1 -7941.3 L 2338.0 -7650.9 L 2322.8 -7167.7 L 2275.3 -5513.9 L 2275.1 -5507.1 L 2270.3 -5345.9 L 2262.3 -5075.8 L 2263.4 -5014.9 L 2271.4 -4975.2 L 2291.6 -4923.5 L 2333.3 -4860.2 L 2394.7 -4767.0 L 2477.4 -4611.3 L 2491.9 -4559.7 L 2518.0 -4274.5 L 2510.3 -4249.9 L 2494.5 -4226.9 L 2481.3 -4210.7 L 2459.3 -4200.0 L 2437.7 -4193.4 L 2411.6 -4194.5 L 2264.8 -4242.9 L 2205.8 -4265.3 L 2181.8 -4268.8 L 2159.5 -4266.0 L 2137.9 -4250.6 L 2129.4 -4236.0 L 2125.8 -4214.3 L 2132.7 -4194.9 L 2150.4 -4174.7 L 2190.8 -4145.3 L 2201.4 -4137.6 L 2415.3 -3980.2 L 2432.9 -3953.1 L 2441.3 -3923.0 L 2441.0 -3889.3 L 2432.5 -3855.5 L 2372.8 -3768.9 L 2361.5 -3748.2 L 2354.4 -3726.7 L 2344.1 -3687.1 L 2310.3 -3504.4 L 2288.8 -3393.2 L 2230.7 -3093.1 L 2226.7 -3054.6 L 2228.1 -3019.7 L 2234.7 -2985.8 L 2288.3 -2835.7 L 2370.7 -2613.6 L 2405.3 -2514.6 L 2515.7 -2210.5 L 2528.8 -2166.1 L 2525.0 -2105.7 L 2516.8 -2067.7 L 2499.1 -2025.7 L 2476.4 -1993.3 L 2454.4 -1969.0 L 2294.0 -1827.2 L 2108.8 -1659.5 L 2100.0 -1651.6 L 1941.0 -1504.6 L 1917.4 -1478.6 L 1902.4 -1456.8 L 1875.2 -1404.0 L 1812.0 -1262.2 L 1750.7 -1127.7 L 1641.9 -888.9 L 1637.2 -878.5 L 1613.7 -825.5 L 1564.4 -714.5 L 1416.8 -379.3 L 1385.5 -311.8 L 1346.1 -216.3 L 1321.8 -167.1 L 1298.0 -123.2 L 1278.3 -93.0 L 1257.7 -61.9 L 1200.4 16.3 L 1165.9 67.1 L 1025.4 250.2 L 952.3 351.4 L 864.8 467.8 L 853.1 484.4 L 768.6 598.7 L 694.0 698.9 L 690.4 704.6 L 598.5 828.8 L 524.5 931.9 L 443.4 1041.4 L 362.0 1151.5 L 350.0 1168.3 L 271.4 1273.1 L 161.4 1422.0 L 155.7 1429.3 L 39.3 1586.8 L 21.6 1605.5" stroke="#000" stroke-width="3.6" stroke-opacity="1" fill="none" stroke-linecap="round" stroke-linejoin="round"/>
<path d="M 524.5 931.9 L 575.6 970.8" stroke="#000" stroke-width="1.3" stroke-opacity="0.8" fill="none" stroke-linecap="round" stroke-linejoin="round"/>
<path d="M 1126.8 1305.3 L 1180.9 1279.6 L 1211.8 1264.0 L 1235.1 1252.3 L 1269.6 1235.9 L 1282.7 1232.2 L 1296.2 1228.5 L 1329.2 1213.9 L 1343.7 1207.1 L 1367.9 1195.6 L 1391.9 1187.3 L 1411.1 1180.4 L 1431.7 1169.7 L 1460.9 1157.0 L 1492.1 1142.4 L 1510.6 1137.1 L 1525.7 1137.1 L 1547.4 1140.6 L 1564.5 1142.9 L 1582.4 1143.6 L 1597.4 1147.7 L 1609.9 1154.7 L 1617.5 1158.4 L 1630.6 1162.3 L 1650.9 1162.9 L 1678.4 1163.2 L 1690.0 1163.9 L 1701.6 1166.2 L 1720.9 1171.4 L 1743.6 1178.4 L 1752.0 1181.6 L 1774.8 1190.5 L 1801.9 1199.7 L 1822.7 1205.9 L 1833.5 1209.9 L 1843.7 1215.6 L 1864.0 1229.4 L 1891.1 1240.4 L 1901.2 1242.8 L 1921.1 1243.1 L 1957.8 1241.2 L 1998.8 1241.0 L 2015.7 1239.6 L 2028.4 1235.6 L 2040.0 1232.8 L 2054.5 1229.3 L 2096.4 1217.1 L 2106.8 1216.6 L 2118.9 1216.6 L 2127.8 1215.1 L 2151.6 1208.3 L 2169.0 1204.6 L 2190.8 1202.3 L 2202.3 1201.5 L 2209.2 1199.1 L 2220.9 1192.5" stroke="#000" stroke-width="1.3" stroke-opacity="0.8" fill="none" stroke-linecap="round" stroke-linejoin="round"/>
<path d="M 130.2 617.6 L 138.0 616.5 L 297.5 573.9" stroke="#000" stroke-width="1.3" stroke-opacity="0.8" fill="none" stroke-linecap="round" stroke-linejoin="round"/>
<path d="M 449.5 513.7 L 405.0 539.9" stroke="#000" stroke-width="1.3" stroke-opacity="0.8" fill="none" stroke-linecap="round" stroke-linejoin="round"/>
<path d="M 410.6 546.4 L 436.0 573.2 L 453.1 589.0 L 466.7 606.6 L 496.5 645.1" stroke="#000" stroke-width="1.3" stroke-opacity="0.8" fill="none" stroke-linecap="round" stroke-linejoin="round"/>
<path d="M 484.0 742.9 L 411.6 839.7" stroke="#000" stroke-width="1.3" stroke-opacity="0.8" fill="none" stroke-linecap="round" stroke-linejoin="round"/>
<path d="M 728.8 484.3 L 726.6 496.7 L 722.3 507.3 L 696.0 543.1 L 618.8 648.3" stroke="#000" stroke-width="1.3" stroke-opacity="0.8" fill="none" stroke-linecap="round" stroke-linejoin="round"/>
<path d="M 657.3 514.2 L 578.7 618.0" stroke="#000" stroke-width="1.3" stroke-opacity="0.8" fill="none" stroke-linecap="round" stroke-linejoin="round"/>
<path d="M 201.9 847.2 L 288.8 920.3" stroke="#000" stroke-width="1.3" stroke-opacity="0.8" fill="none" stroke-linecap="round" stroke-linejoin="round"/>
<path d="M 288.8 920.3 L 363.3 981.4" stroke="#000" stroke-width="1.3" stroke-opacity="0.8" fill="none" stroke-linecap="round" stroke-linejoin="round"/>
<path d="M 363.3 981.4 L 443.4 1041.4" stroke="#000" stroke-width="1.3" stroke-opacity="0.8" fill="none" stroke-linecap="round" stroke-linejoin="round"/>
<path d="M 768.6 598.7 L 810.6 639.4 L 835.7 663.4" stroke="#000" stroke-width="1.3" stroke-opacity="0.8" fill="none" stroke-linecap="round" stroke-linejoin="round"/>
<path d="M 289.3 -199.8 L 284.2 -181.4 L 284.7 -171.7 L 286.7 -161.1 L 290.9 -153.7 L 299.7 -149.0 L 347.4 -138.6 L 358.9 -126.1 L 358.5 -112.2 L 346.4 -93.0 L 336.3 -51.2 L 338.1 -11.8 L 349.4 16.8 L 358.5 47.4 L 370.5 75.8 L 376.0 95.7 L 389.5 135.5 L 398.7 153.6 L 403.3 164.2 L 403.1 176.3 L 398.7 190.4 L 378.8 213.0 L 364.5 242.7 L 353.4 279.2 L 340.2 307.7 L 325.4 333.1 L 321.4 349.5 L 321.9 365.0 L 324.9 387.7 L 326.3 407.4 L 325.1 422.0" stroke="#000" stroke-width="1.3" stroke-opacity="0.8" fill="none" stroke-linecap="round" stroke-linejoin="round"/>
<path d="M 504.1 449.8 L 449.5 513.7" stroke="#000" stroke-width="1.3" stroke-opacity="0.8" fill="none" stroke-linecap="round" stroke-linejoin="round"/>
<path d="M 316.8 773.9 L 344.4 744.3 L 366.6 722.5" stroke="#000" stroke-width="1.3" stroke-opacity="0.8" fill="none" stroke-linecap="round" stroke-linejoin="round"/>
<path d="M 310.3 454.8 L 308.3 467.1 L 299.5 498.5 L 294.8 517.5" stroke="#000" stroke-width="1.3" stroke-opacity="0.8" fill="none" stroke-linecap="round" stroke-linejoin="round"/>
<path d="M 708.7 1096.4 L 714.1 1086.4 L 721.7 1076.9 L 738.1 1063.0 L 751.5 1058.2 L 784.4 1052.2 L 792.7 1050.8 L 805.7 1043.4" stroke="#000" stroke-width="1.3" stroke-opacity="0.8" fill="none" stroke-linecap="round" stroke-linejoin="round"/>
<path d="M 699.7 1099.1 L 708.7 1096.4 L 726.1 1096.8 L 737.2 1097.5 L 747.6 1102.6 L 759.2 1117.4 L 775.8 1132.5 L 790.2 1148.2 L 808.2 1162.3" stroke="#000" stroke-width="1.3" stroke-opacity="0.8" fill="none" stroke-linecap="round" stroke-linejoin="round"/>
<path d="M 782.8 1189.6 L 764.5 1182.4 L 741.6 1169.5 L 728.9 1160.7 L 720.5 1151.0 L 711.3 1137.1 L 704.6 1129.5 L 697.9 1123.0 L 695.5 1114.9 L 696.2 1105.4 L 699.7 1099.1" stroke="#000" stroke-width="1.3" stroke-opacity="0.8" fill="none" stroke-linecap="round" stroke-linejoin="round"/>
<path d="M 660.0 1074.1 L 699.7 1099.1" stroke="#000" stroke-width="1.3" stroke-opacity="0.8" fill="none" stroke-linecap="round" stroke-linejoin="round"/>
<path d="M 737.8 981.4 L 678.8 930.0 L 634.4 896.2" stroke="#000" stroke-width="1.3" stroke-opacity="0.8" fill="none" stroke-linecap="round" stroke-linejoin="round"/>
<path d="M 496.5 1070.7 L 537.2 1102.7" stroke="#000" stroke-width="1.3" stroke-opacity="0.8" fill="none" stroke-linecap="round" stroke-linejoin="round"/>
<path d="M 894.1 1390.7 L 901.5 1380.4 L 910.0 1373.8 L 916.3 1369.9 L 938.9 1355.8 L 967.9 1336.3 L 982.4 1324.8 L 1001.4 1307.8 L 1023.0 1286.9 L 1059.0 1257.2 L 1091.8 1223.6" stroke="#000" stroke-width="1.3" stroke-opacity="0.8" fill="none" stroke-linecap="round" stroke-linejoin="round"/>
<path d="M 801.7 1515.8 L 829.0 1503.3 L 840.1 1493.8 L 848.7 1482.7 L 865.4 1449.0 L 894.1 1390.7" stroke="#000" stroke-width="1.3" stroke-opacity="0.8" fill="none" stroke-linecap="round" stroke-linejoin="round"/>
<path d="M 843.8 1158.8 L 843.4 1188.9 L 838.3 1223.4 L 835.5 1245.4 L 831.4 1266.9 L 832.1 1280.8 L 839.9 1302.5 L 849.4 1321.9 L 860.3 1334.4 L 874.4 1345.5 L 882.9 1355.0 L 886.9 1366.6 L 894.1 1390.7" stroke="#000" stroke-width="1.3" stroke-opacity="0.8" fill="none" stroke-linecap="round" stroke-linejoin="round"/>
<path d="M 871.6 976.3 L 865.1 1003.4 L 852.9 1037.4 L 848.7 1052.9 L 848.0 1064.9 L 851.0 1077.4 L 855.6 1089.2 L 856.1 1101.5 L 850.6 1127.1 L 843.8 1158.8" stroke="#000" stroke-width="1.3" stroke-opacity="0.8" fill="none" stroke-linecap="round" stroke-linejoin="round"/>
<path d="M 907.7 905.0 L 884.1 949.5 L 871.6 976.3" stroke="#000" stroke-width="1.3" stroke-opacity="0.8" fill="none" stroke-linecap="round" stroke-linejoin="round"/>
<path d="M 491.7 1164.4 L 438.0 1145.7" stroke="#000" stroke-width="1.3" stroke-opacity="0.8" fill="none" stroke-linecap="round" stroke-linejoin="round"/>
<path d="M 617.6 1004.4 L 537.2 1102.7" stroke="#000" stroke-width="1.3" stroke-opacity="0.8" fill="none" stroke-linecap="round" stroke-linejoin="round"/>
<path d="M 734.4 1510.5 L 749.5 1486.0 L 759.6 1462.8 L 761.5 1453.4 L 761.5 1417.5 L 762.9 1384.2 L 762.6 1344.9 L 760.8 1319.9 L 757.6 1295.1 L 758.7 1280.5 L 765.2 1263.9 L 772.1 1235.4 L 782.8 1189.6 L 792.7 1175.0 L 801.0 1167.4 L 808.2 1162.3 L 822.8 1162.8 L 837.1 1160.7 L 843.8 1158.8" stroke="#000" stroke-width="1.3" stroke-opacity="0.8" fill="none" stroke-linecap="round" stroke-linejoin="round"/>
<path d="M 694.0 698.9 L 751.1 753.3" stroke="#000" stroke-width="1.3" stroke-opacity="0.8" fill="none" stroke-linecap="round" stroke-linejoin="round"/>
<path d="M 887.8 676.9 L 959.9 613.8 L 987.1 582.9 L 1000.8 565.9 L 1009.7 554.7 L 1022.5 545.0 L 1034.5 536.5 L 1038.9 532.3 L 1039.6 524.9 L 1042.6 513.1 L 1047.0 505.9 L 1052.1 499.7" stroke="#000" stroke-width="1.3" stroke-opacity="0.8" fill="none" stroke-linecap="round" stroke-linejoin="round"/>
<path d="M 727.4 865.0 L 785.1 792.9" stroke="#000" stroke-width="1.3" stroke-opacity="0.8" fill="none" stroke-linecap="round" stroke-linejoin="round"/>
<path d="M 678.8 930.0 L 727.4 865.0" stroke="#000" stroke-width="1.3" stroke-opacity="0.8" fill="none" stroke-linecap="round" stroke-linejoin="round"/>
<path d="M 913.5 728.5 L 887.8 676.9" stroke="#000" stroke-width="1.3" stroke-opacity="0.8" fill="none" stroke-linecap="round" stroke-linejoin="round"/>
<path d="M 861.6 637.1 L 887.8 676.9" stroke="#000" stroke-width="1.3" stroke-opacity="0.8" fill="none" stroke-linecap="round" stroke-linejoin="round"/>
<path d="M 785.1 792.9 L 751.1 753.3" stroke="#000" stroke-width="1.3" stroke-opacity="0.8" fill="none" stroke-linecap="round" stroke-linejoin="round"/>
<path d="M 768.0 251.0 L 853.8 137.6" stroke="#000" stroke-width="1.3" stroke-opacity="0.8" fill="none" stroke-linecap="round" stroke-linejoin="round"/>
<path d="M 712.1 322.2 L 754.0 266.9 L 768.0 251.0" stroke="#000" stroke-width="1.3" stroke-opacity="0.8" fill="none" stroke-linecap="round" stroke-linejoin="round"/>
<path d="M 751.8 364.1 L 712.1 322.2" stroke="#000" stroke-width="1.3" stroke-opacity="0.8" fill="none" stroke-linecap="round" stroke-linejoin="round"/>
<path d="M 684.2 483.3 L 691.2 459.9 L 704.6 436.8 L 719.6 412.9" stroke="#000" stroke-width="1.3" stroke-opacity="0.8" fill="none" stroke-linecap="round" stroke-linejoin="round"/>
<path d="M 754.0 266.9 L 799.5 299.2" stroke="#000" stroke-width="1.3" stroke-opacity="0.8" fill="none" stroke-linecap="round" stroke-linejoin="round"/>
<path d="M 728.2 207.0 L 669.1 144.1" stroke="#000" stroke-width="1.3" stroke-opacity="0.8" fill="none" stroke-linecap="round" stroke-linejoin="round"/>
<path d="M 768.0 251.0 L 728.2 207.0" stroke="#000" stroke-width="1.3" stroke-opacity="0.8" fill="none" stroke-linecap="round" stroke-linejoin="round"/>
<path d="M 677.0 93.2 L 696.0 108.7 L 756.1 175.7" stroke="#000" stroke-width="1.3" stroke-opacity="0.8" fill="none" stroke-linecap="round" stroke-linejoin="round"/>
<path d="M 606.9 230.4 L 644.4 176.7 L 669.1 144.1 L 696.0 108.7" stroke="#000" stroke-width="1.3" stroke-opacity="0.8" fill="none" stroke-linecap="round" stroke-linejoin="round"/>
<path d="M 606.9 230.4 L 667.3 285.5" stroke="#000" stroke-width="1.3" stroke-opacity="0.8" fill="none" stroke-linecap="round" stroke-linejoin="round"/>
<path d="M 563.0 64.3 L 549.1 113.3 L 538.5 146.6 L 537.5 158.2 L 542.6 174.9 L 573.6 203.6 L 606.9 230.4" stroke="#000" stroke-width="1.3" stroke-opacity="0.8" fill="none" stroke-linecap="round" stroke-linejoin="round"/>
<path d="M 483.4 393.7 L 514.9 363.0 L 529.0 341.4 L 549.2 312.8 L 555.1 304.4 L 582.4 264.2 L 606.9 230.4" stroke="#000" stroke-width="1.3" stroke-opacity="0.8" fill="none" stroke-linecap="round" stroke-linejoin="round"/>
<path d="M 551.3 434.1 L 534.5 426.8 L 521.6 420.6 L 511.4 415.5 L 503.8 409.0 L 496.6 403.2 L 483.4 393.7" stroke="#000" stroke-width="1.3" stroke-opacity="0.8" fill="none" stroke-linecap="round" stroke-linejoin="round"/>
<path d="M 324.9 387.7 L 336.5 384.2 L 345.5 382.6 L 368.2 381.9 L 400.6 384.7 L 444.8 389.6 L 483.4 393.7" stroke="#000" stroke-width="1.3" stroke-opacity="0.8" fill="none" stroke-linecap="round" stroke-linejoin="round"/>
<path d="M 667.3 285.5 L 712.1 322.2" stroke="#000" stroke-width="1.3" stroke-opacity="0.8" fill="none" stroke-linecap="round" stroke-linejoin="round"/>
<path d="M 848.9 53.4 L 756.1 175.7 L 728.2 207.0 L 667.3 285.5" stroke="#000" stroke-width="1.3" stroke-opacity="0.8" fill="none" stroke-linecap="round" stroke-linejoin="round"/>
<path d="M 1435.2 845.8 L 1451.9 860.1 L 1496.7 881.4 L 1521.5 896.6 L 1575.9 925.5 L 1602.2 937.2 L 1619.1 941.4 L 1627.2 944.4 L 1630.5 951.1 L 1639.7 990.2 L 1649.0 1021.9 L 1653.8 1031.4 L 1668.9 1039.5 L 1690.9 1050.8 L 1715.4 1064.4" stroke="#000" stroke-width="1.3" stroke-opacity="0.8" fill="none" stroke-linecap="round" stroke-linejoin="round"/>
<path d="M 1432.2 396.5 L 1418.8 345.5" stroke="#000" stroke-width="1.3" stroke-opacity="0.8" fill="none" stroke-linecap="round" stroke-linejoin="round"/>
<path d="M 1362.1 430.7 L 1349.4 391.9 L 1344.6 366.6" stroke="#000" stroke-width="1.3" stroke-opacity="0.8" fill="none" stroke-linecap="round" stroke-linejoin="round"/>
<path d="M 1147.2 361.8 L 1206.8 298.4 L 1247.8 253.1" stroke="#000" stroke-width="1.3" stroke-opacity="0.8" fill="none" stroke-linecap="round" stroke-linejoin="round"/>
<path d="M 1173.3 407.8 L 1158.7 378.2 L 1147.2 361.8 L 1133.7 350.0 L 1115.2 341.0 L 1093.9 334.4" stroke="#000" stroke-width="1.3" stroke-opacity="0.8" fill="none" stroke-linecap="round" stroke-linejoin="round"/>
<path d="M 832.9 1557.4 L 857.7 1544.3 L 926.4 1512.1 L 968.3 1497.3 L 989.5 1485.3 L 991.6 1482.4 L 991.0 1477.5 L 975.5 1438.9 L 955.0 1399.5 L 949.3 1393.2 L 941.4 1388.5 L 932.5 1383.7 L 916.3 1369.9" stroke="#000" stroke-width="1.3" stroke-opacity="0.8" fill="none" stroke-linecap="round" stroke-linejoin="round"/>
<path d="M 1277.6 1404.1 L 1267.0 1388.8 L 1252.7 1361.3 L 1234.4 1315.5 L 1219.8 1285.4 L 1211.8 1264.0" stroke="#000" stroke-width="1.3" stroke-opacity="0.8" fill="none" stroke-linecap="round" stroke-linejoin="round"/>
<path d="M 1188.3 1449.4 L 1214.5 1440.9 L 1238.5 1433.0 L 1254.0 1422.1 L 1277.6 1404.1 L 1312.8 1372.8 L 1335.5 1353.4 L 1337.8 1347.6 L 1337.8 1334.9 L 1338.1 1322.9 L 1338.7 1292.1 L 1339.4 1259.9 L 1343.7 1207.1" stroke="#000" stroke-width="1.3" stroke-opacity="0.8" fill="none" stroke-linecap="round" stroke-linejoin="round"/>
<path d="M 1098.4 1239.1 L 1125.4 1230.8 L 1165.9 1220.1 L 1190.2 1214.8 L 1209.9 1210.9 L 1233.0 1208.8 L 1248.7 1209.3 L 1261.7 1214.8 L 1282.7 1232.2" stroke="#000" stroke-width="1.3" stroke-opacity="0.8" fill="none" stroke-linecap="round" stroke-linejoin="round"/>
<path d="M 1391.9 1187.3 L 1381.8 1155.8 L 1380.4 1137.8 L 1378.3 1117.2 L 1373.4 1091.1 L 1368.3 1070.2 L 1365.0 1050.2 L 1358.2 1035.5 L 1350.5 1022.6 L 1342.1 1005.4 L 1329.9 979.8 L 1318.3 952.8 L 1309.6 930.3 L 1306.0 922.6" stroke="#000" stroke-width="1.3" stroke-opacity="0.8" fill="none" stroke-linecap="round" stroke-linejoin="round"/>
<path d="M 1052.5 780.6 L 1080.3 831.0 L 1100.9 874.5 L 1120.6 904.8 L 1134.0 917.8 L 1146.2 927.0 L 1158.3 933.5 L 1168.9 936.7 L 1182.1 938.1 L 1190.7 940.4 L 1200.4 946.2 L 1205.9 947.4 L 1213.3 947.1 L 1224.0 948.8 L 1230.9 950.2 L 1240.6 950.2 L 1251.0 946.4 L 1273.9 932.3 L 1285.5 924.0 L 1293.8 920.8 L 1306.0 922.6" stroke="#000" stroke-width="1.3" stroke-opacity="0.8" fill="none" stroke-linecap="round" stroke-linejoin="round"/>
<path d="M 1306.0 922.6 L 1300.2 910.1 L 1296.7 898.0 L 1288.9 866.9 L 1283.0 849.9 L 1280.3 842.3 L 1275.8 836.2 L 1262.4 822.8 L 1246.9 805.5 L 1233.9 783.8 L 1222.8 769.9 L 1214.3 758.6 L 1198.8 735.2 L 1185.1 712.5 L 1167.3 676.4 L 1155.7 638.9" stroke="#000" stroke-width="1.3" stroke-opacity="0.8" fill="none" stroke-linecap="round" stroke-linejoin="round"/>
<path d="M 1579.1 766.9 L 1584.0 781.3 L 1596.0 798.6 L 1612.0 818.0 L 1621.0 827.5 L 1627.2 839.6 L 1634.9 860.8 L 1640.7 878.9 L 1644.4 890.7 L 1645.5 903.9 L 1644.6 912.2 L 1638.8 923.8 L 1627.2 944.4" stroke="#000" stroke-width="1.3" stroke-opacity="0.8" fill="none" stroke-linecap="round" stroke-linejoin="round"/>
<path d="M 1650.8 775.7 L 1632.1 765.3 L 1621.2 763.4 L 1608.5 762.5 L 1598.1 762.5 L 1579.1 766.9" stroke="#000" stroke-width="1.3" stroke-opacity="0.8" fill="none" stroke-linecap="round" stroke-linejoin="round"/>
<path d="M 1600.2 673.2 L 1609.2 690.6 L 1622.1 705.6 L 1637.4 715.8 L 1642.7 720.6" stroke="#000" stroke-width="1.3" stroke-opacity="0.8" fill="none" stroke-linecap="round" stroke-linejoin="round"/>
<path d="M 1409.3 660.9 L 1450.2 684.8 L 1465.1 700.5 L 1480.8 719.5 L 1494.7 729.2 L 1517.1 739.8 L 1542.6 750.0 L 1579.1 766.9" stroke="#000" stroke-width="1.3" stroke-opacity="0.8" fill="none" stroke-linecap="round" stroke-linejoin="round"/>
<path d="M 1409.3 660.9 L 1411.6 669.0 L 1410.7 718.3 L 1409.8 754.6 L 1413.0 776.9 L 1424.1 805.1 L 1432.4 825.0 L 1435.2 845.8" stroke="#000" stroke-width="1.3" stroke-opacity="0.8" fill="none" stroke-linecap="round" stroke-linejoin="round"/>
<path d="M 1725.3 1408.5 L 1679.1 1393.2 L 1667.3 1386.0 L 1651.5 1371.7 L 1624.0 1353.2 L 1583.7 1332.4 L 1549.0 1311.5 L 1516.6 1295.8 L 1491.7 1282.6 L 1472.7 1271.5 L 1456.3 1266.0 L 1430.1 1252.8 L 1417.6 1243.3 L 1408.1 1229.9 L 1391.9 1187.3" stroke="#000" stroke-width="1.3" stroke-opacity="0.8" fill="none" stroke-linecap="round" stroke-linejoin="round"/>
<path d="M 1054.6 1288.9 L 1098.4 1239.1" stroke="#000" stroke-width="1.3" stroke-opacity="0.8" fill="none" stroke-linecap="round" stroke-linejoin="round"/>
<path d="M 934.1 862.0 L 946.6 874.3 L 957.2 886.8 L 965.5 890.9 L 971.1 890.0 L 976.1 885.2" stroke="#000" stroke-width="1.3" stroke-opacity="0.8" fill="none" stroke-linecap="round" stroke-linejoin="round"/>
<path d="M 1138.1 581.8 L 1123.6 556.4 L 1096.8 521.4" stroke="#000" stroke-width="1.3" stroke-opacity="0.8" fill="none" stroke-linecap="round" stroke-linejoin="round"/>
<path d="M 1075.1 491.9 L 1096.8 521.4" stroke="#000" stroke-width="1.3" stroke-opacity="0.8" fill="none" stroke-linecap="round" stroke-linejoin="round"/>
<path d="M 1031.2 473.1 L 1037.7 483.7 L 1052.1 499.7 L 1056.6 503.2 L 1061.3 503.6 L 1066.1 501.2 L 1075.1 491.9 L 1093.5 475.4 L 1108.5 463.6 L 1141.6 440.7" stroke="#000" stroke-width="1.3" stroke-opacity="0.8" fill="none" stroke-linecap="round" stroke-linejoin="round"/>
<path d="M 1365.0 1050.2 L 1375.7 1027.3 L 1385.1 1008.0 L 1388.2 997.1 L 1395.2 978.4 L 1407.0 956.9 L 1410.9 940.9 L 1407.9 933.5 L 1404.4 926.6 L 1401.9 916.8 L 1403.3 906.2 L 1412.1 889.5 L 1435.2 845.8" stroke="#000" stroke-width="1.3" stroke-opacity="0.8" fill="none" stroke-linecap="round" stroke-linejoin="round"/>
<path d="M 524.5 931.9 L 452.3 871.6 L 411.6 839.7 L 372.1 811.5 L 316.8 773.9 L 259.4 732.8 L 251.9 729.5 L 180.0 675.9 L 98.5 721.9 L 90.3 724.8 L 76.7 724.6 L -22.1 711.8 L -73.0 707.0 L -85.7 704.1 L -95.9 701.7 L -136.2 686.6 L -203.5 664.4 L -226.6 656.3 L -243.8 652.8 L -254.4 650.8 L -265.1 645.0 L -291.7 634.6 L -304.4 633.2 L -311.3 631.8 L -317.1 626.5 L -332.8 608.9 L -349.7 596.4 L -373.5 582.8 L -380.5 578.8 L -395.8 564.2 L -412.0 553.1 L -433.5 539.5 L -468.6 512.4 L -477.7 506.4 L -487.9 504.1 L -497.1 505.9 L -503.4 512.9 L -515.6 528.2 L -521.6 531.6 L -533.9 533.2 L -568.1 533.7 L -601.0 538.6 L -616.3 536.9 L -632.2 530.2 L -657.9 507.3 L -692.6 482.1 L -726.0 461.3 L -744.0 441.5 L -765.7 420.3 L -774.5 414.1 L -790.9 410.6 L -803.4 407.4 L -816.8 402.1 L -873.8 368.5 L -929.1 329.6 L -940.4 325.0 L -954.5 325.5 L -986.9 327.1 L -1004.5 321.5 L -1019.5 313.0 L -1032.2 308.8 L -1048.0 305.8 L -1056.1 301.9 L -1079.0 280.6 L -1107.4 263.5 L -1130.8 247.3 L -1140.3 237.3 L -1145.6 226.5 L -1150.9 217.7 L -1158.8 213.3 L -1171.5 212.8 L -1232.1 219.5 L -1273.8 229.0 L -1326.3 239.9 L -1349.4 247.5 L -1371.4 259.5 L -1384.8 267.4 L -1401.0 274.3 L -1412.1 276.9 L -1422.1 275.7 L -1437.3 273.7 L -1458.9 274.3 L -1505.8 271.3 L -1597.9 268.8 L -1647.0 270.6 L -1715.9 276.2 L -1756.2 272.5 L -1788.5 270.2 L -1815.4 268.8 L -1855.2 272.5 L -1877.4 275.7 L -1913.5 281.3 L -1933.2 282.2 L -1952.8 283.1 L -2001.1 284.4 L -2029.9 284.4 L -2084.2 281.3 L -2111.3 273.0 L -2137.9 261.4 L -2173.5 243.4 L -2193.0 227.6 L -2197.8 215.6 L -2204.8 194.8 L -2212.9 177.6 L -2218.9 168.2 L -2222.8 158.4 L -2224.4 143.2 L -2225.4 128.1 L -2233.0 108.9 L -2256.6 86.5 L -2269.3 76.3 L -2281.6 66.1 L -2294.8 52.7 L -2303.8 37.7 L -2314.4 14.1 L -2325.8 -3.7 L -2348.9 -28.3 L -2379.4 -40.3 L -2420.4 -53.0 L -2449.5 -60.0 L -2469.0 -63.4 L -2492.6 -66.0 L -2528.7 -57.9 L -2554.6 -53.7 L -2579.0 -55.2 L -2604.8 -60.0 L -2631.2 -67.6 L -2649.9 -71.9 L -2718.1 -97.7 L -2749.6 -110.6 L -2757.7 -110.9 L -2762.1 -108.5 L -2810.7 -61.3 L -2874.5 6.2 L -2910.4 43.9 L -2930.5 63.1 L -2944.6 71.5 L -2958.5 76.8 L -2988.4 74.5 L -3016.8 70.1 L -3032.1 70.3 L -3045.5 71.9 L -3057.1 77.7 L -3069.6 80.5 L -3088.3 81.6 L -3117.2 81.6 L -3168.1 86.7 L -3182.0 90.4 L -3187.6 93.4 L -3195.0 99.9 L -3205.2 118.4" stroke="#000" stroke-width="1.3" stroke-opacity="0.8" fill="none" stroke-linecap="round" stroke-linejoin="round"/>
<path d="M 598.5 828.8 L 650.6 875.7" stroke="#000" stroke-width="1.3" stroke-opacity="0.8" fill="none" stroke-linecap="round" stroke-linejoin="round"/>
<path d="M 525.5 773.5 L 598.5 828.8" stroke="#000" stroke-width="1.3" stroke-opacity="0.8" fill="none" stroke-linecap="round" stroke-linejoin="round"/>
<path d="M 484.0 742.9 L 525.5 773.5" stroke="#000" stroke-width="1.3" stroke-opacity="0.8" fill="none" stroke-linecap="round" stroke-linejoin="round"/>
<path d="M 617.6 1004.4 L 676.8 1051.8" stroke="#000" stroke-width="1.3" stroke-opacity="0.8" fill="none" stroke-linecap="round" stroke-linejoin="round"/>
<path d="M 575.6 970.8 L 617.6 1004.4" stroke="#000" stroke-width="1.3" stroke-opacity="0.8" fill="none" stroke-linecap="round" stroke-linejoin="round"/>
<path d="M 676.8 1051.8 L 660.0 1074.1" stroke="#000" stroke-width="1.3" stroke-opacity="0.8" fill="none" stroke-linecap="round" stroke-linejoin="round"/>
<path d="M 537.2 1102.7 L 491.7 1164.4" stroke="#000" stroke-width="1.3" stroke-opacity="0.8" fill="none" stroke-linecap="round" stroke-linejoin="round"/>
<path d="M 388.8 657.8 L 466.7 606.6" stroke="#000" stroke-width="1.3" stroke-opacity="0.8" fill="none" stroke-linecap="round" stroke-linejoin="round"/>
<path d="M 496.5 1070.7 L 438.0 1145.7 L 421.8 1166.3 L 388.2 1209.5" stroke="#000" stroke-width="1.3" stroke-opacity="0.8" fill="none" stroke-linecap="round" stroke-linejoin="round"/>
<path d="M 575.6 970.8 L 496.5 1070.7" stroke="#000" stroke-width="1.3" stroke-opacity="0.8" fill="none" stroke-linecap="round" stroke-linejoin="round"/>
<path d="M 634.4 896.2 L 575.6 970.8" stroke="#000" stroke-width="1.3" stroke-opacity="0.8" fill="none" stroke-linecap="round" stroke-linejoin="round"/>
<path d="M 770.5 729.8 L 751.1 753.3" stroke="#000" stroke-width="1.3" stroke-opacity="0.8" fill="none" stroke-linecap="round" stroke-linejoin="round"/>
<path d="M 835.7 663.4 L 770.5 729.8" stroke="#000" stroke-width="1.3" stroke-opacity="0.8" fill="none" stroke-linecap="round" stroke-linejoin="round"/>
<path d="M 962.8 539.7 L 927.1 577.1 L 861.6 637.1 L 835.7 663.4" stroke="#000" stroke-width="1.3" stroke-opacity="0.8" fill="none" stroke-linecap="round" stroke-linejoin="round"/>
<path d="M 1008.7 484.2 L 962.8 539.7" stroke="#000" stroke-width="1.3" stroke-opacity="0.8" fill="none" stroke-linecap="round" stroke-linejoin="round"/>
<path d="M 1212.8 559.7 L 1294.1 598.9 L 1371.8 636.2 L 1400.7 652.2 L 1406.8 656.3 L 1409.3 660.9" stroke="#000" stroke-width="1.3" stroke-opacity="0.8" fill="none" stroke-linecap="round" stroke-linejoin="round"/>
<path d="M 1362.1 430.7 L 1306.0 459.5 L 1242.6 499.5 L 1235.4 511.3" stroke="#000" stroke-width="1.3" stroke-opacity="0.8" fill="none" stroke-linecap="round" stroke-linejoin="round"/>
<path d="M 1432.2 396.5 L 1362.1 430.7" stroke="#000" stroke-width="1.3" stroke-opacity="0.8" fill="none" stroke-linecap="round" stroke-linejoin="round"/>
<path d="M 1568.7 335.0 L 1550.3 342.7 L 1432.2 396.5" stroke="#000" stroke-width="1.3" stroke-opacity="0.8" fill="none" stroke-linecap="round" stroke-linejoin="round"/>
<path d="M 979.4 170.5 L 948.5 211.7 L 883.1 299.5" stroke="#000" stroke-width="1.3" stroke-opacity="0.8" fill="none" stroke-linecap="round" stroke-linejoin="round"/>
<path d="M 1021.2 121.6 L 979.4 170.5" stroke="#000" stroke-width="1.3" stroke-opacity="0.8" fill="none" stroke-linecap="round" stroke-linejoin="round"/>
<path d="M 1069.1 58.4 L 1021.2 121.6" stroke="#000" stroke-width="1.3" stroke-opacity="0.8" fill="none" stroke-linecap="round" stroke-linejoin="round"/>
<path d="M 1142.6 -40.7 L 1127.7 -19.6 L 1109.2 4.2 L 1069.1 58.4" stroke="#000" stroke-width="1.3" stroke-opacity="0.8" fill="none" stroke-linecap="round" stroke-linejoin="round"/>
<path d="M 294.8 517.5 L 212.2 540.6 L 152.1 560.5 L 123.2 569.1 L 112.8 574.9 L 109.5 586.0" stroke="#000" stroke-width="1.3" stroke-opacity="0.8" fill="none" stroke-linecap="round" stroke-linejoin="round"/>
<path d="M 1138.1 581.8 L 1143.6 575.7 L 1187.4 538.3 L 1225.4 505.7" stroke="#000" stroke-width="1.3" stroke-opacity="0.8" fill="none" stroke-linecap="round" stroke-linejoin="round"/>
<path d="M 971.4 796.9 L 997.4 808.8 L 1022.4 821.8" stroke="#000" stroke-width="1.3" stroke-opacity="0.8" fill="none" stroke-linecap="round" stroke-linejoin="round"/>
<path d="M 962.8 539.7 L 1000.8 565.9" stroke="#000" stroke-width="1.3" stroke-opacity="0.8" fill="none" stroke-linecap="round" stroke-linejoin="round"/>
<path d="M 288.8 920.3 L 260.4 953.5" stroke="#000" stroke-width="1.3" stroke-opacity="0.8" fill="none" stroke-linecap="round" stroke-linejoin="round"/>
<path d="M 372.1 811.5 L 288.8 920.3" stroke="#000" stroke-width="1.3" stroke-opacity="0.8" fill="none" stroke-linecap="round" stroke-linejoin="round"/>
<path d="M 442.2 716.2 L 372.1 811.5" stroke="#000" stroke-width="1.3" stroke-opacity="0.8" fill="none" stroke-linecap="round" stroke-linejoin="round"/>
<path d="M 539.7 588.5 L 496.5 645.1 L 442.2 716.2" stroke="#000" stroke-width="1.3" stroke-opacity="0.8" fill="none" stroke-linecap="round" stroke-linejoin="round"/>
<path d="M 620.2 483.8 L 539.7 588.5" stroke="#000" stroke-width="1.3" stroke-opacity="0.8" fill="none" stroke-linecap="round" stroke-linejoin="round"/>
<path d="M 294.8 517.5 L 293.2 533.2 L 297.5 573.9" stroke="#000" stroke-width="1.3" stroke-opacity="0.8" fill="none" stroke-linecap="round" stroke-linejoin="round"/>
<path d="M 325.1 422.0 L 310.3 454.8" stroke="#000" stroke-width="1.3" stroke-opacity="0.8" fill="none" stroke-linecap="round" stroke-linejoin="round"/>
<path d="M 618.8 648.3 L 690.4 704.6" stroke="#000" stroke-width="1.3" stroke-opacity="0.8" fill="none" stroke-linecap="round" stroke-linejoin="round"/>
<path d="M 539.7 588.5 L 578.7 618.0 L 618.8 648.3" stroke="#000" stroke-width="1.3" stroke-opacity="0.8" fill="none" stroke-linecap="round" stroke-linejoin="round"/>
<path d="M 449.5 513.7 L 497.7 556.8 L 539.7 588.5" stroke="#000" stroke-width="1.3" stroke-opacity="0.8" fill="none" stroke-linecap="round" stroke-linejoin="round"/>
<path d="M 525.5 773.5 L 618.8 648.3" stroke="#000" stroke-width="1.3" stroke-opacity="0.8" fill="none" stroke-linecap="round" stroke-linejoin="round"/>
<path d="M 452.3 871.6 L 525.5 773.5" stroke="#000" stroke-width="1.3" stroke-opacity="0.8" fill="none" stroke-linecap="round" stroke-linejoin="round"/>
<path d="M 363.3 981.4 L 452.3 871.6" stroke="#000" stroke-width="1.3" stroke-opacity="0.8" fill="none" stroke-linecap="round" stroke-linejoin="round"/>
<path d="M 254.1 1090.1 L 261.8 1082.4 L 363.3 981.4" stroke="#000" stroke-width="1.3" stroke-opacity="0.8" fill="none" stroke-linecap="round" stroke-linejoin="round"/>
<path d="M 594.9 481.2 L 584.5 484.4 L 554.2 486.0 L 497.7 556.8" stroke="#000" stroke-width="1.3" stroke-opacity="0.8" fill="none" stroke-linecap="round" stroke-linejoin="round"/>
<path d="M 379.3 883.5 L 411.6 839.7" stroke="#000" stroke-width="1.3" stroke-opacity="0.8" fill="none" stroke-linecap="round" stroke-linejoin="round"/>
<path d="M 549.2 312.8 L 503.8 295.7 L 473.2 281.3 L 420.5 261.4 L 504.7 -23.1 L 535.5 -119.3" stroke="#000" stroke-width="1.3" stroke-opacity="0.8" fill="none" stroke-linecap="round" stroke-linejoin="round"/>
<path d="M 1432.2 396.5 L 1444.7 446.0 L 1447.3 449.5 L 1450.6 450.7 L 1454.0 449.7 L 1458.7 447.5 L 1559.0 398.4" stroke="#000" stroke-width="1.3" stroke-opacity="0.8" fill="none" stroke-linecap="round" stroke-linejoin="round"/>
<path d="M 1575.6 446.8 L 1604.1 429.9 L 1686.6 389.1" stroke="#000" stroke-width="1.3" stroke-opacity="0.8" fill="none" stroke-linecap="round" stroke-linejoin="round"/>
  
    <g stroke="#000" fill="none" stroke-width="2.9952">
      <circle cx="936" cy="702" r="16.848"/>
      <circle cx="936" cy="702" r="3.744" fill="#000" stroke="none"/>
    </g>
  <rect width="100%" height="100%" fill="url(#vignette)"/>
  
    <g transform="translate(1776, 116)" stroke="#000" stroke-width="2.2464" fill="#000">
      <line x1="0" y1="37.44" x2="0" y2="-37.44"/>
      <path d="M 0 -37.44 L 13.104 -13.104 L 0 -22.464 L -13.104 -13.104 Z"/>
      <text x="0" y="59.44" text-anchor="middle" font-family="Georgia, serif" font-size="22.464000000000002">N</text>
    </g>
  <rect x="66" y="66" width="1740" height="1272" fill="none" stroke="#000" stroke-width="2" stroke-opacity="0.7"/>
  <rect x="74" y="74" width="1724" height="1256" fill="none" stroke="#000" stroke-width="1" stroke-opacity="0.4"/>
  <g text-anchor="middle" font-family="Georgia, serif" fill="#000">
        <line x1="846" y1="1274" x2="1026" y2="1274" stroke="#000" stroke-width="1.5"/>
        <text x="936" y="1312" font-size="39.312000000000005" letter-spacing="1">Ch’iko</text>
        <text x="936" y="1338" font-size="22.464000000000002" fill="#000" opacity="0.75">6.5845°N  38.3372°E</text>
      </g>
</svg>